<?xml version="1.0" encoding="utf-8" standalone="no"?>
<!DOCTYPE svg PUBLIC "-//W3C//DTD SVG 1.1//EN"
  "http://www.w3.org/Graphics/SVG/1.1/DTD/svg11.dtd">
<!-- Created with matplotlib (https://matplotlib.org/) -->
<svg height="864pt" version="1.1" viewBox="0 0 1440 864" width="1440pt" xmlns="http://www.w3.org/2000/svg" xmlns:xlink="http://www.w3.org/1999/xlink">
 <metadata>
  <rdf:RDF xmlns:cc="http://creativecommons.org/ns#" xmlns:dc="http://purl.org/dc/elements/1.1/" xmlns:rdf="http://www.w3.org/1999/02/22-rdf-syntax-ns#">
   <cc:Work>
    <dc:type rdf:resource="http://purl.org/dc/dcmitype/StillImage"/>
    <dc:date>2020-12-24T04:57:40.016243</dc:date>
    <dc:format>image/svg+xml</dc:format>
    <dc:creator>
     <cc:Agent>
      <dc:title>Matplotlib v3.3.1, https://matplotlib.org/</dc:title>
     </cc:Agent>
    </dc:creator>
   </cc:Work>
  </rdf:RDF>
 </metadata>
 <defs>
  <style type="text/css">*{stroke-linecap:butt;stroke-linejoin:round;}</style>
 </defs>
 <g id="figure_1">
  <g id="patch_1">
   <path d="M 0 864 
L 1440 864 
L 1440 0 
L 0 0 
z
" style="fill:none;"/>
  </g>
  <g id="axes_1">
   <g id="patch_2">
    <path d="M 180 756 
L 1296 756 
L 1296 103.68 
L 180 103.68 
z
" style="fill:#ffffff;"/>
   </g>
   <g id="PolyCollection_1">
    <path clip-path="url(#p6d7dc4f0d2)" d="M 230.727273 333.850969 
L 230.727273 333.850969 
L 234.120401 416.960031 
L 237.51353 427.024759 
L 240.906659 431.707037 
L 244.299787 424.745267 
L 247.692916 430.734501 
L 251.086044 427.166463 
L 254.479173 434.482304 
L 257.872302 422.955976 
L 261.26543 421.109076 
L 264.658559 378.540467 
L 268.051687 393.28793 
L 271.444816 395.501154 
L 274.837945 415.713502 
L 278.231073 423.392562 
L 281.624202 420.777478 
L 285.01733 426.482665 
L 288.410459 438.021901 
L 291.803588 416.411134 
L 295.196716 421.034667 
L 298.589845 378.13778 
L 301.982974 422.337812 
L 305.376102 398.581614 
L 308.769231 391.986181 
L 312.162359 391.648703 
L 315.555488 456.876929 
L 318.948617 522.947434 
L 322.341745 501.653828 
L 325.734874 554.253233 
L 329.128002 555.368987 
L 332.521131 548.001943 
L 335.91426 552.825772 
L 339.307388 551.858739 
L 342.700517 549.589678 
L 346.093645 549.631044 
L 349.486774 553.611831 
L 352.879903 559.498992 
L 356.273031 560.448441 
L 359.66616 573.785827 
L 363.059289 563.925926 
L 366.452417 573.702891 
L 369.845546 637.813032 
L 373.238674 588.579331 
L 376.631803 576.985504 
L 380.024932 584.307637 
L 383.41806 584.794714 
L 386.811189 575.463198 
L 390.204317 605.705471 
L 393.597446 588.493563 
L 396.990575 624.529152 
L 400.383703 661.668067 
L 403.776832 586.592221 
L 407.16996 605.857497 
L 410.563089 571.848528 
L 413.956218 609.737022 
L 417.349346 624.304758 
L 420.742475 650.193837 
L 424.135604 613.301967 
L 427.528732 622.606351 
L 430.921861 582.579649 
L 434.314989 612.045601 
L 437.708118 637.017793 
L 441.101247 600.501695 
L 444.494375 725.077745 
L 447.887504 615.265616 
L 451.280632 616.079718 
L 454.673761 644.557356 
L 458.06689 605.835671 
L 461.460018 610.663906 
L 464.853147 624.036557 
L 468.246275 671.120983 
L 471.639404 754.357747 
L 475.032533 645.222194 
L 478.425661 756 
L 481.81879 745.058311 
L 485.211919 670.519085 
L 488.605047 756 
L 491.998176 754.215784 
L 495.391304 755.927305 
L 498.784433 755.53559 
L 502.177562 756 
L 505.57069 755.013664 
L 508.963819 755.768011 
L 512.356947 587.134743 
L 515.750076 755.928284 
L 519.143205 756 
L 522.536333 755.983203 
L 525.929462 756 
L 529.32259 755.697217 
L 532.715719 756 
L 536.108848 756 
L 539.501976 756 
L 542.895105 755.88426 
L 546.288234 755.978731 
L 549.681362 756 
L 553.074491 755.662771 
L 556.467619 752.624156 
L 559.860748 755.590465 
L 563.253877 755.999999 
L 566.647005 755.978339 
L 570.040134 755.953415 
L 573.433262 755.997746 
L 576.826391 755.98885 
L 580.21952 756 
L 583.612648 756 
L 587.005777 755.96196 
L 590.398905 755.858191 
L 593.792034 756 
L 597.185163 755.918753 
L 600.578291 755.947287 
L 603.97142 755.714449 
L 607.364548 755.946799 
L 610.757677 724.017782 
L 614.150806 755.987377 
L 617.543934 756 
L 620.937063 756 
L 624.330192 756 
L 627.72332 756 
L 631.116449 755.998877 
L 634.509577 753.566515 
L 637.902706 755.978922 
L 641.295835 755.82333 
L 644.688963 755.464536 
L 648.082092 756 
L 651.47522 755.858485 
L 654.868349 755.998774 
L 658.261478 755.999781 
L 661.654606 755.999803 
L 665.047735 756 
L 668.440863 755.959321 
L 671.833992 755.90422 
L 675.227121 755.999974 
L 678.620249 755.796719 
L 682.013378 631.907994 
L 685.406507 627.337414 
L 688.799635 754.505292 
L 692.192764 582.568536 
L 695.585892 669.106376 
L 698.979021 734.179245 
L 702.37215 680.329281 
L 705.765278 755.084053 
L 709.158407 586.318851 
L 712.551535 641.583757 
L 715.944664 597.118474 
L 719.337793 604.986655 
L 722.730921 580.123044 
L 726.12405 565.954759 
L 729.517178 562.959614 
L 732.910307 557.654596 
L 736.303436 570.883095 
L 739.696564 576.760899 
L 743.089693 508.267674 
L 746.482822 571.643624 
L 749.87595 531.488204 
L 753.269079 577.092332 
L 756.662207 624.366842 
L 760.055336 616.639532 
L 763.448465 672.513309 
L 766.841593 705.907324 
L 770.234722 680.905498 
L 773.62785 677.525232 
L 777.020979 715.672109 
L 780.414108 747.477551 
L 783.807236 723.528462 
L 787.200365 720.338206 
L 790.593493 722.068404 
L 793.986622 574.485416 
L 797.379751 580.319795 
L 800.772879 640.313462 
L 804.166008 713.805294 
L 807.559137 715.860659 
L 810.952265 717.801308 
L 814.345394 732.457082 
L 817.738522 681.284923 
L 821.131651 719.358365 
L 824.52478 610.721875 
L 827.917908 699.132246 
L 831.311037 549.096097 
L 834.704165 553.240141 
L 838.097294 710.354492 
L 841.490423 733.883035 
L 844.883551 739.964194 
L 848.27668 750.357014 
L 851.669808 742.599356 
L 855.062937 743.434467 
L 858.456066 746.300608 
L 861.849194 728.663799 
L 865.242323 755.865545 
L 868.635452 748.837039 
L 872.02858 711.719174 
L 875.421709 590.858174 
L 878.814837 720.647405 
L 882.207966 546.533304 
L 885.601095 586.678338 
L 888.994223 751.211673 
L 892.387352 755.999992 
L 895.78048 755.999999 
L 899.173609 755.993294 
L 902.566738 755.923847 
L 905.959866 756 
L 909.352995 756 
L 912.746123 755.999961 
L 916.139252 755.951225 
L 919.532381 755.990421 
L 922.925509 756 
L 926.318638 756 
L 929.711766 755.994698 
L 933.104895 756 
L 936.498024 755.999722 
L 939.891152 755.997429 
L 943.284281 755.999221 
L 946.67741 756 
L 950.070538 756 
L 953.463667 755.914355 
L 956.856795 755.998593 
L 960.249924 755.999969 
L 963.643053 753.777771 
L 967.036181 755.954143 
L 970.42931 755.987673 
L 973.822438 756 
L 977.215567 740.856301 
L 980.608696 755.99255 
L 984.001824 756 
L 987.394953 756 
L 990.788081 756 
L 994.18121 756 
L 997.574339 755.303904 
L 1000.967467 754.20451 
L 1004.360596 756 
L 1007.753725 756 
L 1011.146853 755.783063 
L 1014.539982 756 
L 1017.93311 755.154436 
L 1021.326239 755.998401 
L 1024.719368 755.844784 
L 1028.112496 755.998839 
L 1031.505625 756 
L 1034.898753 756 
L 1038.291882 755.999888 
L 1041.685011 755.940338 
L 1045.078139 756 
L 1048.471268 755.995449 
L 1051.864396 756 
L 1055.257525 755.999984 
L 1058.650654 755.996599 
L 1062.043782 755.999615 
L 1065.436911 756 
L 1068.83004 755.800375 
L 1072.223168 756 
L 1075.616297 756 
L 1079.009425 756 
L 1082.402554 753.462026 
L 1085.795683 754.406024 
L 1089.188811 756 
L 1092.58194 755.904623 
L 1095.975068 755.999291 
L 1099.368197 754.175545 
L 1102.761326 755.988351 
L 1106.154454 755.783468 
L 1109.547583 755.784853 
L 1112.940711 755.770885 
L 1116.33384 734.58299 
L 1119.726969 756 
L 1123.120097 755.994983 
L 1126.513226 754.337681 
L 1129.906355 756 
L 1133.299483 755.947253 
L 1136.692612 748.775273 
L 1140.08574 755.750315 
L 1143.478869 755.99998 
L 1146.871998 755.999094 
L 1150.265126 741.220078 
L 1153.658255 755.932431 
L 1157.051383 756 
L 1160.444512 756 
L 1163.837641 756 
L 1167.230769 756 
L 1170.623898 756 
L 1174.017026 755.999947 
L 1177.410155 755.999764 
L 1180.803284 756 
L 1184.196412 755.999999 
L 1187.589541 756 
L 1190.98267 755.960019 
L 1194.375798 755.420958 
L 1197.768927 756 
L 1201.162055 755.87145 
L 1204.555184 756 
L 1207.948313 756 
L 1211.341441 755.991885 
L 1214.73457 755.999996 
L 1218.127698 567.180412 
L 1221.520827 594.837678 
L 1224.913956 664.898257 
L 1228.307084 718.512322 
L 1231.700213 737.818119 
L 1235.093341 709.89348 
L 1238.48647 753.801796 
L 1241.879599 755.914183 
L 1245.272727 748.083931 
L 1245.272727 748.083931 
L 1245.272727 759.023669 
L 1241.879599 756.032779 
L 1238.48647 756.839639 
L 1235.093341 773.611123 
L 1231.700213 762.944861 
L 1228.307084 770.319025 
L 1224.913956 790.801588 
L 1221.520827 817.534738 
L 1218.127698 828.122668 
L 1214.73457 756.000001 
L 1211.341441 756.0031 
L 1207.948313 756 
L 1204.555184 756 
L 1201.162055 756.020365 
L 1197.768927 756 
L 1194.375798 756.221174 
L 1190.98267 756.015271 
L 1187.589541 756 
L 1184.196412 756 
L 1180.803284 756 
L 1177.410155 756.00009 
L 1174.017026 756.00002 
L 1170.623898 756 
L 1167.230769 756 
L 1163.837641 756 
L 1160.444512 756 
L 1157.051383 756 
L 1153.658255 756.025809 
L 1150.265126 761.645378 
L 1146.871998 756.000346 
L 1143.478869 756.000008 
L 1140.08574 756.095119 
L 1136.692612 758.759605 
L 1133.299483 756.020147 
L 1129.906355 756 
L 1126.513226 756.634949 
L 1123.120097 756.001916 
L 1119.726969 756 
L 1116.33384 764.216929 
L 1112.940711 756.087514 
L 1109.547583 756.02052 
L 1106.154454 756.082708 
L 1102.761326 756.00445 
L 1099.368197 756.695682 
L 1095.975068 756.000271 
L 1092.58194 756.036431 
L 1089.188811 756 
L 1085.795683 756.608845 
L 1082.402554 756.96942 
L 1079.009425 756 
L 1075.616297 756 
L 1072.223168 756 
L 1068.83004 756.07625 
L 1065.436911 756 
L 1062.043782 756.000147 
L 1058.650654 756.001299 
L 1055.257525 756.000006 
L 1051.864396 756 
L 1048.471268 756.001738 
L 1045.078139 756 
L 1041.685011 756.022789 
L 1038.291882 756.000043 
L 1034.898753 756 
L 1031.505625 756 
L 1028.112496 756.000443 
L 1024.719368 756.059287 
L 1021.326239 756.000611 
L 1017.93311 756.322977 
L 1014.539982 756 
L 1011.146853 756.082863 
L 1007.753725 756 
L 1004.360596 756 
L 1000.967467 756.685816 
L 997.574339 756.265885 
L 994.18121 756 
L 990.788081 756 
L 987.394953 756 
L 984.001824 756 
L 980.608696 756.002845 
L 977.215567 761.784378 
L 973.822438 756 
L 970.42931 756.004709 
L 967.036181 756.017516 
L 963.643053 756.848816 
L 960.249924 756.000012 
L 956.856795 756.000563 
L 953.463667 756.032714 
L 950.070538 756 
L 946.67741 756 
L 943.284281 756.000297 
L 939.891152 756.000982 
L 936.498024 756.000106 
L 933.104895 756 
L 929.711766 756.002025 
L 926.318638 756 
L 922.925509 756 
L 919.532381 756.003659 
L 916.139252 756.01863 
L 912.746123 756.000015 
L 909.352995 756 
L 905.959866 756 
L 902.566738 756.029088 
L 899.173609 756.002562 
L 895.78048 756 
L 892.387352 756.000003 
L 888.994223 757.829073 
L 885.601095 820.661942 
L 882.207966 836.765021 
L 878.814837 765.458314 
L 875.421709 813.664419 
L 872.02858 770.725115 
L 868.635452 758.484277 
L 865.242323 756.046584 
L 861.849194 766.441499 
L 858.456066 759.684623 
L 855.062937 760.799292 
L 851.669808 761.122396 
L 848.27668 758.133056 
L 844.883551 760.175419 
L 841.490423 764.450224 
L 838.097294 773.098224 
L 834.704165 798.373097 
L 831.311037 789.255021 
L 827.917908 777.153771 
L 824.52478 801.436302 
L 821.131651 766.852631 
L 817.738522 776.99336 
L 814.345394 761.673501 
L 810.952265 764.265223 
L 807.559137 769.942489 
L 804.166008 762.601236 
L 800.772879 783.215432 
L 797.379751 802.222724 
L 793.986622 793.383149 
L 790.593493 768.960733 
L 787.200365 769.641474 
L 783.807236 768.412033 
L 780.414108 759.051366 
L 777.020979 767.04303 
L 773.62785 785.172417 
L 770.234722 780.508573 
L 766.841593 764.734736 
L 763.448465 773.453963 
L 760.055336 809.145751 
L 756.662207 806.273157 
L 753.269079 824.331582 
L 749.87595 810.593174 
L 746.482822 828.521772 
L 743.089693 794.546752 
L 739.696564 824.528876 
L 736.303436 826.708661 
L 732.910307 831.771612 
L 729.517178 830.162692 
L 726.12405 828.46518 
L 722.730921 823.155777 
L 719.337793 813.686635 
L 715.944664 816.687343 
L 712.551535 799.707835 
L 709.158407 820.71211 
L 705.765278 756.349782 
L 702.37215 784.998299 
L 698.979021 764.26207 
L 695.585892 787.056451 
L 692.192764 822.181246 
L 688.799635 756.443425 
L 685.406507 790.681848 
L 682.013378 803.387911 
L 678.620249 756.077647 
L 675.227121 756.00001 
L 671.833992 756.036585 
L 668.440863 756.015538 
L 665.047735 756 
L 661.654606 756.000075 
L 658.261478 756.000084 
L 654.868349 755.998774 
L 651.47522 756.04567 
L 648.082092 756 
L 644.688963 756.187297 
L 641.295835 756.067482 
L 637.902706 756.008051 
L 634.509577 756.929466 
L 631.116449 756.000429 
L 627.72332 756 
L 624.330192 756 
L 620.937063 756 
L 617.543934 756 
L 614.150806 756.004822 
L 610.757677 767.797679 
L 607.364548 756.020321 
L 603.97142 756.109092 
L 600.578291 756.020134 
L 597.185163 756.031034 
L 593.792034 756 
L 590.398905 756.054166 
L 587.005777 756.01453 
L 583.612648 756 
L 580.21952 756 
L 576.826391 756.004259 
L 573.433262 756.000036 
L 570.040134 756.017794 
L 566.647005 756.007835 
L 563.253877 756 
L 559.860748 756.156433 
L 556.467619 757.289458 
L 553.074491 756.12881 
L 549.681362 756 
L 546.288234 756.008124 
L 542.895105 756.042568 
L 539.501976 756 
L 536.108848 756 
L 532.715719 756 
L 529.32259 756.116128 
L 525.929462 756 
L 522.536333 756.006416 
L 519.143205 756 
L 515.750076 756.027393 
L 512.356947 819.84089 
L 508.963819 756.088612 
L 505.57069 756.356703 
L 502.177562 756 
L 498.784433 756.187651 
L 495.391304 756.031124 
L 491.998176 756.656088 
L 488.605047 756 
L 485.211919 788.653316 
L 481.81879 760.134864 
L 478.425661 756 
L 475.032533 798.310893 
L 471.639404 756.627894 
L 468.246275 788.313307 
L 464.853147 806.427114 
L 461.460018 810.93958 
L 458.06689 813.217548 
L 454.673761 798.253861 
L 451.280632 808.373726 
L 447.887504 809.755815 
L 444.494375 767.818892 
L 441.101247 815.235834 
L 437.708118 801.453358 
L 434.314989 810.257817 
L 430.921861 822.258951 
L 427.528732 806.954415 
L 424.135604 810.398149 
L 420.742475 796.379568 
L 417.349346 806.287505 
L 413.956218 811.904251 
L 410.563089 825.928799 
L 407.16996 813.346351 
L 403.776832 820.708179 
L 400.383703 791.433177 
L 396.990575 805.832311 
L 393.597446 820.107106 
L 390.204317 812.221141 
L 386.811189 824.95606 
L 383.41806 821.246226 
L 380.024932 818.224708 
L 376.631803 824.453223 
L 373.238674 819.953845 
L 369.845546 798.828051 
L 366.452417 826.079878 
L 363.059289 829.355015 
L 359.66616 825.614516 
L 356.273031 830.804586 
L 352.879903 830.732414 
L 349.486774 833.536234 
L 346.093645 834.768109 
L 342.700517 831.176858 
L 339.307388 834.708348 
L 335.91426 831.515601 
L 332.521131 835.406066 
L 329.128002 832.492933 
L 325.734874 826.111386 
L 322.341745 793.012079 
L 318.948617 798.903153 
L 315.555488 729.827064 
L 312.162359 657.342956 
L 308.769231 670.025021 
L 305.376102 689.633342 
L 301.982974 685.34504 
L 298.589845 659.396752 
L 295.196716 702.290673 
L 291.803588 720.091901 
L 288.410459 742.853665 
L 285.01733 593.339395 
L 281.624202 752.701238 
L 278.231073 716.889833 
L 274.837945 727.68392 
L 271.444816 721.293585 
L 268.051687 644.828812 
L 264.658559 649.559731 
L 261.26543 508.804365 
L 257.872302 496.259587 
L 254.479173 448.020861 
L 251.086044 452.787804 
L 247.692916 446.950917 
L 244.299787 437.363138 
L 240.906659 437.616549 
L 237.51353 435.343153 
L 234.120401 453.282351 
L 230.727273 363.381869 
z
" style="fill:#1f77b4;fill-opacity:0.4;"/>
   </g>
   <g id="matplotlib.axis_1">
    <g id="xtick_1">
     <g id="line2d_1">
      <path clip-path="url(#p6d7dc4f0d2)" d="M 230.727273 756 
L 230.727273 103.68 
" style="fill:none;stroke:#b0b0b0;stroke-linecap:square;stroke-width:0.8;"/>
     </g>
     <g id="line2d_2">
      <defs>
       <path d="M 0 0 
L 0 3.5 
" id="md278a52202" style="stroke:#000000;stroke-width:0.8;"/>
      </defs>
      <g>
       <use style="stroke:#000000;stroke-width:0.8;" x="230.727273" xlink:href="#md278a52202" y="756"/>
      </g>
     </g>
     <g id="text_1">
      <!-- 0 -->
      <g transform="translate(223.092273 781.23625)scale(0.24 -0.24)">
       <defs>
        <path d="M 31.78125 66.40625 
Q 24.171875 66.40625 20.328125 58.90625 
Q 16.5 51.421875 16.5 36.375 
Q 16.5 21.390625 20.328125 13.890625 
Q 24.171875 6.390625 31.78125 6.390625 
Q 39.453125 6.390625 43.28125 13.890625 
Q 47.125 21.390625 47.125 36.375 
Q 47.125 51.421875 43.28125 58.90625 
Q 39.453125 66.40625 31.78125 66.40625 
z
M 31.78125 74.21875 
Q 44.046875 74.21875 50.515625 64.515625 
Q 56.984375 54.828125 56.984375 36.375 
Q 56.984375 17.96875 50.515625 8.265625 
Q 44.046875 -1.421875 31.78125 -1.421875 
Q 19.53125 -1.421875 13.0625 8.265625 
Q 6.59375 17.96875 6.59375 36.375 
Q 6.59375 54.828125 13.0625 64.515625 
Q 19.53125 74.21875 31.78125 74.21875 
z
" id="DejaVuSans-48"/>
       </defs>
       <use xlink:href="#DejaVuSans-48"/>
      </g>
     </g>
    </g>
    <g id="xtick_2">
     <g id="line2d_3">
      <path clip-path="url(#p6d7dc4f0d2)" d="M 357.546089 756 
L 357.546089 103.68 
" style="fill:none;stroke:#b0b0b0;stroke-linecap:square;stroke-width:0.8;"/>
     </g>
     <g id="line2d_4">
      <g>
       <use style="stroke:#000000;stroke-width:0.8;" x="357.546089" xlink:href="#md278a52202" y="756"/>
      </g>
     </g>
     <g id="text_2">
      <!-- 25000 -->
      <g transform="translate(319.371089 781.23625)scale(0.24 -0.24)">
       <defs>
        <path d="M 19.1875 8.296875 
L 53.609375 8.296875 
L 53.609375 0 
L 7.328125 0 
L 7.328125 8.296875 
Q 12.9375 14.109375 22.625 23.890625 
Q 32.328125 33.6875 34.8125 36.53125 
Q 39.546875 41.84375 41.421875 45.53125 
Q 43.3125 49.21875 43.3125 52.78125 
Q 43.3125 58.59375 39.234375 62.25 
Q 35.15625 65.921875 28.609375 65.921875 
Q 23.96875 65.921875 18.8125 64.3125 
Q 13.671875 62.703125 7.8125 59.421875 
L 7.8125 69.390625 
Q 13.765625 71.78125 18.9375 73 
Q 24.125 74.21875 28.421875 74.21875 
Q 39.75 74.21875 46.484375 68.546875 
Q 53.21875 62.890625 53.21875 53.421875 
Q 53.21875 48.921875 51.53125 44.890625 
Q 49.859375 40.875 45.40625 35.40625 
Q 44.1875 33.984375 37.640625 27.21875 
Q 31.109375 20.453125 19.1875 8.296875 
z
" id="DejaVuSans-50"/>
        <path d="M 10.796875 72.90625 
L 49.515625 72.90625 
L 49.515625 64.59375 
L 19.828125 64.59375 
L 19.828125 46.734375 
Q 21.96875 47.46875 24.109375 47.828125 
Q 26.265625 48.1875 28.421875 48.1875 
Q 40.625 48.1875 47.75 41.5 
Q 54.890625 34.8125 54.890625 23.390625 
Q 54.890625 11.625 47.5625 5.09375 
Q 40.234375 -1.421875 26.90625 -1.421875 
Q 22.3125 -1.421875 17.546875 -0.640625 
Q 12.796875 0.140625 7.71875 1.703125 
L 7.71875 11.625 
Q 12.109375 9.234375 16.796875 8.0625 
Q 21.484375 6.890625 26.703125 6.890625 
Q 35.15625 6.890625 40.078125 11.328125 
Q 45.015625 15.765625 45.015625 23.390625 
Q 45.015625 31 40.078125 35.4375 
Q 35.15625 39.890625 26.703125 39.890625 
Q 22.75 39.890625 18.8125 39.015625 
Q 14.890625 38.140625 10.796875 36.28125 
z
" id="DejaVuSans-53"/>
       </defs>
       <use xlink:href="#DejaVuSans-50"/>
       <use x="63.623047" xlink:href="#DejaVuSans-53"/>
       <use x="127.246094" xlink:href="#DejaVuSans-48"/>
       <use x="190.869141" xlink:href="#DejaVuSans-48"/>
       <use x="254.492188" xlink:href="#DejaVuSans-48"/>
      </g>
     </g>
    </g>
    <g id="xtick_3">
     <g id="line2d_5">
      <path clip-path="url(#p6d7dc4f0d2)" d="M 484.364905 756 
L 484.364905 103.68 
" style="fill:none;stroke:#b0b0b0;stroke-linecap:square;stroke-width:0.8;"/>
     </g>
     <g id="line2d_6">
      <g>
       <use style="stroke:#000000;stroke-width:0.8;" x="484.364905" xlink:href="#md278a52202" y="756"/>
      </g>
     </g>
     <g id="text_3">
      <!-- 50000 -->
      <g transform="translate(446.189905 781.23625)scale(0.24 -0.24)">
       <use xlink:href="#DejaVuSans-53"/>
       <use x="63.623047" xlink:href="#DejaVuSans-48"/>
       <use x="127.246094" xlink:href="#DejaVuSans-48"/>
       <use x="190.869141" xlink:href="#DejaVuSans-48"/>
       <use x="254.492188" xlink:href="#DejaVuSans-48"/>
      </g>
     </g>
    </g>
    <g id="xtick_4">
     <g id="line2d_7">
      <path clip-path="url(#p6d7dc4f0d2)" d="M 611.18372 756 
L 611.18372 103.68 
" style="fill:none;stroke:#b0b0b0;stroke-linecap:square;stroke-width:0.8;"/>
     </g>
     <g id="line2d_8">
      <g>
       <use style="stroke:#000000;stroke-width:0.8;" x="611.18372" xlink:href="#md278a52202" y="756"/>
      </g>
     </g>
     <g id="text_4">
      <!-- 75000 -->
      <g transform="translate(573.00872 781.23625)scale(0.24 -0.24)">
       <defs>
        <path d="M 8.203125 72.90625 
L 55.078125 72.90625 
L 55.078125 68.703125 
L 28.609375 0 
L 18.3125 0 
L 43.21875 64.59375 
L 8.203125 64.59375 
z
" id="DejaVuSans-55"/>
       </defs>
       <use xlink:href="#DejaVuSans-55"/>
       <use x="63.623047" xlink:href="#DejaVuSans-53"/>
       <use x="127.246094" xlink:href="#DejaVuSans-48"/>
       <use x="190.869141" xlink:href="#DejaVuSans-48"/>
       <use x="254.492188" xlink:href="#DejaVuSans-48"/>
      </g>
     </g>
    </g>
    <g id="xtick_5">
     <g id="line2d_9">
      <path clip-path="url(#p6d7dc4f0d2)" d="M 738.002536 756 
L 738.002536 103.68 
" style="fill:none;stroke:#b0b0b0;stroke-linecap:square;stroke-width:0.8;"/>
     </g>
     <g id="line2d_10">
      <g>
       <use style="stroke:#000000;stroke-width:0.8;" x="738.002536" xlink:href="#md278a52202" y="756"/>
      </g>
     </g>
     <g id="text_5">
      <!-- 100000 -->
      <g transform="translate(692.192536 781.23625)scale(0.24 -0.24)">
       <defs>
        <path d="M 12.40625 8.296875 
L 28.515625 8.296875 
L 28.515625 63.921875 
L 10.984375 60.40625 
L 10.984375 69.390625 
L 28.421875 72.90625 
L 38.28125 72.90625 
L 38.28125 8.296875 
L 54.390625 8.296875 
L 54.390625 0 
L 12.40625 0 
z
" id="DejaVuSans-49"/>
       </defs>
       <use xlink:href="#DejaVuSans-49"/>
       <use x="63.623047" xlink:href="#DejaVuSans-48"/>
       <use x="127.246094" xlink:href="#DejaVuSans-48"/>
       <use x="190.869141" xlink:href="#DejaVuSans-48"/>
       <use x="254.492188" xlink:href="#DejaVuSans-48"/>
       <use x="318.115234" xlink:href="#DejaVuSans-48"/>
      </g>
     </g>
    </g>
    <g id="xtick_6">
     <g id="line2d_11">
      <path clip-path="url(#p6d7dc4f0d2)" d="M 864.821352 756 
L 864.821352 103.68 
" style="fill:none;stroke:#b0b0b0;stroke-linecap:square;stroke-width:0.8;"/>
     </g>
     <g id="line2d_12">
      <g>
       <use style="stroke:#000000;stroke-width:0.8;" x="864.821352" xlink:href="#md278a52202" y="756"/>
      </g>
     </g>
     <g id="text_6">
      <!-- 125000 -->
      <g transform="translate(819.011352 781.23625)scale(0.24 -0.24)">
       <use xlink:href="#DejaVuSans-49"/>
       <use x="63.623047" xlink:href="#DejaVuSans-50"/>
       <use x="127.246094" xlink:href="#DejaVuSans-53"/>
       <use x="190.869141" xlink:href="#DejaVuSans-48"/>
       <use x="254.492188" xlink:href="#DejaVuSans-48"/>
       <use x="318.115234" xlink:href="#DejaVuSans-48"/>
      </g>
     </g>
    </g>
    <g id="xtick_7">
     <g id="line2d_13">
      <path clip-path="url(#p6d7dc4f0d2)" d="M 991.640168 756 
L 991.640168 103.68 
" style="fill:none;stroke:#b0b0b0;stroke-linecap:square;stroke-width:0.8;"/>
     </g>
     <g id="line2d_14">
      <g>
       <use style="stroke:#000000;stroke-width:0.8;" x="991.640168" xlink:href="#md278a52202" y="756"/>
      </g>
     </g>
     <g id="text_7">
      <!-- 150000 -->
      <g transform="translate(945.830168 781.23625)scale(0.24 -0.24)">
       <use xlink:href="#DejaVuSans-49"/>
       <use x="63.623047" xlink:href="#DejaVuSans-53"/>
       <use x="127.246094" xlink:href="#DejaVuSans-48"/>
       <use x="190.869141" xlink:href="#DejaVuSans-48"/>
       <use x="254.492188" xlink:href="#DejaVuSans-48"/>
       <use x="318.115234" xlink:href="#DejaVuSans-48"/>
      </g>
     </g>
    </g>
    <g id="xtick_8">
     <g id="line2d_15">
      <path clip-path="url(#p6d7dc4f0d2)" d="M 1118.458984 756 
L 1118.458984 103.68 
" style="fill:none;stroke:#b0b0b0;stroke-linecap:square;stroke-width:0.8;"/>
     </g>
     <g id="line2d_16">
      <g>
       <use style="stroke:#000000;stroke-width:0.8;" x="1118.458984" xlink:href="#md278a52202" y="756"/>
      </g>
     </g>
     <g id="text_8">
      <!-- 175000 -->
      <g transform="translate(1072.648984 781.23625)scale(0.24 -0.24)">
       <use xlink:href="#DejaVuSans-49"/>
       <use x="63.623047" xlink:href="#DejaVuSans-55"/>
       <use x="127.246094" xlink:href="#DejaVuSans-53"/>
       <use x="190.869141" xlink:href="#DejaVuSans-48"/>
       <use x="254.492188" xlink:href="#DejaVuSans-48"/>
       <use x="318.115234" xlink:href="#DejaVuSans-48"/>
      </g>
     </g>
    </g>
    <g id="xtick_9">
     <g id="line2d_17">
      <path clip-path="url(#p6d7dc4f0d2)" d="M 1245.2778 756 
L 1245.2778 103.68 
" style="fill:none;stroke:#b0b0b0;stroke-linecap:square;stroke-width:0.8;"/>
     </g>
     <g id="line2d_18">
      <g>
       <use style="stroke:#000000;stroke-width:0.8;" x="1245.2778" xlink:href="#md278a52202" y="756"/>
      </g>
     </g>
     <g id="text_9">
      <!-- 200000 -->
      <g transform="translate(1199.4678 781.23625)scale(0.24 -0.24)">
       <use xlink:href="#DejaVuSans-50"/>
       <use x="63.623047" xlink:href="#DejaVuSans-48"/>
       <use x="127.246094" xlink:href="#DejaVuSans-48"/>
       <use x="190.869141" xlink:href="#DejaVuSans-48"/>
       <use x="254.492188" xlink:href="#DejaVuSans-48"/>
       <use x="318.115234" xlink:href="#DejaVuSans-48"/>
      </g>
     </g>
    </g>
    <g id="text_10">
     <!-- Iterations $\to$ -->
     <g transform="translate(708.4 797.825938)scale(0.1 -0.1)">
      <defs>
       <path d="M 9.8125 72.90625 
L 19.671875 72.90625 
L 19.671875 0 
L 9.8125 0 
z
" id="DejaVuSans-73"/>
       <path d="M 18.3125 70.21875 
L 18.3125 54.6875 
L 36.8125 54.6875 
L 36.8125 47.703125 
L 18.3125 47.703125 
L 18.3125 18.015625 
Q 18.3125 11.328125 20.140625 9.421875 
Q 21.96875 7.515625 27.59375 7.515625 
L 36.8125 7.515625 
L 36.8125 0 
L 27.59375 0 
Q 17.1875 0 13.234375 3.875 
Q 9.28125 7.765625 9.28125 18.015625 
L 9.28125 47.703125 
L 2.6875 47.703125 
L 2.6875 54.6875 
L 9.28125 54.6875 
L 9.28125 70.21875 
z
" id="DejaVuSans-116"/>
       <path d="M 56.203125 29.59375 
L 56.203125 25.203125 
L 14.890625 25.203125 
Q 15.484375 15.921875 20.484375 11.0625 
Q 25.484375 6.203125 34.421875 6.203125 
Q 39.59375 6.203125 44.453125 7.46875 
Q 49.3125 8.734375 54.109375 11.28125 
L 54.109375 2.78125 
Q 49.265625 0.734375 44.1875 -0.34375 
Q 39.109375 -1.421875 33.890625 -1.421875 
Q 20.796875 -1.421875 13.15625 6.1875 
Q 5.515625 13.8125 5.515625 26.8125 
Q 5.515625 40.234375 12.765625 48.109375 
Q 20.015625 56 32.328125 56 
Q 43.359375 56 49.78125 48.890625 
Q 56.203125 41.796875 56.203125 29.59375 
z
M 47.21875 32.234375 
Q 47.125 39.59375 43.09375 43.984375 
Q 39.0625 48.390625 32.421875 48.390625 
Q 24.90625 48.390625 20.390625 44.140625 
Q 15.875 39.890625 15.1875 32.171875 
z
" id="DejaVuSans-101"/>
       <path d="M 41.109375 46.296875 
Q 39.59375 47.171875 37.8125 47.578125 
Q 36.03125 48 33.890625 48 
Q 26.265625 48 22.1875 43.046875 
Q 18.109375 38.09375 18.109375 28.8125 
L 18.109375 0 
L 9.078125 0 
L 9.078125 54.6875 
L 18.109375 54.6875 
L 18.109375 46.1875 
Q 20.953125 51.171875 25.484375 53.578125 
Q 30.03125 56 36.53125 56 
Q 37.453125 56 38.578125 55.875 
Q 39.703125 55.765625 41.0625 55.515625 
z
" id="DejaVuSans-114"/>
       <path d="M 34.28125 27.484375 
Q 23.390625 27.484375 19.1875 25 
Q 14.984375 22.515625 14.984375 16.5 
Q 14.984375 11.71875 18.140625 8.90625 
Q 21.296875 6.109375 26.703125 6.109375 
Q 34.1875 6.109375 38.703125 11.40625 
Q 43.21875 16.703125 43.21875 25.484375 
L 43.21875 27.484375 
z
M 52.203125 31.203125 
L 52.203125 0 
L 43.21875 0 
L 43.21875 8.296875 
Q 40.140625 3.328125 35.546875 0.953125 
Q 30.953125 -1.421875 24.3125 -1.421875 
Q 15.921875 -1.421875 10.953125 3.296875 
Q 6 8.015625 6 15.921875 
Q 6 25.140625 12.171875 29.828125 
Q 18.359375 34.515625 30.609375 34.515625 
L 43.21875 34.515625 
L 43.21875 35.40625 
Q 43.21875 41.609375 39.140625 45 
Q 35.0625 48.390625 27.6875 48.390625 
Q 23 48.390625 18.546875 47.265625 
Q 14.109375 46.140625 10.015625 43.890625 
L 10.015625 52.203125 
Q 14.9375 54.109375 19.578125 55.046875 
Q 24.21875 56 28.609375 56 
Q 40.484375 56 46.34375 49.84375 
Q 52.203125 43.703125 52.203125 31.203125 
z
" id="DejaVuSans-97"/>
       <path d="M 9.421875 54.6875 
L 18.40625 54.6875 
L 18.40625 0 
L 9.421875 0 
z
M 9.421875 75.984375 
L 18.40625 75.984375 
L 18.40625 64.59375 
L 9.421875 64.59375 
z
" id="DejaVuSans-105"/>
       <path d="M 30.609375 48.390625 
Q 23.390625 48.390625 19.1875 42.75 
Q 14.984375 37.109375 14.984375 27.296875 
Q 14.984375 17.484375 19.15625 11.84375 
Q 23.34375 6.203125 30.609375 6.203125 
Q 37.796875 6.203125 41.984375 11.859375 
Q 46.1875 17.53125 46.1875 27.296875 
Q 46.1875 37.015625 41.984375 42.703125 
Q 37.796875 48.390625 30.609375 48.390625 
z
M 30.609375 56 
Q 42.328125 56 49.015625 48.375 
Q 55.71875 40.765625 55.71875 27.296875 
Q 55.71875 13.875 49.015625 6.21875 
Q 42.328125 -1.421875 30.609375 -1.421875 
Q 18.84375 -1.421875 12.171875 6.21875 
Q 5.515625 13.875 5.515625 27.296875 
Q 5.515625 40.765625 12.171875 48.375 
Q 18.84375 56 30.609375 56 
z
" id="DejaVuSans-111"/>
       <path d="M 54.890625 33.015625 
L 54.890625 0 
L 45.90625 0 
L 45.90625 32.71875 
Q 45.90625 40.484375 42.875 44.328125 
Q 39.84375 48.1875 33.796875 48.1875 
Q 26.515625 48.1875 22.3125 43.546875 
Q 18.109375 38.921875 18.109375 30.90625 
L 18.109375 0 
L 9.078125 0 
L 9.078125 54.6875 
L 18.109375 54.6875 
L 18.109375 46.1875 
Q 21.34375 51.125 25.703125 53.5625 
Q 30.078125 56 35.796875 56 
Q 45.21875 56 50.046875 50.171875 
Q 54.890625 44.34375 54.890625 33.015625 
z
" id="DejaVuSans-110"/>
       <path d="M 44.28125 53.078125 
L 44.28125 44.578125 
Q 40.484375 46.53125 36.375 47.5 
Q 32.28125 48.484375 27.875 48.484375 
Q 21.1875 48.484375 17.84375 46.4375 
Q 14.5 44.390625 14.5 40.28125 
Q 14.5 37.15625 16.890625 35.375 
Q 19.28125 33.59375 26.515625 31.984375 
L 29.59375 31.296875 
Q 39.15625 29.25 43.1875 25.515625 
Q 47.21875 21.78125 47.21875 15.09375 
Q 47.21875 7.46875 41.1875 3.015625 
Q 35.15625 -1.421875 24.609375 -1.421875 
Q 20.21875 -1.421875 15.453125 -0.5625 
Q 10.6875 0.296875 5.421875 2 
L 5.421875 11.28125 
Q 10.40625 8.6875 15.234375 7.390625 
Q 20.0625 6.109375 24.8125 6.109375 
Q 31.15625 6.109375 34.5625 8.28125 
Q 37.984375 10.453125 37.984375 14.40625 
Q 37.984375 18.0625 35.515625 20.015625 
Q 33.0625 21.96875 24.703125 23.78125 
L 21.578125 24.515625 
Q 13.234375 26.265625 9.515625 29.90625 
Q 5.8125 33.546875 5.8125 39.890625 
Q 5.8125 47.609375 11.28125 51.796875 
Q 16.75 56 26.8125 56 
Q 31.78125 56 36.171875 55.265625 
Q 40.578125 54.546875 44.28125 53.078125 
z
" id="DejaVuSans-115"/>
       <path id="DejaVuSans-32"/>
       <path d="M 78.90625 33.546875 
L 78.90625 29.15625 
L 59.71875 9.96875 
L 53.859375 15.828125 
L 65.234375 27.203125 
L 5.71875 27.203125 
L 5.71875 35.5 
L 65.234375 35.5 
L 53.859375 46.875 
L 59.71875 52.734375 
z
" id="DejaVuSans-8594"/>
      </defs>
      <use transform="translate(0 0.015625)" xlink:href="#DejaVuSans-73"/>
      <use transform="translate(29.492188 0.015625)" xlink:href="#DejaVuSans-116"/>
      <use transform="translate(68.701172 0.015625)" xlink:href="#DejaVuSans-101"/>
      <use transform="translate(130.224609 0.015625)" xlink:href="#DejaVuSans-114"/>
      <use transform="translate(171.337891 0.015625)" xlink:href="#DejaVuSans-97"/>
      <use transform="translate(232.617188 0.015625)" xlink:href="#DejaVuSans-116"/>
      <use transform="translate(271.826172 0.015625)" xlink:href="#DejaVuSans-105"/>
      <use transform="translate(299.609375 0.015625)" xlink:href="#DejaVuSans-111"/>
      <use transform="translate(360.791016 0.015625)" xlink:href="#DejaVuSans-110"/>
      <use transform="translate(424.169922 0.015625)" xlink:href="#DejaVuSans-115"/>
      <use transform="translate(476.269531 0.015625)" xlink:href="#DejaVuSans-32"/>
      <use transform="translate(508.056641 0.015625)" xlink:href="#DejaVuSans-8594"/>
     </g>
    </g>
   </g>
   <g id="matplotlib.axis_2">
    <g id="ytick_1">
     <g id="line2d_19">
      <path clip-path="url(#p6d7dc4f0d2)" d="M 180 756 
L 1296 756 
" style="fill:none;stroke:#b0b0b0;stroke-linecap:square;stroke-width:0.8;"/>
     </g>
     <g id="line2d_20">
      <defs>
       <path d="M 0 0 
L -3.5 0 
" id="mab5a9fc386" style="stroke:#000000;stroke-width:0.8;"/>
      </defs>
      <g>
       <use style="stroke:#000000;stroke-width:0.8;" x="180" xlink:href="#mab5a9fc386" y="756"/>
      </g>
     </g>
     <g id="text_11">
      <!-- 0.0 -->
      <g transform="translate(134.8325 765.118125)scale(0.24 -0.24)">
       <defs>
        <path d="M 10.6875 12.40625 
L 21 12.40625 
L 21 0 
L 10.6875 0 
z
" id="DejaVuSans-46"/>
       </defs>
       <use xlink:href="#DejaVuSans-48"/>
       <use x="63.623047" xlink:href="#DejaVuSans-46"/>
       <use x="95.410156" xlink:href="#DejaVuSans-48"/>
      </g>
     </g>
    </g>
    <g id="ytick_2">
     <g id="line2d_21">
      <path clip-path="url(#p6d7dc4f0d2)" d="M 180 674.46 
L 1296 674.46 
" style="fill:none;stroke:#b0b0b0;stroke-linecap:square;stroke-width:0.8;"/>
     </g>
     <g id="line2d_22">
      <g>
       <use style="stroke:#000000;stroke-width:0.8;" x="180" xlink:href="#mab5a9fc386" y="674.46"/>
      </g>
     </g>
     <g id="text_12">
      <!-- 2.5 -->
      <g transform="translate(134.8325 683.578125)scale(0.24 -0.24)">
       <use xlink:href="#DejaVuSans-50"/>
       <use x="63.623047" xlink:href="#DejaVuSans-46"/>
       <use x="95.410156" xlink:href="#DejaVuSans-53"/>
      </g>
     </g>
    </g>
    <g id="ytick_3">
     <g id="line2d_23">
      <path clip-path="url(#p6d7dc4f0d2)" d="M 180 592.92 
L 1296 592.92 
" style="fill:none;stroke:#b0b0b0;stroke-linecap:square;stroke-width:0.8;"/>
     </g>
     <g id="line2d_24">
      <g>
       <use style="stroke:#000000;stroke-width:0.8;" x="180" xlink:href="#mab5a9fc386" y="592.92"/>
      </g>
     </g>
     <g id="text_13">
      <!-- 5.0 -->
      <g transform="translate(134.8325 602.038125)scale(0.24 -0.24)">
       <use xlink:href="#DejaVuSans-53"/>
       <use x="63.623047" xlink:href="#DejaVuSans-46"/>
       <use x="95.410156" xlink:href="#DejaVuSans-48"/>
      </g>
     </g>
    </g>
    <g id="ytick_4">
     <g id="line2d_25">
      <path clip-path="url(#p6d7dc4f0d2)" d="M 180 511.38 
L 1296 511.38 
" style="fill:none;stroke:#b0b0b0;stroke-linecap:square;stroke-width:0.8;"/>
     </g>
     <g id="line2d_26">
      <g>
       <use style="stroke:#000000;stroke-width:0.8;" x="180" xlink:href="#mab5a9fc386" y="511.38"/>
      </g>
     </g>
     <g id="text_14">
      <!-- 7.5 -->
      <g transform="translate(134.8325 520.498125)scale(0.24 -0.24)">
       <use xlink:href="#DejaVuSans-55"/>
       <use x="63.623047" xlink:href="#DejaVuSans-46"/>
       <use x="95.410156" xlink:href="#DejaVuSans-53"/>
      </g>
     </g>
    </g>
    <g id="ytick_5">
     <g id="line2d_27">
      <path clip-path="url(#p6d7dc4f0d2)" d="M 180 429.84 
L 1296 429.84 
" style="fill:none;stroke:#b0b0b0;stroke-linecap:square;stroke-width:0.8;"/>
     </g>
     <g id="line2d_28">
      <g>
       <use style="stroke:#000000;stroke-width:0.8;" x="180" xlink:href="#mab5a9fc386" y="429.84"/>
      </g>
     </g>
     <g id="text_15">
      <!-- 10.0 -->
      <g transform="translate(119.5625 438.958125)scale(0.24 -0.24)">
       <use xlink:href="#DejaVuSans-49"/>
       <use x="63.623047" xlink:href="#DejaVuSans-48"/>
       <use x="127.246094" xlink:href="#DejaVuSans-46"/>
       <use x="159.033203" xlink:href="#DejaVuSans-48"/>
      </g>
     </g>
    </g>
    <g id="ytick_6">
     <g id="line2d_29">
      <path clip-path="url(#p6d7dc4f0d2)" d="M 180 348.3 
L 1296 348.3 
" style="fill:none;stroke:#b0b0b0;stroke-linecap:square;stroke-width:0.8;"/>
     </g>
     <g id="line2d_30">
      <g>
       <use style="stroke:#000000;stroke-width:0.8;" x="180" xlink:href="#mab5a9fc386" y="348.3"/>
      </g>
     </g>
     <g id="text_16">
      <!-- 12.5 -->
      <g transform="translate(119.5625 357.418125)scale(0.24 -0.24)">
       <use xlink:href="#DejaVuSans-49"/>
       <use x="63.623047" xlink:href="#DejaVuSans-50"/>
       <use x="127.246094" xlink:href="#DejaVuSans-46"/>
       <use x="159.033203" xlink:href="#DejaVuSans-53"/>
      </g>
     </g>
    </g>
    <g id="ytick_7">
     <g id="line2d_31">
      <path clip-path="url(#p6d7dc4f0d2)" d="M 180 266.76 
L 1296 266.76 
" style="fill:none;stroke:#b0b0b0;stroke-linecap:square;stroke-width:0.8;"/>
     </g>
     <g id="line2d_32">
      <g>
       <use style="stroke:#000000;stroke-width:0.8;" x="180" xlink:href="#mab5a9fc386" y="266.76"/>
      </g>
     </g>
     <g id="text_17">
      <!-- 15.0 -->
      <g transform="translate(119.5625 275.878125)scale(0.24 -0.24)">
       <use xlink:href="#DejaVuSans-49"/>
       <use x="63.623047" xlink:href="#DejaVuSans-53"/>
       <use x="127.246094" xlink:href="#DejaVuSans-46"/>
       <use x="159.033203" xlink:href="#DejaVuSans-48"/>
      </g>
     </g>
    </g>
    <g id="ytick_8">
     <g id="line2d_33">
      <path clip-path="url(#p6d7dc4f0d2)" d="M 180 185.22 
L 1296 185.22 
" style="fill:none;stroke:#b0b0b0;stroke-linecap:square;stroke-width:0.8;"/>
     </g>
     <g id="line2d_34">
      <g>
       <use style="stroke:#000000;stroke-width:0.8;" x="180" xlink:href="#mab5a9fc386" y="185.22"/>
      </g>
     </g>
     <g id="text_18">
      <!-- 17.5 -->
      <g transform="translate(119.5625 194.338125)scale(0.24 -0.24)">
       <use xlink:href="#DejaVuSans-49"/>
       <use x="63.623047" xlink:href="#DejaVuSans-55"/>
       <use x="127.246094" xlink:href="#DejaVuSans-46"/>
       <use x="159.033203" xlink:href="#DejaVuSans-53"/>
      </g>
     </g>
    </g>
    <g id="ytick_9">
     <g id="line2d_35">
      <path clip-path="url(#p6d7dc4f0d2)" d="M 180 103.68 
L 1296 103.68 
" style="fill:none;stroke:#b0b0b0;stroke-linecap:square;stroke-width:0.8;"/>
     </g>
     <g id="line2d_36">
      <g>
       <use style="stroke:#000000;stroke-width:0.8;" x="180" xlink:href="#mab5a9fc386" y="103.68"/>
      </g>
     </g>
     <g id="text_19">
      <!-- 20.0 -->
      <g transform="translate(119.5625 112.798125)scale(0.24 -0.24)">
       <use xlink:href="#DejaVuSans-50"/>
       <use x="63.623047" xlink:href="#DejaVuSans-48"/>
       <use x="127.246094" xlink:href="#DejaVuSans-46"/>
       <use x="159.033203" xlink:href="#DejaVuSans-48"/>
      </g>
     </g>
    </g>
    <g id="text_20">
     <!-- Bit Error per Sequence $\to$  -->
     <g transform="translate(113.4625 494.14)rotate(-90)scale(0.1 -0.1)">
      <defs>
       <path d="M 19.671875 34.8125 
L 19.671875 8.109375 
L 35.5 8.109375 
Q 43.453125 8.109375 47.28125 11.40625 
Q 51.125 14.703125 51.125 21.484375 
Q 51.125 28.328125 47.28125 31.5625 
Q 43.453125 34.8125 35.5 34.8125 
z
M 19.671875 64.796875 
L 19.671875 42.828125 
L 34.28125 42.828125 
Q 41.5 42.828125 45.03125 45.53125 
Q 48.578125 48.25 48.578125 53.8125 
Q 48.578125 59.328125 45.03125 62.0625 
Q 41.5 64.796875 34.28125 64.796875 
z
M 9.8125 72.90625 
L 35.015625 72.90625 
Q 46.296875 72.90625 52.390625 68.21875 
Q 58.5 63.53125 58.5 54.890625 
Q 58.5 48.1875 55.375 44.234375 
Q 52.25 40.28125 46.1875 39.3125 
Q 53.46875 37.75 57.5 32.78125 
Q 61.53125 27.828125 61.53125 20.40625 
Q 61.53125 10.640625 54.890625 5.3125 
Q 48.25 0 35.984375 0 
L 9.8125 0 
z
" id="DejaVuSans-66"/>
       <path d="M 9.8125 72.90625 
L 55.90625 72.90625 
L 55.90625 64.59375 
L 19.671875 64.59375 
L 19.671875 43.015625 
L 54.390625 43.015625 
L 54.390625 34.71875 
L 19.671875 34.71875 
L 19.671875 8.296875 
L 56.78125 8.296875 
L 56.78125 0 
L 9.8125 0 
z
" id="DejaVuSans-69"/>
       <path d="M 18.109375 8.203125 
L 18.109375 -20.796875 
L 9.078125 -20.796875 
L 9.078125 54.6875 
L 18.109375 54.6875 
L 18.109375 46.390625 
Q 20.953125 51.265625 25.265625 53.625 
Q 29.59375 56 35.59375 56 
Q 45.5625 56 51.78125 48.09375 
Q 58.015625 40.1875 58.015625 27.296875 
Q 58.015625 14.40625 51.78125 6.484375 
Q 45.5625 -1.421875 35.59375 -1.421875 
Q 29.59375 -1.421875 25.265625 0.953125 
Q 20.953125 3.328125 18.109375 8.203125 
z
M 48.6875 27.296875 
Q 48.6875 37.203125 44.609375 42.84375 
Q 40.53125 48.484375 33.40625 48.484375 
Q 26.265625 48.484375 22.1875 42.84375 
Q 18.109375 37.203125 18.109375 27.296875 
Q 18.109375 17.390625 22.1875 11.75 
Q 26.265625 6.109375 33.40625 6.109375 
Q 40.53125 6.109375 44.609375 11.75 
Q 48.6875 17.390625 48.6875 27.296875 
z
" id="DejaVuSans-112"/>
       <path d="M 53.515625 70.515625 
L 53.515625 60.890625 
Q 47.90625 63.578125 42.921875 64.890625 
Q 37.9375 66.21875 33.296875 66.21875 
Q 25.25 66.21875 20.875 63.09375 
Q 16.5 59.96875 16.5 54.203125 
Q 16.5 49.359375 19.40625 46.890625 
Q 22.3125 44.4375 30.421875 42.921875 
L 36.375 41.703125 
Q 47.40625 39.59375 52.65625 34.296875 
Q 57.90625 29 57.90625 20.125 
Q 57.90625 9.515625 50.796875 4.046875 
Q 43.703125 -1.421875 29.984375 -1.421875 
Q 24.8125 -1.421875 18.96875 -0.25 
Q 13.140625 0.921875 6.890625 3.21875 
L 6.890625 13.375 
Q 12.890625 10.015625 18.65625 8.296875 
Q 24.421875 6.59375 29.984375 6.59375 
Q 38.421875 6.59375 43.015625 9.90625 
Q 47.609375 13.234375 47.609375 19.390625 
Q 47.609375 24.75 44.3125 27.78125 
Q 41.015625 30.8125 33.5 32.328125 
L 27.484375 33.5 
Q 16.453125 35.6875 11.515625 40.375 
Q 6.59375 45.0625 6.59375 53.421875 
Q 6.59375 63.09375 13.40625 68.65625 
Q 20.21875 74.21875 32.171875 74.21875 
Q 37.3125 74.21875 42.625 73.28125 
Q 47.953125 72.359375 53.515625 70.515625 
z
" id="DejaVuSans-83"/>
       <path d="M 14.796875 27.296875 
Q 14.796875 17.390625 18.875 11.75 
Q 22.953125 6.109375 30.078125 6.109375 
Q 37.203125 6.109375 41.296875 11.75 
Q 45.40625 17.390625 45.40625 27.296875 
Q 45.40625 37.203125 41.296875 42.84375 
Q 37.203125 48.484375 30.078125 48.484375 
Q 22.953125 48.484375 18.875 42.84375 
Q 14.796875 37.203125 14.796875 27.296875 
z
M 45.40625 8.203125 
Q 42.578125 3.328125 38.25 0.953125 
Q 33.9375 -1.421875 27.875 -1.421875 
Q 17.96875 -1.421875 11.734375 6.484375 
Q 5.515625 14.40625 5.515625 27.296875 
Q 5.515625 40.1875 11.734375 48.09375 
Q 17.96875 56 27.875 56 
Q 33.9375 56 38.25 53.625 
Q 42.578125 51.265625 45.40625 46.390625 
L 45.40625 54.6875 
L 54.390625 54.6875 
L 54.390625 -20.796875 
L 45.40625 -20.796875 
z
" id="DejaVuSans-113"/>
       <path d="M 8.5 21.578125 
L 8.5 54.6875 
L 17.484375 54.6875 
L 17.484375 21.921875 
Q 17.484375 14.15625 20.5 10.265625 
Q 23.53125 6.390625 29.59375 6.390625 
Q 36.859375 6.390625 41.078125 11.03125 
Q 45.3125 15.671875 45.3125 23.6875 
L 45.3125 54.6875 
L 54.296875 54.6875 
L 54.296875 0 
L 45.3125 0 
L 45.3125 8.40625 
Q 42.046875 3.421875 37.71875 1 
Q 33.40625 -1.421875 27.6875 -1.421875 
Q 18.265625 -1.421875 13.375 4.4375 
Q 8.5 10.296875 8.5 21.578125 
z
M 31.109375 56 
z
" id="DejaVuSans-117"/>
       <path d="M 48.78125 52.59375 
L 48.78125 44.1875 
Q 44.96875 46.296875 41.140625 47.34375 
Q 37.3125 48.390625 33.40625 48.390625 
Q 24.65625 48.390625 19.8125 42.84375 
Q 14.984375 37.3125 14.984375 27.296875 
Q 14.984375 17.28125 19.8125 11.734375 
Q 24.65625 6.203125 33.40625 6.203125 
Q 37.3125 6.203125 41.140625 7.25 
Q 44.96875 8.296875 48.78125 10.40625 
L 48.78125 2.09375 
Q 45.015625 0.34375 40.984375 -0.53125 
Q 36.96875 -1.421875 32.421875 -1.421875 
Q 20.0625 -1.421875 12.78125 6.34375 
Q 5.515625 14.109375 5.515625 27.296875 
Q 5.515625 40.671875 12.859375 48.328125 
Q 20.21875 56 33.015625 56 
Q 37.15625 56 41.109375 55.140625 
Q 45.0625 54.296875 48.78125 52.59375 
z
" id="DejaVuSans-99"/>
      </defs>
      <use transform="translate(0 0.015625)" xlink:href="#DejaVuSans-66"/>
      <use transform="translate(68.603516 0.015625)" xlink:href="#DejaVuSans-105"/>
      <use transform="translate(96.386719 0.015625)" xlink:href="#DejaVuSans-116"/>
      <use transform="translate(135.595703 0.015625)" xlink:href="#DejaVuSans-32"/>
      <use transform="translate(167.382812 0.015625)" xlink:href="#DejaVuSans-69"/>
      <use transform="translate(230.566406 0.015625)" xlink:href="#DejaVuSans-114"/>
      <use transform="translate(271.679688 0.015625)" xlink:href="#DejaVuSans-114"/>
      <use transform="translate(312.792969 0.015625)" xlink:href="#DejaVuSans-111"/>
      <use transform="translate(373.974609 0.015625)" xlink:href="#DejaVuSans-114"/>
      <use transform="translate(415.087891 0.015625)" xlink:href="#DejaVuSans-32"/>
      <use transform="translate(446.875 0.015625)" xlink:href="#DejaVuSans-112"/>
      <use transform="translate(510.351562 0.015625)" xlink:href="#DejaVuSans-101"/>
      <use transform="translate(571.875 0.015625)" xlink:href="#DejaVuSans-114"/>
      <use transform="translate(612.988281 0.015625)" xlink:href="#DejaVuSans-32"/>
      <use transform="translate(644.775391 0.015625)" xlink:href="#DejaVuSans-83"/>
      <use transform="translate(708.251953 0.015625)" xlink:href="#DejaVuSans-101"/>
      <use transform="translate(769.775391 0.015625)" xlink:href="#DejaVuSans-113"/>
      <use transform="translate(833.251953 0.015625)" xlink:href="#DejaVuSans-117"/>
      <use transform="translate(896.630859 0.015625)" xlink:href="#DejaVuSans-101"/>
      <use transform="translate(958.154297 0.015625)" xlink:href="#DejaVuSans-110"/>
      <use transform="translate(1021.533203 0.015625)" xlink:href="#DejaVuSans-99"/>
      <use transform="translate(1076.513672 0.015625)" xlink:href="#DejaVuSans-101"/>
      <use transform="translate(1138.037109 0.015625)" xlink:href="#DejaVuSans-32"/>
      <use transform="translate(1169.824219 0.015625)" xlink:href="#DejaVuSans-8594"/>
      <use transform="translate(1253.613281 0.015625)" xlink:href="#DejaVuSans-32"/>
     </g>
    </g>
   </g>
   <g id="line2d_37">
    <path clip-path="url(#p6d7dc4f0d2)" d="M 230.727273 348.616419 
L 234.120401 435.121191 
L 237.51353 431.183956 
L 240.906659 434.661793 
L 244.299787 431.054202 
L 247.692916 438.842709 
L 251.086044 439.977134 
L 254.479173 441.251583 
L 257.872302 459.607781 
L 261.26543 464.956721 
L 264.658559 514.050099 
L 268.051687 519.058371 
L 271.444816 558.39737 
L 274.837945 571.698711 
L 278.231073 570.141198 
L 281.624202 586.739358 
L 285.01733 509.91103 
L 288.410459 590.437783 
L 291.803588 568.251517 
L 295.196716 561.66267 
L 298.589845 518.767266 
L 301.982974 553.841426 
L 305.376102 544.107478 
L 308.769231 531.005601 
L 312.162359 524.495829 
L 318.948617 660.925293 
L 322.341745 647.332954 
L 325.734874 690.182309 
L 329.128002 693.93096 
L 332.521131 691.704004 
L 335.91426 692.170687 
L 339.307388 693.283544 
L 342.700517 690.383268 
L 346.093645 692.199577 
L 349.486774 693.574032 
L 352.879903 695.115703 
L 356.273031 695.626513 
L 359.66616 699.700171 
L 363.059289 696.64047 
L 366.452417 699.891385 
L 369.845546 718.320541 
L 373.238674 704.266588 
L 376.631803 700.719363 
L 380.024932 701.266173 
L 383.41806 703.02047 
L 386.811189 700.209629 
L 390.204317 708.963306 
L 393.597446 704.300335 
L 396.990575 715.180731 
L 400.383703 726.550622 
L 403.776832 703.6502 
L 407.16996 709.601924 
L 410.563089 698.888664 
L 413.956218 710.820636 
L 417.349346 715.296132 
L 420.742475 723.286703 
L 424.135604 711.850058 
L 427.528732 714.780383 
L 430.921861 702.4193 
L 434.314989 711.151709 
L 437.708118 719.235576 
L 441.101247 707.868765 
L 444.494375 746.448319 
L 447.887504 712.510716 
L 451.280632 712.226722 
L 454.673761 721.405609 
L 458.06689 709.526609 
L 461.460018 710.801743 
L 464.853147 715.231835 
L 468.246275 729.717145 
L 471.639404 755.49282 
L 475.032533 721.766544 
L 478.425661 756 
L 481.81879 752.596588 
L 485.211919 729.586201 
L 488.605047 756 
L 491.998176 755.435936 
L 495.391304 755.979214 
L 498.784433 755.86162 
L 502.177562 756 
L 505.57069 755.685183 
L 508.963819 755.928311 
L 512.356947 703.487816 
L 515.750076 755.977838 
L 525.929462 756 
L 529.32259 755.906673 
L 536.108848 756 
L 553.074491 755.895791 
L 556.467619 754.956807 
L 559.860748 755.873449 
L 563.253877 756 
L 607.364548 755.98356 
L 610.757677 745.907731 
L 614.150806 755.996099 
L 631.116449 755.999653 
L 634.509577 755.24799 
L 637.902706 755.993487 
L 644.688963 755.825916 
L 648.082092 756 
L 654.868349 755.998774 
L 678.620249 755.937183 
L 682.013378 717.647953 
L 685.406507 709.009631 
L 688.799635 755.474358 
L 692.192764 702.374891 
L 695.585892 728.081413 
L 698.979021 749.220657 
L 702.37215 732.66379 
L 705.765278 755.716918 
L 709.158407 703.51548 
L 712.551535 720.645796 
L 715.944664 706.902908 
L 719.337793 709.336645 
L 722.730921 701.639411 
L 726.12405 697.209969 
L 729.517178 696.561153 
L 732.910307 694.713104 
L 736.303436 698.795878 
L 739.696564 700.644888 
L 743.089693 651.407213 
L 746.482822 700.082698 
L 749.87595 671.040689 
L 753.269079 700.711957 
L 756.662207 715.319999 
L 760.055336 712.892642 
L 763.448465 722.983636 
L 766.841593 735.32103 
L 770.234722 730.707036 
L 773.62785 731.348824 
L 777.020979 741.35757 
L 780.414108 753.264459 
L 783.807236 745.970248 
L 787.200365 744.98984 
L 790.593493 745.514569 
L 793.986622 683.934282 
L 797.379751 691.271259 
L 800.772879 711.764447 
L 804.166008 738.203265 
L 807.559137 742.901574 
L 810.952265 741.033266 
L 814.345394 747.065292 
L 817.738522 729.139141 
L 821.131651 743.105498 
L 824.52478 706.079089 
L 827.917908 738.143008 
L 831.311037 669.175559 
L 834.704165 675.806619 
L 838.097294 741.726358 
L 841.490423 749.16663 
L 844.883551 750.069807 
L 848.27668 754.245035 
L 851.669808 751.860876 
L 855.062937 752.11688 
L 858.456066 752.992616 
L 861.849194 747.552649 
L 865.242323 755.956064 
L 868.635452 753.660658 
L 872.02858 741.222145 
L 875.421709 702.261296 
L 878.814837 743.05286 
L 882.207966 691.649163 
L 885.601095 703.67014 
L 888.994223 754.520373 
L 892.387352 755.999998 
L 960.249924 755.99999 
L 963.643053 755.313293 
L 967.036181 755.985829 
L 973.822438 756 
L 977.215567 751.32034 
L 980.608696 755.997698 
L 994.18121 756 
L 997.574339 755.784895 
L 1000.967467 755.445163 
L 1004.360596 756 
L 1014.539982 756 
L 1017.93311 755.738706 
L 1021.326239 755.999506 
L 1028.112496 755.999641 
L 1079.009425 756 
L 1082.402554 755.215723 
L 1085.795683 755.507434 
L 1089.188811 756 
L 1095.975068 755.999781 
L 1099.368197 755.435614 
L 1102.761326 755.9964 
L 1109.547583 755.902686 
L 1112.940711 755.9292 
L 1116.33384 749.399959 
L 1119.726969 756 
L 1123.120097 755.99845 
L 1126.513226 755.486315 
L 1129.906355 756 
L 1133.299483 755.9837 
L 1136.692612 753.767439 
L 1140.08574 755.922717 
L 1146.871998 755.99972 
L 1150.265126 751.432728 
L 1153.658255 755.97912 
L 1174.017026 755.999984 
L 1190.98267 755.987645 
L 1194.375798 755.821066 
L 1197.768927 756 
L 1204.555184 756 
L 1214.73457 755.999999 
L 1218.127698 697.65154 
L 1221.520827 706.186208 
L 1224.913956 727.849923 
L 1228.307084 744.415673 
L 1231.700213 750.38149 
L 1235.093341 741.752302 
L 1238.48647 755.320718 
L 1241.879599 755.973481 
L 1245.272727 753.5538 
L 1245.272727 753.5538 
" style="fill:none;stroke:#000000;stroke-linecap:square;stroke-width:1.5;"/>
   </g>
   <g id="patch_3">
    <path d="M 180 756 
L 180 103.68 
" style="fill:none;stroke:#000000;stroke-linecap:square;stroke-linejoin:miter;stroke-width:0.8;"/>
   </g>
   <g id="patch_4">
    <path d="M 1296 756 
L 1296 103.68 
" style="fill:none;stroke:#000000;stroke-linecap:square;stroke-linejoin:miter;stroke-width:0.8;"/>
   </g>
   <g id="patch_5">
    <path d="M 180 756 
L 1296 756 
" style="fill:none;stroke:#000000;stroke-linecap:square;stroke-linejoin:miter;stroke-width:0.8;"/>
   </g>
   <g id="patch_6">
    <path d="M 180 103.68 
L 1296 103.68 
" style="fill:none;stroke:#000000;stroke-linecap:square;stroke-linejoin:miter;stroke-width:0.8;"/>
   </g>
   <g id="text_21">
    <!-- Matrix Copy Task learning curves -->
    <g transform="translate(638.894063 97.68)scale(0.12 -0.12)">
     <defs>
      <path d="M 9.8125 72.90625 
L 24.515625 72.90625 
L 43.109375 23.296875 
L 61.8125 72.90625 
L 76.515625 72.90625 
L 76.515625 0 
L 66.890625 0 
L 66.890625 64.015625 
L 48.09375 14.015625 
L 38.1875 14.015625 
L 19.390625 64.015625 
L 19.390625 0 
L 9.8125 0 
z
" id="DejaVuSans-77"/>
      <path d="M 54.890625 54.6875 
L 35.109375 28.078125 
L 55.90625 0 
L 45.3125 0 
L 29.390625 21.484375 
L 13.484375 0 
L 2.875 0 
L 24.125 28.609375 
L 4.6875 54.6875 
L 15.28125 54.6875 
L 29.78125 35.203125 
L 44.28125 54.6875 
z
" id="DejaVuSans-120"/>
      <path d="M 64.40625 67.28125 
L 64.40625 56.890625 
Q 59.421875 61.53125 53.78125 63.8125 
Q 48.140625 66.109375 41.796875 66.109375 
Q 29.296875 66.109375 22.65625 58.46875 
Q 16.015625 50.828125 16.015625 36.375 
Q 16.015625 21.96875 22.65625 14.328125 
Q 29.296875 6.6875 41.796875 6.6875 
Q 48.140625 6.6875 53.78125 8.984375 
Q 59.421875 11.28125 64.40625 15.921875 
L 64.40625 5.609375 
Q 59.234375 2.09375 53.4375 0.328125 
Q 47.65625 -1.421875 41.21875 -1.421875 
Q 24.65625 -1.421875 15.125 8.703125 
Q 5.609375 18.84375 5.609375 36.375 
Q 5.609375 53.953125 15.125 64.078125 
Q 24.65625 74.21875 41.21875 74.21875 
Q 47.75 74.21875 53.53125 72.484375 
Q 59.328125 70.75 64.40625 67.28125 
z
" id="DejaVuSans-67"/>
      <path d="M 32.171875 -5.078125 
Q 28.375 -14.84375 24.75 -17.8125 
Q 21.140625 -20.796875 15.09375 -20.796875 
L 7.90625 -20.796875 
L 7.90625 -13.28125 
L 13.1875 -13.28125 
Q 16.890625 -13.28125 18.9375 -11.515625 
Q 21 -9.765625 23.484375 -3.21875 
L 25.09375 0.875 
L 2.984375 54.6875 
L 12.5 54.6875 
L 29.59375 11.921875 
L 46.6875 54.6875 
L 56.203125 54.6875 
z
" id="DejaVuSans-121"/>
      <path d="M -0.296875 72.90625 
L 61.375 72.90625 
L 61.375 64.59375 
L 35.5 64.59375 
L 35.5 0 
L 25.59375 0 
L 25.59375 64.59375 
L -0.296875 64.59375 
z
" id="DejaVuSans-84"/>
      <path d="M 9.078125 75.984375 
L 18.109375 75.984375 
L 18.109375 31.109375 
L 44.921875 54.6875 
L 56.390625 54.6875 
L 27.390625 29.109375 
L 57.625 0 
L 45.90625 0 
L 18.109375 26.703125 
L 18.109375 0 
L 9.078125 0 
z
" id="DejaVuSans-107"/>
      <path d="M 9.421875 75.984375 
L 18.40625 75.984375 
L 18.40625 0 
L 9.421875 0 
z
" id="DejaVuSans-108"/>
      <path d="M 45.40625 27.984375 
Q 45.40625 37.75 41.375 43.109375 
Q 37.359375 48.484375 30.078125 48.484375 
Q 22.859375 48.484375 18.828125 43.109375 
Q 14.796875 37.75 14.796875 27.984375 
Q 14.796875 18.265625 18.828125 12.890625 
Q 22.859375 7.515625 30.078125 7.515625 
Q 37.359375 7.515625 41.375 12.890625 
Q 45.40625 18.265625 45.40625 27.984375 
z
M 54.390625 6.78125 
Q 54.390625 -7.171875 48.1875 -13.984375 
Q 42 -20.796875 29.203125 -20.796875 
Q 24.46875 -20.796875 20.265625 -20.09375 
Q 16.0625 -19.390625 12.109375 -17.921875 
L 12.109375 -9.1875 
Q 16.0625 -11.328125 19.921875 -12.34375 
Q 23.78125 -13.375 27.78125 -13.375 
Q 36.625 -13.375 41.015625 -8.765625 
Q 45.40625 -4.15625 45.40625 5.171875 
L 45.40625 9.625 
Q 42.625 4.78125 38.28125 2.390625 
Q 33.9375 0 27.875 0 
Q 17.828125 0 11.671875 7.65625 
Q 5.515625 15.328125 5.515625 27.984375 
Q 5.515625 40.671875 11.671875 48.328125 
Q 17.828125 56 27.875 56 
Q 33.9375 56 38.28125 53.609375 
Q 42.625 51.21875 45.40625 46.390625 
L 45.40625 54.6875 
L 54.390625 54.6875 
z
" id="DejaVuSans-103"/>
      <path d="M 2.984375 54.6875 
L 12.5 54.6875 
L 29.59375 8.796875 
L 46.6875 54.6875 
L 56.203125 54.6875 
L 35.6875 0 
L 23.484375 0 
z
" id="DejaVuSans-118"/>
     </defs>
     <use xlink:href="#DejaVuSans-77"/>
     <use x="86.279297" xlink:href="#DejaVuSans-97"/>
     <use x="147.558594" xlink:href="#DejaVuSans-116"/>
     <use x="186.767578" xlink:href="#DejaVuSans-114"/>
     <use x="227.880859" xlink:href="#DejaVuSans-105"/>
     <use x="255.664062" xlink:href="#DejaVuSans-120"/>
     <use x="314.84375" xlink:href="#DejaVuSans-32"/>
     <use x="346.630859" xlink:href="#DejaVuSans-67"/>
     <use x="416.455078" xlink:href="#DejaVuSans-111"/>
     <use x="477.636719" xlink:href="#DejaVuSans-112"/>
     <use x="541.113281" xlink:href="#DejaVuSans-121"/>
     <use x="600.292969" xlink:href="#DejaVuSans-32"/>
     <use x="632.080078" xlink:href="#DejaVuSans-84"/>
     <use x="676.664062" xlink:href="#DejaVuSans-97"/>
     <use x="737.943359" xlink:href="#DejaVuSans-115"/>
     <use x="790.042969" xlink:href="#DejaVuSans-107"/>
     <use x="847.953125" xlink:href="#DejaVuSans-32"/>
     <use x="879.740234" xlink:href="#DejaVuSans-108"/>
     <use x="907.523438" xlink:href="#DejaVuSans-101"/>
     <use x="969.046875" xlink:href="#DejaVuSans-97"/>
     <use x="1030.326172" xlink:href="#DejaVuSans-114"/>
     <use x="1069.689453" xlink:href="#DejaVuSans-110"/>
     <use x="1133.068359" xlink:href="#DejaVuSans-105"/>
     <use x="1160.851562" xlink:href="#DejaVuSans-110"/>
     <use x="1224.230469" xlink:href="#DejaVuSans-103"/>
     <use x="1287.707031" xlink:href="#DejaVuSans-32"/>
     <use x="1319.494141" xlink:href="#DejaVuSans-99"/>
     <use x="1374.474609" xlink:href="#DejaVuSans-117"/>
     <use x="1437.853516" xlink:href="#DejaVuSans-114"/>
     <use x="1478.966797" xlink:href="#DejaVuSans-118"/>
     <use x="1538.146484" xlink:href="#DejaVuSans-101"/>
     <use x="1599.669922" xlink:href="#DejaVuSans-115"/>
    </g>
   </g>
  </g>
 </g>
 <defs>
  <clipPath id="p6d7dc4f0d2">
   <rect height="652.32" width="1116" x="180" y="103.68"/>
  </clipPath>
 </defs>
</svg>
