<?xml version="1.0" encoding="utf-8" standalone="no"?>
<!DOCTYPE svg PUBLIC "-//W3C//DTD SVG 1.1//EN"
  "http://www.w3.org/Graphics/SVG/1.1/DTD/svg11.dtd">
<!-- Created with matplotlib (https://matplotlib.org/) -->
<svg height="864pt" version="1.1" viewBox="0 0 1440 864" width="1440pt" xmlns="http://www.w3.org/2000/svg" xmlns:xlink="http://www.w3.org/1999/xlink">
 <metadata>
  <rdf:RDF xmlns:cc="http://creativecommons.org/ns#" xmlns:dc="http://purl.org/dc/elements/1.1/" xmlns:rdf="http://www.w3.org/1999/02/22-rdf-syntax-ns#">
   <cc:Work>
    <dc:type rdf:resource="http://purl.org/dc/dcmitype/StillImage"/>
    <dc:date>2020-12-24T04:56:28.625721</dc:date>
    <dc:format>image/svg+xml</dc:format>
    <dc:creator>
     <cc:Agent>
      <dc:title>Matplotlib v3.3.1, https://matplotlib.org/</dc:title>
     </cc:Agent>
    </dc:creator>
   </cc:Work>
  </rdf:RDF>
 </metadata>
 <defs>
  <style type="text/css">*{stroke-linecap:butt;stroke-linejoin:round;}</style>
 </defs>
 <g id="figure_1">
  <g id="patch_1">
   <path d="M 0 864 
L 1440 864 
L 1440 0 
L 0 0 
z
" style="fill:none;"/>
  </g>
  <g id="axes_1">
   <g id="patch_2">
    <path d="M 180 756 
L 1296 756 
L 1296 103.68 
L 180 103.68 
z
" style="fill:#ffffff;"/>
   </g>
   <g id="PolyCollection_1">
    <path clip-path="url(#p08bf127ab4)" d="M 230.727273 327.399713 
L 230.727273 327.399713 
L 234.120401 431.613639 
L 237.51353 416.067903 
L 240.906659 415.851271 
L 244.299787 430.917789 
L 247.692916 423.605322 
L 251.086044 407.072183 
L 254.479173 409.852151 
L 257.872302 420.580105 
L 261.26543 422.798719 
L 264.658559 414.650349 
L 268.051687 431.732183 
L 271.444816 420.736223 
L 274.837945 408.731927 
L 278.231073 376.68159 
L 281.624202 441.271836 
L 285.01733 407.706775 
L 288.410459 419.470875 
L 291.803588 433.325076 
L 295.196716 432.058232 
L 298.589845 425.939206 
L 301.982974 422.473041 
L 305.376102 422.497456 
L 308.769231 426.679453 
L 312.162359 433.734993 
L 315.555488 426.903842 
L 318.948617 439.016135 
L 322.341745 424.710607 
L 325.734874 434.724595 
L 329.128002 462.224578 
L 332.521131 448.419706 
L 335.91426 442.701003 
L 339.307388 427.228564 
L 342.700517 456.912692 
L 346.093645 459.198474 
L 349.486774 459.496812 
L 352.879903 491.49627 
L 356.273031 461.60416 
L 359.66616 473.527147 
L 363.059289 459.626968 
L 366.452417 459.944368 
L 369.845546 480.965599 
L 373.238674 472.456482 
L 376.631803 472.347797 
L 380.024932 481.835213 
L 383.41806 490.881587 
L 386.811189 516.57161 
L 390.204317 487.221285 
L 393.597446 479.387492 
L 396.990575 475.904386 
L 400.383703 505.134081 
L 403.776832 500.954616 
L 407.16996 516.93171 
L 410.563089 490.317842 
L 413.956218 466.142146 
L 417.349346 494.832797 
L 420.742475 477.637551 
L 424.135604 505.491438 
L 427.528732 523.927606 
L 430.921861 493.995376 
L 434.314989 521.810296 
L 437.708118 467.102397 
L 441.101247 439.549918 
L 444.494375 528.904956 
L 447.887504 467.733218 
L 451.280632 535.92623 
L 454.673761 484.147413 
L 458.06689 485.936245 
L 461.460018 507.540915 
L 464.853147 487.846275 
L 468.246275 507.789647 
L 471.639404 486.446625 
L 475.032533 506.321229 
L 478.425661 524.909805 
L 481.81879 505.223996 
L 485.211919 496.509685 
L 488.605047 486.123659 
L 491.998176 481.060554 
L 495.391304 519.569649 
L 498.784433 495.590121 
L 502.177562 495.00965 
L 505.57069 539.203143 
L 508.963819 487.86853 
L 512.356947 504.31316 
L 515.750076 461.29193 
L 519.143205 455.761193 
L 522.536333 488.607169 
L 525.929462 510.020595 
L 529.32259 472.771338 
L 532.715719 520.4537 
L 536.108848 492.693498 
L 539.501976 480.365809 
L 542.895105 502.508797 
L 546.288234 490.408186 
L 549.681362 472.43919 
L 553.074491 454.225183 
L 556.467619 440.377764 
L 559.860748 468.585488 
L 563.253877 509.853626 
L 566.647005 475.904524 
L 570.040134 502.645008 
L 573.433262 455.963813 
L 576.826391 517.29785 
L 580.21952 508.022679 
L 583.612648 503.89142 
L 587.005777 490.772868 
L 590.398905 483.322604 
L 593.792034 482.256743 
L 597.185163 501.438438 
L 600.578291 513.071443 
L 603.97142 498.315249 
L 607.364548 475.480824 
L 610.757677 483.679725 
L 614.150806 499.001357 
L 617.543934 493.703303 
L 620.937063 538.114218 
L 624.330192 541.618001 
L 627.72332 505.335078 
L 631.116449 524.52067 
L 634.509577 515.769664 
L 637.902706 502.093123 
L 641.295835 504.707376 
L 644.688963 485.535312 
L 648.082092 488.731127 
L 651.47522 515.479254 
L 654.868349 475.82312 
L 658.261478 477.241342 
L 661.654606 495.355086 
L 665.047735 506.294309 
L 668.440863 508.87021 
L 671.833992 470.168005 
L 675.227121 518.141683 
L 678.620249 497.829402 
L 682.013378 459.162458 
L 685.406507 494.78696 
L 688.799635 465.122061 
L 692.192764 479.719555 
L 695.585892 460.845939 
L 698.979021 525.24013 
L 702.37215 470.620295 
L 705.765278 473.613449 
L 709.158407 440.674343 
L 712.551535 443.069036 
L 715.944664 454.47997 
L 719.337793 484.41717 
L 722.730921 438.748915 
L 726.12405 477.839845 
L 729.517178 511.323842 
L 732.910307 492.180311 
L 736.303436 540.978662 
L 739.696564 508.843835 
L 743.089693 495.847815 
L 746.482822 510.588121 
L 749.87595 517.401842 
L 753.269079 546.435098 
L 756.662207 478.981459 
L 760.055336 518.492037 
L 763.448465 528.359597 
L 766.841593 504.95952 
L 770.234722 552.838317 
L 773.62785 565.732388 
L 777.020979 519.904793 
L 780.414108 570.589273 
L 783.807236 515.594022 
L 787.200365 552.198736 
L 790.593493 514.398189 
L 793.986622 504.887455 
L 797.379751 517.561961 
L 800.772879 511.186355 
L 804.166008 548.780659 
L 807.559137 542.410192 
L 810.952265 513.169202 
L 814.345394 493.528642 
L 817.738522 535.98822 
L 821.131651 563.048506 
L 824.52478 520.545709 
L 827.917908 525.66552 
L 831.311037 502.638559 
L 834.704165 526.912218 
L 838.097294 493.347399 
L 841.490423 530.044713 
L 844.883551 539.088611 
L 848.27668 522.166363 
L 851.669808 532.286335 
L 855.062937 511.638328 
L 858.456066 637.107449 
L 861.849194 509.156407 
L 865.242323 567.826637 
L 868.635452 502.034159 
L 872.02858 555.014233 
L 875.421709 522.717471 
L 878.814837 537.388767 
L 882.207966 505.916526 
L 885.601095 595.7945 
L 888.994223 526.012465 
L 892.387352 529.075197 
L 895.78048 500.794147 
L 899.173609 573.409489 
L 902.566738 495.746967 
L 905.959866 514.951799 
L 909.352995 500.52478 
L 912.746123 561.992725 
L 916.139252 517.982331 
L 919.532381 490.95226 
L 922.925509 507.987652 
L 926.318638 553.929879 
L 929.711766 526.320702 
L 933.104895 512.826711 
L 936.498024 523.003163 
L 939.891152 521.736175 
L 943.284281 554.56434 
L 946.67741 496.017293 
L 950.070538 491.043563 
L 953.463667 519.977107 
L 956.856795 502.711588 
L 960.249924 512.34848 
L 963.643053 455.414473 
L 967.036181 565.957944 
L 970.42931 519.814289 
L 973.822438 536.286488 
L 977.215567 510.678105 
L 980.608696 532.016043 
L 984.001824 543.875776 
L 987.394953 519.830817 
L 990.788081 547.444855 
L 994.18121 544.218046 
L 997.574339 493.367353 
L 1000.967467 539.020454 
L 1004.360596 527.777531 
L 1007.753725 501.933813 
L 1011.146853 566.247421 
L 1014.539982 531.140736 
L 1017.93311 473.00193 
L 1021.326239 505.821902 
L 1024.719368 542.95585 
L 1028.112496 516.592303 
L 1031.505625 520.142188 
L 1034.898753 557.317026 
L 1038.291882 588.749104 
L 1041.685011 566.709762 
L 1045.078139 453.933003 
L 1048.471268 587.901741 
L 1051.864396 519.987671 
L 1055.257525 531.751321 
L 1058.650654 496.661767 
L 1062.043782 497.13752 
L 1065.436911 509.709328 
L 1068.83004 508.558226 
L 1072.223168 496.708156 
L 1075.616297 472.577375 
L 1079.009425 507.861794 
L 1082.402554 527.46145 
L 1085.795683 552.187748 
L 1089.188811 552.866157 
L 1092.58194 544.591993 
L 1095.975068 486.84379 
L 1099.368197 483.304765 
L 1102.761326 434.97365 
L 1106.154454 450.375245 
L 1109.547583 447.199577 
L 1112.940711 431.117923 
L 1116.33384 407.225749 
L 1119.726969 447.776796 
L 1123.120097 401.476023 
L 1126.513226 414.30326 
L 1129.906355 408.815507 
L 1133.299483 422.723828 
L 1136.692612 426.952724 
L 1140.08574 408.29276 
L 1143.478869 413.259895 
L 1146.871998 447.813446 
L 1150.265126 422.297714 
L 1153.658255 422.282469 
L 1157.051383 396.700308 
L 1160.444512 463.626369 
L 1163.837641 415.932415 
L 1167.230769 435.591218 
L 1170.623898 435.368022 
L 1174.017026 425.431121 
L 1177.410155 465.580371 
L 1180.803284 465.495712 
L 1184.196412 449.974124 
L 1187.589541 495.430806 
L 1190.98267 448.809587 
L 1194.375798 463.157716 
L 1197.768927 459.082331 
L 1201.162055 455.765138 
L 1204.555184 376.716321 
L 1207.948313 430.831067 
L 1211.341441 404.22336 
L 1214.73457 379.227837 
L 1218.127698 375.137764 
L 1221.520827 423.710866 
L 1224.913956 437.428986 
L 1228.307084 435.566638 
L 1231.700213 393.107221 
L 1235.093341 457.547681 
L 1238.48647 436.287792 
L 1241.879599 427.022728 
L 1245.272727 462.425086 
L 1245.272727 462.425086 
L 1245.272727 743.392214 
L 1241.879599 742.031585 
L 1238.48647 745.24282 
L 1235.093341 752.362387 
L 1231.700213 734.809793 
L 1228.307084 744.566823 
L 1224.913956 745.579443 
L 1221.520827 742.210593 
L 1218.127698 656.655442 
L 1214.73457 651.075078 
L 1211.341441 675.91786 
L 1207.948313 693.081686 
L 1204.555184 642.514803 
L 1201.162055 718.910311 
L 1197.768927 716.515316 
L 1194.375798 725.787568 
L 1190.98267 728.490432 
L 1187.589541 760.872646 
L 1184.196412 712.281208 
L 1180.803284 690.775777 
L 1177.410155 691.401888 
L 1174.017026 730.158462 
L 1170.623898 679.56083 
L 1167.230769 686.380482 
L 1163.837641 663.833998 
L 1160.444512 779.823336 
L 1157.051383 673.466638 
L 1153.658255 685.683751 
L 1150.265126 673.766771 
L 1146.871998 791.603673 
L 1143.478869 672.628242 
L 1140.08574 696.578947 
L 1136.692612 697.28394 
L 1133.299483 714.924973 
L 1129.906355 668.097369 
L 1126.513226 697.189049 
L 1123.120097 668.189809 
L 1119.726969 698.635315 
L 1116.33384 667.677086 
L 1112.940711 737.948486 
L 1109.547583 708.048764 
L 1106.154454 693.489651 
L 1102.761326 707.744443 
L 1099.368197 728.775372 
L 1095.975068 744.617833 
L 1092.58194 787.559678 
L 1089.188811 750.773907 
L 1085.795683 754.116988 
L 1082.402554 782.843322 
L 1079.009425 774.939001 
L 1075.616297 740.555564 
L 1072.223168 732.060889 
L 1068.83004 768.457379 
L 1065.436911 720.352212 
L 1062.043782 732.456641 
L 1058.650654 773.867713 
L 1055.257525 769.646844 
L 1051.864396 791.599248 
L 1048.471268 765.516919 
L 1045.078139 691.032361 
L 1041.685011 750.09525 
L 1038.291882 774.205868 
L 1034.898753 773.855287 
L 1031.505625 753.540049 
L 1028.112496 722.717085 
L 1024.719368 759.923348 
L 1021.326239 741.069776 
L 1017.93311 738.039206 
L 1014.539982 727.528034 
L 1011.146853 788.97883 
L 1007.753725 723.424185 
L 1004.360596 742.200984 
L 1000.967467 760.521964 
L 997.574339 702.607157 
L 994.18121 729.686174 
L 990.788081 790.527202 
L 987.394953 737.886387 
L 984.001824 776.66889 
L 980.608696 765.751843 
L 977.215567 773.323205 
L 973.822438 738.296172 
L 970.42931 753.624553 
L 967.036181 746.307382 
L 963.643053 735.863909 
L 960.249924 713.965374 
L 956.856795 772.114059 
L 953.463667 787.548466 
L 950.070538 712.959603 
L 946.67741 770.983731 
L 943.284281 759.32702 
L 939.891152 774.139902 
L 936.498024 793.775991 
L 933.104895 756.124276 
L 929.711766 728.259224 
L 926.318638 728.530677 
L 922.925509 712.792522 
L 919.532381 749.039161 
L 916.139252 748.60069 
L 912.746123 768.654344 
L 909.352995 703.982554 
L 905.959866 746.111325 
L 902.566738 727.713419 
L 899.173609 808.097031 
L 895.78048 732.887839 
L 892.387352 787.512395 
L 888.994223 770.662132 
L 885.601095 783.691826 
L 882.207966 736.678902 
L 878.814837 781.954624 
L 875.421709 721.348288 
L 872.02858 758.812412 
L 868.635452 728.930805 
L 865.242323 788.71655 
L 861.849194 776.381247 
L 858.456066 780.017574 
L 855.062937 750.012238 
L 851.669808 763.370378 
L 848.27668 772.10629 
L 844.883551 735.717921 
L 841.490423 776.978063 
L 838.097294 731.436088 
L 834.704165 784.075956 
L 831.311037 742.419934 
L 827.917908 772.361302 
L 824.52478 744.173517 
L 821.131651 756.375582 
L 817.738522 738.404684 
L 814.345394 728.133299 
L 810.952265 721.955741 
L 807.559137 733.482435 
L 804.166008 757.168779 
L 800.772879 742.403401 
L 797.379751 715.285268 
L 793.986622 719.95407 
L 790.593493 705.838318 
L 787.200365 749.226096 
L 783.807236 746.516391 
L 780.414108 785.401418 
L 777.020979 712.507976 
L 773.62785 772.1489 
L 770.234722 769.816758 
L 766.841593 726.49127 
L 763.448465 695.7244 
L 760.055336 778.163672 
L 756.662207 649.452789 
L 753.269079 715.594748 
L 749.87595 702.695351 
L 746.482822 734.13396 
L 743.089693 765.417508 
L 739.696564 631.611837 
L 736.303436 749.161708 
L 732.910307 688.678193 
L 729.517178 703.008331 
L 726.12405 649.149477 
L 722.730921 653.122965 
L 719.337793 724.345412 
L 715.944664 675.553988 
L 712.551535 703.601186 
L 709.158407 691.357609 
L 705.765278 658.404116 
L 702.37215 652.644135 
L 698.979021 693.797593 
L 695.585892 678.531313 
L 692.192764 644.40097 
L 688.799635 674.1315 
L 685.406507 719.440015 
L 682.013378 642.258424 
L 678.620249 753.893614 
L 675.227121 694.826303 
L 671.833992 639.145954 
L 668.440863 749.95446 
L 665.047735 703.074738 
L 661.654606 638.306663 
L 658.261478 674.481133 
L 654.868349 620.917748 
L 651.47522 690.607294 
L 648.082092 657.581321 
L 644.688963 699.376885 
L 641.295835 757.324958 
L 637.902706 632.499536 
L 634.509577 624.368891 
L 631.116449 726.627696 
L 627.72332 691.526706 
L 624.330192 647.150087 
L 620.937063 769.416903 
L 617.543934 683.217213 
L 614.150806 606.63953 
L 610.757677 662.226569 
L 607.364548 658.675572 
L 603.97142 688.180822 
L 600.578291 695.115915 
L 597.185163 663.290261 
L 593.792034 683.764435 
L 590.398905 642.627764 
L 587.005777 720.344715 
L 583.612648 676.103404 
L 580.21952 668.162461 
L 576.826391 609.666072 
L 573.433262 671.637656 
L 570.040134 653.34338 
L 566.647005 646.072282 
L 563.253877 629.400827 
L 559.860748 652.740349 
L 556.467619 642.341354 
L 553.074491 655.989509 
L 549.681362 683.053878 
L 546.288234 650.900805 
L 542.895105 688.330796 
L 539.501976 673.9698 
L 536.108848 615.192479 
L 532.715719 695.480229 
L 529.32259 621.187419 
L 525.929462 761.686216 
L 522.536333 693.939013 
L 519.143205 651.763913 
L 515.750076 629.548244 
L 512.356947 678.47008 
L 508.963819 656.091605 
L 505.57069 694.730594 
L 502.177562 618.626021 
L 498.784433 740.457398 
L 495.391304 666.931603 
L 491.998176 722.954337 
L 488.605047 644.14731 
L 485.211919 610.03579 
L 481.81879 697.331023 
L 478.425661 627.064192 
L 475.032533 735.453822 
L 471.639404 716.189239 
L 468.246275 780.519736 
L 464.853147 649.820506 
L 461.460018 642.00115 
L 458.06689 633.76935 
L 454.673761 583.231407 
L 451.280632 625.766699 
L 447.887504 634.389704 
L 444.494375 680.984015 
L 441.101247 670.052463 
L 437.708118 664.153219 
L 434.314989 634.823004 
L 430.921861 569.945575 
L 427.528732 823.780036 
L 424.135604 571.903957 
L 420.742475 582.130088 
L 417.349346 602.6041 
L 413.956218 687.30751 
L 410.563089 639.498046 
L 407.16996 560.637861 
L 403.776832 606.6013 
L 400.383703 717.493821 
L 396.990575 764.642936 
L 393.597446 575.022877 
L 390.204317 536.156458 
L 386.811189 761.589663 
L 383.41806 543.767655 
L 380.024932 689.206235 
L 376.631803 547.428675 
L 373.238674 566.74431 
L 369.845546 598.739847 
L 366.452417 701.585182 
L 363.059289 547.743324 
L 359.66616 575.892453 
L 356.273031 587.312073 
L 352.879903 529.226407 
L 349.486774 577.598291 
L 346.093645 546.962085 
L 342.700517 547.325701 
L 339.307388 618.380214 
L 335.91426 556.904595 
L 332.521131 515.753755 
L 329.128002 544.79653 
L 325.734874 537.937006 
L 322.341745 551.306438 
L 318.948617 536.100404 
L 315.555488 545.570214 
L 312.162359 488.964132 
L 308.769231 513.354969 
L 305.376102 555.859916 
L 301.982974 504.614722 
L 298.589845 550.878785 
L 295.196716 519.914167 
L 291.803588 494.535519 
L 288.410459 492.241843 
L 285.01733 518.559504 
L 281.624202 461.349322 
L 278.231073 594.251995 
L 274.837945 462.233662 
L 271.444816 479.922543 
L 268.051687 456.036063 
L 264.658559 437.492732 
L 261.26543 455.864812 
L 257.872302 460.097536 
L 254.479173 449.151111 
L 251.086044 447.840825 
L 247.692916 452.634176 
L 244.299787 445.934317 
L 240.906659 429.061097 
L 237.51353 443.404117 
L 234.120401 449.649316 
L 230.727273 373.277287 
z
" style="fill:#1f77b4;fill-opacity:0.4;"/>
   </g>
   <g id="matplotlib.axis_1">
    <g id="xtick_1">
     <g id="line2d_1">
      <path clip-path="url(#p08bf127ab4)" d="M 230.727273 756 
L 230.727273 103.68 
" style="fill:none;stroke:#b0b0b0;stroke-linecap:square;stroke-width:0.8;"/>
     </g>
     <g id="line2d_2">
      <defs>
       <path d="M 0 0 
L 0 3.5 
" id="m8d77a5c604" style="stroke:#000000;stroke-width:0.8;"/>
      </defs>
      <g>
       <use style="stroke:#000000;stroke-width:0.8;" x="230.727273" xlink:href="#m8d77a5c604" y="756"/>
      </g>
     </g>
     <g id="text_1">
      <!-- 0 -->
      <g transform="translate(223.092273 781.23625)scale(0.24 -0.24)">
       <defs>
        <path d="M 31.78125 66.40625 
Q 24.171875 66.40625 20.328125 58.90625 
Q 16.5 51.421875 16.5 36.375 
Q 16.5 21.390625 20.328125 13.890625 
Q 24.171875 6.390625 31.78125 6.390625 
Q 39.453125 6.390625 43.28125 13.890625 
Q 47.125 21.390625 47.125 36.375 
Q 47.125 51.421875 43.28125 58.90625 
Q 39.453125 66.40625 31.78125 66.40625 
z
M 31.78125 74.21875 
Q 44.046875 74.21875 50.515625 64.515625 
Q 56.984375 54.828125 56.984375 36.375 
Q 56.984375 17.96875 50.515625 8.265625 
Q 44.046875 -1.421875 31.78125 -1.421875 
Q 19.53125 -1.421875 13.0625 8.265625 
Q 6.59375 17.96875 6.59375 36.375 
Q 6.59375 54.828125 13.0625 64.515625 
Q 19.53125 74.21875 31.78125 74.21875 
z
" id="DejaVuSans-48"/>
       </defs>
       <use xlink:href="#DejaVuSans-48"/>
      </g>
     </g>
    </g>
    <g id="xtick_2">
     <g id="line2d_3">
      <path clip-path="url(#p08bf127ab4)" d="M 357.546089 756 
L 357.546089 103.68 
" style="fill:none;stroke:#b0b0b0;stroke-linecap:square;stroke-width:0.8;"/>
     </g>
     <g id="line2d_4">
      <g>
       <use style="stroke:#000000;stroke-width:0.8;" x="357.546089" xlink:href="#m8d77a5c604" y="756"/>
      </g>
     </g>
     <g id="text_2">
      <!-- 25000 -->
      <g transform="translate(319.371089 781.23625)scale(0.24 -0.24)">
       <defs>
        <path d="M 19.1875 8.296875 
L 53.609375 8.296875 
L 53.609375 0 
L 7.328125 0 
L 7.328125 8.296875 
Q 12.9375 14.109375 22.625 23.890625 
Q 32.328125 33.6875 34.8125 36.53125 
Q 39.546875 41.84375 41.421875 45.53125 
Q 43.3125 49.21875 43.3125 52.78125 
Q 43.3125 58.59375 39.234375 62.25 
Q 35.15625 65.921875 28.609375 65.921875 
Q 23.96875 65.921875 18.8125 64.3125 
Q 13.671875 62.703125 7.8125 59.421875 
L 7.8125 69.390625 
Q 13.765625 71.78125 18.9375 73 
Q 24.125 74.21875 28.421875 74.21875 
Q 39.75 74.21875 46.484375 68.546875 
Q 53.21875 62.890625 53.21875 53.421875 
Q 53.21875 48.921875 51.53125 44.890625 
Q 49.859375 40.875 45.40625 35.40625 
Q 44.1875 33.984375 37.640625 27.21875 
Q 31.109375 20.453125 19.1875 8.296875 
z
" id="DejaVuSans-50"/>
        <path d="M 10.796875 72.90625 
L 49.515625 72.90625 
L 49.515625 64.59375 
L 19.828125 64.59375 
L 19.828125 46.734375 
Q 21.96875 47.46875 24.109375 47.828125 
Q 26.265625 48.1875 28.421875 48.1875 
Q 40.625 48.1875 47.75 41.5 
Q 54.890625 34.8125 54.890625 23.390625 
Q 54.890625 11.625 47.5625 5.09375 
Q 40.234375 -1.421875 26.90625 -1.421875 
Q 22.3125 -1.421875 17.546875 -0.640625 
Q 12.796875 0.140625 7.71875 1.703125 
L 7.71875 11.625 
Q 12.109375 9.234375 16.796875 8.0625 
Q 21.484375 6.890625 26.703125 6.890625 
Q 35.15625 6.890625 40.078125 11.328125 
Q 45.015625 15.765625 45.015625 23.390625 
Q 45.015625 31 40.078125 35.4375 
Q 35.15625 39.890625 26.703125 39.890625 
Q 22.75 39.890625 18.8125 39.015625 
Q 14.890625 38.140625 10.796875 36.28125 
z
" id="DejaVuSans-53"/>
       </defs>
       <use xlink:href="#DejaVuSans-50"/>
       <use x="63.623047" xlink:href="#DejaVuSans-53"/>
       <use x="127.246094" xlink:href="#DejaVuSans-48"/>
       <use x="190.869141" xlink:href="#DejaVuSans-48"/>
       <use x="254.492188" xlink:href="#DejaVuSans-48"/>
      </g>
     </g>
    </g>
    <g id="xtick_3">
     <g id="line2d_5">
      <path clip-path="url(#p08bf127ab4)" d="M 484.364905 756 
L 484.364905 103.68 
" style="fill:none;stroke:#b0b0b0;stroke-linecap:square;stroke-width:0.8;"/>
     </g>
     <g id="line2d_6">
      <g>
       <use style="stroke:#000000;stroke-width:0.8;" x="484.364905" xlink:href="#m8d77a5c604" y="756"/>
      </g>
     </g>
     <g id="text_3">
      <!-- 50000 -->
      <g transform="translate(446.189905 781.23625)scale(0.24 -0.24)">
       <use xlink:href="#DejaVuSans-53"/>
       <use x="63.623047" xlink:href="#DejaVuSans-48"/>
       <use x="127.246094" xlink:href="#DejaVuSans-48"/>
       <use x="190.869141" xlink:href="#DejaVuSans-48"/>
       <use x="254.492188" xlink:href="#DejaVuSans-48"/>
      </g>
     </g>
    </g>
    <g id="xtick_4">
     <g id="line2d_7">
      <path clip-path="url(#p08bf127ab4)" d="M 611.18372 756 
L 611.18372 103.68 
" style="fill:none;stroke:#b0b0b0;stroke-linecap:square;stroke-width:0.8;"/>
     </g>
     <g id="line2d_8">
      <g>
       <use style="stroke:#000000;stroke-width:0.8;" x="611.18372" xlink:href="#m8d77a5c604" y="756"/>
      </g>
     </g>
     <g id="text_4">
      <!-- 75000 -->
      <g transform="translate(573.00872 781.23625)scale(0.24 -0.24)">
       <defs>
        <path d="M 8.203125 72.90625 
L 55.078125 72.90625 
L 55.078125 68.703125 
L 28.609375 0 
L 18.3125 0 
L 43.21875 64.59375 
L 8.203125 64.59375 
z
" id="DejaVuSans-55"/>
       </defs>
       <use xlink:href="#DejaVuSans-55"/>
       <use x="63.623047" xlink:href="#DejaVuSans-53"/>
       <use x="127.246094" xlink:href="#DejaVuSans-48"/>
       <use x="190.869141" xlink:href="#DejaVuSans-48"/>
       <use x="254.492188" xlink:href="#DejaVuSans-48"/>
      </g>
     </g>
    </g>
    <g id="xtick_5">
     <g id="line2d_9">
      <path clip-path="url(#p08bf127ab4)" d="M 738.002536 756 
L 738.002536 103.68 
" style="fill:none;stroke:#b0b0b0;stroke-linecap:square;stroke-width:0.8;"/>
     </g>
     <g id="line2d_10">
      <g>
       <use style="stroke:#000000;stroke-width:0.8;" x="738.002536" xlink:href="#m8d77a5c604" y="756"/>
      </g>
     </g>
     <g id="text_5">
      <!-- 100000 -->
      <g transform="translate(692.192536 781.23625)scale(0.24 -0.24)">
       <defs>
        <path d="M 12.40625 8.296875 
L 28.515625 8.296875 
L 28.515625 63.921875 
L 10.984375 60.40625 
L 10.984375 69.390625 
L 28.421875 72.90625 
L 38.28125 72.90625 
L 38.28125 8.296875 
L 54.390625 8.296875 
L 54.390625 0 
L 12.40625 0 
z
" id="DejaVuSans-49"/>
       </defs>
       <use xlink:href="#DejaVuSans-49"/>
       <use x="63.623047" xlink:href="#DejaVuSans-48"/>
       <use x="127.246094" xlink:href="#DejaVuSans-48"/>
       <use x="190.869141" xlink:href="#DejaVuSans-48"/>
       <use x="254.492188" xlink:href="#DejaVuSans-48"/>
       <use x="318.115234" xlink:href="#DejaVuSans-48"/>
      </g>
     </g>
    </g>
    <g id="xtick_6">
     <g id="line2d_11">
      <path clip-path="url(#p08bf127ab4)" d="M 864.821352 756 
L 864.821352 103.68 
" style="fill:none;stroke:#b0b0b0;stroke-linecap:square;stroke-width:0.8;"/>
     </g>
     <g id="line2d_12">
      <g>
       <use style="stroke:#000000;stroke-width:0.8;" x="864.821352" xlink:href="#m8d77a5c604" y="756"/>
      </g>
     </g>
     <g id="text_6">
      <!-- 125000 -->
      <g transform="translate(819.011352 781.23625)scale(0.24 -0.24)">
       <use xlink:href="#DejaVuSans-49"/>
       <use x="63.623047" xlink:href="#DejaVuSans-50"/>
       <use x="127.246094" xlink:href="#DejaVuSans-53"/>
       <use x="190.869141" xlink:href="#DejaVuSans-48"/>
       <use x="254.492188" xlink:href="#DejaVuSans-48"/>
       <use x="318.115234" xlink:href="#DejaVuSans-48"/>
      </g>
     </g>
    </g>
    <g id="xtick_7">
     <g id="line2d_13">
      <path clip-path="url(#p08bf127ab4)" d="M 991.640168 756 
L 991.640168 103.68 
" style="fill:none;stroke:#b0b0b0;stroke-linecap:square;stroke-width:0.8;"/>
     </g>
     <g id="line2d_14">
      <g>
       <use style="stroke:#000000;stroke-width:0.8;" x="991.640168" xlink:href="#m8d77a5c604" y="756"/>
      </g>
     </g>
     <g id="text_7">
      <!-- 150000 -->
      <g transform="translate(945.830168 781.23625)scale(0.24 -0.24)">
       <use xlink:href="#DejaVuSans-49"/>
       <use x="63.623047" xlink:href="#DejaVuSans-53"/>
       <use x="127.246094" xlink:href="#DejaVuSans-48"/>
       <use x="190.869141" xlink:href="#DejaVuSans-48"/>
       <use x="254.492188" xlink:href="#DejaVuSans-48"/>
       <use x="318.115234" xlink:href="#DejaVuSans-48"/>
      </g>
     </g>
    </g>
    <g id="xtick_8">
     <g id="line2d_15">
      <path clip-path="url(#p08bf127ab4)" d="M 1118.458984 756 
L 1118.458984 103.68 
" style="fill:none;stroke:#b0b0b0;stroke-linecap:square;stroke-width:0.8;"/>
     </g>
     <g id="line2d_16">
      <g>
       <use style="stroke:#000000;stroke-width:0.8;" x="1118.458984" xlink:href="#m8d77a5c604" y="756"/>
      </g>
     </g>
     <g id="text_8">
      <!-- 175000 -->
      <g transform="translate(1072.648984 781.23625)scale(0.24 -0.24)">
       <use xlink:href="#DejaVuSans-49"/>
       <use x="63.623047" xlink:href="#DejaVuSans-55"/>
       <use x="127.246094" xlink:href="#DejaVuSans-53"/>
       <use x="190.869141" xlink:href="#DejaVuSans-48"/>
       <use x="254.492188" xlink:href="#DejaVuSans-48"/>
       <use x="318.115234" xlink:href="#DejaVuSans-48"/>
      </g>
     </g>
    </g>
    <g id="xtick_9">
     <g id="line2d_17">
      <path clip-path="url(#p08bf127ab4)" d="M 1245.2778 756 
L 1245.2778 103.68 
" style="fill:none;stroke:#b0b0b0;stroke-linecap:square;stroke-width:0.8;"/>
     </g>
     <g id="line2d_18">
      <g>
       <use style="stroke:#000000;stroke-width:0.8;" x="1245.2778" xlink:href="#m8d77a5c604" y="756"/>
      </g>
     </g>
     <g id="text_9">
      <!-- 200000 -->
      <g transform="translate(1199.4678 781.23625)scale(0.24 -0.24)">
       <use xlink:href="#DejaVuSans-50"/>
       <use x="63.623047" xlink:href="#DejaVuSans-48"/>
       <use x="127.246094" xlink:href="#DejaVuSans-48"/>
       <use x="190.869141" xlink:href="#DejaVuSans-48"/>
       <use x="254.492188" xlink:href="#DejaVuSans-48"/>
       <use x="318.115234" xlink:href="#DejaVuSans-48"/>
      </g>
     </g>
    </g>
    <g id="text_10">
     <!-- Iterations $\to$ -->
     <g transform="translate(708.4 797.825938)scale(0.1 -0.1)">
      <defs>
       <path d="M 9.8125 72.90625 
L 19.671875 72.90625 
L 19.671875 0 
L 9.8125 0 
z
" id="DejaVuSans-73"/>
       <path d="M 18.3125 70.21875 
L 18.3125 54.6875 
L 36.8125 54.6875 
L 36.8125 47.703125 
L 18.3125 47.703125 
L 18.3125 18.015625 
Q 18.3125 11.328125 20.140625 9.421875 
Q 21.96875 7.515625 27.59375 7.515625 
L 36.8125 7.515625 
L 36.8125 0 
L 27.59375 0 
Q 17.1875 0 13.234375 3.875 
Q 9.28125 7.765625 9.28125 18.015625 
L 9.28125 47.703125 
L 2.6875 47.703125 
L 2.6875 54.6875 
L 9.28125 54.6875 
L 9.28125 70.21875 
z
" id="DejaVuSans-116"/>
       <path d="M 56.203125 29.59375 
L 56.203125 25.203125 
L 14.890625 25.203125 
Q 15.484375 15.921875 20.484375 11.0625 
Q 25.484375 6.203125 34.421875 6.203125 
Q 39.59375 6.203125 44.453125 7.46875 
Q 49.3125 8.734375 54.109375 11.28125 
L 54.109375 2.78125 
Q 49.265625 0.734375 44.1875 -0.34375 
Q 39.109375 -1.421875 33.890625 -1.421875 
Q 20.796875 -1.421875 13.15625 6.1875 
Q 5.515625 13.8125 5.515625 26.8125 
Q 5.515625 40.234375 12.765625 48.109375 
Q 20.015625 56 32.328125 56 
Q 43.359375 56 49.78125 48.890625 
Q 56.203125 41.796875 56.203125 29.59375 
z
M 47.21875 32.234375 
Q 47.125 39.59375 43.09375 43.984375 
Q 39.0625 48.390625 32.421875 48.390625 
Q 24.90625 48.390625 20.390625 44.140625 
Q 15.875 39.890625 15.1875 32.171875 
z
" id="DejaVuSans-101"/>
       <path d="M 41.109375 46.296875 
Q 39.59375 47.171875 37.8125 47.578125 
Q 36.03125 48 33.890625 48 
Q 26.265625 48 22.1875 43.046875 
Q 18.109375 38.09375 18.109375 28.8125 
L 18.109375 0 
L 9.078125 0 
L 9.078125 54.6875 
L 18.109375 54.6875 
L 18.109375 46.1875 
Q 20.953125 51.171875 25.484375 53.578125 
Q 30.03125 56 36.53125 56 
Q 37.453125 56 38.578125 55.875 
Q 39.703125 55.765625 41.0625 55.515625 
z
" id="DejaVuSans-114"/>
       <path d="M 34.28125 27.484375 
Q 23.390625 27.484375 19.1875 25 
Q 14.984375 22.515625 14.984375 16.5 
Q 14.984375 11.71875 18.140625 8.90625 
Q 21.296875 6.109375 26.703125 6.109375 
Q 34.1875 6.109375 38.703125 11.40625 
Q 43.21875 16.703125 43.21875 25.484375 
L 43.21875 27.484375 
z
M 52.203125 31.203125 
L 52.203125 0 
L 43.21875 0 
L 43.21875 8.296875 
Q 40.140625 3.328125 35.546875 0.953125 
Q 30.953125 -1.421875 24.3125 -1.421875 
Q 15.921875 -1.421875 10.953125 3.296875 
Q 6 8.015625 6 15.921875 
Q 6 25.140625 12.171875 29.828125 
Q 18.359375 34.515625 30.609375 34.515625 
L 43.21875 34.515625 
L 43.21875 35.40625 
Q 43.21875 41.609375 39.140625 45 
Q 35.0625 48.390625 27.6875 48.390625 
Q 23 48.390625 18.546875 47.265625 
Q 14.109375 46.140625 10.015625 43.890625 
L 10.015625 52.203125 
Q 14.9375 54.109375 19.578125 55.046875 
Q 24.21875 56 28.609375 56 
Q 40.484375 56 46.34375 49.84375 
Q 52.203125 43.703125 52.203125 31.203125 
z
" id="DejaVuSans-97"/>
       <path d="M 9.421875 54.6875 
L 18.40625 54.6875 
L 18.40625 0 
L 9.421875 0 
z
M 9.421875 75.984375 
L 18.40625 75.984375 
L 18.40625 64.59375 
L 9.421875 64.59375 
z
" id="DejaVuSans-105"/>
       <path d="M 30.609375 48.390625 
Q 23.390625 48.390625 19.1875 42.75 
Q 14.984375 37.109375 14.984375 27.296875 
Q 14.984375 17.484375 19.15625 11.84375 
Q 23.34375 6.203125 30.609375 6.203125 
Q 37.796875 6.203125 41.984375 11.859375 
Q 46.1875 17.53125 46.1875 27.296875 
Q 46.1875 37.015625 41.984375 42.703125 
Q 37.796875 48.390625 30.609375 48.390625 
z
M 30.609375 56 
Q 42.328125 56 49.015625 48.375 
Q 55.71875 40.765625 55.71875 27.296875 
Q 55.71875 13.875 49.015625 6.21875 
Q 42.328125 -1.421875 30.609375 -1.421875 
Q 18.84375 -1.421875 12.171875 6.21875 
Q 5.515625 13.875 5.515625 27.296875 
Q 5.515625 40.765625 12.171875 48.375 
Q 18.84375 56 30.609375 56 
z
" id="DejaVuSans-111"/>
       <path d="M 54.890625 33.015625 
L 54.890625 0 
L 45.90625 0 
L 45.90625 32.71875 
Q 45.90625 40.484375 42.875 44.328125 
Q 39.84375 48.1875 33.796875 48.1875 
Q 26.515625 48.1875 22.3125 43.546875 
Q 18.109375 38.921875 18.109375 30.90625 
L 18.109375 0 
L 9.078125 0 
L 9.078125 54.6875 
L 18.109375 54.6875 
L 18.109375 46.1875 
Q 21.34375 51.125 25.703125 53.5625 
Q 30.078125 56 35.796875 56 
Q 45.21875 56 50.046875 50.171875 
Q 54.890625 44.34375 54.890625 33.015625 
z
" id="DejaVuSans-110"/>
       <path d="M 44.28125 53.078125 
L 44.28125 44.578125 
Q 40.484375 46.53125 36.375 47.5 
Q 32.28125 48.484375 27.875 48.484375 
Q 21.1875 48.484375 17.84375 46.4375 
Q 14.5 44.390625 14.5 40.28125 
Q 14.5 37.15625 16.890625 35.375 
Q 19.28125 33.59375 26.515625 31.984375 
L 29.59375 31.296875 
Q 39.15625 29.25 43.1875 25.515625 
Q 47.21875 21.78125 47.21875 15.09375 
Q 47.21875 7.46875 41.1875 3.015625 
Q 35.15625 -1.421875 24.609375 -1.421875 
Q 20.21875 -1.421875 15.453125 -0.5625 
Q 10.6875 0.296875 5.421875 2 
L 5.421875 11.28125 
Q 10.40625 8.6875 15.234375 7.390625 
Q 20.0625 6.109375 24.8125 6.109375 
Q 31.15625 6.109375 34.5625 8.28125 
Q 37.984375 10.453125 37.984375 14.40625 
Q 37.984375 18.0625 35.515625 20.015625 
Q 33.0625 21.96875 24.703125 23.78125 
L 21.578125 24.515625 
Q 13.234375 26.265625 9.515625 29.90625 
Q 5.8125 33.546875 5.8125 39.890625 
Q 5.8125 47.609375 11.28125 51.796875 
Q 16.75 56 26.8125 56 
Q 31.78125 56 36.171875 55.265625 
Q 40.578125 54.546875 44.28125 53.078125 
z
" id="DejaVuSans-115"/>
       <path id="DejaVuSans-32"/>
       <path d="M 78.90625 33.546875 
L 78.90625 29.15625 
L 59.71875 9.96875 
L 53.859375 15.828125 
L 65.234375 27.203125 
L 5.71875 27.203125 
L 5.71875 35.5 
L 65.234375 35.5 
L 53.859375 46.875 
L 59.71875 52.734375 
z
" id="DejaVuSans-8594"/>
      </defs>
      <use transform="translate(0 0.015625)" xlink:href="#DejaVuSans-73"/>
      <use transform="translate(29.492188 0.015625)" xlink:href="#DejaVuSans-116"/>
      <use transform="translate(68.701172 0.015625)" xlink:href="#DejaVuSans-101"/>
      <use transform="translate(130.224609 0.015625)" xlink:href="#DejaVuSans-114"/>
      <use transform="translate(171.337891 0.015625)" xlink:href="#DejaVuSans-97"/>
      <use transform="translate(232.617188 0.015625)" xlink:href="#DejaVuSans-116"/>
      <use transform="translate(271.826172 0.015625)" xlink:href="#DejaVuSans-105"/>
      <use transform="translate(299.609375 0.015625)" xlink:href="#DejaVuSans-111"/>
      <use transform="translate(360.791016 0.015625)" xlink:href="#DejaVuSans-110"/>
      <use transform="translate(424.169922 0.015625)" xlink:href="#DejaVuSans-115"/>
      <use transform="translate(476.269531 0.015625)" xlink:href="#DejaVuSans-32"/>
      <use transform="translate(508.056641 0.015625)" xlink:href="#DejaVuSans-8594"/>
     </g>
    </g>
   </g>
   <g id="matplotlib.axis_2">
    <g id="ytick_1">
     <g id="line2d_19">
      <path clip-path="url(#p08bf127ab4)" d="M 180 756 
L 1296 756 
" style="fill:none;stroke:#b0b0b0;stroke-linecap:square;stroke-width:0.8;"/>
     </g>
     <g id="line2d_20">
      <defs>
       <path d="M 0 0 
L -3.5 0 
" id="m59d5700db4" style="stroke:#000000;stroke-width:0.8;"/>
      </defs>
      <g>
       <use style="stroke:#000000;stroke-width:0.8;" x="180" xlink:href="#m59d5700db4" y="756"/>
      </g>
     </g>
     <g id="text_11">
      <!-- 0.0 -->
      <g transform="translate(134.8325 765.118125)scale(0.24 -0.24)">
       <defs>
        <path d="M 10.6875 12.40625 
L 21 12.40625 
L 21 0 
L 10.6875 0 
z
" id="DejaVuSans-46"/>
       </defs>
       <use xlink:href="#DejaVuSans-48"/>
       <use x="63.623047" xlink:href="#DejaVuSans-46"/>
       <use x="95.410156" xlink:href="#DejaVuSans-48"/>
      </g>
     </g>
    </g>
    <g id="ytick_2">
     <g id="line2d_21">
      <path clip-path="url(#p08bf127ab4)" d="M 180 674.46 
L 1296 674.46 
" style="fill:none;stroke:#b0b0b0;stroke-linecap:square;stroke-width:0.8;"/>
     </g>
     <g id="line2d_22">
      <g>
       <use style="stroke:#000000;stroke-width:0.8;" x="180" xlink:href="#m59d5700db4" y="674.46"/>
      </g>
     </g>
     <g id="text_12">
      <!-- 2.5 -->
      <g transform="translate(134.8325 683.578125)scale(0.24 -0.24)">
       <use xlink:href="#DejaVuSans-50"/>
       <use x="63.623047" xlink:href="#DejaVuSans-46"/>
       <use x="95.410156" xlink:href="#DejaVuSans-53"/>
      </g>
     </g>
    </g>
    <g id="ytick_3">
     <g id="line2d_23">
      <path clip-path="url(#p08bf127ab4)" d="M 180 592.92 
L 1296 592.92 
" style="fill:none;stroke:#b0b0b0;stroke-linecap:square;stroke-width:0.8;"/>
     </g>
     <g id="line2d_24">
      <g>
       <use style="stroke:#000000;stroke-width:0.8;" x="180" xlink:href="#m59d5700db4" y="592.92"/>
      </g>
     </g>
     <g id="text_13">
      <!-- 5.0 -->
      <g transform="translate(134.8325 602.038125)scale(0.24 -0.24)">
       <use xlink:href="#DejaVuSans-53"/>
       <use x="63.623047" xlink:href="#DejaVuSans-46"/>
       <use x="95.410156" xlink:href="#DejaVuSans-48"/>
      </g>
     </g>
    </g>
    <g id="ytick_4">
     <g id="line2d_25">
      <path clip-path="url(#p08bf127ab4)" d="M 180 511.38 
L 1296 511.38 
" style="fill:none;stroke:#b0b0b0;stroke-linecap:square;stroke-width:0.8;"/>
     </g>
     <g id="line2d_26">
      <g>
       <use style="stroke:#000000;stroke-width:0.8;" x="180" xlink:href="#m59d5700db4" y="511.38"/>
      </g>
     </g>
     <g id="text_14">
      <!-- 7.5 -->
      <g transform="translate(134.8325 520.498125)scale(0.24 -0.24)">
       <use xlink:href="#DejaVuSans-55"/>
       <use x="63.623047" xlink:href="#DejaVuSans-46"/>
       <use x="95.410156" xlink:href="#DejaVuSans-53"/>
      </g>
     </g>
    </g>
    <g id="ytick_5">
     <g id="line2d_27">
      <path clip-path="url(#p08bf127ab4)" d="M 180 429.84 
L 1296 429.84 
" style="fill:none;stroke:#b0b0b0;stroke-linecap:square;stroke-width:0.8;"/>
     </g>
     <g id="line2d_28">
      <g>
       <use style="stroke:#000000;stroke-width:0.8;" x="180" xlink:href="#m59d5700db4" y="429.84"/>
      </g>
     </g>
     <g id="text_15">
      <!-- 10.0 -->
      <g transform="translate(119.5625 438.958125)scale(0.24 -0.24)">
       <use xlink:href="#DejaVuSans-49"/>
       <use x="63.623047" xlink:href="#DejaVuSans-48"/>
       <use x="127.246094" xlink:href="#DejaVuSans-46"/>
       <use x="159.033203" xlink:href="#DejaVuSans-48"/>
      </g>
     </g>
    </g>
    <g id="ytick_6">
     <g id="line2d_29">
      <path clip-path="url(#p08bf127ab4)" d="M 180 348.3 
L 1296 348.3 
" style="fill:none;stroke:#b0b0b0;stroke-linecap:square;stroke-width:0.8;"/>
     </g>
     <g id="line2d_30">
      <g>
       <use style="stroke:#000000;stroke-width:0.8;" x="180" xlink:href="#m59d5700db4" y="348.3"/>
      </g>
     </g>
     <g id="text_16">
      <!-- 12.5 -->
      <g transform="translate(119.5625 357.418125)scale(0.24 -0.24)">
       <use xlink:href="#DejaVuSans-49"/>
       <use x="63.623047" xlink:href="#DejaVuSans-50"/>
       <use x="127.246094" xlink:href="#DejaVuSans-46"/>
       <use x="159.033203" xlink:href="#DejaVuSans-53"/>
      </g>
     </g>
    </g>
    <g id="ytick_7">
     <g id="line2d_31">
      <path clip-path="url(#p08bf127ab4)" d="M 180 266.76 
L 1296 266.76 
" style="fill:none;stroke:#b0b0b0;stroke-linecap:square;stroke-width:0.8;"/>
     </g>
     <g id="line2d_32">
      <g>
       <use style="stroke:#000000;stroke-width:0.8;" x="180" xlink:href="#m59d5700db4" y="266.76"/>
      </g>
     </g>
     <g id="text_17">
      <!-- 15.0 -->
      <g transform="translate(119.5625 275.878125)scale(0.24 -0.24)">
       <use xlink:href="#DejaVuSans-49"/>
       <use x="63.623047" xlink:href="#DejaVuSans-53"/>
       <use x="127.246094" xlink:href="#DejaVuSans-46"/>
       <use x="159.033203" xlink:href="#DejaVuSans-48"/>
      </g>
     </g>
    </g>
    <g id="ytick_8">
     <g id="line2d_33">
      <path clip-path="url(#p08bf127ab4)" d="M 180 185.22 
L 1296 185.22 
" style="fill:none;stroke:#b0b0b0;stroke-linecap:square;stroke-width:0.8;"/>
     </g>
     <g id="line2d_34">
      <g>
       <use style="stroke:#000000;stroke-width:0.8;" x="180" xlink:href="#m59d5700db4" y="185.22"/>
      </g>
     </g>
     <g id="text_18">
      <!-- 17.5 -->
      <g transform="translate(119.5625 194.338125)scale(0.24 -0.24)">
       <use xlink:href="#DejaVuSans-49"/>
       <use x="63.623047" xlink:href="#DejaVuSans-55"/>
       <use x="127.246094" xlink:href="#DejaVuSans-46"/>
       <use x="159.033203" xlink:href="#DejaVuSans-53"/>
      </g>
     </g>
    </g>
    <g id="ytick_9">
     <g id="line2d_35">
      <path clip-path="url(#p08bf127ab4)" d="M 180 103.68 
L 1296 103.68 
" style="fill:none;stroke:#b0b0b0;stroke-linecap:square;stroke-width:0.8;"/>
     </g>
     <g id="line2d_36">
      <g>
       <use style="stroke:#000000;stroke-width:0.8;" x="180" xlink:href="#m59d5700db4" y="103.68"/>
      </g>
     </g>
     <g id="text_19">
      <!-- 20.0 -->
      <g transform="translate(119.5625 112.798125)scale(0.24 -0.24)">
       <use xlink:href="#DejaVuSans-50"/>
       <use x="63.623047" xlink:href="#DejaVuSans-48"/>
       <use x="127.246094" xlink:href="#DejaVuSans-46"/>
       <use x="159.033203" xlink:href="#DejaVuSans-48"/>
      </g>
     </g>
    </g>
    <g id="text_20">
     <!-- Bit Error per Sequence $\to$  -->
     <g transform="translate(113.4625 494.14)rotate(-90)scale(0.1 -0.1)">
      <defs>
       <path d="M 19.671875 34.8125 
L 19.671875 8.109375 
L 35.5 8.109375 
Q 43.453125 8.109375 47.28125 11.40625 
Q 51.125 14.703125 51.125 21.484375 
Q 51.125 28.328125 47.28125 31.5625 
Q 43.453125 34.8125 35.5 34.8125 
z
M 19.671875 64.796875 
L 19.671875 42.828125 
L 34.28125 42.828125 
Q 41.5 42.828125 45.03125 45.53125 
Q 48.578125 48.25 48.578125 53.8125 
Q 48.578125 59.328125 45.03125 62.0625 
Q 41.5 64.796875 34.28125 64.796875 
z
M 9.8125 72.90625 
L 35.015625 72.90625 
Q 46.296875 72.90625 52.390625 68.21875 
Q 58.5 63.53125 58.5 54.890625 
Q 58.5 48.1875 55.375 44.234375 
Q 52.25 40.28125 46.1875 39.3125 
Q 53.46875 37.75 57.5 32.78125 
Q 61.53125 27.828125 61.53125 20.40625 
Q 61.53125 10.640625 54.890625 5.3125 
Q 48.25 0 35.984375 0 
L 9.8125 0 
z
" id="DejaVuSans-66"/>
       <path d="M 9.8125 72.90625 
L 55.90625 72.90625 
L 55.90625 64.59375 
L 19.671875 64.59375 
L 19.671875 43.015625 
L 54.390625 43.015625 
L 54.390625 34.71875 
L 19.671875 34.71875 
L 19.671875 8.296875 
L 56.78125 8.296875 
L 56.78125 0 
L 9.8125 0 
z
" id="DejaVuSans-69"/>
       <path d="M 18.109375 8.203125 
L 18.109375 -20.796875 
L 9.078125 -20.796875 
L 9.078125 54.6875 
L 18.109375 54.6875 
L 18.109375 46.390625 
Q 20.953125 51.265625 25.265625 53.625 
Q 29.59375 56 35.59375 56 
Q 45.5625 56 51.78125 48.09375 
Q 58.015625 40.1875 58.015625 27.296875 
Q 58.015625 14.40625 51.78125 6.484375 
Q 45.5625 -1.421875 35.59375 -1.421875 
Q 29.59375 -1.421875 25.265625 0.953125 
Q 20.953125 3.328125 18.109375 8.203125 
z
M 48.6875 27.296875 
Q 48.6875 37.203125 44.609375 42.84375 
Q 40.53125 48.484375 33.40625 48.484375 
Q 26.265625 48.484375 22.1875 42.84375 
Q 18.109375 37.203125 18.109375 27.296875 
Q 18.109375 17.390625 22.1875 11.75 
Q 26.265625 6.109375 33.40625 6.109375 
Q 40.53125 6.109375 44.609375 11.75 
Q 48.6875 17.390625 48.6875 27.296875 
z
" id="DejaVuSans-112"/>
       <path d="M 53.515625 70.515625 
L 53.515625 60.890625 
Q 47.90625 63.578125 42.921875 64.890625 
Q 37.9375 66.21875 33.296875 66.21875 
Q 25.25 66.21875 20.875 63.09375 
Q 16.5 59.96875 16.5 54.203125 
Q 16.5 49.359375 19.40625 46.890625 
Q 22.3125 44.4375 30.421875 42.921875 
L 36.375 41.703125 
Q 47.40625 39.59375 52.65625 34.296875 
Q 57.90625 29 57.90625 20.125 
Q 57.90625 9.515625 50.796875 4.046875 
Q 43.703125 -1.421875 29.984375 -1.421875 
Q 24.8125 -1.421875 18.96875 -0.25 
Q 13.140625 0.921875 6.890625 3.21875 
L 6.890625 13.375 
Q 12.890625 10.015625 18.65625 8.296875 
Q 24.421875 6.59375 29.984375 6.59375 
Q 38.421875 6.59375 43.015625 9.90625 
Q 47.609375 13.234375 47.609375 19.390625 
Q 47.609375 24.75 44.3125 27.78125 
Q 41.015625 30.8125 33.5 32.328125 
L 27.484375 33.5 
Q 16.453125 35.6875 11.515625 40.375 
Q 6.59375 45.0625 6.59375 53.421875 
Q 6.59375 63.09375 13.40625 68.65625 
Q 20.21875 74.21875 32.171875 74.21875 
Q 37.3125 74.21875 42.625 73.28125 
Q 47.953125 72.359375 53.515625 70.515625 
z
" id="DejaVuSans-83"/>
       <path d="M 14.796875 27.296875 
Q 14.796875 17.390625 18.875 11.75 
Q 22.953125 6.109375 30.078125 6.109375 
Q 37.203125 6.109375 41.296875 11.75 
Q 45.40625 17.390625 45.40625 27.296875 
Q 45.40625 37.203125 41.296875 42.84375 
Q 37.203125 48.484375 30.078125 48.484375 
Q 22.953125 48.484375 18.875 42.84375 
Q 14.796875 37.203125 14.796875 27.296875 
z
M 45.40625 8.203125 
Q 42.578125 3.328125 38.25 0.953125 
Q 33.9375 -1.421875 27.875 -1.421875 
Q 17.96875 -1.421875 11.734375 6.484375 
Q 5.515625 14.40625 5.515625 27.296875 
Q 5.515625 40.1875 11.734375 48.09375 
Q 17.96875 56 27.875 56 
Q 33.9375 56 38.25 53.625 
Q 42.578125 51.265625 45.40625 46.390625 
L 45.40625 54.6875 
L 54.390625 54.6875 
L 54.390625 -20.796875 
L 45.40625 -20.796875 
z
" id="DejaVuSans-113"/>
       <path d="M 8.5 21.578125 
L 8.5 54.6875 
L 17.484375 54.6875 
L 17.484375 21.921875 
Q 17.484375 14.15625 20.5 10.265625 
Q 23.53125 6.390625 29.59375 6.390625 
Q 36.859375 6.390625 41.078125 11.03125 
Q 45.3125 15.671875 45.3125 23.6875 
L 45.3125 54.6875 
L 54.296875 54.6875 
L 54.296875 0 
L 45.3125 0 
L 45.3125 8.40625 
Q 42.046875 3.421875 37.71875 1 
Q 33.40625 -1.421875 27.6875 -1.421875 
Q 18.265625 -1.421875 13.375 4.4375 
Q 8.5 10.296875 8.5 21.578125 
z
M 31.109375 56 
z
" id="DejaVuSans-117"/>
       <path d="M 48.78125 52.59375 
L 48.78125 44.1875 
Q 44.96875 46.296875 41.140625 47.34375 
Q 37.3125 48.390625 33.40625 48.390625 
Q 24.65625 48.390625 19.8125 42.84375 
Q 14.984375 37.3125 14.984375 27.296875 
Q 14.984375 17.28125 19.8125 11.734375 
Q 24.65625 6.203125 33.40625 6.203125 
Q 37.3125 6.203125 41.140625 7.25 
Q 44.96875 8.296875 48.78125 10.40625 
L 48.78125 2.09375 
Q 45.015625 0.34375 40.984375 -0.53125 
Q 36.96875 -1.421875 32.421875 -1.421875 
Q 20.0625 -1.421875 12.78125 6.34375 
Q 5.515625 14.109375 5.515625 27.296875 
Q 5.515625 40.671875 12.859375 48.328125 
Q 20.21875 56 33.015625 56 
Q 37.15625 56 41.109375 55.140625 
Q 45.0625 54.296875 48.78125 52.59375 
z
" id="DejaVuSans-99"/>
      </defs>
      <use transform="translate(0 0.015625)" xlink:href="#DejaVuSans-66"/>
      <use transform="translate(68.603516 0.015625)" xlink:href="#DejaVuSans-105"/>
      <use transform="translate(96.386719 0.015625)" xlink:href="#DejaVuSans-116"/>
      <use transform="translate(135.595703 0.015625)" xlink:href="#DejaVuSans-32"/>
      <use transform="translate(167.382812 0.015625)" xlink:href="#DejaVuSans-69"/>
      <use transform="translate(230.566406 0.015625)" xlink:href="#DejaVuSans-114"/>
      <use transform="translate(271.679688 0.015625)" xlink:href="#DejaVuSans-114"/>
      <use transform="translate(312.792969 0.015625)" xlink:href="#DejaVuSans-111"/>
      <use transform="translate(373.974609 0.015625)" xlink:href="#DejaVuSans-114"/>
      <use transform="translate(415.087891 0.015625)" xlink:href="#DejaVuSans-32"/>
      <use transform="translate(446.875 0.015625)" xlink:href="#DejaVuSans-112"/>
      <use transform="translate(510.351562 0.015625)" xlink:href="#DejaVuSans-101"/>
      <use transform="translate(571.875 0.015625)" xlink:href="#DejaVuSans-114"/>
      <use transform="translate(612.988281 0.015625)" xlink:href="#DejaVuSans-32"/>
      <use transform="translate(644.775391 0.015625)" xlink:href="#DejaVuSans-83"/>
      <use transform="translate(708.251953 0.015625)" xlink:href="#DejaVuSans-101"/>
      <use transform="translate(769.775391 0.015625)" xlink:href="#DejaVuSans-113"/>
      <use transform="translate(833.251953 0.015625)" xlink:href="#DejaVuSans-117"/>
      <use transform="translate(896.630859 0.015625)" xlink:href="#DejaVuSans-101"/>
      <use transform="translate(958.154297 0.015625)" xlink:href="#DejaVuSans-110"/>
      <use transform="translate(1021.533203 0.015625)" xlink:href="#DejaVuSans-99"/>
      <use transform="translate(1076.513672 0.015625)" xlink:href="#DejaVuSans-101"/>
      <use transform="translate(1138.037109 0.015625)" xlink:href="#DejaVuSans-32"/>
      <use transform="translate(1169.824219 0.015625)" xlink:href="#DejaVuSans-8594"/>
      <use transform="translate(1253.613281 0.015625)" xlink:href="#DejaVuSans-32"/>
     </g>
    </g>
   </g>
   <g id="line2d_37">
    <path clip-path="url(#p08bf127ab4)" d="M 230.727273 350.3385 
L 234.120401 440.631478 
L 237.51353 429.73601 
L 240.906659 422.456184 
L 244.299787 438.426053 
L 247.692916 438.119749 
L 251.086044 427.456504 
L 254.479173 429.501631 
L 257.872302 440.33882 
L 261.26543 439.331765 
L 264.658559 426.07154 
L 268.051687 443.884123 
L 271.444816 450.329383 
L 274.837945 435.482795 
L 278.231073 485.466793 
L 281.624202 451.310579 
L 285.01733 463.133139 
L 288.410459 455.856359 
L 291.803588 463.930297 
L 298.589845 488.408996 
L 301.982974 463.543882 
L 305.376102 489.178686 
L 308.769231 470.017211 
L 312.162359 461.349563 
L 315.555488 486.237028 
L 318.948617 487.558269 
L 322.341745 488.008522 
L 325.734874 486.3308 
L 329.128002 503.510554 
L 332.521131 482.08673 
L 335.91426 499.802799 
L 339.307388 522.804389 
L 342.700517 502.119197 
L 346.093645 503.080279 
L 349.486774 518.547551 
L 352.879903 510.361338 
L 356.273031 524.458117 
L 359.66616 524.7098 
L 363.059289 503.685146 
L 366.452417 580.764775 
L 369.845546 539.852723 
L 373.238674 519.600396 
L 376.631803 509.888236 
L 380.024932 585.520724 
L 383.41806 517.324621 
L 386.811189 639.080636 
L 390.204317 511.688871 
L 393.597446 527.205184 
L 396.990575 620.273661 
L 400.383703 611.313951 
L 403.776832 553.777958 
L 407.16996 538.784785 
L 410.563089 564.907944 
L 413.956218 576.724828 
L 417.349346 548.718448 
L 420.742475 529.88382 
L 424.135604 538.697698 
L 427.528732 673.853821 
L 430.921861 531.970475 
L 434.314989 578.31665 
L 437.708118 565.627808 
L 441.101247 554.80119 
L 444.494375 604.944485 
L 447.887504 551.061461 
L 451.280632 580.846465 
L 454.673761 533.68941 
L 458.06689 559.852797 
L 461.460018 574.771032 
L 464.853147 568.833391 
L 468.246275 644.154691 
L 471.639404 601.317932 
L 475.032533 620.887525 
L 478.425661 575.986999 
L 481.81879 601.277509 
L 485.211919 553.272738 
L 488.605047 565.135484 
L 491.998176 602.007446 
L 495.391304 593.250626 
L 498.784433 618.023759 
L 502.177562 556.817836 
L 505.57069 616.966869 
L 508.963819 571.980068 
L 512.356947 591.39162 
L 515.750076 545.420087 
L 519.143205 553.762553 
L 522.536333 591.273091 
L 525.929462 635.853406 
L 529.32259 546.979379 
L 532.715719 607.966964 
L 536.108848 553.942988 
L 539.501976 577.167804 
L 542.895105 595.419796 
L 546.288234 570.654496 
L 549.681362 577.746534 
L 553.074491 555.107346 
L 556.467619 541.359559 
L 559.860748 560.662919 
L 563.253877 569.627226 
L 566.647005 560.988403 
L 570.040134 577.994194 
L 573.433262 563.800735 
L 576.826391 563.481961 
L 580.21952 588.09257 
L 583.612648 589.997412 
L 587.005777 605.558792 
L 590.398905 562.975184 
L 593.792034 583.010589 
L 597.185163 582.364349 
L 600.578291 604.093679 
L 603.97142 593.248035 
L 607.364548 567.078198 
L 610.757677 572.953147 
L 614.150806 552.820444 
L 617.543934 588.460258 
L 620.937063 653.765561 
L 624.330192 594.384044 
L 627.72332 598.430892 
L 631.116449 625.574183 
L 634.509577 570.069277 
L 637.902706 567.29633 
L 641.295835 631.016167 
L 644.688963 592.456098 
L 648.082092 573.156224 
L 651.47522 603.043274 
L 654.868349 548.370434 
L 658.261478 575.861237 
L 661.654606 566.830875 
L 665.047735 604.684524 
L 668.440863 629.412335 
L 671.833992 554.656979 
L 675.227121 606.483993 
L 678.620249 625.861508 
L 682.013378 550.710441 
L 685.406507 607.113487 
L 688.799635 569.626781 
L 692.192764 562.060263 
L 695.585892 569.688626 
L 698.979021 609.518862 
L 702.37215 561.632215 
L 705.765278 566.008783 
L 709.158407 566.015976 
L 712.551535 573.335111 
L 715.944664 565.016979 
L 719.337793 604.381291 
L 722.730921 545.93594 
L 726.12405 563.494661 
L 729.517178 607.166087 
L 732.910307 590.429252 
L 736.303436 645.070185 
L 739.696564 570.227836 
L 743.089693 630.632662 
L 746.482822 622.36104 
L 749.87595 610.048597 
L 753.269079 631.014923 
L 756.662207 564.217124 
L 760.055336 648.327854 
L 763.448465 612.041998 
L 766.841593 615.725395 
L 770.234722 661.327538 
L 773.62785 668.940644 
L 777.020979 616.206384 
L 780.414108 677.995345 
L 783.807236 631.055207 
L 787.200365 650.712416 
L 790.593493 610.118254 
L 793.986622 612.420762 
L 797.379751 616.423614 
L 800.772879 626.794878 
L 804.166008 652.974719 
L 807.559137 637.946313 
L 810.952265 617.562471 
L 814.345394 610.83097 
L 817.738522 637.196452 
L 821.131651 659.712044 
L 824.52478 632.359613 
L 827.917908 649.013411 
L 831.311037 622.529247 
L 834.704165 655.494087 
L 838.097294 612.391744 
L 841.490423 653.511388 
L 844.883551 637.403266 
L 848.27668 647.136326 
L 851.669808 647.828357 
L 855.062937 630.825283 
L 858.456066 708.562511 
L 861.849194 642.768827 
L 865.242323 678.271594 
L 868.635452 615.482482 
L 872.02858 656.913322 
L 875.421709 622.032879 
L 878.814837 659.671695 
L 882.207966 621.297714 
L 885.601095 689.743163 
L 888.994223 648.337298 
L 892.387352 658.293796 
L 895.78048 616.840993 
L 899.173609 690.75326 
L 902.566738 611.730193 
L 905.959866 630.531562 
L 909.352995 602.253667 
L 912.746123 665.323534 
L 916.139252 633.291511 
L 919.532381 619.99571 
L 922.925509 610.390087 
L 926.318638 641.230278 
L 929.711766 627.289963 
L 933.104895 634.475493 
L 936.498024 658.389577 
L 939.891152 647.938039 
L 943.284281 656.94568 
L 946.67741 633.500512 
L 950.070538 602.001583 
L 953.463667 653.762787 
L 956.856795 637.412824 
L 960.249924 613.156927 
L 963.643053 595.639191 
L 967.036181 656.132663 
L 970.42931 636.719421 
L 973.822438 637.29133 
L 977.215567 642.000655 
L 980.608696 648.883943 
L 984.001824 660.272333 
L 987.394953 628.858602 
L 990.788081 668.986028 
L 994.18121 636.95211 
L 997.574339 597.987255 
L 1000.967467 649.771209 
L 1004.360596 634.989257 
L 1007.753725 612.678999 
L 1011.146853 677.613125 
L 1014.539982 629.334385 
L 1017.93311 605.520568 
L 1021.326239 623.445839 
L 1024.719368 651.439599 
L 1028.112496 619.654694 
L 1031.505625 636.841119 
L 1034.898753 665.586157 
L 1038.291882 681.477486 
L 1041.685011 658.402506 
L 1045.078139 572.482682 
L 1048.471268 676.70933 
L 1051.864396 655.79346 
L 1055.257525 650.699082 
L 1058.650654 635.26474 
L 1062.043782 614.79708 
L 1065.436911 615.03077 
L 1068.83004 638.507802 
L 1072.223168 614.384523 
L 1075.616297 606.56647 
L 1079.009425 641.400398 
L 1082.402554 655.152386 
L 1085.795683 653.152368 
L 1089.188811 651.820032 
L 1092.58194 666.075835 
L 1095.975068 615.730811 
L 1099.368197 606.040069 
L 1102.761326 571.359047 
L 1106.154454 571.932448 
L 1109.547583 577.62417 
L 1112.940711 584.533204 
L 1116.33384 537.451417 
L 1119.726969 573.206055 
L 1123.120097 534.832916 
L 1126.513226 555.746154 
L 1129.906355 538.456438 
L 1133.299483 568.8244 
L 1136.692612 562.118332 
L 1143.478869 542.944069 
L 1146.871998 619.708559 
L 1150.265126 548.032243 
L 1153.658255 553.98311 
L 1157.051383 535.083473 
L 1160.444512 621.724852 
L 1163.837641 539.883207 
L 1167.230769 560.98585 
L 1170.623898 557.464426 
L 1174.017026 577.794791 
L 1177.410155 578.491129 
L 1180.803284 578.135744 
L 1184.196412 581.127666 
L 1187.589541 628.151726 
L 1190.98267 588.65001 
L 1194.375798 594.472642 
L 1197.768927 587.798824 
L 1201.162055 587.337725 
L 1204.555184 509.615562 
L 1207.948313 561.956377 
L 1211.341441 540.07061 
L 1214.73457 515.151458 
L 1218.127698 515.896603 
L 1221.520827 582.960729 
L 1224.913956 591.504215 
L 1228.307084 590.06673 
L 1231.700213 563.958507 
L 1235.093341 604.955034 
L 1238.48647 590.765306 
L 1241.879599 584.527157 
L 1245.272727 602.90865 
L 1245.272727 602.90865 
" style="fill:none;stroke:#000000;stroke-linecap:square;stroke-width:1.5;"/>
   </g>
   <g id="patch_3">
    <path d="M 180 756 
L 180 103.68 
" style="fill:none;stroke:#000000;stroke-linecap:square;stroke-linejoin:miter;stroke-width:0.8;"/>
   </g>
   <g id="patch_4">
    <path d="M 1296 756 
L 1296 103.68 
" style="fill:none;stroke:#000000;stroke-linecap:square;stroke-linejoin:miter;stroke-width:0.8;"/>
   </g>
   <g id="patch_5">
    <path d="M 180 756 
L 1296 756 
" style="fill:none;stroke:#000000;stroke-linecap:square;stroke-linejoin:miter;stroke-width:0.8;"/>
   </g>
   <g id="patch_6">
    <path d="M 180 103.68 
L 1296 103.68 
" style="fill:none;stroke:#000000;stroke-linecap:square;stroke-linejoin:miter;stroke-width:0.8;"/>
   </g>
   <g id="text_21">
    <!-- Matrix Copy Task learning curves -->
    <g transform="translate(638.894063 97.68)scale(0.12 -0.12)">
     <defs>
      <path d="M 9.8125 72.90625 
L 24.515625 72.90625 
L 43.109375 23.296875 
L 61.8125 72.90625 
L 76.515625 72.90625 
L 76.515625 0 
L 66.890625 0 
L 66.890625 64.015625 
L 48.09375 14.015625 
L 38.1875 14.015625 
L 19.390625 64.015625 
L 19.390625 0 
L 9.8125 0 
z
" id="DejaVuSans-77"/>
      <path d="M 54.890625 54.6875 
L 35.109375 28.078125 
L 55.90625 0 
L 45.3125 0 
L 29.390625 21.484375 
L 13.484375 0 
L 2.875 0 
L 24.125 28.609375 
L 4.6875 54.6875 
L 15.28125 54.6875 
L 29.78125 35.203125 
L 44.28125 54.6875 
z
" id="DejaVuSans-120"/>
      <path d="M 64.40625 67.28125 
L 64.40625 56.890625 
Q 59.421875 61.53125 53.78125 63.8125 
Q 48.140625 66.109375 41.796875 66.109375 
Q 29.296875 66.109375 22.65625 58.46875 
Q 16.015625 50.828125 16.015625 36.375 
Q 16.015625 21.96875 22.65625 14.328125 
Q 29.296875 6.6875 41.796875 6.6875 
Q 48.140625 6.6875 53.78125 8.984375 
Q 59.421875 11.28125 64.40625 15.921875 
L 64.40625 5.609375 
Q 59.234375 2.09375 53.4375 0.328125 
Q 47.65625 -1.421875 41.21875 -1.421875 
Q 24.65625 -1.421875 15.125 8.703125 
Q 5.609375 18.84375 5.609375 36.375 
Q 5.609375 53.953125 15.125 64.078125 
Q 24.65625 74.21875 41.21875 74.21875 
Q 47.75 74.21875 53.53125 72.484375 
Q 59.328125 70.75 64.40625 67.28125 
z
" id="DejaVuSans-67"/>
      <path d="M 32.171875 -5.078125 
Q 28.375 -14.84375 24.75 -17.8125 
Q 21.140625 -20.796875 15.09375 -20.796875 
L 7.90625 -20.796875 
L 7.90625 -13.28125 
L 13.1875 -13.28125 
Q 16.890625 -13.28125 18.9375 -11.515625 
Q 21 -9.765625 23.484375 -3.21875 
L 25.09375 0.875 
L 2.984375 54.6875 
L 12.5 54.6875 
L 29.59375 11.921875 
L 46.6875 54.6875 
L 56.203125 54.6875 
z
" id="DejaVuSans-121"/>
      <path d="M -0.296875 72.90625 
L 61.375 72.90625 
L 61.375 64.59375 
L 35.5 64.59375 
L 35.5 0 
L 25.59375 0 
L 25.59375 64.59375 
L -0.296875 64.59375 
z
" id="DejaVuSans-84"/>
      <path d="M 9.078125 75.984375 
L 18.109375 75.984375 
L 18.109375 31.109375 
L 44.921875 54.6875 
L 56.390625 54.6875 
L 27.390625 29.109375 
L 57.625 0 
L 45.90625 0 
L 18.109375 26.703125 
L 18.109375 0 
L 9.078125 0 
z
" id="DejaVuSans-107"/>
      <path d="M 9.421875 75.984375 
L 18.40625 75.984375 
L 18.40625 0 
L 9.421875 0 
z
" id="DejaVuSans-108"/>
      <path d="M 45.40625 27.984375 
Q 45.40625 37.75 41.375 43.109375 
Q 37.359375 48.484375 30.078125 48.484375 
Q 22.859375 48.484375 18.828125 43.109375 
Q 14.796875 37.75 14.796875 27.984375 
Q 14.796875 18.265625 18.828125 12.890625 
Q 22.859375 7.515625 30.078125 7.515625 
Q 37.359375 7.515625 41.375 12.890625 
Q 45.40625 18.265625 45.40625 27.984375 
z
M 54.390625 6.78125 
Q 54.390625 -7.171875 48.1875 -13.984375 
Q 42 -20.796875 29.203125 -20.796875 
Q 24.46875 -20.796875 20.265625 -20.09375 
Q 16.0625 -19.390625 12.109375 -17.921875 
L 12.109375 -9.1875 
Q 16.0625 -11.328125 19.921875 -12.34375 
Q 23.78125 -13.375 27.78125 -13.375 
Q 36.625 -13.375 41.015625 -8.765625 
Q 45.40625 -4.15625 45.40625 5.171875 
L 45.40625 9.625 
Q 42.625 4.78125 38.28125 2.390625 
Q 33.9375 0 27.875 0 
Q 17.828125 0 11.671875 7.65625 
Q 5.515625 15.328125 5.515625 27.984375 
Q 5.515625 40.671875 11.671875 48.328125 
Q 17.828125 56 27.875 56 
Q 33.9375 56 38.28125 53.609375 
Q 42.625 51.21875 45.40625 46.390625 
L 45.40625 54.6875 
L 54.390625 54.6875 
z
" id="DejaVuSans-103"/>
      <path d="M 2.984375 54.6875 
L 12.5 54.6875 
L 29.59375 8.796875 
L 46.6875 54.6875 
L 56.203125 54.6875 
L 35.6875 0 
L 23.484375 0 
z
" id="DejaVuSans-118"/>
     </defs>
     <use xlink:href="#DejaVuSans-77"/>
     <use x="86.279297" xlink:href="#DejaVuSans-97"/>
     <use x="147.558594" xlink:href="#DejaVuSans-116"/>
     <use x="186.767578" xlink:href="#DejaVuSans-114"/>
     <use x="227.880859" xlink:href="#DejaVuSans-105"/>
     <use x="255.664062" xlink:href="#DejaVuSans-120"/>
     <use x="314.84375" xlink:href="#DejaVuSans-32"/>
     <use x="346.630859" xlink:href="#DejaVuSans-67"/>
     <use x="416.455078" xlink:href="#DejaVuSans-111"/>
     <use x="477.636719" xlink:href="#DejaVuSans-112"/>
     <use x="541.113281" xlink:href="#DejaVuSans-121"/>
     <use x="600.292969" xlink:href="#DejaVuSans-32"/>
     <use x="632.080078" xlink:href="#DejaVuSans-84"/>
     <use x="676.664062" xlink:href="#DejaVuSans-97"/>
     <use x="737.943359" xlink:href="#DejaVuSans-115"/>
     <use x="790.042969" xlink:href="#DejaVuSans-107"/>
     <use x="847.953125" xlink:href="#DejaVuSans-32"/>
     <use x="879.740234" xlink:href="#DejaVuSans-108"/>
     <use x="907.523438" xlink:href="#DejaVuSans-101"/>
     <use x="969.046875" xlink:href="#DejaVuSans-97"/>
     <use x="1030.326172" xlink:href="#DejaVuSans-114"/>
     <use x="1069.689453" xlink:href="#DejaVuSans-110"/>
     <use x="1133.068359" xlink:href="#DejaVuSans-105"/>
     <use x="1160.851562" xlink:href="#DejaVuSans-110"/>
     <use x="1224.230469" xlink:href="#DejaVuSans-103"/>
     <use x="1287.707031" xlink:href="#DejaVuSans-32"/>
     <use x="1319.494141" xlink:href="#DejaVuSans-99"/>
     <use x="1374.474609" xlink:href="#DejaVuSans-117"/>
     <use x="1437.853516" xlink:href="#DejaVuSans-114"/>
     <use x="1478.966797" xlink:href="#DejaVuSans-118"/>
     <use x="1538.146484" xlink:href="#DejaVuSans-101"/>
     <use x="1599.669922" xlink:href="#DejaVuSans-115"/>
    </g>
   </g>
  </g>
 </g>
 <defs>
  <clipPath id="p08bf127ab4">
   <rect height="652.32" width="1116" x="180" y="103.68"/>
  </clipPath>
 </defs>
</svg>
