<svg viewBox="0 0 1324.8294677734375 400" xmlns="http://www.w3.org/2000/svg"><g><g><g><g><g><line x1="58" y1="378" x2="53" y2="378" style="visibility: inherit;" fill="rgb(0, 0, 0)" stroke="rgb(204, 204, 204)" stroke-width="1px"></line><line x1="58" y1="336" x2="53" y2="336" style="visibility: inherit;" fill="rgb(0, 0, 0)" stroke="rgb(204, 204, 204)" stroke-width="1px"></line><line x1="58" y1="294" x2="53" y2="294" style="visibility: inherit;" fill="rgb(0, 0, 0)" stroke="rgb(204, 204, 204)" stroke-width="1px"></line><line x1="58" y1="252" x2="53" y2="252" style="visibility: inherit;" fill="rgb(0, 0, 0)" stroke="rgb(204, 204, 204)" stroke-width="1px"></line><line x1="58" y1="210" x2="53" y2="210" style="visibility: inherit;" fill="rgb(0, 0, 0)" stroke="rgb(204, 204, 204)" stroke-width="1px"></line><line x1="58" y1="168" x2="53" y2="168" style="visibility: inherit;" fill="rgb(0, 0, 0)" stroke="rgb(204, 204, 204)" stroke-width="1px"></line><line x1="58" y1="126" x2="53" y2="126" style="visibility: inherit;" fill="rgb(0, 0, 0)" stroke="rgb(204, 204, 204)" stroke-width="1px"></line><line x1="58" y1="84" x2="53" y2="84" style="visibility: inherit;" fill="rgb(0, 0, 0)" stroke="rgb(204, 204, 204)" stroke-width="1px"></line><line x1="58" y1="42" x2="53" y2="42" style="visibility: inherit;" fill="rgb(0, 0, 0)" stroke="rgb(204, 204, 204)" stroke-width="1px"></line><line x1="58" y1="0" x2="53" y2="0" style="visibility: inherit;" fill="rgb(0, 0, 0)" stroke="rgb(204, 204, 204)" stroke-width="1px"></line></g><g transform="translate(48, 0)"><text x="0" y="378" dx="0em" dy="0.3em" style="text-anchor: end; visibility: hidden; font-family: &quot;Helvetica Neue&quot;, sans-serif; font-size: 12px; font-weight: 200;" fill="rgb(50, 49, 63)" stroke="none" stroke-width="1px">-100</text><text x="0" y="336" dx="0em" dy="0.3em" style="text-anchor: end; visibility: inherit; font-family: &quot;Helvetica Neue&quot;, sans-serif; font-size: 12px; font-weight: 200;" fill="rgb(50, 49, 63)" stroke="none" stroke-width="1px">0</text><text x="0" y="294" dx="0em" dy="0.3em" style="text-anchor: end; visibility: inherit; font-family: &quot;Helvetica Neue&quot;, sans-serif; font-size: 12px; font-weight: 200;" fill="rgb(50, 49, 63)" stroke="none" stroke-width="1px">100</text><text x="0" y="252" dx="0em" dy="0.3em" style="text-anchor: end; visibility: inherit; font-family: &quot;Helvetica Neue&quot;, sans-serif; font-size: 12px; font-weight: 200;" fill="rgb(50, 49, 63)" stroke="none" stroke-width="1px">200</text><text x="0" y="210" dx="0em" dy="0.3em" style="text-anchor: end; visibility: inherit; font-family: &quot;Helvetica Neue&quot;, sans-serif; font-size: 12px; font-weight: 200;" fill="rgb(50, 49, 63)" stroke="none" stroke-width="1px">300</text><text x="0" y="168" dx="0em" dy="0.3em" style="text-anchor: end; visibility: inherit; font-family: &quot;Helvetica Neue&quot;, sans-serif; font-size: 12px; font-weight: 200;" fill="rgb(50, 49, 63)" stroke="none" stroke-width="1px">400</text><text x="0" y="126" dx="0em" dy="0.3em" style="text-anchor: end; visibility: inherit; font-family: &quot;Helvetica Neue&quot;, sans-serif; font-size: 12px; font-weight: 200;" fill="rgb(50, 49, 63)" stroke="none" stroke-width="1px">500</text><text x="0" y="84" dx="0em" dy="0.3em" style="text-anchor: end; visibility: inherit; font-family: &quot;Helvetica Neue&quot;, sans-serif; font-size: 12px; font-weight: 200;" fill="rgb(50, 49, 63)" stroke="none" stroke-width="1px">600</text><text x="0" y="42" dx="0em" dy="0.3em" style="text-anchor: end; visibility: inherit; font-family: &quot;Helvetica Neue&quot;, sans-serif; font-size: 12px; font-weight: 200;" fill="rgb(50, 49, 63)" stroke="none" stroke-width="1px">700</text><text x="0" y="0" dx="0em" dy="0.3em" style="text-anchor: end; visibility: hidden; font-family: &quot;Helvetica Neue&quot;, sans-serif; font-size: 12px; font-weight: 200;" fill="rgb(50, 49, 63)" stroke="none" stroke-width="1px">800</text></g><line x1="58" y1="0" x2="58" y2="378" fill="rgb(0, 0, 0)" stroke="rgb(204, 204, 204)" stroke-width="1px"></line></g></g><g transform="translate(58, 0)" clip-path="url(#clip_0)"><clipPath id="clip_0"><rect width="1266" height="377"></rect></clipPath><g><g><g><line x1="0" y1="0" x2="0" y2="378" fill="rgb(0, 0, 0)" stroke="rgb(60, 60, 60)" stroke-width="1px" opacity="0.25"></line><line x1="105.56916666666666" y1="0" x2="105.56916666666666" y2="378" fill="rgb(0, 0, 0)" stroke="rgb(60, 60, 60)" stroke-width="1px" opacity="0.25"></line><line x1="211.13833333333332" y1="0" x2="211.13833333333332" y2="378" fill="rgb(0, 0, 0)" stroke="rgb(60, 60, 60)" stroke-width="1px" opacity="0.25"></line><line x1="316.7075" y1="0" x2="316.7075" y2="378" fill="rgb(0, 0, 0)" stroke="rgb(60, 60, 60)" stroke-width="1px" opacity="0.25"></line><line x1="422.27666666666664" y1="0" x2="422.27666666666664" y2="378" fill="rgb(0, 0, 0)" stroke="rgb(60, 60, 60)" stroke-width="1px" opacity="0.25"></line><line x1="527.8458333333333" y1="0" x2="527.8458333333333" y2="378" fill="rgb(0, 0, 0)" stroke="rgb(60, 60, 60)" stroke-width="1px" opacity="0.25"></line><line x1="633.415" y1="0" x2="633.415" y2="378" fill="rgb(0, 0, 0)" stroke="rgb(60, 60, 60)" stroke-width="1px" opacity="0.25"></line><line x1="738.9841666666666" y1="0" x2="738.9841666666666" y2="378" fill="rgb(0, 0, 0)" stroke="rgb(60, 60, 60)" stroke-width="1px" opacity="0.25"></line><line x1="844.5533333333333" y1="0" x2="844.5533333333333" y2="378" fill="rgb(0, 0, 0)" stroke="rgb(60, 60, 60)" stroke-width="1px" opacity="0.25"></line><line x1="950.1225" y1="0" x2="950.1225" y2="378" fill="rgb(0, 0, 0)" stroke="rgb(60, 60, 60)" stroke-width="1px" opacity="0.25"></line><line x1="1055.6916666666666" y1="0" x2="1055.6916666666666" y2="378" fill="rgb(0, 0, 0)" stroke="rgb(60, 60, 60)" stroke-width="1px" opacity="0.25"></line><line x1="1161.2608333333333" y1="0" x2="1161.2608333333333" y2="378" fill="rgb(0, 0, 0)" stroke="rgb(60, 60, 60)" stroke-width="1px" opacity="0.25"></line><line x1="1266.83" y1="0" x2="1266.83" y2="378" fill="rgb(0, 0, 0)" stroke="rgb(60, 60, 60)" stroke-width="1px" opacity="0.25"></line></g><g><line x1="0" y1="378" x2="1266.83" y2="378" fill="rgb(0, 0, 0)" stroke="rgb(60, 60, 60)" stroke-width="1px" opacity="0.25"></line><line x1="0" y1="336" x2="1266.83" y2="336" fill="rgb(0, 0, 0)" stroke="rgb(60, 60, 60)" stroke-width="1px" opacity="0.25"></line><line x1="0" y1="294" x2="1266.83" y2="294" fill="rgb(0, 0, 0)" stroke="rgb(60, 60, 60)" stroke-width="1px" opacity="0.25"></line><line x1="0" y1="252" x2="1266.83" y2="252" fill="rgb(0, 0, 0)" stroke="rgb(60, 60, 60)" stroke-width="1px" opacity="0.25"></line><line x1="0" y1="210" x2="1266.83" y2="210" fill="rgb(0, 0, 0)" stroke="rgb(60, 60, 60)" stroke-width="1px" opacity="0.25"></line><line x1="0" y1="168" x2="1266.83" y2="168" fill="rgb(0, 0, 0)" stroke="rgb(60, 60, 60)" stroke-width="1px" opacity="0.25"></line><line x1="0" y1="126" x2="1266.83" y2="126" fill="rgb(0, 0, 0)" stroke="rgb(60, 60, 60)" stroke-width="1px" opacity="0.25"></line><line x1="0" y1="84" x2="1266.83" y2="84" fill="rgb(0, 0, 0)" stroke="rgb(60, 60, 60)" stroke-width="1px" opacity="0.25"></line><line x1="0" y1="42" x2="1266.83" y2="42" fill="rgb(0, 0, 0)" stroke="rgb(60, 60, 60)" stroke-width="1px" opacity="0.25"></line><line x1="0" y1="0" x2="1266.83" y2="0" fill="rgb(0, 0, 0)" stroke="rgb(60, 60, 60)" stroke-width="1px" opacity="0.25"></line></g></g></g><g><g><line x1="0" y1="336" x2="1266.83" y2="336" fill="rgb(0, 0, 0)" stroke="rgb(153, 153, 153)" stroke-width="1.5px"></line></g></g><g><g><line x1="105.56916666666666" y1="0" x2="105.56916666666666" y2="378" fill="rgb(0, 0, 0)" stroke="rgb(153, 153, 153)" stroke-width="1.5px"></line></g></g><g><g><g><g><g><path stroke="rgb(0, 119, 187)" stroke-width="2px" d="M106.51928916666665,101.48288452148438L107.78611916666665,92.68131591796873L107.94447291666665,91.7337974330357L109.31687208333334,91.85448163200829L110.53091749999999,90.96082732667196L113.75077708333333,88.04376103221915L113.90913083333334,88.31970541715953L114.38419208333333,85.78070911211688L117.65683625,85.0357653181461L117.92075916666667,84.13545579315587L119.02923541666667,83.94260751944017L119.66265041666666,83.3427078794744L119.97935791666667,82.29676255675292L121.82681833333332,81.6816458154592L121.93238749999999,81.6804444439399L122.35466416666665,82.14023378033289L123.88541708333332,81.35162201694726L124.94110875,81.33441384531966L127.79147625,81.51082507260679L129.85007499999998,81.84286411703141L130.58905916666666,82.76576508303924L133.86170333333334,82.95887858380382L135.2868870833333,82.45197939714626L136.13144041666666,82.85430917358588L136.50093249999998,84.68784462319559L136.5537170833333,82.96958958507577L138.29560833333332,83.81169064808398L139.0345925,82.89668130741717L139.72079208333332,82.03188639549842L140.45977625,81.80942963968221L140.98762208333332,82.57858659677117L143.25735916666665,82.11364020230917L143.67963583333332,83.14440389716901L144.1019125,81.76641622460164L145.94937291666665,83.05513784285256L146.16051124999998,84.33042256261535L146.26608041666665,85.38773743083124L147.00506458333334,83.21551940355795L147.11063375,82.83730627019844L147.48012583333332,82.70804684788374L147.9024025,83.37754978895475L148.21911,83.67889657273662L149.69707833333334,83.63146294362826L155.45059791666665,84.7842117507517L156.82299708333332,85.72003730445454L156.87578166666665,85.33037003889842L157.19248916666666,84.61058579284344L157.50919666666667,85.95168741323613L158.45931916666666,88.64938354172807L158.61767291666666,87.51960571096515L159.09273416666665,90.23528979377971L161.67917874999998,87.35207914969692L161.83753249999998,85.25715471637699L162.4709475,86.04357798607703L163.26271624999998,84.88948028773927L163.57942375,87.03702557498815L163.84334666666666,85.09954054030493L166.588145,87.91023311324585L166.85206791666667,86.41006271950982L166.9048525,88.0302886082685L167.854975,86.92637726652356L168.54117458333332,86.2685114185079L171.23318833333332,87.4246337065735L172.13052624999997,89.12176459894408L175.0336783333333,93.37275114217897L175.19203208333334,92.76264824390114L175.93101625,88.79731160259064L176.14215458333334,86.92645727405443L178.67581458333333,87.05418295818265L179.04530666666668,86.87598829053456L180.20656749999998,86.8039655329145L180.83998249999996,87.9238729720924L181.3678283333333,87.38477983794297L182.9513658333333,88.19474973870336L183.53199625,90.2826789447845L184.27098041666665,89.39689203483942L185.9600870833333,90.11559664668488L187.49084,92.8366704880109L188.33539333333331,90.75946176546279L189.17994666666667,93.31031182490267L189.39108499999998,91.62093123556656L190.28842291666666,92.58671694446497L192.13588333333334,88.98486073308521L194.35283583333333,90.80645647891362L194.8278970833333,89.59835533266073L195.4085275,89.52457667615886L195.7780195833333,88.51611416975783L196.25308083333334,88.24763139247966L196.992065,87.7640358667378L197.09763416666664,87.80155237941767L197.25598791666667,91.02680838077566L199.57850958333333,88.02493170815285L201.95381583333332,86.76558109520425L202.90393833333334,87.22398195790379L203.37899958333333,87.82237940911722L204.06519916666664,88.09605411031407L204.22355291666668,95.65686293493843L204.64582958333332,95.12958992893186L206.75721291666667,96.4117383323591L207.6545508333333,95.00115969863424L208.18239666666665,94.01340089730553L208.34075041666668,98.36948585088328L211.19111791666663,94.20140830740496L211.82453291666664,90.61193531647422L213.0385783333333,89.52249419769703L215.14996166666666,90.0780111670557L215.20274625,95.35563189554591L215.62502291666664,100.56289573889L215.83616124999998,97.81859486520898L216.20565333333332,94.71426775896913L219.00323625,92.65585264756902L219.37272833333333,90.64735143229137L221.00905041666664,92.58186349609355L221.22018874999998,91.40739739453113L221.64246541666665,89.49462300703118L222.06474208333333,89.00189587453121L222.27588041666664,91.41306525909368L223.33157208333333,92.08201835467497L223.59549499999997,90.67286823936752L223.64827958333333,89.267760982683L224.70397125,92.0387884255473L224.96789416666667,95.58754942251585L225.97080125,93.4462899074158L226.81535458333332,91.00186867101195L227.34320041666666,91.39723301901347L227.97661541666665,90.32790914734557L229.34901458333331,92.48564148450106L229.82407583333332,91.74054309382564L231.67153625,93.0876510516079L231.72432083333334,95.76471074815225L231.82988999999998,100.52947781607884L234.15241166666664,100.4351720412098L234.57468833333334,106.14542646691336L235.04974958333332,109.66142384889798L235.15531875,103.9431492312138L235.41924166666664,102.14897449966583L236.73885625,100.71717180917449L236.79164083333333,104.60363902300469L237.31948666666665,98.98043634349028L237.42505583333332,98.16666903265667L237.68897874999996,95.59640425162524L238.42796291666667,94.74752223847514L238.74467041666665,94.85715982746007L239.21973166666663,98.11808007616355L240.01150041666665,106.23882949101062L240.32820791666666,103.47747152273138L243.12579083333333,98.63060498395134L247.29577291666666,95.86983369349576L248.24589541666666,94.53135480594125L250.198925,96.07724257106474L250.93790916666666,94.51177376529512L252.78536958333333,96.15794316542707L257.16649,95.90043093831872L258.43332,97.15890162939752L262.18102541666667,94.8842418565448L262.60330208333335,95.31546894205178L264.5035470833333,96.51120714648113L265.9287308333333,95.44217350663865L266.0870845833333,100.34462002195193L269.14859041666665,100.30567728660861L272.42123458333333,97.66117736805893L273.2657879166667,97.69082116692914L274.21591041666665,99.50909084468873L274.268695,99.45961319821947L276.06337083333335,97.84847690330668L276.59121666666664,98.1554430755777L276.74957041666664,96.99851438050285L276.802355,101.76826390173926L276.90792416666665,107.58643783323106L276.96070875,102.43537051243868L280.0222145833333,107.92946449496321L282.13359791666664,105.03469432197795L283.76992,113.45992499162429L285.19510375,106.90540616684956L285.45902666666666,103.42167241104727L286.6202875,112.16347927670648L287.6231945833333,110.47505143321143L288.4149633333333,108.35492148492682L289.2595166666666,116.46145582064361L290.7902695833333,109.5626693908236L290.94862333333333,105.60127204465044L292.26823791666664,101.22333256272776L295.59366666666665,100.47129055326167L296.54378916666667,99.88325773039452L296.6493583333333,100.69300541948667L296.7549275,107.95397903294202L297.07163499999996,118.1441283865621L298.5496033333333,109.85110544990596L299.28858749999995,104.87755780119352L302.2445241666667,103.78243458305991L302.45566249999996,104.62797832796093L303.03629291666664,105.5017689303703L305.78109125,103.81221467853464L306.8895675,102.77085810399575L307.15349041666667,102.77032247958499L307.2590595833333,100.99851575337601L307.7869054166666,102.58293904186934L309.52879666666666,101.29654955793416L310.1622116666666,103.26756401210423L312.90700999999996,102.29798030179381L314.3849783333333,103.3261343724825L315.86294666666663,107.16200484223953L317.86876083333334,102.74098415534371L318.44939125,104.25057584476872L318.60774499999997,108.06350810451744L321.61646625000003,104.4051810345855L321.88038916666665,102.94527707778252L322.4610195833333,114.070721910732L326.3142941666666,111.62786674018923L326.94770916666664,110.42500227067603L327.0532783333333,116.97058583506191L327.31720125,110.44959515338093L327.3699858333333,119.17422242405979L328.6896004166667,116.31402173568586L328.9535233333333,110.74599067813023L329.1118770833333,109.06260319594065L329.53415375,106.30965273787695L330.58984541666666,105.05399086147617L330.74819916666667,116.7238574075107L331.59275249999996,114.82761180778766L332.7540133333333,113.5107697213914L333.4402129166666,108.9341122234598L333.5457820833333,105.20231743173218L336.18501125,104.24715266607052L337.45184125,111.25288510550172L337.8213333333333,110.04786582892598L338.1380408333333,106.7333845364181L339.40487083333335,104.93415718669462L339.56322458333335,107.96199724170424L342.677515,104.42370127471003L343.57485291666666,105.728953186701L344.6833291666667,116.87140023233309L347.2169891666667,115.13984697533738L347.3753429166666,118.58654783363994L349.85621833333335,112.23984373924651L351.33418666666665,123.2550527279229L351.75646333333333,115.60124062112874L351.9676016666666,120.3607722047085L352.38987833333334,120.5012567798563L354.34290791666666,114.20031705619505L354.6068308333333,108.900647264967L356.2959375,121.62689958944895L356.71821416666666,114.10068174585689L357.1932754166666,114.25885582485785L358.30175166666663,111.09243361210218L358.93516666666665,111.26290547976134L359.0407358333333,109.83220910816931L361.04654999999997,110.8993313242766L361.6799649999999,108.36159098206599L363.8969175,111.99368798767705L367.48626916666666,121.47013857385622L367.9613304166666,132.70438734353246L368.1196841666667,133.67763728893198L372.1313125,128.78605258820292L372.23688166666665,122.80237959979675L372.28966625,123.5465122325343L375.0872491666666,126.04714147037993L376.5652175,132.0400834662123L380.049,129.98985818519614L382.10759874999997,135.5876658876802L386.85821125,139.88533146620185L387.7027645833333,143.2676627469086L388.44174874999993,145.77405785322327L391.6616083333333,145.60539564943397L392.82286916666664,151.79016072950412L395.62045208333336,155.45817383028063L396.67614374999994,156.05787011848088L396.7817129166666,157.97203652421356L398.4708195833333,158.6145060942156L399.7376495833333,165.0571035588731L400.47663374999996,170.72524748688633L402.74637083333334,175.7524597714287L404.22433916666665,179.04306888043536L404.3299083333333,178.4006477247456L404.54104666666666,177.91106148640986L405.3328154166667,179.62999260473654L407.4969833333333,182.33979780893566L407.6553370833333,180.68945021856453L410.45292,181.593184291295L412.08924208333326,182.71654436383946L412.1420266666666,182.94303892299118L413.03936458333334,185.04976720145095L413.1977183333333,187.48013986188622L414.99239416666666,188.99258611439734L415.0979633333333,190.7909029869978L415.46745541666667,190.04471317891745L417.36770041666665,193.5545405538348L418.4761766666666,191.95341915651963L419.74300666666664,197.20240940406805L420.0069295833333,195.8450682010346L420.32363708333327,199.62082461202698L421.74882083333335,197.68716029455993L422.8045125,199.73440921384534L423.06843541666666,201.53336281346347L423.8602041666667,202.51538438729685L424.1241270833333,202.10203702886247L426.3938641666667,201.55178447317687L427.71347875,205.60143518585926L427.81904791666665,205.49931057440617L428.66360124999994,203.9155716962062L429.1914470833333,208.11859814467684L431.83067624999995,212.39393452157174L432.8335833333333,211.9856112012243L433.51978291666666,209.72202297073457L433.8364904166666,212.56499796212827L434.52269,212.8753801249332L437.53141124999996,212.58859160035055L438.74545666666666,213.97105168872596L439.0093795833333,216.29594717534496L440.27620958333335,215.70956317825386L440.8568399999999,217.51766173507733L441.4374704166666,219.7494612988589L442.12366999999995,223.64983608107315L443.3905,223.03574393380015L448.40503541666664,225.83779389445976L448.45781999999997,226.4910518249571L448.6689583333333,232.56622130493523L449.72464999999994,231.87579455053924L452.5750175,230.98368595883917L453.10286333333335,231.66162710264726L454.10577041666664,232.57358893248679L456.95613791666665,235.44068412121084L457.4311991666666,237.4239359854218L457.74790666666667,236.60211684027652L458.0646141666666,236.91434920572843L458.2229679166667,236.1605799824214L458.59245999999996,239.0146648839841L459.01473666666664,237.65513267062485L459.17309041666664,238.85607215608584L459.80650541666665,242.09691526630775L461.2316891666666,240.41584496056592L461.4428275,241.7488796570036L462.02345791666664,242.41053165162404L466.19343999999995,246.72585829761508L466.93242416666664,244.52934090630342L467.3547008333333,247.03051836214144L468.14646958333327,245.27128245283174L471.5774675,243.4836889052928L473.10822041666665,245.70627169278507L473.2665741666666,247.63352253715541L474.6389733333333,249.43730724787918L475.80023416666666,248.97315058407906L479.86464708333335,250.88539083872868L480.6564158333333,253.6979462952294L481.07869249999993,255.76179023807515L482.2927379166666,255.26753764382164L483.24286041666664,257.3775266146133L485.35424374999997,259.475611671893L486.46272,262.752254576378L488.0990420833333,262.4479331901627L490.896625,263.8503814961289L491.47725541666665,262.85634742795077L492.4273779166666,261.2080120700517L492.95522374999996,260.30390294515604L493.0080083333333,260.9874252631874L494.01091541666665,262.31070540205303L495.22496083333334,263.2118934560756L496.22786791666664,263.6034939838016L498.2864666666666,265.0699689488747L498.4448204166667,264.83561833221546L498.81431249999997,266.5072551546027L499.3421583333333,266.3364085126835L499.50051208333326,267.9197785792898L500.29228083333334,267.9148825284332L502.03417208333326,268.3883695805365L503.0370791666667,269.5775254104313L507.2070612499999,271.6394973019228L509.05452166666663,273.26649550029435L509.9518595833333,273.2929724954891L510.74362833333333,275.09889848752783L511.32425875,275.1349534723995L511.64096624999996,277.1831428598069L512.9605808333333,277.90207333795445L513.2245037499999,277.45029600472583L513.4884266666667,273.6483174954136L514.4385491666667,273.36447853435754L515.0191795833333,275.23850926416924L515.1775333333334,274.1331388836968L516.233225,276.3365345753353L516.6555016666666,276.74309554988866L517.1833475,278.42816738852696L519.0308079166666,277.70619523292083L519.2947308333332,276.0136041026431L522.5145904166666,277.6225751813124L522.567375,279.36499628066247L524.2564816666667,279.44610494613187L526.9484954166667,282.16433105849944L527.3707720833333,283.8840283836348L529.2182325,284.13230222305197L529.7988629166666,285.3811504988703L530.4322779166666,283.34326573877524L531.3296158333333,285.4362110912144L534.4966908333333,286.14023098822474L537.3470583333333,286.2144356510403L537.5581966666666,286.15935456689374L538.2971808333333,287.7931924520503L539.1945187499999,287.77595288578095L539.5112262499999,289.671047683617L541.72817875,290.47047931817804L542.5727320833333,290.6996097344615L543.1533625,289.5542435628449L544.0507004166666,287.7967685498163L545.1063920833333,286.6604445527413L545.370315,288.5694251789104L545.4758841666666,291.24683046135016L545.7925916666667,292.08409607954445L546.8482833333333,291.90143683473843L547.0066370833333,293.9682187902962L547.2705599999999,293.73296362281053L547.74562125,293.94746597886206L552.49623375,294.489736911536L552.5490183333333,294.2986819906716L552.6545875,295.67284573004747L554.1325558333333,296.55561435941524L554.3964787499999,295.94868770744597L554.6604016666666,294.6914011010301L557.7219074999999,294.9549779897196L559.0943066666666,296.436459938363L559.5693679166666,296.78088463001L561.3112591666667,298.12640364177554L561.36404375,299.659655722663L561.839105,299.19390817969156L563.8449191666666,300.7127128277368L564.2671958333333,299.99498060191553L564.5311187499999,300.9968401677899L566.2202254166666,302.2683819327052L568.7011008333333,301.5313630219278L568.9122391666666,302.78144867253167L570.1262845833334,301.9965748919956L571.0764070833333,301.2620355113692L571.2347608333333,301.3619375543801L572.3432370833333,301.86356579190544L572.9238674999999,303.1225267432097L574.1906974999999,303.1380621885039L574.5601895833333,304.5196278404461L575.4575275,306.1047223219434L575.5630966666666,306.18059529502153L575.7214504166667,306.14918273853635L576.8299266666666,305.90430706743825L577.19941875,307.4666693845059L578.4134641666667,307.2997192820707L579.3108020833333,308.10670269351L580.2609245833333,308.3067461034107L580.5776320833332,307.6435634091167L581.1054779166666,307.82015196148564L582.108385,307.7333214015008L583.53356875,308.6568469973946L583.9558454166666,309.10830729511645L585.0643216666666,309.0659702169136L588.8120270833333,308.28247617311695L592.0318866666667,309.89300370924127L592.5597325,310.90269938130643L592.9292245833333,311.147995849487L594.3544083333334,310.82898885490704L595.4628845833333,309.13599878169424L596.83528375,309.2465892897685L597.310345,310.8851064669275L598.9994516666666,311.16945920486353L600.1079279166667,311.9850018168634L602.377665,313.16977742678796L602.53601875,313.86466272072124L603.5917104166666,313.95170202086047L603.9612025,314.0379333218913L605.3336016666666,313.8512783952344L609.0285225,314.70910694192577L609.50358375,315.0780960621281L609.8730758333332,314.6055327166226L610.5592754166667,314.90685829574505L611.72053625,315.4279788690486L612.3011666666666,316.4335422652768L612.8817970833333,316.2917526479844L613.7263504166666,317.3493812396696L614.9931804166666,317.31312221304L615.3098879166666,317.7790188661541L616.5239333333333,317.01081848521983L617.4740558333333,317.2655363181827L620.6939154166666,316.25719672987447L621.1689766666666,318.07292170613755L623.4914983333333,317.6797040124521L624.9694666666667,317.9577850539556L625.1278204166666,318.56126038784214L627.2392037499999,319.49114026590837L628.5060337499999,317.8614729168693L631.9370316666666,319.1490449439692L636.0542291666666,319.239174036694L636.3181520833333,319.6712258575633L636.4765058333332,319.751784556286L637.2154899999999,320.570508569465L637.848905,319.4853856165325L639.0629504166667,320.9780713509986L639.3796579166666,321.64303943535504L640.1714266666665,322.23480493867885L641.01598,322.58282172968677L642.2828099999999,321.3926404255074L643.1801479166666,322.43393053826344L646.3472229166667,322.36012968526273L646.9278533333334,321.9526391514897L647.9835449999999,322.731517359302L648.3530370833332,321.97864418022965L648.61696,321.42273289485655L654.317695,322.4782164733641L654.47604875,323.09151502806145L655.5845249999999,323.7033634540927L655.8484479166666,324.343082861274L658.1181849999999,324.582349167448L658.6988154166665,324.32964225803715L659.22666125,324.0558892824346L659.4377995833333,324.0621561127957L660.9685525,324.10219709480145L661.4436137499999,323.637124455001L662.6576591666667,323.2042110743678L662.7104437499999,322.6929642056558L663.34385875,322.89307564253414L664.9801808333333,323.63542964455365L665.4552420833334,324.13283095262574L666.35258,323.64170974100904L666.6165029166666,325.1108979454355L667.0915641666666,325.64647995988827L667.5138408333333,325.5412384703177L667.9361174999999,325.79408916678534L668.8334554166665,325.56347884491987L670.4169929166666,325.59412362286986L670.94483875,324.90946999281374L672.8978683333333,324.7656023753269L673.3729295833333,324.9088187005868L673.4257141666666,325.28261601893604L674.5869749999999,325.0731416786224L674.9564670833333,325.03737998703184L676.4344354166666,324.57600475918684L676.96228125,324.8927093618598L677.2262041666665,325.21889694890297L677.8068345833333,325.6482582132871L678.2818958333332,325.660763033441L679.02088,325.4183679763146L681.0266941666666,325.33545157192157L681.1850479166667,325.0819812855602L682.97972375,326.01861626157046L683.1908620833332,326.2554993925624L684.4049074999999,326.7944227587064L684.7216149999999,326.6886216422844L684.8271841666666,326.4662400324898L686.9385675,326.529932160363L687.255275,326.514765921584L687.3608441666665,327.0191776376672L687.9414745833333,326.79050057063745L688.2053975,326.6039249761715L688.9443816666666,324.5933054556736L689.4194429166665,325.57488021554286L690.26399625,325.275987714897L691.5836108333334,326.490253883821L692.5865179166666,327.01018312252893L693.0615791666667,327.1588766887029L694.0117016666666,328.3015475937271L695.4368854166667,328.61960319307707L696.6509308333334,328.3975665423111L696.7565,328.6765570304892L696.8092845833332,328.3549518269361L699.9235749999999,328.3199052697456L700.08192875,326.7734581764958L700.55699,327.1844245152725L702.5628041666666,327.45240101653656L705.2548179166666,327.43391531084967L707.8940470833334,327.1684904828965L708.3163237499999,326.98552919574377L710.21656875,327.3963070346582L711.1139066666666,327.6928163252871L712.1695983333333,327.44479386011363L713.6475666666666,326.50014459609747L713.8059204166666,327.36163061141826L714.1754124999999,327.28567660903843L714.2809816666665,327.94581200180005L715.1783195833334,327.70082382522554L715.60059625,327.71130816842634L716.0756575,328.1034032787413L716.86742625,328.8492137125451L717.7119795833333,329.26174713011494L719.7705783333333,329.43528396532486L720.4039933333332,329.71866870072813L721.0374083333334,329.7672400998314L721.61803875,330.0889025315785L722.3570229166666,329.90464339882993L722.4625920833332,329.6825065135411L724.3628370833334,328.7995971851022L726.2630820833333,329.4401980006976L727.6882658333333,329.4208102905919L728.4800345833333,329.24478912235315L730.0635720833333,328.8250342247547L731.3304020833333,329.2810609859026L732.2805245833333,329.1833744455455L734.0224158333333,329.8092062774347L735.4475995833333,329.75517693418544L736.1337991666666,329.8408808034556L736.2393683333333,330.2022995392023L736.2921529166666,330.193196663829L737.3478445833333,329.91137197778954L737.6117675,329.73080737093886L738.3507516666666,329.91937206447005L738.8785975000001,330.03826732742715L739.1425204166666,329.93813065402463L739.5120125,329.9123289005325L740.5149195833333,329.869520707629L741.1483345833333,329.5854315865647L742.9957949999999,329.6451392162211L746.2684391666666,328.77410544135375L747.0602079166665,329.00395863376974L747.6408383333332,328.8357662935431L747.8519766666667,328.97897076245397L748.6965299999999,329.1650904500261L750.4384212499999,328.8842263891563L750.9134825,328.938983877317L753.2360041666667,329.00204093063826L754.2916958333334,329.3610018716154L754.4500495833332,328.7995636473833L755.2946029166666,327.8264958178245L756.13915625,328.491559432223L759.8868616666666,329.4067162760941L760.3619229166667,330.03809910159396L761.998245,330.4749925023382L763.0011520833333,330.92829948699864L763.1595058333334,331.23568080303903L764.3207666666667,329.83760181068084L767.7517645833333,329.8096788232249L768.17404125,329.8724395876361L769.2825174999999,330.3212552564879L770.4437783333333,330.70225455770134L771.9745312499999,330.8957530947282L774.4026220833333,331.17090664504497L775.8805904166666,331.4412942159088L778.9948808333332,331.51438570618103L779.8394341666667,331.60525091528575L781.4757562499999,331.398356313942L783.0065091666665,330.9931231328476L784.32612375,331.1236512692349L784.5900466666666,331.1983603782402L785.2762462499999,331.3877675239412L785.9624458333333,331.04478005171825L786.2791533333333,330.92339163637763L788.4961058333332,330.61516767225623L788.5488904166666,331.3356641104338L789.6045820833333,331.73890817085015L792.6660879166666,331.60714330338897L793.5634258333332,330.84803859128635L794.9886095833333,330.65290289720343L795.0413941666667,330.2252694330242L795.4636708333333,330.2335181127564L796.0970858333333,330.7082809573755L796.7305008333333,330.71879764547026L797.5222695833332,330.9948094252948L797.7334079166666,330.8052679641369L798.6307458333332,331.0900672421052L799.5808683333332,331.2094971934076L800.5309908333334,330.95703848022913L801.3227595833333,331.23225328528105L801.8506054166666,331.5030047726823L802.0089591666666,331.2816420207139L802.6423741666667,331.58149146853185L802.6951587499999,332.09759684263645L802.9062970833332,331.8771578675447L804.3842654166666,331.95871758734813L805.7566645833332,332.14150246403L807.4985558333333,331.1923766599976L808.2903245833332,331.29973781698243L810.1905695833333,331.5357935263711L812.9881525,331.59793690836415L813.1992908333333,331.55008395287985L814.2549825,331.43357759340756L816.8414270833333,331.22646273341275L818.37218,331.4730204089075L820.5891325,331.93109690568383L823.2811462499999,331.7376832746359L824.072915,331.86093595355106L824.4951916666666,331.8106956129632L824.8118991666666,331.51405863364704L827.4511283333333,331.9052486720095L827.6094820833333,332.06584489717545L827.7678358333333,331.8975239976314L828.4540354166666,331.85432135200904L829.8792191666666,331.7018119274164L831.19883375,331.5716194059005L831.5683258333332,331.77633530626L832.7295866666666,331.13084702115833L833.8380629166666,331.70678229106414L834.5242624999998,331.9566966176805L836.3717229166666,332.26839802126744L837.5857683333332,332.2991890660564L837.7441220833333,332.17397025726075L838.4303216666667,332.1362195872178L838.6414599999999,332.3947764758414L841.2279045833333,332.12697414661324L841.2806891666667,331.73908220830486L842.28359625,331.8374748376782L842.44195,331.21670270656205L842.91701125,331.7802411445061L842.9697958333333,332.1802899503755L843.2865033333333,331.9593814744978L844.342195,332.23844036235977L844.4477641666666,332.58580114826304L848.7761,332.5582395085379L849.0928074999999,332.34735927824283L853.0516512499998,331.96018229057853L854.5296195833333,331.97645097285783L856.2187262499999,331.90768872946666L856.5354337499999,331.69324995643L857.7494791666667,331.9788829572564L859.70250875,332.29839965960775L859.7552933333333,332.13748585594533L860.0720008333332,332.1368284200003L860.5470620833332,331.94333800353826L861.4444,331.4450366079701L862.077815,331.949214606994L862.3945224999999,332.1788347181759L863.4502141666666,332.16001201254613L863.6613524999999,332.65064437641195L864.9281824999999,332.9799104677051L865.5088129166666,332.80824025645313L868.1480420833333,332.4754274226097L869.4148720833332,332.19603002076553L870.6289175,331.98652135566L872.5291624999999,332.57117345640137L873.7959924999999,332.789016974384L873.9015616666666,332.8684880807486L873.95434625,332.5518819796137L877.1214212499999,332.38046859664274L877.9131899999999,332.1917341685447L878.2298975,332.80239870501475L879.8134349999999,332.45589932127547L880.28849625,333.04707146456093L880.4996345833333,333.55538090974244L880.8163420833332,333.6088235966572L881.6608954166667,333.66953774167354L883.9306324999999,333.75853488179L884.5640475,333.2105100816009L885.67252375,333.4887202831219L885.7253083333334,333.45524373984995L885.9364466666666,333.34717232880985L886.1475849999999,333.00275015937086L886.3587233333333,332.7511373240161L887.2560612499999,332.7447070831304L887.57276875,332.3422523657229L887.7839070833334,332.47769005773944L889.2090908333332,332.71848695181893L890.6342745833333,327.6725051959937L891.6371816666666,326.80392160514504L893.3262883333333,325.76059704267686L893.3790729166666,326.1269202373249L893.4318575,324.2790472839965L894.6986875,323.49532491580806L898.1296854166667,324.3880522492895L898.7631004166666,326.6826458103281L902.0885291666666,328.65839012901915L904.3054816666667,329.915833882099L904.5166199999999,328.9456200192008L906.8391416666666,329.61144608531197L907.8420487499999,330.11872501965644L909.7950783333332,330.5361950490253L911.3786158333334,329.92875708373646L911.7481079166665,330.1416417777077L912.27595375,330.43483475229357L913.22607625,330.1856894332243L914.4401216666666,331.20427068508104L915.3374595833333,331.50465590164924L915.6541670833334,331.86045938113847L916.0236591666666,330.581502557394L918.5045345833333,331.00460185181925L918.7684574999998,331.59634942896264L919.6130108333333,331.8332204239791L919.9297183333332,331.80456998021754L920.4575641666667,332.0273006123981L921.4076866666667,331.95060525910145L922.3050245833333,331.2664760857587L922.41059375,331.36931521688496L924.0997004166666,331.8395061223185L925.1553920833333,332.15215455534906L925.7360225,332.2792827387026L928.2168979166665,332.00385595151016L928.8503129166667,332.01367395298615L929.4309433333333,332.3775920671042L932.8091566666666,332.1052968860755L934.4454787499999,332.3434571386033L936.3985083333332,332.8714982600602L937.6653383333332,333.23273636600925L938.1403995833333,333.2942990156505L938.4571070833332,333.0366102359589L939.2488758333332,333.4152809227643L940.14621375,333.06339830524547L940.8851979166666,333.182473034661L941.0435516666666,333.1066519116169L942.0464587499999,333.07480710690055L943.0493658333332,332.7613260366013L949.01402375,333.05826398286166L949.4363004166667,333.17869517560564L949.7530079166665,333.08701652095175L951.0198379166666,332.79689142349633L951.0726225,332.7077207915978L953.0784366666666,333.347843660414L954.5036204166666,333.4478353924154L955.1370354166665,333.47172674814453L956.2455116666666,333.49528879546875L959.3598020833333,333.43568810119484L960.0460016666666,333.36165930541904L960.5738474999999,333.7521751601252L960.7849858333333,333.9650074657651L962.1046004166666,333.8148775797398L963.26586125,333.6893110388107L967.06635125,333.7263885336868L968.2276120833333,333.56612399087857L968.4387504166666,333.54061820403643L968.5443195833333,333.79462140307373L968.5971041666666,333.8932497552964L969.12495,333.35548856472565L970.1806416666667,333.3522540877795L971.5530408333333,333.18666778698775L973.3477166666665,333.3215356529666L973.8227779166666,333.25494752245623L976.7787145833332,333.3843020973055L979.6290820833333,333.4789662872224L981.00148125,333.73264789214545L981.2654041666666,333.989567342465L982.3210958333333,334.127736537376L985.0131095833333,333.85529958767825L985.2242479166666,333.8073638537117L986.9133545833332,333.47881560531783L989.4997991666667,333.68612731485086L990.5554908333334,333.0392768756659L992.2445974999999,332.87430843496986L992.7724433333332,332.80395347299975L992.8252279166666,332.5874768811631L994.1448424999999,332.6327138661246L994.4087654166666,333.13040204709176L994.6199037499999,333.56752472129705L995.3588879166666,333.368151604934L997.5758404166667,333.6387619270107L998.895455,333.7906909254325L1002.85429875,333.9679526183088L1006.3908658333332,334.0195914257216L1008.0271879166667,333.79384413460775L1009.8218637499999,333.9210828937285L1009.8746483333333,334.0881912439581L1011.0359091666667,333.8934643488834L1013.0417233333333,334.096330348832L1013.30564625,333.7887329932347L1013.5695691666666,334.0841860869107L1014.097415,333.8315230695353L1015.5225987499999,334.0152001957861L1015.5753833333332,333.8988267062168L1015.9448754166666,334.0659502786434L1016.6838595833333,333.77533862650614L1017.26449,332.4105435079349L1018.2146124999999,332.804895887018L1018.3201816666666,332.4490333268885L1019.5342270833333,332.9937094057706L1019.5870116666665,333.15194451934735L1019.6397962499999,333.7136242540279L1019.79815,333.85455353496064L1020.8010570833333,333.881783436284L1022.6485175,334.0677282763395L1023.5458554166667,334.3865413656755L1024.232055,333.8544376825645L1024.2848395833332,333.7764369091603L1024.8126854166667,333.88338295466974L1025.3933158333332,333.54923470978304L1025.9211616666666,333.8813420648835L1026.3434383333333,333.7737187597431L1026.8712841666666,333.7970534375475L1029.45772875,334.11647477264205L1029.8800054166666,334.168291128844L1030.09114375,334.07126727603077L1031.5691120833333,333.9733557673824L1032.30809625,333.80248792484593L1032.62480375,333.83791141793245L1033.3637879166668,333.81064499071306L1033.4693570833333,333.60618763834873L1033.8388491666667,333.8137458853164L1034.0499875,333.7086180069589L1034.2083412499999,333.74641488376517L1034.2611258333334,333.64582567586456L1034.4722641666665,333.6129184935925L1035.79187875,333.7369229749702L1036.3197245833333,333.3293883049406L1036.5308629166666,333.54508364366995L1037.37541625,333.8080232086629L1038.1144004166665,334.17020201342405L1040.0146454166666,334.40930982194607L1040.0674299999998,334.5013476824895L1040.4369220833332,334.5327163682065L1041.0175525,334.47947969542037L1042.6010899999999,333.63336363664916L1043.6039970833333,333.3789424144724L1043.6567816666666,333.584685414046L1043.9207045833332,333.7100609508812L1045.3458883333333,333.9403734006679L1046.2960108333332,334.1072080415604L1047.3517024999999,334.1607712322544L1053.2107912499998,332.9186909040255L1053.6858525,333.0534174804951L1054.5304058333334,333.40194046098384L1054.6887595833332,333.6224427342319L1055.1638208333331,333.51740189694783L1056.6417891666665,333.8497497548069L1058.436465,333.9071261666659L1058.4892495833333,334.2269612430598L1058.9643108333332,334.27432122368015L1059.1226645833333,333.85250765501496L1061.1812633333334,333.9193361817541L1061.9730320833332,334.07463289038793L1062.5008779166665,334.2456839262036L1063.2926466666668,334.33740911785287L1063.3982158333333,334.3102970255823L1063.8204925,334.42870930131744L1064.6650458333334,334.2792082010297L1065.7207375,334.3080498668306L1066.9875675,333.89775307683664L1068.1488283333333,334.2211260225088L1069.6267966666667,334.1629914551801L1070.2602116666667,334.56820889173906L1072.4771641666666,334.5706280633149L1072.6355179166665,334.7364411118232L1074.7996858333333,334.32478204838054L1075.2219625,334.20642042226564L1079.49751375,334.6190081466852L1079.5502983333333,334.7657821463119L1084.1425570833333,334.67575698271816L1084.56483375,334.5857282031502L1086.8873554166667,334.5880171373442L1086.94014,334.6662706820342L1089.63215375,334.5216707878216L1090.107215,334.39833997421886L1092.7992287499999,333.3705067845191L1093.3270745833333,333.60834787106546L1093.6965666666665,333.85583166346566L1093.9604895833334,334.02765438214317L1095.2273195833332,334.12085051045045L1097.1803491666665,334.3188091019703L1098.0776870833333,334.4282690236517L1100.2946395833333,334.37554159912753L1102.8282995833333,334.4620378348427L1102.9338687499999,334.30453438837515L1104.9396829166667,334.47956834268086L1106.2592975,334.6132034022302L1107.2622045833334,334.8416965374166L1107.5261274999998,334.3624416094312L1107.7900504166666,334.4109751699739L1108.7401729166666,334.6603089980109L1109.0040958333332,334.6321833846464L1109.26801875,334.6298339565691L1109.90143375,334.48261439371686L1111.00991,334.54394706945766L1113.4907854166665,334.2124191526243L1114.5992616666667,334.4389136612218L1116.55229125,334.2565594775558L1117.3968445833332,334.56759153026826L1119.1915204166667,334.70713964449453L1119.7721508333334,334.7777755965417L1120.4583504166667,334.9715169805065L1122.41138,334.71178681717964L1122.7808720833334,334.45067659012466L1122.9920104166665,333.9969437348365L1124.3116249999998,333.8909747965049L1125.6840241666666,333.74508172314836L1127.7954075,334.1068625180809L1129.9595754166667,334.5654753952556L1130.1179291666665,334.7737221039136L1130.3818520833333,334.54899734621046L1133.02108125,334.67021618917465L1134.0767729166666,334.7753792786293L1134.8685416666667,334.71079032466963L1135.0268954166665,334.8367039120564L1135.132464583333,334.8408032462817L1136.18815625,334.6670003212584L1136.50486375,334.7801560929473L1137.7189091666667,334.45847277564144L1139.03852375,334.77221255446875L1139.1440929166668,334.8807545308197L1139.8302925,334.81988548445247L1140.93876875,334.6008738451454L1141.9416758333332,334.31142020018416L1142.2583833333333,334.276476395318L1142.9973674999999,334.1463082538778L1143.5779979166666,334.4925265866956L1144.0530591666666,334.8107431859041L1144.2641975,334.6349420682349L1146.48115,334.39811602829445L1146.8506420833332,334.52268260907266L1147.0617804166666,334.6618373562761L1147.3257033333332,334.6651016794364L1147.3784879166667,334.79826405064586L1149.48987125,334.9110738287945L1150.4927783333333,334.9518772780049L1151.9179620833334,332.00419120139765L1153.1320074999999,331.42727347938353L1154.6627604166667,331.9514862647541L1156.8269283333334,332.89295795147945L1157.3547741666666,333.44035332694847L1157.9881891666666,333.42703891191L1158.8855270833333,333.7545525478906L1159.7300804166666,333.36353024623315L1160.1523570833333,333.68542375458196L1160.6274183333333,333.79584119732925L1160.9969104166667,334.0948284183487L1161.3136179166665,333.4579812947836" style="fill: none;" fill="none"></path></g></g></g></g><g opacity="0.2"><g><g><g><path stroke="rgb(0, 119, 187)" stroke-width="2px" d="M106.51928916666665,101.48288452148438L107.78611916666665,87.40037475585939L107.94447291666665,90.82417968750002L109.31687208333334,91.99640625L110.53091749999999,89.794072265625L113.75077708333333,84.00840820312504L113.90913083333334,88.71431030273436L114.38419208333333,82.07882812499997L117.65683625,83.93711791992189L117.92075916666667,82.79860107421871L119.02923541666667,83.65508422851565L119.66265041666666,82.44612304687502L119.97935791666667,80.731259765625L121.82681833333332,80.76017578124998L121.93238749999999,81.67864379882809L122.35466416666665,82.8295935058594L123.88541708333332,80.16903808593753L124.94110875,81.30860595703126L127.79147625,81.77541503906252L129.85007499999998,82.34089233398441L130.58905916666666,84.15006591796873L133.86170333333334,83.24854248046876L135.2868870833333,81.69164062499999L136.13144041666666,83.45779907226563L136.50093249999998,87.43813476562497L136.5537170833333,80.39221435546875L138.29560833333332,85.07484008789066L139.0345925,81.52416870117185L139.72079208333332,80.73469482421876L140.45977625,81.47574462890628L140.98762208333332,83.73232177734377L143.25735916666665,81.41622070312502L143.67963583333332,84.69054931640625L144.1019125,79.69943481445313L145.94937291666665,84.98822021484375L146.16051124999998,86.243349609375L146.26608041666665,86.97370971679686L147.00506458333334,79.95719238281254L147.11063375,82.26998657226562L147.48012583333332,82.51415771484375L147.9024025,84.38180419921872L148.21911,84.1309167480469L149.69707833333334,83.56031250000001L155.45059791666665,86.51333496093747L156.82299708333332,87.12377563476565L156.87578166666665,84.74586914062502L157.19248916666666,83.53090942382812L157.50919666666667,87.96333984375002L158.45931916666666,92.695927734375L158.61767291666666,85.82493896484374L159.09273416666665,94.30881591796873L161.67917874999998,83.02726318359379L161.83753249999998,82.11476806640627L162.4709475,87.223212890625L163.26271624999998,83.15833374023441L163.57942375,90.25834350585939L163.84334666666666,82.19331298828126L166.588145,92.12627197265624L166.85206791666667,84.15980712890621L166.9048525,90.46062744140625L167.854975,85.27051025390625L168.54117458333332,85.28171264648438L171.23318833333332,89.1588171386719L172.13052624999997,91.66746093750004L175.0336783333333,99.74923095703122L175.19203208333334,91.84749389648437L175.93101625,82.849306640625L176.14215458333334,84.12017578125L178.67581458333333,87.24577148437498L179.04530666666668,86.6086962890625L180.20656749999998,86.69593139648435L180.83998249999996,89.60373413085938L181.3678283333333,86.57614013671872L182.9513658333333,89.40970458984373L183.53199625,93.41457275390621L184.27098041666665,88.06821166992188L185.9600870833333,91.19365356445314L187.49084,96.91828125L188.33539333333331,87.64364868164063L189.17994666666667,97.13658691406249L189.39108499999998,89.0868603515625L190.28842291666666,94.0353955078125L192.13588333333334,83.58207641601564L194.35283583333333,93.53885009765628L194.8278970833333,87.78620361328126L195.4085275,89.41390869140622L195.7780195833333,87.00342041015625L196.25308083333334,87.8449072265625L196.992065,87.038642578125L197.09763416666664,87.85782714843748L197.25598791666667,95.8646923828125L199.57850958333333,83.52211669921877L201.95381583333332,84.87655517578128L202.90393833333334,87.91158325195312L203.37899958333333,88.7199755859375L204.06519916666664,88.50656616210938L204.22355291666668,106.99807617187503L204.64582958333332,94.33868041992184L206.75721291666667,98.3349609375L207.6545508333333,92.88529174804688L208.18239666666665,92.53176269531252L208.34075041666668,104.90361328124999L211.19111791666663,87.94929199218751L211.82453291666664,85.2277258300781L213.0385783333333,87.88833251953128L215.14996166666666,90.91128662109378L215.20274625,103.27206298828128L215.62502291666664,108.37379150390626L215.83616124999998,93.7021435546875L216.20565333333332,90.05777709960938L219.00323625,89.56822998046874L219.37272833333333,87.63459960937502L221.00905041666664,95.48363159179684L221.22018874999998,89.6456982421875L221.64246541666665,86.62546142578122L222.06474208333333,88.26280517578124L222.27588041666664,95.02981933593747L223.33157208333333,93.08544799804685L223.59549499999997,88.55914306640625L223.64827958333333,87.16010009765625L224.70397125,96.19532958984377L224.96789416666667,100.9106909179688L225.97080125,90.23440063476562L226.81535458333332,87.33523681640628L227.34320041666666,91.99027954101564L227.97661541666665,88.72392333984374L229.34901458333331,95.72223999023441L229.82407583333332,90.62289550781253L231.67153625,95.10831298828123L231.72432083333334,99.78030029296872L231.82988999999998,107.67662841796874L234.15241166666664,100.29371337890626L234.57468833333334,114.71080810546874L235.04974958333332,114.935419921875L235.15531875,95.36573730468751L235.41924166666664,99.45771240234376L236.73885625,98.56946777343751L236.79164083333333,110.43333984374999L237.31948666666665,90.54563232421873L237.42505583333332,96.94601806640628L237.68897874999996,91.74100708007813L238.42796291666667,93.47419921875002L238.74467041666665,95.02161621093745L239.21973166666663,103.00946044921875L240.01150041666665,118.41995361328122L240.32820791666666,99.33543457031249L243.12579083333333,91.36030517578126L247.29577291666666,91.72867675781248L248.24589541666666,92.52363647460936L250.198925,98.39607421875002L250.93790916666666,92.1635705566406L252.78536958333333,98.627197265625L257.16649,95.51416259765625L258.43332,99.04660766601563L262.18102541666667,91.47225219726562L262.60330208333335,95.96230957031253L264.5035470833333,98.304814453125L265.9287308333333,93.838623046875L266.0870845833333,107.69828979492183L269.14859041666665,100.2472631835937L272.42123458333333,93.69442749023438L273.2657879166667,97.73528686523434L274.21591041666665,102.23649536132814L274.268695,99.38539672851562L276.06337083333335,95.43177246093751L276.59121666666664,98.61589233398439L276.74957041666664,95.2631213378906L276.802355,108.92288818359373L276.90792416666665,116.31369873046873L276.96070875,94.70876953124997L280.0222145833333,116.17060546875001L282.13359791666664,100.69253906250003L283.76992,126.09777099609374L285.19510375,97.07362792968752L285.45902666666666,98.19607177734378L286.6202875,125.2761895751953L287.6231945833333,107.94240966796878L288.4149633333333,105.17472656250004L289.2595166666666,128.62125732421873L290.7902695833333,99.21448974609376L290.94862333333333,99.6591760253906L292.26823791666664,94.65642333984374L295.59366666666665,99.34322753906253L296.54378916666667,99.00120849609374L296.6493583333333,101.90762695312497L296.7549275,118.84543945312504L297.07163499999996,133.42935241699217L298.5496033333333,97.41157104492186L299.28858749999995,97.417236328125L302.2445241666667,102.13974975585938L302.45566249999996,105.8962939453125L303.03629291666664,106.81245483398436L305.78109125,101.27788330078124L306.8895675,101.20882324218752L307.15349041666667,102.76951904296874L307.2590595833333,98.34080566406249L307.7869054166666,104.95957397460933L309.52879666666666,99.36696533203121L310.1622116666666,106.22408569335937L312.90700999999996,100.84360473632813L314.3849783333333,104.86836547851561L315.86294666666663,112.91581054687498L317.86876083333334,96.10945312500002L318.44939125,106.51496337890626L318.60774499999997,113.78290649414066L321.61646625000003,98.91769042968747L321.88038916666665,100.75542114257809L322.4610195833333,130.75888916015623L326.3142941666666,107.96358398437502L326.94770916666664,108.62070556640629L327.0532783333333,126.78896118164064L327.31720125,100.66810913085936L327.3699858333333,132.26116333007815L328.6896004166667,112.02372070312504L328.9535233333333,102.39394409179687L329.1118770833333,106.5375219726563L329.53415375,102.1802270507813L330.58984541666666,103.17049804687503L330.74819916666667,134.2286572265625L331.59275249999996,111.98324340820312L332.7540133333333,111.53550659179683L333.4402129166666,102.06912597656247L333.5457820833333,99.6046252441406L336.18501125,102.81440551757811L337.45184125,121.76148376464846L337.8213333333333,108.24033691406248L338.1380408333333,101.76166259765625L339.40487083333335,102.23531616210937L339.56322458333335,112.50375732421872L342.677515,99.11625732421874L343.57485291666666,107.6868310546875L344.6833291666667,133.58507080078127L347.2169891666667,112.54251708984373L347.3753429166666,123.75659912109376L349.85621833333335,102.71978759765625L351.33418666666665,139.7778662109375L351.75646333333333,104.12052246093748L351.9676016666666,127.5000695800781L352.38987833333334,120.7119836425781L354.34290791666666,104.74890747070316L354.6068308333333,100.95114257812497L356.2959375,140.7162780761719L356.71821416666666,102.8113549804687L357.1932754166666,114.49611694335937L358.30175166666663,106.34280029296878L358.93516666666665,111.51861328125L359.0407358333333,107.68616455078126L361.04654999999997,112.50001464843751L361.6799649999999,104.55498046875005L363.8969175,117.44183349609375L367.48626916666666,135.684814453125L367.9613304166666,149.55576049804685L368.1196841666667,135.13751220703125L372.1313125,121.44867553710935L372.23688166666665,113.82687011718753L372.28966625,124.66271118164065L375.0872491666666,129.7980853271484L376.5652175,141.0294964599609L380.049,126.91452026367188L382.10759874999997,143.98437744140625L386.85821125,146.3318298339844L387.7027645833333,148.34115966796875L388.44174874999993,149.53365051269532L391.6616083333333,145.35240234375001L392.82286916666664,161.06730834960936L395.62045208333336,160.96019348144532L396.67614374999994,156.95741455078124L396.7817129166666,160.84328613281252L398.4708195833333,159.57821044921874L399.7376495833333,174.72099975585937L400.47663374999996,179.22746337890626L402.74637083333334,183.29327819824218L404.22433916666665,183.9789825439453L404.3299083333333,177.43701599121096L404.54104666666666,177.17668212890626L405.3328154166667,182.20838928222656L407.4969833333333,186.40450561523437L407.6553370833333,178.21392883300783L410.45292,182.94878540039065L412.08924208333326,184.40158447265625L412.1420266666666,183.28278076171873L413.03936458333334,188.20985961914062L413.1977183333333,191.12569885253905L414.99239416666666,191.26125549316404L415.0979633333333,193.48837829589846L415.46745541666667,188.92542846679686L417.36770041666665,198.81928161621093L418.4761766666666,189.55173706054688L419.74300666666664,205.07589477539062L420.0069295833333,193.80905639648438L420.32363708333327,205.28445922851563L421.74882083333335,194.7866638183594L422.8045125,202.80528259277344L423.06843541666666,204.2317932128906L423.8602041666667,203.9884167480469L424.1241270833333,201.48201599121094L426.3938641666667,200.72640563964845L427.71347875,211.6759112548828L427.81904791666665,205.34612365722657L428.66360124999994,201.53996337890626L429.1914470833333,214.4231378173828L431.83067624999995,218.80693908691407L432.8335833333333,211.37312622070314L433.51978291666666,206.326640625L433.8364904166666,216.82946044921874L434.52269,213.34095336914064L437.53141124999996,212.15840881347657L438.74545666666666,216.04474182128908L439.0093795833333,219.78329040527345L440.27620958333335,214.82998718261717L440.8568399999999,220.2298095703125L441.4374704166666,223.09716064453124L442.12366999999995,229.50039825439453L443.3905,222.11460571289064L448.40503541666664,230.0408688354492L448.45781999999997,227.47093872070312L448.6689583333333,241.67897552490234L449.72464999999994,230.8401544189453L452.5750175,229.64552307128906L453.10286333333335,232.67853881835939L454.10577041666664,233.9415316772461L456.95613791666665,239.74132690429687L457.4311991666666,240.39881378173828L457.74790666666667,235.3693881225586L458.0646141666666,237.38269775390626L458.2229679166667,235.02992614746094L458.59245999999996,243.2957922363281L459.01473666666664,235.61583435058594L459.17309041666664,240.65748138427736L459.80650541666665,246.95817993164064L461.2316891666666,237.89423950195314L461.4428275,243.74843170166017L462.02345791666664,243.4030096435547L466.19343999999995,253.19884826660157L466.93242416666664,241.23456481933593L467.3547008333333,250.78228454589845L468.14646958333327,242.63242858886719L471.5774675,240.80229858398437L473.10822041666665,249.04014587402344L473.2665741666666,250.52439880371094L474.6389733333333,252.14298431396483L475.80023416666666,248.2769155883789L479.86464708333335,253.75375122070312L480.6564158333333,257.9167794799805L481.07869249999993,258.85755615234376L482.2927379166666,254.5261587524414L483.24286041666664,260.54251007080074L485.35424374999997,262.6227392578125L486.46272,267.66721893310546L488.0990420833333,261.9914511108399L490.896625,265.9540539550781L491.47725541666665,261.3652963256836L492.4273779166666,258.73550903320313L492.95522374999996,258.9477392578125L493.0080083333333,262.01270874023436L494.01091541666665,264.2956256103515L495.22496083333334,264.56367553710936L496.22786791666664,264.19089477539063L498.2864666666666,267.2696813964844L498.4448204166667,264.48409240722657L498.81431249999997,269.0147103881836L499.3421583333333,266.0801385498047L499.50051208333326,270.2948336791992L500.29228083333334,267.90753845214846L502.03417208333326,269.0986001586914L503.0370791666667,271.36125915527344L507.2070612499999,274.73245513916015L509.05452166666663,275.70699279785157L509.9518595833333,273.33268798828124L510.74362833333333,277.80778747558594L511.32425875,275.18903594970703L511.64096624999996,280.25542694091797L512.9605808333333,278.9804690551758L513.2245037499999,276.7726300048828L513.4884266666667,267.94534973144533L514.4385491666667,272.93872009277345L515.0191795833333,278.0495553588867L515.1775333333334,272.47508331298826L516.233225,279.64162811279294L516.6555016666666,277.3529370117187L517.1833475,280.95577514648437L519.0308079166666,276.62323699951173L519.2947308333332,273.47471740722654L522.5145904166666,280.0360317993164L522.567375,281.9786279296875L524.2564816666667,279.5677679443359L526.9484954166667,286.2416702270508L527.3707720833333,286.46357437133787L529.2182325,284.50471298217775L529.7988629166666,287.25442291259765L530.4322779166666,280.2864385986328L531.3296158333333,288.57562911987304L534.4966908333333,287.1962608337402L537.3470583333333,286.3257426452637L537.5581966666666,286.0767329406738L538.2971808333333,290.24394927978517L539.1945187499999,287.75009353637694L539.5112262499999,292.5136898803711L541.72817875,291.66962677001953L542.5727320833333,291.0433053588867L543.1533625,287.8361943054199L544.0507004166666,285.1605560302734L545.1063920833333,284.9559585571289L545.370315,291.4328961181641L545.4758841666666,295.26293838500976L545.7925916666667,293.3399945068359L546.8482833333333,291.6274479675293L547.0066370833333,297.0683917236328L547.2705599999999,293.38008087158204L547.74562125,294.26921951293946L552.49623375,295.3031433105469L552.5490183333333,294.012099609375L552.6545875,297.73409133911133L554.1325558333333,297.8797673034668L554.3964787499999,295.0382977294922L554.6604016666666,292.80547119140624L557.7219074999999,295.35034332275393L559.0943066666666,298.65868286132815L559.5693679166666,297.29752166748045L561.3112591666667,300.14468215942384L561.36404375,301.9595338439941L561.839105,298.4952868652344L563.8449191666666,302.9909197998047L564.2671958333333,298.9183822631836L564.5311187499999,302.49962951660154L566.2202254166666,304.17569458007813L568.7011008333333,300.4258346557617L568.9122391666666,304.6565771484375L570.1262845833334,300.8192642211914L571.0764070833333,300.1602264404297L571.2347608333333,301.5117906188965L572.3432370833333,302.6160081481934L572.9238674999999,305.010968170166L574.1906974999999,303.16136535644534L574.5601895833333,306.59197631835934L575.4575275,308.48236404418947L575.5630966666666,306.29440475463866L575.7214504166667,306.1020639038086L576.8299266666666,305.536993560791L577.19941875,309.8102128601074L578.4134641666667,307.04929412841796L579.3108020833333,309.3171778106689L580.2609245833333,308.6068112182617L580.5776320833332,306.64878936767576L581.1054779166666,308.08503479003906L582.108385,307.60307556152344L583.53356875,310.0421353912353L583.9558454166666,309.7854977416992L585.0643216666666,309.00246459960937L588.8120270833333,307.10723510742184L592.0318866666667,312.3087950134277L592.5597325,312.4172428894043L592.9292245833333,311.5159405517578L594.3544083333334,310.3504783630371L595.4628845833333,306.596513671875L596.83528375,309.4124750518799L597.310345,313.342882232666L598.9994516666666,311.5959883117676L600.1079279166667,313.2083157348633L602.377665,314.9469408416748L602.53601875,314.9069906616211L603.5917104166666,314.08226097106933L603.9612025,314.1672802734375L605.3336016666666,313.571296005249L609.0285225,315.9958497619629L609.50358375,315.63157974243165L609.8730758333332,313.89668769836425L610.5592754166667,315.3588466644287L611.72053625,316.2096597290039L612.3011666666666,317.94188735961916L612.8817970833333,316.0790682220459L613.7263504166666,318.9358241271973L614.9931804166666,317.2587336730957L615.3098879166666,318.4778638458252L616.5239333333333,315.85851791381833L617.4740558333333,317.64761306762693L620.6939154166666,314.7446873474121L621.1689766666666,320.7965091705322L623.4914983333333,317.08987747192384L624.9694666666667,318.3749066162109L625.1278204166666,319.4664733886719L627.2392037499999,320.88596008300783L628.5060337499999,315.4169718933106L631.9370316666666,321.0804029846191L636.0542291666666,319.3743676757813L636.3181520833333,320.3193035888672L636.4765058333332,319.8726226043701L637.2154899999999,321.7985945892334L637.848905,317.8577011871338L639.0629504166667,323.21709995269777L639.3796579166666,322.64049156188963L640.1714266666665,323.12245319366457L641.01598,323.1048469161987L642.2828099999999,319.6073684692383L643.1801479166666,323.99586570739746L646.3472229166667,322.2494284057617L646.9278533333334,321.3414033508301L647.9835449999999,323.8998346710205L648.3530370833332,320.8493344116211L648.61696,320.5888659667969L654.317695,324.0614418411255L654.47604875,324.01146286010743L655.5845249999999,324.6211360931396L655.8484479166666,325.3026619720459L658.1181849999999,324.941248626709L658.6988154166665,323.9505818939209L659.22666125,323.6452598190308L659.4377995833333,324.0715563583374L660.9685525,324.16225856781006L661.4436137499999,322.93951549530027L662.6576591666667,322.55484100341795L662.7104437499999,321.9260939025879L663.34385875,323.19324279785155L664.9801808333333,324.74896064758303L665.4552420833334,324.87893291473387L666.35258,322.905027923584L666.6165029166666,327.31468025207516L667.0915641666666,326.4498529815674L667.5138408333333,325.3833762359619L667.9361174999999,326.17336521148684L668.8334554166665,325.2175633621216L670.4169929166666,325.64009078979495L670.94483875,323.8824895477295L672.8978683333333,324.54980094909666L673.3729295833333,325.12364318847654L673.4257141666666,325.84331199646L674.5869749999999,324.75893016815184L674.9564670833333,324.983737449646L676.4344354166666,323.8839419174194L676.96228125,325.36776626586914L677.2262041666665,325.7081783294678L677.8068345833333,326.2923001098633L678.2818958333332,325.67952026367186L679.02088,325.05477539062497L681.0266941666666,325.21107696533204L681.1850479166667,324.70177585601806L682.97972375,327.42356872558594L683.1908620833332,326.6108240890503L684.4049074999999,327.6028078079224L684.7216149999999,326.5299199676514L684.8271841666666,326.13266761779784L686.9385675,326.62547035217284L687.255275,326.4920165634155L687.3608441666665,327.775795211792L687.9414745833333,326.4474849700928L688.2053975,326.32406158447264L688.9443816666666,321.57737617492677L689.4194429166665,327.04724235534667L690.26399625,324.82764896392825L691.5836108333334,328.31165313720703L692.5865179166666,327.7900769805908L693.0615791666667,327.3819170379639L694.0117016666666,330.0155539512634L695.4368854166667,329.09668659210206L696.6509308333334,328.0645115661621L696.7565,329.09504276275635L696.8092845833332,327.8725440216065L699.9235749999999,328.26733543395994L700.08192875,324.4537875366211L700.55699,327.8008740234375L702.5628041666666,327.8543657684326L705.2548179166666,327.40618675231934L707.8940470833334,326.7703532409668L708.3163237499999,326.71108726501467L710.21656875,328.0124737930298L711.1139066666666,328.1375802612305L712.1695983333333,327.0727601623535L713.6475666666666,325.08317070007325L713.8059204166666,328.6538596343994L714.1754124999999,327.17174560546874L714.2809816666665,328.93601509094236L715.1783195833334,327.33334156036375L715.60059625,327.72703468322754L716.0756575,328.6915459442139L716.86742625,329.96792936325073L717.7119795833333,329.88054725646975L719.7705783333333,329.6955892181397L720.4039933333332,330.143745803833L721.0374083333334,329.8400971984863L721.61803875,330.5713961791992L722.3570229166666,329.62825469970704L722.4625920833332,329.3493011856079L724.3628370833334,327.47523319244385L726.2630820833333,330.40109922409056L727.6882658333333,329.3917287254334L728.4800345833333,328.9807573699951L730.0635720833333,328.19540187835696L731.3304020833333,329.9651011276245L732.2805245833333,329.03684463500974L734.0224158333333,330.74795402526854L735.4475995833333,329.67413291931155L736.1337991666666,329.9694366073608L736.2393683333333,330.74442764282225L736.2921529166666,330.17954235076905L737.3478445833333,329.48863494873046L737.6117675,329.45996046066284L738.3507516666666,330.20221910476687L738.8785975000001,330.21661022186277L739.1425204166666,329.7879256439209L739.5120125,329.8736262702942L740.5149195833333,329.8053084182739L741.1483345833333,329.1592979049683L742.9957949999999,329.7347006607056L746.2684391666666,327.46755477905276L747.0602079166665,329.3487384223938L747.6408383333332,328.58347778320314L747.8519766666667,329.1937774658203L748.6965299999999,329.4442699813843L750.4384212499999,328.4629302978516L750.9134825,329.0211201095581L753.2360041666667,329.0966265106201L754.2916958333334,329.89944328308104L754.4500495833332,327.95740631103513L755.2946029166666,326.3668940734863L756.13915625,329.4891548538208L759.8868616666666,330.77945154190064L760.3619229166667,330.98517333984375L761.998245,331.1303326034546L763.0011520833333,331.60825996398927L763.1595058333334,331.6967527770996L764.3207666666667,327.7404833221436L767.7517645833333,329.76779434204104L768.17404125,329.96658073425294L769.2825174999999,330.9944787597656L770.4437783333333,331.2737535095215L771.9745312499999,331.18600090026854L774.4026220833333,331.58363697052005L775.8805904166666,331.84687557220457L778.9948808333332,331.6240229415894L779.8394341666667,331.74154872894286L781.4757562499999,331.0880144119263L783.0065091666665,330.38527336120603L784.32612375,331.3194434738159L784.5900466666666,331.31042404174804L785.2762462499999,331.67187824249265L785.9624458333333,330.5302988433838L786.2791533333333,330.74130901336673L788.4961058333332,330.1528317260742L788.5488904166666,332.4164087677002L789.6045820833333,332.3437742614746L792.6660879166666,331.4094960021973L793.5634258333332,329.7093815231323L794.9886095833333,330.3601993560791L795.0413941666667,329.58381923675535L795.4636708333333,330.24589113235476L796.0970858333333,331.4204252243042L796.7305008333333,330.7345726776123L797.5222695833332,331.4088270950317L797.7334079166666,330.52095577239993L798.6307458333332,331.5172661590576L799.5808683333332,331.38864212036134L800.5309908333334,330.57835041046144L801.3227595833333,331.6450754928589L801.8506054166666,331.9091320037842L802.0089591666666,330.94959789276123L802.6423741666667,332.03126564025877L802.6951587499999,332.8717549037933L802.9062970833332,331.54649940490725L804.3842654166666,332.08105716705325L805.7566645833332,332.4156797790527L807.4985558333333,329.768687953949L808.2903245833332,331.4607795524597L810.1905695833333,331.8898770904541L812.9881525,331.69115198135376L813.1992908333333,331.4783045196533L814.2549825,331.2588180541992L816.8414270833333,330.9157904434204L818.37218,331.8428569221497L820.5891325,332.61821165084837L823.2811462499999,331.44756282806395L824.072915,332.04581497192385L824.4951916666666,331.7353351020813L824.8118991666666,331.06910316467287L827.4511283333333,332.4920337295532L827.6094820833333,332.3067392349243L827.7678358333333,331.64504264831544L828.4540354166666,331.78951738357546L829.8792191666666,331.47304779052735L831.19883375,331.3763306236267L831.5683258333332,332.0834091567993L832.7295866666666,330.16261459350585L833.8380629166666,332.57068519592286L834.5242624999998,332.331568107605L836.3717229166666,332.73595012664794L837.5857683333332,332.34537563323977L837.7441220833333,331.9861420440674L838.4303216666667,332.07959358215334L838.6414599999999,332.78261180877684L841.2279045833333,331.725270652771L841.2806891666667,331.1572443008423L842.28359625,331.9850637817383L842.44195,330.2855445098877L842.91701125,332.6255488014221L842.9697958333333,332.7803631591797L843.2865033333333,331.62801876068113L844.342195,332.6570286941528L844.4477641666666,333.10684232711793L848.7761,332.51689704895017L849.0928074999999,332.0310389328003L853.0516512499998,331.37941680908204L854.5296195833333,332.0008539962769L856.2187262499999,331.80454536437986L856.5354337499999,331.371591796875L857.7494791666667,332.4073324584961L859.70250875,332.7776747131348L859.7552933333333,331.8961151504517L860.0720008333332,332.13584226608276L860.5470620833332,331.65310237884523L861.4444,330.6975845146179L862.077815,332.70548160552977L862.3945224999999,332.52326488494873L863.4502141666666,332.13177795410155L863.6613524999999,333.3865929222107L864.9281824999999,333.47380960464477L865.5088129166666,332.5507349395752L868.1480420833333,331.97620817184446L869.4148720833332,331.77693391799926L870.6289175,331.6722583580017L872.5291624999999,333.4481516075134L873.7959924999999,333.11578225135804L873.9015616666666,332.9876947402954L873.95434625,332.0769728279114L877.1214212499999,332.1233485221863L877.9131899999999,331.9086325263977L878.2298975,333.71839550971987L879.8134349999999,331.9361502456665L880.28849625,333.9338296794891L880.4996345833333,334.3178450775147L880.8163420833332,333.6889876270294L881.6608954166667,333.760608959198L883.9306324999999,333.8920305919647L884.5640475,332.3884728813171L885.67252375,333.90603558540346L885.7253083333334,333.40502892494203L885.9364466666666,333.18506521224975L886.1475849999999,332.4861169052124L886.3587233333333,332.3737180709839L887.2560612499999,332.73506172180174L887.57276875,331.7385702896118L887.7839070833334,332.68084659576414L889.2090908333332,333.07968229293823L890.6342745833333,320.10353256225585L891.6371816666666,325.5010462188721L893.3262883333333,324.19561019897463L893.3790729166666,326.67640502929686L893.4318575,321.5072378540039L894.6986875,322.3197413635254L898.1296854166667,325.7271432495117L898.7631004166666,330.124536151886L902.0885291666666,331.62200660705565L904.3054816666667,331.80199951171875L904.5166199999999,327.4902992248535L906.8391416666666,330.6101851844788L907.8420487499999,330.8796434211731L909.7950783333332,331.1624000930786L911.3786158333334,329.0176001358032L911.7481079166665,330.4609688186645L912.27595375,330.87462421417234L913.22607625,329.81197145462033L914.4401216666666,332.7321425628662L915.3374595833333,331.95523372650143L915.6541670833334,332.39416460037233L916.0236591666666,328.66306732177736L918.5045345833333,331.63925079345705L918.7684574999998,332.4839707946777L919.6130108333333,332.1885269165039L919.9297183333332,331.7615943145752L920.4575641666667,332.36139656066894L921.4076866666667,331.8355622291565L922.3050245833333,330.2402823257446L922.41059375,331.52357391357424L924.0997004166666,332.54479248046874L925.1553920833333,332.621127204895L925.7360225,332.4699750137329L928.2168979166665,331.59071577072143L928.8503129166667,332.0284009552002L929.4309433333333,332.92346923828126L932.8091566666666,331.69685411453247L934.4454787499999,332.70069751739504L936.3985083333332,333.66355994224546L937.6653383333332,333.77459352493287L938.1403995833333,333.3866429901123L938.4571070833332,332.6500770664215L939.2488758333332,333.98328695297243L940.14621375,332.5355743789673L940.8851979166666,333.36108512878417L941.0435516666666,332.9929202270508L942.0464587499999,333.02703989982604L943.0493658333332,332.29110443115235L949.01402375,333.5036709022522L949.4363004166667,333.3593419647217L949.7530079166665,332.94949853897094L951.0198379166666,332.3617037773132L951.0726225,332.57396484375L953.0784366666666,334.3080279636383L954.5036204166666,333.59782299041746L955.1370354166665,333.50756378173827L956.2455116666666,333.53063186645505L959.3598020833333,333.34628705978395L960.0460016666666,333.2506161117554L960.5738474999999,334.3379489421844L960.7849858333333,334.28425592422485L962.1046004166666,333.5896827507019L963.26586125,333.500961227417L967.06635125,333.782004776001L968.2276120833333,333.32572717666625L968.4387504166666,333.5023595237732L968.5443195833333,334.17562620162965L968.5971041666666,334.0411922836304L969.12495,332.54884677886963L970.1806416666667,333.34740237236025L971.5530408333333,332.93828833580017L973.3477166666665,333.5238374519348L973.8227779166666,333.15506532669065L976.7787145833332,333.5783339595795L979.6290820833333,333.62096257209777L981.00148125,334.11317029953005L981.2654041666666,334.37494651794435L982.3210958333333,334.3349903297424L985.0131095833333,333.44664416313174L985.2242479166666,333.73546025276187L986.9133545833332,332.9859932327271L989.4997991666667,333.9970948791504L990.5554908333334,332.0690012168884L992.2445974999999,332.6268557739258L992.7724433333332,332.6984210300445L992.8252279166666,332.2627619934082L994.1448424999999,332.7005693435669L994.4087654166666,333.87693431854245L994.6199037499999,334.223208732605L995.3588879166666,333.0690919303894L997.5758404166667,334.04467741012576L998.895455,334.0185844230652L1002.85429875,334.2338451576233L1006.3908658333332,334.09704963684084L1008.0271879166667,333.455223197937L1009.8218637499999,334.1119410324097L1009.8746483333333,334.3388537693024L1011.0359091666667,333.6013740062714L1013.0417233333333,334.4006293487549L1013.30564625,333.3273369598389L1013.5695691666666,334.52736572742464L1014.097415,333.4525285434723L1015.5225987499999,334.29071588516234L1015.5753833333332,333.7242664718628L1015.9448754166666,334.3166356372833L1016.6838595833333,333.3394211483002L1017.26449,330.3633508300781L1018.2146124999999,333.3964244556427L1018.3201816666666,331.91523948669436L1019.5342270833333,333.81072352409365L1019.5870116666665,333.3892971897125L1019.6397962499999,334.5561438560486L1019.79815,334.0659474563599L1020.8010570833333,333.92262828826904L1022.6485175,334.3466455364227L1023.5458554166667,334.86476099967956L1024.232055,333.05628215789795L1024.2848395833332,333.65943574905396L1024.8126854166667,334.04380202293396L1025.3933158333332,333.04801234245303L1025.9211616666666,334.37950309753415L1026.3434383333333,333.6122838020325L1026.8712841666666,333.83205545425415L1029.45772875,334.59560677528384L1029.8800054166666,334.246015663147L1030.09114375,333.9257314968109L1031.5691120833333,333.8264885044098L1032.30809625,333.54618616104125L1032.62480375,333.89104665756224L1033.3637879166668,333.76974534988403L1033.4693570833333,333.29950160980223L1033.8388491666667,334.12508325576783L1034.0499875,333.5509261894226L1034.2083412499999,333.8031101989746L1034.2611258333334,333.4949418640137L1034.4722641666665,333.56355772018435L1035.79187875,333.92292969703675L1036.3197245833333,332.71808629989624L1036.5308629166666,333.8686266517639L1037.37541625,334.20243255615236L1038.1144004166665,334.7134702205658L1040.0146454166666,334.767971534729L1040.0674299999998,334.63940447330475L1040.4369220833332,334.5797693967819L1041.0175525,334.39962468624117L1042.6010899999999,332.36418954849245L1043.6039970833333,332.9973105812073L1043.6567816666666,333.8932999134064L1043.9207045833332,333.89812425613405L1045.3458883333333,334.2858420753479L1046.2960108333332,334.3574600028992L1047.3517024999999,334.2411160182953L1053.2107912499998,331.05557041168214L1053.6858525,333.2555073451996L1054.5304058333334,333.9247249317169L1054.6887595833332,333.953196144104L1055.1638208333331,333.3598406410217L1056.6417891666665,334.34827154159547L1058.436465,333.9931907844543L1058.4892495833333,334.70671385765075L1058.9643108333332,334.3453611946106L1059.1226645833333,333.2197873020172L1061.1812633333334,334.0195789718628L1061.9730320833332,334.30757795333864L1062.5008779166665,334.5022604799271L1063.2926466666668,334.47499690532686L1063.3982158333333,334.2696288871765L1063.8204925,334.60632771492004L1064.6650458333334,334.05495655059815L1065.7207375,334.3513123655319L1066.9875675,333.2823078918457L1068.1488283333333,334.70618544101717L1069.6267966666667,334.075789604187L1070.2602116666667,335.17603504657745L1072.4771641666666,334.5742568206787L1072.6355179166665,334.9851606845856L1074.7996858333333,333.70729345321655L1075.2219625,334.02887798309325L1079.49751375,335.2378897333145L1079.5502983333333,334.98594314575195L1084.1425570833333,334.5407192373276L1084.56483375,334.4506850337982L1086.8873554166667,334.5914505386353L1086.94014,334.7836509990692L1089.63215375,334.3047709465027L1090.107215,334.2133437538147L1092.7992287499999,331.82875699996947L1093.3270745833333,333.96510950088503L1093.6965666666665,334.227057352066L1093.9604895833334,334.2853884601593L1095.2273195833332,334.26064470291135L1097.1803491666665,334.61574698925017L1098.0776870833333,334.5924589061737L1100.2946395833333,334.2964504623413L1102.8282995833333,334.59178218841555L1102.9338687499999,334.0682792186737L1104.9396829166667,334.7421192741394L1106.2592975,334.81365599155424L1107.2622045833334,335.18443624019625L1107.5261274999998,333.643559217453L1107.7900504166666,334.48377551078795L1108.7401729166666,335.03430974006653L1109.0040958333332,334.5899949645996L1109.26801875,334.6263098144531L1109.90143375,334.26178504943846L1111.00991,334.63594608306886L1113.4907854166665,333.7151272773743L1114.5992616666667,334.778655424118L1116.55229125,333.98302820205686L1117.3968445833332,335.0341396093369L1119.1915204166667,334.91646181583405L1119.7721508333334,334.8837295246124L1120.4583504166667,335.2621290564537L1122.41138,334.32219157218935L1122.7808720833334,334.0590112495422L1122.9920104166665,333.3163444519043L1124.3116249999998,333.73202138900757L1125.6840241666666,333.5262421131134L1127.7954075,334.6495337104797L1129.9595754166667,335.2533947110176L1130.1179291666665,335.08609216690064L1130.3818520833333,334.21191020965574L1133.02108125,334.8520444536209L1134.0767729166666,334.93312391281125L1134.8685416666667,334.61390689373013L1135.0268954166665,335.0255742931366L1135.132464583333,334.84695224761964L1136.18815625,334.40629593372347L1136.50486375,334.9498897504807L1137.7189091666667,333.9759477996826L1139.03852375,335.24282222270966L1139.1440929166668,335.04356749534605L1139.8302925,334.7285819149017L1140.93876875,334.2723563861847L1141.9416758333332,333.8772397327423L1142.2583833333333,334.22406068801877L1142.9973674999999,333.95105604171755L1143.5779979166666,335.0118540859222L1144.0530591666666,335.28806808471677L1144.2641975,334.37124039173125L1146.48115,334.0428769683838L1146.8506420833332,334.7095324802399L1147.0617804166666,334.8705694770813L1147.3257033333332,334.66999816417695L1147.3784879166667,334.99800760746L1149.48987125,335.08028849601743L1150.4927783333333,335.01308245182037L1151.9179620833334,327.58266208648683L1153.1320074999999,330.5618968963623L1154.6627604166667,332.73780544281004L1156.8269283333334,334.30516548156737L1157.3547741666666,334.26144639015195L1157.9881891666666,333.4070672893524L1158.8855270833333,334.2458230018616L1159.7300804166666,332.77699679374695L1160.1523570833333,334.1682640171051L1160.6274183333333,333.9614673614502L1160.9969104166667,334.54330924987795L1161.3136179166665,332.502710609436" style="fill: none;" fill="none"></path></g></g></g></g></g></g><g transform="translate(58, 378)" clip-path="url(#clip_1)"><clipPath id="clip_1"><rect width="1266" height="21"></rect></clipPath><g><g><line x1="0" y1="0" x2="0" y2="5" style="visibility: inherit;" fill="rgb(0, 0, 0)" stroke="rgb(204, 204, 204)" stroke-width="1px"></line><line x1="105.56916666666666" y1="0" x2="105.56916666666666" y2="5" style="visibility: inherit;" fill="rgb(0, 0, 0)" stroke="rgb(204, 204, 204)" stroke-width="1px"></line><line x1="211.13833333333332" y1="0" x2="211.13833333333332" y2="5" style="visibility: inherit;" fill="rgb(0, 0, 0)" stroke="rgb(204, 204, 204)" stroke-width="1px"></line><line x1="316.7075" y1="0" x2="316.7075" y2="5" style="visibility: inherit;" fill="rgb(0, 0, 0)" stroke="rgb(204, 204, 204)" stroke-width="1px"></line><line x1="422.27666666666664" y1="0" x2="422.27666666666664" y2="5" style="visibility: inherit;" fill="rgb(0, 0, 0)" stroke="rgb(204, 204, 204)" stroke-width="1px"></line><line x1="527.8458333333333" y1="0" x2="527.8458333333333" y2="5" style="visibility: inherit;" fill="rgb(0, 0, 0)" stroke="rgb(204, 204, 204)" stroke-width="1px"></line><line x1="633.415" y1="0" x2="633.415" y2="5" style="visibility: inherit;" fill="rgb(0, 0, 0)" stroke="rgb(204, 204, 204)" stroke-width="1px"></line><line x1="738.9841666666666" y1="0" x2="738.9841666666666" y2="5" style="visibility: inherit;" fill="rgb(0, 0, 0)" stroke="rgb(204, 204, 204)" stroke-width="1px"></line><line x1="844.5533333333333" y1="0" x2="844.5533333333333" y2="5" style="visibility: inherit;" fill="rgb(0, 0, 0)" stroke="rgb(204, 204, 204)" stroke-width="1px"></line><line x1="950.1225" y1="0" x2="950.1225" y2="5" style="visibility: inherit;" fill="rgb(0, 0, 0)" stroke="rgb(204, 204, 204)" stroke-width="1px"></line><line x1="1055.6916666666666" y1="0" x2="1055.6916666666666" y2="5" style="visibility: inherit;" fill="rgb(0, 0, 0)" stroke="rgb(204, 204, 204)" stroke-width="1px"></line><line x1="1161.2608333333333" y1="0" x2="1161.2608333333333" y2="5" style="visibility: inherit;" fill="rgb(0, 0, 0)" stroke="rgb(204, 204, 204)" stroke-width="1px"></line><line x1="1266.83" y1="0" x2="1266.83" y2="5" style="visibility: inherit;" fill="rgb(0, 0, 0)" stroke="rgb(204, 204, 204)" stroke-width="1px"></line></g><g transform="translate(0, 8)"><text x="0" y="0" dx="0em" dy="0.95em" style="text-anchor: middle; visibility: hidden; font-family: &quot;Helvetica Neue&quot;, sans-serif; font-size: 12px; font-weight: 200;" fill="rgb(50, 49, 63)" stroke="none" stroke-width="1px">-2k</text><text x="105.56916666666666" y="0" dx="0em" dy="0.95em" style="text-anchor: middle; visibility: inherit; font-family: &quot;Helvetica Neue&quot;, sans-serif; font-size: 12px; font-weight: 200;" fill="rgb(50, 49, 63)" stroke="none" stroke-width="1px">0</text><text x="211.13833333333332" y="0" dx="0em" dy="0.95em" style="text-anchor: middle; visibility: inherit; font-family: &quot;Helvetica Neue&quot;, sans-serif; font-size: 12px; font-weight: 200;" fill="rgb(50, 49, 63)" stroke="none" stroke-width="1px">2k</text><text x="316.7075" y="0" dx="0em" dy="0.95em" style="text-anchor: middle; visibility: inherit; font-family: &quot;Helvetica Neue&quot;, sans-serif; font-size: 12px; font-weight: 200;" fill="rgb(50, 49, 63)" stroke="none" stroke-width="1px">4k</text><text x="422.27666666666664" y="0" dx="0em" dy="0.95em" style="text-anchor: middle; visibility: inherit; font-family: &quot;Helvetica Neue&quot;, sans-serif; font-size: 12px; font-weight: 200;" fill="rgb(50, 49, 63)" stroke="none" stroke-width="1px">6k</text><text x="527.8458333333333" y="0" dx="0em" dy="0.95em" style="text-anchor: middle; visibility: inherit; font-family: &quot;Helvetica Neue&quot;, sans-serif; font-size: 12px; font-weight: 200;" fill="rgb(50, 49, 63)" stroke="none" stroke-width="1px">8k</text><text x="633.415" y="0" dx="0em" dy="0.95em" style="text-anchor: middle; visibility: inherit; font-family: &quot;Helvetica Neue&quot;, sans-serif; font-size: 12px; font-weight: 200;" fill="rgb(50, 49, 63)" stroke="none" stroke-width="1px">10k</text><text x="738.9841666666666" y="0" dx="0em" dy="0.95em" style="text-anchor: middle; visibility: inherit; font-family: &quot;Helvetica Neue&quot;, sans-serif; font-size: 12px; font-weight: 200;" fill="rgb(50, 49, 63)" stroke="none" stroke-width="1px">12k</text><text x="844.5533333333333" y="0" dx="0em" dy="0.95em" style="text-anchor: middle; visibility: inherit; font-family: &quot;Helvetica Neue&quot;, sans-serif; font-size: 12px; font-weight: 200;" fill="rgb(50, 49, 63)" stroke="none" stroke-width="1px">14k</text><text x="950.1225" y="0" dx="0em" dy="0.95em" style="text-anchor: middle; visibility: inherit; font-family: &quot;Helvetica Neue&quot;, sans-serif; font-size: 12px; font-weight: 200;" fill="rgb(50, 49, 63)" stroke="none" stroke-width="1px">16k</text><text x="1055.6916666666666" y="0" dx="0em" dy="0.95em" style="text-anchor: middle; visibility: inherit; font-family: &quot;Helvetica Neue&quot;, sans-serif; font-size: 12px; font-weight: 200;" fill="rgb(50, 49, 63)" stroke="none" stroke-width="1px">18k</text><text x="1161.2608333333333" y="0" dx="0em" dy="0.95em" style="text-anchor: middle; visibility: inherit; font-family: &quot;Helvetica Neue&quot;, sans-serif; font-size: 12px; font-weight: 200;" fill="rgb(50, 49, 63)" stroke="none" stroke-width="1px">20k</text><text x="1266.83" y="0" dx="0em" dy="0.95em" style="text-anchor: middle; visibility: hidden; font-family: &quot;Helvetica Neue&quot;, sans-serif; font-size: 12px; font-weight: 200;" fill="rgb(50, 49, 63)" stroke="none" stroke-width="1px">22k</text></g><line x1="0" y1="0" x2="1266.83" y2="0" fill="rgb(0, 0, 0)" stroke="rgb(204, 204, 204)" stroke-width="1px"></line></g></g></g></g></svg>