<svg viewBox="0 0 1324.8294677734375 400" xmlns="http://www.w3.org/2000/svg"><g><g><g><g><g><line x1="58" y1="378" x2="53" y2="378" style="visibility: inherit;" fill="rgb(0, 0, 0)" stroke="rgb(204, 204, 204)" stroke-width="1px"></line><line x1="58" y1="340.2" x2="53" y2="340.2" style="visibility: inherit;" fill="rgb(0, 0, 0)" stroke="rgb(204, 204, 204)" stroke-width="1px"></line><line x1="58" y1="302.4" x2="53" y2="302.4" style="visibility: inherit;" fill="rgb(0, 0, 0)" stroke="rgb(204, 204, 204)" stroke-width="1px"></line><line x1="58" y1="264.59999999999997" x2="53" y2="264.59999999999997" style="visibility: inherit;" fill="rgb(0, 0, 0)" stroke="rgb(204, 204, 204)" stroke-width="1px"></line><line x1="58" y1="226.79999999999998" x2="53" y2="226.79999999999998" style="visibility: inherit;" fill="rgb(0, 0, 0)" stroke="rgb(204, 204, 204)" stroke-width="1px"></line><line x1="58" y1="189" x2="53" y2="189" style="visibility: inherit;" fill="rgb(0, 0, 0)" stroke="rgb(204, 204, 204)" stroke-width="1px"></line><line x1="58" y1="151.20000000000002" x2="53" y2="151.20000000000002" style="visibility: inherit;" fill="rgb(0, 0, 0)" stroke="rgb(204, 204, 204)" stroke-width="1px"></line><line x1="58" y1="113.40000000000003" x2="53" y2="113.40000000000003" style="visibility: inherit;" fill="rgb(0, 0, 0)" stroke="rgb(204, 204, 204)" stroke-width="1px"></line><line x1="58" y1="75.60000000000002" x2="53" y2="75.60000000000002" style="visibility: inherit;" fill="rgb(0, 0, 0)" stroke="rgb(204, 204, 204)" stroke-width="1px"></line><line x1="58" y1="37.80000000000001" x2="53" y2="37.80000000000001" style="visibility: inherit;" fill="rgb(0, 0, 0)" stroke="rgb(204, 204, 204)" stroke-width="1px"></line><line x1="58" y1="0" x2="53" y2="0" style="visibility: inherit;" fill="rgb(0, 0, 0)" stroke="rgb(204, 204, 204)" stroke-width="1px"></line></g><g transform="translate(48, 0)"><text x="0" y="378" dx="0em" dy="0.3em" style="text-anchor: end; visibility: hidden; font-family: &quot;Helvetica Neue&quot;, sans-serif; font-size: 12px; font-weight: 200;" fill="rgb(50, 49, 63)" stroke="none" stroke-width="1px">-0.1</text><text x="0" y="340.2" dx="0em" dy="0.3em" style="text-anchor: end; visibility: inherit; font-family: &quot;Helvetica Neue&quot;, sans-serif; font-size: 12px; font-weight: 200;" fill="rgb(50, 49, 63)" stroke="none" stroke-width="1px">0</text><text x="0" y="302.4" dx="0em" dy="0.3em" style="text-anchor: end; visibility: inherit; font-family: &quot;Helvetica Neue&quot;, sans-serif; font-size: 12px; font-weight: 200;" fill="rgb(50, 49, 63)" stroke="none" stroke-width="1px">0.1</text><text x="0" y="264.59999999999997" dx="0em" dy="0.3em" style="text-anchor: end; visibility: inherit; font-family: &quot;Helvetica Neue&quot;, sans-serif; font-size: 12px; font-weight: 200;" fill="rgb(50, 49, 63)" stroke="none" stroke-width="1px">0.2</text><text x="0" y="226.79999999999998" dx="0em" dy="0.3em" style="text-anchor: end; visibility: inherit; font-family: &quot;Helvetica Neue&quot;, sans-serif; font-size: 12px; font-weight: 200;" fill="rgb(50, 49, 63)" stroke="none" stroke-width="1px">0.3</text><text x="0" y="189" dx="0em" dy="0.3em" style="text-anchor: end; visibility: inherit; font-family: &quot;Helvetica Neue&quot;, sans-serif; font-size: 12px; font-weight: 200;" fill="rgb(50, 49, 63)" stroke="none" stroke-width="1px">0.4</text><text x="0" y="151.20000000000002" dx="0em" dy="0.3em" style="text-anchor: end; visibility: inherit; font-family: &quot;Helvetica Neue&quot;, sans-serif; font-size: 12px; font-weight: 200;" fill="rgb(50, 49, 63)" stroke="none" stroke-width="1px">0.5</text><text x="0" y="113.40000000000003" dx="0em" dy="0.3em" style="text-anchor: end; visibility: inherit; font-family: &quot;Helvetica Neue&quot;, sans-serif; font-size: 12px; font-weight: 200;" fill="rgb(50, 49, 63)" stroke="none" stroke-width="1px">0.6</text><text x="0" y="75.60000000000002" dx="0em" dy="0.3em" style="text-anchor: end; visibility: inherit; font-family: &quot;Helvetica Neue&quot;, sans-serif; font-size: 12px; font-weight: 200;" fill="rgb(50, 49, 63)" stroke="none" stroke-width="1px">0.7</text><text x="0" y="37.80000000000001" dx="0em" dy="0.3em" style="text-anchor: end; visibility: inherit; font-family: &quot;Helvetica Neue&quot;, sans-serif; font-size: 12px; font-weight: 200;" fill="rgb(50, 49, 63)" stroke="none" stroke-width="1px">0.8</text><text x="0" y="0" dx="0em" dy="0.3em" style="text-anchor: end; visibility: hidden; font-family: &quot;Helvetica Neue&quot;, sans-serif; font-size: 12px; font-weight: 200;" fill="rgb(50, 49, 63)" stroke="none" stroke-width="1px">0.9</text></g><line x1="58" y1="0" x2="58" y2="378" fill="rgb(0, 0, 0)" stroke="rgb(204, 204, 204)" stroke-width="1px"></line></g></g><g transform="translate(58, 0)" clip-path="url(#clip_0)"><clipPath id="clip_0"><rect width="1266" height="377"></rect></clipPath><g><g><g><line x1="0" y1="0" x2="0" y2="378" fill="rgb(0, 0, 0)" stroke="rgb(60, 60, 60)" stroke-width="1px" opacity="0.25"></line><line x1="105.56916666666666" y1="0" x2="105.56916666666666" y2="378" fill="rgb(0, 0, 0)" stroke="rgb(60, 60, 60)" stroke-width="1px" opacity="0.25"></line><line x1="211.13833333333332" y1="0" x2="211.13833333333332" y2="378" fill="rgb(0, 0, 0)" stroke="rgb(60, 60, 60)" stroke-width="1px" opacity="0.25"></line><line x1="316.7075" y1="0" x2="316.7075" y2="378" fill="rgb(0, 0, 0)" stroke="rgb(60, 60, 60)" stroke-width="1px" opacity="0.25"></line><line x1="422.27666666666664" y1="0" x2="422.27666666666664" y2="378" fill="rgb(0, 0, 0)" stroke="rgb(60, 60, 60)" stroke-width="1px" opacity="0.25"></line><line x1="527.8458333333333" y1="0" x2="527.8458333333333" y2="378" fill="rgb(0, 0, 0)" stroke="rgb(60, 60, 60)" stroke-width="1px" opacity="0.25"></line><line x1="633.415" y1="0" x2="633.415" y2="378" fill="rgb(0, 0, 0)" stroke="rgb(60, 60, 60)" stroke-width="1px" opacity="0.25"></line><line x1="738.9841666666666" y1="0" x2="738.9841666666666" y2="378" fill="rgb(0, 0, 0)" stroke="rgb(60, 60, 60)" stroke-width="1px" opacity="0.25"></line><line x1="844.5533333333333" y1="0" x2="844.5533333333333" y2="378" fill="rgb(0, 0, 0)" stroke="rgb(60, 60, 60)" stroke-width="1px" opacity="0.25"></line><line x1="950.1225" y1="0" x2="950.1225" y2="378" fill="rgb(0, 0, 0)" stroke="rgb(60, 60, 60)" stroke-width="1px" opacity="0.25"></line><line x1="1055.6916666666666" y1="0" x2="1055.6916666666666" y2="378" fill="rgb(0, 0, 0)" stroke="rgb(60, 60, 60)" stroke-width="1px" opacity="0.25"></line><line x1="1161.2608333333333" y1="0" x2="1161.2608333333333" y2="378" fill="rgb(0, 0, 0)" stroke="rgb(60, 60, 60)" stroke-width="1px" opacity="0.25"></line><line x1="1266.83" y1="0" x2="1266.83" y2="378" fill="rgb(0, 0, 0)" stroke="rgb(60, 60, 60)" stroke-width="1px" opacity="0.25"></line></g><g><line x1="0" y1="378" x2="1266.83" y2="378" fill="rgb(0, 0, 0)" stroke="rgb(60, 60, 60)" stroke-width="1px" opacity="0.25"></line><line x1="0" y1="340.2" x2="1266.83" y2="340.2" fill="rgb(0, 0, 0)" stroke="rgb(60, 60, 60)" stroke-width="1px" opacity="0.25"></line><line x1="0" y1="302.4" x2="1266.83" y2="302.4" fill="rgb(0, 0, 0)" stroke="rgb(60, 60, 60)" stroke-width="1px" opacity="0.25"></line><line x1="0" y1="264.59999999999997" x2="1266.83" y2="264.59999999999997" fill="rgb(0, 0, 0)" stroke="rgb(60, 60, 60)" stroke-width="1px" opacity="0.25"></line><line x1="0" y1="226.79999999999998" x2="1266.83" y2="226.79999999999998" fill="rgb(0, 0, 0)" stroke="rgb(60, 60, 60)" stroke-width="1px" opacity="0.25"></line><line x1="0" y1="189" x2="1266.83" y2="189" fill="rgb(0, 0, 0)" stroke="rgb(60, 60, 60)" stroke-width="1px" opacity="0.25"></line><line x1="0" y1="151.20000000000002" x2="1266.83" y2="151.20000000000002" fill="rgb(0, 0, 0)" stroke="rgb(60, 60, 60)" stroke-width="1px" opacity="0.25"></line><line x1="0" y1="113.40000000000003" x2="1266.83" y2="113.40000000000003" fill="rgb(0, 0, 0)" stroke="rgb(60, 60, 60)" stroke-width="1px" opacity="0.25"></line><line x1="0" y1="75.60000000000002" x2="1266.83" y2="75.60000000000002" fill="rgb(0, 0, 0)" stroke="rgb(60, 60, 60)" stroke-width="1px" opacity="0.25"></line><line x1="0" y1="37.80000000000001" x2="1266.83" y2="37.80000000000001" fill="rgb(0, 0, 0)" stroke="rgb(60, 60, 60)" stroke-width="1px" opacity="0.25"></line><line x1="0" y1="0" x2="1266.83" y2="0" fill="rgb(0, 0, 0)" stroke="rgb(60, 60, 60)" stroke-width="1px" opacity="0.25"></line></g></g></g><g><g><line x1="0" y1="340.2" x2="1266.83" y2="340.2" fill="rgb(0, 0, 0)" stroke="rgb(153, 153, 153)" stroke-width="1.5px"></line></g></g><g><g><line x1="105.56916666666666" y1="0" x2="105.56916666666666" y2="378" fill="rgb(0, 0, 0)" stroke="rgb(153, 153, 153)" stroke-width="1.5px"></line></g></g><g><g><g><g><g><path stroke="rgb(0, 153, 136)" stroke-width="2px" d="M106.45594766666666,155.26231552362444L106.51928916666665,156.53550314605232L107.06824883333333,156.43606551545003L107.553867,158.40550717347685L109.09517683333333,155.56081001197688L110.4042345,157.9243561165449L110.50980366666666,159.2873719558927L110.95319416666666,159.88432131648986L111.33324316666665,159.2339666344109L112.07222733333333,160.79228889808797L112.11445499999999,159.2846007850001L112.28336566666665,159.96864586772395L115.57712366666667,165.56988333065024L116.88618133333333,165.1909573827537L117.79407616666666,169.11793732663918L117.941873,170.94702634979285L118.95533699999999,175.85879015880153L119.22981683333333,172.49374496922962L119.73654883333333,171.94879961975576L120.64444366666666,181.5358138600992L120.81335433333334,173.931720589532L122.14352583333333,173.3056644905068L122.50246099999998,173.80605356022002L122.62914399999998,172.95835623163958L123.22033133333333,172.60043870865755L126.07069883333332,171.08281668384825L126.97859366666665,170.90122200237366L128.07651299999998,175.624662426906L128.87883866666667,188.66033440472228L130.48349,184.62896979402322L132.19371049999998,202.3377180781473L133.3549713333333,193.03869335353755L133.41831283333332,189.32146556091305L133.7139065,182.42122058000214L133.79836183333333,209.9851800693505L134.81182583333333,201.3518370556507L134.95962266666666,191.29878749870542L135.8886313333333,187.2709020418765L136.52204633333332,182.63987676797763L137.72553483333334,179.91530340127596L138.337836,178.20337871183213L138.67565733333333,181.49015841802728L139.01347866666666,180.34049157300637L141.27265883333334,186.34041450603863L142.18055366666667,181.34034699736156L142.24389516666665,180.53732857304644L144.50307533333333,182.77714556462703L144.96757966666667,196.48922037398094L145.19983183333332,187.72266743240033L146.04438516666667,182.9998100426845L146.4033203333333,205.94397131853816L146.67780016666666,193.01699114470009L148.55693133333332,191.85019751446234L149.82376133333332,223.47527289904565L151.74512016666665,242.40988028835895L151.99848616666665,221.27084980958884L152.67412883333333,219.13587271782222L152.8008118333333,209.0991475129857L153.32865766666666,202.8726746335462L154.27878016666665,201.61999159901347L156.0101145,200.24703861861823L157.00246466666667,208.21563145154374L157.36139983333334,217.28232415576977L157.4036275,211.5598012498629L157.50919666666667,236.30028105805L158.03704249999998,220.91704591411158L158.05815633333333,206.87220791040545L158.31152233333333,192.61258582984615L158.4170915,188.72274647662167L159.02939266666667,188.5941877323933L159.34610016666664,194.80367684594074L162.25980916666666,195.13581801075506L163.42107,196.1764252031968L168.21391016666666,199.374896498032L169.71299233333335,193.01175600260945L169.77633383333333,192.9530994341997L171.00093616666666,190.9984688714878L172.30999383333332,187.78371923182823L173.76684833333331,190.8075632441903L174.06244199999998,191.5669574897805L174.10466966666664,207.54786826618425L174.12578349999998,232.09643787293382L175.35038583333332,214.26585795252768L179.04530666666668,208.4075555239275L181.95901566666666,168.383466763148L182.00124333333332,144.53714552572328L183.05693499999998,142.55057470709656L184.55601716666666,148.19872418350323L185.65393650000001,146.0027352100989L186.097327,151.47968151607398L186.2451238333333,145.77509412311483L188.50430399999996,151.49339820112567L189.0954913333333,156.12328559139837L189.68667866666664,158.08095709550065L190.78459800000002,159.43524568598082L192.09365566666668,165.90786393952735L194.1628113333333,168.67946635050993L194.81734016666664,168.22819649674548L194.92290933333334,170.7503402966145L196.71758516666665,177.36080882655878L196.7598128333333,179.43976387087883L198.47003333333333,200.3116339534782L200.412506,217.80235601486342L200.77144116666665,226.67236322058187L201.21483166666664,199.27931570227713L204.04408533333333,197.70816102037293L204.12854066666665,183.45932754999077L204.29745133333333,174.8201756115298L206.66220066666665,180.38824761602524L206.9577943333333,181.4251837819412L207.76012,190.20570477066008L208.013486,206.49723144184094L208.90026699999999,206.33948886758412L210.52603216666665,218.21827457646327L212.194025,207.09190258443235L212.23625266666667,214.71087435400415L213.37639966666663,213.6598698873277L213.96758699999998,217.52536577337716L216.18453949999997,211.4163068482502L218.4226058333333,198.3649258631005L218.7181995,201.8983834086379L220.0061433333333,207.27623209825282L222.72982783333333,187.79781884116602L225.47462616666664,183.3361578879516L226.4036348333333,176.27014597521784L228.19831066666666,168.53564408461193L228.6205873333333,170.99263126754724L229.3806853333333,176.14629313888526L229.52848216666666,190.92788330520617L230.28858016666663,179.16804082754507L230.73197066666665,171.70549035288846L232.04102833333332,167.93776269565794L232.463305,166.02335765725834L234.80694049999997,165.643862745562L235.0180788333333,164.9515226539366L236.47493333333333,163.87716743566946L236.74941316666667,186.1325255275867L236.87609616666666,177.8162123752297L237.150576,173.66179891065724L238.3540645,169.15568969509582L238.83968266666665,168.24600164092527L240.19096799999997,170.86420882223217L243.23136,189.20107944773537L244.37150699999998,186.70913830260577L244.98380816666665,183.68026461398688L246.12395516666666,185.00717408058694L246.94739466666664,183.467108412967L247.01073616666667,185.90976939939608L247.26410216666665,181.56650657143086L247.918631,188.53658480337793L250.28338033333333,183.19190168196877L252.64812966666665,183.47804892429662L253.1970893333333,183.83195539217562L255.60406633333332,186.08103897989614L255.77297699999997,188.1624618269254L256.63864416666667,188.1414348350316L258.58111683333334,212.85928035654723L259.93240216666663,238.0751972417718L260.94586616666663,222.44769319896017L261.43148433333334,208.9899022686727L262.86722499999996,200.63787656952422L263.0783633333333,198.63961378770756L263.14170483333334,209.4269703438144L263.4584123333333,198.07211810888418L264.1551688333333,195.3008730372284L267.9978865,227.3946189785298L269.4125133333333,211.11582500840998L270.00370066666665,197.51655621472463L270.214839,192.9693955418078L270.95382316666667,202.68967277506638L274.2898088333333,195.01659142672807L275.8733463333333,217.95569811165208L278.28032333333334,225.74505459487366L279.1459905,213.47367184174016L281.5318536666667,250.21676622397874L282.14415483333335,263.61376210073934L282.24972399999996,230.02383120548907L282.4397485,250.35371697242368L284.3399935,223.82320028004236L284.40333499999997,209.12503701601736L284.99452233333335,199.2686970886845L285.20566066666663,210.52498354537835L287.16924716666665,208.33335875763626L287.8871175,218.3667138820537L289.1539475,225.95245187793066L291.77206283333334,226.67647146054438L293.017779,205.1527838448783L293.56673866666665,226.2804588091433L293.6300801666667,248.0218453581369L294.07347066666665,231.55264739127372L294.2212675,218.19848504502423L295.4458698333333,239.721151194804L295.5725528333333,244.83906595100947L296.7549275,265.9709808110594L301.0832633333333,192.09825752731555L302.26563799999997,179.407604905107L302.94128066666667,172.18369489916464L304.7781841666667,168.07368563895403L305.47494066666667,165.14906160882103L307.14293349999997,163.79015356094231L307.29073033333333,149.60097276324387L307.56521016666665,154.10319058867907L308.8320401666666,157.5743948791779L309.46545516666663,159.16688860978823L309.95107333333334,160.1405399699577L310.3311223333333,160.6162010991316L313.39262816666667,162.59845053218254L314.74391349999996,173.16326911367443L317.9321023333333,178.83747281979007L318.481062,183.8504874655633L322.53491799999995,212.80907820636207L322.6827148333333,242.7457136617552L325.068578,255.76040396609608L325.1319195,263.0131978292388L325.57531,258.85383505696785L326.8210261666667,207.8416103832408L327.72892099999996,235.39052227690723L329.52359683333333,208.05367725107018L330.17812566666663,190.70395759232605L330.515947,178.0307962911592L330.8748821666666,183.971841531829L331.71943550000003,178.11452823033093L332.69067183333334,179.71681143015718L332.71178566666663,178.59794415217695L333.17629,178.23502653826512L333.9152741666667,183.29111129515908L334.4642338333333,184.19508840604746L334.6542583333333,185.22752777793482L335.7521776666667,190.0307488731055L335.81551916666666,207.3704940778916L336.5333895,197.30250599282414L336.6178448333333,202.2744324868764L337.103463,233.94140785609758L337.230146,250.74013923689768L337.2723736666666,269.111432545692L338.24361,275.5964768775167L339.97494433333327,204.28535478877197L340.37610716666666,235.7028279922436L340.56613166666665,221.51446895015422L342.0018723333333,236.6774784744512L342.0441,249.76602914933747L343.31093,257.20860326173533L346.6680295,196.86027727533954L347.78706266666666,208.27364417797077L348.2093393333333,178.08904152921286L348.86386816666663,183.234134808847L349.0538926666667,185.42606982211393L349.4128278333333,179.20440395724845L349.771763,174.07722716839356L351.5030973333333,187.4587260133698L351.98871549999996,197.4591165379688L352.2843091666667,225.39320508694678L353.8467328333333,228.6319789937498L356.2537098333333,243.6959237296201L358.2806378333333,226.2177438329945L358.38620699999996,240.7578222555691L359.1463049999999,223.32944113509498L359.8008338333333,216.07372505245593L361.8488756666667,215.60384673820727L362.3978353333333,216.4425490364241L362.48229066666664,204.5264684763436L362.82011199999994,199.57509041350391L363.706893,189.40970738721674L365.05817833333333,194.4299151467847L365.1215198333333,200.18026385590838L365.4593411666666,200.8719039361799L367.48626916666666,207.04268794543293L368.60530233333327,205.69640778354852L373.1025488333333,206.96234302313354L373.6937361666666,224.56615092391507L375.9318025,242.56400796672546L377.45199849999995,243.54032815516496L378.7610561666666,220.95384474885765L380.4079351666667,216.85206285174075L380.7668703333333,229.32926134976972L381.3369438333333,217.12666402765052L381.7803343333333,220.16693975512945L382.0337003333333,212.32832211723783L382.35040783333335,196.08854720157893L383.55389633333334,219.79805364586423L384.39844966666664,211.8773184727282L385.0952061666666,202.31628450099532L387.41772783333334,197.73546810831968L388.53676099999996,184.8915364306351L388.62121633333334,210.3283301020372L389.04349299999996,174.53265001205853L390.69037199999997,165.7401971735254L391.57715299999995,195.1144490955886L392.6539585,175.51134846202237L393.13957666666664,169.8613158845407L394.3852928333333,170.77599783322228L394.4486343333333,177.00072713125357L396.43333466666667,186.99153850214847L397.151205,196.52998711190918L397.89018916666663,204.30650013877334L398.71362866666664,218.47635061140886L400.65610133333325,219.34804937479512L401.1206056666666,235.06756572745812L402.85193999999996,231.6534994698916L405.82899050000003,212.8420198403212L407.2225035,208.0960633112438L407.3703003333333,203.05969096621558L407.5603248333333,195.75562001586368L407.91926,191.22939194512614L408.172626,199.74220815940052L408.29930899999994,193.47442307736486L409.5450251666666,199.81091971079118L410.6007168333333,191.67756671714548L411.593067,182.27217113857128L412.9232385,200.3881798546592L414.50677599999995,188.55379364735361L414.63345899999996,199.95510107664154L415.266874,196.61173188202315L415.4568985,193.89099607654055L415.6680368333333,205.47075635545036L417.6105095,193.74753648729674L417.80053399999997,182.7861772268507L417.8849893333333,167.71718966779073L418.2439245,171.72084470162963L419.5952098333333,169.21402166110383L419.9963726666667,172.31596199644864L422.8467401666666,185.41016283496177L424.1769116666666,179.3784837941167L425.148148,198.86116816400514L426.0771566666666,209.90622014164344L427.8929463333333,194.7794365117515L429.11754866666666,183.91700869259626L432.26350983333333,181.5754958764159L432.30573749999996,176.10771615835688L432.9813801666666,175.21657147605814L433.63590899999997,172.04058706402537L434.88162516666665,193.4253140237317L437.9009033333333,180.81385810532484L438.40763533333336,170.43177809809634L438.5976598333333,169.14383244094245L439.75892066666665,164.28820841537112L442.9471095,170.47351955071807L443.2427031666666,186.69184579548667L445.3963141666667,176.31234688101665L445.83970466666665,172.19316508375675L448.6478445,167.09850451232833L450.16804049999996,167.6359851937404L450.6325448333333,166.38074440127082L450.99147999999997,170.97322210768144L451.96271633333333,167.51084312140514L452.68058666666667,167.16476276600102L454.0529858333333,166.71347813536966L455.7420925,165.25752802807241L457.3467438333333,178.4020912225136L458.10684183333325,170.395108226245L460.4504773333333,173.88896716314872L460.47159116666666,168.55664738105727L461.18946149999994,165.25862124494907L461.48505516666665,165.47857150871872L462.37183616666664,180.13574310683796L465.89784633333335,173.2041507562613L466.55237516666665,178.40875461582038L467.2702455,172.01112246324834L469.55053949999996,168.6296656168116L470.24729599999995,165.9215538332828L470.627345,166.51153501927664L470.6695726666666,166.65607968485244L471.1763046666666,164.57224879453116L471.19741849999997,163.93201912992916L471.26075999999995,170.12669996234013L471.66192283333334,170.21964881785053L472.40090699999996,171.10613774518575L473.0554358333333,167.75896334684137L473.87887533333327,172.24887652895595L474.0900136666666,177.05861034692373L475.9691448333333,172.4023426026168L476.26473849999996,180.76559148610013L476.87703966666663,175.95021044719445L477.0459503333333,193.06678600494996L477.65825149999995,189.2285614739951L479.7485209999999,182.66284110612253L484.6258165,189.52171844998944L485.2170038333333,186.14090366101235L485.4070283333333,183.52297940096835L485.9982156666666,214.48208227778423L486.7371998333333,206.42337424650756L486.99056583333333,195.72700109419208L488.34185116666663,202.29438361607183L491.19221866666663,159.44842437435503L492.33236566666665,164.76456790166682L495.14050549999996,159.2199236023282L495.16161933333325,163.13523718999954L498.117556,183.5108165626951L500.6723298333333,181.19922432692215L500.8201266666666,183.0488509070359L503.4593558333333,182.30071667501224L505.84521899999993,178.91912381928498L506.2463818333333,153.66092632938228L506.83756916666664,164.3521511288214L507.30207349999995,182.45075005362796L507.74546399999997,174.98872839731197L509.1812046666666,171.95602593494786L510.3002378333333,177.60423375650245L511.52484016666665,177.32872127463818L512.4538488333334,175.75382561546803L516.9722091666666,185.5077343932524L517.3522581666666,183.99879285286278L517.8167625,181.4626167380238L517.9434454999999,191.56709238549615L520.2448533333334,187.28097983277172L520.540447,184.39949012325008L520.7726991666667,186.26692810848834L521.93396,199.0793344020574L522.1662121666667,192.68723563669494L522.2928951666667,197.13101382922156L523.5386113333333,196.8858598033847L524.1086848333333,191.14844534637103L524.594303,187.37074200297337L526.0722713333333,185.67424219122498L526.5367756666667,195.87589665693622L527.2335321666667,221.61441994454015L527.7402641666666,197.3591904017064L528.5848175,185.99295472220976L528.9648665,183.44785003612276L529.0915495,187.08674624889994L529.154891,220.3483427651519L530.7595423333333,209.71675252722468L530.7806561666666,199.69108374480467L531.7730063333333,191.09667735316788L532.4275351666666,188.9103132833149L532.9976086666667,192.1133613603774L533.0609501666667,197.21187239274167L533.1665193333333,231.0102227818059L534.6656015,262.0593140465669L534.8978536666666,272.12253210679603L535.9324314999999,250.94669238648362L537.1359199999999,226.45878487063376L538.0860425,239.81825400610524L538.9517096666666,245.12931350481367L539.2261894999999,258.52933174617203L539.2473033333333,271.5944879951901L539.7118076666666,271.3414600362078L540.049629,259.9995746463356L542.3932645,235.60323888837203L542.836655,233.49914502846542L544.2935094999999,216.47556462614145L544.356851,200.59148037152534L544.3779648333333,196.51113069365647L545.3914288333333,212.7636516398801L545.8981608333333,232.59762394348462L548.6851868333333,247.7701514763813L550.3742935,220.54065500993613L550.6487733333332,202.04504809438635L552.0000586666666,199.85152074372442L553.3724578333333,202.033376750205L553.858076,199.1601568131769L555.631638,210.9112455456927L555.6949794999999,212.16804922160355L555.8005486666666,210.57926004729777L557.2151755,221.86111470700564L557.5952245,215.03380316162864L559.178762,239.78841918983912L560.0022015,253.26860256838114L563.3381871666667,264.4530147710282L564.2249681666667,266.87332382672065L564.246082,266.43942236705436L565.6184811666667,272.9972039139498L565.7451641666667,261.05871556736406L566.2941238333333,263.85030024848805L566.7375143333334,266.41919591666715L566.8641973333333,269.46933929587277L570.2001829999999,270.60721230068725L575.2463891666666,276.1524355790551L575.520869,269.49929489264105L576.2387393333332,268.73466925841103L576.7454713333333,230.8786523450704L577.041065,126.12260101969787L577.6322523333333,64.47774355134817L580.0392293333333,85.41604069066909L580.7782135,106.39617323871181L581.5594253333334,136.93426089761093L583.4807841666667,141.37256389902493L586.2255825,175.24036537913358L587.80912,185.61194489066528L589.709365,185.16571291962103L589.7727065,184.60758641647598L592.87644,172.11110856585088L592.9608953333333,155.55061673672427L593.8687901666666,206.46533996076244L594.1010423333332,201.9794999540499L594.3121806666667,209.1109577572734L595.030051,200.01961938359685L595.2411893333333,192.2574215925833L595.7901489999999,205.99777967197303L596.7402715,238.70206478394633L597.2258896666666,257.62419917558174L598.3026951666666,237.62510752185904L598.8094271666666,217.29477677526904L599.2105899999999,221.46570297827023L600.2029401666666,206.13092587917865L602.5888033333333,203.1027154167284L603.6233811666666,194.53987038849527L605.3336016666666,234.0693043978139L605.5658538333332,229.1219797486737L605.9881305,210.44215426651684L607.5294403333332,198.06660842065838L608.7329288333333,196.4065932748605L610.992109,203.7861515520745L613.9691595,205.72333185188376L614.792599,211.12740016646623L615.4049001666666,198.18305629174378L617.2418036666667,194.66635264444628L618.2552676666667,234.81878864936994L618.2974953333332,226.68926871402843L619.099821,229.1554139219748L619.5854391666666,210.90533222216527L621.0845213333333,199.12495111380912L624.0615718333332,233.5768303737336L625.4128571666666,261.0387214985665L627.0175085,258.5625060705648L627.4820128333333,270.7148015730563L627.6509235,269.9933354325881L630.8602261666666,272.0421897022599L631.3247305,265.5006978230878L632.021487,260.86790840609103L633.5839106666666,266.3079019402458L634.4073501666667,241.50175459951123L636.2231398333332,200.50859477859714L637.7644496666666,175.21343154634226L638.2922955,152.29455528095477L638.5667753333333,175.254877509088L638.7567998333333,179.4936477836434L640.4247926666666,145.5957953558245L641.6705088333332,138.86044765149825L644.0774858333333,142.11103709599539L644.3941933333333,120.87784545934898L646.0621861666666,168.43194164107263L647.8990896666666,190.48377789300693L649.7782208333333,223.25702301288848L650.5594326666666,229.80754678502805L651.2984168333332,247.58919609698725L652.8608404999999,255.53425726838753L655.4789558333332,265.4250645300617L655.9223463333334,271.3641699040455L656.1123708333333,277.6285398223711L656.4501921666666,267.27456915966945L657.7803636666666,259.60417366857695L657.8014774999999,252.34267741224392L658.0970711666666,254.07112504590287L660.6940726666666,266.66825452058754L660.9263248333334,267.12895654087805L663.0377081666666,275.87827937153304L664.452335,277.4418696471889L668.6751016666667,276.24069122009513L671.3565585,268.05643341739795L671.3776723333333,272.2651391899575L671.9899734999999,285.07241382336554L672.0322011666666,285.30652313790284L674.1224706666667,290.69283321596123L677.2895456666665,293.54140717921814L678.6408309999999,298.9827076967845L678.767514,301.31882468797505L678.894197,302.5174371226891L678.9786523333333,295.88498000528006L678.9997661666666,300.4198095025157L681.427857,298.81110718855473L682.5891178333334,298.2260224628998L685.1227778333332,300.74867078593684L686.3051524999998,282.60887629825663L688.3743081666667,266.6482322921681L688.5854464999999,283.36165975870654L688.7332433333332,288.7001962312577L689.1132923333333,278.4808927493404L690.3167808333334,290.4260666845507L691.2457894999999,288.70041477431454L693.0615791666667,296.0960634741163L694.9829379999999,294.4318019433603L695.0251656666666,294.18360152624757L695.7008083333333,279.2571207140846L696.0808573333333,291.778674854932L702.0560721666667,298.64154560690986L702.6050318333332,297.5145579822413L703.5340405,300.9312864379616L704.6953013333333,302.16731931665726L706.004359,304.2583255690288L706.2788388333333,304.71327258360094L708.2213115000001,307.55680934793776L708.8336126666666,304.4287573457183L709.6570521666666,287.36957035305625L715.5689254999999,284.36293964768964L717.2369183333334,273.78436419955204L717.7858779999999,286.5423100733239L718.2503823333333,277.60150959631676L718.6515451666667,289.6862845739178L719.1793909999999,279.9271973252566L719.5172123333332,292.88059085370725L719.7705783333333,291.02024662829416L720.6784731666665,290.71785052500354L722.1142138333332,281.20702794004785L723.4232714999999,288.59417698746506L727.8149488333333,293.38565416792386L727.9627456666666,293.8871424463949L728.1527701666666,297.0459935991502L729.2084618333333,294.581157351049L729.2718033333333,294.4834609046651L729.7151938333333,298.80104412407115L730.3697226666667,298.8132389400628L730.7708855,296.4578158792392L733.6423668333332,294.4307868967376L735.3525873333333,300.0738439899636L735.3737011666666,305.59508488905146L736.0915714999999,306.1322519667847L738.9841666666666,300.6243529777469L739.0897358333333,299.49585911278376L739.6386954999999,299.28205072548656L740.6099318333333,302.4819286910693L740.9266393333332,299.77308234739303L742.6579736666666,287.8578309176445L743.5658685,296.70696190226556L744.1148281666667,298.86297942416957L744.9804953333332,308.14957269440345L745.8883901666666,311.0463653755799L748.6754161666665,311.1345689435372L748.8232129999999,298.59174785730653L748.9076683333333,300.3935137660349L751.0612793333332,299.2089231581119L751.9058326666667,305.80617759529514L753.8905329999999,303.3125868183599L754.1861266666667,306.6926473034755L754.5661756666666,305.4903403838477L755.4529566666666,304.2686246871949L761.1959193333333,307.43664158105855L762.3149525,304.9573821337223L764.8274986666667,305.76013518519403L768.6702163333333,311.3138983902168L769.4514281666667,297.3097577295799L771.4361285,289.60255501759644L774.793228,296.5756713503158L775.3421876666666,302.80072500905726L776.186741,301.20482494474254L777.1579773333334,304.2166934301901L778.5303765,308.27737027230546L778.6781733333333,302.4937577165525L778.847084,305.52297508700855L779.860548,304.45553769340614L780.0505724999999,306.73541266602575L781.2962886666667,287.22769743014754L781.5707685,296.7546451008879L784.6322743333333,290.6523633835651L784.8856403333333,292.9782946478091L785.5823968333333,299.6003092259623L786.4691778333333,303.8811028665577L787.8415769999999,282.51704485096184L789.4040006666665,294.69102101133853L790.3963508333333,296.0607017422115L791.76875,292.96873973753424L792.3810511666666,297.900905965247L792.655531,289.1176608243455L794.1123855,297.61118975990235L794.1757269999999,303.64195680924183L795.0836218333334,297.98957100574927L796.1181996666666,301.03635171571227L797.3005743333332,302.4716179270676L800.0876003333334,285.5160873281438L800.256511,280.53942812844986L800.4043078333333,277.4623933921151L802.3678943333332,275.9671783310111L802.6212603333332,286.3342209066114L803.043537,283.9801235368944L805.450514,284.2002201706825L805.5349693333333,288.96208092037784L806.1050428333333,295.54587069907154L806.1472704999999,287.19896387194615L808.0475155,288.56915250977886L809.5254838333333,284.2864951512874L810.0955573333332,284.5312555373705L810.2433541666666,292.8394315732119L810.3066956666667,298.1867344243883L810.8345415,303.4580723967289L813.7060228333332,293.08152298963876L815.6484955,297.9540425815392L815.7962923333333,297.426197639597L817.6965373333333,295.8452471193626L817.8865618333332,294.2701031790349L818.1399278333333,297.919148081909L818.5410906666666,297.997940726501L818.9000258333333,294.02881468261614L820.0401728333333,299.84626010492644L820.2935388333333,305.921516074152L820.8213846666666,311.8827037640877L821.6025964999999,299.63799714496537L822.8271988333332,302.91855580360175L823.7984351666666,304.1914516004949L824.1995979999999,301.15513936239654L824.3473948333334,290.39112540696965L825.3186311666666,299.1554858828479L826.4165505,300.901093985134L826.479892,293.01433196872097L827.2188761666666,300.1581520856L829.9636744999999,302.53703772429094L831.0615938333333,307.2774569106308L831.0827076666667,302.3340150768881L831.5260981666667,281.17459945293217L832.6873589999999,289.58276061542006L834.5242624999998,283.2817313261459L834.5453763333333,294.07873816297234L835.3477019999999,286.27157070520985L836.0866861666667,275.0714109842984L836.2767106666666,279.73949043661406L837.1001501666666,292.76663629120617L838.1347279999999,290.01651561681047L839.2959888333332,297.9881147815205L839.9716315,303.31727916320665L841.9774456666665,306.56848275137247L845.1867483333333,289.29181339903056L846.2213261666667,293.90873273231614L846.9814241666666,301.9909337330939L848.2904818333333,305.2186164587189L849.916247,305.99025442060525L849.9795885,302.7626364151042L851.5842398333333,288.33038283582937L852.0276303333333,275.4778869867111L852.1965409999999,285.9328970968595L852.4710208333333,284.29555459856215L852.5132485,295.1366924514724L852.6399315,295.60036540331566L854.7090871666666,297.47331795753314L854.7513148333333,279.58667286909383L856.5882183333333,286.41942256973243L856.6515598333333,290.31568005136285L857.2216333333332,296.7500990226962L860.8320988333332,299.18935509771694L860.9798956666666,303.2824994686281L862.3734086666666,287.0614442254922L862.4789778333333,299.8159431013954L864.6748164999999,304.3908124907906L865.0337516666666,292.5197807326374L866.4483784999999,289.0800964387928L866.8706551666667,290.0075956483289L869.1298353333333,287.73324575302627L870.2277546666666,292.8389281396724L870.5444621666667,298.48199607996094L870.8611696666666,299.0567985407588L871.198991,294.7097312159584L871.4734708333332,297.1702969626931L872.212455,286.81343195655035L872.6136178333333,296.23059457312877L872.7614146666666,300.6201611016444L877.6809378333332,302.28257947172233L878.9477678333333,305.34083621386L879.5811828333333,292.62491975714744L879.9823456666666,299.26384014660107L881.8614768333333,301.92172541960474L882.6849163333333,301.88035747137303L882.7693716666665,304.24046699718616L882.9593961666666,307.46191853473175L883.0860791666667,300.3040493070459L883.613925,300.9376040768251L884.8174134999999,303.4441595227495L887.9000331666666,300.45925694888683L890.3492378333333,305.5376328825107L891.0459943333333,302.2353157746286L893.3474021666667,305.30919078752345L893.4740851666667,303.2721003566083L893.6641096666666,297.2487356277643L896.3877941666666,300.46989934994804L897.1056644999999,294.8125129828097L898.6258605,291.73404291684875L902.5108058333333,281.6808142794099L902.9119686666667,279.4739548810081L903.8198635,293.61588852570986L905.276718,302.17971189478953L909.8161921666665,299.28453462398005L911.9486893333333,304.9779311887977L913.1099501666666,292.1351608367298L913.4266576666665,283.2864717132768L914.8835121666666,280.5277036289525L915.6013825,288.7182854914756L917.1638061666666,298.8394280126149L917.5016274999999,303.82161998334254L917.7338796666667,309.03346915771203L918.45175,309.05705826002145L920.1408566666667,314.11294909010996L921.4288005,307.12486818129224L921.4499143333334,307.74829654988287L922.6745166666667,305.45117481885336L923.0967933333333,299.4623705216526L924.0046881666667,304.47080801417104L924.1102573333334,282.34632280641597L925.6304533333333,293.52972488983755L928.6075038333332,280.90133842339685L929.093122,269.6101511914168L929.1142358333334,280.01489972344837L931.9857171666666,293.9937897626865L934.0126451666665,291.4263969650452L935.2583613333333,292.8550942463031L935.4906135,300.61244400753685L941.4869421666666,301.25612768062416L942.3526093333332,290.7783461173085L943.8305776666666,283.81911080120256L944.421765,294.0477875997916L945.4985704999999,300.90663048090306L947.5466123333333,309.6583286032782L947.715523,306.2513286164824L948.2011411666665,287.0824384076252L948.3067103333333,292.6379369713577L948.6656455,298.7599759219713L949.742451,299.04493040434284L950.5447766666666,299.8913117014871L954.8519986666666,297.7517472352687L956.3721946666666,294.7578751639189L958.5891471666666,296.5128158614434L960.4260506666666,302.77360896261916L960.6794166666666,282.04534923310507L961.3550593333333,291.964336187097L961.9462466666665,298.8291531374768L963.7831501666667,303.30385936204885L963.9942884999999,300.7644521695631L964.1209715,297.5785710443412L964.2054268333333,299.096724671683L964.8599556666667,289.8657620612152L964.9021833333334,297.9363960530381L965.197777,287.2838294736159L965.3244599999999,288.0208424515493L966.8657698333333,298.0392292360644L972.0808866666666,297.54744612575655L973.938904,303.92754230619124L974.4878636666666,307.16094880414397L976.3881086666667,311.99813828416103L976.9581821666666,312.37683371512554L978.4361504999999,297.71474899416245L979.8718911666666,299.5703718624418L980.2097125,298.4357267166319L981.6032255,299.83581331522123L982.6166894999999,308.6305038419417L982.9545108333333,304.8578962306411L983.5668119999999,292.37966262699547L984.0946578333334,300.09200996876586L984.4958206666666,305.25495503855245L987.5362126666665,303.0126153785735L987.7051233333332,296.94302268259224L989.0564086666666,300.092498142913L989.6264821666666,294.7504777237147L992.4768496666666,296.8362735870105L992.6246464999999,303.229130419649L993.0046955,300.4909341696246L995.1794203333333,294.7933162238207L995.6861523333333,286.27888800299206L995.8972906666667,296.07137511012576L996.1928843333333,291.13520620249284L997.5019419999999,296.7042683230792L999.5077561666667,301.5007795779082L1000.9012691666667,304.2220877032383L1001.175749,307.1995795071664L1001.8513916666667,300.4384278524245L1002.2314406666667,302.40638943602596L1002.4425789999999,303.7978372209665L1002.8859694999999,307.09221457918864L1005.1873773333333,307.5748342113518L1006.6653456666666,300.0138354967131L1008.7345013333332,291.16726036966406L1011.2048198333333,299.5225832873616L1012.0071454999999,287.2383078750392L1012.703902,296.5893814800036L1013.0628371666666,302.1369693766744L1013.8862766666666,307.60530306522315L1018.9958243333333,306.32867714419524L1019.3336456666666,308.90443699630833L1022.3740376666667,307.57596506400546L1023.4719569999999,288.66561849429394L1024.4009656666665,298.67338010259976L1025.1399498333333,299.05049792759723L1025.7733648333333,282.8596189655847L1026.2800968333333,294.6356041918985L1026.7868288333332,307.7651310545678L1026.9557395,307.0670439995811L1027.1879916666664,302.86661823257714L1027.2091054999999,300.1452122239167L1028.4759354999999,305.25930913018556L1029.046009,303.6354039104424L1029.1304643333333,307.92332103083385L1029.4471718333332,305.46279922741564L1029.9961315,298.58929264794534L1030.2283836666666,303.40749980241503L1030.4606358333333,307.8153658570674L1031.1573923333333,311.0190178836481L1032.9520681666665,294.9994786956963L1034.0711013333332,292.4253229653274L1034.1555566666666,298.4677328130862L1034.4300365,300.07016237624055L1036.1191431666666,302.3522204747651L1036.2035984999998,301.544594721249L1036.773672,305.48305124297815L1036.9636965,310.2746937576239L1038.8005999999998,297.9110320081296L1038.9483968333334,297.9837118893852L1039.8774055,289.56692829072415L1040.9964386666666,296.98992473566494L1041.7354228333334,292.5961130588291L1041.8198781666667,286.314233434739L1043.107822,288.10011781486406L1045.1558638333331,292.37308269758546L1045.9581895,285.3060809541912L1046.9294258333332,292.6829847901566L1046.9505396666666,278.1862754755916L1047.0138811666666,290.6723480590404L1048.1962558333332,305.2711078374517L1049.9698178333333,309.4877034919818L1050.4765498333334,310.9787082420206L1051.5111276666667,301.1150450841436L1051.8067213333334,297.7145151266962L1054.9315686666666,300.0002271979755L1055.5649836666666,303.20914743123683L1056.8106998333333,293.60669004069706L1057.8875053333331,291.63158364264336L1062.236955,300.6708612082491L1062.4269795,301.5813028405958L1062.8492561666665,300.8442352515968L1063.5037849999999,306.35171515241336L1063.5460126666667,306.4726310628359L1066.3963801666666,306.7090419612947L1067.1564781666666,309.715217200674L1068.085486833333,310.03653907523L1069.331203,309.84950533238316L1069.584569,289.8238854737715L1071.9704321666666,285.571653104522L1072.751644,286.1252923755039L1073.4061728333334,273.6470165150278L1074.145157,268.52587200265606L1077.312232,281.79898293531824L1077.5022565,294.3108077676111L1078.07233,297.43553271359286L1078.705745,303.5511229530935L1079.4236153333331,307.08330769395616L1080.3737378333333,310.70264999184485L1080.5426484999998,297.3083619291393L1081.1338358333333,294.9197240170722L1083.519699,295.70094680052307L1083.8575203333332,303.58520733750646L1084.3431385,308.5634476914214L1085.166578,295.3418312581901L1085.5255131666665,301.6887985880687L1087.3413028333332,304.7539347765156L1087.5313273333334,297.87067120297604L1088.2491976666665,303.9749735404483L1090.6772885,304.468403595056L1091.500728,302.61887230000843L1092.5986473333332,301.953987802994L1098.6794313333332,302.0914961182664L1099.1228218333333,307.0907113530392L1102.0998723333332,309.1094910358282L1103.0077671666666,297.76817402451593L1104.1268003333332,302.9395243704877L1104.2745971666666,303.89162067535887L1104.6968738333333,304.57237357952215L1105.2247196666665,295.1450357428671L1105.2458335,296.5029098612953L1107.1460785,287.236227899962L1108.2439978333332,296.3057535339435L1109.5108278333332,303.6447433548593L1109.6586246666666,311.14255361541655L1110.2709258333332,301.3194306706461L1111.3899589999999,299.27850385874945L1111.4744143333332,299.0599382112648L1111.7488941666666,306.06230058492577L1112.0444878333333,303.15799867523526L1112.5512198333333,304.6799790216256L1112.8045858333332,308.38928917841724L1113.4802284999998,290.04480458853607L1113.6280253333332,298.4143669745801L1113.923619,303.8259461058067L1116.3094821666666,307.92350092011014L1116.5417343333331,294.76867637203526L1116.6684173333333,290.1618654487514L1117.5340844999998,292.7837082408657L1117.6185398333332,298.34431898252905L1117.9141335,278.3025437143847L1118.3997516666666,289.2920976357105L1120.637818,298.51265734174507L1121.5457128333333,305.07286190115605L1122.4747215,303.0178834374141L1122.8547704999999,302.9454328927631L1123.1925918333334,305.67025364597055L1123.8260068333332,299.7990959641898L1125.2828613333334,303.25877040252476L1127.9220905,294.3875874902331L1128.8299853333333,298.83205840024493L1128.8722129999999,303.0510252644607L1129.6534248333332,306.194402868151L1129.6745386666666,283.7125733510252L1129.885677,282.1223420200107L1130.0545876666665,294.9871539758061L1130.5824335,302.891377500678L1132.3348816666667,306.9610298097043L1132.4404508333332,302.91799328326636L1132.7571583333333,304.11283730506574L1136.853242,307.4658536603431L1139.766951,310.01854438605193L1144.2430836666665,300.4361218203442L1145.8899626666666,284.7731629293762L1147.0301096666665,294.7016589499475L1147.5579555,294.7109681032277L1150.2182985,300.6651340032921L1151.9285189999998,308.00724222572484L1152.9208691666665,299.72200266785524" style="fill: none;" fill="none"></path></g></g></g></g><g opacity="0.2"><g><g><g><path stroke="rgb(0, 153, 136)" stroke-width="2px" d="M106.45594766666666,155.26231552362444L106.51928916666665,157.29941571950914L107.06824883333333,156.3406053900719L107.553867,160.72157056331636L109.09517683333333,151.84677339792253L110.4042345,161.1939912557602L110.50980366666666,161.23650641441347L110.95319416666666,160.7546792149544L111.33324316666665,158.27481980323793L112.07222733333333,163.10621584653856L112.11445499999999,157.0367432355881L112.28336566666665,160.99099094867708L115.57712366666667,173.95345051288606L116.88618133333333,164.623310816288L117.79407616666666,175.00379122495653L117.941873,173.6893698692322L118.95533699999999,183.22435737848284L119.22981683333333,167.4470315694809L119.73654883333333,171.131464612484L120.64444366666666,195.91545892953874L120.81335433333334,162.52599771022798L122.14352583333333,172.3666009426117L122.50246099999998,174.55662728548052L122.62914399999998,171.68682028055193L123.22033133333333,172.06356496810915L126.07069883333332,168.80639011859896L126.97859366666665,170.6288304448128L128.07651299999998,182.70981581211092L128.87883866666667,208.21383036375047L130.48349,178.5819251060486L132.19371049999998,228.90083463191988L133.3549713333333,179.0901581168175L133.41831283333332,183.7456243157387L133.7139065,172.07085360288622L133.79836183333333,251.33111811876296L134.81182583333333,188.40182275772096L134.95962266666666,176.21921331882479L135.8886313333333,181.2290738940239L136.52204633333332,175.69333888292314L137.72553483333334,175.8284433603287L138.337836,175.63549168109896L138.67565733333333,186.4203279733658L139.01347866666666,178.61599130630495L141.27265883333334,195.34029890298845L142.18055366666667,173.8402457356453L142.24389516666665,179.33280093669893L144.50307533333333,186.13687105178835L144.96757966666667,217.05733258724214L145.19983183333332,174.57283802032472L146.04438516666667,175.9155239582062L146.4033203333333,240.36021323204042L146.67780016666666,173.62652088403703L148.55693133333332,190.1000070691109L149.82376133333332,270.9128859758377L151.74512016666665,270.8117913722992L151.99848616666665,189.56230409145357L152.67412883333333,215.9334070801735L152.8008118333333,194.04405970573427L153.32865766666666,193.5329653143883L154.27878016666665,199.74096704721453L156.0101145,198.18760914802553L157.00246466666667,220.16852070093157L157.36139983333334,230.88236321210863L157.4036275,202.97601689100267L157.50919666666667,273.4110007703304L158.03704249999998,197.84219319820406L158.05815633333333,185.8049509048462L158.31152233333333,171.22315270900728L158.4170915,182.887987446785L159.02939266666667,188.40134961605074L159.34610016666664,204.11791051626207L162.25980916666666,195.63402975797655L163.42107,197.73733599185945L168.21391016666666,204.17260344028475L169.71299233333335,183.46704525947573L169.77633383333333,192.86511458158495L171.00093616666666,188.06652302742006L172.30999383333332,182.96159477233888L173.76684833333331,195.34332926273348L174.06244199999998,192.70604885816576L174.10466966666664,231.51923443078996L174.12578349999998,268.91929228305816L175.35038583333332,187.5199880719185L179.04530666666668,199.62010188102724L181.95901566666666,108.34733362197875L182.00124333333332,108.76766366958617L183.05693499999998,139.5707184791565L184.55601716666666,156.67094839811327L185.65393650000001,142.7087517499924L186.097327,159.69510097503664L186.2451238333333,137.21821303367616L188.50430399999996,160.07085431814195L189.0954913333333,163.06811667680742L189.68667866666664,161.01746435165407L190.78459800000002,161.46667857170107L192.09365566666668,175.61679131984712L194.1628113333333,172.8368699669838L194.81734016666664,167.5512917160988L194.92290933333334,174.53355599641802L196.71758516666665,187.27651162147524L196.7598128333333,182.55819643735887L198.47003333333333,231.61943907737734L200.412506,244.03843910694124L200.77144116666665,239.97737402915956L201.21483166666664,158.18974442481996L204.04408533333333,195.35142899751665L204.12854066666665,162.0860773444176L204.29745133333333,161.86144770383837L206.66220066666665,188.74035562276842L206.9577943333333,182.98058803081514L207.76012,203.37648625373842L208.013486,230.93452144861223L208.90026699999999,206.1028750061989L210.52603216666665,236.03645313978197L212.194025,190.40234459638597L212.23625266666667,226.13933200836183L213.37639966666663,212.0833631873131L213.96758699999998,223.32360960245134L216.18453949999997,202.25271846055986L218.4226058333333,178.787854385376L218.7181995,207.198569726944L220.0061433333333,215.3430051326752L222.72982783333333,158.5801989555359L225.47462616666664,176.6436664581299L226.4036348333333,165.67112810611727L228.19831066666666,156.93389124870302L228.6205873333333,174.67811204195024L229.3806853333333,183.87678594589235L229.52848216666666,213.10026855468752L230.28858016666663,161.52827711105348L230.73197066666665,160.5116646409035L232.04102833333332,162.28617120981218L232.463305,163.15175009965898L234.80694049999997,165.07462037801744L235.0180788333333,163.91301251649858L236.47493333333333,162.26563460826875L236.74941316666667,219.5155626654625L236.87609616666666,165.3417426466942L237.150576,167.43017871379854L238.3540645,162.3965258717537L238.83968266666665,166.8814695596695L240.19096799999997,174.79151959419252L243.23136,216.70638538599016L244.37150699999998,182.97122658491136L244.98380816666665,179.13695408105852L246.12395516666666,186.99753828048708L246.94739466666664,181.1570099115372L247.01073616666667,189.57376087903978L247.26410216666665,175.05161232948305L247.918631,198.99170215129854L250.28338033333333,175.17487699985506L252.64812966666665,183.9072697877884L253.1970893333333,184.36281509399416L255.60406633333332,189.45466436147692L255.77297699999997,191.28459609746935L256.63864416666667,188.10989434719087L258.58111683333334,249.93604863882067L259.93240216666663,275.8990725696087L260.94586616666663,199.00643713474275L261.43148433333334,188.80321587324144L262.86722499999996,188.10983802080156L263.0783633333333,195.64221961498262L263.14170483333334,225.60800517797472L263.4584123333333,181.03983975648882L264.1551688333333,191.14400542974474L267.9978865,275.53523789048194L269.4125133333333,186.6976340532303L270.00370066666665,177.11765302419664L270.214839,186.14865453243257L270.95382316666667,217.27008862495424L274.2898088333333,183.5069694042206L275.8733463333333,252.36435813903807L278.28032333333334,237.42908931970598L279.1459905,195.06659771203996L281.5318536666667,305.33140779733657L282.14415483333335,283.7092559158802L282.24972399999996,179.6389348626137L282.4397485,280.8485456228256L284.3399935,184.02742524147035L284.40333499999997,187.07779211997988L284.99452233333335,184.48418719768526L285.20566066666663,227.40941323041918L287.16924716666665,205.04592157602312L287.8871175,233.41674656867983L289.1539475,237.33105887174608L291.77206283333334,227.76250083446504L293.017779,172.8672524213791L293.56673866666665,257.97197125554084L293.6300801666667,280.63392518162726L294.07347066666665,206.84885044097902L294.2212675,198.16724152565004L295.4458698333333,272.00515041947364L295.5725528333333,252.5159380853176L296.7549275,297.6688531011343L301.0832633333333,81.28917260169982L302.26563799999997,160.37162597179415L302.94128066666667,161.34782989025118L304.7781841666667,161.90867174863817L305.47494066666667,160.76212556362154L307.14293349999997,161.75179148912432L307.29073033333333,128.31720156669618L307.56521016666665,160.85651732683183L308.8320401666666,162.78120131492616L309.46545516666663,161.55562920570375L309.95107333333334,161.60101701021196L310.3311223333333,161.32969279289247L313.39262816666667,165.5718246817589L314.74391349999996,189.01049698591234L317.9321023333333,187.3487783789635L318.481062,191.3700094342232L322.53491799999995,256.2469643175602L322.6827148333333,287.6506668448448L325.068578,275.2824394226074L325.1319195,273.89238862395285L325.57531,252.61479089856147L326.8210261666667,131.32327337265016L327.72892099999996,276.71389011740683L329.52359683333333,167.04840971231462L330.17812566666663,164.67937810420992L330.515947,159.0210543394089L330.8748821666666,192.88340939283373L331.71943550000003,169.32855827808382L332.69067183333334,182.12023622989656L332.71178566666663,176.91964323520662L333.17629,177.69065011739733L333.9152741666667,190.87523843050005L334.4642338333333,185.55105407238008L334.6542583333333,186.77618683576586L335.7521776666667,197.23558051586153L335.81551916666666,233.38011188507082L336.5333895,182.20052386522295L336.6178448333333,209.73232222795488L337.103463,281.44187090992926L337.230146,275.9382363080978L337.2723736666666,296.66837250888346L338.24361,285.32404337525367L339.97494433333327,97.3186716556549L340.37610716666666,282.829037797451L340.56613166666665,200.23193038702013L342.0018723333333,259.42199276089667L342.0441,269.39885516166686L343.31093,268.3724644303322L346.6680295,106.33778829574584L347.78706266666666,225.3936945319176L348.2093393333333,132.81213755607607L348.86386816666663,190.9517747282982L349.0538926666667,188.71397234201433L349.4128278333333,169.87190515995027L349.771763,166.38646198511125L351.5030973333333,207.53097428083422L351.98871549999996,212.45970232486727L352.2843091666667,267.29433791041373L353.8467328333333,233.49013985395433L356.2537098333333,266.2918408334255L358.2806378333333,200.0004739880562L358.38620699999996,262.567939889431L359.1463049999999,197.18686945438387L359.8008338333333,205.19015092849733L361.8488756666667,214.89902926683428L362.3978353333333,217.7006024837494L362.48229066666664,186.65234763622286L362.82011199999994,192.1480233192444L363.706893,174.16163284778597L365.05817833333333,201.96022678613664L365.1215198333333,208.80578691959383L365.4593411666666,201.90936405658724L367.48626916666666,216.29886395931246L368.60530233333327,203.6769875407219L373.1025488333333,208.86124588251116L373.6937361666666,250.97186277508735L375.9318025,269.560793530941L377.45199849999995,245.00480843782427L378.7610561666666,187.07411963939668L380.4079351666667,210.69939000606539L380.7668703333333,248.04505909681322L381.3369438333333,198.82276804447176L381.7803343333333,224.72735334634783L382.0337003333333,200.5703956604004L382.35040783333335,171.72888482809068L383.55389633333334,255.3623133122921L384.39844966666664,199.99621571302416L385.0952061666666,187.974733543396L387.41772783333334,190.8642435193062L388.53676099999996,165.6256389141083L388.62121633333334,248.4835206091404L389.04349299999996,120.83912987709044L390.69037199999997,152.55151791572573L391.57715299999995,239.1758269786835L392.6539585,146.106697511673L393.13957666666664,161.3862670183182L394.3852928333333,172.14802075624468L394.4486343333333,186.3378210783005L396.43333466666667,201.97775555849077L397.151205,210.8376600265503L397.89018916666663,215.97126967906954L398.71362866666664,239.7311263203621L400.65610133333325,220.6555975198746L401.1206056666666,258.64684025645255L402.85193999999996,226.5324000835419L405.82899050000003,184.6248003959656L407.2225035,200.97712851762773L407.3703003333333,195.50513244867327L407.5603248333333,184.79951359033586L407.91926,184.4400498390198L408.172626,212.5114324808121L408.29930899999994,184.0727454543114L409.5450251666666,209.31566466093065L410.6007168333333,179.47753722667696L411.593067,168.16407777071L412.9232385,227.56219292879106L414.50677599999995,170.80221433639528L414.63345899999996,217.05706222057344L415.266874,191.59667809009554L415.4568985,189.80989236831667L415.6680368333333,222.84039677381517L417.6105095,176.16270668506624L417.80053399999997,166.34413833618166L417.8849893333333,145.11370832920076L418.2439245,177.72632725238802L419.5952098333333,165.4537871003151L419.9963726666667,176.96887249946596L422.8467401666666,205.0514640927315L424.1769116666666,170.33096523284914L425.148148,228.08519471883776L426.0771566666666,226.4737981081009L427.8929463333333,172.08926106691362L429.11754866666666,167.6233669638634L432.26350983333333,178.0632266521454L432.30573749999996,167.90604658126833L432.9813801666666,173.87985445261003L433.63590899999997,167.27661044597627L434.88162516666665,225.50240446329119L437.9009033333333,161.89667422771456L438.40763533333336,154.8586580872536L438.5976598333333,167.21191395521166L439.75892066666665,157.00477237701418L442.9471095,179.75148625373842L443.2427031666666,211.01933516263963L445.3963141666667,160.7430985093117L445.83970466666665,166.014392387867L448.6478445,159.45651365518572L450.16804049999996,168.44220621585848L450.6325448333333,164.4978832125664L450.99147999999997,177.86193866729738L451.96271633333333,162.31727464199068L452.68058666666667,166.64564223289491L454.0529858333333,166.03655118942262L455.7420925,163.07360286712648L457.3467438333333,198.11893601417543L458.10684183333325,158.38463373184206L460.4504773333333,179.12975556850435L460.47159116666666,160.5581677079201L461.18946149999994,160.31158204078676L461.48505516666665,165.8084969043732L462.37183616666664,202.1215005040169L465.89784633333335,162.8067622303963L466.55237516666665,186.215660405159L467.2702455,162.41467423439028L469.55053949999996,163.55748034715654L470.24729599999995,161.85938615798952L470.627345,167.39650679826738L470.6695726666666,166.8728966832161L471.1763046666666,161.44650245904924L471.19741849999997,162.97167463302614L471.26075999999995,179.4187212109566L471.66192283333334,170.3590721011162L472.40090699999996,172.43587113618852L473.0554358333333,162.73820174932482L473.87887533333327,178.98374630212786L474.0900136666666,184.27321107387544L475.9691448333333,165.41794098615648L476.26473849999996,193.3104648113251L476.87703966666663,168.72713888883592L477.0459503333333,218.74164934158327L477.65825149999995,183.47122467756273L479.7485209999999,172.81426055431368L484.6258165,199.8100344657898L485.2170038333333,181.0696814775467L485.4070283333333,179.59609301090242L485.9982156666666,260.92073659300803L486.7371998333333,194.3353121995926L486.99056583333333,179.68244136571886L488.34185116666663,212.14545739889147L491.19221866666663,95.17948551177977L492.33236566666665,172.7387831926346L495.14050549999996,150.90295715332033L495.16161933333325,169.00820757150652L498.117556,214.07418562173845L500.6723298333333,177.7318359732628L500.8201266666666,185.82329077720644L503.4593558333333,181.1785153269768L505.84521899999993,173.84673453569414L506.2463818333333,115.77363009452819L506.83756916666664,180.38898832798006L507.30207349999995,209.59864844083788L507.74546399999997,163.795695912838L509.1812046666666,167.4069722414017L510.3002378333333,186.0765454888344L511.52484016666665,176.91545255184175L512.4538488333334,173.39148212671282L516.9722091666666,200.1385975599289L517.3522581666666,181.7353805422783L517.8167625,177.6583525657654L517.9434454999999,206.72380585670473L520.2448533333334,180.85181100368501L520.540447,180.0772555589676L520.7726991666667,189.0680850863457L521.93396,218.29794384241106L522.1662121666667,183.0990874886513L522.2928951666667,203.7966811180115L523.5386113333333,196.51812876462938L524.1086848333333,182.54232366085054L524.594303,181.7041869878769L526.0722713333333,183.1294924736023L526.5367756666667,211.1783783555031L527.2335321666667,260.22220487594603L527.7402641666666,160.97634608745577L528.5848175,168.9436012029648L528.9648665,179.63019300699236L529.0915495,192.54509056806566L529.154891,270.2407375395298L530.7595423333333,193.76936717033388L530.7806561666666,184.65258057117464L531.7730063333333,178.20506776571276L532.4275351666666,185.63076717853548L532.9976086666667,196.91793347597124L533.0609501666667,204.859638941288L533.1665193333333,281.7077483654022L534.6656015,308.6329509437084L534.8978536666666,287.21735919713973L535.9324314999999,219.18293280601503L537.1359199999999,189.726923596859L538.0860425,259.8574577093124L538.9517096666666,253.09590275287627L539.2261894999999,278.6293591082096L539.2473033333333,291.1922223687172L539.7118076666666,270.96191809773444L540.049629,242.98674656152727L542.3932645,199.0087352514267L542.836655,230.34300423860552L544.2935094999999,190.9401940226555L544.356851,176.76535398960115L544.3779648333333,190.3906061768532L545.3914288333333,237.14243305921556L545.8981608333333,262.34858239889144L548.6851868333333,270.5289427757263L550.3742935,179.69641031026842L550.6487733333332,174.30163772106172L552.0000586666666,196.5612297177315L553.3724578333333,205.30616075992586L553.858076,194.85032690763475L555.631638,228.53787864446642L555.6949794999999,214.05325473546984L555.8005486666666,208.1960762858391L557.2151755,238.78389669656755L557.5952245,204.7928358435631L559.178762,276.92034323215483L560.0022015,273.4888776361942L563.3381871666667,281.22963307499884L564.2249681666667,270.50378741025924L564.246082,265.7885701775551L565.6184811666667,282.833876234293L565.7451641666667,243.15098304748537L566.2941238333333,268.037677270174L566.7375143333334,270.27253941893576L566.8641973333333,274.04455436468123L570.2001829999999,272.314021807909L575.2463891666666,284.4702704966068L575.520869,259.51958386301993L576.2387393333332,267.58773080706595L576.7454713333333,174.09462697505953L577.041065,-31.011475968360912L577.6322523333333,-27.989542651176464L580.0392293333333,116.82348639965056L580.7782135,137.86637206077577L581.5594253333334,182.74139238595964L583.4807841666667,148.03001840114595L586.2255825,226.0420675992966L587.80912,201.16931415796282L589.709365,184.49636496305467L589.7727065,183.77039666175844L592.87644,153.3663917899132L592.9608953333333,130.70987899303438L593.8687901666666,282.8374247968197L594.1010423333332,195.2507399439812L594.3121806666667,219.80814446210863L595.030051,186.382611823082L595.2411893333333,180.6141249060631L595.7901489999999,226.6083167910576L596.7402715,287.7584924519062L597.2258896666666,286.0074007630348L598.3026951666666,207.62647004127504L598.8094271666666,186.79928065538408L599.2105899999999,227.72209228277208L600.2029401666666,183.12876023054125L602.5888033333333,198.560399723053L603.6233811666666,181.69560284614565L605.3336016666666,293.3634554117918L605.5658538333332,221.7009927749634L605.9881305,182.42241604328157L607.5294403333332,179.50328965187074L608.7329288333333,193.9165705561638L610.992109,214.85548896789552L613.9691595,208.6291023015976L614.792599,219.23350263834L615.4049001666666,178.76654047966005L617.2418036666667,189.39129717350008L618.2552676666667,295.04744265675544L618.2974953333332,214.4949888110161L619.099821,232.85463173389437L619.5854391666666,183.53020967245104L621.0845213333333,181.4543794512749L624.0615718333332,285.25464926362037L625.4128571666666,302.2315581858158L627.0175085,254.84818292856215L627.4820128333333,288.94324482679366L627.6509235,268.91113622188567L630.8602261666666,275.11547110676764L631.3247305,255.68846000432967L632.021487,253.91872428059577L633.5839106666666,274.46789224147795L634.4073501666667,204.29253358840944L636.2231398333332,139.01885504722597L637.7644496666666,137.27068669795992L638.2922955,117.91624088287352L638.5667753333333,209.69536085128786L638.7567998333333,185.85180319547655L640.4247926666666,94.74901671409606L641.6705088333332,128.75742609500887L644.0774858333333,146.9869212627411L644.3941933333333,89.02805800437926L646.0621861666666,239.76308591365816L647.8990896666666,223.56153227090837L649.7782208333333,272.41689069271087L650.5594326666666,239.63333244323732L651.2984168333332,274.26167006492614L652.8608404999999,267.4518490254879L655.4789558333332,280.2612754225731L655.9223463333334,280.2728279650211L656.1123708333333,287.0250946998596L656.4501921666666,251.74361316561698L657.7803636666666,248.0985804319382L657.8014774999999,241.4504330277443L658.0970711666666,256.6637964963913L660.6940726666666,285.5639487326145L660.9263248333334,267.82000957131385L663.0377081666666,289.00226361751555L664.452335,279.78725506067275L668.6751016666667,274.4389235794544L671.3565585,255.7800467133522L671.3776723333333,278.57819784879683L671.9899734999999,304.28332577347754L672.0322011666666,285.6576871097088L674.1224706666667,298.7722983330488L677.2895456666665,297.81426812410353L678.6408309999999,307.14465847313403L678.767514,304.8230001747608L678.894197,304.31535577476023L678.9786523333333,285.9362943291664L678.9997661666666,307.2220537483692L681.427857,296.3980537176132L682.5891178333334,297.3483953744173L685.1227778333332,304.53264327049254L686.3051524999998,255.3991845667362L688.3743081666667,242.7072662830353L688.5854464999999,308.4318009585142L688.7332433333332,296.70800094008445L689.1132923333333,263.15193752646445L690.3167808333334,308.3438275873661L691.2457894999999,286.11193690896033L693.0615791666667,307.18953652381896L694.9829379999999,291.9354096472263L695.0251656666666,293.8113009005785L695.7008083333333,256.86739949584006L696.0808573333333,310.5610060662031L702.0560721666667,308.9358517348766L702.6050318333332,295.8240765452385L703.5340405,306.05637912154197L704.6953013333333,304.02136863470076L706.004359,307.39483494758605L706.2788388333333,305.3956931054592L708.2213115000001,311.8221144944429L708.8336126666666,299.7366793423891L709.6570521666666,261.78078986406325L715.5689254999999,279.85299358963965L717.2369183333334,257.91650102734565L717.7858779999999,305.6792288839817L718.2503823333333,264.19030888080596L718.6515451666667,307.81344704031943L719.1793909999999,265.2885664522648L719.5172123333332,312.3106811463833L719.7705783333333,288.2297302901745L720.6784731666665,290.2642563700676L722.1142138333332,266.94079406261443L723.4232714999999,299.6749005585909L727.8149488333333,300.572869938612L727.9627456666666,294.6393748641014L728.1527701666666,301.7842703282833L729.2084618333333,290.8839029788971L729.2718033333333,294.3369162350893L729.7151938333333,305.2774189531803L730.3697226666667,298.8315311640501L730.7708855,292.9246812880039L733.6423668333332,291.39024342298507L735.3525873333333,308.5384296298027L735.3737011666666,313.8769462376833L736.0915714999999,306.9380025833845L738.9841666666666,292.3625044941902L739.0897358333333,297.8031183153391L739.6386954999999,298.9613381445408L740.6099318333333,307.2817456394434L740.9266393333332,295.70981283187865L742.6579736666666,269.9849537730217L743.5658685,309.9806583791971L744.1148281666667,302.0970057070255L744.9804953333332,322.0794625997543L745.8883901666666,315.3915543973446L748.6754161666665,311.2668742954731L748.8232129999999,279.7775162279606L748.9076683333333,303.0961626291275L751.0612793333332,297.43203724622725L751.9058326666667,315.70205925107L753.8905329999999,299.57220065295695L754.1861266666667,311.7627380311489L754.5661756666666,303.68688000440596L755.4529566666666,302.4360511422157L761.1959193333333,312.188666921854L762.3149525,301.238492962718L764.8274986666667,306.96426476240157L768.6702163333333,319.64454319775103L769.4514281666667,276.30354673862456L771.4361285,278.0417509496212L774.793228,307.0353458493948L775.3421876666666,312.1383054971695L776.186741,298.8109748482704L777.1579773333334,308.7344961583614L778.5303765,314.3683855354786L778.6781733333333,293.8183388829231L778.847084,310.06680114269255L779.860548,302.85438160300254L780.0505724999999,310.15522512495517L781.2962886666667,257.9661245763302L781.5707685,311.04506660699843L784.6322743333333,281.49894080758094L784.8856403333333,296.46719154417514L785.5823968333333,309.5333310931921L786.4691778333333,310.30229332745074L787.8415769999999,250.47095782756804L789.4040006666665,312.9519852519035L790.3963508333333,298.115222838521L791.76875,288.33079673051833L792.3810511666666,305.2991553068161L792.655531,275.94279311299323L794.1123855,310.35148316323756L794.1757269999999,312.6881073832512L795.0836218333334,289.5109923005104L796.1181996666666,305.6065227806568L797.3005743333332,304.62451724410056L800.0876003333334,260.08279142975806L800.256511,273.0744393289089L800.4043078333333,272.8468412876129L802.3678943333332,273.7243557393551L802.6212603333332,301.8847847700119L803.043537,280.44897748231887L805.450514,284.5303651213646L805.5349693333333,296.1048720449209L806.1050428333333,305.42155536711215L806.1472704999999,274.678603631258L808.0475155,290.6244354665279L809.5254838333333,277.8625091135502L810.0955573333332,284.8983961164951L810.2433541666666,305.3016956269741L810.3066956666667,306.2076887011528L810.8345415,311.36507935523986L813.7060228333332,277.5166988790035L815.6484955,305.2628219693899L815.7962923333333,296.6344302266836L817.6965373333333,293.4738213390112L817.8865618333332,291.90738726854323L818.1399278333333,303.39271543622016L818.5410906666666,298.1161296933889L818.9000258333333,288.07512561678885L820.0401728333333,308.57242823839186L820.2935388333333,315.03440002799033L820.8213846666666,320.8244852989912L821.6025964999999,281.2709372162819L822.8271988333332,307.83939379155635L823.7984351666666,306.10079529583453L824.1995979999999,296.600671005249L824.3473948333334,274.24510447382926L825.3186311666666,312.30202659666537L826.4165505,303.51950613856314L826.479892,281.1841889441013L827.2188761666666,310.8738822609186L829.9636744999999,306.10536618232726L831.0615938333333,314.3880856901407L831.0827076666667,294.9188523262739L831.5260981666667,249.4354760169983L832.6873589999999,302.19500235915183L834.5242624999998,273.8301873922348L834.5453763333333,310.2742484182119L835.3477019999999,274.5608195185661L836.0866861666667,258.2711714029312L836.2767106666666,286.7416096150875L837.1001501666666,312.30735507309436L838.1347279999999,285.89133460521697L839.2959888333332,309.9455135285854L839.9716315,311.3110257357359L841.9774456666665,311.4452881336212L845.1867483333333,263.3768093705177L846.2213261666667,300.8341117322445L846.9814241666666,314.11423523426055L848.2904818333333,310.0601405471563L849.916247,307.1477113634348L849.9795885,297.9212094068527L851.5842398333333,266.682002466917L852.0276303333333,256.19914321303366L852.1965409999999,301.6154122620821L852.4710208333333,281.83954085111617L852.5132485,311.3983992308378L852.6399315,296.2958748310804L854.7090871666666,300.28274678885936L854.7513148333333,252.75670523643493L856.5882183333333,296.66854712069033L856.6515598333333,296.16006627380847L857.2216333333332,306.40172747969626L860.8320988333332,302.848239210248L860.9798956666666,309.42221602499484L862.3734086666666,262.72986136078833L862.4789778333333,318.9476914152503L864.6748164999999,311.25311657488345L865.0337516666666,274.7132330954075L866.4483784999999,283.9205699980259L866.8706551666667,291.3988444626331L869.1298353333333,284.3217209100723L870.2277546666666,300.4974517196417L870.5444621666667,306.9465979903936L870.8611696666666,299.9190022319555L871.198991,288.18913022875785L871.4734708333332,300.86114558279513L872.212455,271.2781344473362L872.6136178333333,310.3563384979963L872.7614146666666,307.20451089441775L877.6809378333332,304.77620702683924L878.9477678333333,309.9282213270664L879.5811828333333,273.5510450720787L879.9823456666666,309.22222073078154L881.8614768333333,305.90855332911013L882.6849163333333,301.8183055490255L882.7693716666665,307.7806312859058L882.9593961666666,312.29409584105014L883.0860791666667,289.56724546551703L883.613925,301.88793623149394L884.8174134999999,307.2039926916361L887.9000331666666,295.9819030880928L890.3492378333333,313.1551967829466L891.0459943333333,297.28184011280536L893.3474021666667,309.9200033068657L893.4740851666667,300.2164647102356L893.6641096666666,288.2136885344982L896.3877941666666,305.3016449332237L897.1056644999999,286.3264334321022L898.6258605,287.1163378179073L902.5108058333333,266.6009713232517L902.9119686666667,276.1636657834053L903.8198635,314.82878899276255L905.276718,315.02544694840907L909.8161921666665,294.9417687177658L911.9486893333333,313.5180260360241L913.1099501666666,272.87100530862807L913.4266576666665,270.01343802809714L914.8835121666666,276.3895515024662L915.6013825,301.0041582852602L917.1638061666666,314.0211417943239L917.5016274999999,311.29490793943404L917.7338796666667,316.8512429192662L918.45175,309.0924419134855L920.1408566666667,321.69678533524274L921.4288005,296.64274681806563L921.4499143333334,308.6834391027689L922.6745166666667,302.0054922223091L923.0967933333333,290.47916407585143L924.0046881666667,311.98346425294875L924.1102573333334,249.15959499478342L925.6304533333333,310.3048280149698L928.6075038333332,261.9587587237358L929.093122,252.67337034344672L929.1142358333334,295.6220225214958L931.9857171666666,314.9621248215437L934.0126451666665,287.5753077685833L935.2583613333333,294.99814016819L935.4906135,312.24846864938735L941.4869421666666,302.22165319025515L942.3526093333332,275.06167377233504L943.8305776666666,273.3802578270435L944.421765,309.3908027976751L945.4985704999999,311.19489480257033L947.5466123333333,322.7858757868409L947.715523,301.14082863628863L948.2011411666665,258.32910309433936L948.3067103333333,300.9711848169565L948.6656455,307.9430343478918L949.742451,299.4723621279001L950.5447766666666,301.16088364720343L954.8519986666666,294.5424005359411L956.3721946666666,290.2670670568943L958.5891471666666,299.1452269077301L960.4260506666666,312.16479861438273L960.6794166666666,250.952959638834L961.3550593333333,306.8428166180849L961.9462466666665,309.12637856304644L963.7831501666667,310.0159186989069L963.9942884999999,296.95534138083457L964.1209715,292.79974935650824L964.2054268333333,301.3739551126957L964.8599556666667,276.0193181455135L964.9021833333334,310.0423470407724L965.197777,271.30497960448264L965.3244599999999,289.1263619184494L966.8657698333333,313.066809412837L972.0808866666666,296.8097714602947L973.938904,313.49768657684325L974.4878636666666,312.01105855107306L976.3881086666667,319.2539225041866L976.9581821666666,312.94487686157225L978.4361504999999,275.7216219127178L979.8718911666666,302.3538061648607L980.2097125,296.73375899791716L981.6032255,301.9359432131052L982.6166894999999,321.82253963202237L982.9545108333333,299.1989848136902L983.5668119999999,273.6623122215271L984.0946578333334,311.66053098142146L984.4958206666666,312.99937264323233L987.5362126666665,299.6491058886051L987.7051233333332,287.83863363862037L989.0564086666666,304.81671133339404L989.6264821666666,286.7374470949173L992.4768496666666,299.9649673819542L992.6246464999999,312.81841566860675L993.0046955,296.3836397945881L995.1794203333333,286.24688930511473L995.6861523333333,273.5072456717491L995.8972906666667,310.7601057708263L996.1928843333333,283.73095284104346L997.5019419999999,305.0578615039587L999.5077561666667,308.69554646015166L1000.9012691666667,308.30404989123343L1001.175749,311.66581721305846L1001.8513916666667,290.2967003703117L1002.2314406666667,305.35833181142806L1002.4425789999999,305.8850088983774L1002.8859694999999,312.0337806165218L1005.1873773333333,308.29876365959643L1006.6653456666666,288.6723374247551L1008.7345013333332,277.8973976790905L1011.2048198333333,312.055567663908L1012.0071454999999,268.81189475655555L1012.703902,310.6159918874502L1013.0628371666666,310.45835122168063L1013.8862766666666,315.8078035980463L1018.9958243333333,304.41373826265334L1019.3336456666666,312.76807677447795L1022.3740376666667,305.5832571655512L1023.4719569999999,260.3000986397266L1024.4009656666665,313.6850225150585L1025.1399498333333,299.6161746650934L1025.7733648333333,258.57330052256583L1026.2800968333333,312.2995820313692L1026.7868288333332,327.45942134857177L1026.9557395,306.0199134171009L1027.1879916666664,296.5659795820713L1027.2091054999999,296.06310321092604L1028.4759354999999,312.9304544895887L1029.046009,301.1995460808277L1029.1304643333333,314.355196711421L1029.4471718333332,301.7720165222883L1029.9961315,288.2790327787399L1030.2283836666666,310.6348105341196L1030.4606358333333,314.4271649390459L1031.1573923333333,315.8244959235191L1032.9520681666665,270.97016991376876L1034.0711013333332,288.56408936977385L1034.1555566666666,307.5313475847244L1034.4300365,302.47380672097205L1036.1191431666666,305.7753076225519L1036.2035984999998,300.3331560909748L1036.773672,311.3907360255718L1036.9636965,317.4621575295925L1038.8005999999998,279.36553938388823L1038.9483968333334,298.0927317112684L1039.8774055,276.9417528927326L1040.9964386666666,308.12441940307616L1041.7354228333334,286.0053955435753L1041.8198781666667,276.8914139986038L1043.107822,290.7789443850517L1045.1558638333331,298.78253002166747L1045.9581895,274.7055783390999L1046.9294258333332,303.74834054410456L1046.9505396666666,256.4412115037441L1047.0138811666666,309.4014569342136L1048.1962558333332,327.16924750506877L1049.9698178333333,315.8125969737768L1050.4765498333334,313.21521536707877L1051.5111276666667,286.3195503473282L1051.8067213333334,292.61372019052504L1054.9315686666666,303.42879530489444L1055.5649836666666,308.0225277811289L1056.8106998333333,279.2030039548874L1057.8875053333331,288.66892404556273L1062.236955,314.2297775566578L1062.4269795,302.9469652891159L1062.8492561666665,299.73863386809825L1063.5037849999999,314.61293500363826L1063.5460126666667,306.65400492846965L1066.3963801666666,307.06365830898284L1067.1564781666666,314.2244800597429L1068.085486833333,310.51852188706397L1069.331203,309.56895471811293L1069.584569,259.78545568585395L1071.9704321666666,279.1933045506477L1072.751644,286.9557512819767L1073.4061728333334,254.92960272431372L1074.145157,260.8441552340984L1077.312232,301.7086493343115L1077.5022565,313.0785450160503L1078.07233,302.1226201325655L1078.705745,312.72450831234454L1079.4236153333331,312.38158480525016L1080.3737378333333,316.1316634386778L1080.5426484999998,277.2169298350811L1081.1338358333333,291.33676714897155L1083.519699,296.8727809756994L1083.8575203333332,315.4115981429815L1084.3431385,316.03080822229384L1085.166578,275.5094066083431L1085.5255131666665,311.2092495828867L1087.3413028333332,309.35163905918597L1087.5313273333334,287.5457758426666L1088.2491976666665,313.1314270466566L1090.6772885,305.2085486769676L1091.500728,299.8445753574371L1092.5986473333332,300.9566610574722L1098.6794313333332,302.29775859117507L1099.1228218333333,314.5895342051983L1102.0998723333332,312.13766056001185L1103.0077671666666,280.75619850754737L1104.1268003333332,310.6965498894453L1104.2745971666666,305.3197651326656L1104.6968738333333,305.59350293576716L1105.2247196666665,281.0040289878845L1105.2458335,298.53972103893756L1107.1460785,273.336204957962L1108.2439978333332,309.9100419849157L1109.5108278333332,314.6532280862331L1109.6586246666666,322.3892690062523L1110.2709258333332,286.58474625349044L1111.3899589999999,296.2171136409044L1111.4744143333332,298.7320897400379L1111.7488941666666,316.5658441454172L1112.0444878333333,298.80154581069945L1112.5512198333333,306.9629495412111L1112.8045858333332,313.9532544136047L1113.4802284999998,262.52807770371436L1113.6280253333332,310.9687105536461L1113.923619,311.9433148026466L1116.3094821666666,314.0698331415653L1116.5417343333331,275.03643954992293L1116.6684173333333,283.2516490638256L1117.5340844999998,296.7164724290371L1117.6185398333332,306.6852350950241L1117.9141335,248.23988081216814L1118.3997516666666,305.77642851769923L1120.637818,312.3434969007969L1121.5457128333333,314.9131687402725L1122.4747215,299.93541574180125L1122.8547704999999,302.8367570757866L1123.1925918333334,309.7574847757816L1123.8260068333332,290.9923594415188L1125.2828613333334,308.4482820600271L1127.9220905,281.08081312179564L1128.8299853333333,305.4987647652626L1128.8722129999999,309.37947556078433L1129.6534248333332,310.9094692736864L1129.6745386666666,249.98982907533647L1129.885677,279.736995023489L1130.0545876666665,314.28437190949916L1130.5824335,314.7477127879858L1132.3348816666667,313.0655082732439L1132.4404508333332,296.8534384936094L1132.7571583333333,305.90510333776473L1136.853242,312.4953781932592L1139.766951,313.8475804746151L1144.2430836666665,286.0624879717827L1145.8899626666666,261.2787245929241L1147.0301096666665,309.59440298080443L1147.5579555,294.724931833148L1150.2182985,309.5963828533888L1151.9285189999998,319.02040455937384L1152.9208691666665,287.29414333105086" style="fill: none;" fill="none"></path></g></g></g></g></g></g><g transform="translate(58, 378)" clip-path="url(#clip_1)"><clipPath id="clip_1"><rect width="1266" height="21"></rect></clipPath><g><g><line x1="0" y1="0" x2="0" y2="5" style="visibility: inherit;" fill="rgb(0, 0, 0)" stroke="rgb(204, 204, 204)" stroke-width="1px"></line><line x1="105.56916666666666" y1="0" x2="105.56916666666666" y2="5" style="visibility: inherit;" fill="rgb(0, 0, 0)" stroke="rgb(204, 204, 204)" stroke-width="1px"></line><line x1="211.13833333333332" y1="0" x2="211.13833333333332" y2="5" style="visibility: inherit;" fill="rgb(0, 0, 0)" stroke="rgb(204, 204, 204)" stroke-width="1px"></line><line x1="316.7075" y1="0" x2="316.7075" y2="5" style="visibility: inherit;" fill="rgb(0, 0, 0)" stroke="rgb(204, 204, 204)" stroke-width="1px"></line><line x1="422.27666666666664" y1="0" x2="422.27666666666664" y2="5" style="visibility: inherit;" fill="rgb(0, 0, 0)" stroke="rgb(204, 204, 204)" stroke-width="1px"></line><line x1="527.8458333333333" y1="0" x2="527.8458333333333" y2="5" style="visibility: inherit;" fill="rgb(0, 0, 0)" stroke="rgb(204, 204, 204)" stroke-width="1px"></line><line x1="633.415" y1="0" x2="633.415" y2="5" style="visibility: inherit;" fill="rgb(0, 0, 0)" stroke="rgb(204, 204, 204)" stroke-width="1px"></line><line x1="738.9841666666666" y1="0" x2="738.9841666666666" y2="5" style="visibility: inherit;" fill="rgb(0, 0, 0)" stroke="rgb(204, 204, 204)" stroke-width="1px"></line><line x1="844.5533333333333" y1="0" x2="844.5533333333333" y2="5" style="visibility: inherit;" fill="rgb(0, 0, 0)" stroke="rgb(204, 204, 204)" stroke-width="1px"></line><line x1="950.1225" y1="0" x2="950.1225" y2="5" style="visibility: inherit;" fill="rgb(0, 0, 0)" stroke="rgb(204, 204, 204)" stroke-width="1px"></line><line x1="1055.6916666666666" y1="0" x2="1055.6916666666666" y2="5" style="visibility: inherit;" fill="rgb(0, 0, 0)" stroke="rgb(204, 204, 204)" stroke-width="1px"></line><line x1="1161.2608333333333" y1="0" x2="1161.2608333333333" y2="5" style="visibility: inherit;" fill="rgb(0, 0, 0)" stroke="rgb(204, 204, 204)" stroke-width="1px"></line><line x1="1266.83" y1="0" x2="1266.83" y2="5" style="visibility: inherit;" fill="rgb(0, 0, 0)" stroke="rgb(204, 204, 204)" stroke-width="1px"></line></g><g transform="translate(0, 8)"><text x="0" y="0" dx="0em" dy="0.95em" style="text-anchor: middle; visibility: hidden; font-family: &quot;Helvetica Neue&quot;, sans-serif; font-size: 12px; font-weight: 200;" fill="rgb(50, 49, 63)" stroke="none" stroke-width="1px">-5k</text><text x="105.56916666666666" y="0" dx="0em" dy="0.95em" style="text-anchor: middle; visibility: inherit; font-family: &quot;Helvetica Neue&quot;, sans-serif; font-size: 12px; font-weight: 200;" fill="rgb(50, 49, 63)" stroke="none" stroke-width="1px">0</text><text x="211.13833333333332" y="0" dx="0em" dy="0.95em" style="text-anchor: middle; visibility: inherit; font-family: &quot;Helvetica Neue&quot;, sans-serif; font-size: 12px; font-weight: 200;" fill="rgb(50, 49, 63)" stroke="none" stroke-width="1px">5k</text><text x="316.7075" y="0" dx="0em" dy="0.95em" style="text-anchor: middle; visibility: inherit; font-family: &quot;Helvetica Neue&quot;, sans-serif; font-size: 12px; font-weight: 200;" fill="rgb(50, 49, 63)" stroke="none" stroke-width="1px">10k</text><text x="422.27666666666664" y="0" dx="0em" dy="0.95em" style="text-anchor: middle; visibility: inherit; font-family: &quot;Helvetica Neue&quot;, sans-serif; font-size: 12px; font-weight: 200;" fill="rgb(50, 49, 63)" stroke="none" stroke-width="1px">15k</text><text x="527.8458333333333" y="0" dx="0em" dy="0.95em" style="text-anchor: middle; visibility: inherit; font-family: &quot;Helvetica Neue&quot;, sans-serif; font-size: 12px; font-weight: 200;" fill="rgb(50, 49, 63)" stroke="none" stroke-width="1px">20k</text><text x="633.415" y="0" dx="0em" dy="0.95em" style="text-anchor: middle; visibility: inherit; font-family: &quot;Helvetica Neue&quot;, sans-serif; font-size: 12px; font-weight: 200;" fill="rgb(50, 49, 63)" stroke="none" stroke-width="1px">25k</text><text x="738.9841666666666" y="0" dx="0em" dy="0.95em" style="text-anchor: middle; visibility: inherit; font-family: &quot;Helvetica Neue&quot;, sans-serif; font-size: 12px; font-weight: 200;" fill="rgb(50, 49, 63)" stroke="none" stroke-width="1px">30k</text><text x="844.5533333333333" y="0" dx="0em" dy="0.95em" style="text-anchor: middle; visibility: inherit; font-family: &quot;Helvetica Neue&quot;, sans-serif; font-size: 12px; font-weight: 200;" fill="rgb(50, 49, 63)" stroke="none" stroke-width="1px">35k</text><text x="950.1225" y="0" dx="0em" dy="0.95em" style="text-anchor: middle; visibility: inherit; font-family: &quot;Helvetica Neue&quot;, sans-serif; font-size: 12px; font-weight: 200;" fill="rgb(50, 49, 63)" stroke="none" stroke-width="1px">40k</text><text x="1055.6916666666666" y="0" dx="0em" dy="0.95em" style="text-anchor: middle; visibility: inherit; font-family: &quot;Helvetica Neue&quot;, sans-serif; font-size: 12px; font-weight: 200;" fill="rgb(50, 49, 63)" stroke="none" stroke-width="1px">45k</text><text x="1161.2608333333333" y="0" dx="0em" dy="0.95em" style="text-anchor: middle; visibility: inherit; font-family: &quot;Helvetica Neue&quot;, sans-serif; font-size: 12px; font-weight: 200;" fill="rgb(50, 49, 63)" stroke="none" stroke-width="1px">50k</text><text x="1266.83" y="0" dx="0em" dy="0.95em" style="text-anchor: middle; visibility: hidden; font-family: &quot;Helvetica Neue&quot;, sans-serif; font-size: 12px; font-weight: 200;" fill="rgb(50, 49, 63)" stroke="none" stroke-width="1px">55k</text></g><line x1="0" y1="0" x2="1266.83" y2="0" fill="rgb(0, 0, 0)" stroke="rgb(204, 204, 204)" stroke-width="1px"></line></g></g></g></g></svg>