<svg viewBox="0 0 1324.8294677734375 400" xmlns="http://www.w3.org/2000/svg"><g><g><g><g><g><line x1="58" y1="365.8994434519574" x2="53" y2="365.8994434519574" style="visibility: inherit;" fill="rgb(0, 0, 0)" stroke="rgb(204, 204, 204)" stroke-width="1px"></line><line x1="58" y1="329.1100838299527" x2="53" y2="329.1100838299527" style="visibility: inherit;" fill="rgb(0, 0, 0)" stroke="rgb(204, 204, 204)" stroke-width="1px"></line><line x1="58" y1="292.32072420794816" x2="53" y2="292.32072420794816" style="visibility: inherit;" fill="rgb(0, 0, 0)" stroke="rgb(204, 204, 204)" stroke-width="1px"></line><line x1="58" y1="255.53136458594355" x2="53" y2="255.53136458594355" style="visibility: inherit;" fill="rgb(0, 0, 0)" stroke="rgb(204, 204, 204)" stroke-width="1px"></line><line x1="58" y1="218.74200496393894" x2="53" y2="218.74200496393894" style="visibility: inherit;" fill="rgb(0, 0, 0)" stroke="rgb(204, 204, 204)" stroke-width="1px"></line><line x1="58" y1="181.95264534193427" x2="53" y2="181.95264534193427" style="visibility: inherit;" fill="rgb(0, 0, 0)" stroke="rgb(204, 204, 204)" stroke-width="1px"></line><line x1="58" y1="145.16328571992972" x2="53" y2="145.16328571992972" style="visibility: inherit;" fill="rgb(0, 0, 0)" stroke="rgb(204, 204, 204)" stroke-width="1px"></line><line x1="58" y1="108.37392609792511" x2="53" y2="108.37392609792511" style="visibility: inherit;" fill="rgb(0, 0, 0)" stroke="rgb(204, 204, 204)" stroke-width="1px"></line><line x1="58" y1="71.5845664759205" x2="53" y2="71.5845664759205" style="visibility: inherit;" fill="rgb(0, 0, 0)" stroke="rgb(204, 204, 204)" stroke-width="1px"></line><line x1="58" y1="34.79520685391583" x2="53" y2="34.79520685391583" style="visibility: inherit;" fill="rgb(0, 0, 0)" stroke="rgb(204, 204, 204)" stroke-width="1px"></line></g><g transform="translate(48, 0)"><text x="0" y="365.8994434519574" dx="0em" dy="0.3em" style="text-anchor: end; visibility: inherit; font-family: &quot;Helvetica Neue&quot;, sans-serif; font-size: 12px; font-weight: 200;" fill="rgb(50, 49, 63)" stroke="none" stroke-width="1px">-0.2</text><text x="0" y="329.1100838299527" dx="0em" dy="0.3em" style="text-anchor: end; visibility: inherit; font-family: &quot;Helvetica Neue&quot;, sans-serif; font-size: 12px; font-weight: 200;" fill="rgb(50, 49, 63)" stroke="none" stroke-width="1px">0</text><text x="0" y="292.32072420794816" dx="0em" dy="0.3em" style="text-anchor: end; visibility: inherit; font-family: &quot;Helvetica Neue&quot;, sans-serif; font-size: 12px; font-weight: 200;" fill="rgb(50, 49, 63)" stroke="none" stroke-width="1px">0.2</text><text x="0" y="255.53136458594355" dx="0em" dy="0.3em" style="text-anchor: end; visibility: inherit; font-family: &quot;Helvetica Neue&quot;, sans-serif; font-size: 12px; font-weight: 200;" fill="rgb(50, 49, 63)" stroke="none" stroke-width="1px">0.4</text><text x="0" y="218.74200496393894" dx="0em" dy="0.3em" style="text-anchor: end; visibility: inherit; font-family: &quot;Helvetica Neue&quot;, sans-serif; font-size: 12px; font-weight: 200;" fill="rgb(50, 49, 63)" stroke="none" stroke-width="1px">0.6</text><text x="0" y="181.95264534193427" dx="0em" dy="0.3em" style="text-anchor: end; visibility: inherit; font-family: &quot;Helvetica Neue&quot;, sans-serif; font-size: 12px; font-weight: 200;" fill="rgb(50, 49, 63)" stroke="none" stroke-width="1px">0.8</text><text x="0" y="145.16328571992972" dx="0em" dy="0.3em" style="text-anchor: end; visibility: inherit; font-family: &quot;Helvetica Neue&quot;, sans-serif; font-size: 12px; font-weight: 200;" fill="rgb(50, 49, 63)" stroke="none" stroke-width="1px">1</text><text x="0" y="108.37392609792511" dx="0em" dy="0.3em" style="text-anchor: end; visibility: inherit; font-family: &quot;Helvetica Neue&quot;, sans-serif; font-size: 12px; font-weight: 200;" fill="rgb(50, 49, 63)" stroke="none" stroke-width="1px">1.2</text><text x="0" y="71.5845664759205" dx="0em" dy="0.3em" style="text-anchor: end; visibility: inherit; font-family: &quot;Helvetica Neue&quot;, sans-serif; font-size: 12px; font-weight: 200;" fill="rgb(50, 49, 63)" stroke="none" stroke-width="1px">1.4</text><text x="0" y="34.79520685391583" dx="0em" dy="0.3em" style="text-anchor: end; visibility: inherit; font-family: &quot;Helvetica Neue&quot;, sans-serif; font-size: 12px; font-weight: 200;" fill="rgb(50, 49, 63)" stroke="none" stroke-width="1px">1.6</text></g><line x1="58" y1="0" x2="58" y2="378" fill="rgb(0, 0, 0)" stroke="rgb(204, 204, 204)" stroke-width="1px"></line></g></g><g transform="translate(58, 0)" clip-path="url(#clip_0)"><clipPath id="clip_0"><rect width="1266" height="377"></rect></clipPath><g><g><g><line x1="83.92016502207453" y1="0" x2="83.92016502207453" y2="378" fill="rgb(0, 0, 0)" stroke="rgb(60, 60, 60)" stroke-width="1px" opacity="0.25"></line><line x1="237.31757255645888" y1="0" x2="237.31757255645888" y2="378" fill="rgb(0, 0, 0)" stroke="rgb(60, 60, 60)" stroke-width="1px" opacity="0.25"></line><line x1="390.71498009084326" y1="0" x2="390.71498009084326" y2="378" fill="rgb(0, 0, 0)" stroke="rgb(60, 60, 60)" stroke-width="1px" opacity="0.25"></line><line x1="544.1123876252275" y1="0" x2="544.1123876252275" y2="378" fill="rgb(0, 0, 0)" stroke="rgb(60, 60, 60)" stroke-width="1px" opacity="0.25"></line><line x1="697.5097951596118" y1="0" x2="697.5097951596118" y2="378" fill="rgb(0, 0, 0)" stroke="rgb(60, 60, 60)" stroke-width="1px" opacity="0.25"></line><line x1="850.9072026939963" y1="0" x2="850.9072026939963" y2="378" fill="rgb(0, 0, 0)" stroke="rgb(60, 60, 60)" stroke-width="1px" opacity="0.25"></line><line x1="1004.3046102283805" y1="0" x2="1004.3046102283805" y2="378" fill="rgb(0, 0, 0)" stroke="rgb(60, 60, 60)" stroke-width="1px" opacity="0.25"></line><line x1="1157.7020177627649" y1="0" x2="1157.7020177627649" y2="378" fill="rgb(0, 0, 0)" stroke="rgb(60, 60, 60)" stroke-width="1px" opacity="0.25"></line></g><g><line x1="0" y1="365.8994434519574" x2="1266.83" y2="365.8994434519574" fill="rgb(0, 0, 0)" stroke="rgb(60, 60, 60)" stroke-width="1px" opacity="0.25"></line><line x1="0" y1="329.1100838299527" x2="1266.83" y2="329.1100838299527" fill="rgb(0, 0, 0)" stroke="rgb(60, 60, 60)" stroke-width="1px" opacity="0.25"></line><line x1="0" y1="292.32072420794816" x2="1266.83" y2="292.32072420794816" fill="rgb(0, 0, 0)" stroke="rgb(60, 60, 60)" stroke-width="1px" opacity="0.25"></line><line x1="0" y1="255.53136458594355" x2="1266.83" y2="255.53136458594355" fill="rgb(0, 0, 0)" stroke="rgb(60, 60, 60)" stroke-width="1px" opacity="0.25"></line><line x1="0" y1="218.74200496393894" x2="1266.83" y2="218.74200496393894" fill="rgb(0, 0, 0)" stroke="rgb(60, 60, 60)" stroke-width="1px" opacity="0.25"></line><line x1="0" y1="181.95264534193427" x2="1266.83" y2="181.95264534193427" fill="rgb(0, 0, 0)" stroke="rgb(60, 60, 60)" stroke-width="1px" opacity="0.25"></line><line x1="0" y1="145.16328571992972" x2="1266.83" y2="145.16328571992972" fill="rgb(0, 0, 0)" stroke="rgb(60, 60, 60)" stroke-width="1px" opacity="0.25"></line><line x1="0" y1="108.37392609792511" x2="1266.83" y2="108.37392609792511" fill="rgb(0, 0, 0)" stroke="rgb(60, 60, 60)" stroke-width="1px" opacity="0.25"></line><line x1="0" y1="71.5845664759205" x2="1266.83" y2="71.5845664759205" fill="rgb(0, 0, 0)" stroke="rgb(60, 60, 60)" stroke-width="1px" opacity="0.25"></line><line x1="0" y1="34.79520685391583" x2="1266.83" y2="34.79520685391583" fill="rgb(0, 0, 0)" stroke="rgb(60, 60, 60)" stroke-width="1px" opacity="0.25"></line></g></g></g><g><g><line x1="0" y1="329.1100838299527" x2="1266.83" y2="329.1100838299527" fill="rgb(0, 0, 0)" stroke="rgb(153, 153, 153)" stroke-width="1.5px"></line></g></g><g><g><line x1="83.92016502207453" y1="0" x2="83.92016502207453" y2="378" fill="rgb(0, 0, 0)" stroke="rgb(153, 153, 153)" stroke-width="1.5px"></line></g></g><g><g><g><g><g><path stroke="rgb(0, 119, 187)" stroke-width="2px" d="M85.20870324536335,226.37544772594634L85.30074168988398,226.52801294866867L86.09840820906278,226.67481419603436L86.80403628372096,226.7724515483365L88.76752310016106,226.82369358668905L89.04363843372298,226.9228287438165L90.94576628714934,226.9689681816977L91.09916369468371,227.01085654057368L91.74343280632813,227.04467435977557L92.29566347345191,227.02923090148238L93.3694453261926,227.04715628437748L93.43080428920636,227.11507773621088L93.67624014126137,227.09998304042838L96.83622673646968,227.11891918990972L98.03272651523788,227.14869531547595L98.46223925633416,227.1445913518369L100.36436710976052,227.1630922051344L101.19271311044619,227.21667865874846L101.68358481455623,227.41964033566074L101.89834118510437,227.65666808662212L103.37095629743446,227.45507307336862L103.76978955702386,227.66633061460595L104.19930229812013,227.690748181268L104.5060971131889,227.54386179653835L105.8253148179846,227.68161310281602L106.07075067003962,227.92805416680514L107.57404526387658,227.87743772115928L108.00355800497286,228.2004580595798L108.06491696798662,228.99817208061538L108.52510919058976,228.54326539693835L108.70918607963104,228.82757765034475L109.56821156182359,228.31965919165913L112.91227504607318,228.01790791572378L113.70994156525197,227.98906934297725L113.74062104675885,227.9739546309741L113.9246979358001,227.95565843112016L114.75304393648578,228.17605357528763L115.02915927004767,228.5313922196339L116.53245386388463,228.50613535872628L116.62449230840527,228.56486600860333L117.45283830909094,229.26117285311096L117.79031260566659,229.03508018806724L120.12195320018922,231.0844392596647L122.60699120224625,233.1207919706494L124.29436268512448,235.99662331471774L124.38640112964512,232.83599582516436L124.81591387074138,231.37873526374304L124.9386317967689,234.1834078646368L126.41124690909898,231.83331011213514L126.62600327964714,230.35313833911127L127.30095187279841,229.79815044762668L127.66910565088094,230.76505068822L127.9759004659497,230.7968813994251L128.89628491115602,236.3137419086199L129.66327194882794,234.58335981493877L130.645015357048,236.70819630252842L131.53472032074743,239.0213903296614L132.02559202485747,243.18803750466336L132.5164637289675,246.4534547967129L133.1607328406119,249.94169486620135L134.2345146933526,254.41066326313089L135.7991682502033,260.5645822676191L136.3513989173271,266.80688566867695L136.627514250889,271.523350011675L137.05702699198525,273.93843102263935L137.118385954999,275.29053081675653L137.21042439951964,277.454221364303L138.56032158582224,279.9529842035904L140.49312892075548,280.1956143018162L140.76924425431736,285.84366680633127L141.16807751390675,286.38476180121506L141.2601159584274,287.87562122074814L141.50555181048242,291.1599321166545L142.7327310707575,292.22528444487324L143.25428225637438,295.54289427187894L143.65311551596378,298.17019164590806L145.30980751733514,296.45917052256254L146.38358937007584,298.7376819337996L147.64144811185778,301.6884859625345L148.22435826048846,295.1440837035975L151.01619107761425,301.6018142422845L151.38434485569675,301.84966090757575L151.75249863377928,305.322628058826L152.36608826391682,305.4186424767156L152.5194856714512,308.5507095335561L152.55016515295807,308.45359476476364L153.1637547830956,307.32989327646703L153.31715219063,307.5205297104959L154.69772885843946,309.02273594833014L155.065882636522,310.6032221722294L156.13966448926269,313.1719243223587L157.21344634200338,315.6191692357777L157.24412582351025,317.18883993973253L157.305484786524,317.8652575418681L158.6553819728266,318.57643425748563L159.1769331584435,319.7237357657219L159.23829212145725,320.373189240192L159.3916895289916,320.59513441920217L160.15867656666356,320.7993835990354L160.18935604817042,321.45650070595485L160.4961508632392,321.5555317726445L160.55750982625295,321.8532292773171L160.71090723378734,321.9530694692394L161.60061219748675,319.7828011435155L162.06080442008994,317.1937960766503L162.24488130913116,318.3971446451469L166.29457286803893,321.5274309119846L167.98194435091716,298.85494161573234L168.41145709201342,236.2555132446438L169.48523894475412,267.09278511480164L172.76794346598993,286.1571852508644L174.94618665297818,301.9002424441578L176.29608383928075,311.1728020281812L177.12442983996647,311.49075441477095L177.2164682844871,316.9092070549141L178.99587821188595,319.0170197947036L180.8980060653123,321.6461957234963L181.971787918053,323.6175688512455L183.0148902892868,323.3239706063615L183.4444030303831,324.663338692539L183.50576199339682,324.45118969306174L183.5364414749037,324.7721727428767L185.31585140230257,325.64393581247134L187.49409458929082,325.1343716639867L188.4758379975109,324.16193603439746L189.73369673929284,320.1825649444088L190.684760666006,317.949424034944L194.36629844683125,315.88841965310314L194.91852911395506,320.19236233102197L194.97988807696876,322.7959901053404L196.51386215231264,319.2248323915985L198.23191311669774,322.15141626515697L198.6921053393009,323.95949546162393L200.2874383776585,325.0363681162765L200.9317074893029,325.99269434514366L201.08510489683727,325.27656702226767L201.14646385985102,325.9883559543448L202.46568156464676,326.61775660563256L204.42916838108687,326.47948780068424L205.28819386327942,327.0171810514536L206.14721934547197,327.15464594038883L207.74255238382955,327.46443705088006L209.64468023725593,327.7721404336246L209.98215453383156,327.7649184111992L212.22175668383358,326.2479089634124L212.6512694249299,323.7619604183185L212.83534631397112,322.817125733807L213.60233335164307,322.1895664049125L213.75573075917742,315.2961352301412L214.70679468589063,318.82916201537444L215.9646534276726,318.50052650284914L216.36348668726197,264.44105892760535L216.42484565027573,258.8284934974257L218.90988365233275,280.98974668145814L221.7323959509654,299.33825676225615L222.25394713658233,305.0300786575433L222.89821624822676,313.7470151605057L225.90480543590067,315.06515408532175L227.00926677014823,318.74536140223086L227.13198469617575,317.08221905502427L227.3774205482308,320.0799044479422L229.64770217973967,323.08948034793553L230.81352247700096,322.657369269092L231.24303521809728,324.658559848693L232.4088555153586,325.92680931932387L232.7770092934411,325.50039672013713L234.0655475167299,326.43343658047615L236.15175225919756,326.9395752726865L236.42786759275944,327.37104782848934L236.51990603728007,327.1240237060607L238.85154663180273,320.6683378614471L238.91290559481646,323.63554975887916L240.56959759618783,325.1107987026044L241.42862307838038,326.1314845622334L243.45346885783422,319.75101029963383L244.64996863660244,323.0105402690422L247.41112197222137,324.93462806881644L247.9019936763314,326.1389401242417L248.33150641742768,326.9303381172265L250.20295478934716,327.4451358239126L250.87790338249846,327.69780584010016L253.11750553250047,327.79888422210206L253.17886449551423,327.5772791478677L254.16060790373427,327.9289494455215L255.3264282009956,328.16798637462074L257.5660303509976,328.3064493057728L257.6887482770251,328.25801152879575L258.1489404996283,328.30962409699754L259.4988376859309,315.30762854546026L262.10659361401537,320.2157802668603L262.6281447996323,321.96539384063726L262.7201832441529,324.3955942743966L263.76328561538674,319.5613930943182L263.82464457840047,323.00494923484086L264.03940094894864,323.7858083220223L265.1438622831962,319.8194102214426L265.7881313948406,323.10274668776225L266.52443895100566,325.13459069282464L266.8619132475813,325.6564775913481L267.69025924826695,316.2445922616265L268.3038488784045,320.9447679140145L268.45724628593894,317.76283779798825L271.7092713256678,317.16273758129796L272.0160661407366,319.91194654858793L273.55004021608045,323.0263728201779L274.1329503647111,323.93376492596053L274.5317836243005,320.09930954020035L274.7158605133418,323.25618771754625L275.11469377293116,325.1624705376583L276.8634242188231,325.5315796213713L277.5690522934813,326.5008678647433L277.7224497010157,321.6376882221188L278.45875725718076,324.1931732672134L279.13370585033203,315.96043758959695L279.53253910992146,319.2296150001114L280.2688466660865,322.74492221078026L283.2140768907467,320.8569409757233L283.9503844469117,323.483829613227L285.60707644828307,320.5626295502058L285.91387126335184,322.1371862543661L286.4967814119825,319.29176185519884L288.1534734133539,322.5996023129623L289.34997319212204,322.2850963962211L289.4420116366427,324.52195279388104L289.8101654147252,319.03183455536583L290.63851141541085,321.2221467717599L290.76122934143837,323.4414373586485L293.9518954181536,325.1144895322601L294.1973312702086,326.22857048701866L294.6575234928117,326.95078041572214L297.63343319897876,327.300624778581L298.4310997181576,327.2439486814046L299.1060483113089,327.49081104803594L301.9285606099416,327.3269882987971L302.1739964619966,326.1022238726518L303.4318552037785,326.95509666776564L305.303303575698,327.47994120067995L306.2543675024112,327.7118102001357L308.2178543188513,327.94400436889305L308.7700849859751,327.63555722264886L309.0768798010439,327.9293264398195L309.1075592825507,328.07154370262793L309.69046943118144,328.16889573251945L310.3960975058396,328.24233473453336L310.97900765447025,322.25966390577497L312.4823022483072,324.6243622770237L312.78909706337595,325.98548400924074L312.8811355078966,321.06522506408044L313.34132773049976,323.88201892975803L314.3537506202267,325.726728246652L317.3603398079006,326.8470378093768L318.43412166064127,315.12451112607573L319.753339365437,319.61204863776476L319.93741625447825,323.0605041047937L321.99294151543904,319.7347050379456L322.8519669976316,323.1336963510791L323.15876181270033,312.90970152566024L324.232543665441,310.0556904539193L326.28806892640176,316.2436699375974L327.2698123346218,320.94628679991524L329.0799017435276,323.3895485463363L330.1536835962683,325.2675018314113L330.49115789284394,320.61441205157917L330.85931167092645,322.2220570614179L331.3808628565434,324.13823771115847L334.8783237483273,324.3609864230546L335.952105601068,324.600066688848L336.1361824901093,326.027355309064L338.25306671408373,326.9215073211242L339.6029639003863,327.27599683131075L340.49266886408583,327.5656937974385L340.64606627162016,327.685150337692L340.92218160518206,327.35388942853L343.683334940801,327.7786390207225L343.77537338532164,328.07244911589186L344.63439886751416,328.1313549621338L344.9411936825829,328.26553288200455L346.7206036099818,328.3574760467793L347.79438546272246,328.4982481566932L348.8068083524494,328.5818486349223L348.8374878339563,328.6420217512503L350.5248593168345,328.64288268798674L350.6782567243689,328.3717163860929L354.48251243122166,328.2448984871177L354.57455087574226,328.3228918900497L356.29260184012736,328.458827558624L356.50735821067553,328.61321907543964L357.09026835930615,321.5943756513186L357.1823068038268,324.4820926464766L357.8265759154712,326.24731361621303L358.0413322860194,327.2543818853306L358.7469603606775,327.77104854849057L359.2685115462944,319.9295787388677L359.8207422134182,323.5088908151797L360.00481910245946,325.62689834260107L360.3116139175283,326.94392561941197L361.72287006684456,321.96437189405947L361.9683059188996,324.73508004880415L366.9690614045205,326.338567262075L367.18381777506863,325.9329228013424L368.0121637757543,325.55905297762126L369.45409940657754,326.89915052841286L369.73021474013944,327.67492350496934L370.7119581483595,328.1858066109273L371.3562272600039,328.45952289540764L372.6754449647996,328.53726517400236L372.7674834093202,328.65152914524697L373.3810730394578,328.772392339604L373.5958294100059,328.82780207154667L374.3934959291847,328.8301915276043L376.5410596346661,328.83608978462973L376.81717496822796,328.8744686047836L377.03193133877613,328.87336271550333L377.43076459836556,328.8869562423341L378.1057131915168,328.56835560079554L379.2715334887781,322.7810259265179L380.1919179339844,325.2647353446356L380.8975460086426,326.73810962307783L381.4497766757664,327.63482324954214L383.59734038124776,328.17782579586867L385.8062630497429,328.5088059087345L385.89830149426354,328.70006037506346L387.1254807545386,328.77224599406344L387.86178831070373,328.85166117181126L389.8559546086507,328.919321444093L392.24895416618705,328.93761979226304L392.40235157372143,328.9461364136144L392.4943900182421,328.8533545942523L393.29205653742093,328.8676541466796L394.6419537237234,328.92050981984147L395.1328254278335,328.94493521323466L395.86913298399855,328.9632060571178L396.39068416961544,328.9777266912304L398.5689273566037,328.99209423036075L399.18251698674123,328.9778303002097L399.39727335728935,328.99524393521415L402.8640547675665,329.01392678111347L402.9560932120871,328.9795484609347L403.6003623237315,329.0056633656935L405.4104517326373,329.01679970286995L405.717246547706,329.0235020585497L405.8399644737335,328.6381038781428L406.7296694374329,328.7844397109099L407.711412845653,328.8862083137875L407.74209232715987,328.95463228590836L409.3374253655175,328.9688227757268L409.85897655113445,328.96384345206224L410.2884892922307,328.98807272628267L410.7793609963407,329.0002523061803L411.3009121819576,328.9627173292532L412.52809144223266,328.98409798555144L413.93934759154905,328.98247922056703L413.9700270730559,328.97295969391L414.6449756662072,328.9763524115692L414.8597320367553,328.9827042292544L415.7187575189479,328.92762797656843L416.02555233401665,328.95177683367206L416.17894974155104,328.9664389007758L416.5164240381267,328.9840104615538L416.7925393716886,328.9732880954108L417.22205211278487,328.9879398418682L418.38787241004616,328.99257238844535L418.4799108545668,329.0002085642752L419.52301322580064,329.0141905216818L419.64573115182816,329.0045836969295L420.3513592264863,329.01623617943824L420.53543611552755,329.01763455371673L420.59679507854133,329.02825948754884L421.8239743388164,329.025043103955L422.0080512278576,329.0107210455478L422.40688448744703,329.0196510970917L422.5602818949814,329.02556544818754L424.52376871142155,321.6991533565619L425.1066788600522,324.62223637475665L425.3827941936141,326.33843989123426L426.76337086142354,327.41680703161904L427.4689989360817,328.0093970952275L427.53035789909546,328.4252247287318L427.56103738060233,328.67752711846396L429.3711267895081,328.8263375753556L429.7392805675906,328.9181059209974L434.2491643491015,320.32716407849165L435.875176868966,323.8163190043181L436.4887664991035,325.7139635717382L437.4398304258167,327.03770287485384L437.7159457593786,327.8361131596689L438.2374969449955,328.3214373926423L438.75904813061237,328.5875950064865L439.71011205732555,328.6754886439405L440.90661183609376,328.80703967852895L441.2747656141763,328.8934913201172L441.98039368883445,328.88781575997984L442.40990642993074,328.9400560303137L442.47126539294453,328.8827283251965L444.68018806143965,328.83644029693755L448.17764895322364,313.9409375639012L450.4786100662394,319.8773915206049L451.12287917788376,307.3819705629837L451.2762765854182,291.3128527361456L451.70578932651443,306.2433345586255L452.1659815491176,314.6928512867458L452.38073791966576,319.50946237573805L452.9636480682964,323.0769607399538L453.33180184637894,325.2914976621809L456.307711552546,326.6524330125313L457.1053780717247,320.65121148864466L457.22809599775223,323.88098689191185L457.7189677018623,325.81900289002107L459.0075059251511,326.96114945709184L460.97099274159126,321.1256261859018L461.0630311861119,324.18843314076497L461.5539028902219,322.08405588281266L464.2230177813202,318.2613330113634L464.4991331148821,322.43306165169855L465.4501970415953,324.9538475286276L466.12514563474656,326.4510895315685L469.0396963778999,327.36642267284446L471.24861904639505,327.9474503927841L472.6598751957113,328.2941012245256L473.51890067790384,321.26018546508374L475.32899008680965,324.32175879163356L475.8198617909196,326.1449753694916L476.77092571763285,327.1659556063677L477.6606306813323,327.82268033498354L478.5810151265386,328.0485029173386L478.9798483861279,328.39973161665773L479.56275853475864,328.6004669880736L480.8819762395544,328.13645576197996L481.49556586969186,328.4302302331085L483.27497579709075,328.6201517611352L483.79652698270763,328.70181613712543L484.6248729833933,328.7756242909967L485.26914209503775,328.58823830329607L485.6372958731203,328.43072945721025L486.0974880957234,328.6487002183402L486.2202060217509,328.7675093218706L486.74175720736787,327.0232076415952L487.8462185416154,327.80986189878195L489.07339780189045,328.1853569197422L489.1040772833973,328.50471003836367L490.08582069161736,328.7060859227558L492.35610232312627,328.7672528125127L493.4605636573738,320.3913894210762L495.0865761772383,323.8313776057876L495.20929410326585,325.8718792908999L495.8228837334034,327.10786912001515L497.32617832724037,327.85894515525064L498.21588329093976,328.31529684095216L499.5044215142286,328.60296520554215L501.0690750710793,328.7627112410522L501.5292672936825,328.84905345589425L501.7747031457375,326.3487088131771L501.9587800347788,327.4072554525544L503.5847925546432,328.02922521679386L503.6768309991638,328.42462836465955L504.9040102594389,328.5913441499281L505.6709972971108,328.0298372918533L506.5607022608102,328.3996061413577L507.603804632044,328.63790831706484L508.6775864847847,328.7877759792102L509.38321455944293,327.549372781559L509.8740862635529,328.13044862987687L511.5000987834174,328.4962180265909L512.113688413555,328.70213785863154L512.2057268580755,324.82741257109296L512.5125216731443,326.4919458948337L512.6965985621856,327.49478868857824L513.3715471553369,328.11441008637195L515.8872646389008,328.48759675861305L520.2130715313704,328.71767805476543L522.2379173108243,328.86010381988683L522.2685967923311,328.93690275060453L522.4526736813724,328.9842375051683L522.7287890149344,328.8910109801483L523.2503402005512,319.0662764088657L523.6184939786338,323.05105339220955L523.8025708676751,325.4405333687193L525.6126602765808,320.21332341378803L527.1466343519246,323.69510180547235L528.5885699827478,325.7892706598365L529.6930313169954,319.93522543116467L530.4293388731604,323.53792412608425L530.5213773176811,325.69236224947804L532.8223384306968,327.01442043969985L533.0064153197382,327.8122738412639L533.9267997649443,328.2924169520775L534.2029150985063,328.58872521953526L534.3256330245338,328.7240688185759L534.5097099135751,328.84467689631947L536.3197993224808,328.92375811570446L537.3322222122077,328.9643358895841L537.3629016937147,328.99471871233703L537.6083375457696,329.01893165628644L537.731055471797,329.0277985121322L538.252606657414,329.03822658445176L540.2160934738541,329.045611349374L540.7990036224849,329.05243622025523L541.8114265122117,329.0430529134909L541.8421059937186,329.0486499711172L542.5784135498836,329.0417153788771L544.9407336259131,329.03948164687546L546.8735409608464,321.4696822357065L548.1620791841352,324.5049959405227L548.2847971101628,326.2989709568259L549.6346942964653,327.3851121250891L550.217604445096,328.0453204866266L552.2731297060567,328.45075247080786L554.0525396334557,328.61427474690464L554.7581677081138,328.761071140463L557.2432057101709,328.845272620573L558.1022311923633,328.91250109739025L558.6237823779802,328.96552589806623L558.685141340994,328.94947756422255L559.6668847492141,328.9926173211507L560.6179486759273,329.0210933095103L562.428038084833,328.79384964968915L566.8152039403163,328.89948240542293L567.5515114964815,328.9611857425682L567.8276268300433,328.9944443831336L568.0117037190846,328.92254303432753L569.422959868401,328.86548032297424L569.5149983129215,328.9459519063673L570.0979084615523,328.9950432916054L570.6808186101829,329.00361139259826L574.1476000204599,329.0271376037005L574.5771127615562,329.0475779598214L576.5099200964895,329.0471149582276L577.7064198752577,329.0618880965526L578.350688986902,329.07123209398276L580.1607783958078,325.3828244075269L580.5596116553972,326.8522991706977L580.866406470466,327.7353380222527L580.9891243964935,328.2726438587381L582.4310600273167,328.5981626345456L584.6399826958119,328.79195399323964L585.3149312889632,328.90259197394613L585.8364824745801,328.9770949650182L587.2477386238963,329.0225419484834L588.2908409951302,329.0422407445975L590.2850072930772,329.0605483720467L591.9416992944485,329.05480232341154L592.7393658136273,329.0481233175521L592.8927632211618,329.05087922461655L595.07100640815,329.0355743103084L595.1937243341774,322.95039459636337L596.1754677423976,325.367073726093L597.6787623362345,326.8162392179904L599.5808901896609,327.69778587384053L599.6115696711678,328.2262505149005L600.3785567088397,328.54442637601625L600.6546720424016,321.4928732242671L601.0841847834979,324.4695941286395L602.3727230067867,326.2869963704924L603.1397100444586,327.3828603329072L607.4961964184351,328.0162186455646L608.4472603451483,328.41430341078717L609.4903627163822,328.65908461423237L610.1959907910403,328.7623724789461L611.3618110883017,328.855395983506L611.6686059033703,328.9193754204415L612.8037467191248,328.94609640686434L613.0491825711798,328.9883512491617L613.4786953122762,329.01240892152293L613.8161696088517,329.03152582890465L614.3684002759755,329.04381853228847L614.4297592389893,329.04842757555065L615.1353873136475,329.0329378858978L615.1660667951544,321.70170141269534L615.1967462766612,324.6279741145384L615.2887847211819,326.37590458319664L615.8716948698125,327.3993830925666L616.9454767225533,328.03635708019107L617.46702790817,328.417562709883L617.8965406492664,328.64047279782704L618.5408097609107,328.7758567561918L619.0930404280346,328.8651012552797L619.3998352431033,328.92240691797224L620.9031298369404,328.94669997526586L622.1303090972154,328.98408551477513L622.5598218383117,328.97566911100273L622.7438987273529,329.0085021603926L623.1734114684492,329.0304820525767L623.4495268020112,329.03995585747026L623.6642831725592,329.0128089973641L623.6949626540661,329.03244955996905L623.8176805800936,328.89730792484426L624.5846676177656,328.96845767753433L624.8914624328343,329.0035391928786L625.5050520629719,329.03288187666897L625.9345648040681,329.03561014422405L627.0390261383156,329.0467639207206L627.6219362869464,329.05394380566906L629.1252308807833,329.0587136457694L629.1559103622902,329.0612273566611L630.1376537705103,329.05847498957786L631.3034740677715,329.0681153815505L634.7088965150349,329.0532492525245L634.9850118485969,329.05008338054387L635.4758835527069,321.5553382692266L635.5679219972274,324.5477608354396L635.8440373307893,326.25830503869975L636.7030628129819,327.351587368761L637.7768446657227,326.58535046237614L638.1449984438051,319.001091316287L639.3414982225734,321.2937226698325L640.1084852602452,322.6694692324383L640.6300364458622,320.5883110712725L641.9799336321646,322.11548188121026L642.7162411883297,322.5334244206473L643.3911897814811,318.3997979291031L644.2502152636737,267.5952866971992L645.906907265045,288.5935519743339L647.2568044513475,304.2054381504314L649.9872783054595,313.24972857826833L650.0179577869665,313.6583072579267L652.6870726780647,318.14894565849426L652.9325085301198,317.9948700690561L654.3130851979292,319.72456001535846L656.1538540883419,323.16290107789047L658.0253024602613,323.2909518458122L658.2400588308094,322.48988388742026L659.1297637945089,324.52057775826654L660.2649046102633,324.9961929749511L660.7864557958802,322.29741924076336L662.074994019169,324.8957609480744L663.5476091314991,322.0383233541734L664.7747883917742,320.3321392291239L665.5417754294461,321.2917325190485L666.1246855780769,321.50457239336544L666.2780829856113,322.1864704488518L666.9837110602693,322.44985960786363L667.6586596534207,322.6259989167578L668.3029287650651,322.3698285480513L669.7448643958883,321.44658827536296L670.3891335075327,324.1879690473135L671.5242743232872,325.30376704776364L672.0151460273972,324.5315405377322L673.794555954796,323.8445344490395L675.1444531410986,325.0631812119785L675.2671710671262,318.61398683547486L676.034158104798,321.5706836900652L681.7098621835702,321.93247932436094L682.1700544061733,321.0193112684691L682.262092850694,323.0021312936857L682.9370414438454,322.190027657582L683.1211183328866,319.8555734075931L683.8267464075449,311.8254430645117L684.5937334452167,316.16815599162044L685.0539256678198,315.91169689929427L686.281104928095,320.02124603994423L686.4651818171361,320.90465145675614L686.8946945582325,315.87327131780495L687.2321688548082,320.668248460211L687.50828418837,320.92853943682877L688.9195403376863,322.85909621618123L689.1342967082345,323.1159963628801L689.257014634262,321.6131786330764L689.4410915233033,323.20918667887895L691.251180932209,324.32713780213356L692.0795269328946,323.5091983579041L692.7851550075529,325.44541692054804L694.9327187130341,324.2768441026524L695.6076673061855,325.9104487271931L696.6200901959124,326.67149028324957L696.8655260479675,325.16445004429784L697.1416413815294,319.49480731285996L697.3563977520774,322.5130260689346L698.5835770123525,324.60551313818337L698.982410271942,322.0304998158275L699.1358076794763,324.3453110971733L699.3198845685176,325.6680877313455L699.4119230130382,326.575997269716L701.743563607561,326.9996651104357L701.7742430890677,324.1464322422022L701.8356020520814,320.9215383474123L703.1241402753703,323.2458346262863L703.216178719891,319.21239695819435L704.1672426466041,321.5376505723028L704.9955886472898,318.92487377274256L705.0876270918104,322.17373124505184L705.2410244993448,324.2122467712519L706.95907546373,322.9670637606474L707.4192676863331,324.7322626219393L707.695383019895,325.7996439238803L707.7567419829088,324.30974393731617L708.953241761677,324.722067327506L709.2600365767457,326.0533495906565L709.689549317842,326.654027390349L711.0087670226377,322.01241069594715L711.683715615789,323.3108858692518L712.3893436904472,324.11914489202337L713.647202432229,322.5956809774726L714.0460356918185,322.0387401081403L714.0767151733254,318.413476482883L714.6903048034628,318.895927464865L714.7516637664766,317.1940822850393L714.9050611740109,310.5872822409437L715.2425354705866,315.42198123649547L718.6172784363432,320.4682159462696L718.64795791785,321.76323120946125L719.169509103467,320.380170083958L719.2922270294944,323.69151484589327L721.3784317719621,324.84249377451L721.4091112534688,325.96320788584023L721.5011496979895,326.8341693522505L721.5318291794964,321.7170104714656L722.7283289582647,321.40465196904313L723.0044442918265,323.51079712968L723.7407518479915,321.41067262222646L724.7531747377185,317.674324012701L725.4894822938836,320.68353845202097L725.5201617753905,319.8266556898778L726.624623109638,318.0918877574253L727.7904434068994,319.19575249822714L729.0176226671744,322.71176518533525L729.2630585192294,322.4368457955637L729.2937380007363,322.2188279972756L730.2448019274494,316.0729023444131L730.5209172610113,319.982236693577L730.6436351870389,322.8139405691159L732.6071220034789,324.73605849060914L734.6012883014259,326.30149317981176L735.3069163760841,74.59205739158665L737.8839928226619,174.9591771179356L737.9760312671824,233.79745815403672L738.1294286747168,269.3861631278368L740.1849539356776,291.48299287250506L740.7371846028014,306.05557462865914L743.0381457158172,312.23128645415557L744.2346454945853,317.21832405264854L744.2653249760922,321.41731676024483L746.5969655706149,323.91834487234604L746.9344398671905,325.5733881840388L749.0820035726719,326.8452666462402L749.4808368322613,327.14505505572845L750.3705417959607,326.2831909832622L750.4012212774676,325.91264863186075L751.6590800192496,326.33319657287876L752.3953875754147,325.657130392478L752.5794644644558,325.7254070287748L753.1930540945933,326.82363967379627L753.3771309836346,320.60313931756355L754.0214000952791,322.53495538870015L754.2054769843204,322.21479116116745L756.0462458747329,324.62979100260895L757.8563352836387,324.3751448011574L758.8380786918586,321.7707115220295L759.0528350624069,324.20791051166276L761.6299115089845,323.355068445764L765.6182441048785,324.163486697533L766.3852311425504,317.664516879979L766.7840644021398,321.2950961268551L767.6124104028256,323.24028435208874L767.8271667733736,324.7920430355466L768.1646410699493,317.54814522130835L768.3180384774837,320.12920945913777L768.5327948480318,323.2389280611097L768.5634743295387,325.39536090364294L768.992987070635,326.17390373092474L769.8520125528274,324.89256824616L771.9688967768021,321.7774067504396L772.0609352213226,321.9068279285121L773.3494734446115,324.0293456052019L774.4232552973522,325.6860914301837L775.5583961131066,326.55112863120354L778.3502289302324,322.81004837029985L778.4115878932461,325.2123376085304L778.8411006343424,325.51677065155656L782.1238051555782,326.60067016269204L782.3385615261265,325.23580737102657L782.706715304209,323.87661858074046L784.2100098980459,325.0776881487728L784.2713688610596,325.79088938838703L784.6088431576353,323.1413521583637L784.6395226391422,322.42978575840726L784.7929200466766,317.9110674767788L787.4006759747612,319.5960324553676L787.4927144192818,322.49470449288657L787.5233939007885,324.70705386732794L792.0025982007926,325.53637617425744L792.12531612682,324.7603097974639L792.155995608327,324.49704653327973L792.6775467939439,325.3614570225919L793.1377390165471,323.7794622030795L793.4445338316159,325.227849988723L793.7820081281914,323.4504903086577L793.9354055357257,319.74937232915977L794.0888029432604,321.9017532679914L794.2115208692877,323.9706046349207L794.395597758329,325.6914026847345L795.131905314494,326.6409860875769L795.4387001295628,325.9692130565996L796.2363666487415,324.44725930288587L796.2977256117555,326.11913240799936L797.6169433165511,322.84929874699503L798.3225713912092,324.8966671581148L799.3656737624431,325.17264419348106L799.88722494806,325.0997241823592L800.623532504225,325.0304033846225L801.2064426528557,323.7997841394799L801.6359553939519,325.0029319608035L802.648378283679,325.9981872581403L806.115159693956,324.9513567614223L807.6184542877929,323.29656660331943L809.4899026597124,324.2338740551096L810.1034922898499,325.3590829669279L810.4409665864256,325.6293334203817L811.0545562165631,326.8244650476655L812.8953251069757,325.07641570951847L813.2941583665652,325.00141641948653L814.4292991823196,323.42921141875667L815.0428888124571,324.58069711864374L815.3803631090328,324.8104974993073L818.0187985186243,322.38283274675393L818.325593333693,321.5195423942146L820.9947082247912,322.53332014075147L822.6514002261625,318.71540996576897L823.7865410419171,319.04366683509227L823.8479000049308,321.9840739542513L824.7376049686303,323.93964456749836L825.9341047473985,323.6683827899776L827.4067198597285,324.5585425750018L828.8793349720587,323.34333234519323L828.9406939350724,320.6466490591612L829.1861297871275,321.8950267349603L830.1065142323337,322.4017291401009L830.8121423069919,324.24166238307345L831.2416550480882,325.2015050695679L832.9903854939802,326.0984218481635L835.9356157186404,325.246932707973L837.3161923864498,324.8172055121391L837.4389103124773,323.77219719643335L839.2796792028898,318.0644260181319L840.6909353522062,319.7291508330335L841.6113197974125,318.9457404990174L842.2862683905637,321.16946272921933L842.5317042426187,323.638238259631L844.4645115775521,318.2282953526758L846.2746009864578,318.00469902413147L847.1949854316641,318.18686654996736L847.6858571357741,321.4173574108267L847.8699340248154,323.23215509410454L848.8823569145422,313.14774570022445L849.7720618782417,312.8923966747175L850.2015746193381,318.0362582337324L851.1526385460513,320.75259504751756L852.3491383248195,323.67674677340807L854.9875737344108,323.1529935150148L857.2271758844129,324.379787086417L857.9941629220847,324.90332118024367L858.3929961816741,321.71130533255115L858.6077525522223,324.4704325320476L858.6691115152361,325.4325097307535L861.0927905542793,321.7529648615356L862.902879963185,322.1807569356887L866.400340854969,324.56859709633176L866.8605330775721,326.37454371702063L868.4558661159298,327.37583076822085L869.2842121166154,327.7777390467535L871.1863399700418,328.2676764024992L871.9533270077137,328.5770592127225L873.8247753796333,328.625903879013L874.6838008618258,328.7780591877763L875.8189416775801,328.505555656193L876.892723530321,328.61889628734673L877.383595234431,328.6941994222014L877.9051464200478,328.8566065044243L879.1630051618298,328.76454359812635L880.7583382001874,328.70484475719263L882.0468764234762,328.79934196297523L882.4763891645724,328.91519148405314L882.9672608686825,328.97305620821845L883.611529980327,329.0243032097022L883.8876453138889,329.0258428269904L884.3785170179988,328.4561327396994L884.4705554625194,328.6476349637289L886.3113243529322,328.7386350285555L886.3420038344391,328.8846408322165L886.7715165755352,328.66951359956533L890.1462595412918,328.8413685310125L890.5450928008812,328.9451228162283L890.8825670974567,327.7811124717444L893.6437204330757,328.3095111436693L893.9505152481445,328.611010826726L894.1345921371857,328.8066736693394L896.0060405091052,328.9260944703627L897.2945787323941,328.99576164681156L902.1419368104805,329.0239248707878L903.307757107742,326.73595242812195L904.7190132570582,326.9622751360744L904.780372220072,327.8148871798451L906.0075514803472,328.22465831395095L906.038230961854,328.5751807638627L906.0689104433609,328.4849130323619L906.5597821474709,328.73227214776506L906.9586154070603,328.87967224704073L907.019974370074,328.5541359617819L910.0572430392548,328.7697635361426L914.3216909687108,328.90516885636214L914.6591652652863,328.9860626262157L916.6226520817265,329.03457436408814L916.8067289707677,329.0635966792862L916.990805859809,329.0798137708505L917.1135237858364,329.09147728866793L917.1442032673433,302.99257517442936L919.4451643803591,313.4380980517202L920.6723436406343,319.7040822188767L922.3597151235124,323.46006864475754L925.703778607762,325.68648363203454L926.0412529043376,327.04680769031086L926.2866887563927,327.85981910513203L927.7593038687228,326.6880663024255L928.4956114248878,327.6542235623857L929.7227906851629,328.2327734074984L929.8148291296835,328.3869983369746L930.7658930563966,328.6737027779966L931.0726878714654,328.8435385683456L931.2874442420136,328.87877839899147L931.7169569831099,328.81589601077087L931.8396749091374,328.92030116463695L933.5884053550294,328.9944692600592L934.201994985167,324.70609124090083L934.2940334296876,326.4613891299906L934.9383025413321,327.51801698505574L937.5767379509233,328.1384383907054L940.3685707680492,328.4974722336407L940.4299297310629,328.7190459963897L941.4116731392829,328.87134237439125L941.9639038064067,328.9653826937072L942.6695318810649,328.9459404821647L946.1669927728489,329.01105671022964L950.6461970728528,329.04119735235906L951.4438635920317,329.0573408839167L951.6892994440867,329.0715964276144L952.7937607783342,329.0866432610293L954.4811322612126,329.0949717746529L956.3832601146389,329.09902810684L956.7820933742282,329.099802691258L959.6046056728609,329.04242215043547L960.4943106365604,329.068597255967L961.6908104153285,329.08066573038263L963.6849767132755,329.0916857448958L970.2810652372541,329.0975909670466L972.7047442762973,329.1009168436486L973.5024107954762,329.10363839651416L974.1773593886276,329.1040172779175L974.7602695372581,329.10258393101344L975.3738591673956,329.10324016060156L975.5272565749301,329.10499948553496L976.0181282790401,329.1056053830937L976.3862820571227,329.1019337455267L976.8771537612326,329.09811863904514L977.7054997619183,329.1010165896684L979.791704504386,323.8915287478561L980.8348068756198,325.93326317468546L981.2949990982229,327.197252525581L981.6324733947986,327.7916309581873L981.6938323578123,328.3137344740701L981.9392682098674,328.6157289935432L982.0926656174017,328.35004025619514L983.1050885071287,328.6534763627472L984.8538189530207,328.8094898370171L987.0627416215158,328.9266008019859L988.0751645112426,328.988086883518L988.2899208817909,328.5666035686268L988.5660362153527,328.77527054433006L990.1000102906966,328.6552980915551L990.1920487352172,328.83354802984974L990.8363178468616,328.9420166649531L991.2044716249442,328.9949476305021L991.7873817735747,329.00420432455655L992.3702919222054,329.03530645768865L996.5427014071406,329.03852896417425L999.0277394091977,329.0585688099487L999.0584188907046,329.0552752250931L999.1811368167321,329.07419877920915L1000.1015212619385,329.08265934280473L1000.684431410569,329.0901656985015L1001.0832646701584,328.78268184246946L1002.0956875598854,328.8970298976706L1004.3046102283805,328.97698580188796L1004.458007635915,329.02918699867473L1005.2556741550936,329.05986308123215L1005.4090715626281,329.0786966259433L1006.6669303044101,329.08850991115L1007.1271225270133,328.92747520230307L1008.5076991948226,328.9981045765732L1009.6428400105771,329.02213065485773L1010.2871091222215,329.0399852026974L1010.9620577153729,329.06351210341376L1011.5756473455104,329.07690059487857L1011.7597242345515,329.0885322467952L1012.158557494141,329.0939751165707L1013.0175829763336,329.0934465374409L1014.2447622366086,329.0960090569894L1014.3368006811293,329.0798775259354L1015.5639799414043,329.08837410053906L1017.2206719427758,329.0962240104664L1017.6195052023652,329.091015212039L1018.2637743140094,329.09622578143404" style="fill: none;" fill="none"></path></g></g></g></g><g opacity="0.2"><g><g><g><path stroke="rgb(0, 119, 187)" stroke-width="2px" d="M85.20870324536335,226.37544772594634L85.30074168988398,226.6195520823021L86.09840820906278,226.8157433935054L86.80403628372096,226.8872730746438L88.76752310016106,226.89059519196215L89.04363843372298,227.05996835478032L90.94576628714934,227.03494831609885L91.09916369468371,227.07193016994307L91.74343280632813,227.09454907432513L92.29566347345191,227.0062991657594L93.3694453261926,227.0738817768166L93.43080428920636,227.21659028841947L93.67624014126137,227.07739028355542L96.83622673646968,227.14728631624354L98.03272651523788,227.19332450310745L98.46223925633416,227.1384383008115L100.36436710976052,227.19083565613954L101.19271311044619,227.29704473357478L101.68358481455623,227.72405193186043L101.89834118510437,228.0121880477888L103.37095629743446,227.15269160943808L103.76978955702386,227.98320997494258L104.19930229812013,227.7273740491788L104.5060971131889,227.32353395945313L105.8253148179846,227.88823908315524L106.07075067003962,228.29771471183017L107.57404526387658,227.8015131822042L108.00355800497286,228.68498807129828L108.06491696798662,230.19474237736137L108.52510919058976,227.86090562284286L108.70918607963104,229.25404593617327L109.56821156182359,227.55778160468944L112.91227504607318,227.56528103784373L113.70994156525197,227.94581148592312L113.74062104675885,227.95128256361903L113.9246979358001,227.92821413181105L114.75304393648578,228.5066462881289L115.02915927004767,229.06440018285465L116.53245386388463,228.46825006750558L116.62449230840527,228.65296198322267L117.45283830909094,230.30563311847624L117.79031260566659,228.69594119077362L120.12195320018922,234.15847786558155L122.60699120224625,236.17532103624458L124.29436268512448,240.31037033007286L124.38640112964512,228.0950545913271L124.81591387074138,229.1928444217474L124.9386317967689,238.39041676582L126.41124690909898,228.3081634834618L126.62600327964714,228.1328806796054L127.30095187279841,228.9656686104066L127.66910565088094,232.2154010491029L127.9759004659497,230.84462746623268L128.89628491115602,244.58903267239765L129.66327194882794,231.98778667441974L130.645015357048,239.89545103391094L131.53472032074743,242.49118137035953L132.02559202485747,249.43800826716492L132.5164637289675,251.3515807347865L133.1607328406119,255.1740549704336L134.2345146933526,261.1141158585248L135.7991682502033,269.7954607743511L136.3513989173271,276.1703407702637L136.627514250889,278.59804652617186L137.05702699198525,277.56105253908584L137.118385954999,277.31868050793236L137.21042439951964,280.69975718562273L138.56032158582224,283.7011284625215L140.49312892075548,280.55955944915485L140.76924425431736,294.31574556310386L141.16807751390675,287.1964042935407L141.2601159584274,290.1119103500478L141.50555181048242,296.08639846051403L142.7327310707575,293.8233129372013L143.25428225637438,300.5193090123875L143.65311551596378,302.11113770695175L145.30980751733514,293.8926388375443L146.38358937007584,302.1554490506551L147.64144811185778,306.11469200563704L148.22435826048846,285.3274803151919L151.01619107761425,311.288410050315L151.38434485569675,302.22143090551265L151.75249863377928,310.53207878570146L152.36608826391682,305.56266410354993L152.5194856714512,313.2488101188167L152.55016515295807,308.30792261157507L153.1637547830956,305.6443410440221L153.31715219063,307.8064843615392L154.69772885843946,311.2760453050814L155.065882636522,312.9739515080782L156.13966448926269,317.02497754755274L157.21344634200338,319.2900366059061L157.24412582351025,319.5433459956648L157.305484786524,318.8798839450714L158.6553819728266,319.643199330912L159.1769331584435,321.4446880280764L159.23829212145725,321.347369451897L159.3916895289916,320.9280521877175L160.15867656666356,321.10575736878525L160.18935604817042,322.442176366334L160.4961508632392,321.70407837267896L160.55750982625295,322.29977553432605L160.71090723378734,322.10282975712283L161.60061219748675,316.52739865492964L162.06080442008994,313.31028847635247L162.24488130913116,320.2021674978919L166.29457286803893,326.2228603122411L167.98194435091716,264.84620767135397L168.41145709201342,142.356370688011L169.48523894475412,313.3486929200385L172.76794346598993,314.7537854549586L174.94618665297818,325.5148282340979L176.29608383928075,325.0816414042163L177.12442983996647,311.96768299465555L177.2164682844871,325.0368860151288L178.99587821188595,322.1787389043878L180.8980060653123,325.58995961668535L181.971787918053,326.5746285428693L183.0148902892868,322.8835732390355L183.4444030303831,326.6723908218052L183.50576199339682,324.13296619384585L183.5364414749037,325.2536473175991L185.31585140230257,326.95158041686335L187.49409458929082,324.37002544125977L188.4758379975109,322.70328259001354L189.73369673929284,314.2135083094257L190.684760666006,314.59971267074684L194.36629844683125,312.7969130803419L194.91852911395506,326.6482763479002L194.97988807696876,326.70143176681813L196.51386215231264,313.86809582098556L198.23191311669774,326.5412920754946L198.6921053393009,326.6716142563244L200.2874383776585,326.65167709825533L200.9317074893029,327.4271836884444L201.08510489683727,324.2023760379536L201.14646385985102,327.0560393524605L202.46568156464676,327.56185758256424L204.42916838108687,326.2720845932617L205.28819386327942,327.82372092760767L206.14721934547197,327.3608432737917L207.74255238382955,327.9291237166168L209.64468023725593,328.23369550774146L209.98215453383156,327.754085377561L212.22175668383358,323.9723947917322L212.6512694249299,320.0330376006777L212.83534631397112,321.3998737070398L213.60233335164307,321.2482274115707L213.75573075917742,304.9559884679843L214.70679468589063,324.1287021932243L215.9646534276726,318.00757323406117L216.36348668726197,183.35185756473962L216.42484565027573,250.40964535215625L218.90988365233275,314.2316264575068L221.7323959509654,326.86102188345325L222.25394713658233,313.5678115004739L222.89821624822676,326.82241991494936L225.90480543590067,317.04236247254585L227.00926677014823,324.2656723775945L227.13198469617575,314.5875055342144L227.3774205482308,324.5764325373191L229.64770217973967,327.6038441979255L230.81352247700096,322.0092026508267L231.24303521809728,327.66034571809456L232.4088555153586,327.8291835252702L232.7770092934411,324.860777821357L234.0655475167299,327.83299637098474L236.15175225919756,327.69878331100193L236.42786759275944,328.01825666219355L236.51990603728007,326.7534875224178L238.85154663180273,310.9848090945268L238.91290559481646,328.08636760502725L240.56959759618783,327.3236721181923L241.42862307838038,327.6625133516769L243.45346885783422,310.18029890573445L244.64996863660244,327.89983522315487L247.41112197222137,327.8207597684777L247.9019936763314,327.9454082073796L248.33150641742768,328.11743510670357L250.20295478934716,328.2173323839419L250.87790338249846,328.0768108643814L253.11750553250047,327.95050179510486L253.17886449551423,327.24487153651626L254.16060790373427,328.4564548920021L255.3264282009956,328.5265417682697L257.5660303509976,328.5141437025009L257.6887482770251,328.1853548633302L258.1489404996283,328.3870429493002L259.4988376859309,295.8046352181543L262.10659361401537,327.5780078489604L262.6281447996323,324.5898142013028L262.7201832441529,328.0408949250357L263.76328561538674,312.3100913242006L263.82464457840047,328.1702834456249L264.03940094894864,324.9570969527945L265.1438622831962,313.86981307057295L265.7881313948406,328.0277513872418L266.52443895100566,328.1823567004182L266.8619132475813,326.4393079391333L267.69025924826695,302.1267642670441L268.3038488784045,327.99503139259656L268.45724628593894,312.9899426239489L271.7092713256678,316.26258725626246L272.0160661407366,324.03575999952295L273.55004021608045,327.6980122275629L274.1329503647111,325.2948530846344L274.5317836243005,314.3476264615602L274.7158605133418,327.99150498356505L275.11469377293116,328.0218947678264L276.8634242188231,326.0852432469409L277.5690522934813,327.9548002298014L277.7224497010157,314.34291875818207L278.45875725718076,328.0264008348553L279.13370585033203,303.6113340731723L279.53253910992146,324.133381115883L280.2688466660865,328.0178830267835L283.2140768907467,318.02496912313785L283.9503844469117,327.4241625694825L285.60707644828307,316.18082945567403L285.91387126335184,324.49902131060657L286.4967814119825,315.023625256448L288.1534734133539,327.56136299960747L289.34997319212204,321.81333752110925L289.4420116366427,327.8772373903709L289.8101654147252,310.79665719759305L290.63851141541085,324.5076150963511L290.76122934143837,326.7703732389814L293.9518954181536,327.6240677926776L294.1973312702086,327.89969191915645L294.6575234928117,328.0340953087773L297.63343319897876,327.8253913228693L298.4310997181576,327.15893453564007L299.1060483113089,327.86110459798294L301.9285606099416,327.0812541749389L302.1739964619966,324.26507723343383L303.4318552037785,328.2344058604364L305.303303575698,328.26720800005137L306.2543675024112,328.05961369931924L308.2178543188513,328.2922956220292L308.7700849859751,327.1728865032826L309.0768798010439,328.36998026557546L309.1075592825507,328.28486959684057L309.69046943118144,328.31492377735674L310.3960975058396,328.3524932375542L310.97900765447025,313.2856576626374L312.4823022483072,328.17140983389675L312.78909706337595,328.02716660756636L312.8811355078966,313.68483664634005L313.34132773049976,328.1072097282744L314.3537506202267,328.493792221993L317.3603398079006,328.5275021534639L318.43412166064127,297.5407211011241L319.753339365437,326.3433549052984L319.93741625447825,328.2331873053371L321.99294151543904,314.7460064376735L322.8519669976316,328.2321833207793L323.15876181270033,297.57370928753204L324.232543665441,305.77467384630785L326.28806892640176,325.5256391631146L327.2698123346218,328.00021209339195L329.0799017435276,327.05444116596794L330.1536835962683,328.08443175902386L330.49115789284394,313.6347773818309L330.85931167092645,324.63352457617606L331.3808628565434,327.01250868576926L334.8783237483273,324.69510949089886L335.952105601068,324.9586870875381L336.1361824901093,328.1682882393879L338.25306671408373,328.2627353392146L339.6029639003863,327.80773109659054L340.49266886408583,328.00023924663014L340.64606627162016,327.8643351480722L340.92218160518206,326.8569980647871L343.683334940801,328.4157634090112L343.77537338532164,328.5131642586458L344.63439886751416,328.21971373149677L344.9411936825829,328.46679976181065L346.7206036099818,328.49539079394157L347.79438546272246,328.70940632156396L348.8068083524494,328.70724935226605L348.8374878339563,328.7322814257423L350.5248593168345,328.6441740930913L350.6782567243689,327.9649669332521L354.48251243122166,328.05467163865507L354.57455087574226,328.4398819944476L356.29260184012736,328.6627310614855L356.50735821067553,328.84480635066313L357.09026835930615,311.06611051513704L357.1823068038268,328.8136681392136L357.8265759154712,328.89514507081765L358.0413322860194,328.764984289007L358.7469603606775,328.5460485432306L359.2685115462944,308.1673740244333L359.8207422134182,328.87785892964774L360.00481910245946,328.80390963373316L360.3116139175283,328.9194665346283L361.72287006684456,314.49504130603077L361.9683059188996,328.8911422809212L366.9690614045205,328.74379808198125L367.18381777506863,325.3244561102435L368.0121637757543,324.9982482420396L369.45409940657754,328.9092968546002L369.73021474013944,328.8385829698041L370.7119581483595,328.9521312698641L371.3562272600039,328.8700973221282L372.6754449647996,328.6538785918945L372.7674834093202,328.8229251021138L373.3810730394578,328.95368713113953L373.5958294100059,328.9109166694607L374.3934959291847,328.83377571169075L376.5410596346661,328.84493717016795L376.81717496822796,328.9320368350144L377.03193133877613,328.8717038815829L377.43076459836556,328.9073465325803L378.1057131915168,328.09045463848764L379.2715334887781,314.1000314151014L380.1919179339844,328.9902994718122L380.8975460086426,328.9481710407412L381.4497766757664,328.9798936892386L383.59734038124776,328.9923296153584L385.8062630497429,329.00527607803315L385.89830149426354,328.98694207455696L387.1254807545386,328.88052442256344L387.86178831070373,328.97078393843293L389.8559546086507,329.02081185251564L392.24895416618705,328.965067314518L392.40235157372143,328.9589113456415L392.4943900182421,328.7141818652091L393.29205653742093,328.88910347532067L394.6419537237234,328.99979332958424L395.1328254278335,328.98157330332435L395.86913298399855,328.9906123229425L396.39068416961544,328.9995076423992L398.5689273566037,329.01364553905637L399.18251698674123,328.95643440498316L399.39727335728935,329.0213643877207L402.8640547675665,329.04195104996245L402.9560932120871,328.92798098066663L403.6003623237315,329.0448357228317L405.4104517326373,329.03350420863467L405.717246547706,329.0335555920692L405.8399644737335,328.0600066075324L406.7296694374329,329.00394346006067L407.711412845653,329.0388612181038L407.74209232715987,329.05726824408964L409.3374253655175,328.9901085104545L409.85897655113445,328.9563744665654L410.2884892922307,329.02441663761323L410.7793609963407,329.0185216760267L411.3009121819576,328.9064148638627L412.52809144223266,329.0161689699987L413.93934759154905,328.9800510730904L413.9700270730559,328.95868040392446L414.6449756662072,328.98144148805807L414.8597320367553,328.99223195578213L415.7187575189479,328.8450135975395L416.02555233401665,328.9880001193275L416.17894974155104,328.9884320014315L416.5164240381267,329.0103678027208L416.7925393716886,328.9572045461963L417.22205211278487,329.00991746155427L418.38787241004616,328.99952120831114L418.4799108545668,329.01166282802L419.52301322580064,329.0351634577918L419.64573115182816,328.99017345980104L420.3513592264863,329.0337149032013L420.53543611552755,329.01973211513445L420.59679507854133,329.04419688829705L421.8239743388164,329.02021852856416L422.0080512278576,328.98923795793706L422.40688448744703,329.03304617440756L422.5602818949814,329.0344369748313L424.52376871142155,310.70953521912344L425.1066788600522,329.00686090204886L425.3827941936141,328.91274516595064L426.76337086142354,329.0343577421962L427.4689989360817,328.8982821906402L427.53035789909546,329.0489661789883L427.56103738060233,329.05598070306223L429.3711267895081,329.04955326069296L429.7392805675906,329.05575843946013L434.2491643491015,307.44075131473306L435.875176868966,329.0500513930577L436.4887664991035,328.5604304228683L437.4398304258167,329.0233118295273L437.7159457593786,329.0337285868915L438.2374969449955,329.04942374210236L438.75904813061237,328.9868314272528L439.71011205732555,328.80732910012154L440.90661183609376,329.00436623041156L441.2747656141763,329.0231687824996L441.98039368883445,328.8793024197738L442.40990642993074,329.0184164358145L442.47126539294453,328.79673676752077L444.68018806143965,328.7670082545491L448.17764895322364,291.59768346434663L450.4786100662394,328.78207245566034L451.12287917788376,288.638839126552L451.2762765854182,267.2091759958885L451.70578932651443,328.6390572923454L452.1659815491176,327.3671263789262L452.38073791966576,326.7343790092265L452.9636480682964,328.42820828627737L453.33180184637894,328.61330304552155L456.307711552546,328.69383603805676L457.1053780717247,311.6493792028148L457.22809599775223,328.7256499968126L457.7189677018623,328.7260268871849L459.0075059251511,328.67436930769793L460.97099274159126,312.37234127911677L461.0630311861119,328.7826435730598L461.5539028902219,318.92748999588423L464.2230177813202,312.5272487041894L464.4991331148821,328.6906546122013L465.4501970415953,328.73502634402115L466.12514563474656,328.69695253597996L469.0396963778999,328.73942238475837L471.24861904639505,328.81899197269354L472.6598751957113,328.81407747213785L473.51890067790384,310.70931182592096L475.32899008680965,328.9141187814582L475.8198617909196,328.87980023627864L476.77092571763285,328.69742596168174L477.6606306813323,328.80776742790744L478.5810151265386,328.38723679087127L478.9798483861279,328.9265746656364L479.56275853475864,328.90157004519745L480.8819762395544,327.4404389228395L481.49556586969186,328.87089193980125L483.27497579709075,328.90503405317526L483.79652698270763,328.8243127011108L484.6248729833933,328.8863365218036L485.26914209503775,328.30715932174513L485.6372958731203,328.19446618808144L486.0974880957234,328.97565636003515L486.2202060217509,328.94572297716616L486.74175720736787,324.4067551211822L487.8462185416154,328.9898432845621L489.07339780189045,328.74859945118254L489.1040772833973,328.9837397162959L490.08582069161736,329.008149749344L492.35610232312627,328.8590031471481L493.4605636573738,307.8275943339215L495.0865761772383,328.9913598828547L495.20929410326585,328.9326318185684L495.8228837334034,328.961853863688L497.32617832724037,328.9855592081039L498.21588329093976,328.9998243695044L499.5044215142286,329.0344677524272L501.0690750710793,329.0023302943173L501.5292672936825,328.9785667781573L501.7747031457375,322.59819184910134L501.9587800347788,328.99507541162046L503.5847925546432,328.962179863153L503.6768309991638,329.0177330864582L504.9040102594389,328.84141782783087L505.6709972971108,327.1875770047411L506.5607022608102,328.9542594156143L507.603804632044,328.9953615806256L508.6775864847847,329.0125774724282L509.38321455944293,325.69176798508215L509.8740862635529,329.0020624023538L511.5000987834174,329.04487212166185L512.113688413555,329.0110176066926L512.2057268580755,319.0153246397852L512.5125216731443,328.9887458804447L512.6965985621856,328.99905287919506L513.3715471553369,329.0438421830625L515.8872646389008,329.0473767669747L520.2130715313704,329.062799998994L522.2379173108243,329.0737424675689L522.2685967923311,329.0521011466811L522.4526736813724,329.0552396370141L522.7287890149344,328.75117119261813L523.2503402005512,304.32917455194183L523.6184939786338,329.0282188672254L523.8025708676751,329.02475333348394L525.6126602765808,312.37250848139104L527.1466343519246,328.9177693929988L528.5885699827478,328.93052394138283L529.6930313169954,311.1541575881569L530.4293388731604,328.9419721684635L530.5213773176811,328.92401943456883L532.8223384306968,328.9975077250325L533.0064153197382,329.00905394361L533.9267997649443,329.01263161829786L534.2029150985063,329.0331876207219L534.3256330245338,328.92708421713695L534.5097099135751,329.0255890129348L536.3197993224808,329.0423799447819L537.3322222122077,329.0252025504036L537.3629016937147,329.04029294646637L537.6083375457696,329.0552510722106L537.731055471797,329.04109879590084L538.252606657414,329.05386869293113L540.2160934738541,329.0566884967572L540.7990036224849,329.06267352657704L541.8114265122117,329.02897795334445L541.8421059937186,329.05704555755653L542.5784135498836,329.031313490517L544.9407336259131,329.03613104887296L546.8735409608464,310.1149831189531L548.1620791841352,329.0579664977471L548.2847971101628,328.98993348128073L549.6346942964653,329.0143238774839L550.217604445096,329.0356330289329L552.2731297060567,329.0589004470797L554.0525396334557,328.85955816104985L554.7581677081138,328.9812657308006L557.2432057101709,328.97157484073784L558.1022311923633,329.0133438126162L558.6237823779802,329.0450630990802L558.685141340994,328.92540506345705L559.6668847492141,329.05732695654297L560.6179486759273,329.06380729204966L562.428038084833,328.4529841599574L566.8152039403163,329.0579315390236L567.5515114964815,329.05374074828615L567.8276268300433,329.0443323439817L568.0117037190846,328.8146910111184L569.422959868401,328.7798862559443L569.5149983129215,329.06665928145696L570.0979084615523,329.0686803694625L570.6808186101829,329.01646354408746L574.1476000204599,329.0624269203539L574.5771127615562,329.07823849400273L576.5099200964895,329.04642045583694L577.7064198752577,329.08404780404004L578.350688986902,329.085248090128L580.1607783958078,319.85021287784315L580.5596116553972,329.05651131545375L580.866406470466,329.0598962995852L580.9891243964935,329.0786026134662L582.4310600273167,329.0864407982569L584.6399826958119,329.08264103128073L585.3149312889632,329.0685489450059L585.8364824745801,329.0888494516263L587.2477386238963,329.0907124236812L588.2908409951302,329.07178893876863L590.2850072930772,329.0880098132204L591.9416992944485,329.04618325045885L592.7393658136273,329.0381048087629L592.8927632211618,329.05501308521326L595.07100640815,329.0126169388461L595.1937243341774,313.82262502544586L596.1754677423976,328.9920924206874L597.6787623362345,328.98998745583657L599.5808901896609,329.0201058576156L599.6115696711678,329.01894747649055L600.3785567088397,329.0216901676899L600.6546720424016,310.9155434966433L601.0841847834979,328.93467548519817L602.3727230067867,329.0130997332717L603.1397100444586,329.02665627652954L607.4961964184351,328.96625611455073L608.4472603451483,329.011430558621L609.4903627163822,329.0262564194001L610.1959907910403,328.9173042760166L611.3618110883017,328.9949312403459L611.6686059033703,329.0153445758448L612.8037467191248,328.9861778864986L613.0491825711798,329.0517335126078L613.4786953122762,329.0484954300647L613.8161696088517,329.0602011899772L614.3684002759755,329.0622575873642L614.4297592389893,329.0553411404439L615.1353873136475,329.0097033514186L615.1660667951544,310.7048467028916L615.1967462766612,329.0173831673031L615.2887847211819,328.99780028618403L615.8716948698125,328.93460085662156L616.9454767225533,328.9918180616278L617.46702790817,328.98937115442095L617.8965406492664,328.9748379297431L618.5408097609107,328.97893269373895L619.0930404280346,328.9989680039115L619.3998352431033,329.008365412011L620.9031298369404,328.9831395612064L622.1303090972154,329.040163824039L622.5598218383117,328.9630445053441L622.7438987273529,329.0577517344775L623.1734114684492,329.06345189085283L623.4495268020112,329.05416656481066L623.6642831725592,328.9720887072049L623.6949626540661,329.0619104038764L623.8176805800936,328.69459547215706L624.5846676177656,329.07518230656945L624.8914624328343,329.05616146589495L625.5050520629719,329.07689590235464L625.9345648040681,329.0397025455567L627.0390261383156,329.0634945854653L627.6219362869464,329.0647136330918L629.1252308807833,329.06586840591984L629.1559103622902,329.06499792299866L630.1376537705103,329.05434643895296L631.3034740677715,329.0825759695095L634.7088965150349,329.0309500589855L634.9850118485969,329.045334572573L635.4758835527069,310.31322060225057L635.5679219972274,329.0363946847591L635.8440373307893,328.8241213435899L636.7030628129819,328.99151086385297L637.7768446657227,325.4359951027988L638.1449984438051,307.62470259715326L639.3414982225734,324.73266970015084L640.1084852602452,324.73308907634697L640.6300364458622,317.46657382952395L641.9799336321646,324.40623809611685L642.7162411883297,323.16033822980285L643.3911897814811,312.1993581917868L644.2502152636737,191.38851984934328L645.906907265045,320.09094989003586L647.2568044513475,327.62326741457775L649.9872783054595,326.8161642200238L650.0179577869665,314.2711752774143L652.6870726780647,324.88490325934555L652.9325085301198,317.76375668489885L654.3130851979292,322.31909493481203L656.1538540883419,328.3204126716884L658.0253024602613,323.48302799769476L658.2400588308094,321.28828194983237L659.1297637945089,327.56661856453593L660.2649046102633,325.709615799978L660.7864557958802,318.2492586394818L662.074994019169,328.79327350904083L663.5476091314991,317.7521669633219L664.7747883917742,317.7728630415498L665.5417754294461,322.7311224539353L666.1246855780769,321.8238322048408L666.2780829856113,323.20931753208146L666.9837110602693,322.84494334638134L667.6586596534207,322.8902078800991L668.3029287650651,321.98557299499157L669.7448643958883,320.06172786633044L670.3891335075327,328.30004020523927L671.5242743232872,326.97746404843883L672.0151460273972,323.3732007726851L673.794555954796,322.8140253160004L675.1444531410986,326.89115135638696L675.2671710671262,308.9401952707194L676.034158104798,326.0057289719507L681.7098621835702,322.4751727758046L682.1700544061733,319.64955918463136L682.262092850694,325.97636133151053L682.9370414438454,320.9718722034264L683.1211183328866,316.3538920326098L683.8267464075449,299.7802475498897L684.5937334452167,322.68222538228343L685.0539256678198,315.527008260805L686.281104928095,326.18556975091917L686.4651818171361,322.229759581974L686.8946945582325,308.3262011093782L687.2321688548082,327.86071417382L687.50828418837,321.31897590175555L688.9195403376863,325.75493138520983L689.1342967082345,323.5013465829285L689.257014634262,319.35895203837094L689.4410915233033,325.6031987475827L691.251180932209,326.0040644870154L692.0795269328946,322.28228919156L692.7851550075529,328.3497447645139L694.9327187130341,322.5239848758089L695.6076673061855,328.36085566400425L696.6200901959124,327.81305261733417L696.8655260479675,322.9038896858702L697.1416413815294,310.99034321570315L697.3563977520774,327.0403542030466L698.5835770123525,327.7442437420564L698.982410271942,318.16797983229384L699.1358076794763,327.81752801919185L699.3198845685176,327.65225268260383L699.4119230130382,327.93786157727186L701.743563607561,327.6351668715153L701.7742430890677,319.8665829398518L701.8356020520814,316.0841975052275L703.1241402753703,326.7322790445973L703.216178719891,313.1622404560564L704.1672426466041,325.0255309934655L704.9955886472898,315.0057085734023L705.0876270918104,327.04701745351576L705.2410244993448,327.27002006055193L706.95907546373,321.0992892447407L707.4192676863331,327.3800609138772L707.695383019895,327.40071587679176L707.7567419829088,322.07489395746995L708.953241761677,325.34055241279077L709.2600365767457,328.05027298538226L709.689549317842,327.55504408988764L711.0087670226377,315.0499856543445L711.683715615789,325.2585986292088L712.3893436904472,325.3315334261807L713.647202432229,320.31048510564653L714.0460356918185,321.20332880414173L714.0767151733254,312.97558104499717L714.6903048034628,319.61960393783795L714.7516637664766,314.64131451530073L714.9050611740109,300.6770821748003L715.2425354705866,322.67402972982313L718.6172784363432,328.0375680109307L718.64795791785,323.70575410424874L719.169509103467,318.30557839570304L719.2922270294944,328.6585319887962L721.3784317719621,326.568962167435L721.4091112534688,327.6442790528356L721.5011496979895,328.14061155186596L721.5318291794964,314.04127215028825L722.7283289582647,320.9361142154094L723.0044442918265,326.67001487063527L723.7407518479915,318.2604858610461L724.7531747377185,312.0698010984129L725.4894822938836,325.1973601110009L725.5201617753905,318.54133154666306L726.624623109638,315.4897358587465L727.7904434068994,320.8515496094299L729.0176226671744,327.98578421599746L729.2630585192294,322.0244667109064L729.2937380007363,321.89180129984345L730.2448019274494,306.8540138651193L730.5209172610113,325.8462382173228L730.6436351870389,327.0614963824243L732.6071220034789,327.619235372849L734.6012883014259,328.64964521361566L735.3069163760841,-302.972096290751L737.8839928226619,325.5098567074591L737.9760312671824,322.05487970818837L738.1294286747168,322.7692205885369L740.1849539356776,324.62823748950734L740.7371846028014,327.9144472628904L743.0381457158172,321.4948541924002L744.2346454945853,324.69888045038795L744.2653249760922,327.71580582163926L746.5969655706149,327.6698870404979L746.9344398671905,328.0559531515779L749.0820035726719,328.7530843395422L749.4808368322613,327.5947376699608L750.3705417959607,324.99039487456287L750.4012212774676,325.3568351047586L751.6590800192496,326.9640184844057L752.3953875754147,324.64303112187685L752.5794644644558,325.82782198321996L753.1930540945933,328.47098864132846L753.3771309836346,311.2723887832145L754.0214000952791,325.43267949540507L754.2054769843204,321.73454481986835L756.0462458747329,328.25229076477115L757.8563352836387,323.9931754989801L758.8380786918586,317.86406160333763L759.0528350624069,327.86370899611273L761.6299115089845,322.0758053469158L765.6182441048785,325.37611407518654L766.3852311425504,307.916062153648L766.7840644021398,326.74096499716927L767.6124104028256,326.15806668993923L767.8271667733736,327.11968106073346L768.1646410699493,306.6822984999509L768.3180384774837,324.0008058158819L768.5327948480318,327.9035059640676L768.5634743295387,328.6300101674428L768.992987070635,327.3417179718474L769.8520125528274,322.9705650190129L771.9688967768021,317.1046645068589L772.0609352213226,322.1009596956208L773.3494734446115,327.21312212023673L774.4232552973522,328.17121016765634L775.5583961131066,327.8486844327333L778.3502289302324,317.1984279789444L778.4115878932461,328.81577146587614L778.8411006343424,325.97342021609586L782.1238051555782,328.22651942939524L782.3385615261265,323.1885131835284L782.706715304209,321.83783539531123L784.2100098980459,326.87929250082135L784.2713688610596,326.8606912478084L784.6088431576353,319.16704631332874L784.6395226391422,321.36243615847263L784.7929200466766,311.132990054336L787.4006759747612,322.12347992325084L787.4927144192818,326.84271254916507L787.5233939007885,328.02557792899006L792.0025982007926,326.7803596346517L792.12531612682,323.5962102322735L792.155995608327,324.1021516370035L792.6775467939439,326.6580727565601L793.1377390165471,321.40646997381094L793.4445338316159,327.4004316671883L793.7820081281914,320.7844507885598L793.9354055357257,314.19769535991287L794.0888029432604,325.13032467623884L794.2115208692877,327.0738816853146L794.395597758329,328.2725997594553L795.131905314494,328.06536119184045L795.4387001295628,324.9615535101335L796.2363666487415,322.16432867231526L796.2977256117555,328.6269420656697L797.6169433165511,317.9445482554884L798.3225713912092,327.96771977479443L799.3656737624431,325.5866097465305L799.88722494806,324.99034416567645L800.623532504225,324.9264221880175L801.2064426528557,321.95385527176603L801.6359553939519,326.8076536927888L802.648378283679,327.49107020414556L806.115159693956,323.38111101634524L807.6184542877929,320.8143813661652L809.4899026597124,325.6398352327949L810.1034922898499,327.0468963346552L810.4409665864256,326.0347091005626L811.0545562165631,328.6171624885912L812.8953251069757,322.4543417022979L813.2941583665652,324.88891748443854L814.4292991823196,321.0709039176619L815.0428888124571,326.30792566847435L815.3803631090328,325.1551980703027L818.0187985186243,318.74133561792394L818.325593333693,320.22460686540563L820.9947082247912,324.05398676055677L822.6514002261625,312.98854470329513L823.7865410419171,319.53605213907724L823.8479000049308,326.3946846329899L824.7376049686303,326.873000487369L825.9341047473985,323.26149012369655L827.4067198597285,325.893782252538L828.8793349720587,321.52051700048037L828.9406939350724,316.60162413011307L829.1861297871275,323.76759324865907L830.1065142323337,323.16178274781174L830.8121423069919,327.0015622475323L831.2416550480882,326.64126909930945L832.9903854939802,327.44379701605703L835.9356157186404,323.96969899768715L837.3161923864498,324.17261471838816L837.4389103124773,322.20468472287473L839.2796792028898,309.50276925067976L840.6909353522062,322.2262380553859L841.6113197974125,317.7706249979933L842.2862683905637,324.50504607452217L842.5317042426187,327.34140155524847L844.4645115775521,310.11338099224304L846.2746009864578,317.6693045313149L847.1949854316641,318.4601178387212L847.6858571357741,326.2630937021157L847.8699340248154,325.9543516190212L848.8823569145422,298.0211316094044L849.7720618782417,312.50937313645704L850.2015746193381,325.75205057225475L851.1526385460513,324.8271002681953L852.3491383248195,328.06297436224384L854.9875737344108,322.367363627425L857.2271758844129,326.2199774435203L857.9941629220847,325.68862232098354L858.3929961816741,316.9232815610124L858.6077525522223,328.6091233312923L858.6691115152361,326.8756255288123L861.0927905542793,316.23364755770865L862.902879963185,322.82244504691846L866.400340854969,328.1503573372963L866.8605330775721,329.0834636480539L868.4558661159298,328.8777613450212L869.2842121166154,328.38060146455246L871.1863399700418,329.0025824361178L871.9533270077137,329.0411334280574L873.8247753796333,328.6991708784488L874.6838008618258,329.00629215092135L875.8189416775801,328.0968003588181L876.892723530321,328.7889072340773L877.383595234431,328.80715412448336L877.9051464200478,329.1002171277586L879.1630051618298,328.6264492386794L880.7583382001874,328.6152964957921L882.0468764234762,328.94108777164917L882.4763891645724,329.08896576566997L882.9672608686825,329.05985329446645L883.611529980327,329.1011737119278L883.8876453138889,329.0281522529228L884.3785170179988,327.6015676087628L884.4705554625194,328.93488829977315L886.3113243529322,328.87513512579545L886.3420038344391,329.10364953770807L886.7715165755352,328.34682275058856L890.1462595412918,329.09915092818324L890.5450928008812,329.100754244052L890.8825670974567,326.0350969550185L893.6437204330757,329.10210915155665L893.9505152481445,329.06326035131104L894.1345921371857,329.1001679332594L896.0060405091052,329.10522567189787L897.2945787323941,329.10026241148483L902.1419368104805,329.06616970675225L903.307757107742,323.30399376412316L904.7190132570582,327.30175919800314L904.780372220072,329.0938052455011L906.0075514803472,328.8393150151097L906.038230961854,329.10096443873033L906.0689104433609,328.3495114351107L906.5597821474709,329.1033108208698L906.9586154070603,329.10077239595427L907.019974370074,328.0658315338938L910.0572430392548,329.09320489768356L914.3216909687108,329.1082768366914L914.6591652652863,329.1074032809961L916.6226520817265,329.10734197089687L916.8067289707677,329.1071301520833L916.990805859809,329.1041394081968L917.1135237858364,329.10897256539414L917.1442032673433,263.84422200307154L919.4451643803591,329.10638236765647L920.6723436406343,329.10305846961137L922.3597151235124,329.0940482835789L925.703778607762,329.02610611294995L926.0412529043376,329.08729377772534L926.2866887563927,329.07933622736385L927.7593038687228,324.9304370983657L928.4956114248878,329.10345945232604L929.7227906851629,329.10059817516753L929.8148291296835,328.61833573118895L930.7658930563966,329.1037594395295L931.0726878714654,329.09829225386915L931.2874442420136,328.9316381449603L931.7169569831099,328.72157242843997L931.8396749091374,329.0769088954361L933.5884053550294,329.1057214031925L934.201994985167,318.27352421216335L934.2940334296876,329.0943359636253L934.9383025413321,329.1029587676533L937.5767379509233,329.06907049917993L940.3685707680492,329.0360229980436L940.4299297310629,329.05140664051316L941.4116731392829,329.09978694139363L941.9639038064067,329.1064431726811L942.6695318810649,328.916777164851L946.1669927728489,329.108731052327L950.6461970728528,329.0864083155533L951.4438635920317,329.0815561812531L951.6892994440867,329.092979743161L952.7937607783342,329.10921351115155L954.4811322612126,329.10746454508825L956.3832601146389,329.1051126051207L956.7820933742282,329.1009645678849L959.6046056728609,328.95635133920166L960.4943106365604,329.1078599142644L961.6908104153285,329.098768442006L963.6849767132755,329.1082157666657L970.2810652372541,329.1064488002727L972.7047442762973,329.1059056585516L973.5024107954762,329.1077207258125L974.1773593886276,329.10458560002246L974.7602695372581,329.10043391065733L975.3738591673956,329.10422450498373L975.5272565749301,329.1076384729351L976.0181282790401,329.10651422943175L976.3862820571227,329.0964262891762L976.8771537612326,329.0923959793229L977.7054997619183,329.1053635156033L979.791704504386,316.0772969851376L980.8348068756198,328.99586481492963L981.2949990982229,329.0932365519243L981.6324733947986,328.6831986070967L981.6938323578123,329.0968897478943L981.9392682098674,329.0687207727529L982.0926656174017,327.9515071501731L983.1050885071287,329.1086305225753L984.8538189530207,329.0435100484219L987.0627416215158,329.102267249439L988.0751645112426,329.08031600581626L988.2899208817909,327.93437859629006L988.5660362153527,329.0882710078849L990.1000102906966,328.4753394123926L990.1920487352172,329.1009229372917L990.8363178468616,329.10471961760805L991.2044716249442,329.07434407882573L991.7873817735747,329.0180893656383L992.3702919222054,329.0819596573867L996.5427014071406,329.04336272390265L999.0277394091977,329.08862857861044L999.0584188907046,329.0503348478097L999.1811368167321,329.1025841103832L1000.1015212619385,329.09535018819815L1000.684431410569,329.10142523204655L1001.0832646701584,328.32145605842146L1002.0956875598854,329.06855198047236L1004.3046102283805,329.096919658214L1004.458007635915,329.10748879385477L1005.2556741550936,329.10587720506834L1005.4090715626281,329.1069469430099L1006.6669303044101,329.10322983896015L1007.1271225270133,328.68592313903264L1008.5076991948226,329.1040486379784L1009.6428400105771,329.05816977228454L1010.2871091222215,329.06676702445685L1010.9620577153729,329.0988024544884L1011.5756473455104,329.09698333207575L1011.7597242345515,329.10597972467014L1012.158557494141,329.1021394212339L1013.0175829763336,329.09265366874627L1014.2447622366086,329.0998528363121L1014.3368006811293,329.0556802293543L1015.5639799414043,329.1011189624446L1017.2206719427758,329.10799887535745L1017.6195052023652,329.08320201439784L1018.2637743140094,329.1040416355266" style="fill: none;" fill="none"></path></g></g></g></g></g></g><g transform="translate(58, 378)" clip-path="url(#clip_1)"><clipPath id="clip_1"><rect width="1266" height="21"></rect></clipPath><g><g><line x1="83.92016502207453" y1="0" x2="83.92016502207453" y2="5" style="visibility: inherit;" fill="rgb(0, 0, 0)" stroke="rgb(204, 204, 204)" stroke-width="1px"></line><line x1="237.31757255645888" y1="0" x2="237.31757255645888" y2="5" style="visibility: inherit;" fill="rgb(0, 0, 0)" stroke="rgb(204, 204, 204)" stroke-width="1px"></line><line x1="390.71498009084326" y1="0" x2="390.71498009084326" y2="5" style="visibility: inherit;" fill="rgb(0, 0, 0)" stroke="rgb(204, 204, 204)" stroke-width="1px"></line><line x1="544.1123876252275" y1="0" x2="544.1123876252275" y2="5" style="visibility: inherit;" fill="rgb(0, 0, 0)" stroke="rgb(204, 204, 204)" stroke-width="1px"></line><line x1="697.5097951596118" y1="0" x2="697.5097951596118" y2="5" style="visibility: inherit;" fill="rgb(0, 0, 0)" stroke="rgb(204, 204, 204)" stroke-width="1px"></line><line x1="850.9072026939963" y1="0" x2="850.9072026939963" y2="5" style="visibility: inherit;" fill="rgb(0, 0, 0)" stroke="rgb(204, 204, 204)" stroke-width="1px"></line><line x1="1004.3046102283805" y1="0" x2="1004.3046102283805" y2="5" style="visibility: inherit;" fill="rgb(0, 0, 0)" stroke="rgb(204, 204, 204)" stroke-width="1px"></line><line x1="1157.7020177627649" y1="0" x2="1157.7020177627649" y2="5" style="visibility: inherit;" fill="rgb(0, 0, 0)" stroke="rgb(204, 204, 204)" stroke-width="1px"></line></g><g transform="translate(0, 8)"><text x="83.92016502207453" y="0" dx="0em" dy="0.95em" style="text-anchor: middle; visibility: inherit; font-family: &quot;Helvetica Neue&quot;, sans-serif; font-size: 12px; font-weight: 200;" fill="rgb(50, 49, 63)" stroke="none" stroke-width="1px">0</text><text x="237.31757255645888" y="0" dx="0em" dy="0.95em" style="text-anchor: middle; visibility: inherit; font-family: &quot;Helvetica Neue&quot;, sans-serif; font-size: 12px; font-weight: 200;" fill="rgb(50, 49, 63)" stroke="none" stroke-width="1px">5k</text><text x="390.71498009084326" y="0" dx="0em" dy="0.95em" style="text-anchor: middle; visibility: inherit; font-family: &quot;Helvetica Neue&quot;, sans-serif; font-size: 12px; font-weight: 200;" fill="rgb(50, 49, 63)" stroke="none" stroke-width="1px">10k</text><text x="544.1123876252275" y="0" dx="0em" dy="0.95em" style="text-anchor: middle; visibility: inherit; font-family: &quot;Helvetica Neue&quot;, sans-serif; font-size: 12px; font-weight: 200;" fill="rgb(50, 49, 63)" stroke="none" stroke-width="1px">15k</text><text x="697.5097951596118" y="0" dx="0em" dy="0.95em" style="text-anchor: middle; visibility: inherit; font-family: &quot;Helvetica Neue&quot;, sans-serif; font-size: 12px; font-weight: 200;" fill="rgb(50, 49, 63)" stroke="none" stroke-width="1px">20k</text><text x="850.9072026939963" y="0" dx="0em" dy="0.95em" style="text-anchor: middle; visibility: inherit; font-family: &quot;Helvetica Neue&quot;, sans-serif; font-size: 12px; font-weight: 200;" fill="rgb(50, 49, 63)" stroke="none" stroke-width="1px">25k</text><text x="1004.3046102283805" y="0" dx="0em" dy="0.95em" style="text-anchor: middle; visibility: inherit; font-family: &quot;Helvetica Neue&quot;, sans-serif; font-size: 12px; font-weight: 200;" fill="rgb(50, 49, 63)" stroke="none" stroke-width="1px">30k</text><text x="1157.7020177627649" y="0" dx="0em" dy="0.95em" style="text-anchor: middle; visibility: inherit; font-family: &quot;Helvetica Neue&quot;, sans-serif; font-size: 12px; font-weight: 200;" fill="rgb(50, 49, 63)" stroke="none" stroke-width="1px">35k</text></g><line x1="0" y1="0" x2="1266.83" y2="0" fill="rgb(0, 0, 0)" stroke="rgb(204, 204, 204)" stroke-width="1px"></line></g></g></g></g></svg>