<?xml version="1.0" encoding="utf-8" standalone="no"?>
<!DOCTYPE svg PUBLIC "-//W3C//DTD SVG 1.1//EN"
  "http://www.w3.org/Graphics/SVG/1.1/DTD/svg11.dtd">
<!-- Created with matplotlib (https://matplotlib.org/) -->
<svg height="288pt" version="1.1" viewBox="0 0 432 288" width="432pt" xmlns="http://www.w3.org/2000/svg" xmlns:xlink="http://www.w3.org/1999/xlink">
 <metadata>
  <rdf:RDF xmlns:cc="http://creativecommons.org/ns#" xmlns:dc="http://purl.org/dc/elements/1.1/" xmlns:rdf="http://www.w3.org/1999/02/22-rdf-syntax-ns#">
   <cc:Work>
    <dc:type rdf:resource="http://purl.org/dc/dcmitype/StillImage"/>
    <dc:date>2020-11-09T02:02:08.499306</dc:date>
    <dc:format>image/svg+xml</dc:format>
    <dc:creator>
     <cc:Agent>
      <dc:title>Matplotlib v3.3.1, https://matplotlib.org/</dc:title>
     </cc:Agent>
    </dc:creator>
   </cc:Work>
  </rdf:RDF>
 </metadata>
 <defs>
  <style type="text/css">*{stroke-linecap:butt;stroke-linejoin:round;}</style>
 </defs>
 <g id="figure_1">
  <g id="patch_1">
   <path d="M 0 288 
L 432 288 
L 432 0 
L 0 0 
z
" style="fill:none;"/>
  </g>
  <g id="axes_1">
   <g id="patch_2">
    <path d="M 54 252 
L 388.8 252 
L 388.8 34.56 
L 54 34.56 
z
" style="fill:#ffffff;"/>
   </g>
   <g id="PolyCollection_1">
    <path clip-path="url(#p3ca0bc8398)" d="M 69.218182 238.802403 
L 69.218182 238.802403 
L 71.797535 238.802403 
L 74.376888 238.802403 
L 76.95624 238.802403 
L 79.535593 238.802403 
L 82.114946 238.802403 
L 84.694299 238.773925 
L 87.273652 238.61522 
L 89.853005 239.471246 
L 92.432357 239.437917 
L 95.01171 239.409116 
L 97.591063 239.383903 
L 100.170416 239.361592 
L 102.749769 237.960318 
L 105.329122 240.214055 
L 107.908475 240.170309 
L 110.487827 240.130391 
L 113.06718 240.093773 
L 115.646533 240.060024 
L 118.225886 240.028789 
L 120.805239 239.99977 
L 123.384592 239.972718 
L 125.963945 239.947419 
L 128.543297 239.923693 
L 131.12265 239.901382 
L 133.702003 239.834418 
L 136.281356 239.860467 
L 138.860709 239.841666 
L 141.440062 239.823833 
L 144.019414 239.806887 
L 146.598767 239.561054 
L 149.17812 239.702274 
L 151.757473 234.229844 
L 154.336826 241.888213 
L 156.916179 238.308929 
L 159.495532 242.116364 
L 162.074884 242.071998 
L 164.654237 241.623069 
L 167.23359 241.99041 
L 169.812943 241.950934 
L 172.392296 241.912889 
L 174.971649 241.090335 
L 177.551002 241.353708 
L 180.130354 241.819064 
L 182.709707 240.999646 
L 185.28906 241.737226 
L 187.868413 241.681131 
L 190.447766 241.65191 
L 193.027119 241.065879 
L 195.606471 241.502978 
L 198.185824 240.624192 
L 200.765177 241.076465 
L 203.34453 240.527961 
L 205.923883 241.184875 
L 208.503236 240.562324 
L 211.082589 240.896546 
L 213.661941 233.508247 
L 216.241294 241.308011 
L 218.820647 241.115138 
L 221.4 240.496029 
L 223.979353 240.442494 
L 226.558706 240.103795 
L 229.138059 239.721165 
L 231.717411 238.509277 
L 234.296764 238.108737 
L 236.876117 236.183612 
L 239.45547 235.187061 
L 242.034823 235.791016 
L 244.614176 232.533156 
L 247.193529 234.829377 
L 249.772881 232.897015 
L 252.352234 232.177875 
L 254.931587 230.680428 
L 257.51094 230.535773 
L 260.090293 230.1521 
L 262.669646 228.661008 
L 265.248998 228.569019 
L 267.828351 227.086979 
L 270.407704 219.101779 
L 272.987057 222.092506 
L 275.56641 223.855515 
L 278.145763 222.46888 
L 280.725116 219.863675 
L 283.304468 219.214951 
L 285.883821 217.668554 
L 288.463174 215.284672 
L 291.042527 204.826665 
L 293.62188 212.314301 
L 296.201233 210.284043 
L 298.780586 207.195004 
L 301.359938 205.734477 
L 303.939291 202.613446 
L 306.518644 200.640106 
L 309.097997 198.598847 
L 311.67735 194.257454 
L 314.256703 194.730259 
L 316.836055 190.673561 
L 319.415408 188.151575 
L 321.994761 186.017722 
L 324.574114 182.803502 
L 327.153467 180.448327 
L 329.73282 175.822187 
L 332.312173 175.471368 
L 334.891525 172.038316 
L 337.470878 170.045881 
L 340.050231 167.543362 
L 342.629584 163.064335 
L 345.208937 161.90072 
L 347.78829 159.487169 
L 350.367643 155.332083 
L 352.946995 153.30266 
L 355.526348 150.217591 
L 358.105701 145.945149 
L 360.685054 144.103136 
L 363.264407 132.16471 
L 365.84376 138.776083 
L 368.423112 127.531641 
L 371.002465 132.029625 
L 373.581818 130.926957 
L 373.581818 130.926957 
L 373.581818 44.443636 
L 371.002465 48.204336 
L 368.423112 46.426813 
L 365.84376 60.861542 
L 363.264407 56.876995 
L 360.685054 72.038158 
L 358.105701 76.480526 
L 355.526348 83.379122 
L 352.946995 88.978077 
L 350.367643 93.468452 
L 347.78829 100.092099 
L 345.208937 104.855009 
L 342.629584 108.347059 
L 340.050231 115.210167 
L 337.470878 119.946088 
L 334.891525 124.137694 
L 332.312173 129.766813 
L 329.73282 132.219714 
L 327.153467 139.056275 
L 324.574114 143.427628 
L 321.994761 148.619076 
L 319.415408 152.626501 
L 316.836055 156.987674 
L 314.256703 162.817225 
L 311.67735 163.936043 
L 309.097997 170.031868 
L 306.518644 173.595467 
L 303.939291 177.037457 
L 301.359938 181.575662 
L 298.780586 184.310698 
L 296.201233 188.649763 
L 293.62188 191.774949 
L 291.042527 185.301587 
L 288.463174 197.86517 
L 285.883821 201.210616 
L 283.304468 203.597449 
L 280.725116 205.02094 
L 278.145763 208.410444 
L 275.56641 210.425652 
L 272.987057 209.230053 
L 270.407704 207.041795 
L 267.828351 216.576442 
L 265.248998 218.528963 
L 262.669646 219.009304 
L 260.090293 220.906807 
L 257.51094 221.616095 
L 254.931587 222.103821 
L 252.352234 223.941942 
L 249.772881 224.903944 
L 247.193529 227.053874 
L 244.614176 224.866766 
L 242.034823 228.473437 
L 239.45547 227.951899 
L 236.876117 229.123388 
L 234.296764 231.159158 
L 231.717411 231.560862 
L 229.138059 232.768167 
L 226.558706 233.111604 
L 223.979353 233.405374 
L 221.4 233.408584 
L 218.820647 233.981063 
L 216.241294 234.115368 
L 213.661941 226.255223 
L 211.082589 235.47202 
L 208.503236 235.089301 
L 205.923883 235.668398 
L 203.34453 234.959875 
L 200.765177 235.472454 
L 198.185824 234.967858 
L 195.606471 235.815361 
L 193.027119 235.320957 
L 190.447766 235.853428 
L 187.868413 235.82209 
L 185.28906 235.815683 
L 182.709707 235.013679 
L 180.130354 235.785742 
L 177.551002 235.251796 
L 174.971649 234.92299 
L 172.392296 235.691917 
L 169.812943 235.653871 
L 167.23359 235.614395 
L 164.654237 235.165056 
L 162.074884 235.532808 
L 159.495532 235.488442 
L 156.916179 231.588564 
L 154.336826 235.716592 
L 151.757473 227.966536 
L 149.17812 237.75333 
L 146.598767 237.581709 
L 144.019414 237.797919 
L 141.440062 237.780973 
L 138.860709 237.76314 
L 136.281356 237.744339 
L 133.702003 237.678571 
L 131.12265 237.703424 
L 128.543297 237.681113 
L 125.963945 237.657386 
L 123.384592 237.632088 
L 120.805239 237.605035 
L 118.225886 237.576016 
L 115.646533 237.544781 
L 113.06718 237.511033 
L 110.487827 237.474415 
L 107.908475 237.434496 
L 105.329122 237.39075 
L 102.749769 235.040561 
L 100.170416 238.243214 
L 97.591063 238.220902 
L 95.01171 238.195689 
L 92.432357 238.166888 
L 89.853005 238.133559 
L 87.273652 237.19917 
L 84.694299 238.489848 
L 82.114946 238.802403 
L 79.535593 238.802403 
L 76.95624 238.802403 
L 74.376888 238.802403 
L 71.797535 238.802403 
L 69.218182 238.802403 
z
" style="fill:#1f77b4;fill-opacity:0.4;"/>
   </g>
   <g id="matplotlib.axis_1">
    <g id="xtick_1">
     <g id="line2d_1">
      <path clip-path="url(#p3ca0bc8398)" d="M 69.218182 252 
L 69.218182 34.56 
" style="fill:none;stroke:#b0b0b0;stroke-linecap:square;stroke-width:0.8;"/>
     </g>
     <g id="line2d_2">
      <defs>
       <path d="M 0 0 
L 0 3.5 
" id="m94f4423d52" style="stroke:#000000;stroke-width:0.8;"/>
      </defs>
      <g>
       <use style="stroke:#000000;stroke-width:0.8;" x="69.218182" xlink:href="#m94f4423d52" y="252"/>
      </g>
     </g>
     <g id="text_1">
      <!-- 0 -->
      <g transform="translate(66.036932 266.598437)scale(0.1 -0.1)">
       <defs>
        <path d="M 31.78125 66.40625 
Q 24.171875 66.40625 20.328125 58.90625 
Q 16.5 51.421875 16.5 36.375 
Q 16.5 21.390625 20.328125 13.890625 
Q 24.171875 6.390625 31.78125 6.390625 
Q 39.453125 6.390625 43.28125 13.890625 
Q 47.125 21.390625 47.125 36.375 
Q 47.125 51.421875 43.28125 58.90625 
Q 39.453125 66.40625 31.78125 66.40625 
z
M 31.78125 74.21875 
Q 44.046875 74.21875 50.515625 64.515625 
Q 56.984375 54.828125 56.984375 36.375 
Q 56.984375 17.96875 50.515625 8.265625 
Q 44.046875 -1.421875 31.78125 -1.421875 
Q 19.53125 -1.421875 13.0625 8.265625 
Q 6.59375 17.96875 6.59375 36.375 
Q 6.59375 54.828125 13.0625 64.515625 
Q 19.53125 74.21875 31.78125 74.21875 
z
" id="DejaVuSans-48"/>
       </defs>
       <use xlink:href="#DejaVuSans-48"/>
      </g>
     </g>
    </g>
    <g id="xtick_2">
     <g id="line2d_3">
      <path clip-path="url(#p3ca0bc8398)" d="M 120.805239 252 
L 120.805239 34.56 
" style="fill:none;stroke:#b0b0b0;stroke-linecap:square;stroke-width:0.8;"/>
     </g>
     <g id="line2d_4">
      <g>
       <use style="stroke:#000000;stroke-width:0.8;" x="120.805239" xlink:href="#m94f4423d52" y="252"/>
      </g>
     </g>
     <g id="text_2">
      <!-- 20 -->
      <g transform="translate(114.442739 266.598437)scale(0.1 -0.1)">
       <defs>
        <path d="M 19.1875 8.296875 
L 53.609375 8.296875 
L 53.609375 0 
L 7.328125 0 
L 7.328125 8.296875 
Q 12.9375 14.109375 22.625 23.890625 
Q 32.328125 33.6875 34.8125 36.53125 
Q 39.546875 41.84375 41.421875 45.53125 
Q 43.3125 49.21875 43.3125 52.78125 
Q 43.3125 58.59375 39.234375 62.25 
Q 35.15625 65.921875 28.609375 65.921875 
Q 23.96875 65.921875 18.8125 64.3125 
Q 13.671875 62.703125 7.8125 59.421875 
L 7.8125 69.390625 
Q 13.765625 71.78125 18.9375 73 
Q 24.125 74.21875 28.421875 74.21875 
Q 39.75 74.21875 46.484375 68.546875 
Q 53.21875 62.890625 53.21875 53.421875 
Q 53.21875 48.921875 51.53125 44.890625 
Q 49.859375 40.875 45.40625 35.40625 
Q 44.1875 33.984375 37.640625 27.21875 
Q 31.109375 20.453125 19.1875 8.296875 
z
" id="DejaVuSans-50"/>
       </defs>
       <use xlink:href="#DejaVuSans-50"/>
       <use x="63.623047" xlink:href="#DejaVuSans-48"/>
      </g>
     </g>
    </g>
    <g id="xtick_3">
     <g id="line2d_5">
      <path clip-path="url(#p3ca0bc8398)" d="M 172.392296 252 
L 172.392296 34.56 
" style="fill:none;stroke:#b0b0b0;stroke-linecap:square;stroke-width:0.8;"/>
     </g>
     <g id="line2d_6">
      <g>
       <use style="stroke:#000000;stroke-width:0.8;" x="172.392296" xlink:href="#m94f4423d52" y="252"/>
      </g>
     </g>
     <g id="text_3">
      <!-- 40 -->
      <g transform="translate(166.029796 266.598437)scale(0.1 -0.1)">
       <defs>
        <path d="M 37.796875 64.3125 
L 12.890625 25.390625 
L 37.796875 25.390625 
z
M 35.203125 72.90625 
L 47.609375 72.90625 
L 47.609375 25.390625 
L 58.015625 25.390625 
L 58.015625 17.1875 
L 47.609375 17.1875 
L 47.609375 0 
L 37.796875 0 
L 37.796875 17.1875 
L 4.890625 17.1875 
L 4.890625 26.703125 
z
" id="DejaVuSans-52"/>
       </defs>
       <use xlink:href="#DejaVuSans-52"/>
       <use x="63.623047" xlink:href="#DejaVuSans-48"/>
      </g>
     </g>
    </g>
    <g id="xtick_4">
     <g id="line2d_7">
      <path clip-path="url(#p3ca0bc8398)" d="M 223.979353 252 
L 223.979353 34.56 
" style="fill:none;stroke:#b0b0b0;stroke-linecap:square;stroke-width:0.8;"/>
     </g>
     <g id="line2d_8">
      <g>
       <use style="stroke:#000000;stroke-width:0.8;" x="223.979353" xlink:href="#m94f4423d52" y="252"/>
      </g>
     </g>
     <g id="text_4">
      <!-- 60 -->
      <g transform="translate(217.616853 266.598437)scale(0.1 -0.1)">
       <defs>
        <path d="M 33.015625 40.375 
Q 26.375 40.375 22.484375 35.828125 
Q 18.609375 31.296875 18.609375 23.390625 
Q 18.609375 15.53125 22.484375 10.953125 
Q 26.375 6.390625 33.015625 6.390625 
Q 39.65625 6.390625 43.53125 10.953125 
Q 47.40625 15.53125 47.40625 23.390625 
Q 47.40625 31.296875 43.53125 35.828125 
Q 39.65625 40.375 33.015625 40.375 
z
M 52.59375 71.296875 
L 52.59375 62.3125 
Q 48.875 64.0625 45.09375 64.984375 
Q 41.3125 65.921875 37.59375 65.921875 
Q 27.828125 65.921875 22.671875 59.328125 
Q 17.53125 52.734375 16.796875 39.40625 
Q 19.671875 43.65625 24.015625 45.921875 
Q 28.375 48.1875 33.59375 48.1875 
Q 44.578125 48.1875 50.953125 41.515625 
Q 57.328125 34.859375 57.328125 23.390625 
Q 57.328125 12.15625 50.6875 5.359375 
Q 44.046875 -1.421875 33.015625 -1.421875 
Q 20.359375 -1.421875 13.671875 8.265625 
Q 6.984375 17.96875 6.984375 36.375 
Q 6.984375 53.65625 15.1875 63.9375 
Q 23.390625 74.21875 37.203125 74.21875 
Q 40.921875 74.21875 44.703125 73.484375 
Q 48.484375 72.75 52.59375 71.296875 
z
" id="DejaVuSans-54"/>
       </defs>
       <use xlink:href="#DejaVuSans-54"/>
       <use x="63.623047" xlink:href="#DejaVuSans-48"/>
      </g>
     </g>
    </g>
    <g id="xtick_5">
     <g id="line2d_9">
      <path clip-path="url(#p3ca0bc8398)" d="M 275.56641 252 
L 275.56641 34.56 
" style="fill:none;stroke:#b0b0b0;stroke-linecap:square;stroke-width:0.8;"/>
     </g>
     <g id="line2d_10">
      <g>
       <use style="stroke:#000000;stroke-width:0.8;" x="275.56641" xlink:href="#m94f4423d52" y="252"/>
      </g>
     </g>
     <g id="text_5">
      <!-- 80 -->
      <g transform="translate(269.20391 266.598437)scale(0.1 -0.1)">
       <defs>
        <path d="M 31.78125 34.625 
Q 24.75 34.625 20.71875 30.859375 
Q 16.703125 27.09375 16.703125 20.515625 
Q 16.703125 13.921875 20.71875 10.15625 
Q 24.75 6.390625 31.78125 6.390625 
Q 38.8125 6.390625 42.859375 10.171875 
Q 46.921875 13.96875 46.921875 20.515625 
Q 46.921875 27.09375 42.890625 30.859375 
Q 38.875 34.625 31.78125 34.625 
z
M 21.921875 38.8125 
Q 15.578125 40.375 12.03125 44.71875 
Q 8.5 49.078125 8.5 55.328125 
Q 8.5 64.0625 14.71875 69.140625 
Q 20.953125 74.21875 31.78125 74.21875 
Q 42.671875 74.21875 48.875 69.140625 
Q 55.078125 64.0625 55.078125 55.328125 
Q 55.078125 49.078125 51.53125 44.71875 
Q 48 40.375 41.703125 38.8125 
Q 48.828125 37.15625 52.796875 32.3125 
Q 56.78125 27.484375 56.78125 20.515625 
Q 56.78125 9.90625 50.3125 4.234375 
Q 43.84375 -1.421875 31.78125 -1.421875 
Q 19.734375 -1.421875 13.25 4.234375 
Q 6.78125 9.90625 6.78125 20.515625 
Q 6.78125 27.484375 10.78125 32.3125 
Q 14.796875 37.15625 21.921875 38.8125 
z
M 18.3125 54.390625 
Q 18.3125 48.734375 21.84375 45.5625 
Q 25.390625 42.390625 31.78125 42.390625 
Q 38.140625 42.390625 41.71875 45.5625 
Q 45.3125 48.734375 45.3125 54.390625 
Q 45.3125 60.0625 41.71875 63.234375 
Q 38.140625 66.40625 31.78125 66.40625 
Q 25.390625 66.40625 21.84375 63.234375 
Q 18.3125 60.0625 18.3125 54.390625 
z
" id="DejaVuSans-56"/>
       </defs>
       <use xlink:href="#DejaVuSans-56"/>
       <use x="63.623047" xlink:href="#DejaVuSans-48"/>
      </g>
     </g>
    </g>
    <g id="xtick_6">
     <g id="line2d_11">
      <path clip-path="url(#p3ca0bc8398)" d="M 327.153467 252 
L 327.153467 34.56 
" style="fill:none;stroke:#b0b0b0;stroke-linecap:square;stroke-width:0.8;"/>
     </g>
     <g id="line2d_12">
      <g>
       <use style="stroke:#000000;stroke-width:0.8;" x="327.153467" xlink:href="#m94f4423d52" y="252"/>
      </g>
     </g>
     <g id="text_6">
      <!-- 100 -->
      <g transform="translate(317.609717 266.598437)scale(0.1 -0.1)">
       <defs>
        <path d="M 12.40625 8.296875 
L 28.515625 8.296875 
L 28.515625 63.921875 
L 10.984375 60.40625 
L 10.984375 69.390625 
L 28.421875 72.90625 
L 38.28125 72.90625 
L 38.28125 8.296875 
L 54.390625 8.296875 
L 54.390625 0 
L 12.40625 0 
z
" id="DejaVuSans-49"/>
       </defs>
       <use xlink:href="#DejaVuSans-49"/>
       <use x="63.623047" xlink:href="#DejaVuSans-48"/>
       <use x="127.246094" xlink:href="#DejaVuSans-48"/>
      </g>
     </g>
    </g>
    <g id="xtick_7">
     <g id="line2d_13">
      <path clip-path="url(#p3ca0bc8398)" d="M 378.740524 252 
L 378.740524 34.56 
" style="fill:none;stroke:#b0b0b0;stroke-linecap:square;stroke-width:0.8;"/>
     </g>
     <g id="line2d_14">
      <g>
       <use style="stroke:#000000;stroke-width:0.8;" x="378.740524" xlink:href="#m94f4423d52" y="252"/>
      </g>
     </g>
     <g id="text_7">
      <!-- 120 -->
      <g transform="translate(369.196774 266.598437)scale(0.1 -0.1)">
       <use xlink:href="#DejaVuSans-49"/>
       <use x="63.623047" xlink:href="#DejaVuSans-50"/>
       <use x="127.246094" xlink:href="#DejaVuSans-48"/>
      </g>
     </g>
    </g>
    <g id="text_8">
     <!-- No. of Items $\longrightarrow$ -->
     <g transform="translate(180.3 280.276563)scale(0.1 -0.1)">
      <defs>
       <path d="M 9.8125 72.90625 
L 23.09375 72.90625 
L 55.421875 11.921875 
L 55.421875 72.90625 
L 64.984375 72.90625 
L 64.984375 0 
L 51.703125 0 
L 19.390625 60.984375 
L 19.390625 0 
L 9.8125 0 
z
" id="DejaVuSans-78"/>
       <path d="M 30.609375 48.390625 
Q 23.390625 48.390625 19.1875 42.75 
Q 14.984375 37.109375 14.984375 27.296875 
Q 14.984375 17.484375 19.15625 11.84375 
Q 23.34375 6.203125 30.609375 6.203125 
Q 37.796875 6.203125 41.984375 11.859375 
Q 46.1875 17.53125 46.1875 27.296875 
Q 46.1875 37.015625 41.984375 42.703125 
Q 37.796875 48.390625 30.609375 48.390625 
z
M 30.609375 56 
Q 42.328125 56 49.015625 48.375 
Q 55.71875 40.765625 55.71875 27.296875 
Q 55.71875 13.875 49.015625 6.21875 
Q 42.328125 -1.421875 30.609375 -1.421875 
Q 18.84375 -1.421875 12.171875 6.21875 
Q 5.515625 13.875 5.515625 27.296875 
Q 5.515625 40.765625 12.171875 48.375 
Q 18.84375 56 30.609375 56 
z
" id="DejaVuSans-111"/>
       <path d="M 10.6875 12.40625 
L 21 12.40625 
L 21 0 
L 10.6875 0 
z
" id="DejaVuSans-46"/>
       <path id="DejaVuSans-32"/>
       <path d="M 37.109375 75.984375 
L 37.109375 68.5 
L 28.515625 68.5 
Q 23.6875 68.5 21.796875 66.546875 
Q 19.921875 64.59375 19.921875 59.515625 
L 19.921875 54.6875 
L 34.71875 54.6875 
L 34.71875 47.703125 
L 19.921875 47.703125 
L 19.921875 0 
L 10.890625 0 
L 10.890625 47.703125 
L 2.296875 47.703125 
L 2.296875 54.6875 
L 10.890625 54.6875 
L 10.890625 58.5 
Q 10.890625 67.625 15.140625 71.796875 
Q 19.390625 75.984375 28.609375 75.984375 
z
" id="DejaVuSans-102"/>
       <path d="M 9.8125 72.90625 
L 19.671875 72.90625 
L 19.671875 0 
L 9.8125 0 
z
" id="DejaVuSans-73"/>
       <path d="M 18.3125 70.21875 
L 18.3125 54.6875 
L 36.8125 54.6875 
L 36.8125 47.703125 
L 18.3125 47.703125 
L 18.3125 18.015625 
Q 18.3125 11.328125 20.140625 9.421875 
Q 21.96875 7.515625 27.59375 7.515625 
L 36.8125 7.515625 
L 36.8125 0 
L 27.59375 0 
Q 17.1875 0 13.234375 3.875 
Q 9.28125 7.765625 9.28125 18.015625 
L 9.28125 47.703125 
L 2.6875 47.703125 
L 2.6875 54.6875 
L 9.28125 54.6875 
L 9.28125 70.21875 
z
" id="DejaVuSans-116"/>
       <path d="M 56.203125 29.59375 
L 56.203125 25.203125 
L 14.890625 25.203125 
Q 15.484375 15.921875 20.484375 11.0625 
Q 25.484375 6.203125 34.421875 6.203125 
Q 39.59375 6.203125 44.453125 7.46875 
Q 49.3125 8.734375 54.109375 11.28125 
L 54.109375 2.78125 
Q 49.265625 0.734375 44.1875 -0.34375 
Q 39.109375 -1.421875 33.890625 -1.421875 
Q 20.796875 -1.421875 13.15625 6.1875 
Q 5.515625 13.8125 5.515625 26.8125 
Q 5.515625 40.234375 12.765625 48.109375 
Q 20.015625 56 32.328125 56 
Q 43.359375 56 49.78125 48.890625 
Q 56.203125 41.796875 56.203125 29.59375 
z
M 47.21875 32.234375 
Q 47.125 39.59375 43.09375 43.984375 
Q 39.0625 48.390625 32.421875 48.390625 
Q 24.90625 48.390625 20.390625 44.140625 
Q 15.875 39.890625 15.1875 32.171875 
z
" id="DejaVuSans-101"/>
       <path d="M 52 44.1875 
Q 55.375 50.25 60.0625 53.125 
Q 64.75 56 71.09375 56 
Q 79.640625 56 84.28125 50.015625 
Q 88.921875 44.046875 88.921875 33.015625 
L 88.921875 0 
L 79.890625 0 
L 79.890625 32.71875 
Q 79.890625 40.578125 77.09375 44.375 
Q 74.3125 48.1875 68.609375 48.1875 
Q 61.625 48.1875 57.5625 43.546875 
Q 53.515625 38.921875 53.515625 30.90625 
L 53.515625 0 
L 44.484375 0 
L 44.484375 32.71875 
Q 44.484375 40.625 41.703125 44.40625 
Q 38.921875 48.1875 33.109375 48.1875 
Q 26.21875 48.1875 22.15625 43.53125 
Q 18.109375 38.875 18.109375 30.90625 
L 18.109375 0 
L 9.078125 0 
L 9.078125 54.6875 
L 18.109375 54.6875 
L 18.109375 46.1875 
Q 21.1875 51.21875 25.484375 53.609375 
Q 29.78125 56 35.6875 56 
Q 41.65625 56 45.828125 52.96875 
Q 50 49.953125 52 44.1875 
z
" id="DejaVuSans-109"/>
       <path d="M 44.28125 53.078125 
L 44.28125 44.578125 
Q 40.484375 46.53125 36.375 47.5 
Q 32.28125 48.484375 27.875 48.484375 
Q 21.1875 48.484375 17.84375 46.4375 
Q 14.5 44.390625 14.5 40.28125 
Q 14.5 37.15625 16.890625 35.375 
Q 19.28125 33.59375 26.515625 31.984375 
L 29.59375 31.296875 
Q 39.15625 29.25 43.1875 25.515625 
Q 47.21875 21.78125 47.21875 15.09375 
Q 47.21875 7.46875 41.1875 3.015625 
Q 35.15625 -1.421875 24.609375 -1.421875 
Q 20.21875 -1.421875 15.453125 -0.5625 
Q 10.6875 0.296875 5.421875 2 
L 5.421875 11.28125 
Q 10.40625 8.6875 15.234375 7.390625 
Q 20.0625 6.109375 24.8125 6.109375 
Q 31.15625 6.109375 34.5625 8.28125 
Q 37.984375 10.453125 37.984375 14.40625 
Q 37.984375 18.0625 35.515625 20.015625 
Q 33.0625 21.96875 24.703125 23.78125 
L 21.578125 24.515625 
Q 13.234375 26.265625 9.515625 29.90625 
Q 5.8125 33.546875 5.8125 39.890625 
Q 5.8125 47.609375 11.28125 51.796875 
Q 16.75 56 26.8125 56 
Q 31.78125 56 36.171875 55.265625 
Q 40.578125 54.546875 44.28125 53.078125 
z
" id="DejaVuSans-115"/>
       <path d="M 138.484375 33.546875 
L 138.484375 29.15625 
L 119.28125 9.96875 
L 113.421875 15.828125 
L 124.8125 27.203125 
L 5.71875 27.203125 
L 5.71875 35.5 
L 124.8125 35.5 
L 113.421875 46.875 
L 119.28125 52.734375 
z
" id="DejaVuSans-10230"/>
      </defs>
      <use transform="translate(0 0.015625)" xlink:href="#DejaVuSans-78"/>
      <use transform="translate(74.804688 0.015625)" xlink:href="#DejaVuSans-111"/>
      <use transform="translate(135.986328 0.015625)" xlink:href="#DejaVuSans-46"/>
      <use transform="translate(167.773438 0.015625)" xlink:href="#DejaVuSans-32"/>
      <use transform="translate(199.560547 0.015625)" xlink:href="#DejaVuSans-111"/>
      <use transform="translate(260.742188 0.015625)" xlink:href="#DejaVuSans-102"/>
      <use transform="translate(295.947266 0.015625)" xlink:href="#DejaVuSans-32"/>
      <use transform="translate(327.734375 0.015625)" xlink:href="#DejaVuSans-73"/>
      <use transform="translate(357.226562 0.015625)" xlink:href="#DejaVuSans-116"/>
      <use transform="translate(396.435547 0.015625)" xlink:href="#DejaVuSans-101"/>
      <use transform="translate(457.958984 0.015625)" xlink:href="#DejaVuSans-109"/>
      <use transform="translate(555.371094 0.015625)" xlink:href="#DejaVuSans-115"/>
      <use transform="translate(607.470703 0.015625)" xlink:href="#DejaVuSans-32"/>
      <use transform="translate(658.740234 0.015625)" xlink:href="#DejaVuSans-10230"/>
     </g>
    </g>
   </g>
   <g id="matplotlib.axis_2">
    <g id="ytick_1">
     <g id="line2d_15">
      <path clip-path="url(#p3ca0bc8398)" d="M 54 238.802403 
L 388.8 238.802403 
" style="fill:none;stroke:#b0b0b0;stroke-linecap:square;stroke-width:0.8;"/>
     </g>
     <g id="line2d_16">
      <defs>
       <path d="M 0 0 
L -3.5 0 
" id="m810e0b73a7" style="stroke:#000000;stroke-width:0.8;"/>
      </defs>
      <g>
       <use style="stroke:#000000;stroke-width:0.8;" x="54" xlink:href="#m810e0b73a7" y="238.802403"/>
      </g>
     </g>
     <g id="text_9">
      <!-- 0.0 -->
      <g transform="translate(31.096875 242.601622)scale(0.1 -0.1)">
       <use xlink:href="#DejaVuSans-48"/>
       <use x="63.623047" xlink:href="#DejaVuSans-46"/>
       <use x="95.410156" xlink:href="#DejaVuSans-48"/>
      </g>
     </g>
    </g>
    <g id="ytick_2">
     <g id="line2d_17">
      <path clip-path="url(#p3ca0bc8398)" d="M 54 191.057985 
L 388.8 191.057985 
" style="fill:none;stroke:#b0b0b0;stroke-linecap:square;stroke-width:0.8;"/>
     </g>
     <g id="line2d_18">
      <g>
       <use style="stroke:#000000;stroke-width:0.8;" x="54" xlink:href="#m810e0b73a7" y="191.057985"/>
      </g>
     </g>
     <g id="text_10">
      <!-- 0.5 -->
      <g transform="translate(31.096875 194.857203)scale(0.1 -0.1)">
       <defs>
        <path d="M 10.796875 72.90625 
L 49.515625 72.90625 
L 49.515625 64.59375 
L 19.828125 64.59375 
L 19.828125 46.734375 
Q 21.96875 47.46875 24.109375 47.828125 
Q 26.265625 48.1875 28.421875 48.1875 
Q 40.625 48.1875 47.75 41.5 
Q 54.890625 34.8125 54.890625 23.390625 
Q 54.890625 11.625 47.5625 5.09375 
Q 40.234375 -1.421875 26.90625 -1.421875 
Q 22.3125 -1.421875 17.546875 -0.640625 
Q 12.796875 0.140625 7.71875 1.703125 
L 7.71875 11.625 
Q 12.109375 9.234375 16.796875 8.0625 
Q 21.484375 6.890625 26.703125 6.890625 
Q 35.15625 6.890625 40.078125 11.328125 
Q 45.015625 15.765625 45.015625 23.390625 
Q 45.015625 31 40.078125 35.4375 
Q 35.15625 39.890625 26.703125 39.890625 
Q 22.75 39.890625 18.8125 39.015625 
Q 14.890625 38.140625 10.796875 36.28125 
z
" id="DejaVuSans-53"/>
       </defs>
       <use xlink:href="#DejaVuSans-48"/>
       <use x="63.623047" xlink:href="#DejaVuSans-46"/>
       <use x="95.410156" xlink:href="#DejaVuSans-53"/>
      </g>
     </g>
    </g>
    <g id="ytick_3">
     <g id="line2d_19">
      <path clip-path="url(#p3ca0bc8398)" d="M 54 143.313566 
L 388.8 143.313566 
" style="fill:none;stroke:#b0b0b0;stroke-linecap:square;stroke-width:0.8;"/>
     </g>
     <g id="line2d_20">
      <g>
       <use style="stroke:#000000;stroke-width:0.8;" x="54" xlink:href="#m810e0b73a7" y="143.313566"/>
      </g>
     </g>
     <g id="text_11">
      <!-- 1.0 -->
      <g transform="translate(31.096875 147.112785)scale(0.1 -0.1)">
       <use xlink:href="#DejaVuSans-49"/>
       <use x="63.623047" xlink:href="#DejaVuSans-46"/>
       <use x="95.410156" xlink:href="#DejaVuSans-48"/>
      </g>
     </g>
    </g>
    <g id="ytick_4">
     <g id="line2d_21">
      <path clip-path="url(#p3ca0bc8398)" d="M 54 95.569148 
L 388.8 95.569148 
" style="fill:none;stroke:#b0b0b0;stroke-linecap:square;stroke-width:0.8;"/>
     </g>
     <g id="line2d_22">
      <g>
       <use style="stroke:#000000;stroke-width:0.8;" x="54" xlink:href="#m810e0b73a7" y="95.569148"/>
      </g>
     </g>
     <g id="text_12">
      <!-- 1.5 -->
      <g transform="translate(31.096875 99.368367)scale(0.1 -0.1)">
       <use xlink:href="#DejaVuSans-49"/>
       <use x="63.623047" xlink:href="#DejaVuSans-46"/>
       <use x="95.410156" xlink:href="#DejaVuSans-53"/>
      </g>
     </g>
    </g>
    <g id="ytick_5">
     <g id="line2d_23">
      <path clip-path="url(#p3ca0bc8398)" d="M 54 47.82473 
L 388.8 47.82473 
" style="fill:none;stroke:#b0b0b0;stroke-linecap:square;stroke-width:0.8;"/>
     </g>
     <g id="line2d_24">
      <g>
       <use style="stroke:#000000;stroke-width:0.8;" x="54" xlink:href="#m810e0b73a7" y="47.82473"/>
      </g>
     </g>
     <g id="text_13">
      <!-- 2.0 -->
      <g transform="translate(31.096875 51.623948)scale(0.1 -0.1)">
       <use xlink:href="#DejaVuSans-50"/>
       <use x="63.623047" xlink:href="#DejaVuSans-46"/>
       <use x="95.410156" xlink:href="#DejaVuSans-48"/>
      </g>
     </g>
    </g>
    <g id="text_14">
     <!-- Cost per sequence $\longrightarrow$ -->
     <g transform="translate(24.996875 200.68)rotate(-90)scale(0.1 -0.1)">
      <defs>
       <path d="M 64.40625 67.28125 
L 64.40625 56.890625 
Q 59.421875 61.53125 53.78125 63.8125 
Q 48.140625 66.109375 41.796875 66.109375 
Q 29.296875 66.109375 22.65625 58.46875 
Q 16.015625 50.828125 16.015625 36.375 
Q 16.015625 21.96875 22.65625 14.328125 
Q 29.296875 6.6875 41.796875 6.6875 
Q 48.140625 6.6875 53.78125 8.984375 
Q 59.421875 11.28125 64.40625 15.921875 
L 64.40625 5.609375 
Q 59.234375 2.09375 53.4375 0.328125 
Q 47.65625 -1.421875 41.21875 -1.421875 
Q 24.65625 -1.421875 15.125 8.703125 
Q 5.609375 18.84375 5.609375 36.375 
Q 5.609375 53.953125 15.125 64.078125 
Q 24.65625 74.21875 41.21875 74.21875 
Q 47.75 74.21875 53.53125 72.484375 
Q 59.328125 70.75 64.40625 67.28125 
z
" id="DejaVuSans-67"/>
       <path d="M 18.109375 8.203125 
L 18.109375 -20.796875 
L 9.078125 -20.796875 
L 9.078125 54.6875 
L 18.109375 54.6875 
L 18.109375 46.390625 
Q 20.953125 51.265625 25.265625 53.625 
Q 29.59375 56 35.59375 56 
Q 45.5625 56 51.78125 48.09375 
Q 58.015625 40.1875 58.015625 27.296875 
Q 58.015625 14.40625 51.78125 6.484375 
Q 45.5625 -1.421875 35.59375 -1.421875 
Q 29.59375 -1.421875 25.265625 0.953125 
Q 20.953125 3.328125 18.109375 8.203125 
z
M 48.6875 27.296875 
Q 48.6875 37.203125 44.609375 42.84375 
Q 40.53125 48.484375 33.40625 48.484375 
Q 26.265625 48.484375 22.1875 42.84375 
Q 18.109375 37.203125 18.109375 27.296875 
Q 18.109375 17.390625 22.1875 11.75 
Q 26.265625 6.109375 33.40625 6.109375 
Q 40.53125 6.109375 44.609375 11.75 
Q 48.6875 17.390625 48.6875 27.296875 
z
" id="DejaVuSans-112"/>
       <path d="M 41.109375 46.296875 
Q 39.59375 47.171875 37.8125 47.578125 
Q 36.03125 48 33.890625 48 
Q 26.265625 48 22.1875 43.046875 
Q 18.109375 38.09375 18.109375 28.8125 
L 18.109375 0 
L 9.078125 0 
L 9.078125 54.6875 
L 18.109375 54.6875 
L 18.109375 46.1875 
Q 20.953125 51.171875 25.484375 53.578125 
Q 30.03125 56 36.53125 56 
Q 37.453125 56 38.578125 55.875 
Q 39.703125 55.765625 41.0625 55.515625 
z
" id="DejaVuSans-114"/>
       <path d="M 14.796875 27.296875 
Q 14.796875 17.390625 18.875 11.75 
Q 22.953125 6.109375 30.078125 6.109375 
Q 37.203125 6.109375 41.296875 11.75 
Q 45.40625 17.390625 45.40625 27.296875 
Q 45.40625 37.203125 41.296875 42.84375 
Q 37.203125 48.484375 30.078125 48.484375 
Q 22.953125 48.484375 18.875 42.84375 
Q 14.796875 37.203125 14.796875 27.296875 
z
M 45.40625 8.203125 
Q 42.578125 3.328125 38.25 0.953125 
Q 33.9375 -1.421875 27.875 -1.421875 
Q 17.96875 -1.421875 11.734375 6.484375 
Q 5.515625 14.40625 5.515625 27.296875 
Q 5.515625 40.1875 11.734375 48.09375 
Q 17.96875 56 27.875 56 
Q 33.9375 56 38.25 53.625 
Q 42.578125 51.265625 45.40625 46.390625 
L 45.40625 54.6875 
L 54.390625 54.6875 
L 54.390625 -20.796875 
L 45.40625 -20.796875 
z
" id="DejaVuSans-113"/>
       <path d="M 8.5 21.578125 
L 8.5 54.6875 
L 17.484375 54.6875 
L 17.484375 21.921875 
Q 17.484375 14.15625 20.5 10.265625 
Q 23.53125 6.390625 29.59375 6.390625 
Q 36.859375 6.390625 41.078125 11.03125 
Q 45.3125 15.671875 45.3125 23.6875 
L 45.3125 54.6875 
L 54.296875 54.6875 
L 54.296875 0 
L 45.3125 0 
L 45.3125 8.40625 
Q 42.046875 3.421875 37.71875 1 
Q 33.40625 -1.421875 27.6875 -1.421875 
Q 18.265625 -1.421875 13.375 4.4375 
Q 8.5 10.296875 8.5 21.578125 
z
M 31.109375 56 
z
" id="DejaVuSans-117"/>
       <path d="M 54.890625 33.015625 
L 54.890625 0 
L 45.90625 0 
L 45.90625 32.71875 
Q 45.90625 40.484375 42.875 44.328125 
Q 39.84375 48.1875 33.796875 48.1875 
Q 26.515625 48.1875 22.3125 43.546875 
Q 18.109375 38.921875 18.109375 30.90625 
L 18.109375 0 
L 9.078125 0 
L 9.078125 54.6875 
L 18.109375 54.6875 
L 18.109375 46.1875 
Q 21.34375 51.125 25.703125 53.5625 
Q 30.078125 56 35.796875 56 
Q 45.21875 56 50.046875 50.171875 
Q 54.890625 44.34375 54.890625 33.015625 
z
" id="DejaVuSans-110"/>
       <path d="M 48.78125 52.59375 
L 48.78125 44.1875 
Q 44.96875 46.296875 41.140625 47.34375 
Q 37.3125 48.390625 33.40625 48.390625 
Q 24.65625 48.390625 19.8125 42.84375 
Q 14.984375 37.3125 14.984375 27.296875 
Q 14.984375 17.28125 19.8125 11.734375 
Q 24.65625 6.203125 33.40625 6.203125 
Q 37.3125 6.203125 41.140625 7.25 
Q 44.96875 8.296875 48.78125 10.40625 
L 48.78125 2.09375 
Q 45.015625 0.34375 40.984375 -0.53125 
Q 36.96875 -1.421875 32.421875 -1.421875 
Q 20.0625 -1.421875 12.78125 6.34375 
Q 5.515625 14.109375 5.515625 27.296875 
Q 5.515625 40.671875 12.859375 48.328125 
Q 20.21875 56 33.015625 56 
Q 37.15625 56 41.109375 55.140625 
Q 45.0625 54.296875 48.78125 52.59375 
z
" id="DejaVuSans-99"/>
      </defs>
      <use transform="translate(0 0.78125)" xlink:href="#DejaVuSans-67"/>
      <use transform="translate(69.824219 0.78125)" xlink:href="#DejaVuSans-111"/>
      <use transform="translate(131.005859 0.78125)" xlink:href="#DejaVuSans-115"/>
      <use transform="translate(183.105469 0.78125)" xlink:href="#DejaVuSans-116"/>
      <use transform="translate(222.314453 0.78125)" xlink:href="#DejaVuSans-32"/>
      <use transform="translate(254.101562 0.78125)" xlink:href="#DejaVuSans-112"/>
      <use transform="translate(317.578125 0.78125)" xlink:href="#DejaVuSans-101"/>
      <use transform="translate(379.101562 0.78125)" xlink:href="#DejaVuSans-114"/>
      <use transform="translate(420.214844 0.78125)" xlink:href="#DejaVuSans-32"/>
      <use transform="translate(452.001953 0.78125)" xlink:href="#DejaVuSans-115"/>
      <use transform="translate(504.101562 0.78125)" xlink:href="#DejaVuSans-101"/>
      <use transform="translate(565.625 0.78125)" xlink:href="#DejaVuSans-113"/>
      <use transform="translate(629.101562 0.78125)" xlink:href="#DejaVuSans-117"/>
      <use transform="translate(692.480469 0.78125)" xlink:href="#DejaVuSans-101"/>
      <use transform="translate(754.003906 0.78125)" xlink:href="#DejaVuSans-110"/>
      <use transform="translate(817.382812 0.78125)" xlink:href="#DejaVuSans-99"/>
      <use transform="translate(872.363281 0.78125)" xlink:href="#DejaVuSans-101"/>
      <use transform="translate(933.886719 0.78125)" xlink:href="#DejaVuSans-32"/>
      <use transform="translate(985.15625 0.78125)" xlink:href="#DejaVuSans-10230"/>
     </g>
    </g>
   </g>
   <g id="line2d_25">
    <defs>
     <path d="M 0 3 
C 0.795609 3 1.55874 2.683901 2.12132 2.12132 
C 2.683901 1.55874 3 0.795609 3 0 
C 3 -0.795609 2.683901 -1.55874 2.12132 -2.12132 
C 1.55874 -2.683901 0.795609 -3 0 -3 
C -0.795609 -3 -1.55874 -2.683901 -2.12132 -2.12132 
C -2.683901 -1.55874 -3 -0.795609 -3 0 
C -3 0.795609 -2.683901 1.55874 -2.12132 2.12132 
C -1.55874 2.683901 -0.795609 3 0 3 
z
" id="m9bdf754ffc" style="stroke:#000000;stroke-opacity:0.3;"/>
    </defs>
    <g clip-path="url(#p3ca0bc8398)">
     <use style="fill-opacity:0.3;stroke:#000000;stroke-opacity:0.3;" x="69.218182" xlink:href="#m9bdf754ffc" y="238.802403"/>
     <use style="fill-opacity:0.3;stroke:#000000;stroke-opacity:0.3;" x="71.797535" xlink:href="#m9bdf754ffc" y="238.802403"/>
     <use style="fill-opacity:0.3;stroke:#000000;stroke-opacity:0.3;" x="74.376888" xlink:href="#m9bdf754ffc" y="238.802403"/>
     <use style="fill-opacity:0.3;stroke:#000000;stroke-opacity:0.3;" x="76.95624" xlink:href="#m9bdf754ffc" y="238.802403"/>
     <use style="fill-opacity:0.3;stroke:#000000;stroke-opacity:0.3;" x="79.535593" xlink:href="#m9bdf754ffc" y="238.802403"/>
     <use style="fill-opacity:0.3;stroke:#000000;stroke-opacity:0.3;" x="82.114946" xlink:href="#m9bdf754ffc" y="238.802403"/>
     <use style="fill-opacity:0.3;stroke:#000000;stroke-opacity:0.3;" x="84.694299" xlink:href="#m9bdf754ffc" y="238.631887"/>
     <use style="fill-opacity:0.3;stroke:#000000;stroke-opacity:0.3;" x="87.273652" xlink:href="#m9bdf754ffc" y="237.907195"/>
     <use style="fill-opacity:0.3;stroke:#000000;stroke-opacity:0.3;" x="89.853005" xlink:href="#m9bdf754ffc" y="238.802403"/>
     <use style="fill-opacity:0.3;stroke:#000000;stroke-opacity:0.3;" x="92.432357" xlink:href="#m9bdf754ffc" y="238.802403"/>
     <use style="fill-opacity:0.3;stroke:#000000;stroke-opacity:0.3;" x="95.01171" xlink:href="#m9bdf754ffc" y="238.802403"/>
     <use style="fill-opacity:0.3;stroke:#000000;stroke-opacity:0.3;" x="97.591063" xlink:href="#m9bdf754ffc" y="238.802403"/>
     <use style="fill-opacity:0.3;stroke:#000000;stroke-opacity:0.3;" x="100.170416" xlink:href="#m9bdf754ffc" y="238.802403"/>
     <use style="fill-opacity:0.3;stroke:#000000;stroke-opacity:0.3;" x="102.749769" xlink:href="#m9bdf754ffc" y="236.50044"/>
     <use style="fill-opacity:0.3;stroke:#000000;stroke-opacity:0.3;" x="105.329122" xlink:href="#m9bdf754ffc" y="238.802403"/>
     <use style="fill-opacity:0.3;stroke:#000000;stroke-opacity:0.3;" x="107.908475" xlink:href="#m9bdf754ffc" y="238.802403"/>
     <use style="fill-opacity:0.3;stroke:#000000;stroke-opacity:0.3;" x="110.487827" xlink:href="#m9bdf754ffc" y="238.802403"/>
     <use style="fill-opacity:0.3;stroke:#000000;stroke-opacity:0.3;" x="113.06718" xlink:href="#m9bdf754ffc" y="238.802403"/>
     <use style="fill-opacity:0.3;stroke:#000000;stroke-opacity:0.3;" x="115.646533" xlink:href="#m9bdf754ffc" y="238.802403"/>
     <use style="fill-opacity:0.3;stroke:#000000;stroke-opacity:0.3;" x="118.225886" xlink:href="#m9bdf754ffc" y="238.802403"/>
     <use style="fill-opacity:0.3;stroke:#000000;stroke-opacity:0.3;" x="120.805239" xlink:href="#m9bdf754ffc" y="238.802403"/>
     <use style="fill-opacity:0.3;stroke:#000000;stroke-opacity:0.3;" x="123.384592" xlink:href="#m9bdf754ffc" y="238.802403"/>
     <use style="fill-opacity:0.3;stroke:#000000;stroke-opacity:0.3;" x="125.963945" xlink:href="#m9bdf754ffc" y="238.802403"/>
     <use style="fill-opacity:0.3;stroke:#000000;stroke-opacity:0.3;" x="128.543297" xlink:href="#m9bdf754ffc" y="238.802403"/>
     <use style="fill-opacity:0.3;stroke:#000000;stroke-opacity:0.3;" x="131.12265" xlink:href="#m9bdf754ffc" y="238.802403"/>
     <use style="fill-opacity:0.3;stroke:#000000;stroke-opacity:0.3;" x="133.702003" xlink:href="#m9bdf754ffc" y="238.756495"/>
     <use style="fill-opacity:0.3;stroke:#000000;stroke-opacity:0.3;" x="136.281356" xlink:href="#m9bdf754ffc" y="238.802403"/>
     <use style="fill-opacity:0.3;stroke:#000000;stroke-opacity:0.3;" x="138.860709" xlink:href="#m9bdf754ffc" y="238.802403"/>
     <use style="fill-opacity:0.3;stroke:#000000;stroke-opacity:0.3;" x="141.440062" xlink:href="#m9bdf754ffc" y="238.802403"/>
     <use style="fill-opacity:0.3;stroke:#000000;stroke-opacity:0.3;" x="144.019414" xlink:href="#m9bdf754ffc" y="238.802403"/>
     <use style="fill-opacity:0.3;stroke:#000000;stroke-opacity:0.3;" x="146.598767" xlink:href="#m9bdf754ffc" y="238.571381"/>
     <use style="fill-opacity:0.3;stroke:#000000;stroke-opacity:0.3;" x="149.17812" xlink:href="#m9bdf754ffc" y="238.727802"/>
     <use style="fill-opacity:0.3;stroke:#000000;stroke-opacity:0.3;" x="151.757473" xlink:href="#m9bdf754ffc" y="231.09819"/>
     <use style="fill-opacity:0.3;stroke:#000000;stroke-opacity:0.3;" x="154.336826" xlink:href="#m9bdf754ffc" y="238.802403"/>
     <use style="fill-opacity:0.3;stroke:#000000;stroke-opacity:0.3;" x="156.916179" xlink:href="#m9bdf754ffc" y="234.948746"/>
     <use style="fill-opacity:0.3;stroke:#000000;stroke-opacity:0.3;" x="159.495532" xlink:href="#m9bdf754ffc" y="238.802403"/>
     <use style="fill-opacity:0.3;stroke:#000000;stroke-opacity:0.3;" x="162.074884" xlink:href="#m9bdf754ffc" y="238.802403"/>
     <use style="fill-opacity:0.3;stroke:#000000;stroke-opacity:0.3;" x="164.654237" xlink:href="#m9bdf754ffc" y="238.394062"/>
     <use style="fill-opacity:0.3;stroke:#000000;stroke-opacity:0.3;" x="167.23359" xlink:href="#m9bdf754ffc" y="238.802403"/>
     <use style="fill-opacity:0.3;stroke:#000000;stroke-opacity:0.3;" x="169.812943" xlink:href="#m9bdf754ffc" y="238.802403"/>
     <use style="fill-opacity:0.3;stroke:#000000;stroke-opacity:0.3;" x="172.392296" xlink:href="#m9bdf754ffc" y="238.802403"/>
     <use style="fill-opacity:0.3;stroke:#000000;stroke-opacity:0.3;" x="174.971649" xlink:href="#m9bdf754ffc" y="238.006662"/>
     <use style="fill-opacity:0.3;stroke:#000000;stroke-opacity:0.3;" x="177.551002" xlink:href="#m9bdf754ffc" y="238.302752"/>
     <use style="fill-opacity:0.3;stroke:#000000;stroke-opacity:0.3;" x="180.130354" xlink:href="#m9bdf754ffc" y="238.802403"/>
     <use style="fill-opacity:0.3;stroke:#000000;stroke-opacity:0.3;" x="182.709707" xlink:href="#m9bdf754ffc" y="238.006662"/>
     <use style="fill-opacity:0.3;stroke:#000000;stroke-opacity:0.3;" x="185.28906" xlink:href="#m9bdf754ffc" y="238.776455"/>
     <use style="fill-opacity:0.3;stroke:#000000;stroke-opacity:0.3;" x="187.868413" xlink:href="#m9bdf754ffc" y="238.751611"/>
     <use style="fill-opacity:0.3;stroke:#000000;stroke-opacity:0.3;" x="190.447766" xlink:href="#m9bdf754ffc" y="238.752669"/>
     <use style="fill-opacity:0.3;stroke:#000000;stroke-opacity:0.3;" x="193.027119" xlink:href="#m9bdf754ffc" y="238.193418"/>
     <use style="fill-opacity:0.3;stroke:#000000;stroke-opacity:0.3;" x="195.606471" xlink:href="#m9bdf754ffc" y="238.65917"/>
     <use style="fill-opacity:0.3;stroke:#000000;stroke-opacity:0.3;" x="198.185824" xlink:href="#m9bdf754ffc" y="237.796025"/>
     <use style="fill-opacity:0.3;stroke:#000000;stroke-opacity:0.3;" x="200.765177" xlink:href="#m9bdf754ffc" y="238.27446"/>
     <use style="fill-opacity:0.3;stroke:#000000;stroke-opacity:0.3;" x="203.34453" xlink:href="#m9bdf754ffc" y="237.743918"/>
     <use style="fill-opacity:0.3;stroke:#000000;stroke-opacity:0.3;" x="205.923883" xlink:href="#m9bdf754ffc" y="238.426636"/>
     <use style="fill-opacity:0.3;stroke:#000000;stroke-opacity:0.3;" x="208.503236" xlink:href="#m9bdf754ffc" y="237.825812"/>
     <use style="fill-opacity:0.3;stroke:#000000;stroke-opacity:0.3;" x="211.082589" xlink:href="#m9bdf754ffc" y="238.184283"/>
     <use style="fill-opacity:0.3;stroke:#000000;stroke-opacity:0.3;" x="213.661941" xlink:href="#m9bdf754ffc" y="229.881735"/>
     <use style="fill-opacity:0.3;stroke:#000000;stroke-opacity:0.3;" x="216.241294" xlink:href="#m9bdf754ffc" y="237.71169"/>
     <use style="fill-opacity:0.3;stroke:#000000;stroke-opacity:0.3;" x="218.820647" xlink:href="#m9bdf754ffc" y="237.5481"/>
     <use style="fill-opacity:0.3;stroke:#000000;stroke-opacity:0.3;" x="221.4" xlink:href="#m9bdf754ffc" y="236.952306"/>
     <use style="fill-opacity:0.3;stroke:#000000;stroke-opacity:0.3;" x="223.979353" xlink:href="#m9bdf754ffc" y="236.923934"/>
     <use style="fill-opacity:0.3;stroke:#000000;stroke-opacity:0.3;" x="226.558706" xlink:href="#m9bdf754ffc" y="236.6077"/>
     <use style="fill-opacity:0.3;stroke:#000000;stroke-opacity:0.3;" x="229.138059" xlink:href="#m9bdf754ffc" y="236.244666"/>
     <use style="fill-opacity:0.3;stroke:#000000;stroke-opacity:0.3;" x="231.717411" xlink:href="#m9bdf754ffc" y="235.03507"/>
     <use style="fill-opacity:0.3;stroke:#000000;stroke-opacity:0.3;" x="234.296764" xlink:href="#m9bdf754ffc" y="234.633948"/>
     <use style="fill-opacity:0.3;stroke:#000000;stroke-opacity:0.3;" x="236.876117" xlink:href="#m9bdf754ffc" y="232.6535"/>
     <use style="fill-opacity:0.3;stroke:#000000;stroke-opacity:0.3;" x="239.45547" xlink:href="#m9bdf754ffc" y="231.56948"/>
     <use style="fill-opacity:0.3;stroke:#000000;stroke-opacity:0.3;" x="242.034823" xlink:href="#m9bdf754ffc" y="232.132227"/>
     <use style="fill-opacity:0.3;stroke:#000000;stroke-opacity:0.3;" x="244.614176" xlink:href="#m9bdf754ffc" y="228.699961"/>
     <use style="fill-opacity:0.3;stroke:#000000;stroke-opacity:0.3;" x="247.193529" xlink:href="#m9bdf754ffc" y="230.941625"/>
     <use style="fill-opacity:0.3;stroke:#000000;stroke-opacity:0.3;" x="249.772881" xlink:href="#m9bdf754ffc" y="228.900479"/>
     <use style="fill-opacity:0.3;stroke:#000000;stroke-opacity:0.3;" x="252.352234" xlink:href="#m9bdf754ffc" y="228.059909"/>
     <use style="fill-opacity:0.3;stroke:#000000;stroke-opacity:0.3;" x="254.931587" xlink:href="#m9bdf754ffc" y="226.392125"/>
     <use style="fill-opacity:0.3;stroke:#000000;stroke-opacity:0.3;" x="257.51094" xlink:href="#m9bdf754ffc" y="226.075934"/>
     <use style="fill-opacity:0.3;stroke:#000000;stroke-opacity:0.3;" x="260.090293" xlink:href="#m9bdf754ffc" y="225.529454"/>
     <use style="fill-opacity:0.3;stroke:#000000;stroke-opacity:0.3;" x="262.669646" xlink:href="#m9bdf754ffc" y="223.835156"/>
     <use style="fill-opacity:0.3;stroke:#000000;stroke-opacity:0.3;" x="265.248998" xlink:href="#m9bdf754ffc" y="223.548991"/>
     <use style="fill-opacity:0.3;stroke:#000000;stroke-opacity:0.3;" x="267.828351" xlink:href="#m9bdf754ffc" y="221.83171"/>
     <use style="fill-opacity:0.3;stroke:#000000;stroke-opacity:0.3;" x="270.407704" xlink:href="#m9bdf754ffc" y="213.071787"/>
     <use style="fill-opacity:0.3;stroke:#000000;stroke-opacity:0.3;" x="272.987057" xlink:href="#m9bdf754ffc" y="215.661279"/>
     <use style="fill-opacity:0.3;stroke:#000000;stroke-opacity:0.3;" x="275.56641" xlink:href="#m9bdf754ffc" y="217.140583"/>
     <use style="fill-opacity:0.3;stroke:#000000;stroke-opacity:0.3;" x="278.145763" xlink:href="#m9bdf754ffc" y="215.439662"/>
     <use style="fill-opacity:0.3;stroke:#000000;stroke-opacity:0.3;" x="280.725116" xlink:href="#m9bdf754ffc" y="212.442307"/>
     <use style="fill-opacity:0.3;stroke:#000000;stroke-opacity:0.3;" x="283.304468" xlink:href="#m9bdf754ffc" y="211.4062"/>
     <use style="fill-opacity:0.3;stroke:#000000;stroke-opacity:0.3;" x="285.883821" xlink:href="#m9bdf754ffc" y="209.439585"/>
     <use style="fill-opacity:0.3;stroke:#000000;stroke-opacity:0.3;" x="288.463174" xlink:href="#m9bdf754ffc" y="206.574921"/>
     <use style="fill-opacity:0.3;stroke:#000000;stroke-opacity:0.3;" x="291.042527" xlink:href="#m9bdf754ffc" y="195.064126"/>
     <use style="fill-opacity:0.3;stroke:#000000;stroke-opacity:0.3;" x="293.62188" xlink:href="#m9bdf754ffc" y="202.044625"/>
     <use style="fill-opacity:0.3;stroke:#000000;stroke-opacity:0.3;" x="296.201233" xlink:href="#m9bdf754ffc" y="199.466903"/>
     <use style="fill-opacity:0.3;stroke:#000000;stroke-opacity:0.3;" x="298.780586" xlink:href="#m9bdf754ffc" y="195.752851"/>
     <use style="fill-opacity:0.3;stroke:#000000;stroke-opacity:0.3;" x="301.359938" xlink:href="#m9bdf754ffc" y="193.655069"/>
     <use style="fill-opacity:0.3;stroke:#000000;stroke-opacity:0.3;" x="303.939291" xlink:href="#m9bdf754ffc" y="189.825452"/>
     <use style="fill-opacity:0.3;stroke:#000000;stroke-opacity:0.3;" x="306.518644" xlink:href="#m9bdf754ffc" y="187.117787"/>
     <use style="fill-opacity:0.3;stroke:#000000;stroke-opacity:0.3;" x="309.097997" xlink:href="#m9bdf754ffc" y="184.315357"/>
     <use style="fill-opacity:0.3;stroke:#000000;stroke-opacity:0.3;" x="311.67735" xlink:href="#m9bdf754ffc" y="179.096748"/>
     <use style="fill-opacity:0.3;stroke:#000000;stroke-opacity:0.3;" x="314.256703" xlink:href="#m9bdf754ffc" y="178.773742"/>
     <use style="fill-opacity:0.3;stroke:#000000;stroke-opacity:0.3;" x="316.836055" xlink:href="#m9bdf754ffc" y="173.830618"/>
     <use style="fill-opacity:0.3;stroke:#000000;stroke-opacity:0.3;" x="319.415408" xlink:href="#m9bdf754ffc" y="170.389038"/>
     <use style="fill-opacity:0.3;stroke:#000000;stroke-opacity:0.3;" x="321.994761" xlink:href="#m9bdf754ffc" y="167.318399"/>
     <use style="fill-opacity:0.3;stroke:#000000;stroke-opacity:0.3;" x="324.574114" xlink:href="#m9bdf754ffc" y="163.115565"/>
     <use style="fill-opacity:0.3;stroke:#000000;stroke-opacity:0.3;" x="327.153467" xlink:href="#m9bdf754ffc" y="159.752301"/>
     <use style="fill-opacity:0.3;stroke:#000000;stroke-opacity:0.3;" x="329.73282" xlink:href="#m9bdf754ffc" y="154.02095"/>
     <use style="fill-opacity:0.3;stroke:#000000;stroke-opacity:0.3;" x="332.312173" xlink:href="#m9bdf754ffc" y="152.619091"/>
     <use style="fill-opacity:0.3;stroke:#000000;stroke-opacity:0.3;" x="334.891525" xlink:href="#m9bdf754ffc" y="148.088005"/>
     <use style="fill-opacity:0.3;stroke:#000000;stroke-opacity:0.3;" x="337.470878" xlink:href="#m9bdf754ffc" y="144.995984"/>
     <use style="fill-opacity:0.3;stroke:#000000;stroke-opacity:0.3;" x="340.050231" xlink:href="#m9bdf754ffc" y="141.376764"/>
     <use style="fill-opacity:0.3;stroke:#000000;stroke-opacity:0.3;" x="342.629584" xlink:href="#m9bdf754ffc" y="135.705697"/>
     <use style="fill-opacity:0.3;stroke:#000000;stroke-opacity:0.3;" x="345.208937" xlink:href="#m9bdf754ffc" y="133.377865"/>
     <use style="fill-opacity:0.3;stroke:#000000;stroke-opacity:0.3;" x="347.78829" xlink:href="#m9bdf754ffc" y="129.789634"/>
     <use style="fill-opacity:0.3;stroke:#000000;stroke-opacity:0.3;" x="350.367643" xlink:href="#m9bdf754ffc" y="124.400268"/>
     <use style="fill-opacity:0.3;stroke:#000000;stroke-opacity:0.3;" x="352.946995" xlink:href="#m9bdf754ffc" y="121.140368"/>
     <use style="fill-opacity:0.3;stroke:#000000;stroke-opacity:0.3;" x="355.526348" xlink:href="#m9bdf754ffc" y="116.798357"/>
     <use style="fill-opacity:0.3;stroke:#000000;stroke-opacity:0.3;" x="358.105701" xlink:href="#m9bdf754ffc" y="111.212838"/>
     <use style="fill-opacity:0.3;stroke:#000000;stroke-opacity:0.3;" x="360.685054" xlink:href="#m9bdf754ffc" y="108.070647"/>
     <use style="fill-opacity:0.3;stroke:#000000;stroke-opacity:0.3;" x="363.264407" xlink:href="#m9bdf754ffc" y="94.520853"/>
     <use style="fill-opacity:0.3;stroke:#000000;stroke-opacity:0.3;" x="365.84376" xlink:href="#m9bdf754ffc" y="99.818813"/>
     <use style="fill-opacity:0.3;stroke:#000000;stroke-opacity:0.3;" x="368.423112" xlink:href="#m9bdf754ffc" y="86.979227"/>
     <use style="fill-opacity:0.3;stroke:#000000;stroke-opacity:0.3;" x="371.002465" xlink:href="#m9bdf754ffc" y="90.11698"/>
     <use style="fill-opacity:0.3;stroke:#000000;stroke-opacity:0.3;" x="373.581818" xlink:href="#m9bdf754ffc" y="87.685297"/>
    </g>
   </g>
   <g id="line2d_26">
    <path clip-path="url(#p3ca0bc8398)" d="M 69.218182 238.802403 
L 71.797535 238.802403 
L 74.376888 238.802403 
L 76.95624 238.802403 
L 79.535593 238.802403 
L 82.114946 238.802403 
L 84.694299 238.631887 
L 87.273652 237.907195 
L 89.853005 238.802403 
L 92.432357 238.802403 
L 95.01171 238.802403 
L 97.591063 238.802403 
L 100.170416 238.802403 
L 102.749769 236.50044 
L 105.329122 238.802403 
L 107.908475 238.802403 
L 110.487827 238.802403 
L 113.06718 238.802403 
L 115.646533 238.802403 
L 118.225886 238.802403 
L 120.805239 238.802403 
L 123.384592 238.802403 
L 125.963945 238.802403 
L 128.543297 238.802403 
L 131.12265 238.802403 
L 133.702003 238.756495 
L 136.281356 238.802403 
L 138.860709 238.802403 
L 141.440062 238.802403 
L 144.019414 238.802403 
L 146.598767 238.571381 
L 149.17812 238.727802 
L 151.757473 231.09819 
L 154.336826 238.802403 
L 156.916179 234.948746 
L 159.495532 238.802403 
L 162.074884 238.802403 
L 164.654237 238.394062 
L 167.23359 238.802403 
L 169.812943 238.802403 
L 172.392296 238.802403 
L 174.971649 238.006662 
L 177.551002 238.302752 
L 180.130354 238.802403 
L 182.709707 238.006662 
L 185.28906 238.776455 
L 187.868413 238.751611 
L 190.447766 238.752669 
L 193.027119 238.193418 
L 195.606471 238.65917 
L 198.185824 237.796025 
L 200.765177 238.27446 
L 203.34453 237.743918 
L 205.923883 238.426636 
L 208.503236 237.825812 
L 211.082589 238.184283 
L 213.661941 229.881735 
L 216.241294 237.71169 
L 218.820647 237.5481 
L 221.4 236.952306 
L 223.979353 236.923934 
L 226.558706 236.6077 
L 229.138059 236.244666 
L 231.717411 235.03507 
L 234.296764 234.633948 
L 236.876117 232.6535 
L 239.45547 231.56948 
L 242.034823 232.132227 
L 244.614176 228.699961 
L 247.193529 230.941625 
L 249.772881 228.900479 
L 252.352234 228.059909 
L 254.931587 226.392125 
L 257.51094 226.075934 
L 260.090293 225.529454 
L 262.669646 223.835156 
L 265.248998 223.548991 
L 267.828351 221.83171 
L 270.407704 213.071787 
L 272.987057 215.661279 
L 275.56641 217.140583 
L 278.145763 215.439662 
L 280.725116 212.442307 
L 283.304468 211.4062 
L 285.883821 209.439585 
L 288.463174 206.574921 
L 291.042527 195.064126 
L 293.62188 202.044625 
L 296.201233 199.466903 
L 298.780586 195.752851 
L 301.359938 193.655069 
L 303.939291 189.825452 
L 306.518644 187.117787 
L 309.097997 184.315357 
L 311.67735 179.096748 
L 314.256703 178.773742 
L 316.836055 173.830618 
L 319.415408 170.389038 
L 321.994761 167.318399 
L 324.574114 163.115565 
L 327.153467 159.752301 
L 329.73282 154.02095 
L 332.312173 152.619091 
L 334.891525 148.088005 
L 337.470878 144.995984 
L 340.050231 141.376764 
L 342.629584 135.705697 
L 345.208937 133.377865 
L 347.78829 129.789634 
L 350.367643 124.400268 
L 352.946995 121.140368 
L 355.526348 116.798357 
L 358.105701 111.212838 
L 360.685054 108.070647 
L 363.264407 94.520853 
L 365.84376 99.818813 
L 368.423112 86.979227 
L 371.002465 90.11698 
L 373.581818 87.685297 
" style="fill:none;stroke:#ff0000;stroke-linecap:square;stroke-opacity:0.4;stroke-width:1.5;"/>
   </g>
   <g id="patch_3">
    <path d="M 54 252 
L 54 34.56 
" style="fill:none;stroke:#000000;stroke-linecap:square;stroke-linejoin:miter;stroke-width:0.8;"/>
   </g>
   <g id="patch_4">
    <path d="M 388.8 252 
L 388.8 34.56 
" style="fill:none;stroke:#000000;stroke-linecap:square;stroke-linejoin:miter;stroke-width:0.8;"/>
   </g>
   <g id="patch_5">
    <path d="M 54 252 
L 388.8 252 
" style="fill:none;stroke:#000000;stroke-linecap:square;stroke-linejoin:miter;stroke-width:0.8;"/>
   </g>
   <g id="patch_6">
    <path d="M 54 34.56 
L 388.8 34.56 
" style="fill:none;stroke:#000000;stroke-linecap:square;stroke-linejoin:miter;stroke-width:0.8;"/>
   </g>
  </g>
 </g>
 <defs>
  <clipPath id="p3ca0bc8398">
   <rect height="217.44" width="334.8" x="54" y="34.56"/>
  </clipPath>
 </defs>
</svg>
