<?xml version="1.0" encoding="utf-8" standalone="no"?>
<!DOCTYPE svg PUBLIC "-//W3C//DTD SVG 1.1//EN"
  "http://www.w3.org/Graphics/SVG/1.1/DTD/svg11.dtd">
<!-- Created with matplotlib (https://matplotlib.org/) -->
<svg height="288pt" version="1.1" viewBox="0 0 432 288" width="432pt" xmlns="http://www.w3.org/2000/svg" xmlns:xlink="http://www.w3.org/1999/xlink">
 <metadata>
  <rdf:RDF xmlns:cc="http://creativecommons.org/ns#" xmlns:dc="http://purl.org/dc/elements/1.1/" xmlns:rdf="http://www.w3.org/1999/02/22-rdf-syntax-ns#">
   <cc:Work>
    <dc:type rdf:resource="http://purl.org/dc/dcmitype/StillImage"/>
    <dc:date>2020-11-09T02:03:35.183098</dc:date>
    <dc:format>image/svg+xml</dc:format>
    <dc:creator>
     <cc:Agent>
      <dc:title>Matplotlib v3.3.1, https://matplotlib.org/</dc:title>
     </cc:Agent>
    </dc:creator>
   </cc:Work>
  </rdf:RDF>
 </metadata>
 <defs>
  <style type="text/css">*{stroke-linecap:butt;stroke-linejoin:round;}</style>
 </defs>
 <g id="figure_1">
  <g id="patch_1">
   <path d="M 0 288 
L 432 288 
L 432 0 
L 0 0 
z
" style="fill:none;"/>
  </g>
  <g id="axes_1">
   <g id="patch_2">
    <path d="M 54 252 
L 388.8 252 
L 388.8 34.56 
L 54 34.56 
z
" style="fill:#ffffff;"/>
   </g>
   <g id="PolyCollection_1">
    <path clip-path="url(#p1694efee9a)" d="M 69.218182 240.053381 
L 69.218182 240.053381 
L 74.557895 240.053381 
L 79.897608 240.053381 
L 85.237321 240.053381 
L 90.577033 239.582552 
L 95.916746 241.106381 
L 101.256459 241.317603 
L 106.596172 241.240671 
L 111.935885 240.972625 
L 117.275598 241.121594 
L 122.615311 240.38941 
L 127.955024 239.905995 
L 133.294737 241.180246 
L 138.63445 241.338978 
L 143.974163 240.319069 
L 149.313876 239.020615 
L 154.653589 237.978538 
L 159.993301 240.667382 
L 165.333014 237.788353 
L 170.672727 238.430985 
L 176.01244 236.755999 
L 181.352153 242.116364 
L 186.691866 239.312407 
L 192.031579 236.232891 
L 197.371292 238.265299 
L 202.711005 235.306441 
L 208.050718 233.036746 
L 213.390431 238.934682 
L 218.730144 226.478289 
L 224.069856 221.30195 
L 229.409569 217.781392 
L 234.749282 212.084206 
L 240.088995 210.996713 
L 245.428708 210.216849 
L 250.768421 175.361488 
L 256.108134 185.390647 
L 261.447847 159.774983 
L 266.78756 143.980899 
L 272.127273 131.551105 
L 277.466986 191.395251 
L 282.806699 167.556443 
L 288.146411 176.190735 
L 293.486124 172.154266 
L 298.825837 173.491151 
L 304.16555 168.612691 
L 309.505263 171.145796 
L 314.844976 168.263375 
L 320.184689 167.978042 
L 325.524402 165.301154 
L 330.864115 167.586775 
L 336.203828 167.770324 
L 341.543541 172.916591 
L 346.883254 167.302637 
L 352.222967 174.066279 
L 357.562679 162.961792 
L 362.902392 165.468424 
L 368.242105 155.473319 
L 373.581818 166.799879 
L 373.581818 166.799879 
L 373.581818 54.889269 
L 368.242105 44.443636 
L 362.902392 56.017245 
L 357.562679 54.657787 
L 352.222967 67.156799 
L 346.883254 61.304778 
L 341.543541 68.306487 
L 336.203828 64.296224 
L 330.864115 65.700643 
L 325.524402 65.137566 
L 320.184689 69.989381 
L 314.844976 72.349267 
L 309.505263 77.605984 
L 304.16555 77.290391 
L 298.825837 84.824115 
L 293.486124 85.957522 
L 288.146411 92.908889 
L 282.806699 87.096211 
L 277.466986 114.940926 
L 272.127273 56.971058 
L 266.78756 80.556947 
L 261.447847 107.086377 
L 256.108134 142.310766 
L 250.768421 137.892956 
L 245.428708 182.394185 
L 240.088995 186.090847 
L 234.749282 190.090314 
L 229.409569 199.450532 
L 224.069856 205.69694 
L 218.730144 213.746699 
L 213.390431 227.945981 
L 208.050718 222.042168 
L 202.711005 225.062912 
L 197.371292 228.411886 
L 192.031579 226.98516 
L 186.691866 230.823911 
L 181.352153 233.920829 
L 176.01244 228.496836 
L 170.672727 231.298376 
L 165.333014 231.127094 
L 159.993301 236.183725 
L 154.653589 233.58213 
L 149.313876 235.795707 
L 143.974163 237.752909 
L 138.63445 238.767784 
L 133.294737 238.519558 
L 127.955024 237.148589 
L 122.615311 238.293002 
L 117.275598 238.985167 
L 111.935885 238.72718 
L 106.596172 238.86609 
L 101.256459 238.789158 
L 95.916746 238.389946 
L 90.577033 236.65812 
L 85.237321 240.053381 
L 79.897608 240.053381 
L 74.557895 240.053381 
L 69.218182 240.053381 
z
" style="fill:#1f77b4;fill-opacity:0.4;"/>
   </g>
   <g id="matplotlib.axis_1">
    <g id="xtick_1">
     <g id="line2d_1">
      <path clip-path="url(#p1694efee9a)" d="M 69.218182 252 
L 69.218182 34.56 
" style="fill:none;stroke:#b0b0b0;stroke-linecap:square;stroke-width:0.8;"/>
     </g>
     <g id="line2d_2">
      <defs>
       <path d="M 0 0 
L 0 3.5 
" id="mc04158d01a" style="stroke:#000000;stroke-width:0.8;"/>
      </defs>
      <g>
       <use style="stroke:#000000;stroke-width:0.8;" x="69.218182" xlink:href="#mc04158d01a" y="252"/>
      </g>
     </g>
     <g id="text_1">
      <!-- 0 -->
      <g transform="translate(66.036932 266.598437)scale(0.1 -0.1)">
       <defs>
        <path d="M 31.78125 66.40625 
Q 24.171875 66.40625 20.328125 58.90625 
Q 16.5 51.421875 16.5 36.375 
Q 16.5 21.390625 20.328125 13.890625 
Q 24.171875 6.390625 31.78125 6.390625 
Q 39.453125 6.390625 43.28125 13.890625 
Q 47.125 21.390625 47.125 36.375 
Q 47.125 51.421875 43.28125 58.90625 
Q 39.453125 66.40625 31.78125 66.40625 
z
M 31.78125 74.21875 
Q 44.046875 74.21875 50.515625 64.515625 
Q 56.984375 54.828125 56.984375 36.375 
Q 56.984375 17.96875 50.515625 8.265625 
Q 44.046875 -1.421875 31.78125 -1.421875 
Q 19.53125 -1.421875 13.0625 8.265625 
Q 6.59375 17.96875 6.59375 36.375 
Q 6.59375 54.828125 13.0625 64.515625 
Q 19.53125 74.21875 31.78125 74.21875 
z
" id="DejaVuSans-48"/>
       </defs>
       <use xlink:href="#DejaVuSans-48"/>
      </g>
     </g>
    </g>
    <g id="xtick_2">
     <g id="line2d_3">
      <path clip-path="url(#p1694efee9a)" d="M 122.615311 252 
L 122.615311 34.56 
" style="fill:none;stroke:#b0b0b0;stroke-linecap:square;stroke-width:0.8;"/>
     </g>
     <g id="line2d_4">
      <g>
       <use style="stroke:#000000;stroke-width:0.8;" x="122.615311" xlink:href="#mc04158d01a" y="252"/>
      </g>
     </g>
     <g id="text_2">
      <!-- 10 -->
      <g transform="translate(116.252811 266.598437)scale(0.1 -0.1)">
       <defs>
        <path d="M 12.40625 8.296875 
L 28.515625 8.296875 
L 28.515625 63.921875 
L 10.984375 60.40625 
L 10.984375 69.390625 
L 28.421875 72.90625 
L 38.28125 72.90625 
L 38.28125 8.296875 
L 54.390625 8.296875 
L 54.390625 0 
L 12.40625 0 
z
" id="DejaVuSans-49"/>
       </defs>
       <use xlink:href="#DejaVuSans-49"/>
       <use x="63.623047" xlink:href="#DejaVuSans-48"/>
      </g>
     </g>
    </g>
    <g id="xtick_3">
     <g id="line2d_5">
      <path clip-path="url(#p1694efee9a)" d="M 176.01244 252 
L 176.01244 34.56 
" style="fill:none;stroke:#b0b0b0;stroke-linecap:square;stroke-width:0.8;"/>
     </g>
     <g id="line2d_6">
      <g>
       <use style="stroke:#000000;stroke-width:0.8;" x="176.01244" xlink:href="#mc04158d01a" y="252"/>
      </g>
     </g>
     <g id="text_3">
      <!-- 20 -->
      <g transform="translate(169.64994 266.598437)scale(0.1 -0.1)">
       <defs>
        <path d="M 19.1875 8.296875 
L 53.609375 8.296875 
L 53.609375 0 
L 7.328125 0 
L 7.328125 8.296875 
Q 12.9375 14.109375 22.625 23.890625 
Q 32.328125 33.6875 34.8125 36.53125 
Q 39.546875 41.84375 41.421875 45.53125 
Q 43.3125 49.21875 43.3125 52.78125 
Q 43.3125 58.59375 39.234375 62.25 
Q 35.15625 65.921875 28.609375 65.921875 
Q 23.96875 65.921875 18.8125 64.3125 
Q 13.671875 62.703125 7.8125 59.421875 
L 7.8125 69.390625 
Q 13.765625 71.78125 18.9375 73 
Q 24.125 74.21875 28.421875 74.21875 
Q 39.75 74.21875 46.484375 68.546875 
Q 53.21875 62.890625 53.21875 53.421875 
Q 53.21875 48.921875 51.53125 44.890625 
Q 49.859375 40.875 45.40625 35.40625 
Q 44.1875 33.984375 37.640625 27.21875 
Q 31.109375 20.453125 19.1875 8.296875 
z
" id="DejaVuSans-50"/>
       </defs>
       <use xlink:href="#DejaVuSans-50"/>
       <use x="63.623047" xlink:href="#DejaVuSans-48"/>
      </g>
     </g>
    </g>
    <g id="xtick_4">
     <g id="line2d_7">
      <path clip-path="url(#p1694efee9a)" d="M 229.409569 252 
L 229.409569 34.56 
" style="fill:none;stroke:#b0b0b0;stroke-linecap:square;stroke-width:0.8;"/>
     </g>
     <g id="line2d_8">
      <g>
       <use style="stroke:#000000;stroke-width:0.8;" x="229.409569" xlink:href="#mc04158d01a" y="252"/>
      </g>
     </g>
     <g id="text_4">
      <!-- 30 -->
      <g transform="translate(223.047069 266.598437)scale(0.1 -0.1)">
       <defs>
        <path d="M 40.578125 39.3125 
Q 47.65625 37.796875 51.625 33 
Q 55.609375 28.21875 55.609375 21.1875 
Q 55.609375 10.40625 48.1875 4.484375 
Q 40.765625 -1.421875 27.09375 -1.421875 
Q 22.515625 -1.421875 17.65625 -0.515625 
Q 12.796875 0.390625 7.625 2.203125 
L 7.625 11.71875 
Q 11.71875 9.328125 16.59375 8.109375 
Q 21.484375 6.890625 26.8125 6.890625 
Q 36.078125 6.890625 40.9375 10.546875 
Q 45.796875 14.203125 45.796875 21.1875 
Q 45.796875 27.640625 41.28125 31.265625 
Q 36.765625 34.90625 28.71875 34.90625 
L 20.21875 34.90625 
L 20.21875 43.015625 
L 29.109375 43.015625 
Q 36.375 43.015625 40.234375 45.921875 
Q 44.09375 48.828125 44.09375 54.296875 
Q 44.09375 59.90625 40.109375 62.90625 
Q 36.140625 65.921875 28.71875 65.921875 
Q 24.65625 65.921875 20.015625 65.03125 
Q 15.375 64.15625 9.8125 62.3125 
L 9.8125 71.09375 
Q 15.4375 72.65625 20.34375 73.4375 
Q 25.25 74.21875 29.59375 74.21875 
Q 40.828125 74.21875 47.359375 69.109375 
Q 53.90625 64.015625 53.90625 55.328125 
Q 53.90625 49.265625 50.4375 45.09375 
Q 46.96875 40.921875 40.578125 39.3125 
z
" id="DejaVuSans-51"/>
       </defs>
       <use xlink:href="#DejaVuSans-51"/>
       <use x="63.623047" xlink:href="#DejaVuSans-48"/>
      </g>
     </g>
    </g>
    <g id="xtick_5">
     <g id="line2d_9">
      <path clip-path="url(#p1694efee9a)" d="M 282.806699 252 
L 282.806699 34.56 
" style="fill:none;stroke:#b0b0b0;stroke-linecap:square;stroke-width:0.8;"/>
     </g>
     <g id="line2d_10">
      <g>
       <use style="stroke:#000000;stroke-width:0.8;" x="282.806699" xlink:href="#mc04158d01a" y="252"/>
      </g>
     </g>
     <g id="text_5">
      <!-- 40 -->
      <g transform="translate(276.444199 266.598437)scale(0.1 -0.1)">
       <defs>
        <path d="M 37.796875 64.3125 
L 12.890625 25.390625 
L 37.796875 25.390625 
z
M 35.203125 72.90625 
L 47.609375 72.90625 
L 47.609375 25.390625 
L 58.015625 25.390625 
L 58.015625 17.1875 
L 47.609375 17.1875 
L 47.609375 0 
L 37.796875 0 
L 37.796875 17.1875 
L 4.890625 17.1875 
L 4.890625 26.703125 
z
" id="DejaVuSans-52"/>
       </defs>
       <use xlink:href="#DejaVuSans-52"/>
       <use x="63.623047" xlink:href="#DejaVuSans-48"/>
      </g>
     </g>
    </g>
    <g id="xtick_6">
     <g id="line2d_11">
      <path clip-path="url(#p1694efee9a)" d="M 336.203828 252 
L 336.203828 34.56 
" style="fill:none;stroke:#b0b0b0;stroke-linecap:square;stroke-width:0.8;"/>
     </g>
     <g id="line2d_12">
      <g>
       <use style="stroke:#000000;stroke-width:0.8;" x="336.203828" xlink:href="#mc04158d01a" y="252"/>
      </g>
     </g>
     <g id="text_6">
      <!-- 50 -->
      <g transform="translate(329.841328 266.598437)scale(0.1 -0.1)">
       <defs>
        <path d="M 10.796875 72.90625 
L 49.515625 72.90625 
L 49.515625 64.59375 
L 19.828125 64.59375 
L 19.828125 46.734375 
Q 21.96875 47.46875 24.109375 47.828125 
Q 26.265625 48.1875 28.421875 48.1875 
Q 40.625 48.1875 47.75 41.5 
Q 54.890625 34.8125 54.890625 23.390625 
Q 54.890625 11.625 47.5625 5.09375 
Q 40.234375 -1.421875 26.90625 -1.421875 
Q 22.3125 -1.421875 17.546875 -0.640625 
Q 12.796875 0.140625 7.71875 1.703125 
L 7.71875 11.625 
Q 12.109375 9.234375 16.796875 8.0625 
Q 21.484375 6.890625 26.703125 6.890625 
Q 35.15625 6.890625 40.078125 11.328125 
Q 45.015625 15.765625 45.015625 23.390625 
Q 45.015625 31 40.078125 35.4375 
Q 35.15625 39.890625 26.703125 39.890625 
Q 22.75 39.890625 18.8125 39.015625 
Q 14.890625 38.140625 10.796875 36.28125 
z
" id="DejaVuSans-53"/>
       </defs>
       <use xlink:href="#DejaVuSans-53"/>
       <use x="63.623047" xlink:href="#DejaVuSans-48"/>
      </g>
     </g>
    </g>
    <g id="text_7">
     <!-- No. of Items $\longrightarrow$ -->
     <g transform="translate(180.3 280.276563)scale(0.1 -0.1)">
      <defs>
       <path d="M 9.8125 72.90625 
L 23.09375 72.90625 
L 55.421875 11.921875 
L 55.421875 72.90625 
L 64.984375 72.90625 
L 64.984375 0 
L 51.703125 0 
L 19.390625 60.984375 
L 19.390625 0 
L 9.8125 0 
z
" id="DejaVuSans-78"/>
       <path d="M 30.609375 48.390625 
Q 23.390625 48.390625 19.1875 42.75 
Q 14.984375 37.109375 14.984375 27.296875 
Q 14.984375 17.484375 19.15625 11.84375 
Q 23.34375 6.203125 30.609375 6.203125 
Q 37.796875 6.203125 41.984375 11.859375 
Q 46.1875 17.53125 46.1875 27.296875 
Q 46.1875 37.015625 41.984375 42.703125 
Q 37.796875 48.390625 30.609375 48.390625 
z
M 30.609375 56 
Q 42.328125 56 49.015625 48.375 
Q 55.71875 40.765625 55.71875 27.296875 
Q 55.71875 13.875 49.015625 6.21875 
Q 42.328125 -1.421875 30.609375 -1.421875 
Q 18.84375 -1.421875 12.171875 6.21875 
Q 5.515625 13.875 5.515625 27.296875 
Q 5.515625 40.765625 12.171875 48.375 
Q 18.84375 56 30.609375 56 
z
" id="DejaVuSans-111"/>
       <path d="M 10.6875 12.40625 
L 21 12.40625 
L 21 0 
L 10.6875 0 
z
" id="DejaVuSans-46"/>
       <path id="DejaVuSans-32"/>
       <path d="M 37.109375 75.984375 
L 37.109375 68.5 
L 28.515625 68.5 
Q 23.6875 68.5 21.796875 66.546875 
Q 19.921875 64.59375 19.921875 59.515625 
L 19.921875 54.6875 
L 34.71875 54.6875 
L 34.71875 47.703125 
L 19.921875 47.703125 
L 19.921875 0 
L 10.890625 0 
L 10.890625 47.703125 
L 2.296875 47.703125 
L 2.296875 54.6875 
L 10.890625 54.6875 
L 10.890625 58.5 
Q 10.890625 67.625 15.140625 71.796875 
Q 19.390625 75.984375 28.609375 75.984375 
z
" id="DejaVuSans-102"/>
       <path d="M 9.8125 72.90625 
L 19.671875 72.90625 
L 19.671875 0 
L 9.8125 0 
z
" id="DejaVuSans-73"/>
       <path d="M 18.3125 70.21875 
L 18.3125 54.6875 
L 36.8125 54.6875 
L 36.8125 47.703125 
L 18.3125 47.703125 
L 18.3125 18.015625 
Q 18.3125 11.328125 20.140625 9.421875 
Q 21.96875 7.515625 27.59375 7.515625 
L 36.8125 7.515625 
L 36.8125 0 
L 27.59375 0 
Q 17.1875 0 13.234375 3.875 
Q 9.28125 7.765625 9.28125 18.015625 
L 9.28125 47.703125 
L 2.6875 47.703125 
L 2.6875 54.6875 
L 9.28125 54.6875 
L 9.28125 70.21875 
z
" id="DejaVuSans-116"/>
       <path d="M 56.203125 29.59375 
L 56.203125 25.203125 
L 14.890625 25.203125 
Q 15.484375 15.921875 20.484375 11.0625 
Q 25.484375 6.203125 34.421875 6.203125 
Q 39.59375 6.203125 44.453125 7.46875 
Q 49.3125 8.734375 54.109375 11.28125 
L 54.109375 2.78125 
Q 49.265625 0.734375 44.1875 -0.34375 
Q 39.109375 -1.421875 33.890625 -1.421875 
Q 20.796875 -1.421875 13.15625 6.1875 
Q 5.515625 13.8125 5.515625 26.8125 
Q 5.515625 40.234375 12.765625 48.109375 
Q 20.015625 56 32.328125 56 
Q 43.359375 56 49.78125 48.890625 
Q 56.203125 41.796875 56.203125 29.59375 
z
M 47.21875 32.234375 
Q 47.125 39.59375 43.09375 43.984375 
Q 39.0625 48.390625 32.421875 48.390625 
Q 24.90625 48.390625 20.390625 44.140625 
Q 15.875 39.890625 15.1875 32.171875 
z
" id="DejaVuSans-101"/>
       <path d="M 52 44.1875 
Q 55.375 50.25 60.0625 53.125 
Q 64.75 56 71.09375 56 
Q 79.640625 56 84.28125 50.015625 
Q 88.921875 44.046875 88.921875 33.015625 
L 88.921875 0 
L 79.890625 0 
L 79.890625 32.71875 
Q 79.890625 40.578125 77.09375 44.375 
Q 74.3125 48.1875 68.609375 48.1875 
Q 61.625 48.1875 57.5625 43.546875 
Q 53.515625 38.921875 53.515625 30.90625 
L 53.515625 0 
L 44.484375 0 
L 44.484375 32.71875 
Q 44.484375 40.625 41.703125 44.40625 
Q 38.921875 48.1875 33.109375 48.1875 
Q 26.21875 48.1875 22.15625 43.53125 
Q 18.109375 38.875 18.109375 30.90625 
L 18.109375 0 
L 9.078125 0 
L 9.078125 54.6875 
L 18.109375 54.6875 
L 18.109375 46.1875 
Q 21.1875 51.21875 25.484375 53.609375 
Q 29.78125 56 35.6875 56 
Q 41.65625 56 45.828125 52.96875 
Q 50 49.953125 52 44.1875 
z
" id="DejaVuSans-109"/>
       <path d="M 44.28125 53.078125 
L 44.28125 44.578125 
Q 40.484375 46.53125 36.375 47.5 
Q 32.28125 48.484375 27.875 48.484375 
Q 21.1875 48.484375 17.84375 46.4375 
Q 14.5 44.390625 14.5 40.28125 
Q 14.5 37.15625 16.890625 35.375 
Q 19.28125 33.59375 26.515625 31.984375 
L 29.59375 31.296875 
Q 39.15625 29.25 43.1875 25.515625 
Q 47.21875 21.78125 47.21875 15.09375 
Q 47.21875 7.46875 41.1875 3.015625 
Q 35.15625 -1.421875 24.609375 -1.421875 
Q 20.21875 -1.421875 15.453125 -0.5625 
Q 10.6875 0.296875 5.421875 2 
L 5.421875 11.28125 
Q 10.40625 8.6875 15.234375 7.390625 
Q 20.0625 6.109375 24.8125 6.109375 
Q 31.15625 6.109375 34.5625 8.28125 
Q 37.984375 10.453125 37.984375 14.40625 
Q 37.984375 18.0625 35.515625 20.015625 
Q 33.0625 21.96875 24.703125 23.78125 
L 21.578125 24.515625 
Q 13.234375 26.265625 9.515625 29.90625 
Q 5.8125 33.546875 5.8125 39.890625 
Q 5.8125 47.609375 11.28125 51.796875 
Q 16.75 56 26.8125 56 
Q 31.78125 56 36.171875 55.265625 
Q 40.578125 54.546875 44.28125 53.078125 
z
" id="DejaVuSans-115"/>
       <path d="M 138.484375 33.546875 
L 138.484375 29.15625 
L 119.28125 9.96875 
L 113.421875 15.828125 
L 124.8125 27.203125 
L 5.71875 27.203125 
L 5.71875 35.5 
L 124.8125 35.5 
L 113.421875 46.875 
L 119.28125 52.734375 
z
" id="DejaVuSans-10230"/>
      </defs>
      <use transform="translate(0 0.015625)" xlink:href="#DejaVuSans-78"/>
      <use transform="translate(74.804688 0.015625)" xlink:href="#DejaVuSans-111"/>
      <use transform="translate(135.986328 0.015625)" xlink:href="#DejaVuSans-46"/>
      <use transform="translate(167.773438 0.015625)" xlink:href="#DejaVuSans-32"/>
      <use transform="translate(199.560547 0.015625)" xlink:href="#DejaVuSans-111"/>
      <use transform="translate(260.742188 0.015625)" xlink:href="#DejaVuSans-102"/>
      <use transform="translate(295.947266 0.015625)" xlink:href="#DejaVuSans-32"/>
      <use transform="translate(327.734375 0.015625)" xlink:href="#DejaVuSans-73"/>
      <use transform="translate(357.226562 0.015625)" xlink:href="#DejaVuSans-116"/>
      <use transform="translate(396.435547 0.015625)" xlink:href="#DejaVuSans-101"/>
      <use transform="translate(457.958984 0.015625)" xlink:href="#DejaVuSans-109"/>
      <use transform="translate(555.371094 0.015625)" xlink:href="#DejaVuSans-115"/>
      <use transform="translate(607.470703 0.015625)" xlink:href="#DejaVuSans-32"/>
      <use transform="translate(658.740234 0.015625)" xlink:href="#DejaVuSans-10230"/>
     </g>
    </g>
   </g>
   <g id="matplotlib.axis_2">
    <g id="ytick_1">
     <g id="line2d_13">
      <path clip-path="url(#p1694efee9a)" d="M 54 240.053381 
L 388.8 240.053381 
" style="fill:none;stroke:#b0b0b0;stroke-linecap:square;stroke-width:0.8;"/>
     </g>
     <g id="line2d_14">
      <defs>
       <path d="M 0 0 
L -3.5 0 
" id="m2146552d1b" style="stroke:#000000;stroke-width:0.8;"/>
      </defs>
      <g>
       <use style="stroke:#000000;stroke-width:0.8;" x="54" xlink:href="#m2146552d1b" y="240.053381"/>
      </g>
     </g>
     <g id="text_8">
      <!-- 0 -->
      <g transform="translate(40.6375 243.8526)scale(0.1 -0.1)">
       <use xlink:href="#DejaVuSans-48"/>
      </g>
     </g>
    </g>
    <g id="ytick_2">
     <g id="line2d_15">
      <path clip-path="url(#p1694efee9a)" d="M 54 207.496831 
L 388.8 207.496831 
" style="fill:none;stroke:#b0b0b0;stroke-linecap:square;stroke-width:0.8;"/>
     </g>
     <g id="line2d_16">
      <g>
       <use style="stroke:#000000;stroke-width:0.8;" x="54" xlink:href="#m2146552d1b" y="207.496831"/>
      </g>
     </g>
     <g id="text_9">
      <!-- 2 -->
      <g transform="translate(40.6375 211.29605)scale(0.1 -0.1)">
       <use xlink:href="#DejaVuSans-50"/>
      </g>
     </g>
    </g>
    <g id="ytick_3">
     <g id="line2d_17">
      <path clip-path="url(#p1694efee9a)" d="M 54 174.940281 
L 388.8 174.940281 
" style="fill:none;stroke:#b0b0b0;stroke-linecap:square;stroke-width:0.8;"/>
     </g>
     <g id="line2d_18">
      <g>
       <use style="stroke:#000000;stroke-width:0.8;" x="54" xlink:href="#m2146552d1b" y="174.940281"/>
      </g>
     </g>
     <g id="text_10">
      <!-- 4 -->
      <g transform="translate(40.6375 178.7395)scale(0.1 -0.1)">
       <use xlink:href="#DejaVuSans-52"/>
      </g>
     </g>
    </g>
    <g id="ytick_4">
     <g id="line2d_19">
      <path clip-path="url(#p1694efee9a)" d="M 54 142.383732 
L 388.8 142.383732 
" style="fill:none;stroke:#b0b0b0;stroke-linecap:square;stroke-width:0.8;"/>
     </g>
     <g id="line2d_20">
      <g>
       <use style="stroke:#000000;stroke-width:0.8;" x="54" xlink:href="#m2146552d1b" y="142.383732"/>
      </g>
     </g>
     <g id="text_11">
      <!-- 6 -->
      <g transform="translate(40.6375 146.18295)scale(0.1 -0.1)">
       <defs>
        <path d="M 33.015625 40.375 
Q 26.375 40.375 22.484375 35.828125 
Q 18.609375 31.296875 18.609375 23.390625 
Q 18.609375 15.53125 22.484375 10.953125 
Q 26.375 6.390625 33.015625 6.390625 
Q 39.65625 6.390625 43.53125 10.953125 
Q 47.40625 15.53125 47.40625 23.390625 
Q 47.40625 31.296875 43.53125 35.828125 
Q 39.65625 40.375 33.015625 40.375 
z
M 52.59375 71.296875 
L 52.59375 62.3125 
Q 48.875 64.0625 45.09375 64.984375 
Q 41.3125 65.921875 37.59375 65.921875 
Q 27.828125 65.921875 22.671875 59.328125 
Q 17.53125 52.734375 16.796875 39.40625 
Q 19.671875 43.65625 24.015625 45.921875 
Q 28.375 48.1875 33.59375 48.1875 
Q 44.578125 48.1875 50.953125 41.515625 
Q 57.328125 34.859375 57.328125 23.390625 
Q 57.328125 12.15625 50.6875 5.359375 
Q 44.046875 -1.421875 33.015625 -1.421875 
Q 20.359375 -1.421875 13.671875 8.265625 
Q 6.984375 17.96875 6.984375 36.375 
Q 6.984375 53.65625 15.1875 63.9375 
Q 23.390625 74.21875 37.203125 74.21875 
Q 40.921875 74.21875 44.703125 73.484375 
Q 48.484375 72.75 52.59375 71.296875 
z
" id="DejaVuSans-54"/>
       </defs>
       <use xlink:href="#DejaVuSans-54"/>
      </g>
     </g>
    </g>
    <g id="ytick_5">
     <g id="line2d_21">
      <path clip-path="url(#p1694efee9a)" d="M 54 109.827182 
L 388.8 109.827182 
" style="fill:none;stroke:#b0b0b0;stroke-linecap:square;stroke-width:0.8;"/>
     </g>
     <g id="line2d_22">
      <g>
       <use style="stroke:#000000;stroke-width:0.8;" x="54" xlink:href="#m2146552d1b" y="109.827182"/>
      </g>
     </g>
     <g id="text_12">
      <!-- 8 -->
      <g transform="translate(40.6375 113.626401)scale(0.1 -0.1)">
       <defs>
        <path d="M 31.78125 34.625 
Q 24.75 34.625 20.71875 30.859375 
Q 16.703125 27.09375 16.703125 20.515625 
Q 16.703125 13.921875 20.71875 10.15625 
Q 24.75 6.390625 31.78125 6.390625 
Q 38.8125 6.390625 42.859375 10.171875 
Q 46.921875 13.96875 46.921875 20.515625 
Q 46.921875 27.09375 42.890625 30.859375 
Q 38.875 34.625 31.78125 34.625 
z
M 21.921875 38.8125 
Q 15.578125 40.375 12.03125 44.71875 
Q 8.5 49.078125 8.5 55.328125 
Q 8.5 64.0625 14.71875 69.140625 
Q 20.953125 74.21875 31.78125 74.21875 
Q 42.671875 74.21875 48.875 69.140625 
Q 55.078125 64.0625 55.078125 55.328125 
Q 55.078125 49.078125 51.53125 44.71875 
Q 48 40.375 41.703125 38.8125 
Q 48.828125 37.15625 52.796875 32.3125 
Q 56.78125 27.484375 56.78125 20.515625 
Q 56.78125 9.90625 50.3125 4.234375 
Q 43.84375 -1.421875 31.78125 -1.421875 
Q 19.734375 -1.421875 13.25 4.234375 
Q 6.78125 9.90625 6.78125 20.515625 
Q 6.78125 27.484375 10.78125 32.3125 
Q 14.796875 37.15625 21.921875 38.8125 
z
M 18.3125 54.390625 
Q 18.3125 48.734375 21.84375 45.5625 
Q 25.390625 42.390625 31.78125 42.390625 
Q 38.140625 42.390625 41.71875 45.5625 
Q 45.3125 48.734375 45.3125 54.390625 
Q 45.3125 60.0625 41.71875 63.234375 
Q 38.140625 66.40625 31.78125 66.40625 
Q 25.390625 66.40625 21.84375 63.234375 
Q 18.3125 60.0625 18.3125 54.390625 
z
" id="DejaVuSans-56"/>
       </defs>
       <use xlink:href="#DejaVuSans-56"/>
      </g>
     </g>
    </g>
    <g id="ytick_6">
     <g id="line2d_23">
      <path clip-path="url(#p1694efee9a)" d="M 54 77.270632 
L 388.8 77.270632 
" style="fill:none;stroke:#b0b0b0;stroke-linecap:square;stroke-width:0.8;"/>
     </g>
     <g id="line2d_24">
      <g>
       <use style="stroke:#000000;stroke-width:0.8;" x="54" xlink:href="#m2146552d1b" y="77.270632"/>
      </g>
     </g>
     <g id="text_13">
      <!-- 10 -->
      <g transform="translate(34.275 81.069851)scale(0.1 -0.1)">
       <use xlink:href="#DejaVuSans-49"/>
       <use x="63.623047" xlink:href="#DejaVuSans-48"/>
      </g>
     </g>
    </g>
    <g id="ytick_7">
     <g id="line2d_25">
      <path clip-path="url(#p1694efee9a)" d="M 54 44.714082 
L 388.8 44.714082 
" style="fill:none;stroke:#b0b0b0;stroke-linecap:square;stroke-width:0.8;"/>
     </g>
     <g id="line2d_26">
      <g>
       <use style="stroke:#000000;stroke-width:0.8;" x="54" xlink:href="#m2146552d1b" y="44.714082"/>
      </g>
     </g>
     <g id="text_14">
      <!-- 12 -->
      <g transform="translate(34.275 48.513301)scale(0.1 -0.1)">
       <use xlink:href="#DejaVuSans-49"/>
       <use x="63.623047" xlink:href="#DejaVuSans-50"/>
      </g>
     </g>
    </g>
    <g id="text_15">
     <!-- Cost per sequence $\longrightarrow$ -->
     <g transform="translate(28.175 200.68)rotate(-90)scale(0.1 -0.1)">
      <defs>
       <path d="M 64.40625 67.28125 
L 64.40625 56.890625 
Q 59.421875 61.53125 53.78125 63.8125 
Q 48.140625 66.109375 41.796875 66.109375 
Q 29.296875 66.109375 22.65625 58.46875 
Q 16.015625 50.828125 16.015625 36.375 
Q 16.015625 21.96875 22.65625 14.328125 
Q 29.296875 6.6875 41.796875 6.6875 
Q 48.140625 6.6875 53.78125 8.984375 
Q 59.421875 11.28125 64.40625 15.921875 
L 64.40625 5.609375 
Q 59.234375 2.09375 53.4375 0.328125 
Q 47.65625 -1.421875 41.21875 -1.421875 
Q 24.65625 -1.421875 15.125 8.703125 
Q 5.609375 18.84375 5.609375 36.375 
Q 5.609375 53.953125 15.125 64.078125 
Q 24.65625 74.21875 41.21875 74.21875 
Q 47.75 74.21875 53.53125 72.484375 
Q 59.328125 70.75 64.40625 67.28125 
z
" id="DejaVuSans-67"/>
       <path d="M 18.109375 8.203125 
L 18.109375 -20.796875 
L 9.078125 -20.796875 
L 9.078125 54.6875 
L 18.109375 54.6875 
L 18.109375 46.390625 
Q 20.953125 51.265625 25.265625 53.625 
Q 29.59375 56 35.59375 56 
Q 45.5625 56 51.78125 48.09375 
Q 58.015625 40.1875 58.015625 27.296875 
Q 58.015625 14.40625 51.78125 6.484375 
Q 45.5625 -1.421875 35.59375 -1.421875 
Q 29.59375 -1.421875 25.265625 0.953125 
Q 20.953125 3.328125 18.109375 8.203125 
z
M 48.6875 27.296875 
Q 48.6875 37.203125 44.609375 42.84375 
Q 40.53125 48.484375 33.40625 48.484375 
Q 26.265625 48.484375 22.1875 42.84375 
Q 18.109375 37.203125 18.109375 27.296875 
Q 18.109375 17.390625 22.1875 11.75 
Q 26.265625 6.109375 33.40625 6.109375 
Q 40.53125 6.109375 44.609375 11.75 
Q 48.6875 17.390625 48.6875 27.296875 
z
" id="DejaVuSans-112"/>
       <path d="M 41.109375 46.296875 
Q 39.59375 47.171875 37.8125 47.578125 
Q 36.03125 48 33.890625 48 
Q 26.265625 48 22.1875 43.046875 
Q 18.109375 38.09375 18.109375 28.8125 
L 18.109375 0 
L 9.078125 0 
L 9.078125 54.6875 
L 18.109375 54.6875 
L 18.109375 46.1875 
Q 20.953125 51.171875 25.484375 53.578125 
Q 30.03125 56 36.53125 56 
Q 37.453125 56 38.578125 55.875 
Q 39.703125 55.765625 41.0625 55.515625 
z
" id="DejaVuSans-114"/>
       <path d="M 14.796875 27.296875 
Q 14.796875 17.390625 18.875 11.75 
Q 22.953125 6.109375 30.078125 6.109375 
Q 37.203125 6.109375 41.296875 11.75 
Q 45.40625 17.390625 45.40625 27.296875 
Q 45.40625 37.203125 41.296875 42.84375 
Q 37.203125 48.484375 30.078125 48.484375 
Q 22.953125 48.484375 18.875 42.84375 
Q 14.796875 37.203125 14.796875 27.296875 
z
M 45.40625 8.203125 
Q 42.578125 3.328125 38.25 0.953125 
Q 33.9375 -1.421875 27.875 -1.421875 
Q 17.96875 -1.421875 11.734375 6.484375 
Q 5.515625 14.40625 5.515625 27.296875 
Q 5.515625 40.1875 11.734375 48.09375 
Q 17.96875 56 27.875 56 
Q 33.9375 56 38.25 53.625 
Q 42.578125 51.265625 45.40625 46.390625 
L 45.40625 54.6875 
L 54.390625 54.6875 
L 54.390625 -20.796875 
L 45.40625 -20.796875 
z
" id="DejaVuSans-113"/>
       <path d="M 8.5 21.578125 
L 8.5 54.6875 
L 17.484375 54.6875 
L 17.484375 21.921875 
Q 17.484375 14.15625 20.5 10.265625 
Q 23.53125 6.390625 29.59375 6.390625 
Q 36.859375 6.390625 41.078125 11.03125 
Q 45.3125 15.671875 45.3125 23.6875 
L 45.3125 54.6875 
L 54.296875 54.6875 
L 54.296875 0 
L 45.3125 0 
L 45.3125 8.40625 
Q 42.046875 3.421875 37.71875 1 
Q 33.40625 -1.421875 27.6875 -1.421875 
Q 18.265625 -1.421875 13.375 4.4375 
Q 8.5 10.296875 8.5 21.578125 
z
M 31.109375 56 
z
" id="DejaVuSans-117"/>
       <path d="M 54.890625 33.015625 
L 54.890625 0 
L 45.90625 0 
L 45.90625 32.71875 
Q 45.90625 40.484375 42.875 44.328125 
Q 39.84375 48.1875 33.796875 48.1875 
Q 26.515625 48.1875 22.3125 43.546875 
Q 18.109375 38.921875 18.109375 30.90625 
L 18.109375 0 
L 9.078125 0 
L 9.078125 54.6875 
L 18.109375 54.6875 
L 18.109375 46.1875 
Q 21.34375 51.125 25.703125 53.5625 
Q 30.078125 56 35.796875 56 
Q 45.21875 56 50.046875 50.171875 
Q 54.890625 44.34375 54.890625 33.015625 
z
" id="DejaVuSans-110"/>
       <path d="M 48.78125 52.59375 
L 48.78125 44.1875 
Q 44.96875 46.296875 41.140625 47.34375 
Q 37.3125 48.390625 33.40625 48.390625 
Q 24.65625 48.390625 19.8125 42.84375 
Q 14.984375 37.3125 14.984375 27.296875 
Q 14.984375 17.28125 19.8125 11.734375 
Q 24.65625 6.203125 33.40625 6.203125 
Q 37.3125 6.203125 41.140625 7.25 
Q 44.96875 8.296875 48.78125 10.40625 
L 48.78125 2.09375 
Q 45.015625 0.34375 40.984375 -0.53125 
Q 36.96875 -1.421875 32.421875 -1.421875 
Q 20.0625 -1.421875 12.78125 6.34375 
Q 5.515625 14.109375 5.515625 27.296875 
Q 5.515625 40.671875 12.859375 48.328125 
Q 20.21875 56 33.015625 56 
Q 37.15625 56 41.109375 55.140625 
Q 45.0625 54.296875 48.78125 52.59375 
z
" id="DejaVuSans-99"/>
      </defs>
      <use transform="translate(0 0.78125)" xlink:href="#DejaVuSans-67"/>
      <use transform="translate(69.824219 0.78125)" xlink:href="#DejaVuSans-111"/>
      <use transform="translate(131.005859 0.78125)" xlink:href="#DejaVuSans-115"/>
      <use transform="translate(183.105469 0.78125)" xlink:href="#DejaVuSans-116"/>
      <use transform="translate(222.314453 0.78125)" xlink:href="#DejaVuSans-32"/>
      <use transform="translate(254.101562 0.78125)" xlink:href="#DejaVuSans-112"/>
      <use transform="translate(317.578125 0.78125)" xlink:href="#DejaVuSans-101"/>
      <use transform="translate(379.101562 0.78125)" xlink:href="#DejaVuSans-114"/>
      <use transform="translate(420.214844 0.78125)" xlink:href="#DejaVuSans-32"/>
      <use transform="translate(452.001953 0.78125)" xlink:href="#DejaVuSans-115"/>
      <use transform="translate(504.101562 0.78125)" xlink:href="#DejaVuSans-101"/>
      <use transform="translate(565.625 0.78125)" xlink:href="#DejaVuSans-113"/>
      <use transform="translate(629.101562 0.78125)" xlink:href="#DejaVuSans-117"/>
      <use transform="translate(692.480469 0.78125)" xlink:href="#DejaVuSans-101"/>
      <use transform="translate(754.003906 0.78125)" xlink:href="#DejaVuSans-110"/>
      <use transform="translate(817.382812 0.78125)" xlink:href="#DejaVuSans-99"/>
      <use transform="translate(872.363281 0.78125)" xlink:href="#DejaVuSans-101"/>
      <use transform="translate(933.886719 0.78125)" xlink:href="#DejaVuSans-32"/>
      <use transform="translate(985.15625 0.78125)" xlink:href="#DejaVuSans-10230"/>
     </g>
    </g>
   </g>
   <g id="line2d_27">
    <defs>
     <path d="M 0 -3 
L -3 3 
L 3 3 
z
" id="me3b727c0ac" style="stroke:#000000;stroke-linejoin:miter;stroke-opacity:0.4;"/>
    </defs>
    <g clip-path="url(#p1694efee9a)">
     <use style="fill-opacity:0.4;stroke:#000000;stroke-linejoin:miter;stroke-opacity:0.4;" x="69.218182" xlink:href="#me3b727c0ac" y="240.053381"/>
     <use style="fill-opacity:0.4;stroke:#000000;stroke-linejoin:miter;stroke-opacity:0.4;" x="74.557895" xlink:href="#me3b727c0ac" y="240.053381"/>
     <use style="fill-opacity:0.4;stroke:#000000;stroke-linejoin:miter;stroke-opacity:0.4;" x="79.897608" xlink:href="#me3b727c0ac" y="240.053381"/>
     <use style="fill-opacity:0.4;stroke:#000000;stroke-linejoin:miter;stroke-opacity:0.4;" x="85.237321" xlink:href="#me3b727c0ac" y="240.053381"/>
     <use style="fill-opacity:0.4;stroke:#000000;stroke-linejoin:miter;stroke-opacity:0.4;" x="90.577033" xlink:href="#me3b727c0ac" y="238.120336"/>
     <use style="fill-opacity:0.4;stroke:#000000;stroke-linejoin:miter;stroke-opacity:0.4;" x="95.916746" xlink:href="#me3b727c0ac" y="239.748163"/>
     <use style="fill-opacity:0.4;stroke:#000000;stroke-linejoin:miter;stroke-opacity:0.4;" x="101.256459" xlink:href="#me3b727c0ac" y="240.053381"/>
     <use style="fill-opacity:0.4;stroke:#000000;stroke-linejoin:miter;stroke-opacity:0.4;" x="106.596172" xlink:href="#me3b727c0ac" y="240.053381"/>
     <use style="fill-opacity:0.4;stroke:#000000;stroke-linejoin:miter;stroke-opacity:0.4;" x="111.935885" xlink:href="#me3b727c0ac" y="239.849902"/>
     <use style="fill-opacity:0.4;stroke:#000000;stroke-linejoin:miter;stroke-opacity:0.4;" x="117.275598" xlink:href="#me3b727c0ac" y="240.053381"/>
     <use style="fill-opacity:0.4;stroke:#000000;stroke-linejoin:miter;stroke-opacity:0.4;" x="122.615311" xlink:href="#me3b727c0ac" y="239.341206"/>
     <use style="fill-opacity:0.4;stroke:#000000;stroke-linejoin:miter;stroke-opacity:0.4;" x="127.955024" xlink:href="#me3b727c0ac" y="238.527292"/>
     <use style="fill-opacity:0.4;stroke:#000000;stroke-linejoin:miter;stroke-opacity:0.4;" x="133.294737" xlink:href="#me3b727c0ac" y="239.849902"/>
     <use style="fill-opacity:0.4;stroke:#000000;stroke-linejoin:miter;stroke-opacity:0.4;" x="138.63445" xlink:href="#me3b727c0ac" y="240.053381"/>
     <use style="fill-opacity:0.4;stroke:#000000;stroke-linejoin:miter;stroke-opacity:0.4;" x="143.974163" xlink:href="#me3b727c0ac" y="239.035989"/>
     <use style="fill-opacity:0.4;stroke:#000000;stroke-linejoin:miter;stroke-opacity:0.4;" x="149.313876" xlink:href="#me3b727c0ac" y="237.408161"/>
     <use style="fill-opacity:0.4;stroke:#000000;stroke-linejoin:miter;stroke-opacity:0.4;" x="154.653589" xlink:href="#me3b727c0ac" y="235.780334"/>
     <use style="fill-opacity:0.4;stroke:#000000;stroke-linejoin:miter;stroke-opacity:0.4;" x="159.993301" xlink:href="#me3b727c0ac" y="238.425553"/>
     <use style="fill-opacity:0.4;stroke:#000000;stroke-linejoin:miter;stroke-opacity:0.4;" x="165.333014" xlink:href="#me3b727c0ac" y="234.457724"/>
     <use style="fill-opacity:0.4;stroke:#000000;stroke-linejoin:miter;stroke-opacity:0.4;" x="170.672727" xlink:href="#me3b727c0ac" y="234.864681"/>
     <use style="fill-opacity:0.4;stroke:#000000;stroke-linejoin:miter;stroke-opacity:0.4;" x="176.01244" xlink:href="#me3b727c0ac" y="232.626418"/>
     <use style="fill-opacity:0.4;stroke:#000000;stroke-linejoin:miter;stroke-opacity:0.4;" x="181.352153" xlink:href="#me3b727c0ac" y="238.018596"/>
     <use style="fill-opacity:0.4;stroke:#000000;stroke-linejoin:miter;stroke-opacity:0.4;" x="186.691866" xlink:href="#me3b727c0ac" y="235.068159"/>
     <use style="fill-opacity:0.4;stroke:#000000;stroke-linejoin:miter;stroke-opacity:0.4;" x="192.031579" xlink:href="#me3b727c0ac" y="231.609026"/>
     <use style="fill-opacity:0.4;stroke:#000000;stroke-linejoin:miter;stroke-opacity:0.4;" x="197.371292" xlink:href="#me3b727c0ac" y="233.338592"/>
     <use style="fill-opacity:0.4;stroke:#000000;stroke-linejoin:miter;stroke-opacity:0.4;" x="202.711005" xlink:href="#me3b727c0ac" y="230.184677"/>
     <use style="fill-opacity:0.4;stroke:#000000;stroke-linejoin:miter;stroke-opacity:0.4;" x="208.050718" xlink:href="#me3b727c0ac" y="227.539457"/>
     <use style="fill-opacity:0.4;stroke:#000000;stroke-linejoin:miter;stroke-opacity:0.4;" x="213.390431" xlink:href="#me3b727c0ac" y="233.440332"/>
     <use style="fill-opacity:0.4;stroke:#000000;stroke-linejoin:miter;stroke-opacity:0.4;" x="218.730144" xlink:href="#me3b727c0ac" y="220.112494"/>
     <use style="fill-opacity:0.4;stroke:#000000;stroke-linejoin:miter;stroke-opacity:0.4;" x="224.069856" xlink:href="#me3b727c0ac" y="213.499445"/>
     <use style="fill-opacity:0.4;stroke:#000000;stroke-linejoin:miter;stroke-opacity:0.4;" x="229.409569" xlink:href="#me3b727c0ac" y="208.615962"/>
     <use style="fill-opacity:0.4;stroke:#000000;stroke-linejoin:miter;stroke-opacity:0.4;" x="234.749282" xlink:href="#me3b727c0ac" y="201.08726"/>
     <use style="fill-opacity:0.4;stroke:#000000;stroke-linejoin:miter;stroke-opacity:0.4;" x="240.088995" xlink:href="#me3b727c0ac" y="198.54378"/>
     <use style="fill-opacity:0.4;stroke:#000000;stroke-linejoin:miter;stroke-opacity:0.4;" x="245.428708" xlink:href="#me3b727c0ac" y="196.305517"/>
     <use style="fill-opacity:0.4;stroke:#000000;stroke-linejoin:miter;stroke-opacity:0.4;" x="250.768421" xlink:href="#me3b727c0ac" y="156.627222"/>
     <use style="fill-opacity:0.4;stroke:#000000;stroke-linejoin:miter;stroke-opacity:0.4;" x="256.108134" xlink:href="#me3b727c0ac" y="163.850707"/>
     <use style="fill-opacity:0.4;stroke:#000000;stroke-linejoin:miter;stroke-opacity:0.4;" x="261.447847" xlink:href="#me3b727c0ac" y="133.43068"/>
     <use style="fill-opacity:0.4;stroke:#000000;stroke-linejoin:miter;stroke-opacity:0.4;" x="266.78756" xlink:href="#me3b727c0ac" y="112.268923"/>
     <use style="fill-opacity:0.4;stroke:#000000;stroke-linejoin:miter;stroke-opacity:0.4;" x="272.127273" xlink:href="#me3b727c0ac" y="94.261081"/>
     <use style="fill-opacity:0.4;stroke:#000000;stroke-linejoin:miter;stroke-opacity:0.4;" x="277.466986" xlink:href="#me3b727c0ac" y="153.168089"/>
     <use style="fill-opacity:0.4;stroke:#000000;stroke-linejoin:miter;stroke-opacity:0.4;" x="282.806699" xlink:href="#me3b727c0ac" y="127.326327"/>
     <use style="fill-opacity:0.4;stroke:#000000;stroke-linejoin:miter;stroke-opacity:0.4;" x="288.146411" xlink:href="#me3b727c0ac" y="134.549812"/>
     <use style="fill-opacity:0.4;stroke:#000000;stroke-linejoin:miter;stroke-opacity:0.4;" x="293.486124" xlink:href="#me3b727c0ac" y="129.055894"/>
     <use style="fill-opacity:0.4;stroke:#000000;stroke-linejoin:miter;stroke-opacity:0.4;" x="298.825837" xlink:href="#me3b727c0ac" y="129.157633"/>
     <use style="fill-opacity:0.4;stroke:#000000;stroke-linejoin:miter;stroke-opacity:0.4;" x="304.16555" xlink:href="#me3b727c0ac" y="122.951541"/>
     <use style="fill-opacity:0.4;stroke:#000000;stroke-linejoin:miter;stroke-opacity:0.4;" x="309.505263" xlink:href="#me3b727c0ac" y="124.37589"/>
     <use style="fill-opacity:0.4;stroke:#000000;stroke-linejoin:miter;stroke-opacity:0.4;" x="314.844976" xlink:href="#me3b727c0ac" y="120.306321"/>
     <use style="fill-opacity:0.4;stroke:#000000;stroke-linejoin:miter;stroke-opacity:0.4;" x="320.184689" xlink:href="#me3b727c0ac" y="118.983711"/>
     <use style="fill-opacity:0.4;stroke:#000000;stroke-linejoin:miter;stroke-opacity:0.4;" x="325.524402" xlink:href="#me3b727c0ac" y="115.21936"/>
     <use style="fill-opacity:0.4;stroke:#000000;stroke-linejoin:miter;stroke-opacity:0.4;" x="330.864115" xlink:href="#me3b727c0ac" y="116.643709"/>
     <use style="fill-opacity:0.4;stroke:#000000;stroke-linejoin:miter;stroke-opacity:0.4;" x="336.203828" xlink:href="#me3b727c0ac" y="116.033274"/>
     <use style="fill-opacity:0.4;stroke:#000000;stroke-linejoin:miter;stroke-opacity:0.4;" x="341.543541" xlink:href="#me3b727c0ac" y="120.611539"/>
     <use style="fill-opacity:0.4;stroke:#000000;stroke-linejoin:miter;stroke-opacity:0.4;" x="346.883254" xlink:href="#me3b727c0ac" y="114.303707"/>
     <use style="fill-opacity:0.4;stroke:#000000;stroke-linejoin:miter;stroke-opacity:0.4;" x="352.222967" xlink:href="#me3b727c0ac" y="120.611539"/>
     <use style="fill-opacity:0.4;stroke:#000000;stroke-linejoin:miter;stroke-opacity:0.4;" x="357.562679" xlink:href="#me3b727c0ac" y="108.80979"/>
     <use style="fill-opacity:0.4;stroke:#000000;stroke-linejoin:miter;stroke-opacity:0.4;" x="362.902392" xlink:href="#me3b727c0ac" y="110.742835"/>
     <use style="fill-opacity:0.4;stroke:#000000;stroke-linejoin:miter;stroke-opacity:0.4;" x="368.242105" xlink:href="#me3b727c0ac" y="99.958478"/>
     <use style="fill-opacity:0.4;stroke:#000000;stroke-linejoin:miter;stroke-opacity:0.4;" x="373.581818" xlink:href="#me3b727c0ac" y="110.844574"/>
    </g>
   </g>
   <g id="line2d_28">
    <path clip-path="url(#p1694efee9a)" d="M 69.218182 240.053381 
L 74.557895 240.053381 
L 79.897608 240.053381 
L 85.237321 240.053381 
L 90.577033 238.120336 
L 95.916746 239.748163 
L 101.256459 240.053381 
L 106.596172 240.053381 
L 111.935885 239.849902 
L 117.275598 240.053381 
L 122.615311 239.341206 
L 127.955024 238.527292 
L 133.294737 239.849902 
L 138.63445 240.053381 
L 143.974163 239.035989 
L 149.313876 237.408161 
L 154.653589 235.780334 
L 159.993301 238.425553 
L 165.333014 234.457724 
L 170.672727 234.864681 
L 176.01244 232.626418 
L 181.352153 238.018596 
L 186.691866 235.068159 
L 192.031579 231.609026 
L 197.371292 233.338592 
L 202.711005 230.184677 
L 208.050718 227.539457 
L 213.390431 233.440332 
L 218.730144 220.112494 
L 224.069856 213.499445 
L 229.409569 208.615962 
L 234.749282 201.08726 
L 240.088995 198.54378 
L 245.428708 196.305517 
L 250.768421 156.627222 
L 256.108134 163.850707 
L 261.447847 133.43068 
L 266.78756 112.268923 
L 272.127273 94.261081 
L 277.466986 153.168089 
L 282.806699 127.326327 
L 288.146411 134.549812 
L 293.486124 129.055894 
L 298.825837 129.157633 
L 304.16555 122.951541 
L 309.505263 124.37589 
L 314.844976 120.306321 
L 320.184689 118.983711 
L 325.524402 115.21936 
L 330.864115 116.643709 
L 336.203828 116.033274 
L 341.543541 120.611539 
L 346.883254 114.303707 
L 352.222967 120.611539 
L 357.562679 108.80979 
L 362.902392 110.742835 
L 368.242105 99.958478 
L 373.581818 110.844574 
" style="fill:none;stroke:#ff0000;stroke-linecap:square;stroke-opacity:0.4;stroke-width:1.5;"/>
   </g>
   <g id="patch_3">
    <path d="M 54 252 
L 54 34.56 
" style="fill:none;stroke:#000000;stroke-linecap:square;stroke-linejoin:miter;stroke-width:0.8;"/>
   </g>
   <g id="patch_4">
    <path d="M 388.8 252 
L 388.8 34.56 
" style="fill:none;stroke:#000000;stroke-linecap:square;stroke-linejoin:miter;stroke-width:0.8;"/>
   </g>
   <g id="patch_5">
    <path d="M 54 252 
L 388.8 252 
" style="fill:none;stroke:#000000;stroke-linecap:square;stroke-linejoin:miter;stroke-width:0.8;"/>
   </g>
   <g id="patch_6">
    <path d="M 54 34.56 
L 388.8 34.56 
" style="fill:none;stroke:#000000;stroke-linecap:square;stroke-linejoin:miter;stroke-width:0.8;"/>
   </g>
  </g>
 </g>
 <defs>
  <clipPath id="p1694efee9a">
   <rect height="217.44" width="334.8" x="54" y="34.56"/>
  </clipPath>
 </defs>
</svg>
