<?xml version="1.0" encoding="utf-8" standalone="no"?>
<!DOCTYPE svg PUBLIC "-//W3C//DTD SVG 1.1//EN"
  "http://www.w3.org/Graphics/SVG/1.1/DTD/svg11.dtd">
<!-- Created with matplotlib (https://matplotlib.org/) -->
<svg height="864pt" version="1.1" viewBox="0 0 1440 864" width="1440pt" xmlns="http://www.w3.org/2000/svg" xmlns:xlink="http://www.w3.org/1999/xlink">
 <metadata>
  <rdf:RDF xmlns:cc="http://creativecommons.org/ns#" xmlns:dc="http://purl.org/dc/elements/1.1/" xmlns:rdf="http://www.w3.org/1999/02/22-rdf-syntax-ns#">
   <cc:Work>
    <dc:type rdf:resource="http://purl.org/dc/dcmitype/StillImage"/>
    <dc:date>2020-12-24T05:01:48.856164</dc:date>
    <dc:format>image/svg+xml</dc:format>
    <dc:creator>
     <cc:Agent>
      <dc:title>Matplotlib v3.3.1, https://matplotlib.org/</dc:title>
     </cc:Agent>
    </dc:creator>
   </cc:Work>
  </rdf:RDF>
 </metadata>
 <defs>
  <style type="text/css">*{stroke-linecap:butt;stroke-linejoin:round;}</style>
 </defs>
 <g id="figure_1">
  <g id="patch_1">
   <path d="M 0 864 
L 1440 864 
L 1440 0 
L 0 0 
z
" style="fill:none;"/>
  </g>
  <g id="axes_1">
   <g id="patch_2">
    <path d="M 180 756 
L 1296 756 
L 1296 103.68 
L 180 103.68 
z
" style="fill:#ffffff;"/>
   </g>
   <g id="PolyCollection_1">
    <path clip-path="url(#p921b7a41a6)" d="M 230.727273 256.498648 
L 230.727273 256.498648 
L 234.120401 260.565098 
L 237.51353 269.576208 
L 240.906659 259.291075 
L 244.299787 261.164291 
L 247.692916 259.989197 
L 251.086044 254.865537 
L 254.479173 262.058717 
L 257.872302 259.794042 
L 261.26543 246.467152 
L 264.658559 265.466424 
L 268.051687 261.617617 
L 271.444816 261.029219 
L 274.837945 263.569745 
L 278.231073 261.928444 
L 281.624202 259.85183 
L 285.01733 266.218907 
L 288.410459 261.286808 
L 291.803588 247.405884 
L 295.196716 257.44841 
L 298.589845 253.483201 
L 301.982974 263.335513 
L 305.376102 250.568382 
L 308.769231 238.246914 
L 312.162359 264.521446 
L 315.555488 264.340227 
L 318.948617 261.130473 
L 322.341745 268.107451 
L 325.734874 265.569588 
L 329.128002 261.188153 
L 332.521131 264.680576 
L 335.91426 249.384719 
L 339.307388 261.928945 
L 342.700517 261.679444 
L 346.093645 262.260498 
L 349.486774 253.218846 
L 352.879903 262.490521 
L 356.273031 261.114495 
L 359.66616 257.968184 
L 363.059289 264.87784 
L 366.452417 255.103798 
L 369.845546 266.650843 
L 373.238674 260.943601 
L 376.631803 252.17149 
L 380.024932 264.921354 
L 383.41806 259.601776 
L 386.811189 262.715282 
L 390.204317 262.134342 
L 393.597446 253.796834 
L 396.990575 253.475723 
L 400.383703 262.778435 
L 403.776832 255.428385 
L 407.16996 262.011302 
L 410.563089 256.069552 
L 413.956218 263.851079 
L 417.349346 262.038801 
L 420.742475 261.384565 
L 424.135604 262.918198 
L 427.528732 264.71883 
L 430.921861 260.947309 
L 434.314989 260.94913 
L 437.708118 261.442349 
L 441.101247 264.512286 
L 444.494375 258.379553 
L 447.887504 257.345761 
L 451.280632 254.682888 
L 454.673761 250.714469 
L 458.06689 258.204227 
L 461.460018 261.314113 
L 464.853147 258.130292 
L 468.246275 257.15557 
L 471.639404 261.615864 
L 475.032533 262.804618 
L 478.425661 261.927489 
L 481.81879 258.388106 
L 485.211919 257.799634 
L 488.605047 251.581192 
L 491.998176 262.119854 
L 495.391304 256.776619 
L 498.784433 260.224507 
L 502.177562 257.932988 
L 505.57069 257.838681 
L 508.963819 263.101063 
L 512.356947 259.281899 
L 515.750076 261.901852 
L 519.143205 259.499271 
L 522.536333 245.425629 
L 525.929462 263.580816 
L 529.32259 263.465701 
L 532.715719 255.205164 
L 536.108848 249.702696 
L 539.501976 259.641744 
L 542.895105 260.708395 
L 546.288234 266.183599 
L 549.681362 262.741739 
L 553.074491 265.723021 
L 556.467619 264.107383 
L 559.860748 262.424249 
L 563.253877 250.222072 
L 566.647005 267.105051 
L 570.040134 265.874574 
L 573.433262 262.379094 
L 576.826391 258.057616 
L 580.21952 265.356325 
L 583.612648 265.8535 
L 587.005777 263.628852 
L 590.398905 253.966564 
L 593.792034 256.282129 
L 597.185163 259.545839 
L 600.578291 258.735566 
L 603.97142 259.352516 
L 607.364548 239.063813 
L 610.757677 260.492533 
L 614.150806 260.983234 
L 617.543934 254.993365 
L 620.937063 262.771243 
L 624.330192 261.916203 
L 627.72332 260.871544 
L 631.116449 248.921441 
L 634.509577 255.444227 
L 637.902706 255.598437 
L 641.295835 264.277329 
L 644.688963 256.419986 
L 648.082092 262.589926 
L 651.47522 249.74395 
L 654.868349 262.922252 
L 658.261478 256.72925 
L 661.654606 253.262363 
L 665.047735 258.918547 
L 668.440863 259.960077 
L 671.833992 250.067952 
L 675.227121 258.973802 
L 678.620249 261.660531 
L 682.013378 254.742869 
L 685.406507 257.817583 
L 688.799635 258.572991 
L 692.192764 260.165977 
L 695.585892 266.406924 
L 698.979021 258.381535 
L 702.37215 260.849946 
L 705.765278 251.419265 
L 709.158407 263.186915 
L 712.551535 260.128066 
L 715.944664 264.240878 
L 719.337793 267.734896 
L 722.730921 264.419233 
L 726.12405 258.39876 
L 729.517178 265.03622 
L 732.910307 266.23647 
L 736.303436 264.766888 
L 739.696564 262.583622 
L 743.089693 262.684775 
L 746.482822 249.133494 
L 749.87595 255.015409 
L 753.269079 258.099017 
L 756.662207 259.596274 
L 760.055336 253.195816 
L 763.448465 257.674525 
L 766.841593 261.212137 
L 770.234722 260.64073 
L 773.62785 249.485251 
L 777.020979 256.833075 
L 780.414108 244.950559 
L 783.807236 262.94943 
L 787.200365 250.378797 
L 790.593493 253.352697 
L 793.986622 258.335675 
L 797.379751 259.679464 
L 800.772879 263.466819 
L 804.166008 264.94953 
L 807.559137 261.390479 
L 810.952265 259.037451 
L 814.345394 258.915594 
L 817.738522 259.125228 
L 821.131651 262.454901 
L 824.52478 254.216403 
L 827.917908 257.619017 
L 831.311037 261.63606 
L 834.704165 259.299705 
L 838.097294 262.566469 
L 841.490423 268.68459 
L 844.883551 246.897236 
L 848.27668 264.141465 
L 851.669808 257.440679 
L 855.062937 261.486561 
L 858.456066 258.505872 
L 861.849194 263.720989 
L 865.242323 262.616957 
L 868.635452 253.210719 
L 872.02858 254.83862 
L 875.421709 259.64045 
L 878.814837 248.117417 
L 882.207966 256.985205 
L 885.601095 251.574906 
L 888.994223 265.018473 
L 892.387352 258.597536 
L 895.78048 258.806418 
L 899.173609 263.910958 
L 902.566738 260.532942 
L 905.959866 264.176699 
L 909.352995 261.100012 
L 912.746123 262.085664 
L 916.139252 257.685263 
L 919.532381 262.782492 
L 922.925509 260.074636 
L 926.318638 265.772144 
L 929.711766 254.909904 
L 933.104895 263.570175 
L 936.498024 266.376114 
L 939.891152 261.72838 
L 943.284281 255.59396 
L 946.67741 260.173504 
L 950.070538 256.964524 
L 953.463667 262.940345 
L 956.856795 259.846919 
L 960.249924 264.256559 
L 963.643053 257.134983 
L 967.036181 260.7171 
L 970.42931 257.292492 
L 973.822438 262.831779 
L 977.215567 258.82372 
L 980.608696 258.132862 
L 984.001824 261.414675 
L 987.394953 263.300277 
L 990.788081 257.512786 
L 994.18121 260.198989 
L 997.574339 249.31782 
L 1000.967467 260.691438 
L 1004.360596 261.62691 
L 1007.753725 262.032173 
L 1011.146853 252.837703 
L 1014.539982 256.577278 
L 1017.93311 260.770452 
L 1021.326239 263.037779 
L 1024.719368 259.641771 
L 1028.112496 264.244168 
L 1031.505625 248.44637 
L 1034.898753 266.121921 
L 1038.291882 260.803591 
L 1041.685011 263.1401 
L 1045.078139 259.496156 
L 1048.471268 268.532175 
L 1051.864396 263.847041 
L 1055.257525 257.255961 
L 1058.650654 255.367244 
L 1062.043782 261.492307 
L 1065.436911 253.938279 
L 1068.83004 239.826148 
L 1072.223168 255.171716 
L 1075.616297 261.084753 
L 1079.009425 259.999475 
L 1082.402554 258.947338 
L 1085.795683 261.278107 
L 1089.188811 260.751851 
L 1092.58194 259.972632 
L 1095.975068 259.735762 
L 1099.368197 259.591272 
L 1102.761326 261.792292 
L 1106.154454 263.034036 
L 1109.547583 262.697385 
L 1112.940711 261.193229 
L 1116.33384 262.553334 
L 1119.726969 260.489073 
L 1123.120097 259.948723 
L 1126.513226 257.043617 
L 1129.906355 262.517314 
L 1133.299483 262.510882 
L 1136.692612 266.294152 
L 1140.08574 261.577247 
L 1143.478869 263.856056 
L 1146.871998 262.736693 
L 1150.265126 259.902999 
L 1153.658255 259.027545 
L 1157.051383 266.67245 
L 1160.444512 263.985 
L 1163.837641 252.412324 
L 1167.230769 264.482467 
L 1170.623898 270.176867 
L 1174.017026 262.987183 
L 1177.410155 263.78576 
L 1180.803284 265.298494 
L 1184.196412 265.63087 
L 1187.589541 260.678138 
L 1190.98267 256.355081 
L 1194.375798 249.517098 
L 1197.768927 258.647887 
L 1201.162055 254.898815 
L 1204.555184 256.307171 
L 1207.948313 264.676353 
L 1211.341441 258.445752 
L 1214.73457 261.905186 
L 1218.127698 261.297568 
L 1221.520827 262.909624 
L 1224.913956 266.183975 
L 1228.307084 241.865027 
L 1231.700213 261.276147 
L 1235.093341 252.306084 
L 1238.48647 260.856899 
L 1241.879599 260.456666 
L 1245.272727 261.215081 
L 1245.272727 261.215081 
L 1245.272727 275.671417 
L 1241.879599 273.493834 
L 1238.48647 273.437067 
L 1235.093341 275.185761 
L 1231.700213 266.948751 
L 1228.307084 271.685799 
L 1224.913956 268.722322 
L 1221.520827 282.569738 
L 1218.127698 272.020484 
L 1214.73457 269.686032 
L 1211.341441 277.022057 
L 1207.948313 273.801067 
L 1204.555184 274.685839 
L 1201.162055 275.497709 
L 1197.768927 278.093801 
L 1194.375798 263.157841 
L 1190.98267 280.06008 
L 1187.589541 270.158497 
L 1184.196412 271.468146 
L 1180.803284 271.601206 
L 1177.410155 270.338994 
L 1174.017026 272.988668 
L 1170.623898 281.129145 
L 1167.230769 275.189666 
L 1163.837641 270.94775 
L 1160.444512 274.701823 
L 1157.051383 279.383571 
L 1153.658255 281.484098 
L 1150.265126 272.130078 
L 1146.871998 269.831335 
L 1143.478869 278.340642 
L 1140.08574 268.724353 
L 1136.692612 277.522863 
L 1133.299483 273.376465 
L 1129.906355 267.42952 
L 1126.513226 269.434645 
L 1123.120097 274.154565 
L 1119.726969 274.140224 
L 1116.33384 275.256454 
L 1112.940711 284.489615 
L 1109.547583 282.452899 
L 1106.154454 266.916838 
L 1102.761326 274.136671 
L 1099.368197 276.70083 
L 1095.975068 274.379276 
L 1092.58194 284.496368 
L 1089.188811 272.538805 
L 1085.795683 271.44621 
L 1082.402554 275.820431 
L 1079.009425 272.593202 
L 1075.616297 273.167112 
L 1072.223168 266.861968 
L 1068.83004 275.599344 
L 1065.436911 273.714519 
L 1062.043782 275.238693 
L 1058.650654 270.103534 
L 1055.257525 273.400148 
L 1051.864396 269.813776 
L 1048.471268 277.004593 
L 1045.078139 276.837167 
L 1041.685011 276.414741 
L 1038.291882 270.688174 
L 1034.898753 271.04052 
L 1031.505625 276.273894 
L 1028.112496 268.839205 
L 1024.719368 271.675522 
L 1021.326239 269.851832 
L 1017.93311 273.734122 
L 1014.539982 274.432308 
L 1011.146853 267.836019 
L 1007.753725 269.248826 
L 1004.360596 273.738805 
L 1000.967467 271.181394 
L 997.574339 271.871316 
L 994.18121 276.902636 
L 990.788081 278.766007 
L 987.394953 274.10815 
L 984.001824 276.462049 
L 980.608696 272.792428 
L 977.215567 271.485739 
L 973.822438 268.109826 
L 970.42931 281.157129 
L 967.036181 274.532638 
L 963.643053 268.590337 
L 960.249924 271.510059 
L 956.856795 271.144124 
L 953.463667 268.959853 
L 950.070538 276.259566 
L 946.67741 277.559871 
L 943.284281 271.716568 
L 939.891152 274.525153 
L 936.498024 272.275151 
L 933.104895 274.771993 
L 929.711766 273.988824 
L 926.318638 269.274444 
L 922.925509 269.060895 
L 919.532381 272.95056 
L 916.139252 268.906308 
L 912.746123 278.648506 
L 909.352995 267.866759 
L 905.959866 270.279114 
L 902.566738 266.848348 
L 899.173609 274.099606 
L 895.78048 267.366176 
L 892.387352 267.560349 
L 888.994223 277.011116 
L 885.601095 275.208604 
L 882.207966 280.028923 
L 878.814837 286.32828 
L 875.421709 273.161016 
L 872.02858 292.028594 
L 868.635452 265.495386 
L 865.242323 275.413335 
L 861.849194 273.942807 
L 858.456066 271.521501 
L 855.062937 272.992241 
L 851.669808 270.534228 
L 848.27668 270.510828 
L 844.883551 275.900226 
L 841.490423 273.648526 
L 838.097294 268.149355 
L 834.704165 286.732029 
L 831.311037 267.90103 
L 827.917908 267.405881 
L 824.52478 273.587215 
L 821.131651 267.902283 
L 817.738522 270.730784 
L 814.345394 269.509184 
L 810.952265 280.870642 
L 807.559137 272.615471 
L 804.166008 277.303708 
L 800.772879 279.591514 
L 797.379751 270.183425 
L 793.986622 273.53135 
L 790.593493 269.374987 
L 787.200365 278.091023 
L 783.807236 274.73349 
L 780.414108 276.044952 
L 777.020979 275.618756 
L 773.62785 277.38865 
L 770.234722 271.902496 
L 766.841593 268.999648 
L 763.448465 269.479908 
L 760.055336 266.810048 
L 756.662207 276.514214 
L 753.269079 275.850555 
L 749.87595 274.148861 
L 746.482822 270.965496 
L 743.089693 274.214118 
L 739.696564 269.208139 
L 736.303436 268.393119 
L 732.910307 274.371685 
L 729.517178 273.468457 
L 726.12405 277.909627 
L 722.730921 270.393488 
L 719.337793 275.785151 
L 715.944664 274.618383 
L 712.551535 276.142632 
L 709.158407 270.785951 
L 705.765278 273.636933 
L 702.37215 273.419546 
L 698.979021 277.477619 
L 695.585892 278.044609 
L 692.192764 273.27355 
L 688.799635 272.15035 
L 685.406507 273.580384 
L 682.013378 284.854589 
L 678.620249 273.243346 
L 675.227121 271.708112 
L 671.833992 270.320919 
L 668.440863 266.85728 
L 665.047735 270.259172 
L 661.654606 273.600811 
L 658.261478 268.631379 
L 654.868349 274.667134 
L 651.47522 283.318653 
L 648.082092 271.695987 
L 644.688963 265.094184 
L 641.295835 273.063749 
L 637.902706 273.999698 
L 634.509577 281.812832 
L 631.116449 270.503767 
L 627.72332 275.19727 
L 624.330192 268.391376 
L 620.937063 283.527143 
L 617.543934 275.080218 
L 614.150806 272.532133 
L 610.757677 269.051123 
L 607.364548 279.46093 
L 603.97142 264.986361 
L 600.578291 276.388642 
L 597.185163 278.496477 
L 593.792034 266.40226 
L 590.398905 271.666964 
L 587.005777 269.471054 
L 583.612648 273.066385 
L 580.21952 270.741021 
L 576.826391 271.231832 
L 573.433262 271.964072 
L 570.040134 277.848611 
L 566.647005 273.62137 
L 563.253877 279.613904 
L 559.860748 278.732018 
L 556.467619 269.795172 
L 553.074491 278.678425 
L 549.681362 275.653266 
L 546.288234 272.657286 
L 542.895105 268.32918 
L 539.501976 281.531816 
L 536.108848 267.674148 
L 532.715719 279.81693 
L 529.32259 269.040046 
L 525.929462 272.607249 
L 522.536333 272.35309 
L 519.143205 286.978921 
L 515.750076 269.134061 
L 512.356947 276.690688 
L 508.963819 265.690516 
L 505.57069 277.729002 
L 502.177562 272.171621 
L 498.784433 269.305299 
L 495.391304 283.73998 
L 491.998176 274.800758 
L 488.605047 278.963441 
L 485.211919 275.881341 
L 481.81879 271.144015 
L 478.425661 272.524891 
L 475.032533 275.917123 
L 471.639404 269.076795 
L 468.246275 271.012038 
L 464.853147 273.882532 
L 461.460018 272.941131 
L 458.06689 269.486677 
L 454.673761 282.348936 
L 451.280632 266.988964 
L 447.887504 268.368422 
L 444.494375 279.424057 
L 441.101247 274.014658 
L 437.708118 267.935015 
L 434.314989 271.566705 
L 430.921861 268.941904 
L 427.528732 269.950204 
L 424.135604 277.519398 
L 420.742475 268.285391 
L 417.349346 271.526513 
L 413.956218 274.214579 
L 410.563089 274.566031 
L 407.16996 269.626843 
L 403.776832 276.637995 
L 400.383703 273.645175 
L 396.990575 277.773671 
L 393.597446 266.825333 
L 390.204317 271.795708 
L 386.811189 276.680321 
L 383.41806 274.04011 
L 380.024932 277.552099 
L 376.631803 277.070935 
L 373.238674 275.51387 
L 369.845546 280.934151 
L 366.452417 273.1285 
L 363.059289 275.365023 
L 359.66616 269.840105 
L 356.273031 283.573055 
L 352.879903 272.310161 
L 349.486774 268.181327 
L 346.093645 275.298036 
L 342.700517 275.017231 
L 339.307388 269.428182 
L 335.91426 270.563198 
L 332.521131 272.534842 
L 329.128002 270.283711 
L 325.734874 272.772868 
L 322.341745 273.018953 
L 318.948617 272.234021 
L 315.555488 276.560055 
L 312.162359 275.661309 
L 308.769231 276.576267 
L 305.376102 275.548451 
L 301.982974 274.703271 
L 298.589845 291.853918 
L 295.196716 272.923506 
L 291.803588 270.186421 
L 288.410459 277.862173 
L 285.01733 282.317364 
L 281.624202 272.895767 
L 278.231073 276.217539 
L 274.837945 272.889801 
L 271.444816 273.671876 
L 268.051687 278.411687 
L 264.658559 272.756154 
L 261.26543 274.698406 
L 257.872302 278.954935 
L 254.479173 272.628238 
L 251.086044 282.374187 
L 247.692916 267.77904 
L 244.299787 274.621977 
L 240.906659 272.055171 
L 237.51353 279.073978 
L 234.120401 272.388275 
L 230.727273 281.085786 
z
" style="fill:#1f77b4;fill-opacity:0.4;"/>
   </g>
   <g id="matplotlib.axis_1">
    <g id="xtick_1">
     <g id="line2d_1">
      <path clip-path="url(#p921b7a41a6)" d="M 230.727273 756 
L 230.727273 103.68 
" style="fill:none;stroke:#b0b0b0;stroke-linecap:square;stroke-width:0.8;"/>
     </g>
     <g id="line2d_2">
      <defs>
       <path d="M 0 0 
L 0 3.5 
" id="m7a18f09a2a" style="stroke:#000000;stroke-width:0.8;"/>
      </defs>
      <g>
       <use style="stroke:#000000;stroke-width:0.8;" x="230.727273" xlink:href="#m7a18f09a2a" y="756"/>
      </g>
     </g>
     <g id="text_1">
      <!-- 0 -->
      <g transform="translate(223.092273 781.23625)scale(0.24 -0.24)">
       <defs>
        <path d="M 31.78125 66.40625 
Q 24.171875 66.40625 20.328125 58.90625 
Q 16.5 51.421875 16.5 36.375 
Q 16.5 21.390625 20.328125 13.890625 
Q 24.171875 6.390625 31.78125 6.390625 
Q 39.453125 6.390625 43.28125 13.890625 
Q 47.125 21.390625 47.125 36.375 
Q 47.125 51.421875 43.28125 58.90625 
Q 39.453125 66.40625 31.78125 66.40625 
z
M 31.78125 74.21875 
Q 44.046875 74.21875 50.515625 64.515625 
Q 56.984375 54.828125 56.984375 36.375 
Q 56.984375 17.96875 50.515625 8.265625 
Q 44.046875 -1.421875 31.78125 -1.421875 
Q 19.53125 -1.421875 13.0625 8.265625 
Q 6.59375 17.96875 6.59375 36.375 
Q 6.59375 54.828125 13.0625 64.515625 
Q 19.53125 74.21875 31.78125 74.21875 
z
" id="DejaVuSans-48"/>
       </defs>
       <use xlink:href="#DejaVuSans-48"/>
      </g>
     </g>
    </g>
    <g id="xtick_2">
     <g id="line2d_3">
      <path clip-path="url(#p921b7a41a6)" d="M 433.638393 756 
L 433.638393 103.68 
" style="fill:none;stroke:#b0b0b0;stroke-linecap:square;stroke-width:0.8;"/>
     </g>
     <g id="line2d_4">
      <g>
       <use style="stroke:#000000;stroke-width:0.8;" x="433.638393" xlink:href="#m7a18f09a2a" y="756"/>
      </g>
     </g>
     <g id="text_2">
      <!-- 20000 -->
      <g transform="translate(395.463393 781.23625)scale(0.24 -0.24)">
       <defs>
        <path d="M 19.1875 8.296875 
L 53.609375 8.296875 
L 53.609375 0 
L 7.328125 0 
L 7.328125 8.296875 
Q 12.9375 14.109375 22.625 23.890625 
Q 32.328125 33.6875 34.8125 36.53125 
Q 39.546875 41.84375 41.421875 45.53125 
Q 43.3125 49.21875 43.3125 52.78125 
Q 43.3125 58.59375 39.234375 62.25 
Q 35.15625 65.921875 28.609375 65.921875 
Q 23.96875 65.921875 18.8125 64.3125 
Q 13.671875 62.703125 7.8125 59.421875 
L 7.8125 69.390625 
Q 13.765625 71.78125 18.9375 73 
Q 24.125 74.21875 28.421875 74.21875 
Q 39.75 74.21875 46.484375 68.546875 
Q 53.21875 62.890625 53.21875 53.421875 
Q 53.21875 48.921875 51.53125 44.890625 
Q 49.859375 40.875 45.40625 35.40625 
Q 44.1875 33.984375 37.640625 27.21875 
Q 31.109375 20.453125 19.1875 8.296875 
z
" id="DejaVuSans-50"/>
       </defs>
       <use xlink:href="#DejaVuSans-50"/>
       <use x="63.623047" xlink:href="#DejaVuSans-48"/>
       <use x="127.246094" xlink:href="#DejaVuSans-48"/>
       <use x="190.869141" xlink:href="#DejaVuSans-48"/>
       <use x="254.492188" xlink:href="#DejaVuSans-48"/>
      </g>
     </g>
    </g>
    <g id="xtick_3">
     <g id="line2d_5">
      <path clip-path="url(#p921b7a41a6)" d="M 636.549513 756 
L 636.549513 103.68 
" style="fill:none;stroke:#b0b0b0;stroke-linecap:square;stroke-width:0.8;"/>
     </g>
     <g id="line2d_6">
      <g>
       <use style="stroke:#000000;stroke-width:0.8;" x="636.549513" xlink:href="#m7a18f09a2a" y="756"/>
      </g>
     </g>
     <g id="text_3">
      <!-- 40000 -->
      <g transform="translate(598.374513 781.23625)scale(0.24 -0.24)">
       <defs>
        <path d="M 37.796875 64.3125 
L 12.890625 25.390625 
L 37.796875 25.390625 
z
M 35.203125 72.90625 
L 47.609375 72.90625 
L 47.609375 25.390625 
L 58.015625 25.390625 
L 58.015625 17.1875 
L 47.609375 17.1875 
L 47.609375 0 
L 37.796875 0 
L 37.796875 17.1875 
L 4.890625 17.1875 
L 4.890625 26.703125 
z
" id="DejaVuSans-52"/>
       </defs>
       <use xlink:href="#DejaVuSans-52"/>
       <use x="63.623047" xlink:href="#DejaVuSans-48"/>
       <use x="127.246094" xlink:href="#DejaVuSans-48"/>
       <use x="190.869141" xlink:href="#DejaVuSans-48"/>
       <use x="254.492188" xlink:href="#DejaVuSans-48"/>
      </g>
     </g>
    </g>
    <g id="xtick_4">
     <g id="line2d_7">
      <path clip-path="url(#p921b7a41a6)" d="M 839.460633 756 
L 839.460633 103.68 
" style="fill:none;stroke:#b0b0b0;stroke-linecap:square;stroke-width:0.8;"/>
     </g>
     <g id="line2d_8">
      <g>
       <use style="stroke:#000000;stroke-width:0.8;" x="839.460633" xlink:href="#m7a18f09a2a" y="756"/>
      </g>
     </g>
     <g id="text_4">
      <!-- 60000 -->
      <g transform="translate(801.285633 781.23625)scale(0.24 -0.24)">
       <defs>
        <path d="M 33.015625 40.375 
Q 26.375 40.375 22.484375 35.828125 
Q 18.609375 31.296875 18.609375 23.390625 
Q 18.609375 15.53125 22.484375 10.953125 
Q 26.375 6.390625 33.015625 6.390625 
Q 39.65625 6.390625 43.53125 10.953125 
Q 47.40625 15.53125 47.40625 23.390625 
Q 47.40625 31.296875 43.53125 35.828125 
Q 39.65625 40.375 33.015625 40.375 
z
M 52.59375 71.296875 
L 52.59375 62.3125 
Q 48.875 64.0625 45.09375 64.984375 
Q 41.3125 65.921875 37.59375 65.921875 
Q 27.828125 65.921875 22.671875 59.328125 
Q 17.53125 52.734375 16.796875 39.40625 
Q 19.671875 43.65625 24.015625 45.921875 
Q 28.375 48.1875 33.59375 48.1875 
Q 44.578125 48.1875 50.953125 41.515625 
Q 57.328125 34.859375 57.328125 23.390625 
Q 57.328125 12.15625 50.6875 5.359375 
Q 44.046875 -1.421875 33.015625 -1.421875 
Q 20.359375 -1.421875 13.671875 8.265625 
Q 6.984375 17.96875 6.984375 36.375 
Q 6.984375 53.65625 15.1875 63.9375 
Q 23.390625 74.21875 37.203125 74.21875 
Q 40.921875 74.21875 44.703125 73.484375 
Q 48.484375 72.75 52.59375 71.296875 
z
" id="DejaVuSans-54"/>
       </defs>
       <use xlink:href="#DejaVuSans-54"/>
       <use x="63.623047" xlink:href="#DejaVuSans-48"/>
       <use x="127.246094" xlink:href="#DejaVuSans-48"/>
       <use x="190.869141" xlink:href="#DejaVuSans-48"/>
       <use x="254.492188" xlink:href="#DejaVuSans-48"/>
      </g>
     </g>
    </g>
    <g id="xtick_5">
     <g id="line2d_9">
      <path clip-path="url(#p921b7a41a6)" d="M 1042.371753 756 
L 1042.371753 103.68 
" style="fill:none;stroke:#b0b0b0;stroke-linecap:square;stroke-width:0.8;"/>
     </g>
     <g id="line2d_10">
      <g>
       <use style="stroke:#000000;stroke-width:0.8;" x="1042.371753" xlink:href="#m7a18f09a2a" y="756"/>
      </g>
     </g>
     <g id="text_5">
      <!-- 80000 -->
      <g transform="translate(1004.196753 781.23625)scale(0.24 -0.24)">
       <defs>
        <path d="M 31.78125 34.625 
Q 24.75 34.625 20.71875 30.859375 
Q 16.703125 27.09375 16.703125 20.515625 
Q 16.703125 13.921875 20.71875 10.15625 
Q 24.75 6.390625 31.78125 6.390625 
Q 38.8125 6.390625 42.859375 10.171875 
Q 46.921875 13.96875 46.921875 20.515625 
Q 46.921875 27.09375 42.890625 30.859375 
Q 38.875 34.625 31.78125 34.625 
z
M 21.921875 38.8125 
Q 15.578125 40.375 12.03125 44.71875 
Q 8.5 49.078125 8.5 55.328125 
Q 8.5 64.0625 14.71875 69.140625 
Q 20.953125 74.21875 31.78125 74.21875 
Q 42.671875 74.21875 48.875 69.140625 
Q 55.078125 64.0625 55.078125 55.328125 
Q 55.078125 49.078125 51.53125 44.71875 
Q 48 40.375 41.703125 38.8125 
Q 48.828125 37.15625 52.796875 32.3125 
Q 56.78125 27.484375 56.78125 20.515625 
Q 56.78125 9.90625 50.3125 4.234375 
Q 43.84375 -1.421875 31.78125 -1.421875 
Q 19.734375 -1.421875 13.25 4.234375 
Q 6.78125 9.90625 6.78125 20.515625 
Q 6.78125 27.484375 10.78125 32.3125 
Q 14.796875 37.15625 21.921875 38.8125 
z
M 18.3125 54.390625 
Q 18.3125 48.734375 21.84375 45.5625 
Q 25.390625 42.390625 31.78125 42.390625 
Q 38.140625 42.390625 41.71875 45.5625 
Q 45.3125 48.734375 45.3125 54.390625 
Q 45.3125 60.0625 41.71875 63.234375 
Q 38.140625 66.40625 31.78125 66.40625 
Q 25.390625 66.40625 21.84375 63.234375 
Q 18.3125 60.0625 18.3125 54.390625 
z
" id="DejaVuSans-56"/>
       </defs>
       <use xlink:href="#DejaVuSans-56"/>
       <use x="63.623047" xlink:href="#DejaVuSans-48"/>
       <use x="127.246094" xlink:href="#DejaVuSans-48"/>
       <use x="190.869141" xlink:href="#DejaVuSans-48"/>
       <use x="254.492188" xlink:href="#DejaVuSans-48"/>
      </g>
     </g>
    </g>
    <g id="xtick_6">
     <g id="line2d_11">
      <path clip-path="url(#p921b7a41a6)" d="M 1245.282873 756 
L 1245.282873 103.68 
" style="fill:none;stroke:#b0b0b0;stroke-linecap:square;stroke-width:0.8;"/>
     </g>
     <g id="line2d_12">
      <g>
       <use style="stroke:#000000;stroke-width:0.8;" x="1245.282873" xlink:href="#m7a18f09a2a" y="756"/>
      </g>
     </g>
     <g id="text_6">
      <!-- 100000 -->
      <g transform="translate(1199.472873 781.23625)scale(0.24 -0.24)">
       <defs>
        <path d="M 12.40625 8.296875 
L 28.515625 8.296875 
L 28.515625 63.921875 
L 10.984375 60.40625 
L 10.984375 69.390625 
L 28.421875 72.90625 
L 38.28125 72.90625 
L 38.28125 8.296875 
L 54.390625 8.296875 
L 54.390625 0 
L 12.40625 0 
z
" id="DejaVuSans-49"/>
       </defs>
       <use xlink:href="#DejaVuSans-49"/>
       <use x="63.623047" xlink:href="#DejaVuSans-48"/>
       <use x="127.246094" xlink:href="#DejaVuSans-48"/>
       <use x="190.869141" xlink:href="#DejaVuSans-48"/>
       <use x="254.492188" xlink:href="#DejaVuSans-48"/>
       <use x="318.115234" xlink:href="#DejaVuSans-48"/>
      </g>
     </g>
    </g>
    <g id="text_7">
     <!-- Iterations $\to$ -->
     <g transform="translate(708.4 797.825938)scale(0.1 -0.1)">
      <defs>
       <path d="M 9.8125 72.90625 
L 19.671875 72.90625 
L 19.671875 0 
L 9.8125 0 
z
" id="DejaVuSans-73"/>
       <path d="M 18.3125 70.21875 
L 18.3125 54.6875 
L 36.8125 54.6875 
L 36.8125 47.703125 
L 18.3125 47.703125 
L 18.3125 18.015625 
Q 18.3125 11.328125 20.140625 9.421875 
Q 21.96875 7.515625 27.59375 7.515625 
L 36.8125 7.515625 
L 36.8125 0 
L 27.59375 0 
Q 17.1875 0 13.234375 3.875 
Q 9.28125 7.765625 9.28125 18.015625 
L 9.28125 47.703125 
L 2.6875 47.703125 
L 2.6875 54.6875 
L 9.28125 54.6875 
L 9.28125 70.21875 
z
" id="DejaVuSans-116"/>
       <path d="M 56.203125 29.59375 
L 56.203125 25.203125 
L 14.890625 25.203125 
Q 15.484375 15.921875 20.484375 11.0625 
Q 25.484375 6.203125 34.421875 6.203125 
Q 39.59375 6.203125 44.453125 7.46875 
Q 49.3125 8.734375 54.109375 11.28125 
L 54.109375 2.78125 
Q 49.265625 0.734375 44.1875 -0.34375 
Q 39.109375 -1.421875 33.890625 -1.421875 
Q 20.796875 -1.421875 13.15625 6.1875 
Q 5.515625 13.8125 5.515625 26.8125 
Q 5.515625 40.234375 12.765625 48.109375 
Q 20.015625 56 32.328125 56 
Q 43.359375 56 49.78125 48.890625 
Q 56.203125 41.796875 56.203125 29.59375 
z
M 47.21875 32.234375 
Q 47.125 39.59375 43.09375 43.984375 
Q 39.0625 48.390625 32.421875 48.390625 
Q 24.90625 48.390625 20.390625 44.140625 
Q 15.875 39.890625 15.1875 32.171875 
z
" id="DejaVuSans-101"/>
       <path d="M 41.109375 46.296875 
Q 39.59375 47.171875 37.8125 47.578125 
Q 36.03125 48 33.890625 48 
Q 26.265625 48 22.1875 43.046875 
Q 18.109375 38.09375 18.109375 28.8125 
L 18.109375 0 
L 9.078125 0 
L 9.078125 54.6875 
L 18.109375 54.6875 
L 18.109375 46.1875 
Q 20.953125 51.171875 25.484375 53.578125 
Q 30.03125 56 36.53125 56 
Q 37.453125 56 38.578125 55.875 
Q 39.703125 55.765625 41.0625 55.515625 
z
" id="DejaVuSans-114"/>
       <path d="M 34.28125 27.484375 
Q 23.390625 27.484375 19.1875 25 
Q 14.984375 22.515625 14.984375 16.5 
Q 14.984375 11.71875 18.140625 8.90625 
Q 21.296875 6.109375 26.703125 6.109375 
Q 34.1875 6.109375 38.703125 11.40625 
Q 43.21875 16.703125 43.21875 25.484375 
L 43.21875 27.484375 
z
M 52.203125 31.203125 
L 52.203125 0 
L 43.21875 0 
L 43.21875 8.296875 
Q 40.140625 3.328125 35.546875 0.953125 
Q 30.953125 -1.421875 24.3125 -1.421875 
Q 15.921875 -1.421875 10.953125 3.296875 
Q 6 8.015625 6 15.921875 
Q 6 25.140625 12.171875 29.828125 
Q 18.359375 34.515625 30.609375 34.515625 
L 43.21875 34.515625 
L 43.21875 35.40625 
Q 43.21875 41.609375 39.140625 45 
Q 35.0625 48.390625 27.6875 48.390625 
Q 23 48.390625 18.546875 47.265625 
Q 14.109375 46.140625 10.015625 43.890625 
L 10.015625 52.203125 
Q 14.9375 54.109375 19.578125 55.046875 
Q 24.21875 56 28.609375 56 
Q 40.484375 56 46.34375 49.84375 
Q 52.203125 43.703125 52.203125 31.203125 
z
" id="DejaVuSans-97"/>
       <path d="M 9.421875 54.6875 
L 18.40625 54.6875 
L 18.40625 0 
L 9.421875 0 
z
M 9.421875 75.984375 
L 18.40625 75.984375 
L 18.40625 64.59375 
L 9.421875 64.59375 
z
" id="DejaVuSans-105"/>
       <path d="M 30.609375 48.390625 
Q 23.390625 48.390625 19.1875 42.75 
Q 14.984375 37.109375 14.984375 27.296875 
Q 14.984375 17.484375 19.15625 11.84375 
Q 23.34375 6.203125 30.609375 6.203125 
Q 37.796875 6.203125 41.984375 11.859375 
Q 46.1875 17.53125 46.1875 27.296875 
Q 46.1875 37.015625 41.984375 42.703125 
Q 37.796875 48.390625 30.609375 48.390625 
z
M 30.609375 56 
Q 42.328125 56 49.015625 48.375 
Q 55.71875 40.765625 55.71875 27.296875 
Q 55.71875 13.875 49.015625 6.21875 
Q 42.328125 -1.421875 30.609375 -1.421875 
Q 18.84375 -1.421875 12.171875 6.21875 
Q 5.515625 13.875 5.515625 27.296875 
Q 5.515625 40.765625 12.171875 48.375 
Q 18.84375 56 30.609375 56 
z
" id="DejaVuSans-111"/>
       <path d="M 54.890625 33.015625 
L 54.890625 0 
L 45.90625 0 
L 45.90625 32.71875 
Q 45.90625 40.484375 42.875 44.328125 
Q 39.84375 48.1875 33.796875 48.1875 
Q 26.515625 48.1875 22.3125 43.546875 
Q 18.109375 38.921875 18.109375 30.90625 
L 18.109375 0 
L 9.078125 0 
L 9.078125 54.6875 
L 18.109375 54.6875 
L 18.109375 46.1875 
Q 21.34375 51.125 25.703125 53.5625 
Q 30.078125 56 35.796875 56 
Q 45.21875 56 50.046875 50.171875 
Q 54.890625 44.34375 54.890625 33.015625 
z
" id="DejaVuSans-110"/>
       <path d="M 44.28125 53.078125 
L 44.28125 44.578125 
Q 40.484375 46.53125 36.375 47.5 
Q 32.28125 48.484375 27.875 48.484375 
Q 21.1875 48.484375 17.84375 46.4375 
Q 14.5 44.390625 14.5 40.28125 
Q 14.5 37.15625 16.890625 35.375 
Q 19.28125 33.59375 26.515625 31.984375 
L 29.59375 31.296875 
Q 39.15625 29.25 43.1875 25.515625 
Q 47.21875 21.78125 47.21875 15.09375 
Q 47.21875 7.46875 41.1875 3.015625 
Q 35.15625 -1.421875 24.609375 -1.421875 
Q 20.21875 -1.421875 15.453125 -0.5625 
Q 10.6875 0.296875 5.421875 2 
L 5.421875 11.28125 
Q 10.40625 8.6875 15.234375 7.390625 
Q 20.0625 6.109375 24.8125 6.109375 
Q 31.15625 6.109375 34.5625 8.28125 
Q 37.984375 10.453125 37.984375 14.40625 
Q 37.984375 18.0625 35.515625 20.015625 
Q 33.0625 21.96875 24.703125 23.78125 
L 21.578125 24.515625 
Q 13.234375 26.265625 9.515625 29.90625 
Q 5.8125 33.546875 5.8125 39.890625 
Q 5.8125 47.609375 11.28125 51.796875 
Q 16.75 56 26.8125 56 
Q 31.78125 56 36.171875 55.265625 
Q 40.578125 54.546875 44.28125 53.078125 
z
" id="DejaVuSans-115"/>
       <path id="DejaVuSans-32"/>
       <path d="M 78.90625 33.546875 
L 78.90625 29.15625 
L 59.71875 9.96875 
L 53.859375 15.828125 
L 65.234375 27.203125 
L 5.71875 27.203125 
L 5.71875 35.5 
L 65.234375 35.5 
L 53.859375 46.875 
L 59.71875 52.734375 
z
" id="DejaVuSans-8594"/>
      </defs>
      <use transform="translate(0 0.015625)" xlink:href="#DejaVuSans-73"/>
      <use transform="translate(29.492188 0.015625)" xlink:href="#DejaVuSans-116"/>
      <use transform="translate(68.701172 0.015625)" xlink:href="#DejaVuSans-101"/>
      <use transform="translate(130.224609 0.015625)" xlink:href="#DejaVuSans-114"/>
      <use transform="translate(171.337891 0.015625)" xlink:href="#DejaVuSans-97"/>
      <use transform="translate(232.617188 0.015625)" xlink:href="#DejaVuSans-116"/>
      <use transform="translate(271.826172 0.015625)" xlink:href="#DejaVuSans-105"/>
      <use transform="translate(299.609375 0.015625)" xlink:href="#DejaVuSans-111"/>
      <use transform="translate(360.791016 0.015625)" xlink:href="#DejaVuSans-110"/>
      <use transform="translate(424.169922 0.015625)" xlink:href="#DejaVuSans-115"/>
      <use transform="translate(476.269531 0.015625)" xlink:href="#DejaVuSans-32"/>
      <use transform="translate(508.056641 0.015625)" xlink:href="#DejaVuSans-8594"/>
     </g>
    </g>
   </g>
   <g id="matplotlib.axis_2">
    <g id="ytick_1">
     <g id="line2d_13">
      <path clip-path="url(#p921b7a41a6)" d="M 180 756 
L 1296 756 
" style="fill:none;stroke:#b0b0b0;stroke-linecap:square;stroke-width:0.8;"/>
     </g>
     <g id="line2d_14">
      <defs>
       <path d="M 0 0 
L -3.5 0 
" id="m5308d1f834" style="stroke:#000000;stroke-width:0.8;"/>
      </defs>
      <g>
       <use style="stroke:#000000;stroke-width:0.8;" x="180" xlink:href="#m5308d1f834" y="756"/>
      </g>
     </g>
     <g id="text_8">
      <!-- 0.0 -->
      <g transform="translate(134.8325 765.118125)scale(0.24 -0.24)">
       <defs>
        <path d="M 10.6875 12.40625 
L 21 12.40625 
L 21 0 
L 10.6875 0 
z
" id="DejaVuSans-46"/>
       </defs>
       <use xlink:href="#DejaVuSans-48"/>
       <use x="63.623047" xlink:href="#DejaVuSans-46"/>
       <use x="95.410156" xlink:href="#DejaVuSans-48"/>
      </g>
     </g>
    </g>
    <g id="ytick_2">
     <g id="line2d_15">
      <path clip-path="url(#p921b7a41a6)" d="M 180 674.46 
L 1296 674.46 
" style="fill:none;stroke:#b0b0b0;stroke-linecap:square;stroke-width:0.8;"/>
     </g>
     <g id="line2d_16">
      <g>
       <use style="stroke:#000000;stroke-width:0.8;" x="180" xlink:href="#m5308d1f834" y="674.46"/>
      </g>
     </g>
     <g id="text_9">
      <!-- 2.5 -->
      <g transform="translate(134.8325 683.578125)scale(0.24 -0.24)">
       <defs>
        <path d="M 10.796875 72.90625 
L 49.515625 72.90625 
L 49.515625 64.59375 
L 19.828125 64.59375 
L 19.828125 46.734375 
Q 21.96875 47.46875 24.109375 47.828125 
Q 26.265625 48.1875 28.421875 48.1875 
Q 40.625 48.1875 47.75 41.5 
Q 54.890625 34.8125 54.890625 23.390625 
Q 54.890625 11.625 47.5625 5.09375 
Q 40.234375 -1.421875 26.90625 -1.421875 
Q 22.3125 -1.421875 17.546875 -0.640625 
Q 12.796875 0.140625 7.71875 1.703125 
L 7.71875 11.625 
Q 12.109375 9.234375 16.796875 8.0625 
Q 21.484375 6.890625 26.703125 6.890625 
Q 35.15625 6.890625 40.078125 11.328125 
Q 45.015625 15.765625 45.015625 23.390625 
Q 45.015625 31 40.078125 35.4375 
Q 35.15625 39.890625 26.703125 39.890625 
Q 22.75 39.890625 18.8125 39.015625 
Q 14.890625 38.140625 10.796875 36.28125 
z
" id="DejaVuSans-53"/>
       </defs>
       <use xlink:href="#DejaVuSans-50"/>
       <use x="63.623047" xlink:href="#DejaVuSans-46"/>
       <use x="95.410156" xlink:href="#DejaVuSans-53"/>
      </g>
     </g>
    </g>
    <g id="ytick_3">
     <g id="line2d_17">
      <path clip-path="url(#p921b7a41a6)" d="M 180 592.92 
L 1296 592.92 
" style="fill:none;stroke:#b0b0b0;stroke-linecap:square;stroke-width:0.8;"/>
     </g>
     <g id="line2d_18">
      <g>
       <use style="stroke:#000000;stroke-width:0.8;" x="180" xlink:href="#m5308d1f834" y="592.92"/>
      </g>
     </g>
     <g id="text_10">
      <!-- 5.0 -->
      <g transform="translate(134.8325 602.038125)scale(0.24 -0.24)">
       <use xlink:href="#DejaVuSans-53"/>
       <use x="63.623047" xlink:href="#DejaVuSans-46"/>
       <use x="95.410156" xlink:href="#DejaVuSans-48"/>
      </g>
     </g>
    </g>
    <g id="ytick_4">
     <g id="line2d_19">
      <path clip-path="url(#p921b7a41a6)" d="M 180 511.38 
L 1296 511.38 
" style="fill:none;stroke:#b0b0b0;stroke-linecap:square;stroke-width:0.8;"/>
     </g>
     <g id="line2d_20">
      <g>
       <use style="stroke:#000000;stroke-width:0.8;" x="180" xlink:href="#m5308d1f834" y="511.38"/>
      </g>
     </g>
     <g id="text_11">
      <!-- 7.5 -->
      <g transform="translate(134.8325 520.498125)scale(0.24 -0.24)">
       <defs>
        <path d="M 8.203125 72.90625 
L 55.078125 72.90625 
L 55.078125 68.703125 
L 28.609375 0 
L 18.3125 0 
L 43.21875 64.59375 
L 8.203125 64.59375 
z
" id="DejaVuSans-55"/>
       </defs>
       <use xlink:href="#DejaVuSans-55"/>
       <use x="63.623047" xlink:href="#DejaVuSans-46"/>
       <use x="95.410156" xlink:href="#DejaVuSans-53"/>
      </g>
     </g>
    </g>
    <g id="ytick_5">
     <g id="line2d_21">
      <path clip-path="url(#p921b7a41a6)" d="M 180 429.84 
L 1296 429.84 
" style="fill:none;stroke:#b0b0b0;stroke-linecap:square;stroke-width:0.8;"/>
     </g>
     <g id="line2d_22">
      <g>
       <use style="stroke:#000000;stroke-width:0.8;" x="180" xlink:href="#m5308d1f834" y="429.84"/>
      </g>
     </g>
     <g id="text_12">
      <!-- 10.0 -->
      <g transform="translate(119.5625 438.958125)scale(0.24 -0.24)">
       <use xlink:href="#DejaVuSans-49"/>
       <use x="63.623047" xlink:href="#DejaVuSans-48"/>
       <use x="127.246094" xlink:href="#DejaVuSans-46"/>
       <use x="159.033203" xlink:href="#DejaVuSans-48"/>
      </g>
     </g>
    </g>
    <g id="ytick_6">
     <g id="line2d_23">
      <path clip-path="url(#p921b7a41a6)" d="M 180 348.3 
L 1296 348.3 
" style="fill:none;stroke:#b0b0b0;stroke-linecap:square;stroke-width:0.8;"/>
     </g>
     <g id="line2d_24">
      <g>
       <use style="stroke:#000000;stroke-width:0.8;" x="180" xlink:href="#m5308d1f834" y="348.3"/>
      </g>
     </g>
     <g id="text_13">
      <!-- 12.5 -->
      <g transform="translate(119.5625 357.418125)scale(0.24 -0.24)">
       <use xlink:href="#DejaVuSans-49"/>
       <use x="63.623047" xlink:href="#DejaVuSans-50"/>
       <use x="127.246094" xlink:href="#DejaVuSans-46"/>
       <use x="159.033203" xlink:href="#DejaVuSans-53"/>
      </g>
     </g>
    </g>
    <g id="ytick_7">
     <g id="line2d_25">
      <path clip-path="url(#p921b7a41a6)" d="M 180 266.76 
L 1296 266.76 
" style="fill:none;stroke:#b0b0b0;stroke-linecap:square;stroke-width:0.8;"/>
     </g>
     <g id="line2d_26">
      <g>
       <use style="stroke:#000000;stroke-width:0.8;" x="180" xlink:href="#m5308d1f834" y="266.76"/>
      </g>
     </g>
     <g id="text_14">
      <!-- 15.0 -->
      <g transform="translate(119.5625 275.878125)scale(0.24 -0.24)">
       <use xlink:href="#DejaVuSans-49"/>
       <use x="63.623047" xlink:href="#DejaVuSans-53"/>
       <use x="127.246094" xlink:href="#DejaVuSans-46"/>
       <use x="159.033203" xlink:href="#DejaVuSans-48"/>
      </g>
     </g>
    </g>
    <g id="ytick_8">
     <g id="line2d_27">
      <path clip-path="url(#p921b7a41a6)" d="M 180 185.22 
L 1296 185.22 
" style="fill:none;stroke:#b0b0b0;stroke-linecap:square;stroke-width:0.8;"/>
     </g>
     <g id="line2d_28">
      <g>
       <use style="stroke:#000000;stroke-width:0.8;" x="180" xlink:href="#m5308d1f834" y="185.22"/>
      </g>
     </g>
     <g id="text_15">
      <!-- 17.5 -->
      <g transform="translate(119.5625 194.338125)scale(0.24 -0.24)">
       <use xlink:href="#DejaVuSans-49"/>
       <use x="63.623047" xlink:href="#DejaVuSans-55"/>
       <use x="127.246094" xlink:href="#DejaVuSans-46"/>
       <use x="159.033203" xlink:href="#DejaVuSans-53"/>
      </g>
     </g>
    </g>
    <g id="ytick_9">
     <g id="line2d_29">
      <path clip-path="url(#p921b7a41a6)" d="M 180 103.68 
L 1296 103.68 
" style="fill:none;stroke:#b0b0b0;stroke-linecap:square;stroke-width:0.8;"/>
     </g>
     <g id="line2d_30">
      <g>
       <use style="stroke:#000000;stroke-width:0.8;" x="180" xlink:href="#m5308d1f834" y="103.68"/>
      </g>
     </g>
     <g id="text_16">
      <!-- 20.0 -->
      <g transform="translate(119.5625 112.798125)scale(0.24 -0.24)">
       <use xlink:href="#DejaVuSans-50"/>
       <use x="63.623047" xlink:href="#DejaVuSans-48"/>
       <use x="127.246094" xlink:href="#DejaVuSans-46"/>
       <use x="159.033203" xlink:href="#DejaVuSans-48"/>
      </g>
     </g>
    </g>
    <g id="text_17">
     <!-- Bit Error per Sequence $\to$  -->
     <g transform="translate(113.4625 494.14)rotate(-90)scale(0.1 -0.1)">
      <defs>
       <path d="M 19.671875 34.8125 
L 19.671875 8.109375 
L 35.5 8.109375 
Q 43.453125 8.109375 47.28125 11.40625 
Q 51.125 14.703125 51.125 21.484375 
Q 51.125 28.328125 47.28125 31.5625 
Q 43.453125 34.8125 35.5 34.8125 
z
M 19.671875 64.796875 
L 19.671875 42.828125 
L 34.28125 42.828125 
Q 41.5 42.828125 45.03125 45.53125 
Q 48.578125 48.25 48.578125 53.8125 
Q 48.578125 59.328125 45.03125 62.0625 
Q 41.5 64.796875 34.28125 64.796875 
z
M 9.8125 72.90625 
L 35.015625 72.90625 
Q 46.296875 72.90625 52.390625 68.21875 
Q 58.5 63.53125 58.5 54.890625 
Q 58.5 48.1875 55.375 44.234375 
Q 52.25 40.28125 46.1875 39.3125 
Q 53.46875 37.75 57.5 32.78125 
Q 61.53125 27.828125 61.53125 20.40625 
Q 61.53125 10.640625 54.890625 5.3125 
Q 48.25 0 35.984375 0 
L 9.8125 0 
z
" id="DejaVuSans-66"/>
       <path d="M 9.8125 72.90625 
L 55.90625 72.90625 
L 55.90625 64.59375 
L 19.671875 64.59375 
L 19.671875 43.015625 
L 54.390625 43.015625 
L 54.390625 34.71875 
L 19.671875 34.71875 
L 19.671875 8.296875 
L 56.78125 8.296875 
L 56.78125 0 
L 9.8125 0 
z
" id="DejaVuSans-69"/>
       <path d="M 18.109375 8.203125 
L 18.109375 -20.796875 
L 9.078125 -20.796875 
L 9.078125 54.6875 
L 18.109375 54.6875 
L 18.109375 46.390625 
Q 20.953125 51.265625 25.265625 53.625 
Q 29.59375 56 35.59375 56 
Q 45.5625 56 51.78125 48.09375 
Q 58.015625 40.1875 58.015625 27.296875 
Q 58.015625 14.40625 51.78125 6.484375 
Q 45.5625 -1.421875 35.59375 -1.421875 
Q 29.59375 -1.421875 25.265625 0.953125 
Q 20.953125 3.328125 18.109375 8.203125 
z
M 48.6875 27.296875 
Q 48.6875 37.203125 44.609375 42.84375 
Q 40.53125 48.484375 33.40625 48.484375 
Q 26.265625 48.484375 22.1875 42.84375 
Q 18.109375 37.203125 18.109375 27.296875 
Q 18.109375 17.390625 22.1875 11.75 
Q 26.265625 6.109375 33.40625 6.109375 
Q 40.53125 6.109375 44.609375 11.75 
Q 48.6875 17.390625 48.6875 27.296875 
z
" id="DejaVuSans-112"/>
       <path d="M 53.515625 70.515625 
L 53.515625 60.890625 
Q 47.90625 63.578125 42.921875 64.890625 
Q 37.9375 66.21875 33.296875 66.21875 
Q 25.25 66.21875 20.875 63.09375 
Q 16.5 59.96875 16.5 54.203125 
Q 16.5 49.359375 19.40625 46.890625 
Q 22.3125 44.4375 30.421875 42.921875 
L 36.375 41.703125 
Q 47.40625 39.59375 52.65625 34.296875 
Q 57.90625 29 57.90625 20.125 
Q 57.90625 9.515625 50.796875 4.046875 
Q 43.703125 -1.421875 29.984375 -1.421875 
Q 24.8125 -1.421875 18.96875 -0.25 
Q 13.140625 0.921875 6.890625 3.21875 
L 6.890625 13.375 
Q 12.890625 10.015625 18.65625 8.296875 
Q 24.421875 6.59375 29.984375 6.59375 
Q 38.421875 6.59375 43.015625 9.90625 
Q 47.609375 13.234375 47.609375 19.390625 
Q 47.609375 24.75 44.3125 27.78125 
Q 41.015625 30.8125 33.5 32.328125 
L 27.484375 33.5 
Q 16.453125 35.6875 11.515625 40.375 
Q 6.59375 45.0625 6.59375 53.421875 
Q 6.59375 63.09375 13.40625 68.65625 
Q 20.21875 74.21875 32.171875 74.21875 
Q 37.3125 74.21875 42.625 73.28125 
Q 47.953125 72.359375 53.515625 70.515625 
z
" id="DejaVuSans-83"/>
       <path d="M 14.796875 27.296875 
Q 14.796875 17.390625 18.875 11.75 
Q 22.953125 6.109375 30.078125 6.109375 
Q 37.203125 6.109375 41.296875 11.75 
Q 45.40625 17.390625 45.40625 27.296875 
Q 45.40625 37.203125 41.296875 42.84375 
Q 37.203125 48.484375 30.078125 48.484375 
Q 22.953125 48.484375 18.875 42.84375 
Q 14.796875 37.203125 14.796875 27.296875 
z
M 45.40625 8.203125 
Q 42.578125 3.328125 38.25 0.953125 
Q 33.9375 -1.421875 27.875 -1.421875 
Q 17.96875 -1.421875 11.734375 6.484375 
Q 5.515625 14.40625 5.515625 27.296875 
Q 5.515625 40.1875 11.734375 48.09375 
Q 17.96875 56 27.875 56 
Q 33.9375 56 38.25 53.625 
Q 42.578125 51.265625 45.40625 46.390625 
L 45.40625 54.6875 
L 54.390625 54.6875 
L 54.390625 -20.796875 
L 45.40625 -20.796875 
z
" id="DejaVuSans-113"/>
       <path d="M 8.5 21.578125 
L 8.5 54.6875 
L 17.484375 54.6875 
L 17.484375 21.921875 
Q 17.484375 14.15625 20.5 10.265625 
Q 23.53125 6.390625 29.59375 6.390625 
Q 36.859375 6.390625 41.078125 11.03125 
Q 45.3125 15.671875 45.3125 23.6875 
L 45.3125 54.6875 
L 54.296875 54.6875 
L 54.296875 0 
L 45.3125 0 
L 45.3125 8.40625 
Q 42.046875 3.421875 37.71875 1 
Q 33.40625 -1.421875 27.6875 -1.421875 
Q 18.265625 -1.421875 13.375 4.4375 
Q 8.5 10.296875 8.5 21.578125 
z
M 31.109375 56 
z
" id="DejaVuSans-117"/>
       <path d="M 48.78125 52.59375 
L 48.78125 44.1875 
Q 44.96875 46.296875 41.140625 47.34375 
Q 37.3125 48.390625 33.40625 48.390625 
Q 24.65625 48.390625 19.8125 42.84375 
Q 14.984375 37.3125 14.984375 27.296875 
Q 14.984375 17.28125 19.8125 11.734375 
Q 24.65625 6.203125 33.40625 6.203125 
Q 37.3125 6.203125 41.140625 7.25 
Q 44.96875 8.296875 48.78125 10.40625 
L 48.78125 2.09375 
Q 45.015625 0.34375 40.984375 -0.53125 
Q 36.96875 -1.421875 32.421875 -1.421875 
Q 20.0625 -1.421875 12.78125 6.34375 
Q 5.515625 14.109375 5.515625 27.296875 
Q 5.515625 40.671875 12.859375 48.328125 
Q 20.21875 56 33.015625 56 
Q 37.15625 56 41.109375 55.140625 
Q 45.0625 54.296875 48.78125 52.59375 
z
" id="DejaVuSans-99"/>
      </defs>
      <use transform="translate(0 0.015625)" xlink:href="#DejaVuSans-66"/>
      <use transform="translate(68.603516 0.015625)" xlink:href="#DejaVuSans-105"/>
      <use transform="translate(96.386719 0.015625)" xlink:href="#DejaVuSans-116"/>
      <use transform="translate(135.595703 0.015625)" xlink:href="#DejaVuSans-32"/>
      <use transform="translate(167.382812 0.015625)" xlink:href="#DejaVuSans-69"/>
      <use transform="translate(230.566406 0.015625)" xlink:href="#DejaVuSans-114"/>
      <use transform="translate(271.679688 0.015625)" xlink:href="#DejaVuSans-114"/>
      <use transform="translate(312.792969 0.015625)" xlink:href="#DejaVuSans-111"/>
      <use transform="translate(373.974609 0.015625)" xlink:href="#DejaVuSans-114"/>
      <use transform="translate(415.087891 0.015625)" xlink:href="#DejaVuSans-32"/>
      <use transform="translate(446.875 0.015625)" xlink:href="#DejaVuSans-112"/>
      <use transform="translate(510.351562 0.015625)" xlink:href="#DejaVuSans-101"/>
      <use transform="translate(571.875 0.015625)" xlink:href="#DejaVuSans-114"/>
      <use transform="translate(612.988281 0.015625)" xlink:href="#DejaVuSans-32"/>
      <use transform="translate(644.775391 0.015625)" xlink:href="#DejaVuSans-83"/>
      <use transform="translate(708.251953 0.015625)" xlink:href="#DejaVuSans-101"/>
      <use transform="translate(769.775391 0.015625)" xlink:href="#DejaVuSans-113"/>
      <use transform="translate(833.251953 0.015625)" xlink:href="#DejaVuSans-117"/>
      <use transform="translate(896.630859 0.015625)" xlink:href="#DejaVuSans-101"/>
      <use transform="translate(958.154297 0.015625)" xlink:href="#DejaVuSans-110"/>
      <use transform="translate(1021.533203 0.015625)" xlink:href="#DejaVuSans-99"/>
      <use transform="translate(1076.513672 0.015625)" xlink:href="#DejaVuSans-101"/>
      <use transform="translate(1138.037109 0.015625)" xlink:href="#DejaVuSans-32"/>
      <use transform="translate(1169.824219 0.015625)" xlink:href="#DejaVuSans-8594"/>
      <use transform="translate(1253.613281 0.015625)" xlink:href="#DejaVuSans-32"/>
     </g>
    </g>
   </g>
   <g id="line2d_31">
    <path clip-path="url(#p921b7a41a6)" d="M 230.727273 268.792217 
L 234.120401 266.476686 
L 237.51353 274.325093 
L 240.906659 265.673123 
L 244.299787 267.893134 
L 247.692916 263.884119 
L 251.086044 268.619862 
L 254.479173 267.343477 
L 257.872302 269.374488 
L 261.26543 260.582779 
L 264.658559 269.111289 
L 268.051687 270.014652 
L 271.444816 267.350548 
L 278.231073 269.072992 
L 281.624202 266.373799 
L 285.01733 274.268136 
L 288.410459 269.57449 
L 291.803588 258.796152 
L 295.196716 265.185958 
L 298.589845 272.66856 
L 301.982974 269.019392 
L 305.376102 263.058416 
L 308.769231 257.411591 
L 312.162359 270.091377 
L 315.555488 270.450141 
L 318.948617 266.682247 
L 322.341745 270.563202 
L 325.734874 269.171228 
L 329.128002 265.735932 
L 332.521131 268.607709 
L 335.91426 259.973959 
L 339.307388 265.678564 
L 342.700517 268.348337 
L 346.093645 268.779267 
L 349.486774 260.700086 
L 352.879903 267.400341 
L 356.273031 272.343775 
L 359.66616 263.904145 
L 363.059289 270.121432 
L 366.452417 264.116149 
L 369.845546 273.792497 
L 373.238674 268.228736 
L 376.631803 264.621212 
L 380.024932 271.236727 
L 383.41806 266.820943 
L 386.811189 269.697801 
L 390.204317 266.965025 
L 393.597446 260.311084 
L 396.990575 265.624697 
L 400.383703 268.211805 
L 403.776832 266.03319 
L 407.16996 265.819072 
L 410.563089 265.317791 
L 413.956218 269.032829 
L 417.349346 266.782657 
L 420.742475 264.834978 
L 424.135604 270.218798 
L 427.528732 267.334517 
L 430.921861 264.944606 
L 434.314989 266.257918 
L 437.708118 264.688682 
L 441.101247 269.263472 
L 444.494375 268.901805 
L 447.887504 262.857091 
L 451.280632 260.835926 
L 454.673761 266.531703 
L 458.06689 263.845452 
L 461.460018 267.127622 
L 464.853147 266.006412 
L 468.246275 264.083804 
L 471.639404 265.346329 
L 475.032533 269.360871 
L 478.425661 267.22619 
L 481.81879 264.76606 
L 485.211919 266.840488 
L 488.605047 265.272316 
L 491.998176 268.460306 
L 495.391304 270.258299 
L 498.784433 264.764903 
L 502.177562 265.052304 
L 505.57069 267.783842 
L 508.963819 264.39579 
L 512.356947 267.986293 
L 515.750076 265.517957 
L 519.143205 273.239096 
L 522.536333 258.88936 
L 525.929462 268.094033 
L 529.32259 266.252873 
L 532.715719 267.511047 
L 536.108848 258.688422 
L 539.501976 270.58678 
L 542.895105 264.518788 
L 546.288234 269.420443 
L 549.681362 269.197502 
L 553.074491 272.200723 
L 556.467619 266.951277 
L 559.860748 270.578133 
L 563.253877 264.917988 
L 566.647005 270.36321 
L 570.040134 271.861593 
L 573.433262 267.171583 
L 576.826391 264.644724 
L 580.21952 268.048673 
L 583.612648 269.459942 
L 587.005777 266.549953 
L 590.398905 262.816764 
L 593.792034 261.342194 
L 597.185163 269.021158 
L 600.578291 267.562104 
L 603.97142 262.169438 
L 607.364548 259.262372 
L 610.757677 264.771828 
L 614.150806 266.757684 
L 617.543934 265.036791 
L 620.937063 273.149193 
L 624.330192 265.15379 
L 627.72332 268.034407 
L 631.116449 259.712604 
L 634.509577 268.62853 
L 637.902706 264.799067 
L 641.295835 268.670539 
L 644.688963 260.757085 
L 648.082092 267.142956 
L 651.47522 266.531301 
L 654.868349 268.794693 
L 658.261478 262.680315 
L 661.654606 263.431587 
L 665.047735 264.58886 
L 668.440863 263.408679 
L 671.833992 260.194436 
L 675.227121 265.340957 
L 678.620249 267.451938 
L 682.013378 269.798729 
L 685.406507 265.698983 
L 688.799635 265.36167 
L 692.192764 266.719764 
L 695.585892 272.225766 
L 698.979021 267.929577 
L 702.37215 267.134746 
L 705.765278 262.528099 
L 709.158407 266.986433 
L 712.551535 268.135349 
L 715.944664 269.42963 
L 719.337793 271.760024 
L 722.730921 267.40636 
L 726.12405 268.154193 
L 732.910307 270.304077 
L 736.303436 266.580003 
L 739.696564 265.89588 
L 743.089693 268.449446 
L 746.482822 260.049495 
L 749.87595 264.582135 
L 753.269079 266.974786 
L 756.662207 268.055244 
L 760.055336 260.002932 
L 763.448465 263.577216 
L 766.841593 265.105893 
L 770.234722 266.271613 
L 773.62785 263.43695 
L 777.020979 266.225916 
L 780.414108 260.497756 
L 783.807236 268.84146 
L 787.200365 264.23491 
L 790.593493 261.363842 
L 793.986622 265.933512 
L 797.379751 264.931445 
L 800.772879 271.529167 
L 804.166008 271.126619 
L 807.559137 267.002975 
L 810.952265 269.954046 
L 814.345394 264.212389 
L 817.738522 264.928006 
L 821.131651 265.178592 
L 827.917908 262.512449 
L 831.311037 264.768545 
L 834.704165 273.015867 
L 838.097294 265.357912 
L 841.490423 271.166558 
L 844.883551 261.398731 
L 848.27668 267.326146 
L 851.669808 263.987454 
L 855.062937 267.239401 
L 858.456066 265.013686 
L 861.849194 268.831898 
L 865.242323 269.015146 
L 868.635452 259.353052 
L 872.02858 273.433607 
L 875.421709 266.400733 
L 878.814837 267.222848 
L 882.207966 268.507064 
L 885.601095 263.391755 
L 888.994223 271.014794 
L 892.387352 263.078942 
L 895.78048 263.086297 
L 899.173609 269.005282 
L 902.566738 263.690645 
L 905.959866 267.227906 
L 909.352995 264.483385 
L 912.746123 270.367085 
L 916.139252 263.295785 
L 919.532381 267.866526 
L 922.925509 264.567766 
L 926.318638 267.523294 
L 929.711766 264.449364 
L 933.104895 269.171084 
L 936.498024 269.325632 
L 939.891152 268.126766 
L 943.284281 263.655264 
L 946.67741 268.866688 
L 950.070538 266.612045 
L 953.463667 265.950099 
L 956.856795 265.495522 
L 960.249924 267.883309 
L 963.643053 262.86266 
L 967.036181 267.624869 
L 970.42931 269.22481 
L 973.822438 265.470803 
L 977.215567 265.154729 
L 980.608696 265.462645 
L 984.001824 268.938362 
L 987.394953 268.704214 
L 990.788081 268.139397 
L 994.18121 268.550813 
L 997.574339 260.594568 
L 1000.967467 265.936416 
L 1004.360596 267.682857 
L 1007.753725 265.6405 
L 1011.146853 260.336861 
L 1014.539982 265.504793 
L 1017.93311 267.252287 
L 1024.719368 265.658647 
L 1028.112496 266.541687 
L 1031.505625 262.360132 
L 1034.898753 268.58122 
L 1038.291882 265.745882 
L 1041.685011 269.777421 
L 1045.078139 268.166662 
L 1048.471268 272.768384 
L 1051.864396 266.830409 
L 1055.257525 265.328055 
L 1058.650654 262.735389 
L 1062.043782 268.3655 
L 1065.436911 263.826399 
L 1068.83004 257.712746 
L 1072.223168 261.016842 
L 1075.616297 267.125933 
L 1079.009425 266.296339 
L 1082.402554 267.383885 
L 1085.795683 266.362159 
L 1089.188811 266.645328 
L 1092.58194 272.2345 
L 1095.975068 267.057519 
L 1099.368197 268.146051 
L 1102.761326 267.964481 
L 1106.154454 264.975437 
L 1109.547583 272.575142 
L 1112.940711 272.841422 
L 1116.33384 268.904894 
L 1119.726969 267.314649 
L 1123.120097 267.051644 
L 1126.513226 263.239131 
L 1129.906355 264.973417 
L 1133.299483 267.943673 
L 1136.692612 271.908507 
L 1140.08574 265.1508 
L 1143.478869 271.098349 
L 1146.871998 266.284014 
L 1150.265126 266.016539 
L 1153.658255 270.255821 
L 1157.051383 273.02801 
L 1160.444512 269.343412 
L 1163.837641 261.680037 
L 1167.230769 269.836066 
L 1170.623898 275.653006 
L 1174.017026 267.987925 
L 1177.410155 267.062377 
L 1180.803284 268.44985 
L 1184.196412 268.549508 
L 1187.589541 265.418317 
L 1190.98267 268.20758 
L 1194.375798 256.33747 
L 1197.768927 268.370844 
L 1201.162055 265.198262 
L 1204.555184 265.496505 
L 1207.948313 269.23871 
L 1211.341441 267.733904 
L 1214.73457 265.795609 
L 1218.127698 266.659026 
L 1221.520827 272.739681 
L 1224.913956 267.453148 
L 1228.307084 256.775413 
L 1231.700213 264.112449 
L 1235.093341 263.745922 
L 1238.48647 267.146983 
L 1241.879599 266.97525 
L 1245.272727 268.443249 
L 1245.272727 268.443249 
" style="fill:none;stroke:#000000;stroke-linecap:square;stroke-width:1.5;"/>
   </g>
   <g id="patch_3">
    <path d="M 180 756 
L 180 103.68 
" style="fill:none;stroke:#000000;stroke-linecap:square;stroke-linejoin:miter;stroke-width:0.8;"/>
   </g>
   <g id="patch_4">
    <path d="M 1296 756 
L 1296 103.68 
" style="fill:none;stroke:#000000;stroke-linecap:square;stroke-linejoin:miter;stroke-width:0.8;"/>
   </g>
   <g id="patch_5">
    <path d="M 180 756 
L 1296 756 
" style="fill:none;stroke:#000000;stroke-linecap:square;stroke-linejoin:miter;stroke-width:0.8;"/>
   </g>
   <g id="patch_6">
    <path d="M 180 103.68 
L 1296 103.68 
" style="fill:none;stroke:#000000;stroke-linecap:square;stroke-linejoin:miter;stroke-width:0.8;"/>
   </g>
   <g id="text_18">
    <!-- Matrix Copy Task learning curves -->
    <g transform="translate(638.894063 97.68)scale(0.12 -0.12)">
     <defs>
      <path d="M 9.8125 72.90625 
L 24.515625 72.90625 
L 43.109375 23.296875 
L 61.8125 72.90625 
L 76.515625 72.90625 
L 76.515625 0 
L 66.890625 0 
L 66.890625 64.015625 
L 48.09375 14.015625 
L 38.1875 14.015625 
L 19.390625 64.015625 
L 19.390625 0 
L 9.8125 0 
z
" id="DejaVuSans-77"/>
      <path d="M 54.890625 54.6875 
L 35.109375 28.078125 
L 55.90625 0 
L 45.3125 0 
L 29.390625 21.484375 
L 13.484375 0 
L 2.875 0 
L 24.125 28.609375 
L 4.6875 54.6875 
L 15.28125 54.6875 
L 29.78125 35.203125 
L 44.28125 54.6875 
z
" id="DejaVuSans-120"/>
      <path d="M 64.40625 67.28125 
L 64.40625 56.890625 
Q 59.421875 61.53125 53.78125 63.8125 
Q 48.140625 66.109375 41.796875 66.109375 
Q 29.296875 66.109375 22.65625 58.46875 
Q 16.015625 50.828125 16.015625 36.375 
Q 16.015625 21.96875 22.65625 14.328125 
Q 29.296875 6.6875 41.796875 6.6875 
Q 48.140625 6.6875 53.78125 8.984375 
Q 59.421875 11.28125 64.40625 15.921875 
L 64.40625 5.609375 
Q 59.234375 2.09375 53.4375 0.328125 
Q 47.65625 -1.421875 41.21875 -1.421875 
Q 24.65625 -1.421875 15.125 8.703125 
Q 5.609375 18.84375 5.609375 36.375 
Q 5.609375 53.953125 15.125 64.078125 
Q 24.65625 74.21875 41.21875 74.21875 
Q 47.75 74.21875 53.53125 72.484375 
Q 59.328125 70.75 64.40625 67.28125 
z
" id="DejaVuSans-67"/>
      <path d="M 32.171875 -5.078125 
Q 28.375 -14.84375 24.75 -17.8125 
Q 21.140625 -20.796875 15.09375 -20.796875 
L 7.90625 -20.796875 
L 7.90625 -13.28125 
L 13.1875 -13.28125 
Q 16.890625 -13.28125 18.9375 -11.515625 
Q 21 -9.765625 23.484375 -3.21875 
L 25.09375 0.875 
L 2.984375 54.6875 
L 12.5 54.6875 
L 29.59375 11.921875 
L 46.6875 54.6875 
L 56.203125 54.6875 
z
" id="DejaVuSans-121"/>
      <path d="M -0.296875 72.90625 
L 61.375 72.90625 
L 61.375 64.59375 
L 35.5 64.59375 
L 35.5 0 
L 25.59375 0 
L 25.59375 64.59375 
L -0.296875 64.59375 
z
" id="DejaVuSans-84"/>
      <path d="M 9.078125 75.984375 
L 18.109375 75.984375 
L 18.109375 31.109375 
L 44.921875 54.6875 
L 56.390625 54.6875 
L 27.390625 29.109375 
L 57.625 0 
L 45.90625 0 
L 18.109375 26.703125 
L 18.109375 0 
L 9.078125 0 
z
" id="DejaVuSans-107"/>
      <path d="M 9.421875 75.984375 
L 18.40625 75.984375 
L 18.40625 0 
L 9.421875 0 
z
" id="DejaVuSans-108"/>
      <path d="M 45.40625 27.984375 
Q 45.40625 37.75 41.375 43.109375 
Q 37.359375 48.484375 30.078125 48.484375 
Q 22.859375 48.484375 18.828125 43.109375 
Q 14.796875 37.75 14.796875 27.984375 
Q 14.796875 18.265625 18.828125 12.890625 
Q 22.859375 7.515625 30.078125 7.515625 
Q 37.359375 7.515625 41.375 12.890625 
Q 45.40625 18.265625 45.40625 27.984375 
z
M 54.390625 6.78125 
Q 54.390625 -7.171875 48.1875 -13.984375 
Q 42 -20.796875 29.203125 -20.796875 
Q 24.46875 -20.796875 20.265625 -20.09375 
Q 16.0625 -19.390625 12.109375 -17.921875 
L 12.109375 -9.1875 
Q 16.0625 -11.328125 19.921875 -12.34375 
Q 23.78125 -13.375 27.78125 -13.375 
Q 36.625 -13.375 41.015625 -8.765625 
Q 45.40625 -4.15625 45.40625 5.171875 
L 45.40625 9.625 
Q 42.625 4.78125 38.28125 2.390625 
Q 33.9375 0 27.875 0 
Q 17.828125 0 11.671875 7.65625 
Q 5.515625 15.328125 5.515625 27.984375 
Q 5.515625 40.671875 11.671875 48.328125 
Q 17.828125 56 27.875 56 
Q 33.9375 56 38.28125 53.609375 
Q 42.625 51.21875 45.40625 46.390625 
L 45.40625 54.6875 
L 54.390625 54.6875 
z
" id="DejaVuSans-103"/>
      <path d="M 2.984375 54.6875 
L 12.5 54.6875 
L 29.59375 8.796875 
L 46.6875 54.6875 
L 56.203125 54.6875 
L 35.6875 0 
L 23.484375 0 
z
" id="DejaVuSans-118"/>
     </defs>
     <use xlink:href="#DejaVuSans-77"/>
     <use x="86.279297" xlink:href="#DejaVuSans-97"/>
     <use x="147.558594" xlink:href="#DejaVuSans-116"/>
     <use x="186.767578" xlink:href="#DejaVuSans-114"/>
     <use x="227.880859" xlink:href="#DejaVuSans-105"/>
     <use x="255.664062" xlink:href="#DejaVuSans-120"/>
     <use x="314.84375" xlink:href="#DejaVuSans-32"/>
     <use x="346.630859" xlink:href="#DejaVuSans-67"/>
     <use x="416.455078" xlink:href="#DejaVuSans-111"/>
     <use x="477.636719" xlink:href="#DejaVuSans-112"/>
     <use x="541.113281" xlink:href="#DejaVuSans-121"/>
     <use x="600.292969" xlink:href="#DejaVuSans-32"/>
     <use x="632.080078" xlink:href="#DejaVuSans-84"/>
     <use x="676.664062" xlink:href="#DejaVuSans-97"/>
     <use x="737.943359" xlink:href="#DejaVuSans-115"/>
     <use x="790.042969" xlink:href="#DejaVuSans-107"/>
     <use x="847.953125" xlink:href="#DejaVuSans-32"/>
     <use x="879.740234" xlink:href="#DejaVuSans-108"/>
     <use x="907.523438" xlink:href="#DejaVuSans-101"/>
     <use x="969.046875" xlink:href="#DejaVuSans-97"/>
     <use x="1030.326172" xlink:href="#DejaVuSans-114"/>
     <use x="1069.689453" xlink:href="#DejaVuSans-110"/>
     <use x="1133.068359" xlink:href="#DejaVuSans-105"/>
     <use x="1160.851562" xlink:href="#DejaVuSans-110"/>
     <use x="1224.230469" xlink:href="#DejaVuSans-103"/>
     <use x="1287.707031" xlink:href="#DejaVuSans-32"/>
     <use x="1319.494141" xlink:href="#DejaVuSans-99"/>
     <use x="1374.474609" xlink:href="#DejaVuSans-117"/>
     <use x="1437.853516" xlink:href="#DejaVuSans-114"/>
     <use x="1478.966797" xlink:href="#DejaVuSans-118"/>
     <use x="1538.146484" xlink:href="#DejaVuSans-101"/>
     <use x="1599.669922" xlink:href="#DejaVuSans-115"/>
    </g>
   </g>
  </g>
 </g>
 <defs>
  <clipPath id="p921b7a41a6">
   <rect height="652.32" width="1116" x="180" y="103.68"/>
  </clipPath>
 </defs>
</svg>
