<?xml version="1.0" encoding="utf-8" standalone="no"?>
<!DOCTYPE svg PUBLIC "-//W3C//DTD SVG 1.1//EN"
  "http://www.w3.org/Graphics/SVG/1.1/DTD/svg11.dtd">
<!-- Created with matplotlib (https://matplotlib.org/) -->
<svg height="864pt" version="1.1" viewBox="0 0 1440 864" width="1440pt" xmlns="http://www.w3.org/2000/svg" xmlns:xlink="http://www.w3.org/1999/xlink">
 <metadata>
  <rdf:RDF xmlns:cc="http://creativecommons.org/ns#" xmlns:dc="http://purl.org/dc/elements/1.1/" xmlns:rdf="http://www.w3.org/1999/02/22-rdf-syntax-ns#">
   <cc:Work>
    <dc:type rdf:resource="http://purl.org/dc/dcmitype/StillImage"/>
    <dc:date>2020-12-24T05:00:17.336592</dc:date>
    <dc:format>image/svg+xml</dc:format>
    <dc:creator>
     <cc:Agent>
      <dc:title>Matplotlib v3.3.1, https://matplotlib.org/</dc:title>
     </cc:Agent>
    </dc:creator>
   </cc:Work>
  </rdf:RDF>
 </metadata>
 <defs>
  <style type="text/css">*{stroke-linecap:butt;stroke-linejoin:round;}</style>
 </defs>
 <g id="figure_1">
  <g id="patch_1">
   <path d="M 0 864 
L 1440 864 
L 1440 0 
L 0 0 
z
" style="fill:none;"/>
  </g>
  <g id="axes_1">
   <g id="patch_2">
    <path d="M 180 756 
L 1296 756 
L 1296 103.68 
L 180 103.68 
z
" style="fill:#ffffff;"/>
   </g>
   <g id="PolyCollection_1">
    <path clip-path="url(#pfac19155d1)" d="M 230.727273 271.283022 
L 230.727273 271.283022 
L 234.120401 265.610834 
L 237.51353 276.625119 
L 240.906659 256.693167 
L 244.299787 257.530478 
L 247.692916 238.713486 
L 251.086044 249.043429 
L 254.479173 253.016712 
L 257.872302 256.840184 
L 261.26543 251.890356 
L 264.658559 240.882326 
L 268.051687 255.99448 
L 271.444816 247.722214 
L 274.837945 258.968073 
L 278.231073 250.111671 
L 281.624202 251.620243 
L 285.01733 252.03388 
L 288.410459 253.542567 
L 291.803588 265.728981 
L 295.196716 244.302854 
L 298.589845 249.855434 
L 301.982974 255.490531 
L 305.376102 262.849403 
L 308.769231 253.048174 
L 312.162359 250.179211 
L 315.555488 259.421381 
L 318.948617 259.632763 
L 322.341745 244.98003 
L 325.734874 254.485255 
L 329.128002 251.722394 
L 332.521131 244.348785 
L 335.91426 258.369248 
L 339.307388 247.897735 
L 342.700517 258.427625 
L 346.093645 256.014442 
L 349.486774 258.815195 
L 352.879903 249.908719 
L 356.273031 246.365065 
L 359.66616 248.070081 
L 363.059289 256.912806 
L 366.452417 251.043492 
L 369.845546 259.870885 
L 373.238674 253.493213 
L 376.631803 258.145132 
L 380.024932 248.84838 
L 383.41806 256.13554 
L 386.811189 255.99247 
L 390.204317 253.447983 
L 393.597446 252.645767 
L 396.990575 246.012244 
L 400.383703 255.642705 
L 403.776832 263.894248 
L 407.16996 272.039036 
L 410.563089 247.172769 
L 413.956218 258.147464 
L 417.349346 247.889948 
L 420.742475 257.203726 
L 424.135604 268.320542 
L 427.528732 258.611469 
L 430.921861 253.806916 
L 434.314989 266.279618 
L 437.708118 256.213855 
L 441.101247 266.726109 
L 444.494375 250.034492 
L 447.887504 251.986763 
L 451.280632 249.668159 
L 454.673761 243.762154 
L 458.06689 243.96948 
L 461.460018 255.324316 
L 464.853147 251.106323 
L 468.246275 249.043613 
L 471.639404 258.709558 
L 475.032533 268.279174 
L 478.425661 244.454321 
L 481.81879 253.91176 
L 485.211919 244.865522 
L 488.605047 251.928739 
L 491.998176 258.628643 
L 495.391304 253.74959 
L 498.784433 263.871271 
L 502.177562 244.804164 
L 505.57069 254.133079 
L 508.963819 248.037643 
L 512.356947 249.485034 
L 515.750076 247.97103 
L 519.143205 257.768326 
L 522.536333 251.231355 
L 525.929462 254.717042 
L 529.32259 250.821615 
L 532.715719 254.484191 
L 536.108848 261.220273 
L 539.501976 259.909884 
L 542.895105 262.699688 
L 546.288234 258.508596 
L 549.681362 264.766281 
L 553.074491 258.244561 
L 556.467619 246.991479 
L 559.860748 259.843478 
L 563.253877 249.632226 
L 566.647005 254.253374 
L 570.040134 251.722912 
L 573.433262 240.579378 
L 576.826391 263.458824 
L 580.21952 252.406785 
L 583.612648 257.301314 
L 587.005777 253.039341 
L 590.398905 248.62532 
L 593.792034 256.904689 
L 597.185163 258.809946 
L 600.578291 256.187472 
L 603.97142 256.204509 
L 607.364548 249.917354 
L 610.757677 253.163695 
L 614.150806 258.144673 
L 617.543934 254.476781 
L 620.937063 245.409329 
L 624.330192 252.097307 
L 627.72332 250.759401 
L 631.116449 265.409514 
L 634.509577 263.625077 
L 637.902706 259.652858 
L 641.295835 247.209857 
L 644.688963 264.684286 
L 648.082092 242.679739 
L 651.47522 254.957792 
L 654.868349 270.620734 
L 658.261478 255.204666 
L 661.654606 257.251979 
L 665.047735 248.58999 
L 668.440863 257.621738 
L 671.833992 248.78146 
L 675.227121 255.492092 
L 678.620249 266.085718 
L 682.013378 250.279409 
L 685.406507 255.541396 
L 688.799635 259.422678 
L 692.192764 258.121968 
L 695.585892 249.58482 
L 698.979021 261.926095 
L 702.37215 251.920587 
L 705.765278 250.666614 
L 709.158407 255.298037 
L 712.551535 259.245727 
L 715.944664 254.952475 
L 719.337793 258.631695 
L 722.730921 265.260478 
L 726.12405 249.28516 
L 729.517178 259.942309 
L 732.910307 255.965521 
L 736.303436 268.361336 
L 739.696564 253.668745 
L 743.089693 260.81895 
L 746.482822 253.987563 
L 749.87595 254.988979 
L 753.269079 255.10334 
L 756.662207 259.99458 
L 760.055336 256.610059 
L 763.448465 250.707281 
L 766.841593 252.976203 
L 770.234722 260.825486 
L 773.62785 238.647099 
L 777.020979 248.192975 
L 780.414108 250.057597 
L 783.807236 263.747598 
L 787.200365 250.482913 
L 790.593493 256.089631 
L 793.986622 251.841862 
L 797.379751 256.006464 
L 800.772879 252.036893 
L 804.166008 260.938474 
L 807.559137 251.618138 
L 810.952265 254.286165 
L 814.345394 251.945166 
L 817.738522 261.943126 
L 821.131651 253.452746 
L 824.52478 259.716269 
L 827.917908 240.102068 
L 831.311037 262.642141 
L 834.704165 256.504943 
L 838.097294 255.09735 
L 841.490423 256.537495 
L 844.883551 254.022908 
L 848.27668 268.443368 
L 851.669808 262.504734 
L 855.062937 255.260381 
L 858.456066 256.893217 
L 861.849194 260.200605 
L 865.242323 254.15931 
L 868.635452 247.074976 
L 872.02858 259.093288 
L 875.421709 251.940299 
L 878.814837 258.276805 
L 882.207966 260.700008 
L 885.601095 253.879526 
L 888.994223 239.448991 
L 892.387352 245.385638 
L 895.78048 256.169282 
L 899.173609 260.174006 
L 902.566738 256.129715 
L 905.959866 253.006638 
L 909.352995 246.839649 
L 912.746123 256.310364 
L 916.139252 254.674277 
L 919.532381 256.061165 
L 922.925509 260.023635 
L 926.318638 256.309916 
L 929.711766 251.931534 
L 933.104895 262.688558 
L 936.498024 254.390816 
L 939.891152 246.850433 
L 943.284281 245.843653 
L 946.67741 258.560553 
L 950.070538 259.676897 
L 953.463667 244.211715 
L 956.856795 254.751872 
L 960.249924 247.936038 
L 963.643053 247.859886 
L 967.036181 266.077544 
L 970.42931 255.164765 
L 973.822438 263.399421 
L 977.215567 249.950039 
L 980.608696 254.205717 
L 984.001824 259.443281 
L 987.394953 259.737987 
L 990.788081 246.100685 
L 994.18121 246.525994 
L 997.574339 252.05063 
L 1000.967467 256.973054 
L 1004.360596 268.560286 
L 1007.753725 252.998345 
L 1011.146853 261.265245 
L 1014.539982 246.008736 
L 1017.93311 249.832083 
L 1021.326239 263.287742 
L 1024.719368 264.28876 
L 1028.112496 253.705314 
L 1031.505625 248.646167 
L 1034.898753 254.223087 
L 1038.291882 252.477789 
L 1041.685011 253.173389 
L 1045.078139 258.762249 
L 1048.471268 253.652742 
L 1051.864396 259.49579 
L 1055.257525 247.684312 
L 1058.650654 248.451758 
L 1062.043782 256.446305 
L 1065.436911 249.461336 
L 1068.83004 249.447122 
L 1072.223168 247.62739 
L 1075.616297 252.765773 
L 1079.009425 255.859671 
L 1082.402554 253.924597 
L 1085.795683 264.369526 
L 1089.188811 256.748756 
L 1092.58194 248.947468 
L 1095.975068 243.84742 
L 1099.368197 255.941708 
L 1102.761326 259.01357 
L 1106.154454 264.569478 
L 1109.547583 270.377858 
L 1112.940711 258.907339 
L 1116.33384 242.99353 
L 1119.726969 257.012287 
L 1123.120097 250.340686 
L 1126.513226 254.207753 
L 1129.906355 246.46213 
L 1133.299483 254.515746 
L 1136.692612 257.510707 
L 1140.08574 255.58162 
L 1143.478869 266.471054 
L 1146.871998 244.059869 
L 1150.265126 259.125183 
L 1153.658255 258.839804 
L 1157.051383 260.922419 
L 1160.444512 252.280085 
L 1163.837641 266.877933 
L 1167.230769 250.999005 
L 1170.623898 255.220976 
L 1174.017026 252.95387 
L 1177.410155 261.545279 
L 1180.803284 245.73698 
L 1184.196412 247.186885 
L 1187.589541 259.383896 
L 1190.98267 257.209995 
L 1194.375798 246.413416 
L 1197.768927 254.611019 
L 1201.162055 253.397963 
L 1204.555184 250.503279 
L 1207.948313 265.442215 
L 1211.341441 246.250874 
L 1214.73457 258.935057 
L 1218.127698 242.749085 
L 1221.520827 248.446437 
L 1224.913956 257.649456 
L 1228.307084 257.809181 
L 1231.700213 251.671941 
L 1235.093341 259.560597 
L 1238.48647 252.837305 
L 1241.879599 251.485572 
L 1245.272727 253.475813 
L 1245.272727 253.475813 
L 1245.272727 284.121187 
L 1241.879599 283.248511 
L 1238.48647 290.608791 
L 1235.093341 282.191973 
L 1231.700213 273.400899 
L 1228.307084 274.583972 
L 1224.913956 273.444958 
L 1221.520827 274.072806 
L 1218.127698 275.320268 
L 1214.73457 276.400506 
L 1211.341441 288.788596 
L 1207.948313 278.336052 
L 1204.555184 275.822126 
L 1201.162055 285.547362 
L 1197.768927 285.611515 
L 1194.375798 271.07288 
L 1190.98267 281.60914 
L 1187.589541 270.598754 
L 1184.196412 274.027031 
L 1180.803284 279.274215 
L 1177.410155 281.093579 
L 1174.017026 275.058914 
L 1170.623898 282.351585 
L 1167.230769 282.345405 
L 1163.837641 284.791405 
L 1160.444512 269.498066 
L 1157.051383 278.952244 
L 1153.658255 286.362487 
L 1150.265126 283.75452 
L 1146.871998 263.0533 
L 1143.478869 281.572438 
L 1140.08574 278.186532 
L 1136.692612 277.710156 
L 1133.299483 275.191371 
L 1129.906355 280.107509 
L 1126.513226 268.449525 
L 1123.120097 278.386291 
L 1119.726969 286.161246 
L 1116.33384 284.164616 
L 1112.940711 272.011795 
L 1109.547583 281.051264 
L 1106.154454 276.319583 
L 1102.761326 273.458015 
L 1099.368197 277.46569 
L 1095.975068 278.497418 
L 1092.58194 274.239489 
L 1089.188811 278.370284 
L 1085.795683 289.249472 
L 1082.402554 268.297193 
L 1079.009425 278.826872 
L 1075.616297 276.199657 
L 1072.223168 274.964986 
L 1068.83004 283.777511 
L 1065.436911 273.237196 
L 1062.043782 276.090283 
L 1058.650654 282.846985 
L 1055.257525 283.68846 
L 1051.864396 279.545861 
L 1048.471268 272.955057 
L 1045.078139 277.918848 
L 1041.685011 278.747286 
L 1038.291882 276.349663 
L 1034.898753 279.208908 
L 1031.505625 276.324084 
L 1028.112496 278.890922 
L 1024.719368 283.936828 
L 1021.326239 279.913348 
L 1017.93311 278.216092 
L 1014.539982 278.242975 
L 1011.146853 275.337583 
L 1007.753725 269.142949 
L 1004.360596 279.460148 
L 1000.967467 270.522191 
L 997.574339 273.148276 
L 994.18121 273.827204 
L 990.788081 285.477545 
L 987.394953 279.122402 
L 984.001824 281.443478 
L 980.608696 284.570419 
L 977.215567 275.06195 
L 973.822438 276.505563 
L 970.42931 268.46911 
L 967.036181 280.133934 
L 963.643053 263.761565 
L 960.249924 283.638962 
L 956.856795 281.587828 
L 953.463667 282.001326 
L 950.070538 279.628336 
L 946.67741 280.022076 
L 943.284281 273.383251 
L 939.891152 273.923305 
L 936.498024 267.751438 
L 933.104895 275.214609 
L 929.711766 276.718097 
L 926.318638 272.018187 
L 922.925509 279.47059 
L 919.532381 286.437576 
L 916.139252 271.631385 
L 912.746123 276.465037 
L 909.352995 273.902524 
L 905.959866 287.288986 
L 902.566738 270.594193 
L 899.173609 269.960262 
L 895.78048 281.401667 
L 892.387352 281.461346 
L 888.994223 282.990162 
L 885.601095 277.369775 
L 882.207966 280.574688 
L 878.814837 273.54958 
L 875.421709 274.137488 
L 872.02858 280.533668 
L 868.635452 280.61355 
L 865.242323 277.241814 
L 861.849194 272.29855 
L 858.456066 288.312201 
L 855.062937 273.64053 
L 851.669808 284.922722 
L 848.27668 283.400484 
L 844.883551 286.257067 
L 841.490423 280.608829 
L 838.097294 275.778778 
L 834.704165 269.703205 
L 831.311037 297.071006 
L 827.917908 273.101559 
L 824.52478 269.680144 
L 821.131651 270.554702 
L 817.738522 280.343452 
L 814.345394 270.998802 
L 810.952265 283.542101 
L 807.559137 266.296931 
L 804.166008 275.863302 
L 800.772879 269.861771 
L 797.379751 285.745043 
L 793.986622 272.332913 
L 790.593493 275.615381 
L 787.200365 292.130266 
L 783.807236 285.917947 
L 780.414108 275.804481 
L 777.020979 275.782497 
L 773.62785 268.19833 
L 770.234722 275.504679 
L 766.841593 283.315285 
L 763.448465 291.080251 
L 760.055336 279.276973 
L 756.662207 279.234034 
L 753.269079 263.682428 
L 749.87595 274.216944 
L 746.482822 277.47093 
L 743.089693 289.503428 
L 739.696564 280.443833 
L 736.303436 287.671011 
L 732.910307 279.360742 
L 729.517178 278.981841 
L 726.12405 274.91234 
L 722.730921 274.005208 
L 719.337793 282.617336 
L 715.944664 273.729127 
L 712.551535 275.495957 
L 709.158407 299.015221 
L 705.765278 268.714414 
L 702.37215 286.213335 
L 698.979021 280.072816 
L 695.585892 264.676252 
L 692.192764 276.759129 
L 688.799635 276.339732 
L 685.406507 276.718873 
L 682.013378 287.519861 
L 678.620249 281.320524 
L 675.227121 275.645611 
L 671.833992 283.614625 
L 668.440863 284.734398 
L 665.047735 281.110986 
L 661.654606 279.354114 
L 658.261478 265.341857 
L 654.868349 293.433498 
L 651.47522 280.659062 
L 648.082092 276.454059 
L 644.688963 279.054325 
L 641.295835 270.674779 
L 637.902706 283.936063 
L 634.509577 282.136996 
L 631.116449 282.564283 
L 627.72332 273.706087 
L 624.330192 282.860898 
L 620.937063 278.014576 
L 617.543934 280.052948 
L 614.150806 283.412745 
L 610.757677 279.044403 
L 607.364548 273.656278 
L 603.97142 280.540563 
L 600.578291 286.170232 
L 597.185163 283.266571 
L 593.792034 280.427607 
L 590.398905 273.277463 
L 587.005777 292.451727 
L 583.612648 271.25845 
L 580.21952 268.008386 
L 576.826391 276.842386 
L 573.433262 266.295601 
L 570.040134 273.201179 
L 566.647005 273.352093 
L 563.253877 288.077958 
L 559.860748 277.154627 
L 556.467619 272.340913 
L 553.074491 278.071446 
L 549.681362 288.297501 
L 546.288234 286.127028 
L 542.895105 287.744268 
L 539.501976 280.755773 
L 536.108848 279.967509 
L 532.715719 278.005994 
L 529.32259 274.511822 
L 525.929462 274.646246 
L 522.536333 273.886728 
L 519.143205 277.770764 
L 515.750076 273.071039 
L 512.356947 273.55466 
L 508.963819 286.07566 
L 505.57069 272.8052 
L 502.177562 277.48938 
L 498.784433 283.17846 
L 495.391304 289.937513 
L 491.998176 268.746994 
L 488.605047 277.400064 
L 485.211919 279.93264 
L 481.81879 283.65901 
L 478.425661 264.663592 
L 475.032533 278.975973 
L 471.639404 272.592381 
L 468.246275 265.207975 
L 464.853147 287.344799 
L 461.460018 278.779056 
L 458.06689 270.895302 
L 454.673761 281.597956 
L 451.280632 270.629133 
L 447.887504 278.308005 
L 444.494375 279.406379 
L 441.101247 285.945221 
L 437.708118 268.917129 
L 434.314989 276.054111 
L 430.921861 268.58852 
L 427.528732 282.593543 
L 424.135604 288.37273 
L 420.742475 266.856051 
L 417.349346 287.352324 
L 413.956218 275.031537 
L 410.563089 275.712679 
L 407.16996 291.658125 
L 403.776832 282.315823 
L 400.383703 280.39577 
L 396.990575 273.440762 
L 393.597446 269.629447 
L 390.204317 271.622827 
L 386.811189 273.284046 
L 383.41806 286.49817 
L 380.024932 281.432527 
L 376.631803 276.829824 
L 373.238674 280.037937 
L 369.845546 278.444604 
L 366.452417 267.785904 
L 363.059289 273.416214 
L 359.66616 267.38783 
L 356.273031 285.348264 
L 352.879903 281.7133 
L 349.486774 282.509064 
L 346.093645 281.028201 
L 342.700517 277.929804 
L 339.307388 272.733369 
L 335.91426 281.368278 
L 332.521131 286.564167 
L 329.128002 283.06826 
L 325.734874 295.753045 
L 322.341745 269.17293 
L 318.948617 277.876192 
L 315.555488 279.797173 
L 312.162359 278.040948 
L 308.769231 287.40136 
L 305.376102 280.593292 
L 301.982974 283.778268 
L 298.589845 279.886548 
L 295.196716 276.429762 
L 291.803588 291.168868 
L 288.410459 272.897268 
L 285.01733 272.209386 
L 281.624202 261.717827 
L 278.231073 271.693355 
L 274.837945 284.41458 
L 271.444816 272.813703 
L 268.051687 272.460856 
L 264.658559 269.933109 
L 261.26543 277.292575 
L 257.872302 271.933815 
L 254.479173 273.736173 
L 251.086044 269.57561 
L 247.692916 280.311174 
L 244.299787 275.4387 
L 240.906659 284.106079 
L 237.51353 285.305838 
L 234.120401 268.343808 
L 230.727273 285.883578 
z
" style="fill:#1f77b4;fill-opacity:0.4;"/>
   </g>
   <g id="matplotlib.axis_1">
    <g id="xtick_1">
     <g id="line2d_1">
      <path clip-path="url(#pfac19155d1)" d="M 230.727273 756 
L 230.727273 103.68 
" style="fill:none;stroke:#b0b0b0;stroke-linecap:square;stroke-width:0.8;"/>
     </g>
     <g id="line2d_2">
      <defs>
       <path d="M 0 0 
L 0 3.5 
" id="mb35b2b2a28" style="stroke:#000000;stroke-width:0.8;"/>
      </defs>
      <g>
       <use style="stroke:#000000;stroke-width:0.8;" x="230.727273" xlink:href="#mb35b2b2a28" y="756"/>
      </g>
     </g>
     <g id="text_1">
      <!-- 0 -->
      <g transform="translate(223.092273 781.23625)scale(0.24 -0.24)">
       <defs>
        <path d="M 31.78125 66.40625 
Q 24.171875 66.40625 20.328125 58.90625 
Q 16.5 51.421875 16.5 36.375 
Q 16.5 21.390625 20.328125 13.890625 
Q 24.171875 6.390625 31.78125 6.390625 
Q 39.453125 6.390625 43.28125 13.890625 
Q 47.125 21.390625 47.125 36.375 
Q 47.125 51.421875 43.28125 58.90625 
Q 39.453125 66.40625 31.78125 66.40625 
z
M 31.78125 74.21875 
Q 44.046875 74.21875 50.515625 64.515625 
Q 56.984375 54.828125 56.984375 36.375 
Q 56.984375 17.96875 50.515625 8.265625 
Q 44.046875 -1.421875 31.78125 -1.421875 
Q 19.53125 -1.421875 13.0625 8.265625 
Q 6.59375 17.96875 6.59375 36.375 
Q 6.59375 54.828125 13.0625 64.515625 
Q 19.53125 74.21875 31.78125 74.21875 
z
" id="DejaVuSans-48"/>
       </defs>
       <use xlink:href="#DejaVuSans-48"/>
      </g>
     </g>
    </g>
    <g id="xtick_2">
     <g id="line2d_3">
      <path clip-path="url(#pfac19155d1)" d="M 357.546089 756 
L 357.546089 103.68 
" style="fill:none;stroke:#b0b0b0;stroke-linecap:square;stroke-width:0.8;"/>
     </g>
     <g id="line2d_4">
      <g>
       <use style="stroke:#000000;stroke-width:0.8;" x="357.546089" xlink:href="#mb35b2b2a28" y="756"/>
      </g>
     </g>
     <g id="text_2">
      <!-- 25000 -->
      <g transform="translate(319.371089 781.23625)scale(0.24 -0.24)">
       <defs>
        <path d="M 19.1875 8.296875 
L 53.609375 8.296875 
L 53.609375 0 
L 7.328125 0 
L 7.328125 8.296875 
Q 12.9375 14.109375 22.625 23.890625 
Q 32.328125 33.6875 34.8125 36.53125 
Q 39.546875 41.84375 41.421875 45.53125 
Q 43.3125 49.21875 43.3125 52.78125 
Q 43.3125 58.59375 39.234375 62.25 
Q 35.15625 65.921875 28.609375 65.921875 
Q 23.96875 65.921875 18.8125 64.3125 
Q 13.671875 62.703125 7.8125 59.421875 
L 7.8125 69.390625 
Q 13.765625 71.78125 18.9375 73 
Q 24.125 74.21875 28.421875 74.21875 
Q 39.75 74.21875 46.484375 68.546875 
Q 53.21875 62.890625 53.21875 53.421875 
Q 53.21875 48.921875 51.53125 44.890625 
Q 49.859375 40.875 45.40625 35.40625 
Q 44.1875 33.984375 37.640625 27.21875 
Q 31.109375 20.453125 19.1875 8.296875 
z
" id="DejaVuSans-50"/>
        <path d="M 10.796875 72.90625 
L 49.515625 72.90625 
L 49.515625 64.59375 
L 19.828125 64.59375 
L 19.828125 46.734375 
Q 21.96875 47.46875 24.109375 47.828125 
Q 26.265625 48.1875 28.421875 48.1875 
Q 40.625 48.1875 47.75 41.5 
Q 54.890625 34.8125 54.890625 23.390625 
Q 54.890625 11.625 47.5625 5.09375 
Q 40.234375 -1.421875 26.90625 -1.421875 
Q 22.3125 -1.421875 17.546875 -0.640625 
Q 12.796875 0.140625 7.71875 1.703125 
L 7.71875 11.625 
Q 12.109375 9.234375 16.796875 8.0625 
Q 21.484375 6.890625 26.703125 6.890625 
Q 35.15625 6.890625 40.078125 11.328125 
Q 45.015625 15.765625 45.015625 23.390625 
Q 45.015625 31 40.078125 35.4375 
Q 35.15625 39.890625 26.703125 39.890625 
Q 22.75 39.890625 18.8125 39.015625 
Q 14.890625 38.140625 10.796875 36.28125 
z
" id="DejaVuSans-53"/>
       </defs>
       <use xlink:href="#DejaVuSans-50"/>
       <use x="63.623047" xlink:href="#DejaVuSans-53"/>
       <use x="127.246094" xlink:href="#DejaVuSans-48"/>
       <use x="190.869141" xlink:href="#DejaVuSans-48"/>
       <use x="254.492188" xlink:href="#DejaVuSans-48"/>
      </g>
     </g>
    </g>
    <g id="xtick_3">
     <g id="line2d_5">
      <path clip-path="url(#pfac19155d1)" d="M 484.364905 756 
L 484.364905 103.68 
" style="fill:none;stroke:#b0b0b0;stroke-linecap:square;stroke-width:0.8;"/>
     </g>
     <g id="line2d_6">
      <g>
       <use style="stroke:#000000;stroke-width:0.8;" x="484.364905" xlink:href="#mb35b2b2a28" y="756"/>
      </g>
     </g>
     <g id="text_3">
      <!-- 50000 -->
      <g transform="translate(446.189905 781.23625)scale(0.24 -0.24)">
       <use xlink:href="#DejaVuSans-53"/>
       <use x="63.623047" xlink:href="#DejaVuSans-48"/>
       <use x="127.246094" xlink:href="#DejaVuSans-48"/>
       <use x="190.869141" xlink:href="#DejaVuSans-48"/>
       <use x="254.492188" xlink:href="#DejaVuSans-48"/>
      </g>
     </g>
    </g>
    <g id="xtick_4">
     <g id="line2d_7">
      <path clip-path="url(#pfac19155d1)" d="M 611.18372 756 
L 611.18372 103.68 
" style="fill:none;stroke:#b0b0b0;stroke-linecap:square;stroke-width:0.8;"/>
     </g>
     <g id="line2d_8">
      <g>
       <use style="stroke:#000000;stroke-width:0.8;" x="611.18372" xlink:href="#mb35b2b2a28" y="756"/>
      </g>
     </g>
     <g id="text_4">
      <!-- 75000 -->
      <g transform="translate(573.00872 781.23625)scale(0.24 -0.24)">
       <defs>
        <path d="M 8.203125 72.90625 
L 55.078125 72.90625 
L 55.078125 68.703125 
L 28.609375 0 
L 18.3125 0 
L 43.21875 64.59375 
L 8.203125 64.59375 
z
" id="DejaVuSans-55"/>
       </defs>
       <use xlink:href="#DejaVuSans-55"/>
       <use x="63.623047" xlink:href="#DejaVuSans-53"/>
       <use x="127.246094" xlink:href="#DejaVuSans-48"/>
       <use x="190.869141" xlink:href="#DejaVuSans-48"/>
       <use x="254.492188" xlink:href="#DejaVuSans-48"/>
      </g>
     </g>
    </g>
    <g id="xtick_5">
     <g id="line2d_9">
      <path clip-path="url(#pfac19155d1)" d="M 738.002536 756 
L 738.002536 103.68 
" style="fill:none;stroke:#b0b0b0;stroke-linecap:square;stroke-width:0.8;"/>
     </g>
     <g id="line2d_10">
      <g>
       <use style="stroke:#000000;stroke-width:0.8;" x="738.002536" xlink:href="#mb35b2b2a28" y="756"/>
      </g>
     </g>
     <g id="text_5">
      <!-- 100000 -->
      <g transform="translate(692.192536 781.23625)scale(0.24 -0.24)">
       <defs>
        <path d="M 12.40625 8.296875 
L 28.515625 8.296875 
L 28.515625 63.921875 
L 10.984375 60.40625 
L 10.984375 69.390625 
L 28.421875 72.90625 
L 38.28125 72.90625 
L 38.28125 8.296875 
L 54.390625 8.296875 
L 54.390625 0 
L 12.40625 0 
z
" id="DejaVuSans-49"/>
       </defs>
       <use xlink:href="#DejaVuSans-49"/>
       <use x="63.623047" xlink:href="#DejaVuSans-48"/>
       <use x="127.246094" xlink:href="#DejaVuSans-48"/>
       <use x="190.869141" xlink:href="#DejaVuSans-48"/>
       <use x="254.492188" xlink:href="#DejaVuSans-48"/>
       <use x="318.115234" xlink:href="#DejaVuSans-48"/>
      </g>
     </g>
    </g>
    <g id="xtick_6">
     <g id="line2d_11">
      <path clip-path="url(#pfac19155d1)" d="M 864.821352 756 
L 864.821352 103.68 
" style="fill:none;stroke:#b0b0b0;stroke-linecap:square;stroke-width:0.8;"/>
     </g>
     <g id="line2d_12">
      <g>
       <use style="stroke:#000000;stroke-width:0.8;" x="864.821352" xlink:href="#mb35b2b2a28" y="756"/>
      </g>
     </g>
     <g id="text_6">
      <!-- 125000 -->
      <g transform="translate(819.011352 781.23625)scale(0.24 -0.24)">
       <use xlink:href="#DejaVuSans-49"/>
       <use x="63.623047" xlink:href="#DejaVuSans-50"/>
       <use x="127.246094" xlink:href="#DejaVuSans-53"/>
       <use x="190.869141" xlink:href="#DejaVuSans-48"/>
       <use x="254.492188" xlink:href="#DejaVuSans-48"/>
       <use x="318.115234" xlink:href="#DejaVuSans-48"/>
      </g>
     </g>
    </g>
    <g id="xtick_7">
     <g id="line2d_13">
      <path clip-path="url(#pfac19155d1)" d="M 991.640168 756 
L 991.640168 103.68 
" style="fill:none;stroke:#b0b0b0;stroke-linecap:square;stroke-width:0.8;"/>
     </g>
     <g id="line2d_14">
      <g>
       <use style="stroke:#000000;stroke-width:0.8;" x="991.640168" xlink:href="#mb35b2b2a28" y="756"/>
      </g>
     </g>
     <g id="text_7">
      <!-- 150000 -->
      <g transform="translate(945.830168 781.23625)scale(0.24 -0.24)">
       <use xlink:href="#DejaVuSans-49"/>
       <use x="63.623047" xlink:href="#DejaVuSans-53"/>
       <use x="127.246094" xlink:href="#DejaVuSans-48"/>
       <use x="190.869141" xlink:href="#DejaVuSans-48"/>
       <use x="254.492188" xlink:href="#DejaVuSans-48"/>
       <use x="318.115234" xlink:href="#DejaVuSans-48"/>
      </g>
     </g>
    </g>
    <g id="xtick_8">
     <g id="line2d_15">
      <path clip-path="url(#pfac19155d1)" d="M 1118.458984 756 
L 1118.458984 103.68 
" style="fill:none;stroke:#b0b0b0;stroke-linecap:square;stroke-width:0.8;"/>
     </g>
     <g id="line2d_16">
      <g>
       <use style="stroke:#000000;stroke-width:0.8;" x="1118.458984" xlink:href="#mb35b2b2a28" y="756"/>
      </g>
     </g>
     <g id="text_8">
      <!-- 175000 -->
      <g transform="translate(1072.648984 781.23625)scale(0.24 -0.24)">
       <use xlink:href="#DejaVuSans-49"/>
       <use x="63.623047" xlink:href="#DejaVuSans-55"/>
       <use x="127.246094" xlink:href="#DejaVuSans-53"/>
       <use x="190.869141" xlink:href="#DejaVuSans-48"/>
       <use x="254.492188" xlink:href="#DejaVuSans-48"/>
       <use x="318.115234" xlink:href="#DejaVuSans-48"/>
      </g>
     </g>
    </g>
    <g id="xtick_9">
     <g id="line2d_17">
      <path clip-path="url(#pfac19155d1)" d="M 1245.2778 756 
L 1245.2778 103.68 
" style="fill:none;stroke:#b0b0b0;stroke-linecap:square;stroke-width:0.8;"/>
     </g>
     <g id="line2d_18">
      <g>
       <use style="stroke:#000000;stroke-width:0.8;" x="1245.2778" xlink:href="#mb35b2b2a28" y="756"/>
      </g>
     </g>
     <g id="text_9">
      <!-- 200000 -->
      <g transform="translate(1199.4678 781.23625)scale(0.24 -0.24)">
       <use xlink:href="#DejaVuSans-50"/>
       <use x="63.623047" xlink:href="#DejaVuSans-48"/>
       <use x="127.246094" xlink:href="#DejaVuSans-48"/>
       <use x="190.869141" xlink:href="#DejaVuSans-48"/>
       <use x="254.492188" xlink:href="#DejaVuSans-48"/>
       <use x="318.115234" xlink:href="#DejaVuSans-48"/>
      </g>
     </g>
    </g>
    <g id="text_10">
     <!-- Iterations $\to$ -->
     <g transform="translate(708.4 797.825938)scale(0.1 -0.1)">
      <defs>
       <path d="M 9.8125 72.90625 
L 19.671875 72.90625 
L 19.671875 0 
L 9.8125 0 
z
" id="DejaVuSans-73"/>
       <path d="M 18.3125 70.21875 
L 18.3125 54.6875 
L 36.8125 54.6875 
L 36.8125 47.703125 
L 18.3125 47.703125 
L 18.3125 18.015625 
Q 18.3125 11.328125 20.140625 9.421875 
Q 21.96875 7.515625 27.59375 7.515625 
L 36.8125 7.515625 
L 36.8125 0 
L 27.59375 0 
Q 17.1875 0 13.234375 3.875 
Q 9.28125 7.765625 9.28125 18.015625 
L 9.28125 47.703125 
L 2.6875 47.703125 
L 2.6875 54.6875 
L 9.28125 54.6875 
L 9.28125 70.21875 
z
" id="DejaVuSans-116"/>
       <path d="M 56.203125 29.59375 
L 56.203125 25.203125 
L 14.890625 25.203125 
Q 15.484375 15.921875 20.484375 11.0625 
Q 25.484375 6.203125 34.421875 6.203125 
Q 39.59375 6.203125 44.453125 7.46875 
Q 49.3125 8.734375 54.109375 11.28125 
L 54.109375 2.78125 
Q 49.265625 0.734375 44.1875 -0.34375 
Q 39.109375 -1.421875 33.890625 -1.421875 
Q 20.796875 -1.421875 13.15625 6.1875 
Q 5.515625 13.8125 5.515625 26.8125 
Q 5.515625 40.234375 12.765625 48.109375 
Q 20.015625 56 32.328125 56 
Q 43.359375 56 49.78125 48.890625 
Q 56.203125 41.796875 56.203125 29.59375 
z
M 47.21875 32.234375 
Q 47.125 39.59375 43.09375 43.984375 
Q 39.0625 48.390625 32.421875 48.390625 
Q 24.90625 48.390625 20.390625 44.140625 
Q 15.875 39.890625 15.1875 32.171875 
z
" id="DejaVuSans-101"/>
       <path d="M 41.109375 46.296875 
Q 39.59375 47.171875 37.8125 47.578125 
Q 36.03125 48 33.890625 48 
Q 26.265625 48 22.1875 43.046875 
Q 18.109375 38.09375 18.109375 28.8125 
L 18.109375 0 
L 9.078125 0 
L 9.078125 54.6875 
L 18.109375 54.6875 
L 18.109375 46.1875 
Q 20.953125 51.171875 25.484375 53.578125 
Q 30.03125 56 36.53125 56 
Q 37.453125 56 38.578125 55.875 
Q 39.703125 55.765625 41.0625 55.515625 
z
" id="DejaVuSans-114"/>
       <path d="M 34.28125 27.484375 
Q 23.390625 27.484375 19.1875 25 
Q 14.984375 22.515625 14.984375 16.5 
Q 14.984375 11.71875 18.140625 8.90625 
Q 21.296875 6.109375 26.703125 6.109375 
Q 34.1875 6.109375 38.703125 11.40625 
Q 43.21875 16.703125 43.21875 25.484375 
L 43.21875 27.484375 
z
M 52.203125 31.203125 
L 52.203125 0 
L 43.21875 0 
L 43.21875 8.296875 
Q 40.140625 3.328125 35.546875 0.953125 
Q 30.953125 -1.421875 24.3125 -1.421875 
Q 15.921875 -1.421875 10.953125 3.296875 
Q 6 8.015625 6 15.921875 
Q 6 25.140625 12.171875 29.828125 
Q 18.359375 34.515625 30.609375 34.515625 
L 43.21875 34.515625 
L 43.21875 35.40625 
Q 43.21875 41.609375 39.140625 45 
Q 35.0625 48.390625 27.6875 48.390625 
Q 23 48.390625 18.546875 47.265625 
Q 14.109375 46.140625 10.015625 43.890625 
L 10.015625 52.203125 
Q 14.9375 54.109375 19.578125 55.046875 
Q 24.21875 56 28.609375 56 
Q 40.484375 56 46.34375 49.84375 
Q 52.203125 43.703125 52.203125 31.203125 
z
" id="DejaVuSans-97"/>
       <path d="M 9.421875 54.6875 
L 18.40625 54.6875 
L 18.40625 0 
L 9.421875 0 
z
M 9.421875 75.984375 
L 18.40625 75.984375 
L 18.40625 64.59375 
L 9.421875 64.59375 
z
" id="DejaVuSans-105"/>
       <path d="M 30.609375 48.390625 
Q 23.390625 48.390625 19.1875 42.75 
Q 14.984375 37.109375 14.984375 27.296875 
Q 14.984375 17.484375 19.15625 11.84375 
Q 23.34375 6.203125 30.609375 6.203125 
Q 37.796875 6.203125 41.984375 11.859375 
Q 46.1875 17.53125 46.1875 27.296875 
Q 46.1875 37.015625 41.984375 42.703125 
Q 37.796875 48.390625 30.609375 48.390625 
z
M 30.609375 56 
Q 42.328125 56 49.015625 48.375 
Q 55.71875 40.765625 55.71875 27.296875 
Q 55.71875 13.875 49.015625 6.21875 
Q 42.328125 -1.421875 30.609375 -1.421875 
Q 18.84375 -1.421875 12.171875 6.21875 
Q 5.515625 13.875 5.515625 27.296875 
Q 5.515625 40.765625 12.171875 48.375 
Q 18.84375 56 30.609375 56 
z
" id="DejaVuSans-111"/>
       <path d="M 54.890625 33.015625 
L 54.890625 0 
L 45.90625 0 
L 45.90625 32.71875 
Q 45.90625 40.484375 42.875 44.328125 
Q 39.84375 48.1875 33.796875 48.1875 
Q 26.515625 48.1875 22.3125 43.546875 
Q 18.109375 38.921875 18.109375 30.90625 
L 18.109375 0 
L 9.078125 0 
L 9.078125 54.6875 
L 18.109375 54.6875 
L 18.109375 46.1875 
Q 21.34375 51.125 25.703125 53.5625 
Q 30.078125 56 35.796875 56 
Q 45.21875 56 50.046875 50.171875 
Q 54.890625 44.34375 54.890625 33.015625 
z
" id="DejaVuSans-110"/>
       <path d="M 44.28125 53.078125 
L 44.28125 44.578125 
Q 40.484375 46.53125 36.375 47.5 
Q 32.28125 48.484375 27.875 48.484375 
Q 21.1875 48.484375 17.84375 46.4375 
Q 14.5 44.390625 14.5 40.28125 
Q 14.5 37.15625 16.890625 35.375 
Q 19.28125 33.59375 26.515625 31.984375 
L 29.59375 31.296875 
Q 39.15625 29.25 43.1875 25.515625 
Q 47.21875 21.78125 47.21875 15.09375 
Q 47.21875 7.46875 41.1875 3.015625 
Q 35.15625 -1.421875 24.609375 -1.421875 
Q 20.21875 -1.421875 15.453125 -0.5625 
Q 10.6875 0.296875 5.421875 2 
L 5.421875 11.28125 
Q 10.40625 8.6875 15.234375 7.390625 
Q 20.0625 6.109375 24.8125 6.109375 
Q 31.15625 6.109375 34.5625 8.28125 
Q 37.984375 10.453125 37.984375 14.40625 
Q 37.984375 18.0625 35.515625 20.015625 
Q 33.0625 21.96875 24.703125 23.78125 
L 21.578125 24.515625 
Q 13.234375 26.265625 9.515625 29.90625 
Q 5.8125 33.546875 5.8125 39.890625 
Q 5.8125 47.609375 11.28125 51.796875 
Q 16.75 56 26.8125 56 
Q 31.78125 56 36.171875 55.265625 
Q 40.578125 54.546875 44.28125 53.078125 
z
" id="DejaVuSans-115"/>
       <path id="DejaVuSans-32"/>
       <path d="M 78.90625 33.546875 
L 78.90625 29.15625 
L 59.71875 9.96875 
L 53.859375 15.828125 
L 65.234375 27.203125 
L 5.71875 27.203125 
L 5.71875 35.5 
L 65.234375 35.5 
L 53.859375 46.875 
L 59.71875 52.734375 
z
" id="DejaVuSans-8594"/>
      </defs>
      <use transform="translate(0 0.015625)" xlink:href="#DejaVuSans-73"/>
      <use transform="translate(29.492188 0.015625)" xlink:href="#DejaVuSans-116"/>
      <use transform="translate(68.701172 0.015625)" xlink:href="#DejaVuSans-101"/>
      <use transform="translate(130.224609 0.015625)" xlink:href="#DejaVuSans-114"/>
      <use transform="translate(171.337891 0.015625)" xlink:href="#DejaVuSans-97"/>
      <use transform="translate(232.617188 0.015625)" xlink:href="#DejaVuSans-116"/>
      <use transform="translate(271.826172 0.015625)" xlink:href="#DejaVuSans-105"/>
      <use transform="translate(299.609375 0.015625)" xlink:href="#DejaVuSans-111"/>
      <use transform="translate(360.791016 0.015625)" xlink:href="#DejaVuSans-110"/>
      <use transform="translate(424.169922 0.015625)" xlink:href="#DejaVuSans-115"/>
      <use transform="translate(476.269531 0.015625)" xlink:href="#DejaVuSans-32"/>
      <use transform="translate(508.056641 0.015625)" xlink:href="#DejaVuSans-8594"/>
     </g>
    </g>
   </g>
   <g id="matplotlib.axis_2">
    <g id="ytick_1">
     <g id="line2d_19">
      <path clip-path="url(#pfac19155d1)" d="M 180 756 
L 1296 756 
" style="fill:none;stroke:#b0b0b0;stroke-linecap:square;stroke-width:0.8;"/>
     </g>
     <g id="line2d_20">
      <defs>
       <path d="M 0 0 
L -3.5 0 
" id="mf783fc9b15" style="stroke:#000000;stroke-width:0.8;"/>
      </defs>
      <g>
       <use style="stroke:#000000;stroke-width:0.8;" x="180" xlink:href="#mf783fc9b15" y="756"/>
      </g>
     </g>
     <g id="text_11">
      <!-- 0.0 -->
      <g transform="translate(134.8325 765.118125)scale(0.24 -0.24)">
       <defs>
        <path d="M 10.6875 12.40625 
L 21 12.40625 
L 21 0 
L 10.6875 0 
z
" id="DejaVuSans-46"/>
       </defs>
       <use xlink:href="#DejaVuSans-48"/>
       <use x="63.623047" xlink:href="#DejaVuSans-46"/>
       <use x="95.410156" xlink:href="#DejaVuSans-48"/>
      </g>
     </g>
    </g>
    <g id="ytick_2">
     <g id="line2d_21">
      <path clip-path="url(#pfac19155d1)" d="M 180 674.46 
L 1296 674.46 
" style="fill:none;stroke:#b0b0b0;stroke-linecap:square;stroke-width:0.8;"/>
     </g>
     <g id="line2d_22">
      <g>
       <use style="stroke:#000000;stroke-width:0.8;" x="180" xlink:href="#mf783fc9b15" y="674.46"/>
      </g>
     </g>
     <g id="text_12">
      <!-- 2.5 -->
      <g transform="translate(134.8325 683.578125)scale(0.24 -0.24)">
       <use xlink:href="#DejaVuSans-50"/>
       <use x="63.623047" xlink:href="#DejaVuSans-46"/>
       <use x="95.410156" xlink:href="#DejaVuSans-53"/>
      </g>
     </g>
    </g>
    <g id="ytick_3">
     <g id="line2d_23">
      <path clip-path="url(#pfac19155d1)" d="M 180 592.92 
L 1296 592.92 
" style="fill:none;stroke:#b0b0b0;stroke-linecap:square;stroke-width:0.8;"/>
     </g>
     <g id="line2d_24">
      <g>
       <use style="stroke:#000000;stroke-width:0.8;" x="180" xlink:href="#mf783fc9b15" y="592.92"/>
      </g>
     </g>
     <g id="text_13">
      <!-- 5.0 -->
      <g transform="translate(134.8325 602.038125)scale(0.24 -0.24)">
       <use xlink:href="#DejaVuSans-53"/>
       <use x="63.623047" xlink:href="#DejaVuSans-46"/>
       <use x="95.410156" xlink:href="#DejaVuSans-48"/>
      </g>
     </g>
    </g>
    <g id="ytick_4">
     <g id="line2d_25">
      <path clip-path="url(#pfac19155d1)" d="M 180 511.38 
L 1296 511.38 
" style="fill:none;stroke:#b0b0b0;stroke-linecap:square;stroke-width:0.8;"/>
     </g>
     <g id="line2d_26">
      <g>
       <use style="stroke:#000000;stroke-width:0.8;" x="180" xlink:href="#mf783fc9b15" y="511.38"/>
      </g>
     </g>
     <g id="text_14">
      <!-- 7.5 -->
      <g transform="translate(134.8325 520.498125)scale(0.24 -0.24)">
       <use xlink:href="#DejaVuSans-55"/>
       <use x="63.623047" xlink:href="#DejaVuSans-46"/>
       <use x="95.410156" xlink:href="#DejaVuSans-53"/>
      </g>
     </g>
    </g>
    <g id="ytick_5">
     <g id="line2d_27">
      <path clip-path="url(#pfac19155d1)" d="M 180 429.84 
L 1296 429.84 
" style="fill:none;stroke:#b0b0b0;stroke-linecap:square;stroke-width:0.8;"/>
     </g>
     <g id="line2d_28">
      <g>
       <use style="stroke:#000000;stroke-width:0.8;" x="180" xlink:href="#mf783fc9b15" y="429.84"/>
      </g>
     </g>
     <g id="text_15">
      <!-- 10.0 -->
      <g transform="translate(119.5625 438.958125)scale(0.24 -0.24)">
       <use xlink:href="#DejaVuSans-49"/>
       <use x="63.623047" xlink:href="#DejaVuSans-48"/>
       <use x="127.246094" xlink:href="#DejaVuSans-46"/>
       <use x="159.033203" xlink:href="#DejaVuSans-48"/>
      </g>
     </g>
    </g>
    <g id="ytick_6">
     <g id="line2d_29">
      <path clip-path="url(#pfac19155d1)" d="M 180 348.3 
L 1296 348.3 
" style="fill:none;stroke:#b0b0b0;stroke-linecap:square;stroke-width:0.8;"/>
     </g>
     <g id="line2d_30">
      <g>
       <use style="stroke:#000000;stroke-width:0.8;" x="180" xlink:href="#mf783fc9b15" y="348.3"/>
      </g>
     </g>
     <g id="text_16">
      <!-- 12.5 -->
      <g transform="translate(119.5625 357.418125)scale(0.24 -0.24)">
       <use xlink:href="#DejaVuSans-49"/>
       <use x="63.623047" xlink:href="#DejaVuSans-50"/>
       <use x="127.246094" xlink:href="#DejaVuSans-46"/>
       <use x="159.033203" xlink:href="#DejaVuSans-53"/>
      </g>
     </g>
    </g>
    <g id="ytick_7">
     <g id="line2d_31">
      <path clip-path="url(#pfac19155d1)" d="M 180 266.76 
L 1296 266.76 
" style="fill:none;stroke:#b0b0b0;stroke-linecap:square;stroke-width:0.8;"/>
     </g>
     <g id="line2d_32">
      <g>
       <use style="stroke:#000000;stroke-width:0.8;" x="180" xlink:href="#mf783fc9b15" y="266.76"/>
      </g>
     </g>
     <g id="text_17">
      <!-- 15.0 -->
      <g transform="translate(119.5625 275.878125)scale(0.24 -0.24)">
       <use xlink:href="#DejaVuSans-49"/>
       <use x="63.623047" xlink:href="#DejaVuSans-53"/>
       <use x="127.246094" xlink:href="#DejaVuSans-46"/>
       <use x="159.033203" xlink:href="#DejaVuSans-48"/>
      </g>
     </g>
    </g>
    <g id="ytick_8">
     <g id="line2d_33">
      <path clip-path="url(#pfac19155d1)" d="M 180 185.22 
L 1296 185.22 
" style="fill:none;stroke:#b0b0b0;stroke-linecap:square;stroke-width:0.8;"/>
     </g>
     <g id="line2d_34">
      <g>
       <use style="stroke:#000000;stroke-width:0.8;" x="180" xlink:href="#mf783fc9b15" y="185.22"/>
      </g>
     </g>
     <g id="text_18">
      <!-- 17.5 -->
      <g transform="translate(119.5625 194.338125)scale(0.24 -0.24)">
       <use xlink:href="#DejaVuSans-49"/>
       <use x="63.623047" xlink:href="#DejaVuSans-55"/>
       <use x="127.246094" xlink:href="#DejaVuSans-46"/>
       <use x="159.033203" xlink:href="#DejaVuSans-53"/>
      </g>
     </g>
    </g>
    <g id="ytick_9">
     <g id="line2d_35">
      <path clip-path="url(#pfac19155d1)" d="M 180 103.68 
L 1296 103.68 
" style="fill:none;stroke:#b0b0b0;stroke-linecap:square;stroke-width:0.8;"/>
     </g>
     <g id="line2d_36">
      <g>
       <use style="stroke:#000000;stroke-width:0.8;" x="180" xlink:href="#mf783fc9b15" y="103.68"/>
      </g>
     </g>
     <g id="text_19">
      <!-- 20.0 -->
      <g transform="translate(119.5625 112.798125)scale(0.24 -0.24)">
       <use xlink:href="#DejaVuSans-50"/>
       <use x="63.623047" xlink:href="#DejaVuSans-48"/>
       <use x="127.246094" xlink:href="#DejaVuSans-46"/>
       <use x="159.033203" xlink:href="#DejaVuSans-48"/>
      </g>
     </g>
    </g>
    <g id="text_20">
     <!-- Bit Error per Sequence $\to$  -->
     <g transform="translate(113.4625 494.14)rotate(-90)scale(0.1 -0.1)">
      <defs>
       <path d="M 19.671875 34.8125 
L 19.671875 8.109375 
L 35.5 8.109375 
Q 43.453125 8.109375 47.28125 11.40625 
Q 51.125 14.703125 51.125 21.484375 
Q 51.125 28.328125 47.28125 31.5625 
Q 43.453125 34.8125 35.5 34.8125 
z
M 19.671875 64.796875 
L 19.671875 42.828125 
L 34.28125 42.828125 
Q 41.5 42.828125 45.03125 45.53125 
Q 48.578125 48.25 48.578125 53.8125 
Q 48.578125 59.328125 45.03125 62.0625 
Q 41.5 64.796875 34.28125 64.796875 
z
M 9.8125 72.90625 
L 35.015625 72.90625 
Q 46.296875 72.90625 52.390625 68.21875 
Q 58.5 63.53125 58.5 54.890625 
Q 58.5 48.1875 55.375 44.234375 
Q 52.25 40.28125 46.1875 39.3125 
Q 53.46875 37.75 57.5 32.78125 
Q 61.53125 27.828125 61.53125 20.40625 
Q 61.53125 10.640625 54.890625 5.3125 
Q 48.25 0 35.984375 0 
L 9.8125 0 
z
" id="DejaVuSans-66"/>
       <path d="M 9.8125 72.90625 
L 55.90625 72.90625 
L 55.90625 64.59375 
L 19.671875 64.59375 
L 19.671875 43.015625 
L 54.390625 43.015625 
L 54.390625 34.71875 
L 19.671875 34.71875 
L 19.671875 8.296875 
L 56.78125 8.296875 
L 56.78125 0 
L 9.8125 0 
z
" id="DejaVuSans-69"/>
       <path d="M 18.109375 8.203125 
L 18.109375 -20.796875 
L 9.078125 -20.796875 
L 9.078125 54.6875 
L 18.109375 54.6875 
L 18.109375 46.390625 
Q 20.953125 51.265625 25.265625 53.625 
Q 29.59375 56 35.59375 56 
Q 45.5625 56 51.78125 48.09375 
Q 58.015625 40.1875 58.015625 27.296875 
Q 58.015625 14.40625 51.78125 6.484375 
Q 45.5625 -1.421875 35.59375 -1.421875 
Q 29.59375 -1.421875 25.265625 0.953125 
Q 20.953125 3.328125 18.109375 8.203125 
z
M 48.6875 27.296875 
Q 48.6875 37.203125 44.609375 42.84375 
Q 40.53125 48.484375 33.40625 48.484375 
Q 26.265625 48.484375 22.1875 42.84375 
Q 18.109375 37.203125 18.109375 27.296875 
Q 18.109375 17.390625 22.1875 11.75 
Q 26.265625 6.109375 33.40625 6.109375 
Q 40.53125 6.109375 44.609375 11.75 
Q 48.6875 17.390625 48.6875 27.296875 
z
" id="DejaVuSans-112"/>
       <path d="M 53.515625 70.515625 
L 53.515625 60.890625 
Q 47.90625 63.578125 42.921875 64.890625 
Q 37.9375 66.21875 33.296875 66.21875 
Q 25.25 66.21875 20.875 63.09375 
Q 16.5 59.96875 16.5 54.203125 
Q 16.5 49.359375 19.40625 46.890625 
Q 22.3125 44.4375 30.421875 42.921875 
L 36.375 41.703125 
Q 47.40625 39.59375 52.65625 34.296875 
Q 57.90625 29 57.90625 20.125 
Q 57.90625 9.515625 50.796875 4.046875 
Q 43.703125 -1.421875 29.984375 -1.421875 
Q 24.8125 -1.421875 18.96875 -0.25 
Q 13.140625 0.921875 6.890625 3.21875 
L 6.890625 13.375 
Q 12.890625 10.015625 18.65625 8.296875 
Q 24.421875 6.59375 29.984375 6.59375 
Q 38.421875 6.59375 43.015625 9.90625 
Q 47.609375 13.234375 47.609375 19.390625 
Q 47.609375 24.75 44.3125 27.78125 
Q 41.015625 30.8125 33.5 32.328125 
L 27.484375 33.5 
Q 16.453125 35.6875 11.515625 40.375 
Q 6.59375 45.0625 6.59375 53.421875 
Q 6.59375 63.09375 13.40625 68.65625 
Q 20.21875 74.21875 32.171875 74.21875 
Q 37.3125 74.21875 42.625 73.28125 
Q 47.953125 72.359375 53.515625 70.515625 
z
" id="DejaVuSans-83"/>
       <path d="M 14.796875 27.296875 
Q 14.796875 17.390625 18.875 11.75 
Q 22.953125 6.109375 30.078125 6.109375 
Q 37.203125 6.109375 41.296875 11.75 
Q 45.40625 17.390625 45.40625 27.296875 
Q 45.40625 37.203125 41.296875 42.84375 
Q 37.203125 48.484375 30.078125 48.484375 
Q 22.953125 48.484375 18.875 42.84375 
Q 14.796875 37.203125 14.796875 27.296875 
z
M 45.40625 8.203125 
Q 42.578125 3.328125 38.25 0.953125 
Q 33.9375 -1.421875 27.875 -1.421875 
Q 17.96875 -1.421875 11.734375 6.484375 
Q 5.515625 14.40625 5.515625 27.296875 
Q 5.515625 40.1875 11.734375 48.09375 
Q 17.96875 56 27.875 56 
Q 33.9375 56 38.25 53.625 
Q 42.578125 51.265625 45.40625 46.390625 
L 45.40625 54.6875 
L 54.390625 54.6875 
L 54.390625 -20.796875 
L 45.40625 -20.796875 
z
" id="DejaVuSans-113"/>
       <path d="M 8.5 21.578125 
L 8.5 54.6875 
L 17.484375 54.6875 
L 17.484375 21.921875 
Q 17.484375 14.15625 20.5 10.265625 
Q 23.53125 6.390625 29.59375 6.390625 
Q 36.859375 6.390625 41.078125 11.03125 
Q 45.3125 15.671875 45.3125 23.6875 
L 45.3125 54.6875 
L 54.296875 54.6875 
L 54.296875 0 
L 45.3125 0 
L 45.3125 8.40625 
Q 42.046875 3.421875 37.71875 1 
Q 33.40625 -1.421875 27.6875 -1.421875 
Q 18.265625 -1.421875 13.375 4.4375 
Q 8.5 10.296875 8.5 21.578125 
z
M 31.109375 56 
z
" id="DejaVuSans-117"/>
       <path d="M 48.78125 52.59375 
L 48.78125 44.1875 
Q 44.96875 46.296875 41.140625 47.34375 
Q 37.3125 48.390625 33.40625 48.390625 
Q 24.65625 48.390625 19.8125 42.84375 
Q 14.984375 37.3125 14.984375 27.296875 
Q 14.984375 17.28125 19.8125 11.734375 
Q 24.65625 6.203125 33.40625 6.203125 
Q 37.3125 6.203125 41.140625 7.25 
Q 44.96875 8.296875 48.78125 10.40625 
L 48.78125 2.09375 
Q 45.015625 0.34375 40.984375 -0.53125 
Q 36.96875 -1.421875 32.421875 -1.421875 
Q 20.0625 -1.421875 12.78125 6.34375 
Q 5.515625 14.109375 5.515625 27.296875 
Q 5.515625 40.671875 12.859375 48.328125 
Q 20.21875 56 33.015625 56 
Q 37.15625 56 41.109375 55.140625 
Q 45.0625 54.296875 48.78125 52.59375 
z
" id="DejaVuSans-99"/>
      </defs>
      <use transform="translate(0 0.015625)" xlink:href="#DejaVuSans-66"/>
      <use transform="translate(68.603516 0.015625)" xlink:href="#DejaVuSans-105"/>
      <use transform="translate(96.386719 0.015625)" xlink:href="#DejaVuSans-116"/>
      <use transform="translate(135.595703 0.015625)" xlink:href="#DejaVuSans-32"/>
      <use transform="translate(167.382812 0.015625)" xlink:href="#DejaVuSans-69"/>
      <use transform="translate(230.566406 0.015625)" xlink:href="#DejaVuSans-114"/>
      <use transform="translate(271.679688 0.015625)" xlink:href="#DejaVuSans-114"/>
      <use transform="translate(312.792969 0.015625)" xlink:href="#DejaVuSans-111"/>
      <use transform="translate(373.974609 0.015625)" xlink:href="#DejaVuSans-114"/>
      <use transform="translate(415.087891 0.015625)" xlink:href="#DejaVuSans-32"/>
      <use transform="translate(446.875 0.015625)" xlink:href="#DejaVuSans-112"/>
      <use transform="translate(510.351562 0.015625)" xlink:href="#DejaVuSans-101"/>
      <use transform="translate(571.875 0.015625)" xlink:href="#DejaVuSans-114"/>
      <use transform="translate(612.988281 0.015625)" xlink:href="#DejaVuSans-32"/>
      <use transform="translate(644.775391 0.015625)" xlink:href="#DejaVuSans-83"/>
      <use transform="translate(708.251953 0.015625)" xlink:href="#DejaVuSans-101"/>
      <use transform="translate(769.775391 0.015625)" xlink:href="#DejaVuSans-113"/>
      <use transform="translate(833.251953 0.015625)" xlink:href="#DejaVuSans-117"/>
      <use transform="translate(896.630859 0.015625)" xlink:href="#DejaVuSans-101"/>
      <use transform="translate(958.154297 0.015625)" xlink:href="#DejaVuSans-110"/>
      <use transform="translate(1021.533203 0.015625)" xlink:href="#DejaVuSans-99"/>
      <use transform="translate(1076.513672 0.015625)" xlink:href="#DejaVuSans-101"/>
      <use transform="translate(1138.037109 0.015625)" xlink:href="#DejaVuSans-32"/>
      <use transform="translate(1169.824219 0.015625)" xlink:href="#DejaVuSans-8594"/>
      <use transform="translate(1253.613281 0.015625)" xlink:href="#DejaVuSans-32"/>
     </g>
    </g>
   </g>
   <g id="line2d_37">
    <path clip-path="url(#pfac19155d1)" d="M 230.727273 278.5833 
L 234.120401 266.977321 
L 237.51353 280.965478 
L 240.906659 270.399623 
L 244.299787 266.484589 
L 247.692916 259.51233 
L 251.086044 259.30952 
L 254.479173 263.376442 
L 257.872302 264.387 
L 261.26543 264.591465 
L 264.658559 255.407718 
L 268.051687 264.227668 
L 271.444816 260.267958 
L 274.837945 271.691327 
L 278.231073 260.902513 
L 281.624202 256.669035 
L 285.01733 262.121633 
L 288.410459 263.219917 
L 291.803588 278.448924 
L 295.196716 260.366308 
L 298.589845 264.870991 
L 301.982974 269.6344 
L 305.376102 271.721348 
L 308.769231 270.224767 
L 312.162359 264.11008 
L 315.555488 269.609277 
L 318.948617 268.754477 
L 322.341745 257.07648 
L 325.734874 275.11915 
L 329.128002 267.395327 
L 332.521131 265.456476 
L 335.91426 269.868763 
L 339.307388 260.315552 
L 342.700517 268.178715 
L 346.093645 268.521321 
L 349.486774 270.66213 
L 352.879903 265.81101 
L 356.273031 265.856664 
L 359.66616 257.728955 
L 363.059289 265.16451 
L 366.452417 259.414698 
L 369.845546 269.157744 
L 373.238674 266.765575 
L 376.631803 267.487478 
L 380.024932 265.140453 
L 383.41806 271.316855 
L 386.811189 264.638258 
L 390.204317 262.535405 
L 396.990575 259.726503 
L 400.383703 268.019237 
L 403.776832 273.105036 
L 407.16996 281.84858 
L 410.563089 261.442724 
L 413.956218 266.589501 
L 417.349346 267.621136 
L 420.742475 262.029888 
L 424.135604 278.346636 
L 427.528732 270.602506 
L 430.921861 261.197718 
L 434.314989 271.166865 
L 437.708118 262.565492 
L 441.101247 276.335665 
L 444.494375 264.720435 
L 447.887504 265.147384 
L 451.280632 260.148646 
L 454.673761 262.680055 
L 458.06689 257.432391 
L 461.460018 267.051686 
L 464.853147 269.225561 
L 468.246275 257.125794 
L 471.639404 265.650969 
L 475.032533 273.627574 
L 478.425661 254.558956 
L 481.81879 268.785385 
L 485.211919 262.399081 
L 488.605047 264.664402 
L 491.998176 263.687819 
L 495.391304 271.843552 
L 498.784433 273.524866 
L 502.177562 261.146772 
L 505.57069 263.46914 
L 508.963819 267.056651 
L 512.356947 261.519847 
L 515.750076 260.521034 
L 519.143205 267.769545 
L 522.536333 262.559041 
L 525.929462 264.681644 
L 529.32259 262.666718 
L 532.715719 266.245093 
L 536.108848 270.593891 
L 539.501976 270.332828 
L 542.895105 275.221978 
L 546.288234 272.317812 
L 549.681362 276.531891 
L 556.467619 259.666196 
L 559.860748 268.499052 
L 563.253877 268.855092 
L 566.647005 263.802733 
L 570.040134 262.462046 
L 573.433262 253.437489 
L 576.826391 270.150605 
L 580.21952 260.207585 
L 583.612648 264.279882 
L 587.005777 272.745534 
L 590.398905 260.951391 
L 593.792034 268.666148 
L 597.185163 271.038258 
L 600.578291 271.178852 
L 603.97142 268.372536 
L 607.364548 261.786816 
L 610.757677 266.104049 
L 614.150806 270.778709 
L 617.543934 267.264865 
L 620.937063 261.711952 
L 624.330192 267.479103 
L 627.72332 262.232744 
L 631.116449 273.986898 
L 637.902706 271.794461 
L 641.295835 258.942318 
L 644.688963 271.869305 
L 648.082092 259.566899 
L 651.47522 267.808427 
L 654.868349 282.027116 
L 658.261478 260.273262 
L 661.654606 268.303046 
L 665.047735 264.850488 
L 668.440863 271.178068 
L 671.833992 266.198043 
L 675.227121 265.568851 
L 678.620249 273.703121 
L 682.013378 268.899635 
L 685.406507 266.130134 
L 688.799635 267.881205 
L 692.192764 267.440549 
L 695.585892 257.130536 
L 698.979021 270.999455 
L 702.37215 269.066961 
L 705.765278 259.690514 
L 709.158407 277.156629 
L 712.551535 267.370842 
L 715.944664 264.340801 
L 719.337793 270.624516 
L 722.730921 269.632843 
L 726.12405 262.09875 
L 729.517178 269.462075 
L 732.910307 267.663131 
L 736.303436 278.016174 
L 739.696564 267.056289 
L 743.089693 275.161189 
L 746.482822 265.729246 
L 749.87595 264.602961 
L 753.269079 259.392884 
L 756.662207 269.614307 
L 760.055336 267.943516 
L 763.448465 270.893766 
L 766.841593 268.145744 
L 770.234722 268.165082 
L 773.62785 253.422714 
L 777.020979 261.987736 
L 780.414108 262.931039 
L 783.807236 274.832772 
L 787.200365 271.306589 
L 790.593493 265.852506 
L 793.986622 262.087387 
L 797.379751 270.875754 
L 800.772879 260.949332 
L 804.166008 268.400888 
L 807.559137 258.957534 
L 810.952265 268.914133 
L 814.345394 261.471984 
L 817.738522 271.143289 
L 821.131651 262.003724 
L 824.52478 264.698207 
L 827.917908 256.601813 
L 831.311037 279.856573 
L 834.704165 263.104074 
L 838.097294 265.438064 
L 841.490423 268.573162 
L 844.883551 270.139987 
L 848.27668 275.921926 
L 851.669808 273.713728 
L 855.062937 264.450456 
L 858.456066 272.602709 
L 861.849194 266.249578 
L 865.242323 265.700562 
L 868.635452 263.844263 
L 872.02858 269.813478 
L 875.421709 263.038894 
L 878.814837 265.913193 
L 882.207966 270.637348 
L 885.601095 265.62465 
L 888.994223 261.219576 
L 892.387352 263.423492 
L 895.78048 268.785474 
L 899.173609 265.067134 
L 902.566738 263.361954 
L 905.959866 270.147812 
L 909.352995 260.371087 
L 912.746123 266.3877 
L 916.139252 263.152831 
L 919.532381 271.24937 
L 922.925509 269.747112 
L 926.318638 264.164051 
L 929.711766 264.324816 
L 933.104895 268.951583 
L 936.498024 261.071127 
L 943.284281 259.613452 
L 946.67741 269.291314 
L 950.070538 269.652617 
L 953.463667 263.106521 
L 956.856795 268.16985 
L 960.249924 265.7875 
L 963.643053 255.810726 
L 967.036181 273.105739 
L 970.42931 261.816938 
L 973.822438 269.952492 
L 977.215567 262.505995 
L 980.608696 269.388068 
L 984.001824 270.443379 
L 987.394953 269.430195 
L 990.788081 265.789115 
L 994.18121 260.176599 
L 997.574339 262.599453 
L 1000.967467 263.747622 
L 1004.360596 274.010217 
L 1007.753725 261.070647 
L 1011.146853 268.301414 
L 1014.539982 262.125856 
L 1017.93311 264.024087 
L 1021.326239 271.600545 
L 1024.719368 274.112794 
L 1028.112496 266.298118 
L 1031.505625 262.485125 
L 1034.898753 266.715998 
L 1038.291882 264.413726 
L 1041.685011 265.960338 
L 1045.078139 268.340549 
L 1048.471268 263.3039 
L 1051.864396 269.520825 
L 1055.257525 265.686386 
L 1058.650654 265.649372 
L 1062.043782 266.268294 
L 1065.436911 261.349266 
L 1068.83004 266.612316 
L 1072.223168 261.296188 
L 1075.616297 264.482715 
L 1079.009425 267.343271 
L 1082.402554 261.110895 
L 1085.795683 276.809499 
L 1089.188811 267.55952 
L 1092.58194 261.593478 
L 1095.975068 261.172419 
L 1099.368197 266.703699 
L 1102.761326 266.235793 
L 1106.154454 270.44453 
L 1109.547583 275.714561 
L 1112.940711 265.459567 
L 1116.33384 263.579073 
L 1119.726969 271.586767 
L 1123.120097 264.363489 
L 1126.513226 261.328639 
L 1129.906355 263.28482 
L 1133.299483 264.853558 
L 1136.692612 267.610431 
L 1140.08574 266.884076 
L 1143.478869 274.021746 
L 1146.871998 253.556585 
L 1150.265126 271.439851 
L 1153.658255 272.601145 
L 1157.051383 269.937331 
L 1160.444512 260.889075 
L 1163.837641 275.834669 
L 1167.230769 266.672205 
L 1170.623898 268.786281 
L 1174.017026 264.006392 
L 1177.410155 271.319429 
L 1180.803284 262.505597 
L 1184.196412 260.606958 
L 1190.98267 269.409567 
L 1194.375798 258.743148 
L 1197.768927 270.111267 
L 1201.162055 269.472662 
L 1204.555184 263.162702 
L 1207.948313 271.889134 
L 1211.341441 267.519735 
L 1214.73457 267.667781 
L 1218.127698 259.034677 
L 1221.520827 261.259621 
L 1224.913956 265.547207 
L 1228.307084 266.196577 
L 1231.700213 262.53642 
L 1235.093341 270.876285 
L 1238.48647 271.723048 
L 1241.879599 267.367041 
L 1245.272727 268.7985 
L 1245.272727 268.7985 
" style="fill:none;stroke:#000000;stroke-linecap:square;stroke-width:1.5;"/>
   </g>
   <g id="patch_3">
    <path d="M 180 756 
L 180 103.68 
" style="fill:none;stroke:#000000;stroke-linecap:square;stroke-linejoin:miter;stroke-width:0.8;"/>
   </g>
   <g id="patch_4">
    <path d="M 1296 756 
L 1296 103.68 
" style="fill:none;stroke:#000000;stroke-linecap:square;stroke-linejoin:miter;stroke-width:0.8;"/>
   </g>
   <g id="patch_5">
    <path d="M 180 756 
L 1296 756 
" style="fill:none;stroke:#000000;stroke-linecap:square;stroke-linejoin:miter;stroke-width:0.8;"/>
   </g>
   <g id="patch_6">
    <path d="M 180 103.68 
L 1296 103.68 
" style="fill:none;stroke:#000000;stroke-linecap:square;stroke-linejoin:miter;stroke-width:0.8;"/>
   </g>
   <g id="text_21">
    <!-- Matrix Copy Task learning curves -->
    <g transform="translate(638.894063 97.68)scale(0.12 -0.12)">
     <defs>
      <path d="M 9.8125 72.90625 
L 24.515625 72.90625 
L 43.109375 23.296875 
L 61.8125 72.90625 
L 76.515625 72.90625 
L 76.515625 0 
L 66.890625 0 
L 66.890625 64.015625 
L 48.09375 14.015625 
L 38.1875 14.015625 
L 19.390625 64.015625 
L 19.390625 0 
L 9.8125 0 
z
" id="DejaVuSans-77"/>
      <path d="M 54.890625 54.6875 
L 35.109375 28.078125 
L 55.90625 0 
L 45.3125 0 
L 29.390625 21.484375 
L 13.484375 0 
L 2.875 0 
L 24.125 28.609375 
L 4.6875 54.6875 
L 15.28125 54.6875 
L 29.78125 35.203125 
L 44.28125 54.6875 
z
" id="DejaVuSans-120"/>
      <path d="M 64.40625 67.28125 
L 64.40625 56.890625 
Q 59.421875 61.53125 53.78125 63.8125 
Q 48.140625 66.109375 41.796875 66.109375 
Q 29.296875 66.109375 22.65625 58.46875 
Q 16.015625 50.828125 16.015625 36.375 
Q 16.015625 21.96875 22.65625 14.328125 
Q 29.296875 6.6875 41.796875 6.6875 
Q 48.140625 6.6875 53.78125 8.984375 
Q 59.421875 11.28125 64.40625 15.921875 
L 64.40625 5.609375 
Q 59.234375 2.09375 53.4375 0.328125 
Q 47.65625 -1.421875 41.21875 -1.421875 
Q 24.65625 -1.421875 15.125 8.703125 
Q 5.609375 18.84375 5.609375 36.375 
Q 5.609375 53.953125 15.125 64.078125 
Q 24.65625 74.21875 41.21875 74.21875 
Q 47.75 74.21875 53.53125 72.484375 
Q 59.328125 70.75 64.40625 67.28125 
z
" id="DejaVuSans-67"/>
      <path d="M 32.171875 -5.078125 
Q 28.375 -14.84375 24.75 -17.8125 
Q 21.140625 -20.796875 15.09375 -20.796875 
L 7.90625 -20.796875 
L 7.90625 -13.28125 
L 13.1875 -13.28125 
Q 16.890625 -13.28125 18.9375 -11.515625 
Q 21 -9.765625 23.484375 -3.21875 
L 25.09375 0.875 
L 2.984375 54.6875 
L 12.5 54.6875 
L 29.59375 11.921875 
L 46.6875 54.6875 
L 56.203125 54.6875 
z
" id="DejaVuSans-121"/>
      <path d="M -0.296875 72.90625 
L 61.375 72.90625 
L 61.375 64.59375 
L 35.5 64.59375 
L 35.5 0 
L 25.59375 0 
L 25.59375 64.59375 
L -0.296875 64.59375 
z
" id="DejaVuSans-84"/>
      <path d="M 9.078125 75.984375 
L 18.109375 75.984375 
L 18.109375 31.109375 
L 44.921875 54.6875 
L 56.390625 54.6875 
L 27.390625 29.109375 
L 57.625 0 
L 45.90625 0 
L 18.109375 26.703125 
L 18.109375 0 
L 9.078125 0 
z
" id="DejaVuSans-107"/>
      <path d="M 9.421875 75.984375 
L 18.40625 75.984375 
L 18.40625 0 
L 9.421875 0 
z
" id="DejaVuSans-108"/>
      <path d="M 45.40625 27.984375 
Q 45.40625 37.75 41.375 43.109375 
Q 37.359375 48.484375 30.078125 48.484375 
Q 22.859375 48.484375 18.828125 43.109375 
Q 14.796875 37.75 14.796875 27.984375 
Q 14.796875 18.265625 18.828125 12.890625 
Q 22.859375 7.515625 30.078125 7.515625 
Q 37.359375 7.515625 41.375 12.890625 
Q 45.40625 18.265625 45.40625 27.984375 
z
M 54.390625 6.78125 
Q 54.390625 -7.171875 48.1875 -13.984375 
Q 42 -20.796875 29.203125 -20.796875 
Q 24.46875 -20.796875 20.265625 -20.09375 
Q 16.0625 -19.390625 12.109375 -17.921875 
L 12.109375 -9.1875 
Q 16.0625 -11.328125 19.921875 -12.34375 
Q 23.78125 -13.375 27.78125 -13.375 
Q 36.625 -13.375 41.015625 -8.765625 
Q 45.40625 -4.15625 45.40625 5.171875 
L 45.40625 9.625 
Q 42.625 4.78125 38.28125 2.390625 
Q 33.9375 0 27.875 0 
Q 17.828125 0 11.671875 7.65625 
Q 5.515625 15.328125 5.515625 27.984375 
Q 5.515625 40.671875 11.671875 48.328125 
Q 17.828125 56 27.875 56 
Q 33.9375 56 38.28125 53.609375 
Q 42.625 51.21875 45.40625 46.390625 
L 45.40625 54.6875 
L 54.390625 54.6875 
z
" id="DejaVuSans-103"/>
      <path d="M 2.984375 54.6875 
L 12.5 54.6875 
L 29.59375 8.796875 
L 46.6875 54.6875 
L 56.203125 54.6875 
L 35.6875 0 
L 23.484375 0 
z
" id="DejaVuSans-118"/>
     </defs>
     <use xlink:href="#DejaVuSans-77"/>
     <use x="86.279297" xlink:href="#DejaVuSans-97"/>
     <use x="147.558594" xlink:href="#DejaVuSans-116"/>
     <use x="186.767578" xlink:href="#DejaVuSans-114"/>
     <use x="227.880859" xlink:href="#DejaVuSans-105"/>
     <use x="255.664062" xlink:href="#DejaVuSans-120"/>
     <use x="314.84375" xlink:href="#DejaVuSans-32"/>
     <use x="346.630859" xlink:href="#DejaVuSans-67"/>
     <use x="416.455078" xlink:href="#DejaVuSans-111"/>
     <use x="477.636719" xlink:href="#DejaVuSans-112"/>
     <use x="541.113281" xlink:href="#DejaVuSans-121"/>
     <use x="600.292969" xlink:href="#DejaVuSans-32"/>
     <use x="632.080078" xlink:href="#DejaVuSans-84"/>
     <use x="676.664062" xlink:href="#DejaVuSans-97"/>
     <use x="737.943359" xlink:href="#DejaVuSans-115"/>
     <use x="790.042969" xlink:href="#DejaVuSans-107"/>
     <use x="847.953125" xlink:href="#DejaVuSans-32"/>
     <use x="879.740234" xlink:href="#DejaVuSans-108"/>
     <use x="907.523438" xlink:href="#DejaVuSans-101"/>
     <use x="969.046875" xlink:href="#DejaVuSans-97"/>
     <use x="1030.326172" xlink:href="#DejaVuSans-114"/>
     <use x="1069.689453" xlink:href="#DejaVuSans-110"/>
     <use x="1133.068359" xlink:href="#DejaVuSans-105"/>
     <use x="1160.851562" xlink:href="#DejaVuSans-110"/>
     <use x="1224.230469" xlink:href="#DejaVuSans-103"/>
     <use x="1287.707031" xlink:href="#DejaVuSans-32"/>
     <use x="1319.494141" xlink:href="#DejaVuSans-99"/>
     <use x="1374.474609" xlink:href="#DejaVuSans-117"/>
     <use x="1437.853516" xlink:href="#DejaVuSans-114"/>
     <use x="1478.966797" xlink:href="#DejaVuSans-118"/>
     <use x="1538.146484" xlink:href="#DejaVuSans-101"/>
     <use x="1599.669922" xlink:href="#DejaVuSans-115"/>
    </g>
   </g>
  </g>
 </g>
 <defs>
  <clipPath id="pfac19155d1">
   <rect height="652.32" width="1116" x="180" y="103.68"/>
  </clipPath>
 </defs>
</svg>
