<?xml version="1.0" encoding="utf-8" standalone="no"?>
<!DOCTYPE svg PUBLIC "-//W3C//DTD SVG 1.1//EN"
  "http://www.w3.org/Graphics/SVG/1.1/DTD/svg11.dtd">
<!-- Created with matplotlib (https://matplotlib.org/) -->
<svg height="864pt" version="1.1" viewBox="0 0 1440 864" width="1440pt" xmlns="http://www.w3.org/2000/svg" xmlns:xlink="http://www.w3.org/1999/xlink">
 <metadata>
  <rdf:RDF xmlns:cc="http://creativecommons.org/ns#" xmlns:dc="http://purl.org/dc/elements/1.1/" xmlns:rdf="http://www.w3.org/1999/02/22-rdf-syntax-ns#">
   <cc:Work>
    <dc:type rdf:resource="http://purl.org/dc/dcmitype/StillImage"/>
    <dc:date>2020-12-24T04:23:48.953096</dc:date>
    <dc:format>image/svg+xml</dc:format>
    <dc:creator>
     <cc:Agent>
      <dc:title>Matplotlib v3.3.1, https://matplotlib.org/</dc:title>
     </cc:Agent>
    </dc:creator>
   </cc:Work>
  </rdf:RDF>
 </metadata>
 <defs>
  <style type="text/css">*{stroke-linecap:butt;stroke-linejoin:round;}</style>
 </defs>
 <g id="figure_1">
  <g id="patch_1">
   <path d="M 0 864 
L 1440 864 
L 1440 0 
L 0 0 
z
" style="fill:none;"/>
  </g>
  <g id="axes_1">
   <g id="patch_2">
    <path d="M 180 756 
L 1296 756 
L 1296 103.68 
L 180 103.68 
z
" style="fill:#ffffff;"/>
   </g>
   <g id="PolyCollection_1">
    <path clip-path="url(#p060964292c)" d="M 230.727273 133.330909 
L 230.727273 133.330909 
L 234.120401 238.591827 
L 237.51353 231.560229 
L 240.906659 239.382014 
L 244.299787 243.430212 
L 247.692916 247.766697 
L 251.086044 249.001055 
L 254.479173 239.5848 
L 257.872302 240.546966 
L 261.26543 241.936881 
L 264.658559 247.894798 
L 268.051687 245.712754 
L 271.444816 243.49794 
L 274.837945 245.39677 
L 278.231073 252.139429 
L 281.624202 257.078641 
L 285.01733 238.15026 
L 288.410459 244.15654 
L 291.803588 236.345223 
L 295.196716 206.67826 
L 298.589845 186.346876 
L 301.982974 186.111611 
L 305.376102 202.870216 
L 308.769231 211.367073 
L 312.162359 205.900232 
L 315.555488 220.509947 
L 318.948617 230.72165 
L 322.341745 217.20486 
L 325.734874 237.4752 
L 329.128002 227.083247 
L 332.521131 236.254689 
L 335.91426 223.183354 
L 339.307388 243.482443 
L 342.700517 237.349135 
L 346.093645 255.768479 
L 349.486774 241.763636 
L 352.879903 231.074837 
L 356.273031 253.759031 
L 359.66616 235.832853 
L 363.059289 230.636518 
L 366.452417 187.171685 
L 369.845546 189.782778 
L 373.238674 237.408747 
L 376.631803 259.96112 
L 380.024932 212.19868 
L 383.41806 200.979915 
L 386.811189 202.03935 
L 390.204317 204.324759 
L 393.597446 200.635366 
L 396.990575 255.878312 
L 400.383703 280.691914 
L 403.776832 298.069737 
L 407.16996 361.865143 
L 410.563089 323.733784 
L 413.956218 328.374627 
L 417.349346 284.83543 
L 420.742475 391.838407 
L 424.135604 384.98441 
L 427.528732 396.175423 
L 430.921861 388.306835 
L 434.314989 385.709932 
L 437.708118 389.319321 
L 441.101247 391.926444 
L 444.494375 396.462076 
L 447.887504 390.93852 
L 451.280632 391.352204 
L 454.673761 387.950384 
L 458.06689 389.565103 
L 461.460018 388.92896 
L 464.853147 405.396234 
L 468.246275 393.972734 
L 471.639404 415.501177 
L 475.032533 399.970474 
L 478.425661 415.932806 
L 481.81879 403.236154 
L 485.211919 428.123672 
L 488.605047 417.638261 
L 491.998176 420.679862 
L 495.391304 405.107551 
L 498.784433 408.583323 
L 502.177562 416.671007 
L 505.57069 415.192408 
L 508.963819 473.468521 
L 512.356947 442.601152 
L 515.750076 431.922633 
L 519.143205 429.562749 
L 522.536333 417.631354 
L 525.929462 443.545142 
L 529.32259 423.195109 
L 532.715719 430.309387 
L 536.108848 426.005209 
L 539.501976 408.219377 
L 542.895105 419.485323 
L 546.288234 453.485899 
L 549.681362 462.793554 
L 553.074491 408.420824 
L 556.467619 434.142307 
L 559.860748 456.677108 
L 563.253877 464.32689 
L 566.647005 429.946586 
L 570.040134 519.559509 
L 573.433262 423.942305 
L 576.826391 425.935343 
L 580.21952 456.018009 
L 583.612648 461.436233 
L 587.005777 474.502947 
L 590.398905 417.709448 
L 593.792034 434.985168 
L 597.185163 451.586963 
L 600.578291 438.719143 
L 603.97142 475.238034 
L 607.364548 513.20083 
L 610.757677 503.107425 
L 614.150806 442.641381 
L 617.543934 488.527722 
L 620.937063 625.512925 
L 624.330192 472.68513 
L 627.72332 491.200376 
L 631.116449 427.015225 
L 634.509577 458.903082 
L 637.902706 456.450935 
L 641.295835 458.343857 
L 644.688963 478.755037 
L 648.082092 508.702699 
L 651.47522 450.210336 
L 654.868349 442.364205 
L 658.261478 629.487355 
L 661.654606 593.618847 
L 665.047735 467.113053 
L 668.440863 434.385276 
L 671.833992 473.960758 
L 675.227121 503.401135 
L 678.620249 492.391059 
L 682.013378 448.332835 
L 685.406507 446.018732 
L 688.799635 482.123846 
L 692.192764 457.724542 
L 695.585892 442.916918 
L 698.979021 472.742268 
L 702.37215 535.723952 
L 705.765278 541.027718 
L 709.158407 630.609725 
L 712.551535 631.2892 
L 715.944664 630.077896 
L 719.337793 520.373776 
L 722.730921 600.453564 
L 726.12405 625.23301 
L 729.517178 627.237653 
L 732.910307 632.229382 
L 736.303436 532.713007 
L 739.696564 550.709748 
L 743.089693 594.896959 
L 746.482822 632.229382 
L 749.87595 628.681999 
L 753.269079 631.784077 
L 756.662207 632.001799 
L 760.055336 632.187117 
L 763.448465 631.383046 
L 766.841593 631.676553 
L 770.234722 598.436968 
L 773.62785 632.229382 
L 777.020979 632.229382 
L 780.414108 631.3098 
L 783.807236 632.224148 
L 787.200365 632.229382 
L 790.593493 632.159853 
L 793.986622 433.426187 
L 797.379751 632.229382 
L 800.772879 631.795938 
L 804.166008 631.561284 
L 807.559137 632.229382 
L 810.952265 632.094339 
L 814.345394 632.20088 
L 817.738522 629.146105 
L 821.131651 632.229382 
L 824.52478 631.858924 
L 827.917908 632.060041 
L 831.311037 628.399136 
L 834.704165 632.229382 
L 838.097294 632.22494 
L 841.490423 632.229382 
L 844.883551 631.609463 
L 848.27668 632.201748 
L 851.669808 632.229234 
L 855.062937 632.229382 
L 858.456066 632.229382 
L 861.849194 632.229382 
L 865.242323 632.222477 
L 868.635452 632.229382 
L 872.02858 632.229382 
L 875.421709 631.874519 
L 878.814837 631.372821 
L 882.207966 628.081431 
L 885.601095 631.497953 
L 888.994223 631.693142 
L 892.387352 632.229382 
L 895.78048 632.229381 
L 899.173609 632.229382 
L 902.566738 632.22525 
L 905.959866 631.766569 
L 909.352995 632.229382 
L 912.746123 630.55512 
L 916.139252 632.229382 
L 919.532381 632.229222 
L 922.925509 632.229382 
L 926.318638 632.229185 
L 929.711766 632.229382 
L 933.104895 632.096167 
L 936.498024 632.229382 
L 939.891152 632.229382 
L 943.284281 632.187964 
L 946.67741 632.229382 
L 950.070538 632.120321 
L 953.463667 632.226167 
L 956.856795 632.229382 
L 960.249924 631.858459 
L 963.643053 632.216004 
L 967.036181 631.140826 
L 970.42931 632.151574 
L 973.822438 632.229382 
L 977.215567 632.229382 
L 980.608696 632.229382 
L 984.001824 632.229382 
L 987.394953 632.04953 
L 990.788081 604.725576 
L 994.18121 632.225639 
L 997.574339 632.198647 
L 1000.967467 632.228885 
L 1004.360596 632.229382 
L 1007.753725 632.229382 
L 1011.146853 632.229382 
L 1014.539982 632.009731 
L 1017.93311 632.229382 
L 1021.326239 632.229382 
L 1024.719368 632.229382 
L 1028.112496 632.229382 
L 1031.505625 632.229382 
L 1034.898753 632.229382 
L 1038.291882 629.074331 
L 1041.685011 628.556803 
L 1045.078139 632.229382 
L 1048.471268 632.229354 
L 1051.864396 632.016617 
L 1055.257525 632.229382 
L 1058.650654 626.188533 
L 1062.043782 632.214189 
L 1065.436911 632.229382 
L 1068.83004 632.229382 
L 1072.223168 632.229382 
L 1075.616297 632.229382 
L 1079.009425 632.135713 
L 1082.402554 632.169765 
L 1085.795683 632.229336 
L 1089.188811 632.229382 
L 1092.58194 632.229382 
L 1095.975068 632.121582 
L 1099.368197 631.937114 
L 1102.761326 632.102872 
L 1106.154454 632.229382 
L 1109.547583 632.229382 
L 1112.940711 632.099885 
L 1116.33384 632.229382 
L 1119.726969 632.229117 
L 1123.120097 616.940258 
L 1126.513226 631.920361 
L 1129.906355 632.229271 
L 1133.299483 465.62613 
L 1136.692612 489.905265 
L 1140.08574 501.002547 
L 1143.478869 454.209298 
L 1146.871998 630.605171 
L 1150.265126 629.383594 
L 1153.658255 439.949428 
L 1157.051383 431.390639 
L 1160.444512 554.886034 
L 1163.837641 551.351604 
L 1167.230769 587.7522 
L 1170.623898 434.666212 
L 1174.017026 553.244262 
L 1177.410155 620.18913 
L 1180.803284 631.825924 
L 1184.196412 631.749545 
L 1187.589541 440.143033 
L 1190.98267 554.419284 
L 1194.375798 561.153045 
L 1197.768927 454.67053 
L 1201.162055 467.303341 
L 1204.555184 449.341779 
L 1207.948313 414.259719 
L 1211.341441 418.034171 
L 1214.73457 429.512307 
L 1218.127698 417.39413 
L 1221.520827 410.280734 
L 1224.913956 390.353274 
L 1228.307084 400.355821 
L 1231.700213 399.112397 
L 1235.093341 410.12243 
L 1238.48647 399.391626 
L 1241.879599 414.721778 
L 1245.272727 402.016543 
L 1245.272727 402.016543 
L 1245.272727 720.162862 
L 1241.879599 715.308893 
L 1238.48647 721.08093 
L 1235.093341 717.040583 
L 1231.700213 721.034277 
L 1228.307084 720.580562 
L 1224.913956 725.437817 
L 1221.520827 715.942624 
L 1218.127698 714.289033 
L 1214.73457 709.611446 
L 1211.341441 714.022575 
L 1207.948313 715.484055 
L 1204.555184 702.087364 
L 1201.162055 695.225524 
L 1197.768927 700.051219 
L 1194.375798 659.383712 
L 1190.98267 653.212706 
L 1187.589541 704.616609 
L 1184.196412 632.326714 
L 1180.803284 632.384639 
L 1177.410155 636.828299 
L 1174.017026 661.860329 
L 1170.623898 707.550439 
L 1167.230769 649.266057 
L 1163.837641 663.034919 
L 1160.444512 662.279384 
L 1157.051383 708.87528 
L 1153.658255 705.658528 
L 1150.265126 633.199541 
L 1146.871998 632.509512 
L 1143.478869 700.099843 
L 1140.08574 671.665094 
L 1136.692612 686.615188 
L 1133.299483 695.8386 
L 1129.906355 632.229424 
L 1126.513226 632.347417 
L 1123.120097 638.069307 
L 1119.726969 632.229483 
L 1116.33384 632.229382 
L 1112.940711 632.278845 
L 1109.547583 632.229382 
L 1106.154454 632.229382 
L 1102.761326 632.277704 
L 1099.368197 632.341018 
L 1095.975068 632.270558 
L 1092.58194 632.229382 
L 1089.188811 632.229382 
L 1085.795683 632.229399 
L 1082.402554 632.252153 
L 1079.009425 632.238231 
L 1075.616297 632.229382 
L 1072.223168 632.229382 
L 1068.83004 632.229382 
L 1065.436911 632.229382 
L 1062.043782 632.235185 
L 1058.650654 634.311145 
L 1055.257525 632.229382 
L 1051.864396 632.310651 
L 1048.471268 632.229392 
L 1045.078139 632.229382 
L 1041.685011 633.632182 
L 1038.291882 633.43452 
L 1034.898753 632.229382 
L 1031.505625 632.229382 
L 1028.112496 632.229382 
L 1024.719368 632.229382 
L 1021.326239 632.229382 
L 1017.93311 632.229382 
L 1014.539982 632.313281 
L 1011.146853 632.229382 
L 1007.753725 632.229382 
L 1004.360596 632.229382 
L 1000.967467 632.229572 
L 997.574339 632.241122 
L 994.18121 632.230812 
L 990.788081 642.354053 
L 987.394953 632.29806 
L 984.001824 632.229382 
L 980.608696 632.229382 
L 977.215567 632.229382 
L 973.822438 632.229382 
L 970.42931 632.259102 
L 967.036181 632.645173 
L 963.643053 632.234492 
L 960.249924 632.365744 
L 956.856795 632.229382 
L 953.463667 632.23061 
L 950.070538 632.271039 
L 946.67741 632.229382 
L 943.284281 632.245202 
L 939.891152 632.229382 
L 936.498024 632.229382 
L 933.104895 632.292208 
L 929.711766 632.229382 
L 926.318638 632.229457 
L 922.925509 632.229382 
L 919.532381 632.229443 
L 916.139252 632.229382 
L 912.746123 632.868893 
L 909.352995 632.229382 
L 905.959866 632.40616 
L 902.566738 632.230876 
L 899.173609 632.229382 
L 895.78048 632.229382 
L 892.387352 632.229382 
L 888.994223 632.434214 
L 885.601095 632.508763 
L 882.207966 633.813758 
L 878.814837 632.55693 
L 875.421709 632.364927 
L 872.02858 632.229382 
L 868.635452 632.229382 
L 865.242323 632.232022 
L 861.849194 632.229382 
L 858.456066 632.229382 
L 855.062937 632.229382 
L 851.669808 632.229437 
L 848.27668 632.239937 
L 844.883551 632.329528 
L 841.490423 632.229382 
L 838.097294 632.231079 
L 834.704165 632.229382 
L 831.311037 633.603202 
L 827.917908 632.294391 
L 824.52478 632.370884 
L 821.131651 632.229382 
L 817.738522 633.406892 
L 814.345394 632.240269 
L 810.952265 632.280907 
L 807.559137 632.229382 
L 804.166008 632.484573 
L 800.772879 632.394943 
L 797.379751 632.229382 
L 793.986622 707.901138 
L 790.593493 632.25594 
L 787.200365 632.229382 
L 783.807236 632.23288 
L 780.414108 632.577269 
L 777.020979 632.229382 
L 773.62785 632.229382 
L 770.234722 644.8183 
L 766.841593 632.448802 
L 763.448465 632.318423 
L 760.055336 632.251212 
L 756.662207 632.316555 
L 753.269079 632.367792 
L 749.87595 633.587001 
L 746.482822 632.229382 
L 743.089693 646.489143 
L 739.696564 663.386263 
L 736.303436 670.872933 
L 732.910307 632.229382 
L 729.517178 634.132417 
L 726.12405 634.901348 
L 722.730921 644.366666 
L 719.337793 674.953552 
L 715.944664 633.051079 
L 712.551535 632.588783 
L 709.158407 632.883794 
L 705.765278 666.936274 
L 702.37215 669.030937 
L 698.979021 693.18135 
L 695.585892 704.533739 
L 692.192764 698.445447 
L 688.799635 689.562543 
L 685.406507 703.211724 
L 682.013378 702.198082 
L 678.620249 683.583305 
L 675.227121 681.437443 
L 671.833992 691.494605 
L 668.440863 707.799102 
L 665.047735 695.298177 
L 661.654606 646.271821 
L 658.261478 633.279203 
L 654.868349 704.450627 
L 651.47522 701.561503 
L 648.082092 679.412599 
L 644.688963 690.858266 
L 641.295835 698.604844 
L 637.902706 698.063206 
L 634.509577 698.415744 
L 631.116449 710.655645 
L 627.72332 682.908128 
L 624.330192 693.172622 
L 620.937063 634.884966 
L 617.543934 686.977349 
L 614.150806 702.928278 
L 610.757677 681.501092 
L 607.364548 677.622954 
L 603.97142 692.201431 
L 600.578291 698.963102 
L 597.185163 701.235381 
L 593.792034 706.684156 
L 590.398905 713.97434 
L 587.005777 692.243152 
L 583.612648 697.464396 
L 580.21952 699.449701 
L 576.826391 711.026842 
L 573.433262 711.786535 
L 570.040134 673.994324 
L 566.647005 701.213264 
L 563.253877 695.771573 
L 559.860748 698.928376 
L 556.467619 708.195958 
L 553.074491 715.812331 
L 549.681362 694.994929 
L 546.288234 699.62603 
L 542.895105 713.499014 
L 539.501976 716.988343 
L 536.108848 710.973293 
L 532.715719 709.381507 
L 529.32259 707.539254 
L 525.929462 704.403005 
L 522.536333 714.241659 
L 519.143205 709.642016 
L 515.750076 708.744198 
L 512.356947 704.54907 
L 508.963819 690.76682 
L 505.57069 715.113296 
L 502.177562 715.334163 
L 498.784433 717.569518 
L 495.391304 718.959785 
L 491.998176 712.777969 
L 488.605047 714.256135 
L 485.211919 710.340142 
L 481.81879 719.365637 
L 478.425661 715.571666 
L 475.032533 720.431544 
L 471.639404 715.080253 
L 468.246275 723.423714 
L 464.853147 718.901815 
L 461.460018 725.082419 
L 458.06689 724.977221 
L 454.673761 722.219561 
L 451.280632 724.152889 
L 447.887504 725.147956 
L 444.494375 722.211981 
L 441.101247 720.560343 
L 437.708118 711.02599 
L 434.314989 726.349091 
L 430.921861 725.260884 
L 427.528732 722.179917 
L 424.135604 714.592761 
L 420.742475 715.480338 
L 417.349346 611.851002 
L 413.956218 674.442618 
L 410.563089 681.267631 
L 407.16996 683.43156 
L 403.776832 648.402239 
L 400.383703 608.424164 
L 396.990575 624.727814 
L 393.597446 515.68735 
L 390.204317 566.788277 
L 386.811189 527.707597 
L 383.41806 540.345843 
L 380.024932 559.552548 
L 376.631803 591.867889 
L 373.238674 547.962141 
L 369.845546 513.433461 
L 366.452417 518.415289 
L 363.059289 560.346805 
L 359.66616 567.979807 
L 356.273031 638.571661 
L 352.879903 590.549489 
L 349.486774 573.862566 
L 346.093645 614.876619 
L 342.700517 542.056302 
L 339.307388 445.649121 
L 335.91426 580.880346 
L 332.521131 628.2439 
L 329.128002 614.252193 
L 325.734874 583.47772 
L 322.341745 615.899513 
L 318.948617 595.472554 
L 315.555488 569.320651 
L 312.162359 587.172839 
L 308.769231 527.794417 
L 305.376102 500.739237 
L 301.982974 506.623424 
L 298.589845 506.292385 
L 295.196716 502.124957 
L 291.803588 339.648445 
L 288.410459 308.355378 
L 285.01733 325.688078 
L 281.624202 283.630585 
L 278.231073 268.487142 
L 274.837945 266.01533 
L 271.444816 274.166545 
L 268.051687 262.177086 
L 264.658559 267.235035 
L 261.26543 264.881149 
L 257.872302 255.712883 
L 254.479173 251.25032 
L 251.086044 256.065267 
L 247.692916 279.912708 
L 244.299787 253.266957 
L 240.906659 266.240017 
L 237.51353 274.497945 
L 234.120401 257.174906 
L 230.727273 168.230719 
z
" style="fill:#1f77b4;fill-opacity:0.4;"/>
   </g>
   <g id="matplotlib.axis_1">
    <g id="xtick_1">
     <g id="line2d_1">
      <defs>
       <path d="M 0 0 
L 0 3.5 
" id="m0c33a95fae" style="stroke:#000000;stroke-width:0.8;"/>
      </defs>
      <g>
       <use style="stroke:#000000;stroke-width:0.8;" x="230.727273" xlink:href="#m0c33a95fae" y="756"/>
      </g>
     </g>
     <g id="text_1">
      <!-- 0 -->
      <g transform="translate(227.546023 770.598438)scale(0.1 -0.1)">
       <defs>
        <path d="M 31.78125 66.40625 
Q 24.171875 66.40625 20.328125 58.90625 
Q 16.5 51.421875 16.5 36.375 
Q 16.5 21.390625 20.328125 13.890625 
Q 24.171875 6.390625 31.78125 6.390625 
Q 39.453125 6.390625 43.28125 13.890625 
Q 47.125 21.390625 47.125 36.375 
Q 47.125 51.421875 43.28125 58.90625 
Q 39.453125 66.40625 31.78125 66.40625 
z
M 31.78125 74.21875 
Q 44.046875 74.21875 50.515625 64.515625 
Q 56.984375 54.828125 56.984375 36.375 
Q 56.984375 17.96875 50.515625 8.265625 
Q 44.046875 -1.421875 31.78125 -1.421875 
Q 19.53125 -1.421875 13.0625 8.265625 
Q 6.59375 17.96875 6.59375 36.375 
Q 6.59375 54.828125 13.0625 64.515625 
Q 19.53125 74.21875 31.78125 74.21875 
z
" id="DejaVuSans-48"/>
       </defs>
       <use xlink:href="#DejaVuSans-48"/>
      </g>
     </g>
    </g>
    <g id="xtick_2">
     <g id="line2d_2">
      <g>
       <use style="stroke:#000000;stroke-width:0.8;" x="433.638393" xlink:href="#m0c33a95fae" y="756"/>
      </g>
     </g>
     <g id="text_2">
      <!-- 20000 -->
      <g transform="translate(417.732143 770.598438)scale(0.1 -0.1)">
       <defs>
        <path d="M 19.1875 8.296875 
L 53.609375 8.296875 
L 53.609375 0 
L 7.328125 0 
L 7.328125 8.296875 
Q 12.9375 14.109375 22.625 23.890625 
Q 32.328125 33.6875 34.8125 36.53125 
Q 39.546875 41.84375 41.421875 45.53125 
Q 43.3125 49.21875 43.3125 52.78125 
Q 43.3125 58.59375 39.234375 62.25 
Q 35.15625 65.921875 28.609375 65.921875 
Q 23.96875 65.921875 18.8125 64.3125 
Q 13.671875 62.703125 7.8125 59.421875 
L 7.8125 69.390625 
Q 13.765625 71.78125 18.9375 73 
Q 24.125 74.21875 28.421875 74.21875 
Q 39.75 74.21875 46.484375 68.546875 
Q 53.21875 62.890625 53.21875 53.421875 
Q 53.21875 48.921875 51.53125 44.890625 
Q 49.859375 40.875 45.40625 35.40625 
Q 44.1875 33.984375 37.640625 27.21875 
Q 31.109375 20.453125 19.1875 8.296875 
z
" id="DejaVuSans-50"/>
       </defs>
       <use xlink:href="#DejaVuSans-50"/>
       <use x="63.623047" xlink:href="#DejaVuSans-48"/>
       <use x="127.246094" xlink:href="#DejaVuSans-48"/>
       <use x="190.869141" xlink:href="#DejaVuSans-48"/>
       <use x="254.492188" xlink:href="#DejaVuSans-48"/>
      </g>
     </g>
    </g>
    <g id="xtick_3">
     <g id="line2d_3">
      <g>
       <use style="stroke:#000000;stroke-width:0.8;" x="636.549513" xlink:href="#m0c33a95fae" y="756"/>
      </g>
     </g>
     <g id="text_3">
      <!-- 40000 -->
      <g transform="translate(620.643263 770.598438)scale(0.1 -0.1)">
       <defs>
        <path d="M 37.796875 64.3125 
L 12.890625 25.390625 
L 37.796875 25.390625 
z
M 35.203125 72.90625 
L 47.609375 72.90625 
L 47.609375 25.390625 
L 58.015625 25.390625 
L 58.015625 17.1875 
L 47.609375 17.1875 
L 47.609375 0 
L 37.796875 0 
L 37.796875 17.1875 
L 4.890625 17.1875 
L 4.890625 26.703125 
z
" id="DejaVuSans-52"/>
       </defs>
       <use xlink:href="#DejaVuSans-52"/>
       <use x="63.623047" xlink:href="#DejaVuSans-48"/>
       <use x="127.246094" xlink:href="#DejaVuSans-48"/>
       <use x="190.869141" xlink:href="#DejaVuSans-48"/>
       <use x="254.492188" xlink:href="#DejaVuSans-48"/>
      </g>
     </g>
    </g>
    <g id="xtick_4">
     <g id="line2d_4">
      <g>
       <use style="stroke:#000000;stroke-width:0.8;" x="839.460633" xlink:href="#m0c33a95fae" y="756"/>
      </g>
     </g>
     <g id="text_4">
      <!-- 60000 -->
      <g transform="translate(823.554383 770.598438)scale(0.1 -0.1)">
       <defs>
        <path d="M 33.015625 40.375 
Q 26.375 40.375 22.484375 35.828125 
Q 18.609375 31.296875 18.609375 23.390625 
Q 18.609375 15.53125 22.484375 10.953125 
Q 26.375 6.390625 33.015625 6.390625 
Q 39.65625 6.390625 43.53125 10.953125 
Q 47.40625 15.53125 47.40625 23.390625 
Q 47.40625 31.296875 43.53125 35.828125 
Q 39.65625 40.375 33.015625 40.375 
z
M 52.59375 71.296875 
L 52.59375 62.3125 
Q 48.875 64.0625 45.09375 64.984375 
Q 41.3125 65.921875 37.59375 65.921875 
Q 27.828125 65.921875 22.671875 59.328125 
Q 17.53125 52.734375 16.796875 39.40625 
Q 19.671875 43.65625 24.015625 45.921875 
Q 28.375 48.1875 33.59375 48.1875 
Q 44.578125 48.1875 50.953125 41.515625 
Q 57.328125 34.859375 57.328125 23.390625 
Q 57.328125 12.15625 50.6875 5.359375 
Q 44.046875 -1.421875 33.015625 -1.421875 
Q 20.359375 -1.421875 13.671875 8.265625 
Q 6.984375 17.96875 6.984375 36.375 
Q 6.984375 53.65625 15.1875 63.9375 
Q 23.390625 74.21875 37.203125 74.21875 
Q 40.921875 74.21875 44.703125 73.484375 
Q 48.484375 72.75 52.59375 71.296875 
z
" id="DejaVuSans-54"/>
       </defs>
       <use xlink:href="#DejaVuSans-54"/>
       <use x="63.623047" xlink:href="#DejaVuSans-48"/>
       <use x="127.246094" xlink:href="#DejaVuSans-48"/>
       <use x="190.869141" xlink:href="#DejaVuSans-48"/>
       <use x="254.492188" xlink:href="#DejaVuSans-48"/>
      </g>
     </g>
    </g>
    <g id="xtick_5">
     <g id="line2d_5">
      <g>
       <use style="stroke:#000000;stroke-width:0.8;" x="1042.371753" xlink:href="#m0c33a95fae" y="756"/>
      </g>
     </g>
     <g id="text_5">
      <!-- 80000 -->
      <g transform="translate(1026.465503 770.598438)scale(0.1 -0.1)">
       <defs>
        <path d="M 31.78125 34.625 
Q 24.75 34.625 20.71875 30.859375 
Q 16.703125 27.09375 16.703125 20.515625 
Q 16.703125 13.921875 20.71875 10.15625 
Q 24.75 6.390625 31.78125 6.390625 
Q 38.8125 6.390625 42.859375 10.171875 
Q 46.921875 13.96875 46.921875 20.515625 
Q 46.921875 27.09375 42.890625 30.859375 
Q 38.875 34.625 31.78125 34.625 
z
M 21.921875 38.8125 
Q 15.578125 40.375 12.03125 44.71875 
Q 8.5 49.078125 8.5 55.328125 
Q 8.5 64.0625 14.71875 69.140625 
Q 20.953125 74.21875 31.78125 74.21875 
Q 42.671875 74.21875 48.875 69.140625 
Q 55.078125 64.0625 55.078125 55.328125 
Q 55.078125 49.078125 51.53125 44.71875 
Q 48 40.375 41.703125 38.8125 
Q 48.828125 37.15625 52.796875 32.3125 
Q 56.78125 27.484375 56.78125 20.515625 
Q 56.78125 9.90625 50.3125 4.234375 
Q 43.84375 -1.421875 31.78125 -1.421875 
Q 19.734375 -1.421875 13.25 4.234375 
Q 6.78125 9.90625 6.78125 20.515625 
Q 6.78125 27.484375 10.78125 32.3125 
Q 14.796875 37.15625 21.921875 38.8125 
z
M 18.3125 54.390625 
Q 18.3125 48.734375 21.84375 45.5625 
Q 25.390625 42.390625 31.78125 42.390625 
Q 38.140625 42.390625 41.71875 45.5625 
Q 45.3125 48.734375 45.3125 54.390625 
Q 45.3125 60.0625 41.71875 63.234375 
Q 38.140625 66.40625 31.78125 66.40625 
Q 25.390625 66.40625 21.84375 63.234375 
Q 18.3125 60.0625 18.3125 54.390625 
z
" id="DejaVuSans-56"/>
       </defs>
       <use xlink:href="#DejaVuSans-56"/>
       <use x="63.623047" xlink:href="#DejaVuSans-48"/>
       <use x="127.246094" xlink:href="#DejaVuSans-48"/>
       <use x="190.869141" xlink:href="#DejaVuSans-48"/>
       <use x="254.492188" xlink:href="#DejaVuSans-48"/>
      </g>
     </g>
    </g>
    <g id="xtick_6">
     <g id="line2d_6">
      <g>
       <use style="stroke:#000000;stroke-width:0.8;" x="1245.282873" xlink:href="#m0c33a95fae" y="756"/>
      </g>
     </g>
     <g id="text_6">
      <!-- 100000 -->
      <g transform="translate(1226.195373 770.598438)scale(0.1 -0.1)">
       <defs>
        <path d="M 12.40625 8.296875 
L 28.515625 8.296875 
L 28.515625 63.921875 
L 10.984375 60.40625 
L 10.984375 69.390625 
L 28.421875 72.90625 
L 38.28125 72.90625 
L 38.28125 8.296875 
L 54.390625 8.296875 
L 54.390625 0 
L 12.40625 0 
z
" id="DejaVuSans-49"/>
       </defs>
       <use xlink:href="#DejaVuSans-49"/>
       <use x="63.623047" xlink:href="#DejaVuSans-48"/>
       <use x="127.246094" xlink:href="#DejaVuSans-48"/>
       <use x="190.869141" xlink:href="#DejaVuSans-48"/>
       <use x="254.492188" xlink:href="#DejaVuSans-48"/>
       <use x="318.115234" xlink:href="#DejaVuSans-48"/>
      </g>
     </g>
    </g>
    <g id="text_7">
     <!-- Iterations $\to$ -->
     <g transform="translate(708.4 784.276562)scale(0.1 -0.1)">
      <defs>
       <path d="M 9.8125 72.90625 
L 19.671875 72.90625 
L 19.671875 0 
L 9.8125 0 
z
" id="DejaVuSans-73"/>
       <path d="M 18.3125 70.21875 
L 18.3125 54.6875 
L 36.8125 54.6875 
L 36.8125 47.703125 
L 18.3125 47.703125 
L 18.3125 18.015625 
Q 18.3125 11.328125 20.140625 9.421875 
Q 21.96875 7.515625 27.59375 7.515625 
L 36.8125 7.515625 
L 36.8125 0 
L 27.59375 0 
Q 17.1875 0 13.234375 3.875 
Q 9.28125 7.765625 9.28125 18.015625 
L 9.28125 47.703125 
L 2.6875 47.703125 
L 2.6875 54.6875 
L 9.28125 54.6875 
L 9.28125 70.21875 
z
" id="DejaVuSans-116"/>
       <path d="M 56.203125 29.59375 
L 56.203125 25.203125 
L 14.890625 25.203125 
Q 15.484375 15.921875 20.484375 11.0625 
Q 25.484375 6.203125 34.421875 6.203125 
Q 39.59375 6.203125 44.453125 7.46875 
Q 49.3125 8.734375 54.109375 11.28125 
L 54.109375 2.78125 
Q 49.265625 0.734375 44.1875 -0.34375 
Q 39.109375 -1.421875 33.890625 -1.421875 
Q 20.796875 -1.421875 13.15625 6.1875 
Q 5.515625 13.8125 5.515625 26.8125 
Q 5.515625 40.234375 12.765625 48.109375 
Q 20.015625 56 32.328125 56 
Q 43.359375 56 49.78125 48.890625 
Q 56.203125 41.796875 56.203125 29.59375 
z
M 47.21875 32.234375 
Q 47.125 39.59375 43.09375 43.984375 
Q 39.0625 48.390625 32.421875 48.390625 
Q 24.90625 48.390625 20.390625 44.140625 
Q 15.875 39.890625 15.1875 32.171875 
z
" id="DejaVuSans-101"/>
       <path d="M 41.109375 46.296875 
Q 39.59375 47.171875 37.8125 47.578125 
Q 36.03125 48 33.890625 48 
Q 26.265625 48 22.1875 43.046875 
Q 18.109375 38.09375 18.109375 28.8125 
L 18.109375 0 
L 9.078125 0 
L 9.078125 54.6875 
L 18.109375 54.6875 
L 18.109375 46.1875 
Q 20.953125 51.171875 25.484375 53.578125 
Q 30.03125 56 36.53125 56 
Q 37.453125 56 38.578125 55.875 
Q 39.703125 55.765625 41.0625 55.515625 
z
" id="DejaVuSans-114"/>
       <path d="M 34.28125 27.484375 
Q 23.390625 27.484375 19.1875 25 
Q 14.984375 22.515625 14.984375 16.5 
Q 14.984375 11.71875 18.140625 8.90625 
Q 21.296875 6.109375 26.703125 6.109375 
Q 34.1875 6.109375 38.703125 11.40625 
Q 43.21875 16.703125 43.21875 25.484375 
L 43.21875 27.484375 
z
M 52.203125 31.203125 
L 52.203125 0 
L 43.21875 0 
L 43.21875 8.296875 
Q 40.140625 3.328125 35.546875 0.953125 
Q 30.953125 -1.421875 24.3125 -1.421875 
Q 15.921875 -1.421875 10.953125 3.296875 
Q 6 8.015625 6 15.921875 
Q 6 25.140625 12.171875 29.828125 
Q 18.359375 34.515625 30.609375 34.515625 
L 43.21875 34.515625 
L 43.21875 35.40625 
Q 43.21875 41.609375 39.140625 45 
Q 35.0625 48.390625 27.6875 48.390625 
Q 23 48.390625 18.546875 47.265625 
Q 14.109375 46.140625 10.015625 43.890625 
L 10.015625 52.203125 
Q 14.9375 54.109375 19.578125 55.046875 
Q 24.21875 56 28.609375 56 
Q 40.484375 56 46.34375 49.84375 
Q 52.203125 43.703125 52.203125 31.203125 
z
" id="DejaVuSans-97"/>
       <path d="M 9.421875 54.6875 
L 18.40625 54.6875 
L 18.40625 0 
L 9.421875 0 
z
M 9.421875 75.984375 
L 18.40625 75.984375 
L 18.40625 64.59375 
L 9.421875 64.59375 
z
" id="DejaVuSans-105"/>
       <path d="M 30.609375 48.390625 
Q 23.390625 48.390625 19.1875 42.75 
Q 14.984375 37.109375 14.984375 27.296875 
Q 14.984375 17.484375 19.15625 11.84375 
Q 23.34375 6.203125 30.609375 6.203125 
Q 37.796875 6.203125 41.984375 11.859375 
Q 46.1875 17.53125 46.1875 27.296875 
Q 46.1875 37.015625 41.984375 42.703125 
Q 37.796875 48.390625 30.609375 48.390625 
z
M 30.609375 56 
Q 42.328125 56 49.015625 48.375 
Q 55.71875 40.765625 55.71875 27.296875 
Q 55.71875 13.875 49.015625 6.21875 
Q 42.328125 -1.421875 30.609375 -1.421875 
Q 18.84375 -1.421875 12.171875 6.21875 
Q 5.515625 13.875 5.515625 27.296875 
Q 5.515625 40.765625 12.171875 48.375 
Q 18.84375 56 30.609375 56 
z
" id="DejaVuSans-111"/>
       <path d="M 54.890625 33.015625 
L 54.890625 0 
L 45.90625 0 
L 45.90625 32.71875 
Q 45.90625 40.484375 42.875 44.328125 
Q 39.84375 48.1875 33.796875 48.1875 
Q 26.515625 48.1875 22.3125 43.546875 
Q 18.109375 38.921875 18.109375 30.90625 
L 18.109375 0 
L 9.078125 0 
L 9.078125 54.6875 
L 18.109375 54.6875 
L 18.109375 46.1875 
Q 21.34375 51.125 25.703125 53.5625 
Q 30.078125 56 35.796875 56 
Q 45.21875 56 50.046875 50.171875 
Q 54.890625 44.34375 54.890625 33.015625 
z
" id="DejaVuSans-110"/>
       <path d="M 44.28125 53.078125 
L 44.28125 44.578125 
Q 40.484375 46.53125 36.375 47.5 
Q 32.28125 48.484375 27.875 48.484375 
Q 21.1875 48.484375 17.84375 46.4375 
Q 14.5 44.390625 14.5 40.28125 
Q 14.5 37.15625 16.890625 35.375 
Q 19.28125 33.59375 26.515625 31.984375 
L 29.59375 31.296875 
Q 39.15625 29.25 43.1875 25.515625 
Q 47.21875 21.78125 47.21875 15.09375 
Q 47.21875 7.46875 41.1875 3.015625 
Q 35.15625 -1.421875 24.609375 -1.421875 
Q 20.21875 -1.421875 15.453125 -0.5625 
Q 10.6875 0.296875 5.421875 2 
L 5.421875 11.28125 
Q 10.40625 8.6875 15.234375 7.390625 
Q 20.0625 6.109375 24.8125 6.109375 
Q 31.15625 6.109375 34.5625 8.28125 
Q 37.984375 10.453125 37.984375 14.40625 
Q 37.984375 18.0625 35.515625 20.015625 
Q 33.0625 21.96875 24.703125 23.78125 
L 21.578125 24.515625 
Q 13.234375 26.265625 9.515625 29.90625 
Q 5.8125 33.546875 5.8125 39.890625 
Q 5.8125 47.609375 11.28125 51.796875 
Q 16.75 56 26.8125 56 
Q 31.78125 56 36.171875 55.265625 
Q 40.578125 54.546875 44.28125 53.078125 
z
" id="DejaVuSans-115"/>
       <path id="DejaVuSans-32"/>
       <path d="M 78.90625 33.546875 
L 78.90625 29.15625 
L 59.71875 9.96875 
L 53.859375 15.828125 
L 65.234375 27.203125 
L 5.71875 27.203125 
L 5.71875 35.5 
L 65.234375 35.5 
L 53.859375 46.875 
L 59.71875 52.734375 
z
" id="DejaVuSans-8594"/>
      </defs>
      <use transform="translate(0 0.015625)" xlink:href="#DejaVuSans-73"/>
      <use transform="translate(29.492188 0.015625)" xlink:href="#DejaVuSans-116"/>
      <use transform="translate(68.701172 0.015625)" xlink:href="#DejaVuSans-101"/>
      <use transform="translate(130.224609 0.015625)" xlink:href="#DejaVuSans-114"/>
      <use transform="translate(171.337891 0.015625)" xlink:href="#DejaVuSans-97"/>
      <use transform="translate(232.617188 0.015625)" xlink:href="#DejaVuSans-116"/>
      <use transform="translate(271.826172 0.015625)" xlink:href="#DejaVuSans-105"/>
      <use transform="translate(299.609375 0.015625)" xlink:href="#DejaVuSans-111"/>
      <use transform="translate(360.791016 0.015625)" xlink:href="#DejaVuSans-110"/>
      <use transform="translate(424.169922 0.015625)" xlink:href="#DejaVuSans-115"/>
      <use transform="translate(476.269531 0.015625)" xlink:href="#DejaVuSans-32"/>
      <use transform="translate(508.056641 0.015625)" xlink:href="#DejaVuSans-8594"/>
     </g>
    </g>
   </g>
   <g id="matplotlib.axis_2">
    <g id="ytick_1">
     <g id="line2d_7">
      <defs>
       <path d="M 0 0 
L -3.5 0 
" id="m7836b9b97d" style="stroke:#000000;stroke-width:0.8;"/>
      </defs>
      <g>
       <use style="stroke:#000000;stroke-width:0.8;" x="180" xlink:href="#m7836b9b97d" y="709.320984"/>
      </g>
     </g>
     <g id="text_8">
      <!-- −2 -->
      <g transform="translate(158.257812 713.120203)scale(0.1 -0.1)">
       <defs>
        <path d="M 10.59375 35.5 
L 73.1875 35.5 
L 73.1875 27.203125 
L 10.59375 27.203125 
z
" id="DejaVuSans-8722"/>
       </defs>
       <use xlink:href="#DejaVuSans-8722"/>
       <use x="83.789062" xlink:href="#DejaVuSans-50"/>
      </g>
     </g>
    </g>
    <g id="ytick_2">
     <g id="line2d_8">
      <g>
       <use style="stroke:#000000;stroke-width:0.8;" x="180" xlink:href="#m7836b9b97d" y="632.229382"/>
      </g>
     </g>
     <g id="text_9">
      <!-- 0 -->
      <g transform="translate(166.6375 636.028601)scale(0.1 -0.1)">
       <use xlink:href="#DejaVuSans-48"/>
      </g>
     </g>
    </g>
    <g id="ytick_3">
     <g id="line2d_9">
      <g>
       <use style="stroke:#000000;stroke-width:0.8;" x="180" xlink:href="#m7836b9b97d" y="555.13778"/>
      </g>
     </g>
     <g id="text_10">
      <!-- 2 -->
      <g transform="translate(166.6375 558.936998)scale(0.1 -0.1)">
       <use xlink:href="#DejaVuSans-50"/>
      </g>
     </g>
    </g>
    <g id="ytick_4">
     <g id="line2d_10">
      <g>
       <use style="stroke:#000000;stroke-width:0.8;" x="180" xlink:href="#m7836b9b97d" y="478.046177"/>
      </g>
     </g>
     <g id="text_11">
      <!-- 4 -->
      <g transform="translate(166.6375 481.845396)scale(0.1 -0.1)">
       <use xlink:href="#DejaVuSans-52"/>
      </g>
     </g>
    </g>
    <g id="ytick_5">
     <g id="line2d_11">
      <g>
       <use style="stroke:#000000;stroke-width:0.8;" x="180" xlink:href="#m7836b9b97d" y="400.954575"/>
      </g>
     </g>
     <g id="text_12">
      <!-- 6 -->
      <g transform="translate(166.6375 404.753794)scale(0.1 -0.1)">
       <use xlink:href="#DejaVuSans-54"/>
      </g>
     </g>
    </g>
    <g id="ytick_6">
     <g id="line2d_12">
      <g>
       <use style="stroke:#000000;stroke-width:0.8;" x="180" xlink:href="#m7836b9b97d" y="323.862973"/>
      </g>
     </g>
     <g id="text_13">
      <!-- 8 -->
      <g transform="translate(166.6375 327.662192)scale(0.1 -0.1)">
       <use xlink:href="#DejaVuSans-56"/>
      </g>
     </g>
    </g>
    <g id="ytick_7">
     <g id="line2d_13">
      <g>
       <use style="stroke:#000000;stroke-width:0.8;" x="180" xlink:href="#m7836b9b97d" y="246.771371"/>
      </g>
     </g>
     <g id="text_14">
      <!-- 10 -->
      <g transform="translate(160.275 250.57059)scale(0.1 -0.1)">
       <use xlink:href="#DejaVuSans-49"/>
       <use x="63.623047" xlink:href="#DejaVuSans-48"/>
      </g>
     </g>
    </g>
    <g id="ytick_8">
     <g id="line2d_14">
      <g>
       <use style="stroke:#000000;stroke-width:0.8;" x="180" xlink:href="#m7836b9b97d" y="169.679769"/>
      </g>
     </g>
     <g id="text_15">
      <!-- 12 -->
      <g transform="translate(160.275 173.478987)scale(0.1 -0.1)">
       <use xlink:href="#DejaVuSans-49"/>
       <use x="63.623047" xlink:href="#DejaVuSans-50"/>
      </g>
     </g>
    </g>
    <g id="text_16">
     <!-- Bit Error per Sequence $\to$  -->
     <g transform="translate(152.157813 494.14)rotate(-90)scale(0.1 -0.1)">
      <defs>
       <path d="M 19.671875 34.8125 
L 19.671875 8.109375 
L 35.5 8.109375 
Q 43.453125 8.109375 47.28125 11.40625 
Q 51.125 14.703125 51.125 21.484375 
Q 51.125 28.328125 47.28125 31.5625 
Q 43.453125 34.8125 35.5 34.8125 
z
M 19.671875 64.796875 
L 19.671875 42.828125 
L 34.28125 42.828125 
Q 41.5 42.828125 45.03125 45.53125 
Q 48.578125 48.25 48.578125 53.8125 
Q 48.578125 59.328125 45.03125 62.0625 
Q 41.5 64.796875 34.28125 64.796875 
z
M 9.8125 72.90625 
L 35.015625 72.90625 
Q 46.296875 72.90625 52.390625 68.21875 
Q 58.5 63.53125 58.5 54.890625 
Q 58.5 48.1875 55.375 44.234375 
Q 52.25 40.28125 46.1875 39.3125 
Q 53.46875 37.75 57.5 32.78125 
Q 61.53125 27.828125 61.53125 20.40625 
Q 61.53125 10.640625 54.890625 5.3125 
Q 48.25 0 35.984375 0 
L 9.8125 0 
z
" id="DejaVuSans-66"/>
       <path d="M 9.8125 72.90625 
L 55.90625 72.90625 
L 55.90625 64.59375 
L 19.671875 64.59375 
L 19.671875 43.015625 
L 54.390625 43.015625 
L 54.390625 34.71875 
L 19.671875 34.71875 
L 19.671875 8.296875 
L 56.78125 8.296875 
L 56.78125 0 
L 9.8125 0 
z
" id="DejaVuSans-69"/>
       <path d="M 18.109375 8.203125 
L 18.109375 -20.796875 
L 9.078125 -20.796875 
L 9.078125 54.6875 
L 18.109375 54.6875 
L 18.109375 46.390625 
Q 20.953125 51.265625 25.265625 53.625 
Q 29.59375 56 35.59375 56 
Q 45.5625 56 51.78125 48.09375 
Q 58.015625 40.1875 58.015625 27.296875 
Q 58.015625 14.40625 51.78125 6.484375 
Q 45.5625 -1.421875 35.59375 -1.421875 
Q 29.59375 -1.421875 25.265625 0.953125 
Q 20.953125 3.328125 18.109375 8.203125 
z
M 48.6875 27.296875 
Q 48.6875 37.203125 44.609375 42.84375 
Q 40.53125 48.484375 33.40625 48.484375 
Q 26.265625 48.484375 22.1875 42.84375 
Q 18.109375 37.203125 18.109375 27.296875 
Q 18.109375 17.390625 22.1875 11.75 
Q 26.265625 6.109375 33.40625 6.109375 
Q 40.53125 6.109375 44.609375 11.75 
Q 48.6875 17.390625 48.6875 27.296875 
z
" id="DejaVuSans-112"/>
       <path d="M 53.515625 70.515625 
L 53.515625 60.890625 
Q 47.90625 63.578125 42.921875 64.890625 
Q 37.9375 66.21875 33.296875 66.21875 
Q 25.25 66.21875 20.875 63.09375 
Q 16.5 59.96875 16.5 54.203125 
Q 16.5 49.359375 19.40625 46.890625 
Q 22.3125 44.4375 30.421875 42.921875 
L 36.375 41.703125 
Q 47.40625 39.59375 52.65625 34.296875 
Q 57.90625 29 57.90625 20.125 
Q 57.90625 9.515625 50.796875 4.046875 
Q 43.703125 -1.421875 29.984375 -1.421875 
Q 24.8125 -1.421875 18.96875 -0.25 
Q 13.140625 0.921875 6.890625 3.21875 
L 6.890625 13.375 
Q 12.890625 10.015625 18.65625 8.296875 
Q 24.421875 6.59375 29.984375 6.59375 
Q 38.421875 6.59375 43.015625 9.90625 
Q 47.609375 13.234375 47.609375 19.390625 
Q 47.609375 24.75 44.3125 27.78125 
Q 41.015625 30.8125 33.5 32.328125 
L 27.484375 33.5 
Q 16.453125 35.6875 11.515625 40.375 
Q 6.59375 45.0625 6.59375 53.421875 
Q 6.59375 63.09375 13.40625 68.65625 
Q 20.21875 74.21875 32.171875 74.21875 
Q 37.3125 74.21875 42.625 73.28125 
Q 47.953125 72.359375 53.515625 70.515625 
z
" id="DejaVuSans-83"/>
       <path d="M 14.796875 27.296875 
Q 14.796875 17.390625 18.875 11.75 
Q 22.953125 6.109375 30.078125 6.109375 
Q 37.203125 6.109375 41.296875 11.75 
Q 45.40625 17.390625 45.40625 27.296875 
Q 45.40625 37.203125 41.296875 42.84375 
Q 37.203125 48.484375 30.078125 48.484375 
Q 22.953125 48.484375 18.875 42.84375 
Q 14.796875 37.203125 14.796875 27.296875 
z
M 45.40625 8.203125 
Q 42.578125 3.328125 38.25 0.953125 
Q 33.9375 -1.421875 27.875 -1.421875 
Q 17.96875 -1.421875 11.734375 6.484375 
Q 5.515625 14.40625 5.515625 27.296875 
Q 5.515625 40.1875 11.734375 48.09375 
Q 17.96875 56 27.875 56 
Q 33.9375 56 38.25 53.625 
Q 42.578125 51.265625 45.40625 46.390625 
L 45.40625 54.6875 
L 54.390625 54.6875 
L 54.390625 -20.796875 
L 45.40625 -20.796875 
z
" id="DejaVuSans-113"/>
       <path d="M 8.5 21.578125 
L 8.5 54.6875 
L 17.484375 54.6875 
L 17.484375 21.921875 
Q 17.484375 14.15625 20.5 10.265625 
Q 23.53125 6.390625 29.59375 6.390625 
Q 36.859375 6.390625 41.078125 11.03125 
Q 45.3125 15.671875 45.3125 23.6875 
L 45.3125 54.6875 
L 54.296875 54.6875 
L 54.296875 0 
L 45.3125 0 
L 45.3125 8.40625 
Q 42.046875 3.421875 37.71875 1 
Q 33.40625 -1.421875 27.6875 -1.421875 
Q 18.265625 -1.421875 13.375 4.4375 
Q 8.5 10.296875 8.5 21.578125 
z
M 31.109375 56 
z
" id="DejaVuSans-117"/>
       <path d="M 48.78125 52.59375 
L 48.78125 44.1875 
Q 44.96875 46.296875 41.140625 47.34375 
Q 37.3125 48.390625 33.40625 48.390625 
Q 24.65625 48.390625 19.8125 42.84375 
Q 14.984375 37.3125 14.984375 27.296875 
Q 14.984375 17.28125 19.8125 11.734375 
Q 24.65625 6.203125 33.40625 6.203125 
Q 37.3125 6.203125 41.140625 7.25 
Q 44.96875 8.296875 48.78125 10.40625 
L 48.78125 2.09375 
Q 45.015625 0.34375 40.984375 -0.53125 
Q 36.96875 -1.421875 32.421875 -1.421875 
Q 20.0625 -1.421875 12.78125 6.34375 
Q 5.515625 14.109375 5.515625 27.296875 
Q 5.515625 40.671875 12.859375 48.328125 
Q 20.21875 56 33.015625 56 
Q 37.15625 56 41.109375 55.140625 
Q 45.0625 54.296875 48.78125 52.59375 
z
" id="DejaVuSans-99"/>
      </defs>
      <use transform="translate(0 0.015625)" xlink:href="#DejaVuSans-66"/>
      <use transform="translate(68.603516 0.015625)" xlink:href="#DejaVuSans-105"/>
      <use transform="translate(96.386719 0.015625)" xlink:href="#DejaVuSans-116"/>
      <use transform="translate(135.595703 0.015625)" xlink:href="#DejaVuSans-32"/>
      <use transform="translate(167.382812 0.015625)" xlink:href="#DejaVuSans-69"/>
      <use transform="translate(230.566406 0.015625)" xlink:href="#DejaVuSans-114"/>
      <use transform="translate(271.679688 0.015625)" xlink:href="#DejaVuSans-114"/>
      <use transform="translate(312.792969 0.015625)" xlink:href="#DejaVuSans-111"/>
      <use transform="translate(373.974609 0.015625)" xlink:href="#DejaVuSans-114"/>
      <use transform="translate(415.087891 0.015625)" xlink:href="#DejaVuSans-32"/>
      <use transform="translate(446.875 0.015625)" xlink:href="#DejaVuSans-112"/>
      <use transform="translate(510.351562 0.015625)" xlink:href="#DejaVuSans-101"/>
      <use transform="translate(571.875 0.015625)" xlink:href="#DejaVuSans-114"/>
      <use transform="translate(612.988281 0.015625)" xlink:href="#DejaVuSans-32"/>
      <use transform="translate(644.775391 0.015625)" xlink:href="#DejaVuSans-83"/>
      <use transform="translate(708.251953 0.015625)" xlink:href="#DejaVuSans-101"/>
      <use transform="translate(769.775391 0.015625)" xlink:href="#DejaVuSans-113"/>
      <use transform="translate(833.251953 0.015625)" xlink:href="#DejaVuSans-117"/>
      <use transform="translate(896.630859 0.015625)" xlink:href="#DejaVuSans-101"/>
      <use transform="translate(958.154297 0.015625)" xlink:href="#DejaVuSans-110"/>
      <use transform="translate(1021.533203 0.015625)" xlink:href="#DejaVuSans-99"/>
      <use transform="translate(1076.513672 0.015625)" xlink:href="#DejaVuSans-101"/>
      <use transform="translate(1138.037109 0.015625)" xlink:href="#DejaVuSans-32"/>
      <use transform="translate(1169.824219 0.015625)" xlink:href="#DejaVuSans-8594"/>
      <use transform="translate(1253.613281 0.015625)" xlink:href="#DejaVuSans-32"/>
     </g>
    </g>
   </g>
   <g id="line2d_15">
    <path clip-path="url(#p060964292c)" d="M 230.727273 150.780814 
L 234.120401 247.883366 
L 237.51353 253.029087 
L 240.906659 252.811016 
L 244.299787 248.348585 
L 247.692916 263.839702 
L 251.086044 252.533161 
L 254.479173 245.41756 
L 257.872302 248.129925 
L 261.26543 253.409015 
L 264.658559 257.564916 
L 268.051687 253.94492 
L 271.444816 258.832242 
L 274.837945 255.70605 
L 278.231073 260.313286 
L 281.624202 270.354613 
L 285.01733 281.919169 
L 288.410459 276.255959 
L 291.803588 287.996834 
L 295.196716 354.401608 
L 298.589845 346.319631 
L 301.982974 346.367517 
L 305.376102 351.804727 
L 308.769231 369.580745 
L 312.162359 396.536535 
L 315.555488 394.915299 
L 318.948617 413.097102 
L 322.341745 416.552187 
L 325.734874 410.47646 
L 329.128002 420.66772 
L 332.521131 432.249295 
L 335.91426 402.03185 
L 339.307388 344.565782 
L 346.093645 435.322549 
L 349.486774 407.813101 
L 352.879903 410.812163 
L 356.273031 446.165346 
L 359.66616 401.90633 
L 363.059289 395.491662 
L 366.452417 352.793487 
L 369.845546 351.60812 
L 373.238674 392.685444 
L 376.631803 425.914504 
L 380.024932 385.875614 
L 383.41806 370.662879 
L 386.811189 364.873473 
L 390.204317 385.556518 
L 393.597446 358.161358 
L 396.990575 440.303063 
L 400.383703 444.558039 
L 403.776832 473.235988 
L 407.16996 522.648351 
L 410.563089 502.500707 
L 413.956218 501.408622 
L 417.349346 448.343216 
L 420.742475 553.659373 
L 424.135604 549.788585 
L 427.528732 559.17767 
L 430.921861 556.783859 
L 434.314989 556.029511 
L 437.708118 550.172656 
L 441.101247 556.243394 
L 444.494375 559.337028 
L 447.887504 558.043238 
L 451.280632 557.752547 
L 454.673761 555.084972 
L 458.06689 557.271162 
L 461.460018 557.005689 
L 464.853147 562.149025 
L 468.246275 558.698224 
L 471.639404 565.290715 
L 475.032533 560.201009 
L 478.425661 565.752236 
L 481.81879 561.300895 
L 485.211919 569.231907 
L 488.605047 565.947198 
L 491.998176 566.728916 
L 495.391304 562.033668 
L 498.784433 563.07642 
L 502.177562 566.002585 
L 505.57069 565.152852 
L 508.963819 582.117671 
L 512.356947 573.575111 
L 515.750076 570.333415 
L 519.143205 569.602382 
L 522.536333 565.936506 
L 525.929462 573.974073 
L 529.32259 565.367181 
L 532.715719 569.845447 
L 536.108848 568.489251 
L 539.501976 562.60386 
L 542.895105 566.492168 
L 546.288234 576.555965 
L 549.681362 578.894242 
L 553.074491 562.116577 
L 556.467619 571.169132 
L 559.860748 577.802742 
L 563.253877 580.049231 
L 566.647005 565.579925 
L 570.040134 596.776916 
L 573.433262 567.86442 
L 576.826391 568.481093 
L 580.21952 577.733855 
L 583.612648 579.450314 
L 587.005777 583.373049 
L 590.398905 565.841894 
L 593.792034 570.834662 
L 597.185163 576.411172 
L 600.578291 568.841122 
L 603.97142 583.719732 
L 607.364548 595.411892 
L 610.757677 592.304258 
L 614.150806 572.78483 
L 617.543934 587.752536 
L 620.937063 630.198945 
L 624.330192 582.928876 
L 627.72332 587.054252 
L 631.116449 568.835435 
L 634.509577 578.659413 
L 637.902706 577.257071 
L 641.295835 578.47435 
L 644.688963 584.806651 
L 648.082092 594.057649 
L 651.47522 575.885919 
L 654.868349 573.407416 
L 658.261478 631.383279 
L 661.654606 619.945334 
L 665.047735 581.205615 
L 668.440863 571.092189 
L 671.833992 582.727681 
L 675.227121 592.419289 
L 678.620249 587.987182 
L 682.013378 575.265458 
L 685.406507 574.615228 
L 688.799635 585.843195 
L 692.192764 578.084994 
L 695.585892 573.725328 
L 698.979021 582.961809 
L 702.37215 602.377444 
L 705.765278 603.981996 
L 709.158407 631.746759 
L 712.551535 631.938991 
L 715.944664 631.564488 
L 719.337793 597.663664 
L 722.730921 622.410115 
L 726.12405 630.067179 
L 729.517178 630.685035 
L 732.910307 632.229382 
L 736.303436 601.79297 
L 739.696564 607.048006 
L 743.089693 620.693051 
L 746.482822 632.229382 
L 749.87595 631.1345 
L 753.269079 632.075934 
L 760.055336 632.219165 
L 763.448465 631.850734 
L 766.841593 632.062677 
L 770.234722 621.627634 
L 773.62785 632.229382 
L 777.020979 632.229382 
L 780.414108 631.943534 
L 783.807236 632.228514 
L 790.593493 632.207896 
L 793.986622 570.663662 
L 797.379751 632.229382 
L 804.166008 632.022928 
L 807.559137 632.229382 
L 814.345394 632.220574 
L 817.738522 631.276499 
L 821.131651 632.229382 
L 824.52478 632.114904 
L 827.917908 632.177216 
L 831.311037 631.001169 
L 834.704165 632.229382 
L 841.490423 632.229382 
L 844.883551 631.969496 
L 848.27668 632.220843 
L 872.02858 632.229382 
L 878.814837 631.964876 
L 882.207966 630.947594 
L 885.601095 632.003358 
L 902.566738 632.228063 
L 905.959866 632.086365 
L 909.352995 632.229382 
L 912.746123 631.712006 
L 916.139252 632.229382 
L 956.856795 632.229382 
L 960.249924 632.112102 
L 963.643053 632.225248 
L 967.036181 631.892999 
L 970.42931 632.205338 
L 984.001824 632.229382 
L 987.394953 632.173795 
L 990.788081 623.539815 
L 994.18121 632.228225 
L 1034.898753 632.229382 
L 1038.291882 631.254425 
L 1041.685011 631.094493 
L 1045.078139 632.229382 
L 1055.257525 632.229382 
L 1058.650654 630.249839 
L 1062.043782 632.224687 
L 1095.975068 632.19607 
L 1102.761326 632.190288 
L 1109.547583 632.229382 
L 1116.33384 632.229382 
L 1119.726969 632.2293 
L 1123.120097 627.504783 
L 1126.513226 632.133889 
L 1129.906355 632.229347 
L 1133.299483 580.732365 
L 1136.692612 588.260226 
L 1140.08574 586.333821 
L 1143.478869 577.15457 
L 1146.871998 631.557342 
L 1150.265126 631.291567 
L 1153.658255 572.803978 
L 1157.051383 570.13296 
L 1160.444512 608.582709 
L 1163.837641 607.193262 
L 1167.230769 618.509129 
L 1170.623898 571.108325 
L 1174.017026 607.552295 
L 1177.410155 628.508714 
L 1180.803284 632.105282 
L 1184.196412 632.038129 
L 1187.589541 572.379821 
L 1190.98267 603.815995 
L 1194.375798 610.268378 
L 1197.768927 577.360874 
L 1201.162055 581.264432 
L 1204.555184 575.714571 
L 1207.948313 564.871887 
L 1211.341441 566.028373 
L 1214.73457 569.561876 
L 1218.127698 565.841582 
L 1221.520827 563.111679 
L 1224.913956 557.895546 
L 1228.307084 560.468192 
L 1231.700213 560.073337 
L 1235.093341 563.581506 
L 1238.48647 560.236278 
L 1241.879599 565.015335 
L 1245.272727 561.089702 
L 1245.272727 561.089702 
" style="fill:none;stroke:#000000;stroke-linecap:square;stroke-width:1.5;"/>
   </g>
   <g id="patch_3">
    <path d="M 180 756 
L 180 103.68 
" style="fill:none;stroke:#000000;stroke-linecap:square;stroke-linejoin:miter;stroke-width:0.8;"/>
   </g>
   <g id="patch_4">
    <path d="M 1296 756 
L 1296 103.68 
" style="fill:none;stroke:#000000;stroke-linecap:square;stroke-linejoin:miter;stroke-width:0.8;"/>
   </g>
   <g id="patch_5">
    <path d="M 180 756 
L 1296 756 
" style="fill:none;stroke:#000000;stroke-linecap:square;stroke-linejoin:miter;stroke-width:0.8;"/>
   </g>
   <g id="patch_6">
    <path d="M 180 103.68 
L 1296 103.68 
" style="fill:none;stroke:#000000;stroke-linecap:square;stroke-linejoin:miter;stroke-width:0.8;"/>
   </g>
   <g id="text_17">
    <!-- Matrix Copy Task learning curves -->
    <g transform="translate(638.894063 97.68)scale(0.12 -0.12)">
     <defs>
      <path d="M 9.8125 72.90625 
L 24.515625 72.90625 
L 43.109375 23.296875 
L 61.8125 72.90625 
L 76.515625 72.90625 
L 76.515625 0 
L 66.890625 0 
L 66.890625 64.015625 
L 48.09375 14.015625 
L 38.1875 14.015625 
L 19.390625 64.015625 
L 19.390625 0 
L 9.8125 0 
z
" id="DejaVuSans-77"/>
      <path d="M 54.890625 54.6875 
L 35.109375 28.078125 
L 55.90625 0 
L 45.3125 0 
L 29.390625 21.484375 
L 13.484375 0 
L 2.875 0 
L 24.125 28.609375 
L 4.6875 54.6875 
L 15.28125 54.6875 
L 29.78125 35.203125 
L 44.28125 54.6875 
z
" id="DejaVuSans-120"/>
      <path d="M 64.40625 67.28125 
L 64.40625 56.890625 
Q 59.421875 61.53125 53.78125 63.8125 
Q 48.140625 66.109375 41.796875 66.109375 
Q 29.296875 66.109375 22.65625 58.46875 
Q 16.015625 50.828125 16.015625 36.375 
Q 16.015625 21.96875 22.65625 14.328125 
Q 29.296875 6.6875 41.796875 6.6875 
Q 48.140625 6.6875 53.78125 8.984375 
Q 59.421875 11.28125 64.40625 15.921875 
L 64.40625 5.609375 
Q 59.234375 2.09375 53.4375 0.328125 
Q 47.65625 -1.421875 41.21875 -1.421875 
Q 24.65625 -1.421875 15.125 8.703125 
Q 5.609375 18.84375 5.609375 36.375 
Q 5.609375 53.953125 15.125 64.078125 
Q 24.65625 74.21875 41.21875 74.21875 
Q 47.75 74.21875 53.53125 72.484375 
Q 59.328125 70.75 64.40625 67.28125 
z
" id="DejaVuSans-67"/>
      <path d="M 32.171875 -5.078125 
Q 28.375 -14.84375 24.75 -17.8125 
Q 21.140625 -20.796875 15.09375 -20.796875 
L 7.90625 -20.796875 
L 7.90625 -13.28125 
L 13.1875 -13.28125 
Q 16.890625 -13.28125 18.9375 -11.515625 
Q 21 -9.765625 23.484375 -3.21875 
L 25.09375 0.875 
L 2.984375 54.6875 
L 12.5 54.6875 
L 29.59375 11.921875 
L 46.6875 54.6875 
L 56.203125 54.6875 
z
" id="DejaVuSans-121"/>
      <path d="M -0.296875 72.90625 
L 61.375 72.90625 
L 61.375 64.59375 
L 35.5 64.59375 
L 35.5 0 
L 25.59375 0 
L 25.59375 64.59375 
L -0.296875 64.59375 
z
" id="DejaVuSans-84"/>
      <path d="M 9.078125 75.984375 
L 18.109375 75.984375 
L 18.109375 31.109375 
L 44.921875 54.6875 
L 56.390625 54.6875 
L 27.390625 29.109375 
L 57.625 0 
L 45.90625 0 
L 18.109375 26.703125 
L 18.109375 0 
L 9.078125 0 
z
" id="DejaVuSans-107"/>
      <path d="M 9.421875 75.984375 
L 18.40625 75.984375 
L 18.40625 0 
L 9.421875 0 
z
" id="DejaVuSans-108"/>
      <path d="M 45.40625 27.984375 
Q 45.40625 37.75 41.375 43.109375 
Q 37.359375 48.484375 30.078125 48.484375 
Q 22.859375 48.484375 18.828125 43.109375 
Q 14.796875 37.75 14.796875 27.984375 
Q 14.796875 18.265625 18.828125 12.890625 
Q 22.859375 7.515625 30.078125 7.515625 
Q 37.359375 7.515625 41.375 12.890625 
Q 45.40625 18.265625 45.40625 27.984375 
z
M 54.390625 6.78125 
Q 54.390625 -7.171875 48.1875 -13.984375 
Q 42 -20.796875 29.203125 -20.796875 
Q 24.46875 -20.796875 20.265625 -20.09375 
Q 16.0625 -19.390625 12.109375 -17.921875 
L 12.109375 -9.1875 
Q 16.0625 -11.328125 19.921875 -12.34375 
Q 23.78125 -13.375 27.78125 -13.375 
Q 36.625 -13.375 41.015625 -8.765625 
Q 45.40625 -4.15625 45.40625 5.171875 
L 45.40625 9.625 
Q 42.625 4.78125 38.28125 2.390625 
Q 33.9375 0 27.875 0 
Q 17.828125 0 11.671875 7.65625 
Q 5.515625 15.328125 5.515625 27.984375 
Q 5.515625 40.671875 11.671875 48.328125 
Q 17.828125 56 27.875 56 
Q 33.9375 56 38.28125 53.609375 
Q 42.625 51.21875 45.40625 46.390625 
L 45.40625 54.6875 
L 54.390625 54.6875 
z
" id="DejaVuSans-103"/>
      <path d="M 2.984375 54.6875 
L 12.5 54.6875 
L 29.59375 8.796875 
L 46.6875 54.6875 
L 56.203125 54.6875 
L 35.6875 0 
L 23.484375 0 
z
" id="DejaVuSans-118"/>
     </defs>
     <use xlink:href="#DejaVuSans-77"/>
     <use x="86.279297" xlink:href="#DejaVuSans-97"/>
     <use x="147.558594" xlink:href="#DejaVuSans-116"/>
     <use x="186.767578" xlink:href="#DejaVuSans-114"/>
     <use x="227.880859" xlink:href="#DejaVuSans-105"/>
     <use x="255.664062" xlink:href="#DejaVuSans-120"/>
     <use x="314.84375" xlink:href="#DejaVuSans-32"/>
     <use x="346.630859" xlink:href="#DejaVuSans-67"/>
     <use x="416.455078" xlink:href="#DejaVuSans-111"/>
     <use x="477.636719" xlink:href="#DejaVuSans-112"/>
     <use x="541.113281" xlink:href="#DejaVuSans-121"/>
     <use x="600.292969" xlink:href="#DejaVuSans-32"/>
     <use x="632.080078" xlink:href="#DejaVuSans-84"/>
     <use x="676.664062" xlink:href="#DejaVuSans-97"/>
     <use x="737.943359" xlink:href="#DejaVuSans-115"/>
     <use x="790.042969" xlink:href="#DejaVuSans-107"/>
     <use x="847.953125" xlink:href="#DejaVuSans-32"/>
     <use x="879.740234" xlink:href="#DejaVuSans-108"/>
     <use x="907.523438" xlink:href="#DejaVuSans-101"/>
     <use x="969.046875" xlink:href="#DejaVuSans-97"/>
     <use x="1030.326172" xlink:href="#DejaVuSans-114"/>
     <use x="1069.689453" xlink:href="#DejaVuSans-110"/>
     <use x="1133.068359" xlink:href="#DejaVuSans-105"/>
     <use x="1160.851562" xlink:href="#DejaVuSans-110"/>
     <use x="1224.230469" xlink:href="#DejaVuSans-103"/>
     <use x="1287.707031" xlink:href="#DejaVuSans-32"/>
     <use x="1319.494141" xlink:href="#DejaVuSans-99"/>
     <use x="1374.474609" xlink:href="#DejaVuSans-117"/>
     <use x="1437.853516" xlink:href="#DejaVuSans-114"/>
     <use x="1478.966797" xlink:href="#DejaVuSans-118"/>
     <use x="1538.146484" xlink:href="#DejaVuSans-101"/>
     <use x="1599.669922" xlink:href="#DejaVuSans-115"/>
    </g>
   </g>
  </g>
 </g>
 <defs>
  <clipPath id="p060964292c">
   <rect height="652.32" width="1116" x="180" y="103.68"/>
  </clipPath>
 </defs>
</svg>
