<?xml version="1.0" encoding="utf-8" standalone="no"?>
<!DOCTYPE svg PUBLIC "-//W3C//DTD SVG 1.1//EN"
  "http://www.w3.org/Graphics/SVG/1.1/DTD/svg11.dtd">
<!-- Created with matplotlib (https://matplotlib.org/) -->
<svg height="864pt" version="1.1" viewBox="0 0 1440 864" width="1440pt" xmlns="http://www.w3.org/2000/svg" xmlns:xlink="http://www.w3.org/1999/xlink">
 <metadata>
  <rdf:RDF xmlns:cc="http://creativecommons.org/ns#" xmlns:dc="http://purl.org/dc/elements/1.1/" xmlns:rdf="http://www.w3.org/1999/02/22-rdf-syntax-ns#">
   <cc:Work>
    <dc:type rdf:resource="http://purl.org/dc/dcmitype/StillImage"/>
    <dc:date>2020-10-19T15:38:22.520810</dc:date>
    <dc:format>image/svg+xml</dc:format>
    <dc:creator>
     <cc:Agent>
      <dc:title>Matplotlib v3.3.2, https://matplotlib.org/</dc:title>
     </cc:Agent>
    </dc:creator>
   </cc:Work>
  </rdf:RDF>
 </metadata>
 <defs>
  <style type="text/css">*{stroke-linecap:butt;stroke-linejoin:round;}</style>
 </defs>
 <g id="figure_1">
  <g id="patch_1">
   <path d="M 0 864 
L 1440 864 
L 1440 0 
L 0 0 
z
" style="fill:none;"/>
  </g>
  <g id="axes_1">
   <g id="patch_2">
    <path d="M 180 756 
L 1296 756 
L 1296 103.68 
L 180 103.68 
z
" style="fill:#ffffff;"/>
   </g>
   <g id="matplotlib.axis_1">
    <g id="xtick_1">
     <g id="line2d_1">
      <defs>
       <path d="M 0 0 
L 0 3.5 
" id="m2964812c11" style="stroke:#000000;stroke-width:0.8;"/>
      </defs>
      <g>
       <use style="stroke:#000000;stroke-width:0.8;" x="230.727273" xlink:href="#m2964812c11" y="756"/>
      </g>
     </g>
     <g id="text_1">
      <!-- 0 -->
      <g transform="translate(227.546023 770.598438)scale(0.1 -0.1)">
       <defs>
        <path d="M 31.78125 66.40625 
Q 24.171875 66.40625 20.328125 58.90625 
Q 16.5 51.421875 16.5 36.375 
Q 16.5 21.390625 20.328125 13.890625 
Q 24.171875 6.390625 31.78125 6.390625 
Q 39.453125 6.390625 43.28125 13.890625 
Q 47.125 21.390625 47.125 36.375 
Q 47.125 51.421875 43.28125 58.90625 
Q 39.453125 66.40625 31.78125 66.40625 
z
M 31.78125 74.21875 
Q 44.046875 74.21875 50.515625 64.515625 
Q 56.984375 54.828125 56.984375 36.375 
Q 56.984375 17.96875 50.515625 8.265625 
Q 44.046875 -1.421875 31.78125 -1.421875 
Q 19.53125 -1.421875 13.0625 8.265625 
Q 6.59375 17.96875 6.59375 36.375 
Q 6.59375 54.828125 13.0625 64.515625 
Q 19.53125 74.21875 31.78125 74.21875 
z
" id="DejaVuSans-48"/>
       </defs>
       <use xlink:href="#DejaVuSans-48"/>
      </g>
     </g>
    </g>
    <g id="xtick_2">
     <g id="line2d_2">
      <g>
       <use style="stroke:#000000;stroke-width:0.8;" x="357.546089" xlink:href="#m2964812c11" y="756"/>
      </g>
     </g>
     <g id="text_2">
      <!-- 25000 -->
      <g transform="translate(341.639839 770.598438)scale(0.1 -0.1)">
       <defs>
        <path d="M 19.1875 8.296875 
L 53.609375 8.296875 
L 53.609375 0 
L 7.328125 0 
L 7.328125 8.296875 
Q 12.9375 14.109375 22.625 23.890625 
Q 32.328125 33.6875 34.8125 36.53125 
Q 39.546875 41.84375 41.421875 45.53125 
Q 43.3125 49.21875 43.3125 52.78125 
Q 43.3125 58.59375 39.234375 62.25 
Q 35.15625 65.921875 28.609375 65.921875 
Q 23.96875 65.921875 18.8125 64.3125 
Q 13.671875 62.703125 7.8125 59.421875 
L 7.8125 69.390625 
Q 13.765625 71.78125 18.9375 73 
Q 24.125 74.21875 28.421875 74.21875 
Q 39.75 74.21875 46.484375 68.546875 
Q 53.21875 62.890625 53.21875 53.421875 
Q 53.21875 48.921875 51.53125 44.890625 
Q 49.859375 40.875 45.40625 35.40625 
Q 44.1875 33.984375 37.640625 27.21875 
Q 31.109375 20.453125 19.1875 8.296875 
z
" id="DejaVuSans-50"/>
        <path d="M 10.796875 72.90625 
L 49.515625 72.90625 
L 49.515625 64.59375 
L 19.828125 64.59375 
L 19.828125 46.734375 
Q 21.96875 47.46875 24.109375 47.828125 
Q 26.265625 48.1875 28.421875 48.1875 
Q 40.625 48.1875 47.75 41.5 
Q 54.890625 34.8125 54.890625 23.390625 
Q 54.890625 11.625 47.5625 5.09375 
Q 40.234375 -1.421875 26.90625 -1.421875 
Q 22.3125 -1.421875 17.546875 -0.640625 
Q 12.796875 0.140625 7.71875 1.703125 
L 7.71875 11.625 
Q 12.109375 9.234375 16.796875 8.0625 
Q 21.484375 6.890625 26.703125 6.890625 
Q 35.15625 6.890625 40.078125 11.328125 
Q 45.015625 15.765625 45.015625 23.390625 
Q 45.015625 31 40.078125 35.4375 
Q 35.15625 39.890625 26.703125 39.890625 
Q 22.75 39.890625 18.8125 39.015625 
Q 14.890625 38.140625 10.796875 36.28125 
z
" id="DejaVuSans-53"/>
       </defs>
       <use xlink:href="#DejaVuSans-50"/>
       <use x="63.623047" xlink:href="#DejaVuSans-53"/>
       <use x="127.246094" xlink:href="#DejaVuSans-48"/>
       <use x="190.869141" xlink:href="#DejaVuSans-48"/>
       <use x="254.492188" xlink:href="#DejaVuSans-48"/>
      </g>
     </g>
    </g>
    <g id="xtick_3">
     <g id="line2d_3">
      <g>
       <use style="stroke:#000000;stroke-width:0.8;" x="484.364905" xlink:href="#m2964812c11" y="756"/>
      </g>
     </g>
     <g id="text_3">
      <!-- 50000 -->
      <g transform="translate(468.458655 770.598438)scale(0.1 -0.1)">
       <use xlink:href="#DejaVuSans-53"/>
       <use x="63.623047" xlink:href="#DejaVuSans-48"/>
       <use x="127.246094" xlink:href="#DejaVuSans-48"/>
       <use x="190.869141" xlink:href="#DejaVuSans-48"/>
       <use x="254.492188" xlink:href="#DejaVuSans-48"/>
      </g>
     </g>
    </g>
    <g id="xtick_4">
     <g id="line2d_4">
      <g>
       <use style="stroke:#000000;stroke-width:0.8;" x="611.18372" xlink:href="#m2964812c11" y="756"/>
      </g>
     </g>
     <g id="text_4">
      <!-- 75000 -->
      <g transform="translate(595.27747 770.598438)scale(0.1 -0.1)">
       <defs>
        <path d="M 8.203125 72.90625 
L 55.078125 72.90625 
L 55.078125 68.703125 
L 28.609375 0 
L 18.3125 0 
L 43.21875 64.59375 
L 8.203125 64.59375 
z
" id="DejaVuSans-55"/>
       </defs>
       <use xlink:href="#DejaVuSans-55"/>
       <use x="63.623047" xlink:href="#DejaVuSans-53"/>
       <use x="127.246094" xlink:href="#DejaVuSans-48"/>
       <use x="190.869141" xlink:href="#DejaVuSans-48"/>
       <use x="254.492188" xlink:href="#DejaVuSans-48"/>
      </g>
     </g>
    </g>
    <g id="xtick_5">
     <g id="line2d_5">
      <g>
       <use style="stroke:#000000;stroke-width:0.8;" x="738.002536" xlink:href="#m2964812c11" y="756"/>
      </g>
     </g>
     <g id="text_5">
      <!-- 100000 -->
      <g transform="translate(718.915036 770.598438)scale(0.1 -0.1)">
       <defs>
        <path d="M 12.40625 8.296875 
L 28.515625 8.296875 
L 28.515625 63.921875 
L 10.984375 60.40625 
L 10.984375 69.390625 
L 28.421875 72.90625 
L 38.28125 72.90625 
L 38.28125 8.296875 
L 54.390625 8.296875 
L 54.390625 0 
L 12.40625 0 
z
" id="DejaVuSans-49"/>
       </defs>
       <use xlink:href="#DejaVuSans-49"/>
       <use x="63.623047" xlink:href="#DejaVuSans-48"/>
       <use x="127.246094" xlink:href="#DejaVuSans-48"/>
       <use x="190.869141" xlink:href="#DejaVuSans-48"/>
       <use x="254.492188" xlink:href="#DejaVuSans-48"/>
       <use x="318.115234" xlink:href="#DejaVuSans-48"/>
      </g>
     </g>
    </g>
    <g id="xtick_6">
     <g id="line2d_6">
      <g>
       <use style="stroke:#000000;stroke-width:0.8;" x="864.821352" xlink:href="#m2964812c11" y="756"/>
      </g>
     </g>
     <g id="text_6">
      <!-- 125000 -->
      <g transform="translate(845.733852 770.598438)scale(0.1 -0.1)">
       <use xlink:href="#DejaVuSans-49"/>
       <use x="63.623047" xlink:href="#DejaVuSans-50"/>
       <use x="127.246094" xlink:href="#DejaVuSans-53"/>
       <use x="190.869141" xlink:href="#DejaVuSans-48"/>
       <use x="254.492188" xlink:href="#DejaVuSans-48"/>
       <use x="318.115234" xlink:href="#DejaVuSans-48"/>
      </g>
     </g>
    </g>
    <g id="xtick_7">
     <g id="line2d_7">
      <g>
       <use style="stroke:#000000;stroke-width:0.8;" x="991.640168" xlink:href="#m2964812c11" y="756"/>
      </g>
     </g>
     <g id="text_7">
      <!-- 150000 -->
      <g transform="translate(972.552668 770.598438)scale(0.1 -0.1)">
       <use xlink:href="#DejaVuSans-49"/>
       <use x="63.623047" xlink:href="#DejaVuSans-53"/>
       <use x="127.246094" xlink:href="#DejaVuSans-48"/>
       <use x="190.869141" xlink:href="#DejaVuSans-48"/>
       <use x="254.492188" xlink:href="#DejaVuSans-48"/>
       <use x="318.115234" xlink:href="#DejaVuSans-48"/>
      </g>
     </g>
    </g>
    <g id="xtick_8">
     <g id="line2d_8">
      <g>
       <use style="stroke:#000000;stroke-width:0.8;" x="1118.458984" xlink:href="#m2964812c11" y="756"/>
      </g>
     </g>
     <g id="text_8">
      <!-- 175000 -->
      <g transform="translate(1099.371484 770.598438)scale(0.1 -0.1)">
       <use xlink:href="#DejaVuSans-49"/>
       <use x="63.623047" xlink:href="#DejaVuSans-55"/>
       <use x="127.246094" xlink:href="#DejaVuSans-53"/>
       <use x="190.869141" xlink:href="#DejaVuSans-48"/>
       <use x="254.492188" xlink:href="#DejaVuSans-48"/>
       <use x="318.115234" xlink:href="#DejaVuSans-48"/>
      </g>
     </g>
    </g>
    <g id="xtick_9">
     <g id="line2d_9">
      <g>
       <use style="stroke:#000000;stroke-width:0.8;" x="1245.2778" xlink:href="#m2964812c11" y="756"/>
      </g>
     </g>
     <g id="text_9">
      <!-- 200000 -->
      <g transform="translate(1226.1903 770.598438)scale(0.1 -0.1)">
       <use xlink:href="#DejaVuSans-50"/>
       <use x="63.623047" xlink:href="#DejaVuSans-48"/>
       <use x="127.246094" xlink:href="#DejaVuSans-48"/>
       <use x="190.869141" xlink:href="#DejaVuSans-48"/>
       <use x="254.492188" xlink:href="#DejaVuSans-48"/>
       <use x="318.115234" xlink:href="#DejaVuSans-48"/>
      </g>
     </g>
    </g>
    <g id="text_10">
     <!-- Iterations $\to$ -->
     <g transform="translate(708.4 784.276562)scale(0.1 -0.1)">
      <defs>
       <path d="M 9.8125 72.90625 
L 19.671875 72.90625 
L 19.671875 0 
L 9.8125 0 
z
" id="DejaVuSans-73"/>
       <path d="M 18.3125 70.21875 
L 18.3125 54.6875 
L 36.8125 54.6875 
L 36.8125 47.703125 
L 18.3125 47.703125 
L 18.3125 18.015625 
Q 18.3125 11.328125 20.140625 9.421875 
Q 21.96875 7.515625 27.59375 7.515625 
L 36.8125 7.515625 
L 36.8125 0 
L 27.59375 0 
Q 17.1875 0 13.234375 3.875 
Q 9.28125 7.765625 9.28125 18.015625 
L 9.28125 47.703125 
L 2.6875 47.703125 
L 2.6875 54.6875 
L 9.28125 54.6875 
L 9.28125 70.21875 
z
" id="DejaVuSans-116"/>
       <path d="M 56.203125 29.59375 
L 56.203125 25.203125 
L 14.890625 25.203125 
Q 15.484375 15.921875 20.484375 11.0625 
Q 25.484375 6.203125 34.421875 6.203125 
Q 39.59375 6.203125 44.453125 7.46875 
Q 49.3125 8.734375 54.109375 11.28125 
L 54.109375 2.78125 
Q 49.265625 0.734375 44.1875 -0.34375 
Q 39.109375 -1.421875 33.890625 -1.421875 
Q 20.796875 -1.421875 13.15625 6.1875 
Q 5.515625 13.8125 5.515625 26.8125 
Q 5.515625 40.234375 12.765625 48.109375 
Q 20.015625 56 32.328125 56 
Q 43.359375 56 49.78125 48.890625 
Q 56.203125 41.796875 56.203125 29.59375 
z
M 47.21875 32.234375 
Q 47.125 39.59375 43.09375 43.984375 
Q 39.0625 48.390625 32.421875 48.390625 
Q 24.90625 48.390625 20.390625 44.140625 
Q 15.875 39.890625 15.1875 32.171875 
z
" id="DejaVuSans-101"/>
       <path d="M 41.109375 46.296875 
Q 39.59375 47.171875 37.8125 47.578125 
Q 36.03125 48 33.890625 48 
Q 26.265625 48 22.1875 43.046875 
Q 18.109375 38.09375 18.109375 28.8125 
L 18.109375 0 
L 9.078125 0 
L 9.078125 54.6875 
L 18.109375 54.6875 
L 18.109375 46.1875 
Q 20.953125 51.171875 25.484375 53.578125 
Q 30.03125 56 36.53125 56 
Q 37.453125 56 38.578125 55.875 
Q 39.703125 55.765625 41.0625 55.515625 
z
" id="DejaVuSans-114"/>
       <path d="M 34.28125 27.484375 
Q 23.390625 27.484375 19.1875 25 
Q 14.984375 22.515625 14.984375 16.5 
Q 14.984375 11.71875 18.140625 8.90625 
Q 21.296875 6.109375 26.703125 6.109375 
Q 34.1875 6.109375 38.703125 11.40625 
Q 43.21875 16.703125 43.21875 25.484375 
L 43.21875 27.484375 
z
M 52.203125 31.203125 
L 52.203125 0 
L 43.21875 0 
L 43.21875 8.296875 
Q 40.140625 3.328125 35.546875 0.953125 
Q 30.953125 -1.421875 24.3125 -1.421875 
Q 15.921875 -1.421875 10.953125 3.296875 
Q 6 8.015625 6 15.921875 
Q 6 25.140625 12.171875 29.828125 
Q 18.359375 34.515625 30.609375 34.515625 
L 43.21875 34.515625 
L 43.21875 35.40625 
Q 43.21875 41.609375 39.140625 45 
Q 35.0625 48.390625 27.6875 48.390625 
Q 23 48.390625 18.546875 47.265625 
Q 14.109375 46.140625 10.015625 43.890625 
L 10.015625 52.203125 
Q 14.9375 54.109375 19.578125 55.046875 
Q 24.21875 56 28.609375 56 
Q 40.484375 56 46.34375 49.84375 
Q 52.203125 43.703125 52.203125 31.203125 
z
" id="DejaVuSans-97"/>
       <path d="M 9.421875 54.6875 
L 18.40625 54.6875 
L 18.40625 0 
L 9.421875 0 
z
M 9.421875 75.984375 
L 18.40625 75.984375 
L 18.40625 64.59375 
L 9.421875 64.59375 
z
" id="DejaVuSans-105"/>
       <path d="M 30.609375 48.390625 
Q 23.390625 48.390625 19.1875 42.75 
Q 14.984375 37.109375 14.984375 27.296875 
Q 14.984375 17.484375 19.15625 11.84375 
Q 23.34375 6.203125 30.609375 6.203125 
Q 37.796875 6.203125 41.984375 11.859375 
Q 46.1875 17.53125 46.1875 27.296875 
Q 46.1875 37.015625 41.984375 42.703125 
Q 37.796875 48.390625 30.609375 48.390625 
z
M 30.609375 56 
Q 42.328125 56 49.015625 48.375 
Q 55.71875 40.765625 55.71875 27.296875 
Q 55.71875 13.875 49.015625 6.21875 
Q 42.328125 -1.421875 30.609375 -1.421875 
Q 18.84375 -1.421875 12.171875 6.21875 
Q 5.515625 13.875 5.515625 27.296875 
Q 5.515625 40.765625 12.171875 48.375 
Q 18.84375 56 30.609375 56 
z
" id="DejaVuSans-111"/>
       <path d="M 54.890625 33.015625 
L 54.890625 0 
L 45.90625 0 
L 45.90625 32.71875 
Q 45.90625 40.484375 42.875 44.328125 
Q 39.84375 48.1875 33.796875 48.1875 
Q 26.515625 48.1875 22.3125 43.546875 
Q 18.109375 38.921875 18.109375 30.90625 
L 18.109375 0 
L 9.078125 0 
L 9.078125 54.6875 
L 18.109375 54.6875 
L 18.109375 46.1875 
Q 21.34375 51.125 25.703125 53.5625 
Q 30.078125 56 35.796875 56 
Q 45.21875 56 50.046875 50.171875 
Q 54.890625 44.34375 54.890625 33.015625 
z
" id="DejaVuSans-110"/>
       <path d="M 44.28125 53.078125 
L 44.28125 44.578125 
Q 40.484375 46.53125 36.375 47.5 
Q 32.28125 48.484375 27.875 48.484375 
Q 21.1875 48.484375 17.84375 46.4375 
Q 14.5 44.390625 14.5 40.28125 
Q 14.5 37.15625 16.890625 35.375 
Q 19.28125 33.59375 26.515625 31.984375 
L 29.59375 31.296875 
Q 39.15625 29.25 43.1875 25.515625 
Q 47.21875 21.78125 47.21875 15.09375 
Q 47.21875 7.46875 41.1875 3.015625 
Q 35.15625 -1.421875 24.609375 -1.421875 
Q 20.21875 -1.421875 15.453125 -0.5625 
Q 10.6875 0.296875 5.421875 2 
L 5.421875 11.28125 
Q 10.40625 8.6875 15.234375 7.390625 
Q 20.0625 6.109375 24.8125 6.109375 
Q 31.15625 6.109375 34.5625 8.28125 
Q 37.984375 10.453125 37.984375 14.40625 
Q 37.984375 18.0625 35.515625 20.015625 
Q 33.0625 21.96875 24.703125 23.78125 
L 21.578125 24.515625 
Q 13.234375 26.265625 9.515625 29.90625 
Q 5.8125 33.546875 5.8125 39.890625 
Q 5.8125 47.609375 11.28125 51.796875 
Q 16.75 56 26.8125 56 
Q 31.78125 56 36.171875 55.265625 
Q 40.578125 54.546875 44.28125 53.078125 
z
" id="DejaVuSans-115"/>
       <path id="DejaVuSans-32"/>
       <path d="M 78.90625 33.546875 
L 78.90625 29.15625 
L 59.71875 9.96875 
L 53.859375 15.828125 
L 65.234375 27.203125 
L 5.71875 27.203125 
L 5.71875 35.5 
L 65.234375 35.5 
L 53.859375 46.875 
L 59.71875 52.734375 
z
" id="DejaVuSans-8594"/>
      </defs>
      <use transform="translate(0 0.015625)" xlink:href="#DejaVuSans-73"/>
      <use transform="translate(29.492188 0.015625)" xlink:href="#DejaVuSans-116"/>
      <use transform="translate(68.701172 0.015625)" xlink:href="#DejaVuSans-101"/>
      <use transform="translate(130.224609 0.015625)" xlink:href="#DejaVuSans-114"/>
      <use transform="translate(171.337891 0.015625)" xlink:href="#DejaVuSans-97"/>
      <use transform="translate(232.617188 0.015625)" xlink:href="#DejaVuSans-116"/>
      <use transform="translate(271.826172 0.015625)" xlink:href="#DejaVuSans-105"/>
      <use transform="translate(299.609375 0.015625)" xlink:href="#DejaVuSans-111"/>
      <use transform="translate(360.791016 0.015625)" xlink:href="#DejaVuSans-110"/>
      <use transform="translate(424.169922 0.015625)" xlink:href="#DejaVuSans-115"/>
      <use transform="translate(476.269531 0.015625)" xlink:href="#DejaVuSans-32"/>
      <use transform="translate(508.056641 0.015625)" xlink:href="#DejaVuSans-8594"/>
     </g>
    </g>
   </g>
   <g id="matplotlib.axis_2">
    <g id="ytick_1">
     <g id="line2d_10">
      <defs>
       <path d="M 0 0 
L -3.5 0 
" id="m037a60b2d0" style="stroke:#000000;stroke-width:0.8;"/>
      </defs>
      <g>
       <use style="stroke:#000000;stroke-width:0.8;" x="180" xlink:href="#m037a60b2d0" y="739.000014"/>
      </g>
     </g>
     <g id="text_11">
      <!-- −2 -->
      <g transform="translate(158.257812 742.799233)scale(0.1 -0.1)">
       <defs>
        <path d="M 10.59375 35.5 
L 73.1875 35.5 
L 73.1875 27.203125 
L 10.59375 27.203125 
z
" id="DejaVuSans-8722"/>
       </defs>
       <use xlink:href="#DejaVuSans-8722"/>
       <use x="83.789062" xlink:href="#DejaVuSans-50"/>
      </g>
     </g>
    </g>
    <g id="ytick_2">
     <g id="line2d_11">
      <g>
       <use style="stroke:#000000;stroke-width:0.8;" x="180" xlink:href="#m037a60b2d0" y="660.373599"/>
      </g>
     </g>
     <g id="text_12">
      <!-- 0 -->
      <g transform="translate(166.6375 664.172818)scale(0.1 -0.1)">
       <use xlink:href="#DejaVuSans-48"/>
      </g>
     </g>
    </g>
    <g id="ytick_3">
     <g id="line2d_12">
      <g>
       <use style="stroke:#000000;stroke-width:0.8;" x="180" xlink:href="#m037a60b2d0" y="581.747184"/>
      </g>
     </g>
     <g id="text_13">
      <!-- 2 -->
      <g transform="translate(166.6375 585.546403)scale(0.1 -0.1)">
       <use xlink:href="#DejaVuSans-50"/>
      </g>
     </g>
    </g>
    <g id="ytick_4">
     <g id="line2d_13">
      <g>
       <use style="stroke:#000000;stroke-width:0.8;" x="180" xlink:href="#m037a60b2d0" y="503.120768"/>
      </g>
     </g>
     <g id="text_14">
      <!-- 4 -->
      <g transform="translate(166.6375 506.919987)scale(0.1 -0.1)">
       <defs>
        <path d="M 37.796875 64.3125 
L 12.890625 25.390625 
L 37.796875 25.390625 
z
M 35.203125 72.90625 
L 47.609375 72.90625 
L 47.609375 25.390625 
L 58.015625 25.390625 
L 58.015625 17.1875 
L 47.609375 17.1875 
L 47.609375 0 
L 37.796875 0 
L 37.796875 17.1875 
L 4.890625 17.1875 
L 4.890625 26.703125 
z
" id="DejaVuSans-52"/>
       </defs>
       <use xlink:href="#DejaVuSans-52"/>
      </g>
     </g>
    </g>
    <g id="ytick_5">
     <g id="line2d_14">
      <g>
       <use style="stroke:#000000;stroke-width:0.8;" x="180" xlink:href="#m037a60b2d0" y="424.494353"/>
      </g>
     </g>
     <g id="text_15">
      <!-- 6 -->
      <g transform="translate(166.6375 428.293572)scale(0.1 -0.1)">
       <defs>
        <path d="M 33.015625 40.375 
Q 26.375 40.375 22.484375 35.828125 
Q 18.609375 31.296875 18.609375 23.390625 
Q 18.609375 15.53125 22.484375 10.953125 
Q 26.375 6.390625 33.015625 6.390625 
Q 39.65625 6.390625 43.53125 10.953125 
Q 47.40625 15.53125 47.40625 23.390625 
Q 47.40625 31.296875 43.53125 35.828125 
Q 39.65625 40.375 33.015625 40.375 
z
M 52.59375 71.296875 
L 52.59375 62.3125 
Q 48.875 64.0625 45.09375 64.984375 
Q 41.3125 65.921875 37.59375 65.921875 
Q 27.828125 65.921875 22.671875 59.328125 
Q 17.53125 52.734375 16.796875 39.40625 
Q 19.671875 43.65625 24.015625 45.921875 
Q 28.375 48.1875 33.59375 48.1875 
Q 44.578125 48.1875 50.953125 41.515625 
Q 57.328125 34.859375 57.328125 23.390625 
Q 57.328125 12.15625 50.6875 5.359375 
Q 44.046875 -1.421875 33.015625 -1.421875 
Q 20.359375 -1.421875 13.671875 8.265625 
Q 6.984375 17.96875 6.984375 36.375 
Q 6.984375 53.65625 15.1875 63.9375 
Q 23.390625 74.21875 37.203125 74.21875 
Q 40.921875 74.21875 44.703125 73.484375 
Q 48.484375 72.75 52.59375 71.296875 
z
" id="DejaVuSans-54"/>
       </defs>
       <use xlink:href="#DejaVuSans-54"/>
      </g>
     </g>
    </g>
    <g id="ytick_6">
     <g id="line2d_15">
      <g>
       <use style="stroke:#000000;stroke-width:0.8;" x="180" xlink:href="#m037a60b2d0" y="345.867938"/>
      </g>
     </g>
     <g id="text_16">
      <!-- 8 -->
      <g transform="translate(166.6375 349.667157)scale(0.1 -0.1)">
       <defs>
        <path d="M 31.78125 34.625 
Q 24.75 34.625 20.71875 30.859375 
Q 16.703125 27.09375 16.703125 20.515625 
Q 16.703125 13.921875 20.71875 10.15625 
Q 24.75 6.390625 31.78125 6.390625 
Q 38.8125 6.390625 42.859375 10.171875 
Q 46.921875 13.96875 46.921875 20.515625 
Q 46.921875 27.09375 42.890625 30.859375 
Q 38.875 34.625 31.78125 34.625 
z
M 21.921875 38.8125 
Q 15.578125 40.375 12.03125 44.71875 
Q 8.5 49.078125 8.5 55.328125 
Q 8.5 64.0625 14.71875 69.140625 
Q 20.953125 74.21875 31.78125 74.21875 
Q 42.671875 74.21875 48.875 69.140625 
Q 55.078125 64.0625 55.078125 55.328125 
Q 55.078125 49.078125 51.53125 44.71875 
Q 48 40.375 41.703125 38.8125 
Q 48.828125 37.15625 52.796875 32.3125 
Q 56.78125 27.484375 56.78125 20.515625 
Q 56.78125 9.90625 50.3125 4.234375 
Q 43.84375 -1.421875 31.78125 -1.421875 
Q 19.734375 -1.421875 13.25 4.234375 
Q 6.78125 9.90625 6.78125 20.515625 
Q 6.78125 27.484375 10.78125 32.3125 
Q 14.796875 37.15625 21.921875 38.8125 
z
M 18.3125 54.390625 
Q 18.3125 48.734375 21.84375 45.5625 
Q 25.390625 42.390625 31.78125 42.390625 
Q 38.140625 42.390625 41.71875 45.5625 
Q 45.3125 48.734375 45.3125 54.390625 
Q 45.3125 60.0625 41.71875 63.234375 
Q 38.140625 66.40625 31.78125 66.40625 
Q 25.390625 66.40625 21.84375 63.234375 
Q 18.3125 60.0625 18.3125 54.390625 
z
" id="DejaVuSans-56"/>
       </defs>
       <use xlink:href="#DejaVuSans-56"/>
      </g>
     </g>
    </g>
    <g id="ytick_7">
     <g id="line2d_16">
      <g>
       <use style="stroke:#000000;stroke-width:0.8;" x="180" xlink:href="#m037a60b2d0" y="267.241523"/>
      </g>
     </g>
     <g id="text_17">
      <!-- 10 -->
      <g transform="translate(160.275 271.040741)scale(0.1 -0.1)">
       <use xlink:href="#DejaVuSans-49"/>
       <use x="63.623047" xlink:href="#DejaVuSans-48"/>
      </g>
     </g>
    </g>
    <g id="ytick_8">
     <g id="line2d_17">
      <g>
       <use style="stroke:#000000;stroke-width:0.8;" x="180" xlink:href="#m037a60b2d0" y="188.615107"/>
      </g>
     </g>
     <g id="text_18">
      <!-- 12 -->
      <g transform="translate(160.275 192.414326)scale(0.1 -0.1)">
       <use xlink:href="#DejaVuSans-49"/>
       <use x="63.623047" xlink:href="#DejaVuSans-50"/>
      </g>
     </g>
    </g>
    <g id="ytick_9">
     <g id="line2d_18">
      <g>
       <use style="stroke:#000000;stroke-width:0.8;" x="180" xlink:href="#m037a60b2d0" y="109.988692"/>
      </g>
     </g>
     <g id="text_19">
      <!-- 14 -->
      <g transform="translate(160.275 113.787911)scale(0.1 -0.1)">
       <use xlink:href="#DejaVuSans-49"/>
       <use x="63.623047" xlink:href="#DejaVuSans-52"/>
      </g>
     </g>
    </g>
    <g id="text_20">
     <!-- Bit Error per Sequence $\to$  -->
     <g transform="translate(152.157813 494.14)rotate(-90)scale(0.1 -0.1)">
      <defs>
       <path d="M 19.671875 34.8125 
L 19.671875 8.109375 
L 35.5 8.109375 
Q 43.453125 8.109375 47.28125 11.40625 
Q 51.125 14.703125 51.125 21.484375 
Q 51.125 28.328125 47.28125 31.5625 
Q 43.453125 34.8125 35.5 34.8125 
z
M 19.671875 64.796875 
L 19.671875 42.828125 
L 34.28125 42.828125 
Q 41.5 42.828125 45.03125 45.53125 
Q 48.578125 48.25 48.578125 53.8125 
Q 48.578125 59.328125 45.03125 62.0625 
Q 41.5 64.796875 34.28125 64.796875 
z
M 9.8125 72.90625 
L 35.015625 72.90625 
Q 46.296875 72.90625 52.390625 68.21875 
Q 58.5 63.53125 58.5 54.890625 
Q 58.5 48.1875 55.375 44.234375 
Q 52.25 40.28125 46.1875 39.3125 
Q 53.46875 37.75 57.5 32.78125 
Q 61.53125 27.828125 61.53125 20.40625 
Q 61.53125 10.640625 54.890625 5.3125 
Q 48.25 0 35.984375 0 
L 9.8125 0 
z
" id="DejaVuSans-66"/>
       <path d="M 9.8125 72.90625 
L 55.90625 72.90625 
L 55.90625 64.59375 
L 19.671875 64.59375 
L 19.671875 43.015625 
L 54.390625 43.015625 
L 54.390625 34.71875 
L 19.671875 34.71875 
L 19.671875 8.296875 
L 56.78125 8.296875 
L 56.78125 0 
L 9.8125 0 
z
" id="DejaVuSans-69"/>
       <path d="M 18.109375 8.203125 
L 18.109375 -20.796875 
L 9.078125 -20.796875 
L 9.078125 54.6875 
L 18.109375 54.6875 
L 18.109375 46.390625 
Q 20.953125 51.265625 25.265625 53.625 
Q 29.59375 56 35.59375 56 
Q 45.5625 56 51.78125 48.09375 
Q 58.015625 40.1875 58.015625 27.296875 
Q 58.015625 14.40625 51.78125 6.484375 
Q 45.5625 -1.421875 35.59375 -1.421875 
Q 29.59375 -1.421875 25.265625 0.953125 
Q 20.953125 3.328125 18.109375 8.203125 
z
M 48.6875 27.296875 
Q 48.6875 37.203125 44.609375 42.84375 
Q 40.53125 48.484375 33.40625 48.484375 
Q 26.265625 48.484375 22.1875 42.84375 
Q 18.109375 37.203125 18.109375 27.296875 
Q 18.109375 17.390625 22.1875 11.75 
Q 26.265625 6.109375 33.40625 6.109375 
Q 40.53125 6.109375 44.609375 11.75 
Q 48.6875 17.390625 48.6875 27.296875 
z
" id="DejaVuSans-112"/>
       <path d="M 53.515625 70.515625 
L 53.515625 60.890625 
Q 47.90625 63.578125 42.921875 64.890625 
Q 37.9375 66.21875 33.296875 66.21875 
Q 25.25 66.21875 20.875 63.09375 
Q 16.5 59.96875 16.5 54.203125 
Q 16.5 49.359375 19.40625 46.890625 
Q 22.3125 44.4375 30.421875 42.921875 
L 36.375 41.703125 
Q 47.40625 39.59375 52.65625 34.296875 
Q 57.90625 29 57.90625 20.125 
Q 57.90625 9.515625 50.796875 4.046875 
Q 43.703125 -1.421875 29.984375 -1.421875 
Q 24.8125 -1.421875 18.96875 -0.25 
Q 13.140625 0.921875 6.890625 3.21875 
L 6.890625 13.375 
Q 12.890625 10.015625 18.65625 8.296875 
Q 24.421875 6.59375 29.984375 6.59375 
Q 38.421875 6.59375 43.015625 9.90625 
Q 47.609375 13.234375 47.609375 19.390625 
Q 47.609375 24.75 44.3125 27.78125 
Q 41.015625 30.8125 33.5 32.328125 
L 27.484375 33.5 
Q 16.453125 35.6875 11.515625 40.375 
Q 6.59375 45.0625 6.59375 53.421875 
Q 6.59375 63.09375 13.40625 68.65625 
Q 20.21875 74.21875 32.171875 74.21875 
Q 37.3125 74.21875 42.625 73.28125 
Q 47.953125 72.359375 53.515625 70.515625 
z
" id="DejaVuSans-83"/>
       <path d="M 14.796875 27.296875 
Q 14.796875 17.390625 18.875 11.75 
Q 22.953125 6.109375 30.078125 6.109375 
Q 37.203125 6.109375 41.296875 11.75 
Q 45.40625 17.390625 45.40625 27.296875 
Q 45.40625 37.203125 41.296875 42.84375 
Q 37.203125 48.484375 30.078125 48.484375 
Q 22.953125 48.484375 18.875 42.84375 
Q 14.796875 37.203125 14.796875 27.296875 
z
M 45.40625 8.203125 
Q 42.578125 3.328125 38.25 0.953125 
Q 33.9375 -1.421875 27.875 -1.421875 
Q 17.96875 -1.421875 11.734375 6.484375 
Q 5.515625 14.40625 5.515625 27.296875 
Q 5.515625 40.1875 11.734375 48.09375 
Q 17.96875 56 27.875 56 
Q 33.9375 56 38.25 53.625 
Q 42.578125 51.265625 45.40625 46.390625 
L 45.40625 54.6875 
L 54.390625 54.6875 
L 54.390625 -20.796875 
L 45.40625 -20.796875 
z
" id="DejaVuSans-113"/>
       <path d="M 8.5 21.578125 
L 8.5 54.6875 
L 17.484375 54.6875 
L 17.484375 21.921875 
Q 17.484375 14.15625 20.5 10.265625 
Q 23.53125 6.390625 29.59375 6.390625 
Q 36.859375 6.390625 41.078125 11.03125 
Q 45.3125 15.671875 45.3125 23.6875 
L 45.3125 54.6875 
L 54.296875 54.6875 
L 54.296875 0 
L 45.3125 0 
L 45.3125 8.40625 
Q 42.046875 3.421875 37.71875 1 
Q 33.40625 -1.421875 27.6875 -1.421875 
Q 18.265625 -1.421875 13.375 4.4375 
Q 8.5 10.296875 8.5 21.578125 
z
M 31.109375 56 
z
" id="DejaVuSans-117"/>
       <path d="M 48.78125 52.59375 
L 48.78125 44.1875 
Q 44.96875 46.296875 41.140625 47.34375 
Q 37.3125 48.390625 33.40625 48.390625 
Q 24.65625 48.390625 19.8125 42.84375 
Q 14.984375 37.3125 14.984375 27.296875 
Q 14.984375 17.28125 19.8125 11.734375 
Q 24.65625 6.203125 33.40625 6.203125 
Q 37.3125 6.203125 41.140625 7.25 
Q 44.96875 8.296875 48.78125 10.40625 
L 48.78125 2.09375 
Q 45.015625 0.34375 40.984375 -0.53125 
Q 36.96875 -1.421875 32.421875 -1.421875 
Q 20.0625 -1.421875 12.78125 6.34375 
Q 5.515625 14.109375 5.515625 27.296875 
Q 5.515625 40.671875 12.859375 48.328125 
Q 20.21875 56 33.015625 56 
Q 37.15625 56 41.109375 55.140625 
Q 45.0625 54.296875 48.78125 52.59375 
z
" id="DejaVuSans-99"/>
      </defs>
      <use transform="translate(0 0.015625)" xlink:href="#DejaVuSans-66"/>
      <use transform="translate(68.603516 0.015625)" xlink:href="#DejaVuSans-105"/>
      <use transform="translate(96.386719 0.015625)" xlink:href="#DejaVuSans-116"/>
      <use transform="translate(135.595703 0.015625)" xlink:href="#DejaVuSans-32"/>
      <use transform="translate(167.382812 0.015625)" xlink:href="#DejaVuSans-69"/>
      <use transform="translate(230.566406 0.015625)" xlink:href="#DejaVuSans-114"/>
      <use transform="translate(271.679688 0.015625)" xlink:href="#DejaVuSans-114"/>
      <use transform="translate(312.792969 0.015625)" xlink:href="#DejaVuSans-111"/>
      <use transform="translate(373.974609 0.015625)" xlink:href="#DejaVuSans-114"/>
      <use transform="translate(415.087891 0.015625)" xlink:href="#DejaVuSans-32"/>
      <use transform="translate(446.875 0.015625)" xlink:href="#DejaVuSans-112"/>
      <use transform="translate(510.351562 0.015625)" xlink:href="#DejaVuSans-101"/>
      <use transform="translate(571.875 0.015625)" xlink:href="#DejaVuSans-114"/>
      <use transform="translate(612.988281 0.015625)" xlink:href="#DejaVuSans-32"/>
      <use transform="translate(644.775391 0.015625)" xlink:href="#DejaVuSans-83"/>
      <use transform="translate(708.251953 0.015625)" xlink:href="#DejaVuSans-101"/>
      <use transform="translate(769.775391 0.015625)" xlink:href="#DejaVuSans-113"/>
      <use transform="translate(833.251953 0.015625)" xlink:href="#DejaVuSans-117"/>
      <use transform="translate(896.630859 0.015625)" xlink:href="#DejaVuSans-101"/>
      <use transform="translate(958.154297 0.015625)" xlink:href="#DejaVuSans-110"/>
      <use transform="translate(1021.533203 0.015625)" xlink:href="#DejaVuSans-99"/>
      <use transform="translate(1076.513672 0.015625)" xlink:href="#DejaVuSans-101"/>
      <use transform="translate(1138.037109 0.015625)" xlink:href="#DejaVuSans-32"/>
      <use transform="translate(1169.824219 0.015625)" xlink:href="#DejaVuSans-8594"/>
      <use transform="translate(1253.613281 0.015625)" xlink:href="#DejaVuSans-32"/>
     </g>
    </g>
   </g>
   <g id="line2d_19">
    <path clip-path="url(#p0335a60978)" d="M 230.727273 191.072183 
L 234.120401 294.288343 
L 237.51353 275.92634 
L 240.906659 256.348292 
L 244.299787 288.760776 
L 247.692916 291.977762 
L 251.086044 309.795462 
L 254.479173 301.572165 
L 257.872302 312.781686 
L 261.26543 298.972242 
L 264.658559 278.81785 
L 268.051687 310.634358 
L 271.444816 307.876186 
L 274.837945 293.02193 
L 278.231073 280.502686 
L 281.624202 292.309177 
L 285.01733 289.623146 
L 288.410459 289.562567 
L 291.803588 332.537823 
L 295.196716 312.926089 
L 298.589845 333.9393 
L 301.982974 293.728997 
L 305.376102 305.338319 
L 308.769231 311.724282 
L 312.162359 283.498612 
L 315.555488 328.414479 
L 318.948617 337.505321 
L 322.341745 311.060204 
L 325.734874 328.653692 
L 329.128002 359.392331 
L 332.521131 357.217667 
L 335.91426 344.106219 
L 339.307388 296.715941 
L 342.700517 345.025393 
L 346.093645 335.699558 
L 349.486774 308.543668 
L 352.879903 393.431186 
L 356.273031 344.838018 
L 359.66616 360.445482 
L 363.059289 303.277356 
L 366.452417 373.712745 
L 369.845546 392.281224 
L 373.238674 349.821003 
L 376.631803 363.215973 
L 380.024932 402.983768 
L 383.41806 353.630107 
L 386.811189 646.245795 
L 390.204317 378.462621 
L 393.597446 336.416902 
L 396.990575 622.313655 
L 400.383703 391.898959 
L 403.776832 505.30673 
L 407.16996 478.304676 
L 410.563089 359.276396 
L 413.956218 620.863051 
L 417.349346 426.764448 
L 420.742475 365.777855 
L 424.135604 441.770973 
L 427.528732 382.667872 
L 430.921861 404.908106 
L 434.314989 442.089587 
L 437.708118 438.122095 
L 441.101247 349.353074 
L 444.494375 436.95784 
L 447.887504 360.318712 
L 451.280632 386.109234 
L 454.673761 331.273981 
L 458.06689 433.258805 
L 461.460018 375.858793 
L 464.853147 353.312257 
L 468.246275 726.349091 
L 471.639404 719.748658 
L 475.032533 619.627261 
L 478.425661 457.025868 
L 481.81879 655.654174 
L 485.211919 361.603347 
L 488.605047 390.639513 
L 491.998176 616.42832 
L 495.391304 433.944005 
L 498.784433 366.492058 
L 502.177562 361.367277 
L 505.57069 606.852443 
L 508.963819 432.854417 
L 512.356947 416.624443 
L 515.750076 354.922942 
L 519.143205 350.946767 
L 522.536333 450.188612 
L 525.929462 434.039717 
L 529.32259 378.761338 
L 532.715719 423.930756 
L 536.108848 387.340382 
L 539.501976 390.851187 
L 542.895105 468.587959 
L 546.288234 459.064548 
L 549.681362 449.023348 
L 553.074491 411.03256 
L 556.467619 367.417996 
L 559.860748 293.893391 
L 563.253877 421.403126 
L 566.647005 388.64483 
L 570.040134 410.272659 
L 573.433262 365.642449 
L 576.826391 461.058309 
L 580.21952 377.445051 
L 583.612648 354.134228 
L 587.005777 373.386051 
L 590.398905 387.678391 
L 593.792034 372.092632 
L 597.185163 419.483935 
L 600.578291 394.559796 
L 603.97142 464.13494 
L 607.364548 315.126431 
L 610.757677 383.850288 
L 614.150806 367.798249 
L 617.543934 409.803034 
L 620.937063 449.003883 
L 624.330192 408.980783 
L 627.72332 381.732133 
L 631.116449 381.203322 
L 634.509577 387.26361 
L 637.902706 376.955277 
L 641.295835 658.853197 
L 644.688963 396.384226 
L 648.082092 371.544463 
L 651.47522 409.795738 
L 654.868349 378.125586 
L 658.261478 369.50015 
L 661.654606 358.12776 
L 665.047735 446.748059 
L 668.440863 355.767738 
L 671.833992 337.035934 
L 675.227121 465.312325 
L 678.620249 334.305688 
L 682.013378 345.650606 
L 685.406507 326.153112 
L 688.799635 314.760144 
L 692.192764 401.462993 
L 695.585892 342.97548 
L 698.979021 425.946753 
L 702.37215 416.460506 
L 705.765278 387.333928 
L 709.158407 292.287134 
L 712.551535 330.542737 
L 715.944664 324.514811 
L 719.337793 301.367094 
L 722.730921 345.541995 
L 726.12405 333.802547 
L 729.517178 323.896605 
L 732.910307 347.994328 
L 736.303436 370.862658 
L 739.696564 407.956606 
L 743.089693 347.364532 
L 746.482822 338.009639 
L 749.87595 351.390234 
L 753.269079 424.462435 
L 756.662207 345.426079 
L 760.055336 354.26074 
L 763.448465 447.055856 
L 766.841593 354.300799 
L 770.234722 430.841367 
L 773.62785 459.217928 
L 777.020979 365.347516 
L 780.414108 609.776778 
L 783.807236 403.178898 
L 787.200365 397.442922 
L 790.593493 371.215474 
L 793.986622 369.530912 
L 797.379751 411.457594 
L 800.772879 352.802741 
L 804.166008 432.540054 
L 807.559137 376.41053 
L 810.952265 363.400633 
L 814.345394 361.769655 
L 817.738522 509.845253 
L 821.131651 637.725665 
L 824.52478 391.568553 
L 827.917908 366.89992 
L 831.311037 394.713005 
L 834.704165 379.283741 
L 838.097294 323.868444 
L 841.490423 470.339557 
L 844.883551 391.36353 
L 848.27668 347.329347 
L 851.669808 418.355713 
L 855.062937 343.124227 
L 858.456066 650.90687 
L 861.849194 331.851179 
L 865.242323 479.26915 
L 868.635452 400.852744 
L 872.02858 353.615433 
L 875.421709 455.984679 
L 878.814837 378.283926 
L 882.207966 426.464509 
L 885.601095 358.145275 
L 888.994223 397.428117 
L 892.387352 393.284668 
L 895.78048 376.815003 
L 899.173609 657.674983 
L 902.566738 392.870211 
L 905.959866 451.436524 
L 909.352995 350.482829 
L 912.746123 532.44722 
L 916.139252 351.563496 
L 919.532381 342.665611 
L 922.925509 364.746818 
L 926.318638 387.886507 
L 929.711766 368.823032 
L 933.104895 390.896876 
L 936.498024 357.919369 
L 939.891152 411.172557 
L 943.284281 403.210062 
L 946.67741 368.252771 
L 950.070538 354.748078 
L 953.463667 633.723618 
L 956.856795 357.11938 
L 960.249924 407.657244 
L 963.643053 314.303909 
L 967.036181 347.009674 
L 970.42931 396.029809 
L 973.822438 398.100933 
L 977.215567 360.896768 
L 980.608696 601.502398 
L 984.001824 471.66491 
L 987.394953 395.670782 
L 990.788081 469.638035 
L 994.18121 392.168175 
L 997.574339 419.698086 
L 1000.967467 352.754229 
L 1004.360596 596.418966 
L 1007.753725 344.668168 
L 1011.146853 472.469158 
L 1014.539982 421.35089 
L 1017.93311 326.656288 
L 1021.326239 402.405561 
L 1024.719368 340.111465 
L 1028.112496 387.09421 
L 1031.505625 370.796281 
L 1034.898753 403.516114 
L 1038.291882 540.002867 
L 1041.685011 434.90793 
L 1045.078139 409.411688 
L 1048.471268 436.972096 
L 1051.864396 375.901612 
L 1055.257525 358.062151 
L 1058.650654 329.859123 
L 1062.043782 369.338127 
L 1065.436911 437.271126 
L 1068.83004 375.028783 
L 1072.223168 357.342803 
L 1075.616297 351.782933 
L 1079.009425 348.857247 
L 1082.402554 399.022124 
L 1085.795683 359.201991 
L 1089.188811 412.212903 
L 1092.58194 497.299864 
L 1095.975068 366.929885 
L 1099.368197 425.647194 
L 1102.761326 355.087385 
L 1106.154454 430.526151 
L 1109.547583 350.220768 
L 1112.940711 314.42078 
L 1116.33384 292.281208 
L 1119.726969 303.998187 
L 1123.120097 273.892725 
L 1126.513226 286.235522 
L 1129.906355 278.453928 
L 1133.299483 288.619758 
L 1136.692612 286.710725 
L 1140.08574 269.805566 
L 1143.478869 264.530164 
L 1146.871998 258.242787 
L 1150.265126 283.178322 
L 1153.658255 299.890426 
L 1157.051383 268.227183 
L 1160.444512 259.797655 
L 1163.837641 290.232698 
L 1167.230769 310.328712 
L 1170.623898 316.890754 
L 1174.017026 332.715871 
L 1177.410155 433.452161 
L 1180.803284 409.93571 
L 1184.196412 360.503908 
L 1187.589541 382.407251 
L 1190.98267 328.902024 
L 1194.375798 293.152596 
L 1197.768927 327.853542 
L 1201.162055 297.164661 
L 1204.555184 286.477864 
L 1207.948313 359.669889 
L 1211.341441 309.860968 
L 1214.73457 275.687249 
L 1218.127698 245.904635 
L 1221.520827 269.698246 
L 1224.913956 282.452119 
L 1228.307084 280.012792 
L 1231.700213 261.24422 
L 1235.093341 311.495399 
L 1238.48647 301.815869 
L 1241.879599 304.941744 
L 1245.272727 363.067466 
L 1245.272727 363.067466 
" style="fill:none;stroke:#1f77b4;stroke-linecap:square;stroke-opacity:0.65;stroke-width:1.5;"/>
   </g>
   <g id="line2d_20">
    <path clip-path="url(#p0335a60978)" d="M 230.727273 133.330909 
L 234.120401 272.354035 
L 237.51353 266.010339 
L 240.906659 252.095013 
L 244.299787 284.149827 
L 247.692916 278.859182 
L 254.479173 244.37811 
L 257.872302 290.293577 
L 261.26543 256.546447 
L 264.658559 262.377912 
L 268.051687 283.671305 
L 271.444816 343.226295 
L 274.837945 322.267446 
L 278.231073 567.888273 
L 281.624202 308.13147 
L 285.01733 427.689313 
L 288.410459 364.258244 
L 291.803588 348.832403 
L 295.196716 353.579111 
L 298.589845 365.037926 
L 301.982974 387.184075 
L 305.376102 442.389664 
L 308.769231 353.729853 
L 312.162359 341.827688 
L 315.555488 337.895939 
L 318.948617 372.585292 
L 322.341745 438.013195 
L 325.734874 368.215318 
L 329.128002 401.843813 
L 332.521131 378.357883 
L 335.91426 384.044226 
L 339.307388 452.504125 
L 342.700517 381.591294 
L 346.093645 400.847143 
L 349.486774 411.274836 
L 352.879903 361.21867 
L 356.273031 429.641704 
L 359.66616 410.128104 
L 363.059289 386.408364 
L 366.452417 596.887057 
L 369.845546 436.411091 
L 373.238674 400.461831 
L 376.631803 379.128285 
L 380.024932 575.546768 
L 383.41806 403.553124 
L 386.811189 526.464533 
L 390.204317 373.729695 
L 393.597446 406.364909 
L 396.990575 420.83508 
L 400.383703 617.678536 
L 403.776832 416.741706 
L 407.16996 364.500096 
L 410.563089 464.217518 
L 413.956218 385.316813 
L 417.349346 384.538168 
L 420.742475 344.524445 
L 424.135604 356.893401 
L 427.528732 693.754478 
L 430.921861 343.56937 
L 434.314989 448.751233 
L 437.708118 336.76335 
L 441.101247 390.008114 
L 444.494375 546.176127 
L 447.887504 365.347044 
L 451.280632 492.278037 
L 454.673761 368.543533 
L 458.06689 365.392035 
L 461.460018 488.784438 
L 464.853147 438.651805 
L 468.246275 441.84798 
L 471.639404 368.499498 
L 475.032533 459.009919 
L 478.425661 425.426657 
L 481.81879 435.505123 
L 485.211919 397.343389 
L 488.605047 441.515053 
L 491.998176 390.208215 
L 495.391304 542.280185 
L 498.784433 586.348614 
L 502.177562 402.140185 
L 505.57069 519.95562 
L 508.963819 403.15415 
L 512.356947 404.922205 
L 515.750076 372.39697 
L 519.143205 394.16744 
L 522.536333 410.564632 
L 525.929462 616.251487 
L 529.32259 396.694226 
L 532.715719 551.363342 
L 536.108848 457.558937 
L 539.501976 461.518429 
L 542.895105 447.194358 
L 546.288234 388.212539 
L 549.681362 397.345785 
L 553.074491 334.557112 
L 556.467619 378.013455 
L 559.860748 472.168253 
L 563.253877 400.388933 
L 566.647005 413.745526 
L 570.040134 394.777184 
L 573.433262 393.597326 
L 576.826391 399.493688 
L 580.21952 440.2124 
L 583.612648 442.193214 
L 587.005777 576.556862 
L 590.398905 355.681115 
L 593.792034 488.809183 
L 597.185163 386.673502 
L 600.578291 512.201003 
L 603.97142 352.541844 
L 607.364548 436.000479 
L 610.757677 406.131313 
L 614.150806 417.167266 
L 617.543934 441.207101 
L 620.937063 666.39413 
L 624.330192 506.241907 
L 627.72332 507.044601 
L 631.116449 627.079406 
L 634.509577 393.98266 
L 637.902706 409.643447 
L 641.295835 492.521745 
L 644.688963 463.176848 
L 648.082092 470.341387 
L 651.47522 509.097625 
L 654.868349 442.032984 
L 658.261478 478.588475 
L 661.654606 415.094738 
L 665.047735 502.798137 
L 668.440863 653.337552 
L 671.833992 416.399684 
L 675.227121 451.955507 
L 678.620249 646.793465 
L 682.013378 395.218837 
L 685.406507 497.488372 
L 688.799635 487.412684 
L 692.192764 478.147557 
L 695.585892 474.448796 
L 698.979021 473.758144 
L 702.37215 456.831849 
L 705.765278 518.214999 
L 709.158407 502.893734 
L 712.551535 664.758962 
L 715.944664 458.478108 
L 719.337793 561.403189 
L 722.730921 378.419541 
L 726.12405 392.019832 
L 729.517178 499.111478 
L 732.910307 569.20849 
L 736.303436 656.547497 
L 739.696564 441.718269 
L 743.089693 663.188915 
L 746.482822 533.688407 
L 749.87595 582.95894 
L 753.269079 574.00829 
L 756.662207 419.836339 
L 760.055336 697.521514 
L 763.448465 497.265287 
L 766.841593 499.762615 
L 770.234722 659.260091 
L 773.62785 678.733124 
L 777.020979 491.154262 
L 780.414108 572.643338 
L 783.807236 572.601381 
L 787.200365 560.171939 
L 790.593493 463.477286 
L 793.986622 523.329566 
L 797.379751 433.743905 
L 800.772879 478.551122 
L 804.166008 658.318737 
L 807.559137 463.235971 
L 810.952265 423.955067 
L 814.345394 528.434104 
L 821.131651 452.43983 
L 824.52478 492.439555 
L 827.917908 607.608516 
L 831.311037 467.417239 
L 834.704165 660.152339 
L 838.097294 454.734648 
L 841.490423 617.473467 
L 844.883551 466.617193 
L 848.27668 622.761205 
L 851.669808 584.860262 
L 855.062937 558.740415 
L 858.456066 521.473071 
L 861.849194 659.804561 
L 865.242323 660.269546 
L 868.635452 430.846149 
L 872.02858 611.94225 
L 875.421709 434.174121 
L 878.814837 644.427983 
L 882.207966 488.361541 
L 885.601095 656.439096 
L 888.994223 623.017339 
L 892.387352 658.162524 
L 895.78048 462.177996 
L 899.173609 657.675217 
L 902.566738 438.186581 
L 905.959866 573.057458 
L 909.352995 444.253753 
L 916.139252 571.57327 
L 919.532381 502.857929 
L 922.925509 450.862846 
L 926.318638 508.398032 
L 929.711766 438.252728 
L 933.104895 499.422623 
L 936.498024 686.616721 
L 939.891152 599.213142 
L 943.284281 594.516988 
L 946.67741 569.604503 
L 950.070538 464.920725 
L 953.463667 445.135197 
L 956.856795 675.866512 
L 960.249924 450.558671 
L 963.643053 410.620834 
L 967.036181 616.201843 
L 970.42931 534.466371 
L 973.822438 467.212615 
L 977.215567 580.442727 
L 980.608696 487.511432 
L 984.001824 677.791905 
L 987.394953 560.457434 
L 990.788081 657.903164 
L 994.18121 476.671637 
L 997.574339 384.449225 
L 1000.967467 522.509726 
L 1004.360596 424.784798 
L 1007.753725 415.465704 
L 1011.146853 569.387142 
L 1014.539982 434.622788 
L 1017.93311 440.408183 
L 1021.326239 405.268237 
L 1024.719368 586.367727 
L 1028.112496 422.648342 
L 1031.505625 480.944614 
L 1034.898753 601.79164 
L 1038.291882 661.176394 
L 1041.685011 446.359762 
L 1045.078139 482.128654 
L 1048.471268 634.799494 
L 1051.864396 662.630823 
L 1055.257525 583.707016 
L 1058.650654 630.945116 
L 1062.043782 468.08002 
L 1065.436911 433.058882 
L 1068.83004 598.129459 
L 1072.223168 480.175538 
L 1075.616297 453.277394 
L 1079.009425 641.090559 
L 1082.402554 649.598319 
L 1085.795683 473.637687 
L 1089.188811 479.361395 
L 1092.58194 638.716787 
L 1095.975068 439.832396 
L 1099.368197 490.489022 
L 1102.761326 528.601807 
L 1106.154454 487.196474 
L 1109.547583 565.430197 
L 1112.940711 652.907408 
L 1116.33384 383.926108 
L 1119.726969 459.594248 
L 1123.120097 435.770997 
L 1126.513226 559.869642 
L 1129.906355 456.516588 
L 1133.299483 583.295747 
L 1136.692612 467.600636 
L 1140.08574 529.901957 
L 1143.478869 415.644415 
L 1146.871998 651.671642 
L 1150.265126 485.319035 
L 1153.658255 491.496309 
L 1157.051383 441.452563 
L 1160.444512 657.992744 
L 1163.837641 412.433281 
L 1167.230769 501.00514 
L 1170.623898 435.888976 
L 1174.017026 606.700417 
L 1177.410155 434.347361 
L 1180.803284 396.846859 
L 1184.196412 577.683711 
L 1187.589541 591.413152 
L 1190.98267 597.41595 
L 1194.375798 479.39521 
L 1197.768927 541.59599 
L 1201.162055 496.132281 
L 1204.555184 262.692049 
L 1207.948313 289.455079 
L 1211.341441 281.296704 
L 1214.73457 286.210266 
L 1218.127698 241.419882 
L 1221.520827 660.373599 
L 1245.272727 660.373599 
L 1245.272727 660.373599 
" style="fill:none;stroke:#ff7f0e;stroke-linecap:square;stroke-opacity:0.65;stroke-width:1.5;"/>
   </g>
   <g id="line2d_21">
    <path clip-path="url(#p0335a60978)" d="M 230.727273 188.615107 
L 234.120401 290.400055 
L 237.51353 287.714784 
L 240.906659 253.815032 
L 244.299787 262.436729 
L 247.692916 265.136388 
L 251.086044 237.384018 
L 254.479173 256.295665 
L 257.872302 270.364536 
L 261.26543 273.277502 
L 264.658559 255.954232 
L 268.051687 277.108579 
L 271.444816 258.578915 
L 274.837945 249.683671 
L 278.231073 263.813994 
L 281.624202 280.879189 
L 285.01733 257.870024 
L 288.410459 249.317653 
L 291.803588 277.059182 
L 295.196716 267.652652 
L 298.589845 256.835112 
L 301.982974 253.297287 
L 305.376102 265.224946 
L 308.769231 274.751429 
L 312.162359 291.044661 
L 315.555488 269.628543 
L 318.948617 267.637256 
L 322.341745 255.085617 
L 325.734874 259.739178 
L 329.128002 275.175696 
L 332.521131 261.660025 
L 335.91426 243.818428 
L 339.307388 262.888302 
L 342.700517 265.191302 
L 346.093645 282.237276 
L 349.486774 307.730197 
L 352.879903 314.255777 
L 356.273031 289.081489 
L 359.66616 281.585101 
L 363.059289 301.550526 
L 366.452417 280.931162 
L 369.845546 285.214504 
L 373.238674 299.428612 
L 376.631803 289.58454 
L 380.024932 318.315771 
L 383.41806 329.15742 
L 386.811189 292.199217 
L 390.204317 324.022798 
L 393.597446 314.043787 
L 396.990575 314.311189 
L 400.383703 352.405074 
L 403.776832 341.311847 
L 407.16996 362.716533 
L 410.563089 330.043954 
L 413.956218 332.607304 
L 417.349346 333.401287 
L 420.742475 360.625064 
L 424.135604 391.67834 
L 427.528732 346.383838 
L 430.921861 347.859274 
L 434.314989 353.160908 
L 437.708118 339.438932 
L 441.101247 320.083537 
L 444.494375 388.285773 
L 447.887504 356.580393 
L 451.280632 395.784271 
L 454.673761 367.760667 
L 458.06689 355.986058 
L 461.460018 362.528444 
L 464.853147 344.171074 
L 468.246275 333.266879 
L 471.639404 330.967794 
L 475.032533 354.299171 
L 478.425661 367.540068 
L 481.81879 353.460114 
L 485.211919 393.192892 
L 488.605047 329.055301 
L 491.998176 371.472627 
L 495.391304 357.731694 
L 498.784433 325.601335 
L 502.177562 404.228236 
L 505.57069 381.714851 
L 508.963819 343.369187 
L 512.356947 426.523248 
L 515.750076 325.694014 
L 519.143205 380.831957 
L 522.536333 329.809694 
L 525.929462 312.139396 
L 529.32259 330.389126 
L 532.715719 339.979418 
L 536.108848 327.556937 
L 539.501976 311.717576 
L 542.895105 361.95957 
L 546.288234 347.45147 
L 549.681362 327.668735 
L 553.074491 336.4835 
L 556.467619 330.131798 
L 559.860748 431.656059 
L 563.253877 400.467722 
L 566.647005 341.313069 
L 570.040134 435.696317 
L 573.433262 312.052999 
L 576.826391 339.088188 
L 580.21952 394.095875 
L 583.612648 403.210469 
L 587.005777 303.536634 
L 590.398905 363.610288 
L 593.792034 289.468965 
L 597.185163 417.413287 
L 600.578291 342.20002 
L 603.97142 452.95463 
L 607.364548 346.192545 
L 610.757677 327.126259 
L 614.150806 365.056233 
L 617.543934 335.126699 
L 620.937063 333.263938 
L 624.330192 415.738521 
L 627.72332 376.614281 
L 631.116449 395.800089 
L 634.509577 416.733933 
L 637.902706 431.774358 
L 641.295835 306.565565 
L 644.688963 314.286369 
L 648.082092 371.237039 
L 651.47522 376.409151 
L 654.868349 338.047918 
L 658.261478 321.744167 
L 661.654606 435.109717 
L 665.047735 335.03278 
L 668.440863 342.114924 
L 671.833992 355.469217 
L 675.227121 356.54559 
L 678.620249 358.692533 
L 682.013378 360.226828 
L 685.406507 406.424914 
L 688.799635 356.649039 
L 692.192764 338.729678 
L 695.585892 332.630224 
L 698.979021 380.745813 
L 702.37215 356.819297 
L 705.765278 321.125911 
L 709.158407 325.289322 
L 712.551535 309.173192 
L 715.944664 338.385695 
L 719.337793 338.384884 
L 722.730921 313.524103 
L 726.12405 372.952711 
L 729.517178 445.311241 
L 732.910307 339.272649 
L 736.303436 415.754916 
L 739.696564 358.644305 
L 743.089693 324.646578 
L 746.482822 471.787731 
L 749.87595 379.507322 
L 753.269079 389.753663 
L 756.662207 354.222923 
L 760.055336 373.835897 
L 763.448465 339.047921 
L 766.841593 358.401102 
L 770.234722 381.684166 
L 773.62785 383.265204 
L 777.020979 385.518615 
L 780.414108 357.026417 
L 783.807236 331.331782 
L 787.200365 463.382672 
L 790.593493 391.403468 
L 793.986622 345.94838 
L 797.379751 375.627021 
L 800.772879 393.879965 
L 804.166008 388.374815 
L 807.559137 478.966362 
L 810.952265 433.430051 
L 814.345394 326.911267 
L 817.738522 367.613479 
L 821.131651 412.575056 
L 824.52478 387.313667 
L 827.917908 381.100479 
L 831.311037 339.135157 
L 834.704165 359.684507 
L 838.097294 377.732851 
L 841.490423 323.377544 
L 844.883551 452.982208 
L 848.27668 391.897586 
L 851.669808 363.422682 
L 855.062937 370.18257 
L 858.456066 535.408597 
L 861.849194 356.132577 
L 865.242323 374.120282 
L 868.635452 356.254705 
L 872.02858 534.443943 
L 875.421709 365.588257 
L 878.814837 368.331093 
L 882.207966 294.225695 
L 885.601095 571.129081 
L 888.994223 350.030305 
L 892.387352 347.367377 
L 895.78048 349.82356 
L 899.173609 333.571591 
L 902.566738 333.212497 
L 905.959866 324.287594 
L 909.352995 373.253714 
L 912.746123 468.116878 
L 916.139252 381.07014 
L 919.532381 343.530772 
L 922.925509 378.91892 
L 926.318638 462.991832 
L 929.711766 448.737442 
L 933.104895 353.206909 
L 936.498024 364.078748 
L 939.891152 340.193611 
L 943.284281 415.451764 
L 946.67741 334.320006 
L 950.070538 342.322103 
L 953.463667 324.190486 
L 956.856795 319.027274 
L 960.249924 353.876853 
L 963.643053 308.83735 
L 967.036181 508.842635 
L 970.42931 366.789306 
L 973.822438 457.345703 
L 977.215567 347.887572 
L 980.608696 317.229463 
L 984.001824 335.53993 
L 987.394953 346.8864 
L 990.788081 337.899349 
L 994.18121 456.669785 
L 997.574339 345.247036 
L 1000.967467 467.125418 
L 1004.360596 328.05418 
L 1007.753725 407.480069 
L 1011.146853 518.101439 
L 1014.539982 415.070814 
L 1017.93311 334.805789 
L 1021.326239 386.862931 
L 1024.719368 461.878359 
L 1028.112496 401.295113 
L 1031.505625 407.212275 
L 1034.898753 447.370768 
L 1038.291882 409.871305 
L 1041.685011 510.438938 
L 1045.078139 350.431151 
L 1048.471268 472.063442 
L 1051.864396 340.803443 
L 1055.257525 404.453143 
L 1058.650654 340.848654 
L 1062.043782 348.486239 
L 1065.436911 336.296018 
L 1068.83004 315.586407 
L 1072.223168 351.848391 
L 1075.616297 320.432255 
L 1079.009425 345.489103 
L 1082.402554 351.629418 
L 1085.795683 617.130761 
L 1089.188811 460.797856 
L 1092.58194 342.408694 
L 1095.975068 341.13402 
L 1099.368197 534.078711 
L 1102.761326 385.59054 
L 1106.154454 343.748448 
L 1109.547583 342.909464 
L 1112.940711 347.483122 
L 1116.33384 385.879536 
L 1119.726969 483.593308 
L 1123.120097 331.815032 
L 1126.513226 284.099178 
L 1129.906355 309.577715 
L 1133.299483 344.841651 
L 1136.692612 444.110391 
L 1140.08574 338.928685 
L 1143.478869 381.93549 
L 1146.871998 626.350001 
L 1150.265126 364.683636 
L 1153.658255 347.520315 
L 1157.051383 348.556083 
L 1160.444512 567.881556 
L 1163.837641 342.348312 
L 1167.230769 359.631726 
L 1170.623898 391.605729 
L 1174.017026 368.373403 
L 1177.410155 431.606724 
L 1180.803284 471.025388 
L 1184.196412 336.225866 
L 1187.589541 601.683955 
L 1190.98267 408.023993 
L 1194.375798 553.967116 
L 1197.768927 464.894221 
L 1201.162055 539.013324 
L 1204.555184 295.53271 
L 1207.948313 516.962988 
L 1211.341441 461.85861 
L 1214.73457 337.328235 
L 1218.127698 378.006528 
L 1221.520827 358.074714 
L 1224.913956 401.719744 
L 1228.307084 357.164218 
L 1231.700213 286.757951 
L 1235.093341 455.298299 
L 1238.48647 394.714837 
L 1241.879599 351.426129 
L 1245.272727 370.438693 
L 1245.272727 370.438693 
" style="fill:none;stroke:#2ca02c;stroke-linecap:square;stroke-opacity:0.65;stroke-width:1.5;"/>
   </g>
   <g id="line2d_22">
    <path clip-path="url(#p0335a60978)" d="M 230.727273 197.214872 
L 234.120401 258.415856 
L 237.51353 265.434458 
L 240.906659 284.761683 
L 244.299787 266.175857 
L 247.692916 293.144789 
L 251.086044 275.500359 
L 254.479173 274.556398 
L 257.872302 272.950786 
L 261.26543 275.859704 
L 264.658559 254.147564 
L 268.051687 279.27513 
L 271.444816 268.988105 
L 274.837945 295.443913 
L 278.231073 335.18638 
L 281.624202 314.703229 
L 285.01733 333.185965 
L 288.410459 331.886527 
L 291.803588 310.786353 
L 295.196716 316.513716 
L 298.589845 316.873021 
L 305.376102 326.134199 
L 308.769231 346.680436 
L 312.162359 341.946238 
L 315.555488 311.634129 
L 318.948617 312.177845 
L 322.341745 357.829873 
L 325.734874 356.956931 
L 329.128002 362.914042 
L 332.521131 350.063252 
L 335.91426 327.690531 
L 339.307388 379.263094 
L 342.700517 346.995976 
L 346.093645 355.403643 
L 349.486774 350.515556 
L 352.879903 355.549683 
L 356.273031 361.731848 
L 359.66616 379.03472 
L 363.059289 367.329348 
L 366.452417 441.779454 
L 369.845546 375.347562 
L 373.238674 378.497425 
L 376.631803 387.541995 
L 380.024932 437.266233 
L 383.41806 344.963343 
L 386.811189 424.394284 
L 390.204317 329.785638 
L 393.597446 366.29589 
L 396.990575 355.408176 
L 400.383703 447.942588 
L 403.776832 372.745912 
L 407.16996 360.715503 
L 410.563089 368.439244 
L 413.956218 334.452049 
L 417.349346 360.161201 
L 420.742475 326.704002 
L 424.135604 338.198368 
L 427.528732 488.221884 
L 430.921861 356.456034 
L 434.314989 396.333873 
L 437.708118 341.003387 
L 441.101247 359.01986 
L 444.494375 419.224759 
L 447.887504 348.70402 
L 451.280632 389.46044 
L 454.673761 352.402219 
L 458.06689 328.309843 
L 461.460018 395.239455 
L 464.853147 380.152563 
L 468.246275 379.438931 
L 471.639404 351.779359 
L 475.032533 352.231134 
L 478.425661 364.967078 
L 481.81879 372.455631 
L 485.211919 366.327868 
L 488.605047 369.235993 
L 491.998176 357.628174 
L 495.391304 405.664213 
L 498.784433 474.608655 
L 502.177562 341.803107 
L 505.57069 375.31261 
L 508.963819 358.933237 
L 512.356947 372.450661 
L 515.750076 386.648257 
L 519.143205 341.702715 
L 522.536333 361.394316 
L 525.929462 503.636532 
L 529.32259 341.20008 
L 532.715719 469.387423 
L 536.108848 354.551275 
L 539.501976 401.111 
L 542.895105 390.144511 
L 546.288234 349.22388 
L 549.681362 343.515406 
L 553.074491 356.836195 
L 556.467619 334.431428 
L 559.860748 382.306351 
L 563.253877 383.03692 
L 566.647005 362.538349 
L 570.040134 348.972236 
L 573.433262 338.717844 
L 576.826391 358.637428 
L 580.21952 391.073496 
L 583.612648 420.386893 
L 587.005777 443.540591 
L 590.398905 321.175093 
L 593.792034 391.432262 
L 597.185163 352.927167 
L 600.578291 434.370318 
L 603.97142 336.147566 
L 607.364548 346.326849 
L 610.757677 390.148234 
L 614.150806 380.360063 
L 617.543934 394.579521 
L 620.937063 495.191121 
L 624.330192 392.916968 
L 627.72332 387.699963 
L 631.116449 431.304354 
L 634.509577 336.169717 
L 637.902706 351.752674 
L 641.295835 377.366478 
L 644.688963 437.16744 
L 648.082092 431.734352 
L 651.47522 439.574013 
L 654.868349 368.657202 
L 658.261478 421.88153 
L 661.654606 404.1103 
L 665.047735 420.791765 
L 668.440863 560.419653 
L 671.833992 393.652583 
L 675.227121 440.180961 
L 678.620249 645.228042 
L 682.013378 364.132719 
L 685.406507 411.878467 
L 688.799635 399.441834 
L 692.192764 377.541459 
L 695.585892 443.219479 
L 698.979021 433.872385 
L 702.37215 366.290678 
L 705.765278 434.78209 
L 709.158407 437.584406 
L 712.551535 616.891049 
L 715.944664 483.798999 
L 719.337793 570.405155 
L 722.730921 346.748178 
L 726.12405 383.224069 
L 729.517178 439.352752 
L 732.910307 427.948448 
L 736.303436 577.226535 
L 739.696564 390.916491 
L 743.089693 652.231465 
L 746.482822 475.94986 
L 749.87595 442.710756 
L 753.269079 434.163846 
L 756.662207 377.311246 
L 760.055336 720.433547 
L 763.448465 420.405093 
L 766.841593 470.571375 
L 770.234722 612.916753 
L 773.62785 676.795572 
L 777.020979 414.222893 
L 780.414108 422.779729 
L 783.807236 528.118898 
L 787.200365 518.479878 
L 790.593493 390.256406 
L 793.986622 444.086186 
L 797.379751 413.871389 
L 800.772879 423.930765 
L 804.166008 597.717636 
L 807.559137 420.023081 
L 810.952265 395.798391 
L 814.345394 433.07784 
L 817.738522 403.297625 
L 821.131651 453.20837 
L 824.52478 445.46148 
L 827.917908 572.739224 
L 831.311037 432.891585 
L 834.704165 611.368011 
L 838.097294 396.736752 
L 841.490423 482.062135 
L 844.883551 408.530074 
L 848.27668 529.784638 
L 851.669808 590.607571 
L 855.062937 533.206981 
L 858.456066 469.361518 
L 861.849194 650.234706 
L 865.242323 660.062071 
L 868.635452 417.797525 
L 872.02858 578.07696 
L 875.421709 367.69054 
L 878.814837 542.324538 
L 882.207966 409.36072 
L 885.601095 592.708046 
L 888.994223 624.72483 
L 892.387352 661.221068 
L 895.78048 427.596146 
L 899.173609 655.911594 
L 902.566738 380.346562 
L 905.959866 454.453764 
L 909.352995 357.075254 
L 912.746123 445.072776 
L 916.139252 484.86533 
L 919.532381 436.128092 
L 922.925509 407.057016 
L 926.318638 414.609448 
L 929.711766 415.136444 
L 933.104895 415.167785 
L 936.498024 697.41496 
L 939.891152 617.988312 
L 943.284281 417.227651 
L 946.67741 581.813738 
L 950.070538 337.388519 
L 953.463667 453.693241 
L 956.856795 678.082427 
L 960.249924 340.374699 
L 963.643053 391.204063 
L 967.036181 478.875515 
L 970.42931 496.181902 
L 973.822438 416.049319 
L 977.215567 444.275001 
L 980.608696 436.876376 
L 984.001824 636.206599 
L 987.394953 454.840004 
L 990.788081 659.148685 
L 994.18121 424.534418 
L 997.574339 388.623365 
L 1000.967467 442.162698 
L 1004.360596 375.294485 
L 1007.753725 389.210788 
L 1011.146853 520.098172 
L 1014.539982 379.014665 
L 1017.93311 364.123749 
L 1021.326239 437.091715 
L 1024.719368 457.644171 
L 1028.112496 349.194939 
L 1031.505625 452.370351 
L 1034.898753 569.364925 
L 1038.291882 658.548164 
L 1041.685011 374.741312 
L 1045.078139 427.73298 
L 1048.471268 627.413593 
L 1051.864396 671.443324 
L 1055.257525 488.101017 
L 1058.650654 629.671345 
L 1062.043782 421.411094 
L 1065.436911 542.42234 
L 1068.83004 675.757798 
L 1072.223168 465.370628 
L 1075.616297 482.980396 
L 1079.009425 647.338824 
L 1082.402554 653.776828 
L 1085.795683 513.95033 
L 1089.188811 490.232546 
L 1092.58194 643.053105 
L 1095.975068 447.169526 
L 1099.368197 423.649406 
L 1102.761326 518.430032 
L 1106.154454 424.537997 
L 1109.547583 530.35796 
L 1112.940711 641.541454 
L 1116.33384 395.860796 
L 1119.726969 449.392364 
L 1123.120097 363.682121 
L 1126.513226 536.054786 
L 1129.906355 412.325581 
L 1133.299483 546.979889 
L 1136.692612 389.05064 
L 1140.08574 512.110451 
L 1143.478869 376.191679 
L 1146.871998 654.068867 
L 1150.265126 394.461389 
L 1153.658255 461.559361 
L 1157.051383 433.147544 
L 1160.444512 663.80379 
L 1163.837641 432.876856 
L 1167.230769 501.514351 
L 1170.623898 434.848839 
L 1174.017026 596.487047 
L 1177.410155 455.811792 
L 1180.803284 435.564738 
L 1184.196412 571.946387 
L 1187.589541 566.564365 
L 1190.98267 608.143374 
L 1194.375798 465.12128 
L 1197.768927 523.312069 
L 1201.162055 437.000406 
L 1204.555184 474.348522 
L 1207.948313 558.975115 
L 1211.341441 407.07677 
L 1214.73457 597.12677 
L 1218.127698 501.309409 
L 1221.520827 453.098333 
L 1224.913956 471.651093 
L 1228.307084 532.768556 
L 1231.700213 283.689067 
L 1235.093341 288.583261 
L 1238.48647 310.825732 
L 1241.879599 276.936222 
L 1245.272727 288.126664 
L 1245.272727 288.126664 
" style="fill:none;stroke:#d62728;stroke-linecap:square;stroke-opacity:0.65;stroke-width:1.5;"/>
   </g>
   <g id="line2d_23">
    <path clip-path="url(#p0335a60978)" d="M 230.727273 274.121334 
L 234.120401 355.166378 
L 237.51353 351.091904 
L 240.906659 341.478724 
L 244.299787 352.379358 
L 247.692916 357.898344 
L 251.086044 348.979933 
L 254.479173 347.435187 
L 257.872302 361.352837 
L 261.26543 353.005899 
L 264.658559 342.334231 
L 268.051687 362.212594 
L 271.444816 367.80862 
L 274.837945 364.158112 
L 278.231073 421.552986 
L 281.624202 371.279333 
L 285.01733 393.748409 
L 288.410459 379.079718 
L 291.803588 385.917872 
L 295.196716 382.209033 
L 298.589845 386.611791 
L 301.982974 383.235432 
L 305.376102 399.892146 
L 308.769231 389.45192 
L 312.162359 383.73816 
L 315.555488 381.589338 
L 318.948617 390.055863 
L 322.341745 404.472498 
L 325.734874 394.787743 
L 329.128002 411.939896 
L 332.521131 401.534485 
L 335.91426 392.0066 
L 339.307388 410.349012 
L 342.700517 399.835513 
L 346.093645 406.912244 
L 349.486774 407.687571 
L 352.879903 416.965783 
L 356.273031 417.133332 
L 359.66616 418.313401 
L 363.059289 403.787838 
L 366.452417 470.736803 
L 369.845546 429.925596 
L 373.238674 417.716494 
L 376.631803 415.968879 
L 380.024932 478.897228 
L 383.41806 418.335519 
L 386.811189 509.935486 
L 390.204317 413.27487 
L 393.597446 416.699017 
L 396.990575 474.64834 
L 400.383703 494.059751 
L 403.776832 459.295959 
L 407.16996 445.322082 
L 410.563089 436.470142 
L 413.956218 466.722563 
L 417.349346 433.047741 
L 420.742475 411.600993 
L 424.135604 437.782936 
L 427.528732 514.280334 
L 430.921861 422.633277 
L 434.314989 460.14184 
L 437.708118 423.140273 
L 441.101247 415.767637 
L 444.494375 490.20362 
L 447.887504 418.264753 
L 451.280632 464.801116 
L 454.673761 416.0708 
L 458.06689 428.664068 
L 461.460018 456.556946 
L 464.853147 435.33226 
L 468.246275 508.255296 
L 471.639404 486.273782 
L 475.032533 489.108217 
L 478.425661 455.066654 
L 481.81879 495.489728 
L 485.211919 435.768219 
L 488.605047 438.163892 
L 491.998176 479.222187 
L 495.391304 479.998739 
L 498.784433 482.684852 
L 502.177562 433.982481 
L 505.57069 508.841824 
L 508.963819 439.736918 
L 512.356947 456.178831 
L 515.750076 420.007156 
L 519.143205 425.604495 
L 522.536333 442.466171 
L 525.929462 505.288146 
L 529.32259 421.483674 
L 532.715719 489.006908 
L 536.108848 437.476226 
L 539.501976 445.114358 
L 542.895105 465.651999 
L 546.288234 440.865207 
L 549.681362 435.585375 
L 553.074491 419.856593 
L 556.467619 414.073655 
L 559.860748 448.079531 
L 563.253877 453.13406 
L 566.647005 433.323075 
L 570.040134 450.018399 
L 573.433262 414.076844 
L 576.826391 443.730242 
L 580.21952 452.640084 
L 583.612648 456.059681 
L 587.005777 471.478747 
L 590.398905 417.703697 
L 593.792034 440.435328 
L 597.185163 447.374298 
L 600.578291 468.740947 
L 603.97142 453.230516 
L 607.364548 420.803981 
L 610.757677 433.525939 
L 614.150806 438.151082 
L 617.543934 448.217991 
L 620.937063 520.845334 
L 624.330192 476.850356 
L 627.72332 462.692915 
L 631.116449 499.152154 
L 634.509577 438.904704 
L 637.902706 446.099871 
L 641.295835 499.136117 
L 644.688963 454.277696 
L 648.082092 461.046168 
L 651.47522 479.050025 
L 654.868349 437.447458 
L 658.261478 450.417584 
L 661.654606 454.563223 
L 665.047735 473.148868 
L 668.440863 514.402693 
L 671.833992 432.586204 
L 675.227121 474.873596 
L 678.620249 529.078666 
L 682.013378 425.120518 
L 685.406507 460.463693 
L 688.799635 443.72746 
L 692.192764 451.251057 
L 695.585892 450.729516 
L 698.979021 474.939339 
L 702.37215 451.355186 
L 705.765278 464.366105 
L 709.158407 443.685639 
L 712.551535 516.347908 
L 715.944664 453.110243 
L 719.337793 486.386784 
L 722.730921 408.921483 
L 726.12405 428.474552 
L 729.517178 473.609135 
L 732.910307 468.959503 
L 736.303436 536.153041 
L 739.696564 451.921854 
L 743.089693 529.561018 
L 746.482822 495.961847 
L 749.87595 483.38817 
L 753.269079 496.552367 
L 756.662207 431.434037 
L 760.055336 561.285059 
L 763.448465 472.829551 
L 766.841593 468.681898 
L 770.234722 549.015195 
L 773.62785 571.677085 
L 777.020979 463.323377 
L 780.414108 524.519972 
L 783.807236 499.120912 
L 787.200365 519.970202 
L 790.593493 455.345246 
L 793.986622 468.653729 
L 797.379751 459.014702 
L 800.772879 461.907638 
L 804.166008 547.464968 
L 807.559137 479.801909 
L 810.952265 455.391548 
L 814.345394 462.113293 
L 817.738522 486.228691 
L 821.131651 523.264504 
L 824.52478 475.431371 
L 827.917908 517.744348 
L 831.311037 458.906117 
L 834.704165 534.172439 
L 838.097294 442.689259 
L 841.490423 510.725261 
L 844.883551 475.973321 
L 848.27668 510.429275 
L 851.669808 523.523965 
L 855.062937 493.125559 
L 858.456066 567.504731 
L 861.849194 531.679324 
L 865.242323 566.81893 
L 868.635452 453.224944 
L 872.02858 547.690437 
L 875.421709 456.762239 
L 878.814837 518.748228 
L 882.207966 455.757213 
L 885.601095 567.759019 
L 888.994223 531.114838 
L 892.387352 544.081847 
L 895.78048 455.357261 
L 899.173609 593.041397 
L 902.566738 440.99789 
L 905.959866 492.721788 
L 909.352995 437.08783 
L 912.746123 522.901575 
L 919.532381 457.1112 
L 922.925509 452.39184 
L 926.318638 486.851884 
L 929.711766 466.264649 
L 933.104895 463.813558 
L 936.498024 553.280679 
L 943.284281 498.156013 
L 946.67741 502.872923 
L 950.070538 431.950605 
L 953.463667 503.423228 
L 956.856795 538.093838 
L 960.249924 442.568213 
L 963.643053 417.067951 
L 967.036181 522.260653 
L 970.42931 490.768197 
L 973.822438 479.816434 
L 977.215567 478.775133 
L 980.608696 500.698653 
L 984.001824 556.315389 
L 987.394953 483.645644 
L 990.788081 556.992567 
L 994.18121 482.083523 
L 997.574339 439.678262 
L 1000.967467 488.985134 
L 1004.360596 476.985206 
L 1007.753725 443.439666 
L 1011.146853 548.085902 
L 1014.539982 462.086551 
L 1017.93311 425.273521 
L 1021.326239 458.400409 
L 1024.719368 501.275064 
L 1028.112496 444.121241 
L 1031.505625 474.339424 
L 1034.898753 536.483409 
L 1038.291882 585.994466 
L 1041.685011 485.364308 
L 1045.078139 466.015614 
L 1048.471268 566.324445 
L 1051.864396 542.23056 
L 1055.257525 498.939385 
L 1058.650654 518.339567 
L 1062.043782 453.537816 
L 1065.436911 481.884393 
L 1068.83004 524.975209 
L 1072.223168 463.022192 
L 1075.616297 453.769315 
L 1079.009425 528.629866 
L 1082.402554 542.880058 
L 1085.795683 524.858873 
L 1089.188811 500.59566 
L 1092.58194 556.37041 
L 1095.975068 451.087885 
L 1099.368197 506.847586 
L 1102.761326 489.616673 
L 1106.154454 469.276534 
L 1109.547583 489.858397 
L 1112.940711 523.345273 
L 1116.33384 423.664249 
L 1119.726969 471.390341 
L 1123.120097 413.106895 
L 1126.513226 465.326545 
L 1129.906355 423.449482 
L 1133.299483 484.822129 
L 1136.692612 449.569198 
L 1140.08574 462.224052 
L 1143.478869 419.735069 
L 1146.871998 570.141379 
L 1150.265126 437.603196 
L 1153.658255 452.168002 
L 1157.051383 430.351394 
L 1160.444512 561.969869 
L 1163.837641 427.652949 
L 1167.230769 466.570705 
L 1170.623898 447.921579 
L 1174.017026 512.930067 
L 1177.410155 483.118327 
L 1180.803284 474.749259 
L 1184.196412 501.346694 
L 1187.589541 560.488464 
L 1190.98267 520.571788 
L 1194.375798 490.40196 
L 1197.768927 503.605884 
L 1201.162055 485.936854 
L 1204.555184 395.884949 
L 1207.948313 477.087334 
L 1211.341441 424.09333 
L 1214.73457 431.345224 
L 1218.127698 405.402811 
L 1221.520827 480.323698 
L 1224.913956 495.314031 
L 1228.307084 498.138553 
L 1231.700213 430.487687 
L 1235.093341 475.224831 
L 1238.48647 465.620727 
L 1241.879599 450.810259 
L 1245.272727 468.476004 
L 1245.272727 468.476004 
" style="fill:none;stroke:#000000;stroke-linecap:square;stroke-width:1.5;"/>
   </g>
   <g id="patch_3">
    <path d="M 180 756 
L 180 103.68 
" style="fill:none;stroke:#000000;stroke-linecap:square;stroke-linejoin:miter;stroke-width:0.8;"/>
   </g>
   <g id="patch_4">
    <path d="M 1296 756 
L 1296 103.68 
" style="fill:none;stroke:#000000;stroke-linecap:square;stroke-linejoin:miter;stroke-width:0.8;"/>
   </g>
   <g id="patch_5">
    <path d="M 180 756 
L 1296 756 
" style="fill:none;stroke:#000000;stroke-linecap:square;stroke-linejoin:miter;stroke-width:0.8;"/>
   </g>
   <g id="patch_6">
    <path d="M 180 103.68 
L 1296 103.68 
" style="fill:none;stroke:#000000;stroke-linecap:square;stroke-linejoin:miter;stroke-width:0.8;"/>
   </g>
   <g id="text_21">
    <!-- Matrix Copy Task learning curves -->
    <g transform="translate(638.894063 97.68)scale(0.12 -0.12)">
     <defs>
      <path d="M 9.8125 72.90625 
L 24.515625 72.90625 
L 43.109375 23.296875 
L 61.8125 72.90625 
L 76.515625 72.90625 
L 76.515625 0 
L 66.890625 0 
L 66.890625 64.015625 
L 48.09375 14.015625 
L 38.1875 14.015625 
L 19.390625 64.015625 
L 19.390625 0 
L 9.8125 0 
z
" id="DejaVuSans-77"/>
      <path d="M 54.890625 54.6875 
L 35.109375 28.078125 
L 55.90625 0 
L 45.3125 0 
L 29.390625 21.484375 
L 13.484375 0 
L 2.875 0 
L 24.125 28.609375 
L 4.6875 54.6875 
L 15.28125 54.6875 
L 29.78125 35.203125 
L 44.28125 54.6875 
z
" id="DejaVuSans-120"/>
      <path d="M 64.40625 67.28125 
L 64.40625 56.890625 
Q 59.421875 61.53125 53.78125 63.8125 
Q 48.140625 66.109375 41.796875 66.109375 
Q 29.296875 66.109375 22.65625 58.46875 
Q 16.015625 50.828125 16.015625 36.375 
Q 16.015625 21.96875 22.65625 14.328125 
Q 29.296875 6.6875 41.796875 6.6875 
Q 48.140625 6.6875 53.78125 8.984375 
Q 59.421875 11.28125 64.40625 15.921875 
L 64.40625 5.609375 
Q 59.234375 2.09375 53.4375 0.328125 
Q 47.65625 -1.421875 41.21875 -1.421875 
Q 24.65625 -1.421875 15.125 8.703125 
Q 5.609375 18.84375 5.609375 36.375 
Q 5.609375 53.953125 15.125 64.078125 
Q 24.65625 74.21875 41.21875 74.21875 
Q 47.75 74.21875 53.53125 72.484375 
Q 59.328125 70.75 64.40625 67.28125 
z
" id="DejaVuSans-67"/>
      <path d="M 32.171875 -5.078125 
Q 28.375 -14.84375 24.75 -17.8125 
Q 21.140625 -20.796875 15.09375 -20.796875 
L 7.90625 -20.796875 
L 7.90625 -13.28125 
L 13.1875 -13.28125 
Q 16.890625 -13.28125 18.9375 -11.515625 
Q 21 -9.765625 23.484375 -3.21875 
L 25.09375 0.875 
L 2.984375 54.6875 
L 12.5 54.6875 
L 29.59375 11.921875 
L 46.6875 54.6875 
L 56.203125 54.6875 
z
" id="DejaVuSans-121"/>
      <path d="M -0.296875 72.90625 
L 61.375 72.90625 
L 61.375 64.59375 
L 35.5 64.59375 
L 35.5 0 
L 25.59375 0 
L 25.59375 64.59375 
L -0.296875 64.59375 
z
" id="DejaVuSans-84"/>
      <path d="M 9.078125 75.984375 
L 18.109375 75.984375 
L 18.109375 31.109375 
L 44.921875 54.6875 
L 56.390625 54.6875 
L 27.390625 29.109375 
L 57.625 0 
L 45.90625 0 
L 18.109375 26.703125 
L 18.109375 0 
L 9.078125 0 
z
" id="DejaVuSans-107"/>
      <path d="M 9.421875 75.984375 
L 18.40625 75.984375 
L 18.40625 0 
L 9.421875 0 
z
" id="DejaVuSans-108"/>
      <path d="M 45.40625 27.984375 
Q 45.40625 37.75 41.375 43.109375 
Q 37.359375 48.484375 30.078125 48.484375 
Q 22.859375 48.484375 18.828125 43.109375 
Q 14.796875 37.75 14.796875 27.984375 
Q 14.796875 18.265625 18.828125 12.890625 
Q 22.859375 7.515625 30.078125 7.515625 
Q 37.359375 7.515625 41.375 12.890625 
Q 45.40625 18.265625 45.40625 27.984375 
z
M 54.390625 6.78125 
Q 54.390625 -7.171875 48.1875 -13.984375 
Q 42 -20.796875 29.203125 -20.796875 
Q 24.46875 -20.796875 20.265625 -20.09375 
Q 16.0625 -19.390625 12.109375 -17.921875 
L 12.109375 -9.1875 
Q 16.0625 -11.328125 19.921875 -12.34375 
Q 23.78125 -13.375 27.78125 -13.375 
Q 36.625 -13.375 41.015625 -8.765625 
Q 45.40625 -4.15625 45.40625 5.171875 
L 45.40625 9.625 
Q 42.625 4.78125 38.28125 2.390625 
Q 33.9375 0 27.875 0 
Q 17.828125 0 11.671875 7.65625 
Q 5.515625 15.328125 5.515625 27.984375 
Q 5.515625 40.671875 11.671875 48.328125 
Q 17.828125 56 27.875 56 
Q 33.9375 56 38.28125 53.609375 
Q 42.625 51.21875 45.40625 46.390625 
L 45.40625 54.6875 
L 54.390625 54.6875 
z
" id="DejaVuSans-103"/>
      <path d="M 2.984375 54.6875 
L 12.5 54.6875 
L 29.59375 8.796875 
L 46.6875 54.6875 
L 56.203125 54.6875 
L 35.6875 0 
L 23.484375 0 
z
" id="DejaVuSans-118"/>
     </defs>
     <use xlink:href="#DejaVuSans-77"/>
     <use x="86.279297" xlink:href="#DejaVuSans-97"/>
     <use x="147.558594" xlink:href="#DejaVuSans-116"/>
     <use x="186.767578" xlink:href="#DejaVuSans-114"/>
     <use x="227.880859" xlink:href="#DejaVuSans-105"/>
     <use x="255.664062" xlink:href="#DejaVuSans-120"/>
     <use x="314.84375" xlink:href="#DejaVuSans-32"/>
     <use x="346.630859" xlink:href="#DejaVuSans-67"/>
     <use x="416.455078" xlink:href="#DejaVuSans-111"/>
     <use x="477.636719" xlink:href="#DejaVuSans-112"/>
     <use x="541.113281" xlink:href="#DejaVuSans-121"/>
     <use x="600.292969" xlink:href="#DejaVuSans-32"/>
     <use x="632.080078" xlink:href="#DejaVuSans-84"/>
     <use x="676.664062" xlink:href="#DejaVuSans-97"/>
     <use x="737.943359" xlink:href="#DejaVuSans-115"/>
     <use x="790.042969" xlink:href="#DejaVuSans-107"/>
     <use x="847.953125" xlink:href="#DejaVuSans-32"/>
     <use x="879.740234" xlink:href="#DejaVuSans-108"/>
     <use x="907.523438" xlink:href="#DejaVuSans-101"/>
     <use x="969.046875" xlink:href="#DejaVuSans-97"/>
     <use x="1030.326172" xlink:href="#DejaVuSans-114"/>
     <use x="1069.689453" xlink:href="#DejaVuSans-110"/>
     <use x="1133.068359" xlink:href="#DejaVuSans-105"/>
     <use x="1160.851562" xlink:href="#DejaVuSans-110"/>
     <use x="1224.230469" xlink:href="#DejaVuSans-103"/>
     <use x="1287.707031" xlink:href="#DejaVuSans-32"/>
     <use x="1319.494141" xlink:href="#DejaVuSans-99"/>
     <use x="1374.474609" xlink:href="#DejaVuSans-117"/>
     <use x="1437.853516" xlink:href="#DejaVuSans-114"/>
     <use x="1478.966797" xlink:href="#DejaVuSans-118"/>
     <use x="1538.146484" xlink:href="#DejaVuSans-101"/>
     <use x="1599.669922" xlink:href="#DejaVuSans-115"/>
    </g>
   </g>
   <g id="legend_1">
    <g id="patch_7">
     <path d="M 1196.821875 185.070625 
L 1289 185.070625 
Q 1291 185.070625 1291 183.070625 
L 1291 110.68 
Q 1291 108.68 1289 108.68 
L 1196.821875 108.68 
Q 1194.821875 108.68 1194.821875 110.68 
L 1194.821875 183.070625 
Q 1194.821875 185.070625 1196.821875 185.070625 
z
" style="fill:#ffffff;opacity:0.8;stroke:#cccccc;stroke-linejoin:miter;"/>
    </g>
    <g id="line2d_24">
     <path d="M 1198.821875 116.778437 
L 1218.821875 116.778437 
" style="fill:none;stroke:#1f77b4;stroke-linecap:square;stroke-opacity:0.65;stroke-width:1.5;"/>
    </g>
    <g id="line2d_25"/>
    <g id="text_22">
     <!-- Seed : 3452 -->
     <g transform="translate(1226.821875 120.278437)scale(0.1 -0.1)">
      <defs>
       <path d="M 45.40625 46.390625 
L 45.40625 75.984375 
L 54.390625 75.984375 
L 54.390625 0 
L 45.40625 0 
L 45.40625 8.203125 
Q 42.578125 3.328125 38.25 0.953125 
Q 33.9375 -1.421875 27.875 -1.421875 
Q 17.96875 -1.421875 11.734375 6.484375 
Q 5.515625 14.40625 5.515625 27.296875 
Q 5.515625 40.1875 11.734375 48.09375 
Q 17.96875 56 27.875 56 
Q 33.9375 56 38.25 53.625 
Q 42.578125 51.265625 45.40625 46.390625 
z
M 14.796875 27.296875 
Q 14.796875 17.390625 18.875 11.75 
Q 22.953125 6.109375 30.078125 6.109375 
Q 37.203125 6.109375 41.296875 11.75 
Q 45.40625 17.390625 45.40625 27.296875 
Q 45.40625 37.203125 41.296875 42.84375 
Q 37.203125 48.484375 30.078125 48.484375 
Q 22.953125 48.484375 18.875 42.84375 
Q 14.796875 37.203125 14.796875 27.296875 
z
" id="DejaVuSans-100"/>
       <path d="M 11.71875 12.40625 
L 22.015625 12.40625 
L 22.015625 0 
L 11.71875 0 
z
M 11.71875 51.703125 
L 22.015625 51.703125 
L 22.015625 39.3125 
L 11.71875 39.3125 
z
" id="DejaVuSans-58"/>
       <path d="M 40.578125 39.3125 
Q 47.65625 37.796875 51.625 33 
Q 55.609375 28.21875 55.609375 21.1875 
Q 55.609375 10.40625 48.1875 4.484375 
Q 40.765625 -1.421875 27.09375 -1.421875 
Q 22.515625 -1.421875 17.65625 -0.515625 
Q 12.796875 0.390625 7.625 2.203125 
L 7.625 11.71875 
Q 11.71875 9.328125 16.59375 8.109375 
Q 21.484375 6.890625 26.8125 6.890625 
Q 36.078125 6.890625 40.9375 10.546875 
Q 45.796875 14.203125 45.796875 21.1875 
Q 45.796875 27.640625 41.28125 31.265625 
Q 36.765625 34.90625 28.71875 34.90625 
L 20.21875 34.90625 
L 20.21875 43.015625 
L 29.109375 43.015625 
Q 36.375 43.015625 40.234375 45.921875 
Q 44.09375 48.828125 44.09375 54.296875 
Q 44.09375 59.90625 40.109375 62.90625 
Q 36.140625 65.921875 28.71875 65.921875 
Q 24.65625 65.921875 20.015625 65.03125 
Q 15.375 64.15625 9.8125 62.3125 
L 9.8125 71.09375 
Q 15.4375 72.65625 20.34375 73.4375 
Q 25.25 74.21875 29.59375 74.21875 
Q 40.828125 74.21875 47.359375 69.109375 
Q 53.90625 64.015625 53.90625 55.328125 
Q 53.90625 49.265625 50.4375 45.09375 
Q 46.96875 40.921875 40.578125 39.3125 
z
" id="DejaVuSans-51"/>
      </defs>
      <use xlink:href="#DejaVuSans-83"/>
      <use x="63.476562" xlink:href="#DejaVuSans-101"/>
      <use x="125" xlink:href="#DejaVuSans-101"/>
      <use x="186.523438" xlink:href="#DejaVuSans-100"/>
      <use x="250" xlink:href="#DejaVuSans-32"/>
      <use x="281.787109" xlink:href="#DejaVuSans-58"/>
      <use x="315.478516" xlink:href="#DejaVuSans-32"/>
      <use x="347.265625" xlink:href="#DejaVuSans-51"/>
      <use x="410.888672" xlink:href="#DejaVuSans-52"/>
      <use x="474.511719" xlink:href="#DejaVuSans-53"/>
      <use x="538.134766" xlink:href="#DejaVuSans-50"/>
     </g>
    </g>
    <g id="line2d_26">
     <path d="M 1198.821875 131.456563 
L 1218.821875 131.456563 
" style="fill:none;stroke:#ff7f0e;stroke-linecap:square;stroke-opacity:0.65;stroke-width:1.5;"/>
    </g>
    <g id="line2d_27"/>
    <g id="text_23">
     <!-- Seed : 6809 -->
     <g transform="translate(1226.821875 134.956563)scale(0.1 -0.1)">
      <defs>
       <path d="M 10.984375 1.515625 
L 10.984375 10.5 
Q 14.703125 8.734375 18.5 7.8125 
Q 22.3125 6.890625 25.984375 6.890625 
Q 35.75 6.890625 40.890625 13.453125 
Q 46.046875 20.015625 46.78125 33.40625 
Q 43.953125 29.203125 39.59375 26.953125 
Q 35.25 24.703125 29.984375 24.703125 
Q 19.046875 24.703125 12.671875 31.3125 
Q 6.296875 37.9375 6.296875 49.421875 
Q 6.296875 60.640625 12.9375 67.421875 
Q 19.578125 74.21875 30.609375 74.21875 
Q 43.265625 74.21875 49.921875 64.515625 
Q 56.59375 54.828125 56.59375 36.375 
Q 56.59375 19.140625 48.40625 8.859375 
Q 40.234375 -1.421875 26.421875 -1.421875 
Q 22.703125 -1.421875 18.890625 -0.6875 
Q 15.09375 0.046875 10.984375 1.515625 
z
M 30.609375 32.421875 
Q 37.25 32.421875 41.125 36.953125 
Q 45.015625 41.5 45.015625 49.421875 
Q 45.015625 57.28125 41.125 61.84375 
Q 37.25 66.40625 30.609375 66.40625 
Q 23.96875 66.40625 20.09375 61.84375 
Q 16.21875 57.28125 16.21875 49.421875 
Q 16.21875 41.5 20.09375 36.953125 
Q 23.96875 32.421875 30.609375 32.421875 
z
" id="DejaVuSans-57"/>
      </defs>
      <use xlink:href="#DejaVuSans-83"/>
      <use x="63.476562" xlink:href="#DejaVuSans-101"/>
      <use x="125" xlink:href="#DejaVuSans-101"/>
      <use x="186.523438" xlink:href="#DejaVuSans-100"/>
      <use x="250" xlink:href="#DejaVuSans-32"/>
      <use x="281.787109" xlink:href="#DejaVuSans-58"/>
      <use x="315.478516" xlink:href="#DejaVuSans-32"/>
      <use x="347.265625" xlink:href="#DejaVuSans-54"/>
      <use x="410.888672" xlink:href="#DejaVuSans-56"/>
      <use x="474.511719" xlink:href="#DejaVuSans-48"/>
      <use x="538.134766" xlink:href="#DejaVuSans-57"/>
     </g>
    </g>
    <g id="line2d_28">
     <path d="M 1198.821875 146.134688 
L 1218.821875 146.134688 
" style="fill:none;stroke:#2ca02c;stroke-linecap:square;stroke-opacity:0.65;stroke-width:1.5;"/>
    </g>
    <g id="line2d_29"/>
    <g id="text_24">
     <!-- Seed : 7348 -->
     <g transform="translate(1226.821875 149.634688)scale(0.1 -0.1)">
      <use xlink:href="#DejaVuSans-83"/>
      <use x="63.476562" xlink:href="#DejaVuSans-101"/>
      <use x="125" xlink:href="#DejaVuSans-101"/>
      <use x="186.523438" xlink:href="#DejaVuSans-100"/>
      <use x="250" xlink:href="#DejaVuSans-32"/>
      <use x="281.787109" xlink:href="#DejaVuSans-58"/>
      <use x="315.478516" xlink:href="#DejaVuSans-32"/>
      <use x="347.265625" xlink:href="#DejaVuSans-55"/>
      <use x="410.888672" xlink:href="#DejaVuSans-51"/>
      <use x="474.511719" xlink:href="#DejaVuSans-52"/>
      <use x="538.134766" xlink:href="#DejaVuSans-56"/>
     </g>
    </g>
    <g id="line2d_30">
     <path d="M 1198.821875 160.812812 
L 1218.821875 160.812812 
" style="fill:none;stroke:#d62728;stroke-linecap:square;stroke-opacity:0.65;stroke-width:1.5;"/>
    </g>
    <g id="line2d_31"/>
    <g id="text_25">
     <!-- Seed : 2789 -->
     <g transform="translate(1226.821875 164.312812)scale(0.1 -0.1)">
      <use xlink:href="#DejaVuSans-83"/>
      <use x="63.476562" xlink:href="#DejaVuSans-101"/>
      <use x="125" xlink:href="#DejaVuSans-101"/>
      <use x="186.523438" xlink:href="#DejaVuSans-100"/>
      <use x="250" xlink:href="#DejaVuSans-32"/>
      <use x="281.787109" xlink:href="#DejaVuSans-58"/>
      <use x="315.478516" xlink:href="#DejaVuSans-32"/>
      <use x="347.265625" xlink:href="#DejaVuSans-50"/>
      <use x="410.888672" xlink:href="#DejaVuSans-55"/>
      <use x="474.511719" xlink:href="#DejaVuSans-56"/>
      <use x="538.134766" xlink:href="#DejaVuSans-57"/>
     </g>
    </g>
    <g id="line2d_32">
     <path d="M 1198.821875 175.490937 
L 1218.821875 175.490937 
" style="fill:none;stroke:#000000;stroke-linecap:square;stroke-width:1.5;"/>
    </g>
    <g id="line2d_33"/>
    <g id="text_26">
     <!-- Mean -->
     <g transform="translate(1226.821875 178.990937)scale(0.1 -0.1)">
      <use xlink:href="#DejaVuSans-77"/>
      <use x="86.279297" xlink:href="#DejaVuSans-101"/>
      <use x="147.802734" xlink:href="#DejaVuSans-97"/>
      <use x="209.082031" xlink:href="#DejaVuSans-110"/>
     </g>
    </g>
   </g>
  </g>
 </g>
 <defs>
  <clipPath id="p0335a60978">
   <rect height="652.32" width="1116" x="180" y="103.68"/>
  </clipPath>
 </defs>
</svg>
