<?xml version="1.0" encoding="utf-8" standalone="no"?>
<!DOCTYPE svg PUBLIC "-//W3C//DTD SVG 1.1//EN"
  "http://www.w3.org/Graphics/SVG/1.1/DTD/svg11.dtd">
<!-- Created with matplotlib (https://matplotlib.org/) -->
<svg height="864pt" version="1.1" viewBox="0 0 1440 864" width="1440pt" xmlns="http://www.w3.org/2000/svg" xmlns:xlink="http://www.w3.org/1999/xlink">
 <metadata>
  <rdf:RDF xmlns:cc="http://creativecommons.org/ns#" xmlns:dc="http://purl.org/dc/elements/1.1/" xmlns:rdf="http://www.w3.org/1999/02/22-rdf-syntax-ns#">
   <cc:Work>
    <dc:type rdf:resource="http://purl.org/dc/dcmitype/StillImage"/>
    <dc:date>2020-12-24T04:27:39.468442</dc:date>
    <dc:format>image/svg+xml</dc:format>
    <dc:creator>
     <cc:Agent>
      <dc:title>Matplotlib v3.3.1, https://matplotlib.org/</dc:title>
     </cc:Agent>
    </dc:creator>
   </cc:Work>
  </rdf:RDF>
 </metadata>
 <defs>
  <style type="text/css">*{stroke-linecap:butt;stroke-linejoin:round;}</style>
 </defs>
 <g id="figure_1">
  <g id="patch_1">
   <path d="M 0 864 
L 1440 864 
L 1440 0 
L 0 0 
z
" style="fill:none;"/>
  </g>
  <g id="axes_1">
   <g id="patch_2">
    <path d="M 180 756 
L 1296 756 
L 1296 103.68 
L 180 103.68 
z
" style="fill:#ffffff;"/>
   </g>
   <g id="PolyCollection_1">
    <path clip-path="url(#p7cfaec3ce5)" d="M 230.727273 334.581783 
L 230.727273 334.581783 
L 234.120401 379.420072 
L 237.51353 478.78016 
L 240.906659 365.372195 
L 244.299787 386.027019 
L 247.692916 373.069964 
L 251.086044 316.574455 
L 254.479173 395.889319 
L 257.872302 370.918102 
L 261.26543 223.970522 
L 264.658559 433.464049 
L 268.051687 391.025569 
L 271.444816 384.537661 
L 274.837945 412.550508 
L 278.231073 394.452878 
L 281.624202 371.555298 
L 285.01733 441.761225 
L 288.410459 387.377942 
L 291.803588 234.321347 
L 295.196716 345.054231 
L 298.589845 301.332269 
L 301.982974 409.96777 
L 305.376102 269.192314 
L 308.769231 133.330909 
L 312.162359 423.044343 
L 315.555488 421.046148 
L 318.948617 385.654128 
L 322.341745 462.585056 
L 325.734874 434.601574 
L 329.128002 386.290126 
L 332.521131 424.798975 
L 335.91426 256.140774 
L 339.307388 394.458398 
L 342.700517 391.707298 
L 346.093645 398.114228 
L 349.486774 298.417379 
L 352.879903 400.650557 
L 356.273031 385.477945 
L 359.66616 350.785474 
L 363.059289 426.974089 
L 366.452417 319.201615 
L 369.845546 446.523919 
L 373.238674 383.593604 
L 376.631803 286.868814 
L 380.024932 427.45389 
L 383.41806 368.798109 
L 386.811189 403.128856 
L 390.204317 396.723188 
L 393.597446 304.790507 
L 396.990575 301.249812 
L 400.383703 403.825211 
L 403.776832 322.780637 
L 407.16996 395.366499 
L 410.563089 329.850402 
L 413.956218 415.652607 
L 417.349346 395.669711 
L 420.742475 388.455851 
L 424.135604 405.366293 
L 427.528732 425.220776 
L 430.921861 383.634483 
L 434.314989 383.654564 
L 437.708118 389.092995 
L 441.101247 422.943344 
L 444.494375 355.321384 
L 447.887504 343.922388 
L 451.280632 314.560487 
L 454.673761 270.803126 
L 458.06689 353.388171 
L 461.460018 387.679017 
L 464.853147 352.572934 
L 468.246275 341.82527 
L 471.639404 391.006237 
L 475.032533 404.113919 
L 478.425661 394.442342 
L 481.81879 355.415697 
L 485.211919 348.926976 
L 488.605047 280.359954 
L 491.998176 396.563437 
L 495.391304 337.646799 
L 498.784433 375.664583 
L 502.177562 350.397381 
L 505.57069 349.357522 
L 508.963819 407.382638 
L 512.356947 365.271014 
L 515.750076 394.159664 
L 519.143205 367.667844 
L 522.536333 212.486275 
L 525.929462 412.672586 
L 529.32259 411.403277 
L 532.715719 320.319317 
L 536.108848 259.646917 
L 539.501976 369.238812 
L 542.895105 381.000128 
L 546.288234 441.371905 
L 549.681362 403.420582 
L 553.074491 436.293384 
L 556.467619 418.478725 
L 559.860748 399.919811 
L 563.253877 265.373762 
L 566.647005 451.532195 
L 570.040134 437.964475 
L 573.433262 399.421921 
L 576.826391 351.77158 
L 580.21952 432.250053 
L 583.612648 437.732103 
L 587.005777 413.202251 
L 590.398905 306.662014 
L 593.792034 332.194354 
L 597.185163 368.181323 
L 600.578291 359.246934 
L 603.97142 366.049669 
L 607.364548 142.338363 
L 610.757677 378.619944 
L 614.150806 384.030616 
L 617.543934 317.983931 
L 620.937063 403.745904 
L 624.330192 394.317899 
L 627.72332 382.799074 
L 631.116449 251.032484 
L 634.509577 322.955319 
L 637.902706 324.655693 
L 641.295835 420.35261 
L 644.688963 333.71443 
L 648.082092 401.746632 
L 651.47522 260.101793 
L 654.868349 405.410999 
L 658.261478 337.124497 
L 661.654606 298.897213 
L 665.047735 361.264549 
L 668.440863 372.748879 
L 671.833992 263.674375 
L 675.227121 361.873819 
L 678.620249 391.498757 
L 682.013378 315.221868 
L 685.406507 349.124881 
L 688.799635 357.45431 
L 692.192764 375.019216 
L 695.585892 443.834373 
L 698.979021 355.343244 
L 702.37215 382.560925 
L 705.765278 278.574489 
L 709.158407 408.329276 
L 712.551535 374.601191 
L 715.944664 419.950688 
L 719.337793 458.477124 
L 722.730921 421.917299 
L 726.12405 355.533168 
L 729.517178 428.720444 
L 732.910307 441.954884 
L 736.303436 425.75068 
L 739.696564 401.677128 
L 743.089693 402.792477 
L 746.482822 253.370663 
L 749.87595 318.226999 
L 753.269079 352.228087 
L 756.662207 368.737441 
L 760.055336 298.163446 
L 763.448465 347.547466 
L 766.841593 386.554592 
L 770.234722 380.254026 
L 773.62785 257.249277 
L 777.020979 338.26931 
L 780.414108 207.247961 
L 783.807236 405.71067 
L 787.200365 267.101872 
L 790.593493 299.893274 
L 793.986622 354.837576 
L 797.379751 369.654725 
L 800.772879 411.415611 
L 804.166008 427.764567 
L 807.559137 388.521057 
L 810.952265 362.575632 
L 814.345394 361.231987 
L 817.738522 363.543502 
L 821.131651 400.257798 
L 824.52478 309.416839 
L 827.917908 346.935421 
L 831.311037 391.228931 
L 834.704165 365.467351 
L 838.097294 401.487988 
L 841.490423 468.948829 
L 844.883551 228.712796 
L 848.27668 418.854522 
L 851.669808 344.968991 
L 855.062937 389.580494 
L 858.456066 356.714229 
L 861.849194 414.218185 
L 865.242323 402.044696 
L 868.635452 298.32777 
L 872.02858 316.277657 
L 875.421709 369.224542 
L 878.814837 242.166996 
L 882.207966 339.946752 
L 885.601095 280.29065 
L 888.994223 428.524763 
L 892.387352 357.724957 
L 895.78048 360.02817 
L 899.173609 416.312865 
L 902.566738 379.065511 
L 905.959866 419.243021 
L 909.352995 385.318247 
L 912.746123 396.186444 
L 916.139252 347.665874 
L 919.532381 403.869948 
L 922.925509 374.012047 
L 926.318638 436.835037 
L 929.711766 317.06366 
L 933.104895 412.555247 
L 936.498024 443.494651 
L 939.891152 392.246883 
L 943.284281 324.606337 
L 946.67741 375.10221 
L 950.070538 339.718713 
L 953.463667 405.610495 
L 956.856795 371.501155 
L 960.249924 420.12359 
L 963.643053 341.598265 
L 967.036181 381.096115 
L 970.42931 343.335026 
L 973.822438 404.413401 
L 977.215567 360.218951 
L 980.608696 352.601276 
L 984.001824 388.787855 
L 987.394953 409.57925 
L 990.788081 345.764077 
L 994.18121 375.383213 
L 997.574339 255.403121 
L 1000.967467 380.813149 
L 1004.360596 391.128033 
L 1007.753725 395.596628 
L 1011.146853 294.214743 
L 1014.539982 335.448794 
L 1017.93311 381.684394 
L 1021.326239 406.68484 
L 1024.719368 369.239111 
L 1028.112496 419.986962 
L 1031.505625 245.794165 
L 1034.898753 440.691812 
L 1038.291882 382.049792 
L 1041.685011 407.813078 
L 1045.078139 367.633502 
L 1048.471268 467.268239 
L 1051.864396 415.608091 
L 1055.257525 342.932221 
L 1058.650654 322.106468 
L 1062.043782 389.643852 
L 1065.436911 306.350137 
L 1068.83004 150.744164 
L 1072.223168 319.950504 
L 1075.616297 385.150005 
L 1079.009425 373.183291 
L 1082.402554 361.582014 
L 1085.795683 387.282003 
L 1089.188811 381.47929 
L 1092.58194 372.887312 
L 1095.975068 370.275484 
L 1099.368197 368.682282 
L 1102.761326 392.951608 
L 1106.154454 406.64357 
L 1109.547583 402.931521 
L 1112.940711 386.346102 
L 1116.33384 401.343156 
L 1119.726969 378.581795 
L 1123.120097 372.623686 
L 1126.513226 340.590829 
L 1129.906355 400.945985 
L 1133.299483 400.875063 
L 1136.692612 442.590902 
L 1140.08574 390.580433 
L 1143.478869 415.707489 
L 1146.871998 403.364952 
L 1150.265126 372.119513 
L 1153.658255 362.466401 
L 1157.051383 446.762164 
L 1160.444512 417.129279 
L 1163.837641 289.52435 
L 1167.230769 422.614543 
L 1170.623898 485.40326 
L 1174.017026 406.126954 
L 1177.410155 414.932372 
L 1180.803284 431.612383 
L 1184.196412 435.277297 
L 1187.589541 380.666504 
L 1190.98267 332.998755 
L 1194.375798 257.600439 
L 1197.768927 358.280146 
L 1201.162055 316.941385 
L 1204.555184 332.470478 
L 1207.948313 424.752414 
L 1211.341441 356.051322 
L 1214.73457 394.196418 
L 1218.127698 387.496583 
L 1221.520827 405.271755 
L 1224.913956 441.376048 
L 1228.307084 173.225662 
L 1231.700213 387.260381 
L 1235.093341 288.352908 
L 1238.48647 382.637595 
L 1241.879599 378.224467 
L 1245.272727 386.58705 
L 1245.272727 386.58705 
L 1245.272727 545.988363 
L 1241.879599 521.977458 
L 1238.48647 521.351523 
L 1235.093341 540.633318 
L 1231.700213 449.808769 
L 1228.307084 502.041346 
L 1224.913956 469.364871 
L 1221.520827 622.051992 
L 1218.127698 505.731721 
L 1214.73457 479.991128 
L 1211.341441 560.881054 
L 1207.948313 525.365133 
L 1204.555184 535.120982 
L 1201.162055 544.072981 
L 1197.768927 572.698526 
L 1194.375798 408.008697 
L 1190.98267 594.379502 
L 1187.589541 485.200706 
L 1184.196412 499.641417 
L 1180.803284 501.108594 
L 1177.410155 487.190939 
L 1174.017026 516.407296 
L 1170.623898 606.167441 
L 1167.230769 540.676377 
L 1163.837641 493.903329 
L 1160.444512 535.297227 
L 1157.051383 586.920047 
L 1153.658255 610.081293 
L 1150.265126 506.94015 
L 1146.871998 481.593296 
L 1143.478869 575.420294 
L 1140.08574 469.387264 
L 1136.692612 566.403138 
L 1133.299483 520.683303 
L 1129.906355 455.109927 
L 1126.513226 477.219228 
L 1123.120097 529.262944 
L 1119.726969 529.104817 
L 1116.33384 541.41281 
L 1112.940711 643.22132 
L 1109.547583 620.763676 
L 1106.154454 449.456887 
L 1102.761326 529.065633 
L 1099.368197 557.339078 
L 1095.975068 531.740694 
L 1092.58194 643.295773 
L 1089.188811 511.446933 
L 1085.795683 499.399545 
L 1082.402554 547.631446 
L 1079.009425 512.04674 
L 1075.616297 518.374892 
L 1072.223168 448.851875 
L 1068.83004 545.193654 
L 1065.436911 524.410821 
L 1062.043782 541.216969 
L 1058.650654 484.594668 
L 1055.257525 520.944448 
L 1051.864396 481.399675 
L 1048.471268 560.688487 
L 1045.078139 558.84238 
L 1041.685011 554.184549 
L 1038.291882 491.041138 
L 1034.898753 494.926245 
L 1031.505625 552.63151 
L 1028.112496 470.653676 
L 1024.719368 501.928031 
L 1021.326239 481.819302 
L 1017.93311 524.626977 
L 1014.539982 532.32545 
L 1011.146853 459.592147 
L 1007.753725 475.170319 
L 1004.360596 524.678612 
L 1000.967467 496.479577 
L 997.574339 504.086938 
L 994.18121 559.564271 
L 990.788081 580.110543 
L 987.394953 528.751153 
L 984.001824 554.706181 
L 980.608696 514.243482 
L 977.215567 499.835406 
L 973.822438 462.611252 
L 970.42931 606.475995 
L 967.036181 533.431733 
L 963.643053 467.909556 
L 960.249924 500.103569 
L 956.856795 496.068624 
L 953.463667 471.983989 
L 950.070538 552.473527 
L 946.67741 566.811206 
L 943.284281 502.38062 
L 939.891152 533.349192 
L 936.498024 508.539776 
L 933.104895 536.070951 
L 929.711766 527.43542 
L 926.318638 475.45279 
L 922.925509 473.098118 
L 919.532381 515.987102 
L 916.139252 471.393572 
L 912.746123 578.81493 
L 909.352995 459.931097 
L 905.959866 486.53068 
L 902.566738 448.701689 
L 899.173609 528.656944 
L 895.78048 454.411466 
L 892.387352 456.552495 
L 888.994223 560.760407 
L 885.601095 540.8852 
L 882.207966 594.035951 
L 878.814837 663.495164 
L 875.421709 518.30768 
L 872.02858 726.349091 
L 868.635452 433.783392 
L 865.242323 543.142646 
L 861.849194 526.928022 
L 858.456066 500.229735 
L 855.062937 516.4467 
L 851.669808 489.343672 
L 848.27668 489.085649 
L 844.883551 548.5113 
L 841.490423 523.683153 
L 838.097294 463.047107 
L 834.704165 667.947064 
L 831.311037 460.308979 
L 827.917908 454.849267 
L 824.52478 523.007116 
L 821.131651 460.322792 
L 817.738522 491.510969 
L 814.345394 478.041122 
L 810.952265 603.317081 
L 807.559137 512.292277 
L 804.166008 563.986645 
L 800.772879 589.212904 
L 797.379751 485.47558 
L 793.986622 522.391125 
L 790.593493 476.561418 
L 787.200365 572.667896 
L 783.807236 535.646399 
L 780.414108 550.107108 
L 777.020979 545.407696 
L 773.62785 564.923252 
L 770.234722 504.430731 
L 766.841593 472.422775 
L 763.448465 477.718317 
L 760.055336 448.279377 
L 756.662207 555.281377 
L 753.269079 547.963605 
L 749.87595 529.20005 
L 746.482822 494.098997 
L 743.089693 529.919601 
L 739.696564 474.72168 
L 736.303436 465.734949 
L 732.910307 531.656992 
L 729.517178 521.697647 
L 726.12405 570.667756 
L 722.730921 487.791809 
L 719.337793 547.242439 
L 715.944664 534.377182 
L 712.551535 551.184161 
L 709.158407 492.11927 
L 705.765278 523.555325 
L 702.37215 521.158328 
L 698.979021 565.904261 
L 695.585892 572.156112 
L 692.192764 519.548525 
L 688.799635 507.163668 
L 685.406507 522.931795 
L 682.013378 647.245665 
L 678.620249 519.215479 
L 675.227121 502.287377 
L 671.833992 486.991643 
L 668.440863 448.800178 
L 665.047735 486.310797 
L 661.654606 523.157032 
L 658.261478 468.362103 
L 654.868349 534.914732 
L 651.47522 630.30982 
L 648.082092 502.15369 
L 644.688963 429.359582 
L 641.295835 517.235175 
L 637.902706 527.555315 
L 634.509577 613.706044 
L 631.116449 489.007798 
L 627.72332 540.760223 
L 624.330192 465.715736 
L 620.937063 632.608722 
L 617.543934 539.469562 
L 614.150806 511.373364 
L 610.757677 472.990361 
L 607.364548 587.773038 
L 603.97142 428.170678 
L 600.578291 553.896761 
L 597.185163 577.138597 
L 593.792034 443.782951 
L 590.398905 501.833669 
L 587.005777 477.620693 
L 583.612648 517.264235 
L 580.21952 491.623854 
L 576.826391 497.035726 
L 573.433262 505.109697 
L 570.040134 569.994969 
L 566.647005 523.383723 
L 563.253877 589.459786 
L 559.860748 579.735759 
L 556.467619 481.194538 
L 553.074491 579.14482 
L 549.681362 545.788218 
L 546.288234 512.753354 
L 542.895105 465.029936 
L 539.501976 610.607448 
L 536.108848 457.807293 
L 532.715719 591.698427 
L 529.32259 472.868222 
L 525.929462 512.201626 
L 522.536333 509.399165 
L 519.143205 670.669392 
L 515.750076 473.904868 
L 512.356947 557.227246 
L 508.963819 435.934977 
L 505.57069 568.676106 
L 502.177562 507.398217 
L 498.784433 475.793008 
L 495.391304 634.955543 
L 491.998176 536.38813 
L 488.605047 582.287523 
L 485.211919 548.303065 
L 481.81879 496.067423 
L 478.425661 511.293511 
L 475.032533 548.697607 
L 471.639404 473.27343 
L 468.246275 494.612189 
L 464.853147 526.263406 
L 461.460018 515.883141 
L 458.06689 477.792953 
L 454.673761 619.617339 
L 451.280632 450.252182 
L 447.887504 465.462626 
L 444.494375 587.366455 
L 441.101247 527.720274 
L 437.708118 460.683711 
L 434.314989 500.728175 
L 430.921861 471.786076 
L 427.528732 482.903985 
L 424.135604 566.36493 
L 420.742475 464.547094 
L 417.349346 500.284993 
L 413.956218 529.924679 
L 410.563089 533.799928 
L 407.16996 479.338479 
L 403.776832 556.646228 
L 400.383703 523.646211 
L 396.990575 569.168646 
L 393.597446 448.447919 
L 390.204317 503.253245 
L 386.811189 557.112938 
L 383.41806 528.000921 
L 380.024932 566.725506 
L 376.631803 561.419997 
L 373.238674 544.251183 
L 369.845546 604.017359 
L 366.452417 517.949144 
L 363.059289 542.609933 
L 359.66616 481.689993 
L 356.273031 633.114962 
L 352.879903 508.925816 
L 349.486774 463.399647 
L 346.093645 541.871311 
L 342.700517 538.775039 
L 339.307388 477.147966 
L 335.91426 489.663103 
L 332.521131 511.403234 
L 329.128002 486.581367 
L 325.734874 514.027807 
L 322.341745 516.741233 
L 318.948617 508.086264 
L 315.555488 555.786829 
L 312.162359 545.8769 
L 308.769231 555.965597 
L 305.376102 544.632481 
L 301.982974 535.31319 
L 298.589845 724.423054 
L 295.196716 515.688802 
L 291.803588 485.508611 
L 288.410459 570.1445 
L 285.01733 619.269215 
L 281.624202 515.382942 
L 278.231073 552.010114 
L 274.837945 515.317152 
L 271.444816 523.940623 
L 268.051687 576.203667 
L 264.658559 513.843514 
L 261.26543 535.25955 
L 257.872302 582.193736 
L 254.479173 512.433051 
L 251.086044 619.895766 
L 247.692916 458.963875 
L 244.299787 534.416813 
L 240.906659 506.114192 
L 237.51353 583.506345 
L 234.120401 509.787125 
L 230.727273 605.689339 
z
" style="fill:#1f77b4;fill-opacity:0.4;"/>
   </g>
   <g id="matplotlib.axis_1">
    <g id="xtick_1">
     <g id="line2d_1">
      <defs>
       <path d="M 0 0 
L 0 3.5 
" id="mcedf11212c" style="stroke:#000000;stroke-width:0.8;"/>
      </defs>
      <g>
       <use style="stroke:#000000;stroke-width:0.8;" x="230.727273" xlink:href="#mcedf11212c" y="756"/>
      </g>
     </g>
     <g id="text_1">
      <!-- 0 -->
      <g transform="translate(227.546023 770.598438)scale(0.1 -0.1)">
       <defs>
        <path d="M 31.78125 66.40625 
Q 24.171875 66.40625 20.328125 58.90625 
Q 16.5 51.421875 16.5 36.375 
Q 16.5 21.390625 20.328125 13.890625 
Q 24.171875 6.390625 31.78125 6.390625 
Q 39.453125 6.390625 43.28125 13.890625 
Q 47.125 21.390625 47.125 36.375 
Q 47.125 51.421875 43.28125 58.90625 
Q 39.453125 66.40625 31.78125 66.40625 
z
M 31.78125 74.21875 
Q 44.046875 74.21875 50.515625 64.515625 
Q 56.984375 54.828125 56.984375 36.375 
Q 56.984375 17.96875 50.515625 8.265625 
Q 44.046875 -1.421875 31.78125 -1.421875 
Q 19.53125 -1.421875 13.0625 8.265625 
Q 6.59375 17.96875 6.59375 36.375 
Q 6.59375 54.828125 13.0625 64.515625 
Q 19.53125 74.21875 31.78125 74.21875 
z
" id="DejaVuSans-48"/>
       </defs>
       <use xlink:href="#DejaVuSans-48"/>
      </g>
     </g>
    </g>
    <g id="xtick_2">
     <g id="line2d_2">
      <g>
       <use style="stroke:#000000;stroke-width:0.8;" x="433.638393" xlink:href="#mcedf11212c" y="756"/>
      </g>
     </g>
     <g id="text_2">
      <!-- 20000 -->
      <g transform="translate(417.732143 770.598438)scale(0.1 -0.1)">
       <defs>
        <path d="M 19.1875 8.296875 
L 53.609375 8.296875 
L 53.609375 0 
L 7.328125 0 
L 7.328125 8.296875 
Q 12.9375 14.109375 22.625 23.890625 
Q 32.328125 33.6875 34.8125 36.53125 
Q 39.546875 41.84375 41.421875 45.53125 
Q 43.3125 49.21875 43.3125 52.78125 
Q 43.3125 58.59375 39.234375 62.25 
Q 35.15625 65.921875 28.609375 65.921875 
Q 23.96875 65.921875 18.8125 64.3125 
Q 13.671875 62.703125 7.8125 59.421875 
L 7.8125 69.390625 
Q 13.765625 71.78125 18.9375 73 
Q 24.125 74.21875 28.421875 74.21875 
Q 39.75 74.21875 46.484375 68.546875 
Q 53.21875 62.890625 53.21875 53.421875 
Q 53.21875 48.921875 51.53125 44.890625 
Q 49.859375 40.875 45.40625 35.40625 
Q 44.1875 33.984375 37.640625 27.21875 
Q 31.109375 20.453125 19.1875 8.296875 
z
" id="DejaVuSans-50"/>
       </defs>
       <use xlink:href="#DejaVuSans-50"/>
       <use x="63.623047" xlink:href="#DejaVuSans-48"/>
       <use x="127.246094" xlink:href="#DejaVuSans-48"/>
       <use x="190.869141" xlink:href="#DejaVuSans-48"/>
       <use x="254.492188" xlink:href="#DejaVuSans-48"/>
      </g>
     </g>
    </g>
    <g id="xtick_3">
     <g id="line2d_3">
      <g>
       <use style="stroke:#000000;stroke-width:0.8;" x="636.549513" xlink:href="#mcedf11212c" y="756"/>
      </g>
     </g>
     <g id="text_3">
      <!-- 40000 -->
      <g transform="translate(620.643263 770.598438)scale(0.1 -0.1)">
       <defs>
        <path d="M 37.796875 64.3125 
L 12.890625 25.390625 
L 37.796875 25.390625 
z
M 35.203125 72.90625 
L 47.609375 72.90625 
L 47.609375 25.390625 
L 58.015625 25.390625 
L 58.015625 17.1875 
L 47.609375 17.1875 
L 47.609375 0 
L 37.796875 0 
L 37.796875 17.1875 
L 4.890625 17.1875 
L 4.890625 26.703125 
z
" id="DejaVuSans-52"/>
       </defs>
       <use xlink:href="#DejaVuSans-52"/>
       <use x="63.623047" xlink:href="#DejaVuSans-48"/>
       <use x="127.246094" xlink:href="#DejaVuSans-48"/>
       <use x="190.869141" xlink:href="#DejaVuSans-48"/>
       <use x="254.492188" xlink:href="#DejaVuSans-48"/>
      </g>
     </g>
    </g>
    <g id="xtick_4">
     <g id="line2d_4">
      <g>
       <use style="stroke:#000000;stroke-width:0.8;" x="839.460633" xlink:href="#mcedf11212c" y="756"/>
      </g>
     </g>
     <g id="text_4">
      <!-- 60000 -->
      <g transform="translate(823.554383 770.598438)scale(0.1 -0.1)">
       <defs>
        <path d="M 33.015625 40.375 
Q 26.375 40.375 22.484375 35.828125 
Q 18.609375 31.296875 18.609375 23.390625 
Q 18.609375 15.53125 22.484375 10.953125 
Q 26.375 6.390625 33.015625 6.390625 
Q 39.65625 6.390625 43.53125 10.953125 
Q 47.40625 15.53125 47.40625 23.390625 
Q 47.40625 31.296875 43.53125 35.828125 
Q 39.65625 40.375 33.015625 40.375 
z
M 52.59375 71.296875 
L 52.59375 62.3125 
Q 48.875 64.0625 45.09375 64.984375 
Q 41.3125 65.921875 37.59375 65.921875 
Q 27.828125 65.921875 22.671875 59.328125 
Q 17.53125 52.734375 16.796875 39.40625 
Q 19.671875 43.65625 24.015625 45.921875 
Q 28.375 48.1875 33.59375 48.1875 
Q 44.578125 48.1875 50.953125 41.515625 
Q 57.328125 34.859375 57.328125 23.390625 
Q 57.328125 12.15625 50.6875 5.359375 
Q 44.046875 -1.421875 33.015625 -1.421875 
Q 20.359375 -1.421875 13.671875 8.265625 
Q 6.984375 17.96875 6.984375 36.375 
Q 6.984375 53.65625 15.1875 63.9375 
Q 23.390625 74.21875 37.203125 74.21875 
Q 40.921875 74.21875 44.703125 73.484375 
Q 48.484375 72.75 52.59375 71.296875 
z
" id="DejaVuSans-54"/>
       </defs>
       <use xlink:href="#DejaVuSans-54"/>
       <use x="63.623047" xlink:href="#DejaVuSans-48"/>
       <use x="127.246094" xlink:href="#DejaVuSans-48"/>
       <use x="190.869141" xlink:href="#DejaVuSans-48"/>
       <use x="254.492188" xlink:href="#DejaVuSans-48"/>
      </g>
     </g>
    </g>
    <g id="xtick_5">
     <g id="line2d_5">
      <g>
       <use style="stroke:#000000;stroke-width:0.8;" x="1042.371753" xlink:href="#mcedf11212c" y="756"/>
      </g>
     </g>
     <g id="text_5">
      <!-- 80000 -->
      <g transform="translate(1026.465503 770.598438)scale(0.1 -0.1)">
       <defs>
        <path d="M 31.78125 34.625 
Q 24.75 34.625 20.71875 30.859375 
Q 16.703125 27.09375 16.703125 20.515625 
Q 16.703125 13.921875 20.71875 10.15625 
Q 24.75 6.390625 31.78125 6.390625 
Q 38.8125 6.390625 42.859375 10.171875 
Q 46.921875 13.96875 46.921875 20.515625 
Q 46.921875 27.09375 42.890625 30.859375 
Q 38.875 34.625 31.78125 34.625 
z
M 21.921875 38.8125 
Q 15.578125 40.375 12.03125 44.71875 
Q 8.5 49.078125 8.5 55.328125 
Q 8.5 64.0625 14.71875 69.140625 
Q 20.953125 74.21875 31.78125 74.21875 
Q 42.671875 74.21875 48.875 69.140625 
Q 55.078125 64.0625 55.078125 55.328125 
Q 55.078125 49.078125 51.53125 44.71875 
Q 48 40.375 41.703125 38.8125 
Q 48.828125 37.15625 52.796875 32.3125 
Q 56.78125 27.484375 56.78125 20.515625 
Q 56.78125 9.90625 50.3125 4.234375 
Q 43.84375 -1.421875 31.78125 -1.421875 
Q 19.734375 -1.421875 13.25 4.234375 
Q 6.78125 9.90625 6.78125 20.515625 
Q 6.78125 27.484375 10.78125 32.3125 
Q 14.796875 37.15625 21.921875 38.8125 
z
M 18.3125 54.390625 
Q 18.3125 48.734375 21.84375 45.5625 
Q 25.390625 42.390625 31.78125 42.390625 
Q 38.140625 42.390625 41.71875 45.5625 
Q 45.3125 48.734375 45.3125 54.390625 
Q 45.3125 60.0625 41.71875 63.234375 
Q 38.140625 66.40625 31.78125 66.40625 
Q 25.390625 66.40625 21.84375 63.234375 
Q 18.3125 60.0625 18.3125 54.390625 
z
" id="DejaVuSans-56"/>
       </defs>
       <use xlink:href="#DejaVuSans-56"/>
       <use x="63.623047" xlink:href="#DejaVuSans-48"/>
       <use x="127.246094" xlink:href="#DejaVuSans-48"/>
       <use x="190.869141" xlink:href="#DejaVuSans-48"/>
       <use x="254.492188" xlink:href="#DejaVuSans-48"/>
      </g>
     </g>
    </g>
    <g id="xtick_6">
     <g id="line2d_6">
      <g>
       <use style="stroke:#000000;stroke-width:0.8;" x="1245.282873" xlink:href="#mcedf11212c" y="756"/>
      </g>
     </g>
     <g id="text_6">
      <!-- 100000 -->
      <g transform="translate(1226.195373 770.598438)scale(0.1 -0.1)">
       <defs>
        <path d="M 12.40625 8.296875 
L 28.515625 8.296875 
L 28.515625 63.921875 
L 10.984375 60.40625 
L 10.984375 69.390625 
L 28.421875 72.90625 
L 38.28125 72.90625 
L 38.28125 8.296875 
L 54.390625 8.296875 
L 54.390625 0 
L 12.40625 0 
z
" id="DejaVuSans-49"/>
       </defs>
       <use xlink:href="#DejaVuSans-49"/>
       <use x="63.623047" xlink:href="#DejaVuSans-48"/>
       <use x="127.246094" xlink:href="#DejaVuSans-48"/>
       <use x="190.869141" xlink:href="#DejaVuSans-48"/>
       <use x="254.492188" xlink:href="#DejaVuSans-48"/>
       <use x="318.115234" xlink:href="#DejaVuSans-48"/>
      </g>
     </g>
    </g>
    <g id="text_7">
     <!-- Iterations $\to$ -->
     <g transform="translate(708.4 784.276562)scale(0.1 -0.1)">
      <defs>
       <path d="M 9.8125 72.90625 
L 19.671875 72.90625 
L 19.671875 0 
L 9.8125 0 
z
" id="DejaVuSans-73"/>
       <path d="M 18.3125 70.21875 
L 18.3125 54.6875 
L 36.8125 54.6875 
L 36.8125 47.703125 
L 18.3125 47.703125 
L 18.3125 18.015625 
Q 18.3125 11.328125 20.140625 9.421875 
Q 21.96875 7.515625 27.59375 7.515625 
L 36.8125 7.515625 
L 36.8125 0 
L 27.59375 0 
Q 17.1875 0 13.234375 3.875 
Q 9.28125 7.765625 9.28125 18.015625 
L 9.28125 47.703125 
L 2.6875 47.703125 
L 2.6875 54.6875 
L 9.28125 54.6875 
L 9.28125 70.21875 
z
" id="DejaVuSans-116"/>
       <path d="M 56.203125 29.59375 
L 56.203125 25.203125 
L 14.890625 25.203125 
Q 15.484375 15.921875 20.484375 11.0625 
Q 25.484375 6.203125 34.421875 6.203125 
Q 39.59375 6.203125 44.453125 7.46875 
Q 49.3125 8.734375 54.109375 11.28125 
L 54.109375 2.78125 
Q 49.265625 0.734375 44.1875 -0.34375 
Q 39.109375 -1.421875 33.890625 -1.421875 
Q 20.796875 -1.421875 13.15625 6.1875 
Q 5.515625 13.8125 5.515625 26.8125 
Q 5.515625 40.234375 12.765625 48.109375 
Q 20.015625 56 32.328125 56 
Q 43.359375 56 49.78125 48.890625 
Q 56.203125 41.796875 56.203125 29.59375 
z
M 47.21875 32.234375 
Q 47.125 39.59375 43.09375 43.984375 
Q 39.0625 48.390625 32.421875 48.390625 
Q 24.90625 48.390625 20.390625 44.140625 
Q 15.875 39.890625 15.1875 32.171875 
z
" id="DejaVuSans-101"/>
       <path d="M 41.109375 46.296875 
Q 39.59375 47.171875 37.8125 47.578125 
Q 36.03125 48 33.890625 48 
Q 26.265625 48 22.1875 43.046875 
Q 18.109375 38.09375 18.109375 28.8125 
L 18.109375 0 
L 9.078125 0 
L 9.078125 54.6875 
L 18.109375 54.6875 
L 18.109375 46.1875 
Q 20.953125 51.171875 25.484375 53.578125 
Q 30.03125 56 36.53125 56 
Q 37.453125 56 38.578125 55.875 
Q 39.703125 55.765625 41.0625 55.515625 
z
" id="DejaVuSans-114"/>
       <path d="M 34.28125 27.484375 
Q 23.390625 27.484375 19.1875 25 
Q 14.984375 22.515625 14.984375 16.5 
Q 14.984375 11.71875 18.140625 8.90625 
Q 21.296875 6.109375 26.703125 6.109375 
Q 34.1875 6.109375 38.703125 11.40625 
Q 43.21875 16.703125 43.21875 25.484375 
L 43.21875 27.484375 
z
M 52.203125 31.203125 
L 52.203125 0 
L 43.21875 0 
L 43.21875 8.296875 
Q 40.140625 3.328125 35.546875 0.953125 
Q 30.953125 -1.421875 24.3125 -1.421875 
Q 15.921875 -1.421875 10.953125 3.296875 
Q 6 8.015625 6 15.921875 
Q 6 25.140625 12.171875 29.828125 
Q 18.359375 34.515625 30.609375 34.515625 
L 43.21875 34.515625 
L 43.21875 35.40625 
Q 43.21875 41.609375 39.140625 45 
Q 35.0625 48.390625 27.6875 48.390625 
Q 23 48.390625 18.546875 47.265625 
Q 14.109375 46.140625 10.015625 43.890625 
L 10.015625 52.203125 
Q 14.9375 54.109375 19.578125 55.046875 
Q 24.21875 56 28.609375 56 
Q 40.484375 56 46.34375 49.84375 
Q 52.203125 43.703125 52.203125 31.203125 
z
" id="DejaVuSans-97"/>
       <path d="M 9.421875 54.6875 
L 18.40625 54.6875 
L 18.40625 0 
L 9.421875 0 
z
M 9.421875 75.984375 
L 18.40625 75.984375 
L 18.40625 64.59375 
L 9.421875 64.59375 
z
" id="DejaVuSans-105"/>
       <path d="M 30.609375 48.390625 
Q 23.390625 48.390625 19.1875 42.75 
Q 14.984375 37.109375 14.984375 27.296875 
Q 14.984375 17.484375 19.15625 11.84375 
Q 23.34375 6.203125 30.609375 6.203125 
Q 37.796875 6.203125 41.984375 11.859375 
Q 46.1875 17.53125 46.1875 27.296875 
Q 46.1875 37.015625 41.984375 42.703125 
Q 37.796875 48.390625 30.609375 48.390625 
z
M 30.609375 56 
Q 42.328125 56 49.015625 48.375 
Q 55.71875 40.765625 55.71875 27.296875 
Q 55.71875 13.875 49.015625 6.21875 
Q 42.328125 -1.421875 30.609375 -1.421875 
Q 18.84375 -1.421875 12.171875 6.21875 
Q 5.515625 13.875 5.515625 27.296875 
Q 5.515625 40.765625 12.171875 48.375 
Q 18.84375 56 30.609375 56 
z
" id="DejaVuSans-111"/>
       <path d="M 54.890625 33.015625 
L 54.890625 0 
L 45.90625 0 
L 45.90625 32.71875 
Q 45.90625 40.484375 42.875 44.328125 
Q 39.84375 48.1875 33.796875 48.1875 
Q 26.515625 48.1875 22.3125 43.546875 
Q 18.109375 38.921875 18.109375 30.90625 
L 18.109375 0 
L 9.078125 0 
L 9.078125 54.6875 
L 18.109375 54.6875 
L 18.109375 46.1875 
Q 21.34375 51.125 25.703125 53.5625 
Q 30.078125 56 35.796875 56 
Q 45.21875 56 50.046875 50.171875 
Q 54.890625 44.34375 54.890625 33.015625 
z
" id="DejaVuSans-110"/>
       <path d="M 44.28125 53.078125 
L 44.28125 44.578125 
Q 40.484375 46.53125 36.375 47.5 
Q 32.28125 48.484375 27.875 48.484375 
Q 21.1875 48.484375 17.84375 46.4375 
Q 14.5 44.390625 14.5 40.28125 
Q 14.5 37.15625 16.890625 35.375 
Q 19.28125 33.59375 26.515625 31.984375 
L 29.59375 31.296875 
Q 39.15625 29.25 43.1875 25.515625 
Q 47.21875 21.78125 47.21875 15.09375 
Q 47.21875 7.46875 41.1875 3.015625 
Q 35.15625 -1.421875 24.609375 -1.421875 
Q 20.21875 -1.421875 15.453125 -0.5625 
Q 10.6875 0.296875 5.421875 2 
L 5.421875 11.28125 
Q 10.40625 8.6875 15.234375 7.390625 
Q 20.0625 6.109375 24.8125 6.109375 
Q 31.15625 6.109375 34.5625 8.28125 
Q 37.984375 10.453125 37.984375 14.40625 
Q 37.984375 18.0625 35.515625 20.015625 
Q 33.0625 21.96875 24.703125 23.78125 
L 21.578125 24.515625 
Q 13.234375 26.265625 9.515625 29.90625 
Q 5.8125 33.546875 5.8125 39.890625 
Q 5.8125 47.609375 11.28125 51.796875 
Q 16.75 56 26.8125 56 
Q 31.78125 56 36.171875 55.265625 
Q 40.578125 54.546875 44.28125 53.078125 
z
" id="DejaVuSans-115"/>
       <path id="DejaVuSans-32"/>
       <path d="M 78.90625 33.546875 
L 78.90625 29.15625 
L 59.71875 9.96875 
L 53.859375 15.828125 
L 65.234375 27.203125 
L 5.71875 27.203125 
L 5.71875 35.5 
L 65.234375 35.5 
L 53.859375 46.875 
L 59.71875 52.734375 
z
" id="DejaVuSans-8594"/>
      </defs>
      <use transform="translate(0 0.015625)" xlink:href="#DejaVuSans-73"/>
      <use transform="translate(29.492188 0.015625)" xlink:href="#DejaVuSans-116"/>
      <use transform="translate(68.701172 0.015625)" xlink:href="#DejaVuSans-101"/>
      <use transform="translate(130.224609 0.015625)" xlink:href="#DejaVuSans-114"/>
      <use transform="translate(171.337891 0.015625)" xlink:href="#DejaVuSans-97"/>
      <use transform="translate(232.617188 0.015625)" xlink:href="#DejaVuSans-116"/>
      <use transform="translate(271.826172 0.015625)" xlink:href="#DejaVuSans-105"/>
      <use transform="translate(299.609375 0.015625)" xlink:href="#DejaVuSans-111"/>
      <use transform="translate(360.791016 0.015625)" xlink:href="#DejaVuSans-110"/>
      <use transform="translate(424.169922 0.015625)" xlink:href="#DejaVuSans-115"/>
      <use transform="translate(476.269531 0.015625)" xlink:href="#DejaVuSans-32"/>
      <use transform="translate(508.056641 0.015625)" xlink:href="#DejaVuSans-8594"/>
     </g>
    </g>
   </g>
   <g id="matplotlib.axis_2">
    <g id="ytick_1">
     <g id="line2d_7">
      <defs>
       <path d="M 0 0 
L -3.5 0 
" id="m0b17747051" style="stroke:#000000;stroke-width:0.8;"/>
      </defs>
      <g>
       <use style="stroke:#000000;stroke-width:0.8;" x="180" xlink:href="#m0b17747051" y="717.45527"/>
      </g>
     </g>
     <g id="text_8">
      <!-- 14.25 -->
      <g transform="translate(144.371875 721.254489)scale(0.1 -0.1)">
       <defs>
        <path d="M 10.6875 12.40625 
L 21 12.40625 
L 21 0 
L 10.6875 0 
z
" id="DejaVuSans-46"/>
        <path d="M 10.796875 72.90625 
L 49.515625 72.90625 
L 49.515625 64.59375 
L 19.828125 64.59375 
L 19.828125 46.734375 
Q 21.96875 47.46875 24.109375 47.828125 
Q 26.265625 48.1875 28.421875 48.1875 
Q 40.625 48.1875 47.75 41.5 
Q 54.890625 34.8125 54.890625 23.390625 
Q 54.890625 11.625 47.5625 5.09375 
Q 40.234375 -1.421875 26.90625 -1.421875 
Q 22.3125 -1.421875 17.546875 -0.640625 
Q 12.796875 0.140625 7.71875 1.703125 
L 7.71875 11.625 
Q 12.109375 9.234375 16.796875 8.0625 
Q 21.484375 6.890625 26.703125 6.890625 
Q 35.15625 6.890625 40.078125 11.328125 
Q 45.015625 15.765625 45.015625 23.390625 
Q 45.015625 31 40.078125 35.4375 
Q 35.15625 39.890625 26.703125 39.890625 
Q 22.75 39.890625 18.8125 39.015625 
Q 14.890625 38.140625 10.796875 36.28125 
z
" id="DejaVuSans-53"/>
       </defs>
       <use xlink:href="#DejaVuSans-49"/>
       <use x="63.623047" xlink:href="#DejaVuSans-52"/>
       <use x="127.246094" xlink:href="#DejaVuSans-46"/>
       <use x="159.033203" xlink:href="#DejaVuSans-50"/>
       <use x="222.65625" xlink:href="#DejaVuSans-53"/>
      </g>
     </g>
    </g>
    <g id="ytick_2">
     <g id="line2d_8">
      <g>
       <use style="stroke:#000000;stroke-width:0.8;" x="180" xlink:href="#m0b17747051" y="627.546023"/>
      </g>
     </g>
     <g id="text_9">
      <!-- 14.50 -->
      <g transform="translate(144.371875 631.345242)scale(0.1 -0.1)">
       <use xlink:href="#DejaVuSans-49"/>
       <use x="63.623047" xlink:href="#DejaVuSans-52"/>
       <use x="127.246094" xlink:href="#DejaVuSans-46"/>
       <use x="159.033203" xlink:href="#DejaVuSans-53"/>
       <use x="222.65625" xlink:href="#DejaVuSans-48"/>
      </g>
     </g>
    </g>
    <g id="ytick_3">
     <g id="line2d_9">
      <g>
       <use style="stroke:#000000;stroke-width:0.8;" x="180" xlink:href="#m0b17747051" y="537.636777"/>
      </g>
     </g>
     <g id="text_10">
      <!-- 14.75 -->
      <g transform="translate(144.371875 541.435996)scale(0.1 -0.1)">
       <defs>
        <path d="M 8.203125 72.90625 
L 55.078125 72.90625 
L 55.078125 68.703125 
L 28.609375 0 
L 18.3125 0 
L 43.21875 64.59375 
L 8.203125 64.59375 
z
" id="DejaVuSans-55"/>
       </defs>
       <use xlink:href="#DejaVuSans-49"/>
       <use x="63.623047" xlink:href="#DejaVuSans-52"/>
       <use x="127.246094" xlink:href="#DejaVuSans-46"/>
       <use x="159.033203" xlink:href="#DejaVuSans-55"/>
       <use x="222.65625" xlink:href="#DejaVuSans-53"/>
      </g>
     </g>
    </g>
    <g id="ytick_4">
     <g id="line2d_10">
      <g>
       <use style="stroke:#000000;stroke-width:0.8;" x="180" xlink:href="#m0b17747051" y="447.72753"/>
      </g>
     </g>
     <g id="text_11">
      <!-- 15.00 -->
      <g transform="translate(144.371875 451.526749)scale(0.1 -0.1)">
       <use xlink:href="#DejaVuSans-49"/>
       <use x="63.623047" xlink:href="#DejaVuSans-53"/>
       <use x="127.246094" xlink:href="#DejaVuSans-46"/>
       <use x="159.033203" xlink:href="#DejaVuSans-48"/>
       <use x="222.65625" xlink:href="#DejaVuSans-48"/>
      </g>
     </g>
    </g>
    <g id="ytick_5">
     <g id="line2d_11">
      <g>
       <use style="stroke:#000000;stroke-width:0.8;" x="180" xlink:href="#m0b17747051" y="357.818284"/>
      </g>
     </g>
     <g id="text_12">
      <!-- 15.25 -->
      <g transform="translate(144.371875 361.617503)scale(0.1 -0.1)">
       <use xlink:href="#DejaVuSans-49"/>
       <use x="63.623047" xlink:href="#DejaVuSans-53"/>
       <use x="127.246094" xlink:href="#DejaVuSans-46"/>
       <use x="159.033203" xlink:href="#DejaVuSans-50"/>
       <use x="222.65625" xlink:href="#DejaVuSans-53"/>
      </g>
     </g>
    </g>
    <g id="ytick_6">
     <g id="line2d_12">
      <g>
       <use style="stroke:#000000;stroke-width:0.8;" x="180" xlink:href="#m0b17747051" y="267.909037"/>
      </g>
     </g>
     <g id="text_13">
      <!-- 15.50 -->
      <g transform="translate(144.371875 271.708256)scale(0.1 -0.1)">
       <use xlink:href="#DejaVuSans-49"/>
       <use x="63.623047" xlink:href="#DejaVuSans-53"/>
       <use x="127.246094" xlink:href="#DejaVuSans-46"/>
       <use x="159.033203" xlink:href="#DejaVuSans-53"/>
       <use x="222.65625" xlink:href="#DejaVuSans-48"/>
      </g>
     </g>
    </g>
    <g id="ytick_7">
     <g id="line2d_13">
      <g>
       <use style="stroke:#000000;stroke-width:0.8;" x="180" xlink:href="#m0b17747051" y="177.999791"/>
      </g>
     </g>
     <g id="text_14">
      <!-- 15.75 -->
      <g transform="translate(144.371875 181.79901)scale(0.1 -0.1)">
       <use xlink:href="#DejaVuSans-49"/>
       <use x="63.623047" xlink:href="#DejaVuSans-53"/>
       <use x="127.246094" xlink:href="#DejaVuSans-46"/>
       <use x="159.033203" xlink:href="#DejaVuSans-55"/>
       <use x="222.65625" xlink:href="#DejaVuSans-53"/>
      </g>
     </g>
    </g>
    <g id="text_15">
     <!-- Bit Error per Sequence $\to$  -->
     <g transform="translate(138.271875 494.14)rotate(-90)scale(0.1 -0.1)">
      <defs>
       <path d="M 19.671875 34.8125 
L 19.671875 8.109375 
L 35.5 8.109375 
Q 43.453125 8.109375 47.28125 11.40625 
Q 51.125 14.703125 51.125 21.484375 
Q 51.125 28.328125 47.28125 31.5625 
Q 43.453125 34.8125 35.5 34.8125 
z
M 19.671875 64.796875 
L 19.671875 42.828125 
L 34.28125 42.828125 
Q 41.5 42.828125 45.03125 45.53125 
Q 48.578125 48.25 48.578125 53.8125 
Q 48.578125 59.328125 45.03125 62.0625 
Q 41.5 64.796875 34.28125 64.796875 
z
M 9.8125 72.90625 
L 35.015625 72.90625 
Q 46.296875 72.90625 52.390625 68.21875 
Q 58.5 63.53125 58.5 54.890625 
Q 58.5 48.1875 55.375 44.234375 
Q 52.25 40.28125 46.1875 39.3125 
Q 53.46875 37.75 57.5 32.78125 
Q 61.53125 27.828125 61.53125 20.40625 
Q 61.53125 10.640625 54.890625 5.3125 
Q 48.25 0 35.984375 0 
L 9.8125 0 
z
" id="DejaVuSans-66"/>
       <path d="M 9.8125 72.90625 
L 55.90625 72.90625 
L 55.90625 64.59375 
L 19.671875 64.59375 
L 19.671875 43.015625 
L 54.390625 43.015625 
L 54.390625 34.71875 
L 19.671875 34.71875 
L 19.671875 8.296875 
L 56.78125 8.296875 
L 56.78125 0 
L 9.8125 0 
z
" id="DejaVuSans-69"/>
       <path d="M 18.109375 8.203125 
L 18.109375 -20.796875 
L 9.078125 -20.796875 
L 9.078125 54.6875 
L 18.109375 54.6875 
L 18.109375 46.390625 
Q 20.953125 51.265625 25.265625 53.625 
Q 29.59375 56 35.59375 56 
Q 45.5625 56 51.78125 48.09375 
Q 58.015625 40.1875 58.015625 27.296875 
Q 58.015625 14.40625 51.78125 6.484375 
Q 45.5625 -1.421875 35.59375 -1.421875 
Q 29.59375 -1.421875 25.265625 0.953125 
Q 20.953125 3.328125 18.109375 8.203125 
z
M 48.6875 27.296875 
Q 48.6875 37.203125 44.609375 42.84375 
Q 40.53125 48.484375 33.40625 48.484375 
Q 26.265625 48.484375 22.1875 42.84375 
Q 18.109375 37.203125 18.109375 27.296875 
Q 18.109375 17.390625 22.1875 11.75 
Q 26.265625 6.109375 33.40625 6.109375 
Q 40.53125 6.109375 44.609375 11.75 
Q 48.6875 17.390625 48.6875 27.296875 
z
" id="DejaVuSans-112"/>
       <path d="M 53.515625 70.515625 
L 53.515625 60.890625 
Q 47.90625 63.578125 42.921875 64.890625 
Q 37.9375 66.21875 33.296875 66.21875 
Q 25.25 66.21875 20.875 63.09375 
Q 16.5 59.96875 16.5 54.203125 
Q 16.5 49.359375 19.40625 46.890625 
Q 22.3125 44.4375 30.421875 42.921875 
L 36.375 41.703125 
Q 47.40625 39.59375 52.65625 34.296875 
Q 57.90625 29 57.90625 20.125 
Q 57.90625 9.515625 50.796875 4.046875 
Q 43.703125 -1.421875 29.984375 -1.421875 
Q 24.8125 -1.421875 18.96875 -0.25 
Q 13.140625 0.921875 6.890625 3.21875 
L 6.890625 13.375 
Q 12.890625 10.015625 18.65625 8.296875 
Q 24.421875 6.59375 29.984375 6.59375 
Q 38.421875 6.59375 43.015625 9.90625 
Q 47.609375 13.234375 47.609375 19.390625 
Q 47.609375 24.75 44.3125 27.78125 
Q 41.015625 30.8125 33.5 32.328125 
L 27.484375 33.5 
Q 16.453125 35.6875 11.515625 40.375 
Q 6.59375 45.0625 6.59375 53.421875 
Q 6.59375 63.09375 13.40625 68.65625 
Q 20.21875 74.21875 32.171875 74.21875 
Q 37.3125 74.21875 42.625 73.28125 
Q 47.953125 72.359375 53.515625 70.515625 
z
" id="DejaVuSans-83"/>
       <path d="M 14.796875 27.296875 
Q 14.796875 17.390625 18.875 11.75 
Q 22.953125 6.109375 30.078125 6.109375 
Q 37.203125 6.109375 41.296875 11.75 
Q 45.40625 17.390625 45.40625 27.296875 
Q 45.40625 37.203125 41.296875 42.84375 
Q 37.203125 48.484375 30.078125 48.484375 
Q 22.953125 48.484375 18.875 42.84375 
Q 14.796875 37.203125 14.796875 27.296875 
z
M 45.40625 8.203125 
Q 42.578125 3.328125 38.25 0.953125 
Q 33.9375 -1.421875 27.875 -1.421875 
Q 17.96875 -1.421875 11.734375 6.484375 
Q 5.515625 14.40625 5.515625 27.296875 
Q 5.515625 40.1875 11.734375 48.09375 
Q 17.96875 56 27.875 56 
Q 33.9375 56 38.25 53.625 
Q 42.578125 51.265625 45.40625 46.390625 
L 45.40625 54.6875 
L 54.390625 54.6875 
L 54.390625 -20.796875 
L 45.40625 -20.796875 
z
" id="DejaVuSans-113"/>
       <path d="M 8.5 21.578125 
L 8.5 54.6875 
L 17.484375 54.6875 
L 17.484375 21.921875 
Q 17.484375 14.15625 20.5 10.265625 
Q 23.53125 6.390625 29.59375 6.390625 
Q 36.859375 6.390625 41.078125 11.03125 
Q 45.3125 15.671875 45.3125 23.6875 
L 45.3125 54.6875 
L 54.296875 54.6875 
L 54.296875 0 
L 45.3125 0 
L 45.3125 8.40625 
Q 42.046875 3.421875 37.71875 1 
Q 33.40625 -1.421875 27.6875 -1.421875 
Q 18.265625 -1.421875 13.375 4.4375 
Q 8.5 10.296875 8.5 21.578125 
z
M 31.109375 56 
z
" id="DejaVuSans-117"/>
       <path d="M 48.78125 52.59375 
L 48.78125 44.1875 
Q 44.96875 46.296875 41.140625 47.34375 
Q 37.3125 48.390625 33.40625 48.390625 
Q 24.65625 48.390625 19.8125 42.84375 
Q 14.984375 37.3125 14.984375 27.296875 
Q 14.984375 17.28125 19.8125 11.734375 
Q 24.65625 6.203125 33.40625 6.203125 
Q 37.3125 6.203125 41.140625 7.25 
Q 44.96875 8.296875 48.78125 10.40625 
L 48.78125 2.09375 
Q 45.015625 0.34375 40.984375 -0.53125 
Q 36.96875 -1.421875 32.421875 -1.421875 
Q 20.0625 -1.421875 12.78125 6.34375 
Q 5.515625 14.109375 5.515625 27.296875 
Q 5.515625 40.671875 12.859375 48.328125 
Q 20.21875 56 33.015625 56 
Q 37.15625 56 41.109375 55.140625 
Q 45.0625 54.296875 48.78125 52.59375 
z
" id="DejaVuSans-99"/>
      </defs>
      <use transform="translate(0 0.015625)" xlink:href="#DejaVuSans-66"/>
      <use transform="translate(68.603516 0.015625)" xlink:href="#DejaVuSans-105"/>
      <use transform="translate(96.386719 0.015625)" xlink:href="#DejaVuSans-116"/>
      <use transform="translate(135.595703 0.015625)" xlink:href="#DejaVuSans-32"/>
      <use transform="translate(167.382812 0.015625)" xlink:href="#DejaVuSans-69"/>
      <use transform="translate(230.566406 0.015625)" xlink:href="#DejaVuSans-114"/>
      <use transform="translate(271.679688 0.015625)" xlink:href="#DejaVuSans-114"/>
      <use transform="translate(312.792969 0.015625)" xlink:href="#DejaVuSans-111"/>
      <use transform="translate(373.974609 0.015625)" xlink:href="#DejaVuSans-114"/>
      <use transform="translate(415.087891 0.015625)" xlink:href="#DejaVuSans-32"/>
      <use transform="translate(446.875 0.015625)" xlink:href="#DejaVuSans-112"/>
      <use transform="translate(510.351562 0.015625)" xlink:href="#DejaVuSans-101"/>
      <use transform="translate(571.875 0.015625)" xlink:href="#DejaVuSans-114"/>
      <use transform="translate(612.988281 0.015625)" xlink:href="#DejaVuSans-32"/>
      <use transform="translate(644.775391 0.015625)" xlink:href="#DejaVuSans-83"/>
      <use transform="translate(708.251953 0.015625)" xlink:href="#DejaVuSans-101"/>
      <use transform="translate(769.775391 0.015625)" xlink:href="#DejaVuSans-113"/>
      <use transform="translate(833.251953 0.015625)" xlink:href="#DejaVuSans-117"/>
      <use transform="translate(896.630859 0.015625)" xlink:href="#DejaVuSans-101"/>
      <use transform="translate(958.154297 0.015625)" xlink:href="#DejaVuSans-110"/>
      <use transform="translate(1021.533203 0.015625)" xlink:href="#DejaVuSans-99"/>
      <use transform="translate(1076.513672 0.015625)" xlink:href="#DejaVuSans-101"/>
      <use transform="translate(1138.037109 0.015625)" xlink:href="#DejaVuSans-32"/>
      <use transform="translate(1169.824219 0.015625)" xlink:href="#DejaVuSans-8594"/>
      <use transform="translate(1253.613281 0.015625)" xlink:href="#DejaVuSans-32"/>
     </g>
    </g>
   </g>
   <g id="line2d_14">
    <path clip-path="url(#p7cfaec3ce5)" d="M 230.727273 470.135561 
L 234.120401 444.603599 
L 237.51353 531.143252 
L 240.906659 435.743193 
L 244.299787 460.221916 
L 247.692916 416.01692 
L 251.086044 468.235111 
L 254.479173 454.161185 
L 257.872302 476.555919 
L 261.26543 379.615036 
L 264.658559 473.653781 
L 268.051687 483.614618 
L 271.444816 454.239142 
L 274.837945 463.93383 
L 278.231073 473.231496 
L 281.624202 443.46912 
L 285.01733 530.51522 
L 288.410459 478.761221 
L 291.803588 359.914979 
L 295.196716 430.371517 
L 298.589845 512.877661 
L 301.982974 472.64048 
L 305.376102 406.912397 
L 308.769231 344.648253 
L 312.162359 484.460622 
L 315.555488 488.416488 
L 318.948617 446.870196 
L 322.341745 489.663144 
L 325.734874 474.31469 
L 329.128002 436.435747 
L 332.521131 468.101105 
L 335.91426 372.901939 
L 339.307388 435.803182 
L 342.700517 465.241169 
L 346.093645 469.992769 
L 349.486774 380.908513 
L 352.879903 454.788186 
L 356.273031 509.296453 
L 359.66616 416.237734 
L 363.059289 484.792011 
L 366.452417 418.575379 
L 369.845546 525.270639 
L 373.238674 463.922394 
L 376.631803 424.144405 
L 380.024932 497.089698 
L 383.41806 448.399515 
L 386.811189 480.120897 
L 390.204317 449.988217 
L 393.597446 376.619213 
L 396.990575 435.209229 
L 400.383703 463.735711 
L 403.776832 439.713432 
L 407.16996 437.352489 
L 410.563089 431.825165 
L 413.956218 472.788643 
L 417.349346 447.977352 
L 420.742475 426.501473 
L 424.135604 485.865612 
L 427.528732 454.06238 
L 430.921861 427.71028 
L 434.314989 442.191369 
L 437.708118 424.888353 
L 441.101247 475.331809 
L 444.494375 471.343919 
L 447.887504 404.692507 
L 451.280632 382.406335 
L 454.673761 445.210233 
L 458.06689 415.590562 
L 461.460018 451.781079 
L 464.853147 439.41817 
L 468.246275 418.218729 
L 471.639404 432.139834 
L 475.032533 476.405763 
L 478.425661 452.867927 
L 481.81879 425.74156 
L 485.211919 448.615021 
L 488.605047 431.323739 
L 491.998176 466.475784 
L 495.391304 486.301171 
L 498.784433 425.728796 
L 502.177562 428.897799 
L 505.57069 459.016814 
L 508.963819 421.658807 
L 512.356947 461.24913 
L 515.750076 434.032266 
L 519.143205 519.168618 
L 522.536333 360.94272 
L 525.929462 462.437106 
L 529.32259 442.13575 
L 532.715719 456.008872 
L 536.108848 358.727105 
L 539.501976 489.92313 
L 542.895105 423.015032 
L 546.288234 477.062629 
L 549.681362 474.6044 
L 553.074491 507.719102 
L 556.467619 449.836632 
L 559.860748 489.827785 
L 563.253877 427.416774 
L 566.647005 487.457959 
L 570.040134 503.979722 
L 573.433262 452.265809 
L 576.826391 424.403653 
L 580.21952 461.936954 
L 583.612648 477.498169 
L 587.005777 445.411472 
L 590.398905 404.247841 
L 593.792034 387.988652 
L 597.185163 472.65996 
L 600.578291 456.571848 
L 603.97142 397.110174 
L 607.364548 365.055701 
L 610.757677 425.805153 
L 614.150806 447.70199 
L 617.543934 428.726746 
L 620.937063 518.177313 
L 624.330192 430.016818 
L 627.72332 461.779649 
L 631.116449 370.020141 
L 634.509577 468.330682 
L 637.902706 426.105504 
L 641.295835 468.793893 
L 644.688963 381.537006 
L 648.082092 451.950161 
L 651.47522 445.205806 
L 654.868349 470.162866 
L 658.261478 402.7433 
L 661.654606 411.027123 
L 665.047735 423.787673 
L 668.440863 410.774528 
L 671.833992 375.333009 
L 675.227121 432.080598 
L 678.620249 455.357118 
L 682.013378 481.233766 
L 685.406507 436.028338 
L 688.799635 432.308989 
L 692.192764 447.28387 
L 695.585892 507.995242 
L 698.979021 460.623752 
L 702.37215 451.859626 
L 705.765278 401.064907 
L 709.158407 450.224273 
L 712.551535 462.892676 
L 715.944664 477.163935 
L 719.337793 502.859782 
L 722.730921 454.854554 
L 726.12405 463.100462 
L 729.517178 475.209046 
L 732.910307 486.805938 
L 736.303436 445.742815 
L 739.696564 438.199404 
L 743.089693 466.356039 
L 746.482822 373.73483 
L 749.87595 423.713525 
L 753.269079 450.095846 
L 756.662207 462.009409 
L 760.055336 373.221412 
L 763.448465 412.632892 
L 766.841593 429.488683 
L 770.234722 442.342379 
L 773.62785 411.086264 
L 777.020979 441.838503 
L 780.414108 378.677535 
L 783.807236 470.678534 
L 787.200365 419.884884 
L 790.593493 388.227346 
L 793.986622 438.61435 
L 797.379751 427.565153 
L 800.772879 500.314258 
L 804.166008 495.875606 
L 807.559137 450.406667 
L 810.952265 482.946356 
L 814.345394 419.636555 
L 817.738522 427.527236 
L 821.131651 430.290295 
L 824.52478 416.211978 
L 827.917908 400.892344 
L 831.311037 425.768955 
L 834.704165 516.707207 
L 838.097294 432.267547 
L 841.490423 496.315991 
L 844.883551 388.612048 
L 848.27668 453.970085 
L 851.669808 417.156332 
L 855.062937 453.013597 
L 858.456066 428.471982 
L 861.849194 470.573103 
L 865.242323 472.593671 
L 868.635452 366.055581 
L 872.02858 521.313374 
L 875.421709 443.766111 
L 878.814837 452.83108 
L 882.207966 466.991352 
L 885.601095 410.587925 
L 888.994223 494.642585 
L 892.387352 407.138726 
L 895.78048 407.219818 
L 899.173609 472.484904 
L 902.566738 413.8836 
L 905.959866 452.886851 
L 909.352995 422.624672 
L 912.746123 487.500687 
L 916.139252 409.529723 
L 919.532381 459.928525 
L 922.925509 423.555083 
L 926.318638 456.143914 
L 929.711766 422.24954 
L 933.104895 474.313099 
L 936.498024 476.017214 
L 939.891152 462.798037 
L 943.284281 413.493478 
L 946.67741 470.956708 
L 950.070538 446.09612 
L 953.463667 438.797242 
L 956.856795 433.78489 
L 960.249924 460.11358 
L 963.643053 404.75391 
L 967.036181 457.263924 
L 970.42931 474.90551 
L 973.822438 433.512326 
L 977.215567 430.027178 
L 980.608696 433.422379 
L 984.001824 471.747018 
L 987.394953 469.165202 
L 990.788081 462.93731 
L 994.18121 467.473742 
L 997.574339 379.745029 
L 1000.967467 438.646363 
L 1004.360596 457.903323 
L 1007.753725 435.383474 
L 1011.146853 376.903445 
L 1014.539982 433.887122 
L 1017.93311 453.155686 
L 1024.719368 435.583571 
L 1028.112496 445.320319 
L 1031.505625 399.212838 
L 1034.898753 467.809028 
L 1038.291882 436.545465 
L 1041.685011 480.998813 
L 1045.078139 463.237941 
L 1048.471268 513.978363 
L 1051.864396 448.503883 
L 1055.257525 431.938335 
L 1058.650654 403.350568 
L 1062.043782 465.43041 
L 1065.436911 415.380479 
L 1068.83004 347.968909 
L 1072.223168 384.40119 
L 1075.616297 451.762448 
L 1079.009425 442.615015 
L 1082.402554 454.60673 
L 1085.795683 443.340774 
L 1089.188811 446.463111 
L 1092.58194 508.091543 
L 1095.975068 451.008089 
L 1099.368197 463.01068 
L 1102.761326 461.008621 
L 1106.154454 428.050229 
L 1109.547583 511.847598 
L 1112.940711 514.783711 
L 1116.33384 471.377983 
L 1119.726969 453.843306 
L 1123.120097 450.943315 
L 1126.513226 408.905029 
L 1129.906355 428.027956 
L 1133.299483 460.779183 
L 1136.692612 504.49702 
L 1140.08574 429.983848 
L 1143.478869 495.563891 
L 1146.871998 442.479124 
L 1150.265126 439.529832 
L 1153.658255 486.273847 
L 1157.051383 516.841105 
L 1160.444512 476.213253 
L 1163.837641 391.71384 
L 1167.230769 481.64546 
L 1170.623898 545.785351 
L 1174.017026 461.267125 
L 1177.410155 451.061656 
L 1180.803284 466.360488 
L 1184.196412 467.459357 
L 1187.589541 432.933605 
L 1190.98267 463.689129 
L 1194.375798 332.804568 
L 1197.768927 465.489336 
L 1201.162055 430.507183 
L 1204.555184 433.79573 
L 1207.948313 475.058774 
L 1211.341441 458.466188 
L 1214.73457 437.093773 
L 1218.127698 446.614152 
L 1221.520827 513.661874 
L 1224.913956 455.370459 
L 1228.307084 337.633504 
L 1231.700213 418.534575 
L 1235.093341 414.493113 
L 1238.48647 451.994559 
L 1241.879599 450.100962 
L 1245.272727 466.287707 
L 1245.272727 466.287707 
" style="fill:none;stroke:#000000;stroke-linecap:square;stroke-width:1.5;"/>
   </g>
   <g id="patch_3">
    <path d="M 180 756 
L 180 103.68 
" style="fill:none;stroke:#000000;stroke-linecap:square;stroke-linejoin:miter;stroke-width:0.8;"/>
   </g>
   <g id="patch_4">
    <path d="M 1296 756 
L 1296 103.68 
" style="fill:none;stroke:#000000;stroke-linecap:square;stroke-linejoin:miter;stroke-width:0.8;"/>
   </g>
   <g id="patch_5">
    <path d="M 180 756 
L 1296 756 
" style="fill:none;stroke:#000000;stroke-linecap:square;stroke-linejoin:miter;stroke-width:0.8;"/>
   </g>
   <g id="patch_6">
    <path d="M 180 103.68 
L 1296 103.68 
" style="fill:none;stroke:#000000;stroke-linecap:square;stroke-linejoin:miter;stroke-width:0.8;"/>
   </g>
   <g id="text_16">
    <!-- Matrix Copy Task learning curves -->
    <g transform="translate(638.894063 97.68)scale(0.12 -0.12)">
     <defs>
      <path d="M 9.8125 72.90625 
L 24.515625 72.90625 
L 43.109375 23.296875 
L 61.8125 72.90625 
L 76.515625 72.90625 
L 76.515625 0 
L 66.890625 0 
L 66.890625 64.015625 
L 48.09375 14.015625 
L 38.1875 14.015625 
L 19.390625 64.015625 
L 19.390625 0 
L 9.8125 0 
z
" id="DejaVuSans-77"/>
      <path d="M 54.890625 54.6875 
L 35.109375 28.078125 
L 55.90625 0 
L 45.3125 0 
L 29.390625 21.484375 
L 13.484375 0 
L 2.875 0 
L 24.125 28.609375 
L 4.6875 54.6875 
L 15.28125 54.6875 
L 29.78125 35.203125 
L 44.28125 54.6875 
z
" id="DejaVuSans-120"/>
      <path d="M 64.40625 67.28125 
L 64.40625 56.890625 
Q 59.421875 61.53125 53.78125 63.8125 
Q 48.140625 66.109375 41.796875 66.109375 
Q 29.296875 66.109375 22.65625 58.46875 
Q 16.015625 50.828125 16.015625 36.375 
Q 16.015625 21.96875 22.65625 14.328125 
Q 29.296875 6.6875 41.796875 6.6875 
Q 48.140625 6.6875 53.78125 8.984375 
Q 59.421875 11.28125 64.40625 15.921875 
L 64.40625 5.609375 
Q 59.234375 2.09375 53.4375 0.328125 
Q 47.65625 -1.421875 41.21875 -1.421875 
Q 24.65625 -1.421875 15.125 8.703125 
Q 5.609375 18.84375 5.609375 36.375 
Q 5.609375 53.953125 15.125 64.078125 
Q 24.65625 74.21875 41.21875 74.21875 
Q 47.75 74.21875 53.53125 72.484375 
Q 59.328125 70.75 64.40625 67.28125 
z
" id="DejaVuSans-67"/>
      <path d="M 32.171875 -5.078125 
Q 28.375 -14.84375 24.75 -17.8125 
Q 21.140625 -20.796875 15.09375 -20.796875 
L 7.90625 -20.796875 
L 7.90625 -13.28125 
L 13.1875 -13.28125 
Q 16.890625 -13.28125 18.9375 -11.515625 
Q 21 -9.765625 23.484375 -3.21875 
L 25.09375 0.875 
L 2.984375 54.6875 
L 12.5 54.6875 
L 29.59375 11.921875 
L 46.6875 54.6875 
L 56.203125 54.6875 
z
" id="DejaVuSans-121"/>
      <path d="M -0.296875 72.90625 
L 61.375 72.90625 
L 61.375 64.59375 
L 35.5 64.59375 
L 35.5 0 
L 25.59375 0 
L 25.59375 64.59375 
L -0.296875 64.59375 
z
" id="DejaVuSans-84"/>
      <path d="M 9.078125 75.984375 
L 18.109375 75.984375 
L 18.109375 31.109375 
L 44.921875 54.6875 
L 56.390625 54.6875 
L 27.390625 29.109375 
L 57.625 0 
L 45.90625 0 
L 18.109375 26.703125 
L 18.109375 0 
L 9.078125 0 
z
" id="DejaVuSans-107"/>
      <path d="M 9.421875 75.984375 
L 18.40625 75.984375 
L 18.40625 0 
L 9.421875 0 
z
" id="DejaVuSans-108"/>
      <path d="M 45.40625 27.984375 
Q 45.40625 37.75 41.375 43.109375 
Q 37.359375 48.484375 30.078125 48.484375 
Q 22.859375 48.484375 18.828125 43.109375 
Q 14.796875 37.75 14.796875 27.984375 
Q 14.796875 18.265625 18.828125 12.890625 
Q 22.859375 7.515625 30.078125 7.515625 
Q 37.359375 7.515625 41.375 12.890625 
Q 45.40625 18.265625 45.40625 27.984375 
z
M 54.390625 6.78125 
Q 54.390625 -7.171875 48.1875 -13.984375 
Q 42 -20.796875 29.203125 -20.796875 
Q 24.46875 -20.796875 20.265625 -20.09375 
Q 16.0625 -19.390625 12.109375 -17.921875 
L 12.109375 -9.1875 
Q 16.0625 -11.328125 19.921875 -12.34375 
Q 23.78125 -13.375 27.78125 -13.375 
Q 36.625 -13.375 41.015625 -8.765625 
Q 45.40625 -4.15625 45.40625 5.171875 
L 45.40625 9.625 
Q 42.625 4.78125 38.28125 2.390625 
Q 33.9375 0 27.875 0 
Q 17.828125 0 11.671875 7.65625 
Q 5.515625 15.328125 5.515625 27.984375 
Q 5.515625 40.671875 11.671875 48.328125 
Q 17.828125 56 27.875 56 
Q 33.9375 56 38.28125 53.609375 
Q 42.625 51.21875 45.40625 46.390625 
L 45.40625 54.6875 
L 54.390625 54.6875 
z
" id="DejaVuSans-103"/>
      <path d="M 2.984375 54.6875 
L 12.5 54.6875 
L 29.59375 8.796875 
L 46.6875 54.6875 
L 56.203125 54.6875 
L 35.6875 0 
L 23.484375 0 
z
" id="DejaVuSans-118"/>
     </defs>
     <use xlink:href="#DejaVuSans-77"/>
     <use x="86.279297" xlink:href="#DejaVuSans-97"/>
     <use x="147.558594" xlink:href="#DejaVuSans-116"/>
     <use x="186.767578" xlink:href="#DejaVuSans-114"/>
     <use x="227.880859" xlink:href="#DejaVuSans-105"/>
     <use x="255.664062" xlink:href="#DejaVuSans-120"/>
     <use x="314.84375" xlink:href="#DejaVuSans-32"/>
     <use x="346.630859" xlink:href="#DejaVuSans-67"/>
     <use x="416.455078" xlink:href="#DejaVuSans-111"/>
     <use x="477.636719" xlink:href="#DejaVuSans-112"/>
     <use x="541.113281" xlink:href="#DejaVuSans-121"/>
     <use x="600.292969" xlink:href="#DejaVuSans-32"/>
     <use x="632.080078" xlink:href="#DejaVuSans-84"/>
     <use x="676.664062" xlink:href="#DejaVuSans-97"/>
     <use x="737.943359" xlink:href="#DejaVuSans-115"/>
     <use x="790.042969" xlink:href="#DejaVuSans-107"/>
     <use x="847.953125" xlink:href="#DejaVuSans-32"/>
     <use x="879.740234" xlink:href="#DejaVuSans-108"/>
     <use x="907.523438" xlink:href="#DejaVuSans-101"/>
     <use x="969.046875" xlink:href="#DejaVuSans-97"/>
     <use x="1030.326172" xlink:href="#DejaVuSans-114"/>
     <use x="1069.689453" xlink:href="#DejaVuSans-110"/>
     <use x="1133.068359" xlink:href="#DejaVuSans-105"/>
     <use x="1160.851562" xlink:href="#DejaVuSans-110"/>
     <use x="1224.230469" xlink:href="#DejaVuSans-103"/>
     <use x="1287.707031" xlink:href="#DejaVuSans-32"/>
     <use x="1319.494141" xlink:href="#DejaVuSans-99"/>
     <use x="1374.474609" xlink:href="#DejaVuSans-117"/>
     <use x="1437.853516" xlink:href="#DejaVuSans-114"/>
     <use x="1478.966797" xlink:href="#DejaVuSans-118"/>
     <use x="1538.146484" xlink:href="#DejaVuSans-101"/>
     <use x="1599.669922" xlink:href="#DejaVuSans-115"/>
    </g>
   </g>
  </g>
 </g>
 <defs>
  <clipPath id="p7cfaec3ce5">
   <rect height="652.32" width="1116" x="180" y="103.68"/>
  </clipPath>
 </defs>
</svg>
