<?xml version="1.0" encoding="utf-8" standalone="no"?>
<!DOCTYPE svg PUBLIC "-//W3C//DTD SVG 1.1//EN"
  "http://www.w3.org/Graphics/SVG/1.1/DTD/svg11.dtd">
<!-- Created with matplotlib (https://matplotlib.org/) -->
<svg height="864pt" version="1.1" viewBox="0 0 1440 864" width="1440pt" xmlns="http://www.w3.org/2000/svg" xmlns:xlink="http://www.w3.org/1999/xlink">
 <metadata>
  <rdf:RDF xmlns:cc="http://creativecommons.org/ns#" xmlns:dc="http://purl.org/dc/elements/1.1/" xmlns:rdf="http://www.w3.org/1999/02/22-rdf-syntax-ns#">
   <cc:Work>
    <dc:type rdf:resource="http://purl.org/dc/dcmitype/StillImage"/>
    <dc:date>2020-11-02T16:17:14.436367</dc:date>
    <dc:format>image/svg+xml</dc:format>
    <dc:creator>
     <cc:Agent>
      <dc:title>Matplotlib v3.3.1, https://matplotlib.org/</dc:title>
     </cc:Agent>
    </dc:creator>
   </cc:Work>
  </rdf:RDF>
 </metadata>
 <defs>
  <style type="text/css">*{stroke-linecap:butt;stroke-linejoin:round;}</style>
 </defs>
 <g id="figure_1">
  <g id="patch_1">
   <path d="M 0 864 
L 1440 864 
L 1440 0 
L 0 0 
z
" style="fill:none;"/>
  </g>
  <g id="axes_1">
   <g id="patch_2">
    <path d="M 180 756 
L 1296 756 
L 1296 103.68 
L 180 103.68 
z
" style="fill:#ffffff;"/>
   </g>
   <g id="matplotlib.axis_1">
    <g id="xtick_1">
     <g id="line2d_1">
      <defs>
       <path d="M 0 0 
L 0 3.5 
" id="m12b0c33101" style="stroke:#000000;stroke-width:0.8;"/>
      </defs>
      <g>
       <use style="stroke:#000000;stroke-width:0.8;" x="230.727273" xlink:href="#m12b0c33101" y="756"/>
      </g>
     </g>
     <g id="text_1">
      <!-- 0 -->
      <g transform="translate(227.546023 770.598438)scale(0.1 -0.1)">
       <defs>
        <path d="M 31.78125 66.40625 
Q 24.171875 66.40625 20.328125 58.90625 
Q 16.5 51.421875 16.5 36.375 
Q 16.5 21.390625 20.328125 13.890625 
Q 24.171875 6.390625 31.78125 6.390625 
Q 39.453125 6.390625 43.28125 13.890625 
Q 47.125 21.390625 47.125 36.375 
Q 47.125 51.421875 43.28125 58.90625 
Q 39.453125 66.40625 31.78125 66.40625 
z
M 31.78125 74.21875 
Q 44.046875 74.21875 50.515625 64.515625 
Q 56.984375 54.828125 56.984375 36.375 
Q 56.984375 17.96875 50.515625 8.265625 
Q 44.046875 -1.421875 31.78125 -1.421875 
Q 19.53125 -1.421875 13.0625 8.265625 
Q 6.59375 17.96875 6.59375 36.375 
Q 6.59375 54.828125 13.0625 64.515625 
Q 19.53125 74.21875 31.78125 74.21875 
z
" id="DejaVuSans-48"/>
       </defs>
       <use xlink:href="#DejaVuSans-48"/>
      </g>
     </g>
    </g>
    <g id="xtick_2">
     <g id="line2d_2">
      <g>
       <use style="stroke:#000000;stroke-width:0.8;" x="357.546089" xlink:href="#m12b0c33101" y="756"/>
      </g>
     </g>
     <g id="text_2">
      <!-- 25000 -->
      <g transform="translate(341.639839 770.598438)scale(0.1 -0.1)">
       <defs>
        <path d="M 19.1875 8.296875 
L 53.609375 8.296875 
L 53.609375 0 
L 7.328125 0 
L 7.328125 8.296875 
Q 12.9375 14.109375 22.625 23.890625 
Q 32.328125 33.6875 34.8125 36.53125 
Q 39.546875 41.84375 41.421875 45.53125 
Q 43.3125 49.21875 43.3125 52.78125 
Q 43.3125 58.59375 39.234375 62.25 
Q 35.15625 65.921875 28.609375 65.921875 
Q 23.96875 65.921875 18.8125 64.3125 
Q 13.671875 62.703125 7.8125 59.421875 
L 7.8125 69.390625 
Q 13.765625 71.78125 18.9375 73 
Q 24.125 74.21875 28.421875 74.21875 
Q 39.75 74.21875 46.484375 68.546875 
Q 53.21875 62.890625 53.21875 53.421875 
Q 53.21875 48.921875 51.53125 44.890625 
Q 49.859375 40.875 45.40625 35.40625 
Q 44.1875 33.984375 37.640625 27.21875 
Q 31.109375 20.453125 19.1875 8.296875 
z
" id="DejaVuSans-50"/>
        <path d="M 10.796875 72.90625 
L 49.515625 72.90625 
L 49.515625 64.59375 
L 19.828125 64.59375 
L 19.828125 46.734375 
Q 21.96875 47.46875 24.109375 47.828125 
Q 26.265625 48.1875 28.421875 48.1875 
Q 40.625 48.1875 47.75 41.5 
Q 54.890625 34.8125 54.890625 23.390625 
Q 54.890625 11.625 47.5625 5.09375 
Q 40.234375 -1.421875 26.90625 -1.421875 
Q 22.3125 -1.421875 17.546875 -0.640625 
Q 12.796875 0.140625 7.71875 1.703125 
L 7.71875 11.625 
Q 12.109375 9.234375 16.796875 8.0625 
Q 21.484375 6.890625 26.703125 6.890625 
Q 35.15625 6.890625 40.078125 11.328125 
Q 45.015625 15.765625 45.015625 23.390625 
Q 45.015625 31 40.078125 35.4375 
Q 35.15625 39.890625 26.703125 39.890625 
Q 22.75 39.890625 18.8125 39.015625 
Q 14.890625 38.140625 10.796875 36.28125 
z
" id="DejaVuSans-53"/>
       </defs>
       <use xlink:href="#DejaVuSans-50"/>
       <use x="63.623047" xlink:href="#DejaVuSans-53"/>
       <use x="127.246094" xlink:href="#DejaVuSans-48"/>
       <use x="190.869141" xlink:href="#DejaVuSans-48"/>
       <use x="254.492188" xlink:href="#DejaVuSans-48"/>
      </g>
     </g>
    </g>
    <g id="xtick_3">
     <g id="line2d_3">
      <g>
       <use style="stroke:#000000;stroke-width:0.8;" x="484.364905" xlink:href="#m12b0c33101" y="756"/>
      </g>
     </g>
     <g id="text_3">
      <!-- 50000 -->
      <g transform="translate(468.458655 770.598438)scale(0.1 -0.1)">
       <use xlink:href="#DejaVuSans-53"/>
       <use x="63.623047" xlink:href="#DejaVuSans-48"/>
       <use x="127.246094" xlink:href="#DejaVuSans-48"/>
       <use x="190.869141" xlink:href="#DejaVuSans-48"/>
       <use x="254.492188" xlink:href="#DejaVuSans-48"/>
      </g>
     </g>
    </g>
    <g id="xtick_4">
     <g id="line2d_4">
      <g>
       <use style="stroke:#000000;stroke-width:0.8;" x="611.18372" xlink:href="#m12b0c33101" y="756"/>
      </g>
     </g>
     <g id="text_4">
      <!-- 75000 -->
      <g transform="translate(595.27747 770.598438)scale(0.1 -0.1)">
       <defs>
        <path d="M 8.203125 72.90625 
L 55.078125 72.90625 
L 55.078125 68.703125 
L 28.609375 0 
L 18.3125 0 
L 43.21875 64.59375 
L 8.203125 64.59375 
z
" id="DejaVuSans-55"/>
       </defs>
       <use xlink:href="#DejaVuSans-55"/>
       <use x="63.623047" xlink:href="#DejaVuSans-53"/>
       <use x="127.246094" xlink:href="#DejaVuSans-48"/>
       <use x="190.869141" xlink:href="#DejaVuSans-48"/>
       <use x="254.492188" xlink:href="#DejaVuSans-48"/>
      </g>
     </g>
    </g>
    <g id="xtick_5">
     <g id="line2d_5">
      <g>
       <use style="stroke:#000000;stroke-width:0.8;" x="738.002536" xlink:href="#m12b0c33101" y="756"/>
      </g>
     </g>
     <g id="text_5">
      <!-- 100000 -->
      <g transform="translate(718.915036 770.598438)scale(0.1 -0.1)">
       <defs>
        <path d="M 12.40625 8.296875 
L 28.515625 8.296875 
L 28.515625 63.921875 
L 10.984375 60.40625 
L 10.984375 69.390625 
L 28.421875 72.90625 
L 38.28125 72.90625 
L 38.28125 8.296875 
L 54.390625 8.296875 
L 54.390625 0 
L 12.40625 0 
z
" id="DejaVuSans-49"/>
       </defs>
       <use xlink:href="#DejaVuSans-49"/>
       <use x="63.623047" xlink:href="#DejaVuSans-48"/>
       <use x="127.246094" xlink:href="#DejaVuSans-48"/>
       <use x="190.869141" xlink:href="#DejaVuSans-48"/>
       <use x="254.492188" xlink:href="#DejaVuSans-48"/>
       <use x="318.115234" xlink:href="#DejaVuSans-48"/>
      </g>
     </g>
    </g>
    <g id="xtick_6">
     <g id="line2d_6">
      <g>
       <use style="stroke:#000000;stroke-width:0.8;" x="864.821352" xlink:href="#m12b0c33101" y="756"/>
      </g>
     </g>
     <g id="text_6">
      <!-- 125000 -->
      <g transform="translate(845.733852 770.598438)scale(0.1 -0.1)">
       <use xlink:href="#DejaVuSans-49"/>
       <use x="63.623047" xlink:href="#DejaVuSans-50"/>
       <use x="127.246094" xlink:href="#DejaVuSans-53"/>
       <use x="190.869141" xlink:href="#DejaVuSans-48"/>
       <use x="254.492188" xlink:href="#DejaVuSans-48"/>
       <use x="318.115234" xlink:href="#DejaVuSans-48"/>
      </g>
     </g>
    </g>
    <g id="xtick_7">
     <g id="line2d_7">
      <g>
       <use style="stroke:#000000;stroke-width:0.8;" x="991.640168" xlink:href="#m12b0c33101" y="756"/>
      </g>
     </g>
     <g id="text_7">
      <!-- 150000 -->
      <g transform="translate(972.552668 770.598438)scale(0.1 -0.1)">
       <use xlink:href="#DejaVuSans-49"/>
       <use x="63.623047" xlink:href="#DejaVuSans-53"/>
       <use x="127.246094" xlink:href="#DejaVuSans-48"/>
       <use x="190.869141" xlink:href="#DejaVuSans-48"/>
       <use x="254.492188" xlink:href="#DejaVuSans-48"/>
       <use x="318.115234" xlink:href="#DejaVuSans-48"/>
      </g>
     </g>
    </g>
    <g id="xtick_8">
     <g id="line2d_8">
      <g>
       <use style="stroke:#000000;stroke-width:0.8;" x="1118.458984" xlink:href="#m12b0c33101" y="756"/>
      </g>
     </g>
     <g id="text_8">
      <!-- 175000 -->
      <g transform="translate(1099.371484 770.598438)scale(0.1 -0.1)">
       <use xlink:href="#DejaVuSans-49"/>
       <use x="63.623047" xlink:href="#DejaVuSans-55"/>
       <use x="127.246094" xlink:href="#DejaVuSans-53"/>
       <use x="190.869141" xlink:href="#DejaVuSans-48"/>
       <use x="254.492188" xlink:href="#DejaVuSans-48"/>
       <use x="318.115234" xlink:href="#DejaVuSans-48"/>
      </g>
     </g>
    </g>
    <g id="xtick_9">
     <g id="line2d_9">
      <g>
       <use style="stroke:#000000;stroke-width:0.8;" x="1245.2778" xlink:href="#m12b0c33101" y="756"/>
      </g>
     </g>
     <g id="text_9">
      <!-- 200000 -->
      <g transform="translate(1226.1903 770.598438)scale(0.1 -0.1)">
       <use xlink:href="#DejaVuSans-50"/>
       <use x="63.623047" xlink:href="#DejaVuSans-48"/>
       <use x="127.246094" xlink:href="#DejaVuSans-48"/>
       <use x="190.869141" xlink:href="#DejaVuSans-48"/>
       <use x="254.492188" xlink:href="#DejaVuSans-48"/>
       <use x="318.115234" xlink:href="#DejaVuSans-48"/>
      </g>
     </g>
    </g>
    <g id="text_10">
     <!-- Iterations $\to$ -->
     <g transform="translate(708.4 784.276562)scale(0.1 -0.1)">
      <defs>
       <path d="M 9.8125 72.90625 
L 19.671875 72.90625 
L 19.671875 0 
L 9.8125 0 
z
" id="DejaVuSans-73"/>
       <path d="M 18.3125 70.21875 
L 18.3125 54.6875 
L 36.8125 54.6875 
L 36.8125 47.703125 
L 18.3125 47.703125 
L 18.3125 18.015625 
Q 18.3125 11.328125 20.140625 9.421875 
Q 21.96875 7.515625 27.59375 7.515625 
L 36.8125 7.515625 
L 36.8125 0 
L 27.59375 0 
Q 17.1875 0 13.234375 3.875 
Q 9.28125 7.765625 9.28125 18.015625 
L 9.28125 47.703125 
L 2.6875 47.703125 
L 2.6875 54.6875 
L 9.28125 54.6875 
L 9.28125 70.21875 
z
" id="DejaVuSans-116"/>
       <path d="M 56.203125 29.59375 
L 56.203125 25.203125 
L 14.890625 25.203125 
Q 15.484375 15.921875 20.484375 11.0625 
Q 25.484375 6.203125 34.421875 6.203125 
Q 39.59375 6.203125 44.453125 7.46875 
Q 49.3125 8.734375 54.109375 11.28125 
L 54.109375 2.78125 
Q 49.265625 0.734375 44.1875 -0.34375 
Q 39.109375 -1.421875 33.890625 -1.421875 
Q 20.796875 -1.421875 13.15625 6.1875 
Q 5.515625 13.8125 5.515625 26.8125 
Q 5.515625 40.234375 12.765625 48.109375 
Q 20.015625 56 32.328125 56 
Q 43.359375 56 49.78125 48.890625 
Q 56.203125 41.796875 56.203125 29.59375 
z
M 47.21875 32.234375 
Q 47.125 39.59375 43.09375 43.984375 
Q 39.0625 48.390625 32.421875 48.390625 
Q 24.90625 48.390625 20.390625 44.140625 
Q 15.875 39.890625 15.1875 32.171875 
z
" id="DejaVuSans-101"/>
       <path d="M 41.109375 46.296875 
Q 39.59375 47.171875 37.8125 47.578125 
Q 36.03125 48 33.890625 48 
Q 26.265625 48 22.1875 43.046875 
Q 18.109375 38.09375 18.109375 28.8125 
L 18.109375 0 
L 9.078125 0 
L 9.078125 54.6875 
L 18.109375 54.6875 
L 18.109375 46.1875 
Q 20.953125 51.171875 25.484375 53.578125 
Q 30.03125 56 36.53125 56 
Q 37.453125 56 38.578125 55.875 
Q 39.703125 55.765625 41.0625 55.515625 
z
" id="DejaVuSans-114"/>
       <path d="M 34.28125 27.484375 
Q 23.390625 27.484375 19.1875 25 
Q 14.984375 22.515625 14.984375 16.5 
Q 14.984375 11.71875 18.140625 8.90625 
Q 21.296875 6.109375 26.703125 6.109375 
Q 34.1875 6.109375 38.703125 11.40625 
Q 43.21875 16.703125 43.21875 25.484375 
L 43.21875 27.484375 
z
M 52.203125 31.203125 
L 52.203125 0 
L 43.21875 0 
L 43.21875 8.296875 
Q 40.140625 3.328125 35.546875 0.953125 
Q 30.953125 -1.421875 24.3125 -1.421875 
Q 15.921875 -1.421875 10.953125 3.296875 
Q 6 8.015625 6 15.921875 
Q 6 25.140625 12.171875 29.828125 
Q 18.359375 34.515625 30.609375 34.515625 
L 43.21875 34.515625 
L 43.21875 35.40625 
Q 43.21875 41.609375 39.140625 45 
Q 35.0625 48.390625 27.6875 48.390625 
Q 23 48.390625 18.546875 47.265625 
Q 14.109375 46.140625 10.015625 43.890625 
L 10.015625 52.203125 
Q 14.9375 54.109375 19.578125 55.046875 
Q 24.21875 56 28.609375 56 
Q 40.484375 56 46.34375 49.84375 
Q 52.203125 43.703125 52.203125 31.203125 
z
" id="DejaVuSans-97"/>
       <path d="M 9.421875 54.6875 
L 18.40625 54.6875 
L 18.40625 0 
L 9.421875 0 
z
M 9.421875 75.984375 
L 18.40625 75.984375 
L 18.40625 64.59375 
L 9.421875 64.59375 
z
" id="DejaVuSans-105"/>
       <path d="M 30.609375 48.390625 
Q 23.390625 48.390625 19.1875 42.75 
Q 14.984375 37.109375 14.984375 27.296875 
Q 14.984375 17.484375 19.15625 11.84375 
Q 23.34375 6.203125 30.609375 6.203125 
Q 37.796875 6.203125 41.984375 11.859375 
Q 46.1875 17.53125 46.1875 27.296875 
Q 46.1875 37.015625 41.984375 42.703125 
Q 37.796875 48.390625 30.609375 48.390625 
z
M 30.609375 56 
Q 42.328125 56 49.015625 48.375 
Q 55.71875 40.765625 55.71875 27.296875 
Q 55.71875 13.875 49.015625 6.21875 
Q 42.328125 -1.421875 30.609375 -1.421875 
Q 18.84375 -1.421875 12.171875 6.21875 
Q 5.515625 13.875 5.515625 27.296875 
Q 5.515625 40.765625 12.171875 48.375 
Q 18.84375 56 30.609375 56 
z
" id="DejaVuSans-111"/>
       <path d="M 54.890625 33.015625 
L 54.890625 0 
L 45.90625 0 
L 45.90625 32.71875 
Q 45.90625 40.484375 42.875 44.328125 
Q 39.84375 48.1875 33.796875 48.1875 
Q 26.515625 48.1875 22.3125 43.546875 
Q 18.109375 38.921875 18.109375 30.90625 
L 18.109375 0 
L 9.078125 0 
L 9.078125 54.6875 
L 18.109375 54.6875 
L 18.109375 46.1875 
Q 21.34375 51.125 25.703125 53.5625 
Q 30.078125 56 35.796875 56 
Q 45.21875 56 50.046875 50.171875 
Q 54.890625 44.34375 54.890625 33.015625 
z
" id="DejaVuSans-110"/>
       <path d="M 44.28125 53.078125 
L 44.28125 44.578125 
Q 40.484375 46.53125 36.375 47.5 
Q 32.28125 48.484375 27.875 48.484375 
Q 21.1875 48.484375 17.84375 46.4375 
Q 14.5 44.390625 14.5 40.28125 
Q 14.5 37.15625 16.890625 35.375 
Q 19.28125 33.59375 26.515625 31.984375 
L 29.59375 31.296875 
Q 39.15625 29.25 43.1875 25.515625 
Q 47.21875 21.78125 47.21875 15.09375 
Q 47.21875 7.46875 41.1875 3.015625 
Q 35.15625 -1.421875 24.609375 -1.421875 
Q 20.21875 -1.421875 15.453125 -0.5625 
Q 10.6875 0.296875 5.421875 2 
L 5.421875 11.28125 
Q 10.40625 8.6875 15.234375 7.390625 
Q 20.0625 6.109375 24.8125 6.109375 
Q 31.15625 6.109375 34.5625 8.28125 
Q 37.984375 10.453125 37.984375 14.40625 
Q 37.984375 18.0625 35.515625 20.015625 
Q 33.0625 21.96875 24.703125 23.78125 
L 21.578125 24.515625 
Q 13.234375 26.265625 9.515625 29.90625 
Q 5.8125 33.546875 5.8125 39.890625 
Q 5.8125 47.609375 11.28125 51.796875 
Q 16.75 56 26.8125 56 
Q 31.78125 56 36.171875 55.265625 
Q 40.578125 54.546875 44.28125 53.078125 
z
" id="DejaVuSans-115"/>
       <path id="DejaVuSans-32"/>
       <path d="M 78.90625 33.546875 
L 78.90625 29.15625 
L 59.71875 9.96875 
L 53.859375 15.828125 
L 65.234375 27.203125 
L 5.71875 27.203125 
L 5.71875 35.5 
L 65.234375 35.5 
L 53.859375 46.875 
L 59.71875 52.734375 
z
" id="DejaVuSans-8594"/>
      </defs>
      <use transform="translate(0 0.015625)" xlink:href="#DejaVuSans-73"/>
      <use transform="translate(29.492188 0.015625)" xlink:href="#DejaVuSans-116"/>
      <use transform="translate(68.701172 0.015625)" xlink:href="#DejaVuSans-101"/>
      <use transform="translate(130.224609 0.015625)" xlink:href="#DejaVuSans-114"/>
      <use transform="translate(171.337891 0.015625)" xlink:href="#DejaVuSans-97"/>
      <use transform="translate(232.617188 0.015625)" xlink:href="#DejaVuSans-116"/>
      <use transform="translate(271.826172 0.015625)" xlink:href="#DejaVuSans-105"/>
      <use transform="translate(299.609375 0.015625)" xlink:href="#DejaVuSans-111"/>
      <use transform="translate(360.791016 0.015625)" xlink:href="#DejaVuSans-110"/>
      <use transform="translate(424.169922 0.015625)" xlink:href="#DejaVuSans-115"/>
      <use transform="translate(476.269531 0.015625)" xlink:href="#DejaVuSans-32"/>
      <use transform="translate(508.056641 0.015625)" xlink:href="#DejaVuSans-8594"/>
     </g>
    </g>
   </g>
   <g id="matplotlib.axis_2">
    <g id="ytick_1">
     <g id="line2d_10">
      <defs>
       <path d="M 0 0 
L -3.5 0 
" id="m67a64e535b" style="stroke:#000000;stroke-width:0.8;"/>
      </defs>
      <g>
       <use style="stroke:#000000;stroke-width:0.8;" x="180" xlink:href="#m67a64e535b" y="726.349091"/>
      </g>
     </g>
     <g id="text_11">
      <!-- 0 -->
      <g transform="translate(166.6375 730.14831)scale(0.1 -0.1)">
       <use xlink:href="#DejaVuSans-48"/>
      </g>
     </g>
    </g>
    <g id="ytick_2">
     <g id="line2d_11">
      <g>
       <use style="stroke:#000000;stroke-width:0.8;" x="180" xlink:href="#m67a64e535b" y="637.880178"/>
      </g>
     </g>
     <g id="text_12">
      <!-- 2 -->
      <g transform="translate(166.6375 641.679397)scale(0.1 -0.1)">
       <use xlink:href="#DejaVuSans-50"/>
      </g>
     </g>
    </g>
    <g id="ytick_3">
     <g id="line2d_12">
      <g>
       <use style="stroke:#000000;stroke-width:0.8;" x="180" xlink:href="#m67a64e535b" y="549.411265"/>
      </g>
     </g>
     <g id="text_13">
      <!-- 4 -->
      <g transform="translate(166.6375 553.210484)scale(0.1 -0.1)">
       <defs>
        <path d="M 37.796875 64.3125 
L 12.890625 25.390625 
L 37.796875 25.390625 
z
M 35.203125 72.90625 
L 47.609375 72.90625 
L 47.609375 25.390625 
L 58.015625 25.390625 
L 58.015625 17.1875 
L 47.609375 17.1875 
L 47.609375 0 
L 37.796875 0 
L 37.796875 17.1875 
L 4.890625 17.1875 
L 4.890625 26.703125 
z
" id="DejaVuSans-52"/>
       </defs>
       <use xlink:href="#DejaVuSans-52"/>
      </g>
     </g>
    </g>
    <g id="ytick_4">
     <g id="line2d_13">
      <g>
       <use style="stroke:#000000;stroke-width:0.8;" x="180" xlink:href="#m67a64e535b" y="460.942352"/>
      </g>
     </g>
     <g id="text_14">
      <!-- 6 -->
      <g transform="translate(166.6375 464.741571)scale(0.1 -0.1)">
       <defs>
        <path d="M 33.015625 40.375 
Q 26.375 40.375 22.484375 35.828125 
Q 18.609375 31.296875 18.609375 23.390625 
Q 18.609375 15.53125 22.484375 10.953125 
Q 26.375 6.390625 33.015625 6.390625 
Q 39.65625 6.390625 43.53125 10.953125 
Q 47.40625 15.53125 47.40625 23.390625 
Q 47.40625 31.296875 43.53125 35.828125 
Q 39.65625 40.375 33.015625 40.375 
z
M 52.59375 71.296875 
L 52.59375 62.3125 
Q 48.875 64.0625 45.09375 64.984375 
Q 41.3125 65.921875 37.59375 65.921875 
Q 27.828125 65.921875 22.671875 59.328125 
Q 17.53125 52.734375 16.796875 39.40625 
Q 19.671875 43.65625 24.015625 45.921875 
Q 28.375 48.1875 33.59375 48.1875 
Q 44.578125 48.1875 50.953125 41.515625 
Q 57.328125 34.859375 57.328125 23.390625 
Q 57.328125 12.15625 50.6875 5.359375 
Q 44.046875 -1.421875 33.015625 -1.421875 
Q 20.359375 -1.421875 13.671875 8.265625 
Q 6.984375 17.96875 6.984375 36.375 
Q 6.984375 53.65625 15.1875 63.9375 
Q 23.390625 74.21875 37.203125 74.21875 
Q 40.921875 74.21875 44.703125 73.484375 
Q 48.484375 72.75 52.59375 71.296875 
z
" id="DejaVuSans-54"/>
       </defs>
       <use xlink:href="#DejaVuSans-54"/>
      </g>
     </g>
    </g>
    <g id="ytick_5">
     <g id="line2d_14">
      <g>
       <use style="stroke:#000000;stroke-width:0.8;" x="180" xlink:href="#m67a64e535b" y="372.473439"/>
      </g>
     </g>
     <g id="text_15">
      <!-- 8 -->
      <g transform="translate(166.6375 376.272658)scale(0.1 -0.1)">
       <defs>
        <path d="M 31.78125 34.625 
Q 24.75 34.625 20.71875 30.859375 
Q 16.703125 27.09375 16.703125 20.515625 
Q 16.703125 13.921875 20.71875 10.15625 
Q 24.75 6.390625 31.78125 6.390625 
Q 38.8125 6.390625 42.859375 10.171875 
Q 46.921875 13.96875 46.921875 20.515625 
Q 46.921875 27.09375 42.890625 30.859375 
Q 38.875 34.625 31.78125 34.625 
z
M 21.921875 38.8125 
Q 15.578125 40.375 12.03125 44.71875 
Q 8.5 49.078125 8.5 55.328125 
Q 8.5 64.0625 14.71875 69.140625 
Q 20.953125 74.21875 31.78125 74.21875 
Q 42.671875 74.21875 48.875 69.140625 
Q 55.078125 64.0625 55.078125 55.328125 
Q 55.078125 49.078125 51.53125 44.71875 
Q 48 40.375 41.703125 38.8125 
Q 48.828125 37.15625 52.796875 32.3125 
Q 56.78125 27.484375 56.78125 20.515625 
Q 56.78125 9.90625 50.3125 4.234375 
Q 43.84375 -1.421875 31.78125 -1.421875 
Q 19.734375 -1.421875 13.25 4.234375 
Q 6.78125 9.90625 6.78125 20.515625 
Q 6.78125 27.484375 10.78125 32.3125 
Q 14.796875 37.15625 21.921875 38.8125 
z
M 18.3125 54.390625 
Q 18.3125 48.734375 21.84375 45.5625 
Q 25.390625 42.390625 31.78125 42.390625 
Q 38.140625 42.390625 41.71875 45.5625 
Q 45.3125 48.734375 45.3125 54.390625 
Q 45.3125 60.0625 41.71875 63.234375 
Q 38.140625 66.40625 31.78125 66.40625 
Q 25.390625 66.40625 21.84375 63.234375 
Q 18.3125 60.0625 18.3125 54.390625 
z
" id="DejaVuSans-56"/>
       </defs>
       <use xlink:href="#DejaVuSans-56"/>
      </g>
     </g>
    </g>
    <g id="ytick_6">
     <g id="line2d_15">
      <g>
       <use style="stroke:#000000;stroke-width:0.8;" x="180" xlink:href="#m67a64e535b" y="284.004526"/>
      </g>
     </g>
     <g id="text_16">
      <!-- 10 -->
      <g transform="translate(160.275 287.803745)scale(0.1 -0.1)">
       <use xlink:href="#DejaVuSans-49"/>
       <use x="63.623047" xlink:href="#DejaVuSans-48"/>
      </g>
     </g>
    </g>
    <g id="ytick_7">
     <g id="line2d_16">
      <g>
       <use style="stroke:#000000;stroke-width:0.8;" x="180" xlink:href="#m67a64e535b" y="195.535613"/>
      </g>
     </g>
     <g id="text_17">
      <!-- 12 -->
      <g transform="translate(160.275 199.334832)scale(0.1 -0.1)">
       <use xlink:href="#DejaVuSans-49"/>
       <use x="63.623047" xlink:href="#DejaVuSans-50"/>
      </g>
     </g>
    </g>
    <g id="ytick_8">
     <g id="line2d_17">
      <g>
       <use style="stroke:#000000;stroke-width:0.8;" x="180" xlink:href="#m67a64e535b" y="107.066701"/>
      </g>
     </g>
     <g id="text_18">
      <!-- 14 -->
      <g transform="translate(160.275 110.865919)scale(0.1 -0.1)">
       <use xlink:href="#DejaVuSans-49"/>
       <use x="63.623047" xlink:href="#DejaVuSans-52"/>
      </g>
     </g>
    </g>
    <g id="text_19">
     <!-- Bit Error per Sequence $\to$  -->
     <g transform="translate(154.175 494.14)rotate(-90)scale(0.1 -0.1)">
      <defs>
       <path d="M 19.671875 34.8125 
L 19.671875 8.109375 
L 35.5 8.109375 
Q 43.453125 8.109375 47.28125 11.40625 
Q 51.125 14.703125 51.125 21.484375 
Q 51.125 28.328125 47.28125 31.5625 
Q 43.453125 34.8125 35.5 34.8125 
z
M 19.671875 64.796875 
L 19.671875 42.828125 
L 34.28125 42.828125 
Q 41.5 42.828125 45.03125 45.53125 
Q 48.578125 48.25 48.578125 53.8125 
Q 48.578125 59.328125 45.03125 62.0625 
Q 41.5 64.796875 34.28125 64.796875 
z
M 9.8125 72.90625 
L 35.015625 72.90625 
Q 46.296875 72.90625 52.390625 68.21875 
Q 58.5 63.53125 58.5 54.890625 
Q 58.5 48.1875 55.375 44.234375 
Q 52.25 40.28125 46.1875 39.3125 
Q 53.46875 37.75 57.5 32.78125 
Q 61.53125 27.828125 61.53125 20.40625 
Q 61.53125 10.640625 54.890625 5.3125 
Q 48.25 0 35.984375 0 
L 9.8125 0 
z
" id="DejaVuSans-66"/>
       <path d="M 9.8125 72.90625 
L 55.90625 72.90625 
L 55.90625 64.59375 
L 19.671875 64.59375 
L 19.671875 43.015625 
L 54.390625 43.015625 
L 54.390625 34.71875 
L 19.671875 34.71875 
L 19.671875 8.296875 
L 56.78125 8.296875 
L 56.78125 0 
L 9.8125 0 
z
" id="DejaVuSans-69"/>
       <path d="M 18.109375 8.203125 
L 18.109375 -20.796875 
L 9.078125 -20.796875 
L 9.078125 54.6875 
L 18.109375 54.6875 
L 18.109375 46.390625 
Q 20.953125 51.265625 25.265625 53.625 
Q 29.59375 56 35.59375 56 
Q 45.5625 56 51.78125 48.09375 
Q 58.015625 40.1875 58.015625 27.296875 
Q 58.015625 14.40625 51.78125 6.484375 
Q 45.5625 -1.421875 35.59375 -1.421875 
Q 29.59375 -1.421875 25.265625 0.953125 
Q 20.953125 3.328125 18.109375 8.203125 
z
M 48.6875 27.296875 
Q 48.6875 37.203125 44.609375 42.84375 
Q 40.53125 48.484375 33.40625 48.484375 
Q 26.265625 48.484375 22.1875 42.84375 
Q 18.109375 37.203125 18.109375 27.296875 
Q 18.109375 17.390625 22.1875 11.75 
Q 26.265625 6.109375 33.40625 6.109375 
Q 40.53125 6.109375 44.609375 11.75 
Q 48.6875 17.390625 48.6875 27.296875 
z
" id="DejaVuSans-112"/>
       <path d="M 53.515625 70.515625 
L 53.515625 60.890625 
Q 47.90625 63.578125 42.921875 64.890625 
Q 37.9375 66.21875 33.296875 66.21875 
Q 25.25 66.21875 20.875 63.09375 
Q 16.5 59.96875 16.5 54.203125 
Q 16.5 49.359375 19.40625 46.890625 
Q 22.3125 44.4375 30.421875 42.921875 
L 36.375 41.703125 
Q 47.40625 39.59375 52.65625 34.296875 
Q 57.90625 29 57.90625 20.125 
Q 57.90625 9.515625 50.796875 4.046875 
Q 43.703125 -1.421875 29.984375 -1.421875 
Q 24.8125 -1.421875 18.96875 -0.25 
Q 13.140625 0.921875 6.890625 3.21875 
L 6.890625 13.375 
Q 12.890625 10.015625 18.65625 8.296875 
Q 24.421875 6.59375 29.984375 6.59375 
Q 38.421875 6.59375 43.015625 9.90625 
Q 47.609375 13.234375 47.609375 19.390625 
Q 47.609375 24.75 44.3125 27.78125 
Q 41.015625 30.8125 33.5 32.328125 
L 27.484375 33.5 
Q 16.453125 35.6875 11.515625 40.375 
Q 6.59375 45.0625 6.59375 53.421875 
Q 6.59375 63.09375 13.40625 68.65625 
Q 20.21875 74.21875 32.171875 74.21875 
Q 37.3125 74.21875 42.625 73.28125 
Q 47.953125 72.359375 53.515625 70.515625 
z
" id="DejaVuSans-83"/>
       <path d="M 14.796875 27.296875 
Q 14.796875 17.390625 18.875 11.75 
Q 22.953125 6.109375 30.078125 6.109375 
Q 37.203125 6.109375 41.296875 11.75 
Q 45.40625 17.390625 45.40625 27.296875 
Q 45.40625 37.203125 41.296875 42.84375 
Q 37.203125 48.484375 30.078125 48.484375 
Q 22.953125 48.484375 18.875 42.84375 
Q 14.796875 37.203125 14.796875 27.296875 
z
M 45.40625 8.203125 
Q 42.578125 3.328125 38.25 0.953125 
Q 33.9375 -1.421875 27.875 -1.421875 
Q 17.96875 -1.421875 11.734375 6.484375 
Q 5.515625 14.40625 5.515625 27.296875 
Q 5.515625 40.1875 11.734375 48.09375 
Q 17.96875 56 27.875 56 
Q 33.9375 56 38.25 53.625 
Q 42.578125 51.265625 45.40625 46.390625 
L 45.40625 54.6875 
L 54.390625 54.6875 
L 54.390625 -20.796875 
L 45.40625 -20.796875 
z
" id="DejaVuSans-113"/>
       <path d="M 8.5 21.578125 
L 8.5 54.6875 
L 17.484375 54.6875 
L 17.484375 21.921875 
Q 17.484375 14.15625 20.5 10.265625 
Q 23.53125 6.390625 29.59375 6.390625 
Q 36.859375 6.390625 41.078125 11.03125 
Q 45.3125 15.671875 45.3125 23.6875 
L 45.3125 54.6875 
L 54.296875 54.6875 
L 54.296875 0 
L 45.3125 0 
L 45.3125 8.40625 
Q 42.046875 3.421875 37.71875 1 
Q 33.40625 -1.421875 27.6875 -1.421875 
Q 18.265625 -1.421875 13.375 4.4375 
Q 8.5 10.296875 8.5 21.578125 
z
M 31.109375 56 
z
" id="DejaVuSans-117"/>
       <path d="M 48.78125 52.59375 
L 48.78125 44.1875 
Q 44.96875 46.296875 41.140625 47.34375 
Q 37.3125 48.390625 33.40625 48.390625 
Q 24.65625 48.390625 19.8125 42.84375 
Q 14.984375 37.3125 14.984375 27.296875 
Q 14.984375 17.28125 19.8125 11.734375 
Q 24.65625 6.203125 33.40625 6.203125 
Q 37.3125 6.203125 41.140625 7.25 
Q 44.96875 8.296875 48.78125 10.40625 
L 48.78125 2.09375 
Q 45.015625 0.34375 40.984375 -0.53125 
Q 36.96875 -1.421875 32.421875 -1.421875 
Q 20.0625 -1.421875 12.78125 6.34375 
Q 5.515625 14.109375 5.515625 27.296875 
Q 5.515625 40.671875 12.859375 48.328125 
Q 20.21875 56 33.015625 56 
Q 37.15625 56 41.109375 55.140625 
Q 45.0625 54.296875 48.78125 52.59375 
z
" id="DejaVuSans-99"/>
      </defs>
      <use transform="translate(0 0.015625)" xlink:href="#DejaVuSans-66"/>
      <use transform="translate(68.603516 0.015625)" xlink:href="#DejaVuSans-105"/>
      <use transform="translate(96.386719 0.015625)" xlink:href="#DejaVuSans-116"/>
      <use transform="translate(135.595703 0.015625)" xlink:href="#DejaVuSans-32"/>
      <use transform="translate(167.382812 0.015625)" xlink:href="#DejaVuSans-69"/>
      <use transform="translate(230.566406 0.015625)" xlink:href="#DejaVuSans-114"/>
      <use transform="translate(271.679688 0.015625)" xlink:href="#DejaVuSans-114"/>
      <use transform="translate(312.792969 0.015625)" xlink:href="#DejaVuSans-111"/>
      <use transform="translate(373.974609 0.015625)" xlink:href="#DejaVuSans-114"/>
      <use transform="translate(415.087891 0.015625)" xlink:href="#DejaVuSans-32"/>
      <use transform="translate(446.875 0.015625)" xlink:href="#DejaVuSans-112"/>
      <use transform="translate(510.351562 0.015625)" xlink:href="#DejaVuSans-101"/>
      <use transform="translate(571.875 0.015625)" xlink:href="#DejaVuSans-114"/>
      <use transform="translate(612.988281 0.015625)" xlink:href="#DejaVuSans-32"/>
      <use transform="translate(644.775391 0.015625)" xlink:href="#DejaVuSans-83"/>
      <use transform="translate(708.251953 0.015625)" xlink:href="#DejaVuSans-101"/>
      <use transform="translate(769.775391 0.015625)" xlink:href="#DejaVuSans-113"/>
      <use transform="translate(833.251953 0.015625)" xlink:href="#DejaVuSans-117"/>
      <use transform="translate(896.630859 0.015625)" xlink:href="#DejaVuSans-101"/>
      <use transform="translate(958.154297 0.015625)" xlink:href="#DejaVuSans-110"/>
      <use transform="translate(1021.533203 0.015625)" xlink:href="#DejaVuSans-99"/>
      <use transform="translate(1076.513672 0.015625)" xlink:href="#DejaVuSans-101"/>
      <use transform="translate(1138.037109 0.015625)" xlink:href="#DejaVuSans-32"/>
      <use transform="translate(1169.824219 0.015625)" xlink:href="#DejaVuSans-8594"/>
      <use transform="translate(1253.613281 0.015625)" xlink:href="#DejaVuSans-32"/>
     </g>
    </g>
   </g>
   <g id="line2d_18">
    <path clip-path="url(#pc46e9ea1c3)" d="M 230.727273 133.330909 
L 234.120401 289.757026 
L 237.51353 282.619223 
L 240.906659 266.961968 
L 244.299787 303.029422 
L 247.692916 297.07649 
L 254.479173 258.27906 
L 257.872302 309.942249 
L 261.26543 271.970635 
L 264.658559 278.532087 
L 268.051687 302.490998 
L 271.444816 369.501115 
L 274.837945 345.918625 
L 278.231073 622.286401 
L 281.624202 330.0131 
L 285.01733 464.537258 
L 288.410459 393.165854 
L 291.803588 375.808998 
L 295.196716 381.149901 
L 298.589845 394.043137 
L 301.982974 418.961553 
L 305.376102 481.077808 
L 308.769231 381.319513 
L 312.162359 367.927429 
L 315.555488 363.503501 
L 318.948617 402.535287 
L 322.341745 476.15349 
L 325.734874 397.618276 
L 329.128002 435.456404 
L 332.521131 409.030494 
L 335.91426 415.428655 
L 339.307388 492.458403 
L 342.700517 412.668664 
L 346.093645 434.334972 
L 349.486774 446.068008 
L 352.879903 389.745785 
L 356.273031 466.734051 
L 359.66616 444.777728 
L 363.059289 418.088738 
L 366.452417 654.915269 
L 369.845546 474.350834 
L 373.238674 433.901426 
L 376.631803 409.897335 
L 380.024932 630.903591 
L 383.41806 437.379689 
L 386.811189 575.677215 
L 390.204317 403.822947 
L 393.597446 440.543455 
L 396.990575 456.82501 
L 400.383703 678.309437 
L 403.776832 452.219224 
L 407.16996 393.437981 
L 410.563089 505.638084 
L 413.956218 416.860546 
L 417.349346 415.98443 
L 420.742475 370.961767 
L 424.135604 384.879076 
L 427.528732 726.349091 
L 430.921861 369.887136 
L 434.314989 488.235722 
L 437.708118 362.229135 
L 441.101247 422.139107 
L 444.494375 597.856317 
L 447.887504 394.39095 
L 451.280632 537.211235 
L 454.673761 397.987578 
L 458.06689 394.441573 
L 461.460018 533.280305 
L 464.853147 476.872042 
L 468.246275 480.468316 
L 471.639404 397.93803 
L 475.032533 499.778596 
L 478.425661 461.991362 
L 481.81879 473.331456 
L 485.211919 430.392616 
L 488.605047 480.093712 
L 491.998176 422.364256 
L 495.391304 593.472678 
L 498.784433 643.057617 
L 502.177562 435.789877 
L 505.57069 568.353513 
L 508.963819 436.93077 
L 512.356947 438.920152 
L 515.750076 402.32339 
L 519.143205 426.819099 
L 522.536333 445.268901 
L 525.929462 676.703749 
L 529.32259 429.662189 
L 532.715719 603.69287 
L 536.108848 498.145978 
L 539.501976 502.601122 
L 542.895105 486.483956 
L 546.288234 420.118761 
L 549.681362 430.395311 
L 553.074491 359.746718 
L 556.467619 408.64295 
L 559.860748 514.584097 
L 563.253877 433.819403 
L 566.647005 448.847981 
L 570.040134 427.505172 
L 573.433262 426.177618 
L 576.826391 432.81209 
L 580.21952 478.627993 
L 583.612648 480.856766 
L 587.005777 632.040129 
L 590.398905 383.515035 
L 593.792034 533.308147 
L 597.185163 418.387067 
L 600.578291 559.628168 
L 603.97142 379.982789 
L 607.364548 473.888821 
L 610.757677 440.280616 
L 614.150806 452.698056 
L 617.543934 479.747211 
L 620.937063 726.349091 
L 624.330192 552.923109 
L 627.72332 553.826285 
L 631.116449 688.887113 
L 634.509577 426.611188 
L 637.902706 444.232401 
L 641.295835 537.48545 
L 644.688963 504.467143 
L 648.082092 512.528543 
L 651.47522 556.136307 
L 654.868349 480.676478 
L 658.261478 521.808005 
L 661.654606 450.366088 
L 665.047735 549.048246 
L 668.440863 718.432268 
L 671.833992 451.834387 
L 675.227121 491.841108 
L 678.620249 711.068989 
L 682.013378 428.002111 
L 685.406507 543.073802 
L 688.799635 531.736834 
L 692.192764 521.311893 
L 695.585892 517.15012 
L 698.979021 516.373012 
L 702.37215 497.327873 
L 705.765278 566.395 
L 709.158407 549.155811 
L 712.551535 726.349091 
L 715.944664 499.180212 
L 719.337793 614.989511 
L 722.730921 409.09987 
L 726.12405 424.402652 
L 729.517178 544.90009 
L 732.910307 623.771883 
L 736.303436 722.044036 
L 739.696564 480.322367 
L 743.089693 726.349091 
L 746.482822 583.805377 
L 749.87595 639.243622 
L 753.269079 629.172525 
L 756.662207 455.701245 
L 760.055336 726.349091 
L 763.448465 542.822792 
L 766.841593 545.632737 
L 770.234722 725.096193 
L 773.62785 726.349091 
L 777.020979 535.946785 
L 780.414108 627.636708 
L 783.807236 627.589499 
L 787.200365 613.604133 
L 790.593493 504.80519 
L 793.986622 572.149811 
L 797.379751 471.349768 
L 800.772879 521.765977 
L 804.166008 724.037 
L 807.559137 504.533667 
L 810.952265 460.335558 
L 814.345394 577.893338 
L 821.131651 492.38606 
L 824.52478 537.392971 
L 827.917908 666.978846 
L 831.311037 509.238348 
L 834.704165 726.100133 
L 838.097294 494.968143 
L 841.490423 678.078697 
L 844.883551 508.338152 
L 848.27668 684.028357 
L 851.669808 641.382953 
L 855.062937 611.993409 
L 858.456066 570.060919 
L 861.849194 725.70882 
L 865.242323 726.232012 
L 868.635452 468.089269 
L 872.02858 671.855079 
L 875.421709 471.833839 
L 878.814837 708.407393 
L 882.207966 532.804469 
L 885.601095 721.922064 
L 888.994223 684.316554 
L 892.387352 723.861232 
L 895.78048 503.343254 
L 899.173609 723.312924 
L 902.566738 476.34858 
L 905.959866 628.102667 
L 909.352995 483.175245 
L 916.139252 626.432688 
L 919.532381 549.115523 
L 922.925509 490.611667 
L 926.318638 555.349139 
L 929.711766 476.423008 
L 933.104895 545.250183 
L 936.498024 726.349091 
L 939.891152 657.532534 
L 943.284281 652.248514 
L 946.67741 624.21747 
L 950.070538 506.42932 
L 953.463667 484.167028 
L 956.856795 726.349091 
L 960.249924 490.269415 
L 963.643053 445.332138 
L 967.036181 676.64789 
L 970.42931 584.680728 
L 973.822438 509.00811 
L 977.215567 636.412428 
L 980.608696 531.847943 
L 984.001824 726.349091 
L 987.394953 613.925366 
L 990.788081 723.569406 
L 994.18121 519.651216 
L 997.574339 415.884353 
L 1000.967467 571.227342 
L 1004.360596 461.269155 
L 1007.753725 450.783492 
L 1011.146853 623.972899 
L 1014.539982 472.33867 
L 1017.93311 478.848284 
L 1021.326239 439.3095 
L 1024.719368 643.079123 
L 1028.112496 458.865256 
L 1031.505625 524.459088 
L 1034.898753 660.43381 
L 1038.291882 726.349091 
L 1041.685011 485.544885 
L 1045.078139 525.791346 
L 1048.471268 697.573605 
L 1051.864396 726.349091 
L 1055.257525 640.085344 
L 1058.650654 693.236734 
L 1062.043782 509.984097 
L 1065.436911 470.578993 
L 1068.83004 656.313195 
L 1072.223168 523.593738 
L 1075.616297 493.328469 
L 1079.009425 704.65219 
L 1082.402554 714.224956 
L 1085.795683 516.237475 
L 1089.188811 522.67768 
L 1092.58194 701.981268 
L 1095.975068 478.20042 
L 1099.368197 535.198269 
L 1102.761326 578.082034 
L 1106.154454 531.493558 
L 1109.547583 619.520622 
L 1112.940711 717.948278 
L 1116.33384 415.295752 
L 1119.726969 500.436071 
L 1123.120097 473.630612 
L 1126.513226 613.263993 
L 1129.906355 496.973148 
L 1133.299483 639.622591 
L 1136.692612 509.444703 
L 1140.08574 579.544937 
L 1143.478869 450.984573 
L 1146.871998 716.557818 
L 1150.265126 529.381101 
L 1153.658255 536.331649 
L 1157.051383 480.0234 
L 1160.444512 723.670199 
L 1163.837641 447.371468 
L 1167.230769 547.030801 
L 1170.623898 473.76336 
L 1174.017026 665.95707 
L 1177.410155 472.028765 
L 1180.803284 429.833929 
L 1184.196412 633.308037 
L 1187.589541 648.756137 
L 1190.98267 655.510369 
L 1194.375798 522.715729 
L 1197.768927 592.702836 
L 1201.162055 541.547955 
L 1204.555184 278.885547 
L 1207.948313 308.998788 
L 1211.341441 299.819143 
L 1214.73457 305.347787 
L 1218.127698 254.950518 
L 1221.520827 726.349091 
L 1245.272727 726.349091 
L 1245.272727 726.349091 
" style="fill:none;stroke:#1f77b4;stroke-linecap:square;stroke-opacity:0.65;stroke-width:1.5;"/>
   </g>
   <g id="line2d_19">
    <path clip-path="url(#pc46e9ea1c3)" d="M 230.727273 152.683484 
L 234.120401 294.101654 
L 237.51353 261.522947 
L 240.906659 284.720401 
L 244.299787 294.856729 
L 247.692916 270.331628 
L 251.086044 276.021036 
L 254.479173 283.052866 
L 257.872302 289.113349 
L 261.26543 280.664194 
L 264.658559 259.207113 
L 268.051687 293.942666 
L 271.444816 276.790917 
L 274.837945 264.338438 
L 278.231073 294.633042 
L 281.624202 298.95739 
L 285.01733 307.124044 
L 288.410459 298.949386 
L 291.803588 278.030537 
L 295.196716 301.59253 
L 298.589845 311.172816 
L 301.982974 296.996525 
L 305.376102 293.278752 
L 308.769231 280.016638 
L 312.162359 287.736799 
L 315.555488 303.240734 
L 318.948617 313.36497 
L 322.341745 298.696059 
L 325.734874 320.037484 
L 329.128002 382.971223 
L 332.521131 334.673084 
L 335.91426 381.369874 
L 339.307388 564.692807 
L 342.700517 403.000124 
L 346.093645 470.385013 
L 349.486774 465.006866 
L 352.879903 415.784807 
L 356.273031 525.986145 
L 359.66616 460.462271 
L 363.059289 416.176797 
L 366.452417 667.081355 
L 369.845546 503.806396 
L 373.238674 438.125984 
L 376.631803 436.664521 
L 380.024932 638.033 
L 383.41806 398.378767 
L 386.811189 517.842133 
L 390.204317 383.215213 
L 393.597446 460.538456 
L 396.990575 504.79225 
L 400.383703 676.873449 
L 403.776832 431.73781 
L 407.16996 404.742324 
L 410.563089 451.80419 
L 413.956218 415.124056 
L 417.349346 468.68218 
L 420.742475 397.156553 
L 424.135604 397.694551 
L 427.528732 726.349091 
L 430.921861 391.635416 
L 434.314989 478.535601 
L 437.708118 409.504198 
L 441.101247 404.929445 
L 444.494375 505.388715 
L 447.887504 423.161983 
L 451.280632 508.677108 
L 454.673761 440.221638 
L 458.06689 397.266293 
L 461.460018 468.356131 
L 464.853147 494.900451 
L 468.246275 473.99359 
L 471.639404 435.161696 
L 475.032533 453.711587 
L 478.425661 454.57408 
L 481.81879 442.445747 
L 485.211919 420.637288 
L 488.605047 444.409926 
L 491.998176 390.149719 
L 495.391304 490.934444 
L 498.784433 637.628983 
L 502.177562 427.097363 
L 505.57069 461.762853 
L 508.963819 477.041412 
L 512.356947 448.087881 
L 515.750076 430.843507 
L 519.143205 341.606829 
L 522.536333 496.814309 
L 525.929462 699.374202 
L 529.32259 395.842277 
L 532.715719 587.775672 
L 536.108848 441.913069 
L 539.501976 472.674938 
L 542.895105 434.698231 
L 546.288234 421.605095 
L 549.681362 426.28165 
L 553.074491 382.370649 
L 556.467619 323.89865 
L 559.860748 385.344897 
L 563.253877 402.833983 
L 566.647005 405.267837 
L 570.040134 412.281256 
L 573.433262 462.424483 
L 580.21952 498.251802 
L 583.612648 515.639633 
L 587.005777 630.781061 
L 590.398905 446.014705 
L 593.792034 553.088006 
L 597.185163 444.761844 
L 600.578291 550.227111 
L 603.97142 419.381243 
L 607.364548 522.472276 
L 610.757677 516.941295 
L 614.150806 446.939615 
L 617.543934 540.920737 
L 620.937063 658.853277 
L 624.330192 537.63151 
L 627.72332 467.52893 
L 631.116449 533.28124 
L 634.509577 463.944213 
L 637.902706 405.518031 
L 641.295835 462.831294 
L 644.688963 525.765138 
L 648.082092 432.363645 
L 651.47522 530.852231 
L 654.868349 367.476716 
L 658.261478 455.929117 
L 661.654606 404.091119 
L 665.047735 527.515639 
L 668.440863 657.086367 
L 671.833992 429.073786 
L 675.227121 521.191154 
L 678.620249 694.213124 
L 682.013378 373.735627 
L 685.406507 545.433632 
L 688.799635 428.576772 
L 692.192764 368.430675 
L 695.585892 466.8209 
L 698.979021 535.781781 
L 702.37215 329.018841 
L 705.765278 379.196926 
L 709.158407 410.478175 
L 712.551535 364.620015 
L 715.944664 466.314331 
L 719.337793 642.54008 
L 722.730921 364.353859 
L 726.12405 473.075819 
L 729.517178 527.222122 
L 732.910307 524.089965 
L 736.303436 628.166332 
L 739.696564 453.207261 
L 743.089693 726.349091 
L 746.482822 543.786015 
L 749.87595 572.137596 
L 753.269079 567.62018 
L 756.662207 476.761971 
L 760.055336 726.349091 
L 763.448465 584.882667 
L 766.841593 642.944077 
L 770.234722 726.349091 
L 773.62785 717.715802 
L 777.020979 669.593104 
L 780.414108 716.618104 
L 783.807236 683.834734 
L 787.200365 714.178775 
L 790.593493 680.860269 
L 793.986622 655.366009 
L 797.379751 710.000721 
L 800.772879 718.504222 
L 804.166008 726.349091 
L 807.559137 717.617374 
L 810.952265 639.95992 
L 814.345394 724.053771 
L 817.738522 688.740231 
L 821.131651 700.25061 
L 824.52478 703.309621 
L 827.917908 721.857412 
L 831.311037 715.427078 
L 834.704165 726.349091 
L 838.097294 682.955681 
L 841.490423 725.941313 
L 844.883551 685.801736 
L 848.27668 725.705001 
L 851.669808 726.349091 
L 855.062937 726.349091 
L 858.456066 721.93341 
L 861.849194 726.349091 
L 865.242323 726.194324 
L 868.635452 681.554912 
L 872.02858 716.736438 
L 875.421709 725.191853 
L 878.814837 726.349091 
L 882.207966 715.819312 
L 885.601095 718.067196 
L 888.994223 726.349091 
L 892.387352 726.349091 
L 895.78048 726.069818 
L 899.173609 724.171242 
L 902.566738 671.691154 
L 905.959866 689.070308 
L 909.352995 663.068058 
L 912.746123 721.430289 
L 916.139252 717.147942 
L 919.532381 725.427699 
L 922.925509 680.693068 
L 926.318638 694.790568 
L 929.711766 722.83965 
L 933.104895 723.639463 
L 936.498024 719.349035 
L 939.891152 726.349091 
L 946.67741 726.349091 
L 950.070538 706.280282 
L 953.463667 726.245605 
L 956.856795 726.349091 
L 960.249924 704.222443 
L 963.643053 726.349091 
L 967.036181 726.349091 
L 970.42931 716.696394 
L 973.822438 723.45106 
L 977.215567 724.757653 
L 980.608696 714.811707 
L 984.001824 726.349091 
L 994.18121 726.349091 
L 997.574339 702.920805 
L 1000.967467 725.999687 
L 1004.360596 726.349091 
L 1007.753725 718.732264 
L 1011.146853 726.349091 
L 1014.539982 700.083144 
L 1017.93311 704.486932 
L 1021.326239 726.349091 
L 1024.719368 726.296541 
L 1028.112496 699.881602 
L 1031.505625 726.349091 
L 1034.898753 721.314661 
L 1038.291882 726.349091 
L 1041.685011 723.452989 
L 1045.078139 726.349091 
L 1058.650654 726.33187 
L 1062.043782 722.5006 
L 1065.436911 726.34908 
L 1068.83004 726.349091 
L 1072.223168 725.418678 
L 1075.616297 726.349091 
L 1079.009425 724.482143 
L 1082.402554 725.458222 
L 1085.795683 725.885533 
L 1089.188811 726.030055 
L 1092.58194 726.329644 
L 1095.975068 726.349091 
L 1099.368197 722.204719 
L 1102.761326 726.332054 
L 1106.154454 725.100463 
L 1109.547583 726.15845 
L 1112.940711 726.349091 
L 1126.513226 726.349091 
L 1133.299483 726.345605 
L 1136.692612 725.532304 
L 1140.08574 726.349091 
L 1143.478869 725.101722 
L 1146.871998 726.349091 
L 1150.265126 698.676691 
L 1153.658255 726.349091 
L 1163.837641 726.230903 
L 1167.230769 724.446637 
L 1170.623898 726.304153 
L 1174.017026 725.901565 
L 1177.410155 725.802105 
L 1180.803284 726.349091 
L 1194.375798 726.349091 
L 1197.768927 719.71791 
L 1201.162055 726.349091 
L 1204.555184 726.349091 
L 1207.948313 726.083397 
L 1211.341441 726.329211 
L 1214.73457 726.159445 
L 1218.127698 726.349091 
L 1221.520827 726.308834 
L 1224.913956 724.697351 
L 1228.307084 726.349091 
L 1231.700213 725.487443 
L 1235.093341 715.073653 
L 1238.48647 726.349091 
L 1245.272727 726.349091 
L 1245.272727 726.349091 
" style="fill:none;stroke:#ff7f0e;stroke-linecap:square;stroke-opacity:0.65;stroke-width:1.5;"/>
   </g>
   <g id="line2d_20">
    <path clip-path="url(#pc46e9ea1c3)" d="M 230.727273 195.535613 
L 234.120401 310.062057 
L 237.51353 307.040642 
L 240.906659 268.8973 
L 244.299787 278.598266 
L 247.692916 281.63587 
L 251.086044 250.409443 
L 254.479173 271.688461 
L 257.872302 287.51848 
L 261.26543 290.796093 
L 264.658559 271.304286 
L 268.051687 295.106746 
L 271.444816 274.257528 
L 274.837945 264.248773 
L 278.231073 280.147937 
L 281.624202 299.349364 
L 285.01733 273.459899 
L 288.410459 263.836937 
L 291.803588 295.051165 
L 295.196716 284.467121 
L 298.589845 272.295436 
L 301.982974 268.314744 
L 305.376102 281.735514 
L 308.769231 292.454527 
L 312.162359 310.787355 
L 315.555488 286.690356 
L 318.948617 284.449797 
L 322.341745 270.326938 
L 325.734874 275.563034 
L 329.128002 292.931904 
L 332.521131 277.724333 
L 335.91426 257.649316 
L 339.307388 279.106367 
L 342.700517 281.697658 
L 346.093645 300.877456 
L 349.486774 329.561595 
L 352.879903 336.904051 
L 356.273031 308.578432 
L 359.66616 300.143642 
L 363.059289 322.608349 
L 366.452417 299.407843 
L 369.845546 304.227375 
L 373.238674 320.220813 
L 376.631803 309.144455 
L 380.024932 341.472277 
L 383.41806 353.67109 
L 386.811189 312.086439 
L 390.204317 347.893713 
L 393.597446 336.665524 
L 396.990575 336.9664 
L 400.383703 379.828898 
L 403.776832 367.347014 
L 407.16996 391.431151 
L 410.563089 354.668601 
L 413.956218 357.552832 
L 417.349346 358.446207 
L 420.742475 389.07787 
L 424.135604 424.018413 
L 427.528732 373.05392 
L 430.921861 374.714051 
L 434.314989 380.679347 
L 437.708118 365.239647 
L 441.101247 343.461333 
L 444.494375 420.201163 
L 447.887504 384.526885 
L 451.280632 428.638326 
L 454.673761 397.106712 
L 458.06689 383.858151 
L 461.460018 391.219517 
L 464.853147 370.564161 
L 468.246275 358.294973 
L 471.639404 355.708088 
L 475.032533 381.960099 
L 478.425661 396.858498 
L 481.81879 381.016008 
L 485.211919 425.722557 
L 488.605047 353.556187 
L 491.998176 401.283337 
L 495.391304 385.822307 
L 498.784433 349.669852 
L 502.177562 438.139312 
L 505.57069 412.807688 
L 508.963819 369.661894 
L 512.356947 463.225225 
L 515.750076 349.774133 
L 519.143205 411.814273 
L 522.536333 354.405016 
L 525.929462 334.52274 
L 529.32259 355.056981 
L 532.715719 365.847791 
L 536.108848 351.870257 
L 539.501976 334.048116 
L 542.895105 390.57943 
L 546.288234 374.255198 
L 549.681362 351.99605 
L 553.074491 361.914253 
L 556.467619 354.767441 
L 559.860748 469.000564 
L 563.253877 433.908054 
L 566.647005 367.34839 
L 570.040134 473.546584 
L 573.433262 334.425528 
L 576.826391 364.844997 
L 580.21952 426.738575 
L 583.612648 436.99414 
L 587.005777 324.843079 
L 590.398905 392.436787 
L 593.792034 309.014412 
L 597.185163 452.974875 
L 600.578291 368.346369 
L 603.97142 492.965302 
L 607.364548 372.838681 
L 610.757677 351.385667 
L 614.150806 394.063735 
L 617.543934 360.387606 
L 620.937063 358.291664 
L 624.330192 451.090461 
L 627.72332 407.068626 
L 631.116449 428.656124 
L 634.509577 452.210479 
L 637.902706 469.133672 
L 641.295835 328.251174 
L 644.688963 336.938472 
L 648.082092 401.018258 
L 651.47522 406.837818 
L 654.868349 363.674505 
L 658.261478 345.329842 
L 661.654606 472.886553 
L 665.047735 360.281931 
L 668.440863 368.250621 
L 671.833992 383.276612 
L 675.227121 384.487726 
L 678.620249 386.903424 
L 682.013378 388.629783 
L 685.406507 440.61097 
L 688.799635 384.604125 
L 692.192764 364.441608 
L 695.585892 357.578621 
L 698.979021 411.717346 
L 702.37215 384.795696 
L 705.765278 344.634192 
L 709.158407 349.318781 
L 712.551535 331.185225 
L 715.944664 364.054565 
L 719.337793 364.053653 
L 722.730921 336.080786 
L 726.12405 402.948699 
L 729.517178 484.365109 
L 732.910307 365.052549 
L 736.303436 451.108907 
L 739.696564 386.849158 
L 743.089693 348.595578 
L 746.482822 514.155941 
L 749.87595 410.32382 
L 753.269079 421.852804 
L 756.662207 381.874306 
L 760.055336 403.942443 
L 763.448465 364.799689 
L 766.841593 386.575512 
L 770.234722 412.773162 
L 773.62785 414.552115 
L 777.020979 417.08761 
L 780.414108 385.028742 
L 783.807236 356.117639 
L 787.200365 504.698732 
L 790.593493 423.709131 
L 793.986622 372.563951 
L 797.379751 405.95778 
L 800.772879 426.495638 
L 804.166008 420.301351 
L 807.559137 522.233197 
L 810.952265 470.996625 
L 814.345394 351.143762 
L 817.738522 396.941099 
L 821.131651 447.530991 
L 824.52478 419.107368 
L 827.917908 412.116409 
L 831.311037 364.897846 
L 834.704165 388.019574 
L 838.097294 408.327219 
L 841.490423 347.167686 
L 844.883551 492.996332 
L 848.27668 424.265104 
L 851.669808 392.225696 
L 855.062937 399.831791 
L 858.456066 585.740901 
L 861.849194 384.023011 
L 865.242323 404.262427 
L 868.635452 384.160428 
L 872.02858 584.655492 
L 875.421709 394.662358 
L 878.814837 397.748545 
L 882.207966 314.366592 
L 885.601095 625.932895 
L 888.994223 377.156854 
L 892.387352 374.160579 
L 895.78048 376.924228 
L 899.173609 358.637829 
L 902.566738 358.233783 
L 905.959866 348.191656 
L 909.352995 403.287382 
L 912.746123 510.025568 
L 916.139252 412.082272 
L 919.532381 369.843705 
L 922.925509 409.661762 
L 926.318638 504.258966 
L 929.711766 488.220204 
L 933.104895 380.731106 
L 936.498024 392.963889 
L 939.891152 366.088797 
L 943.284281 450.767807 
L 946.67741 359.479931 
L 950.070538 368.483735 
L 953.463667 348.082392 
L 956.856795 342.272846 
L 960.249924 381.484915 
L 963.643053 330.807342 
L 967.036181 555.849398 
L 970.42931 396.013755 
L 973.822438 497.906052 
L 977.215567 374.745892 
L 980.608696 340.249984 
L 984.001824 360.852566 
L 987.394953 373.619393 
L 990.788081 363.507338 
L 994.18121 497.145522 
L 997.574339 371.774813 
L 1000.967467 508.909997 
L 1004.360596 352.429745 
L 1007.753725 441.798211 
L 1011.146853 566.267224 
L 1014.539982 450.33917 
L 1017.93311 360.026525 
L 1021.326239 418.600208 
L 1024.719368 503.006108 
L 1028.112496 434.839018 
L 1031.505625 441.496894 
L 1034.898753 486.682449 
L 1038.291882 444.488783 
L 1041.685011 557.645527 
L 1045.078139 377.607878 
L 1048.471268 514.466166 
L 1051.864396 366.774969 
L 1055.257525 438.392372 
L 1058.650654 366.825838 
L 1062.043782 375.4195 
L 1065.436911 361.703301 
L 1068.83004 338.401249 
L 1072.223168 379.202529 
L 1075.616297 343.853703 
L 1079.009425 372.047182 
L 1082.402554 378.956144 
L 1085.795683 677.69309 
L 1089.188811 501.790347 
L 1092.58194 368.581165 
L 1095.975068 367.146927 
L 1099.368197 584.24454 
L 1102.761326 417.168538 
L 1106.154454 370.08863 
L 1109.547583 369.144622 
L 1112.940711 374.290813 
L 1116.33384 417.493711 
L 1119.726969 527.439346 
L 1123.120097 356.661383 
L 1126.513226 302.972432 
L 1129.906355 331.640387 
L 1133.299483 371.318681 
L 1136.692612 483.013936 
L 1140.08574 364.665526 
L 1143.478869 413.055947 
L 1146.871998 688.0664 
L 1150.265126 393.644497 
L 1153.658255 374.332662 
L 1157.051383 375.498088 
L 1160.444512 622.278843 
L 1163.837641 368.513225 
L 1167.230769 387.960186 
L 1170.623898 423.936712 
L 1174.017026 397.79615 
L 1177.410155 468.945053 
L 1180.803284 513.298167 
L 1184.196412 361.624368 
L 1187.589541 660.312645 
L 1190.98267 442.410223 
L 1194.375798 606.622586 
L 1197.768927 506.399497 
L 1201.162055 589.79687 
L 1204.555184 315.83722 
L 1207.948313 564.986261 
L 1211.341441 502.983887 
L 1214.73457 362.864732 
L 1218.127698 408.635156 
L 1221.520827 386.208266 
L 1224.913956 435.316805 
L 1228.307084 385.183794 
L 1231.700213 305.964032 
L 1235.093341 495.602353 
L 1238.48647 427.43502 
L 1241.879599 378.727408 
L 1245.272727 400.119975 
L 1245.272727 400.119975 
" style="fill:none;stroke:#2ca02c;stroke-linecap:square;stroke-opacity:0.65;stroke-width:1.5;"/>
   </g>
   <g id="line2d_21">
    <path clip-path="url(#pc46e9ea1c3)" d="M 230.727273 199.682594 
L 234.120401 259.695081 
L 237.51353 279.671011 
L 240.906659 282.922877 
L 244.299787 291.029411 
L 247.692916 274.095718 
L 251.086044 285.297106 
L 254.479173 262.424717 
L 257.872302 289.661876 
L 261.26543 307.223061 
L 264.658559 286.341033 
L 268.051687 279.477205 
L 271.444816 267.7439 
L 274.837945 273.289157 
L 278.231073 296.464799 
L 281.624202 283.034191 
L 285.01733 306.023844 
L 288.410459 265.500499 
L 291.803588 301.258437 
L 295.196716 327.15792 
L 298.589845 354.852678 
L 301.982974 357.896643 
L 305.376102 415.680494 
L 308.769231 400.787187 
L 312.162359 361.039643 
L 315.555488 367.312525 
L 318.948617 470.874497 
L 322.341745 358.27992 
L 325.734874 470.635091 
L 329.128002 389.469304 
L 332.521131 364.780358 
L 335.91426 391.864287 
L 339.307388 413.111626 
L 342.700517 423.43175 
L 346.093645 390.172855 
L 349.486774 390.259303 
L 352.879903 426.600286 
L 356.273031 367.027158 
L 359.66616 362.882602 
L 363.059289 475.825005 
L 366.452417 405.142866 
L 369.845546 512.922788 
L 373.238674 440.649092 
L 376.631803 331.18853 
L 380.024932 386.553217 
L 383.41806 447.586626 
L 386.811189 376.06768 
L 390.204317 389.421572 
L 393.597446 359.40501 
L 396.990575 448.925806 
L 400.383703 455.21131 
L 403.776832 418.180501 
L 407.16996 392.590421 
L 410.563089 427.72083 
L 413.956218 386.873766 
L 417.349346 517.290754 
L 420.742475 410.527366 
L 424.135604 407.922537 
L 427.528732 412.470349 
L 430.921861 433.469444 
L 434.314989 442.548589 
L 437.708118 390.667055 
L 441.101247 370.569482 
L 444.494375 400.621329 
L 447.887504 388.572825 
L 451.280632 416.364098 
L 454.673761 406.005071 
L 458.06689 448.667218 
L 461.460018 459.42617 
L 464.853147 430.48324 
L 468.246275 498.274821 
L 471.639404 611.236084 
L 475.032533 396.259063 
L 478.425661 383.972468 
L 481.81879 560.138159 
L 485.211919 363.23395 
L 488.605047 363.948376 
L 491.998176 444.524116 
L 495.391304 410.662852 
L 498.784433 425.398532 
L 502.177562 431.760345 
L 505.57069 456.122577 
L 508.963819 372.708072 
L 512.356947 398.871073 
L 515.750076 594.280596 
L 519.143205 348.334363 
L 522.536333 369.698382 
L 525.929462 365.031342 
L 529.32259 383.220322 
L 532.715719 388.285407 
L 536.108848 402.003934 
L 539.501976 432.990359 
L 542.895105 367.302443 
L 546.288234 411.090797 
L 549.681362 391.964986 
L 553.074491 368.75128 
L 556.467619 428.436533 
L 559.860748 393.030757 
L 563.253877 366.904051 
L 566.647005 420.994393 
L 570.040134 408.559711 
L 573.433262 652.116225 
L 576.826391 388.547184 
L 580.21952 634.013867 
L 583.612648 616.878875 
L 587.005777 425.114695 
L 590.398905 359.72716 
L 593.792034 335.062721 
L 597.185163 474.602953 
L 600.578291 386.590443 
L 603.97142 567.963754 
L 607.364548 376.42606 
L 610.757677 367.21607 
L 614.150806 382.815429 
L 617.543934 405.384065 
L 620.937063 555.751057 
L 624.330192 365.144351 
L 627.72332 403.550618 
L 631.116449 544.463724 
L 634.509577 577.198518 
L 637.902706 415.502363 
L 641.295835 395.078435 
L 644.688963 379.556593 
L 648.082092 410.109353 
L 651.47522 433.983177 
L 654.868349 380.593841 
L 658.261478 381.985665 
L 661.654606 424.781665 
L 665.047735 528.951654 
L 668.440863 430.19587 
L 671.833992 452.3389 
L 675.227121 489.109665 
L 678.620249 433.533626 
L 682.013378 515.526684 
L 685.406507 478.862468 
L 688.799635 393.967395 
L 692.192764 540.466025 
L 695.585892 432.287496 
L 698.979021 335.521877 
L 702.37215 391.417187 
L 705.765278 501.318218 
L 709.158407 393.454087 
L 712.551535 427.66902 
L 715.944664 353.584338 
L 719.337793 380.295533 
L 722.730921 544.080304 
L 726.12405 538.508373 
L 729.517178 366.304273 
L 732.910307 355.902605 
L 736.303436 494.331437 
L 739.696564 396.429443 
L 743.089693 440.258421 
L 746.482822 398.612868 
L 749.87595 382.973697 
L 753.269079 553.684858 
L 756.662207 431.873976 
L 760.055336 440.890903 
L 763.448465 439.815104 
L 766.841593 379.589931 
L 770.234722 384.960172 
L 773.62785 419.807215 
L 777.020979 427.853823 
L 780.414108 458.688073 
L 783.807236 394.923948 
L 787.200365 387.226664 
L 790.593493 444.87923 
L 793.986622 477.062708 
L 797.379751 402.361216 
L 800.772879 386.174112 
L 804.166008 412.365305 
L 807.559137 376.261653 
L 810.952265 428.902058 
L 814.345394 390.402942 
L 817.738522 546.071863 
L 821.131651 449.661461 
L 824.52478 432.644746 
L 827.917908 423.312782 
L 831.311037 466.524263 
L 834.704165 424.186171 
L 838.097294 380.248082 
L 841.490423 408.230784 
L 844.883551 632.813121 
L 848.27668 405.659548 
L 851.669808 435.553955 
L 855.062937 359.752632 
L 858.456066 361.829064 
L 861.849194 411.589885 
L 865.242323 457.439943 
L 868.635452 403.26514 
L 872.02858 397.909141 
L 875.421709 393.415628 
L 878.814837 407.601533 
L 882.207966 410.266316 
L 885.601095 562.02742 
L 888.994223 384.631498 
L 892.387352 398.4972 
L 895.78048 522.990794 
L 899.173609 372.53289 
L 902.566738 365.802275 
L 905.959866 432.891081 
L 909.352995 628.843819 
L 912.746123 573.524806 
L 916.139252 374.83397 
L 919.532381 369.245611 
L 922.925509 419.655694 
L 926.318638 493.551016 
L 929.711766 408.361801 
L 933.104895 585.753789 
L 936.498024 406.277054 
L 939.891152 389.897217 
L 943.284281 400.9912 
L 946.67741 481.4409 
L 950.070538 411.026969 
L 953.463667 411.356999 
L 956.856795 395.75015 
L 960.249924 641.442197 
L 963.643053 326.911996 
L 967.036181 382.491594 
L 970.42931 377.596605 
L 973.822438 388.511215 
L 977.215567 435.63746 
L 980.608696 422.358736 
L 984.001824 359.461864 
L 987.394953 486.361629 
L 990.788081 362.338088 
L 994.18121 368.648591 
L 997.574339 382.236041 
L 1000.967467 557.640543 
L 1004.360596 363.284923 
L 1007.753725 421.849596 
L 1011.146853 359.134263 
L 1014.539982 384.84556 
L 1017.93311 352.153328 
L 1021.326239 610.678902 
L 1024.719368 416.597663 
L 1028.112496 434.878633 
L 1031.505625 465.737939 
L 1034.898753 381.936497 
L 1038.291882 388.898712 
L 1041.685011 458.08607 
L 1045.078139 557.777073 
L 1048.471268 580.832756 
L 1051.864396 395.979031 
L 1055.257525 389.446242 
L 1058.650654 367.434815 
L 1062.043782 427.182049 
L 1065.436911 477.454283 
L 1068.83004 635.40372 
L 1072.223168 603.087592 
L 1075.616297 444.059214 
L 1079.009425 396.155935 
L 1082.402554 457.599255 
L 1085.795683 726.349091 
L 1089.188811 410.101208 
L 1092.58194 471.600552 
L 1095.975068 386.544467 
L 1099.368197 520.713183 
L 1102.761326 437.457994 
L 1106.154454 395.97109 
L 1109.547583 592.750994 
L 1112.940711 426.107325 
L 1116.33384 387.578248 
L 1119.726969 373.435855 
L 1123.120097 539.706596 
L 1126.513226 415.3169 
L 1129.906355 585.018726 
L 1133.299483 462.208149 
L 1136.692612 543.075347 
L 1140.08574 726.349091 
L 1143.478869 507.202544 
L 1146.871998 461.257065 
L 1150.265126 517.958173 
L 1153.658255 540.766676 
L 1157.051383 549.258185 
L 1160.444512 468.041388 
L 1163.837641 726.349091 
L 1167.230769 424.904974 
L 1170.623898 535.470572 
L 1174.017026 563.05266 
L 1177.410155 403.88023 
L 1180.803284 400.641986 
L 1184.196412 531.323915 
L 1187.589541 507.451932 
L 1190.98267 543.894965 
L 1194.375798 522.068651 
L 1197.768927 529.505287 
L 1201.162055 508.865872 
L 1204.555184 578.512473 
L 1207.948313 449.640327 
L 1211.341441 558.000868 
L 1214.73457 481.044254 
L 1218.127698 467.083056 
L 1221.520827 613.866863 
L 1224.913956 536.50566 
L 1228.307084 406.44588 
L 1231.700213 726.349091 
L 1235.093341 454.787126 
L 1238.48647 726.349091 
L 1245.272727 726.349091 
L 1245.272727 726.349091 
" style="fill:none;stroke:#d62728;stroke-linecap:square;stroke-opacity:0.65;stroke-width:1.5;"/>
   </g>
   <g id="line2d_22">
    <path clip-path="url(#pc46e9ea1c3)" d="M 230.727273 143.007196 
L 234.120401 291.991351 
L 237.51353 300.339989 
L 240.906659 261.533193 
L 244.299787 276.814751 
L 247.692916 302.318944 
L 251.086044 280.334653 
L 254.479173 256.180058 
L 257.872302 289.21836 
L 261.26543 295.010854 
L 264.658559 285.451024 
L 268.051687 303.665835 
L 271.444816 289.188874 
L 274.837945 287.152771 
L 278.231073 275.782381 
L 281.624202 295.159812 
L 285.01733 276.063458 
L 288.410459 279.315405 
L 291.803588 298.187235 
L 295.196716 283.797862 
L 298.589845 284.530963 
L 301.982974 281.931811 
L 305.376102 306.471149 
L 308.769231 286.88896 
L 312.162359 291.189979 
L 315.555488 320.379251 
L 318.948617 296.166684 
L 322.341745 313.92558 
L 325.734874 332.336135 
L 329.128002 342.772657 
L 332.521131 334.853105 
L 335.91426 341.881552 
L 339.307388 355.184491 
L 342.700517 324.583214 
L 346.093645 368.689401 
L 349.486774 354.922032 
L 352.879903 322.667328 
L 356.273031 536.731858 
L 359.66616 351.232967 
L 363.059289 335.956411 
L 366.452417 371.646347 
L 369.845546 357.539942 
L 373.238674 496.557751 
L 376.631803 349.835031 
L 380.024932 431.350006 
L 383.41806 340.123284 
L 386.811189 488.073864 
L 390.204317 404.650889 
L 393.597446 407.046065 
L 396.990575 406.236649 
L 400.383703 364.83192 
L 403.776832 407.620574 
L 407.16996 315.109251 
L 410.563089 361.528617 
L 413.956218 439.167759 
L 417.349346 390.819261 
L 420.742475 726.139662 
L 424.135604 394.503114 
L 427.528732 388.255534 
L 430.921861 396.077904 
L 434.314989 372.490672 
L 437.708118 498.437758 
L 441.101247 502.21172 
L 444.494375 546.863086 
L 447.887504 462.823788 
L 451.280632 471.105573 
L 454.673761 426.240156 
L 458.06689 432.487523 
L 461.460018 450.41844 
L 464.853147 461.671975 
L 468.246275 455.440603 
L 471.639404 407.29991 
L 475.032533 399.245967 
L 478.425661 707.46547 
L 481.81879 514.285135 
L 485.211919 414.044732 
L 488.605047 422.662268 
L 491.998176 406.92888 
L 495.391304 395.475794 
L 498.784433 452.456973 
L 502.177562 438.601834 
L 505.57069 437.32651 
L 508.963819 503.1793 
L 512.356947 437.926749 
L 515.750076 418.094024 
L 519.143205 454.073054 
L 522.536333 435.945678 
L 525.929462 507.646359 
L 529.32259 497.032329 
L 532.715719 379.921035 
L 536.108848 447.046787 
L 539.501976 441.346126 
L 542.895105 453.105634 
L 546.288234 466.013482 
L 549.681362 468.579007 
L 553.074491 461.732503 
L 556.467619 400.953277 
L 559.860748 415.689498 
L 563.253877 608.25988 
L 566.647005 434.945755 
L 570.040134 583.313985 
L 573.433262 371.893331 
L 576.826391 726.349091 
L 580.21952 578.82238 
L 583.612648 392.364114 
L 587.005777 457.942755 
L 590.398905 435.495922 
L 593.792034 562.879923 
L 597.185163 446.550486 
L 600.578291 434.222418 
L 603.97142 373.065614 
L 607.364548 555.434873 
L 610.757677 414.965527 
L 614.150806 458.752636 
L 617.543934 540.89145 
L 620.937063 492.83289 
L 624.330192 423.203545 
L 627.72332 471.179877 
L 631.116449 498.171051 
L 634.509577 499.005143 
L 637.902706 400.620421 
L 641.295835 407.343502 
L 644.688963 511.936382 
L 648.082092 430.87692 
L 651.47522 493.551052 
L 654.868349 515.711641 
L 658.261478 401.952868 
L 661.654606 405.530792 
L 665.047735 360.247455 
L 668.440863 412.484441 
L 671.833992 498.445386 
L 675.227121 470.320232 
L 678.620249 414.307792 
L 682.013378 497.261213 
L 685.406507 459.731112 
L 688.799635 384.648671 
L 692.192764 508.982052 
L 695.585892 406.730322 
L 698.979021 451.19816 
L 702.37215 415.820964 
L 705.765278 726.349091 
L 709.158407 448.81702 
L 712.551535 377.276824 
L 715.944664 424.94944 
L 719.337793 463.804396 
L 722.730921 581.793104 
L 726.12405 481.196805 
L 729.517178 442.477774 
L 732.910307 430.631918 
L 736.303436 426.881361 
L 739.696564 525.72032 
L 743.089693 483.566917 
L 746.482822 511.159791 
L 749.87595 463.953257 
L 753.269079 614.655044 
L 756.662207 516.431602 
L 760.055336 696.47033 
L 763.448465 424.037664 
L 766.841593 432.188081 
L 770.234722 420.735882 
L 773.62785 478.878661 
L 777.020979 471.546968 
L 780.414108 401.026054 
L 783.807236 361.012027 
L 787.200365 434.362069 
L 790.593493 541.483359 
L 793.986622 434.303446 
L 797.379751 413.097056 
L 800.772879 405.76512 
L 804.166008 476.102234 
L 807.559137 450.253199 
L 810.952265 474.991475 
L 814.345394 602.461864 
L 817.738522 445.295842 
L 821.131651 418.29959 
L 824.52478 439.371395 
L 827.917908 443.045007 
L 831.311037 503.01742 
L 834.704165 395.616081 
L 838.097294 447.568343 
L 841.490423 484.091016 
L 844.883551 437.17917 
L 848.27668 726.349091 
L 851.669808 497.571878 
L 855.062937 455.64195 
L 858.456066 409.163063 
L 861.849194 509.645914 
L 865.242323 465.816402 
L 868.635452 513.344443 
L 872.02858 498.471232 
L 875.421709 416.632302 
L 878.814837 582.581308 
L 882.207966 467.397783 
L 885.601095 385.151933 
L 888.994223 554.07076 
L 892.387352 428.659543 
L 895.78048 487.907075 
L 899.173609 518.287983 
L 902.566738 495.338029 
L 905.959866 406.672276 
L 909.352995 605.684444 
L 912.746123 630.862679 
L 916.139252 485.873079 
L 919.532381 585.437896 
L 922.925509 417.150392 
L 926.318638 413.466939 
L 929.711766 422.322788 
L 933.104895 432.423141 
L 936.498024 425.314265 
L 939.891152 426.104272 
L 943.284281 464.22688 
L 946.67741 393.737994 
L 950.070538 455.425878 
L 953.463667 408.408858 
L 956.856795 479.524015 
L 960.249924 393.807906 
L 963.643053 425.818559 
L 967.036181 431.343138 
L 970.42931 532.712825 
L 973.822438 413.53948 
L 977.215567 399.477447 
L 980.608696 499.859141 
L 984.001824 454.146464 
L 990.788081 537.428648 
L 994.18121 484.10876 
L 997.574339 458.323354 
L 1000.967467 492.298604 
L 1004.360596 406.445397 
L 1007.753725 456.233004 
L 1011.146853 632.265709 
L 1014.539982 491.624846 
L 1017.93311 456.829349 
L 1021.326239 491.633091 
L 1024.719368 494.627078 
L 1028.112496 419.658055 
L 1031.505625 457.074975 
L 1034.898753 379.099175 
L 1038.291882 460.842556 
L 1041.685011 481.710122 
L 1045.078139 389.953749 
L 1048.471268 380.611618 
L 1051.864396 514.899074 
L 1055.257525 420.140306 
L 1058.650654 468.948603 
L 1062.043782 478.755148 
L 1065.436911 412.989674 
L 1068.83004 453.214359 
L 1072.223168 467.072823 
L 1075.616297 467.223275 
L 1079.009425 521.791194 
L 1082.402554 416.583534 
L 1085.795683 466.747857 
L 1089.188811 456.193012 
L 1092.58194 459.073887 
L 1095.975068 683.641398 
L 1099.368197 477.973734 
L 1102.761326 355.364115 
L 1106.154454 541.155695 
L 1109.547583 411.143405 
L 1112.940711 544.861361 
L 1116.33384 455.071309 
L 1119.726969 446.194288 
L 1123.120097 425.270028 
L 1126.513226 478.252909 
L 1129.906355 726.349091 
L 1133.299483 574.956607 
L 1136.692612 495.077479 
L 1140.08574 397.433519 
L 1143.478869 691.327617 
L 1146.871998 474.515984 
L 1150.265126 483.469693 
L 1153.658255 451.875143 
L 1157.051383 441.217047 
L 1160.444512 433.981544 
L 1163.837641 509.777089 
L 1167.230769 382.339618 
L 1170.623898 556.265107 
L 1174.017026 539.877927 
L 1177.410155 503.476719 
L 1180.803284 726.154743 
L 1184.196412 467.473901 
L 1187.589541 726.349091 
L 1190.98267 497.146418 
L 1194.375798 501.297125 
L 1197.768927 565.752506 
L 1201.162055 652.276909 
L 1204.555184 575.110347 
L 1207.948313 448.334486 
L 1211.341441 726.349091 
L 1214.73457 723.092453 
L 1218.127698 694.567423 
L 1221.520827 386.28037 
L 1224.913956 419.327573 
L 1228.307084 573.964265 
L 1231.700213 403.325865 
L 1235.093341 459.651931 
L 1238.48647 440.481719 
L 1241.879599 538.370221 
L 1245.272727 556.322899 
L 1245.272727 556.322899 
" style="fill:none;stroke:#9467bd;stroke-linecap:square;stroke-opacity:0.65;stroke-width:1.5;"/>
   </g>
   <g id="line2d_23">
    <path clip-path="url(#pc46e9ea1c3)" d="M 230.727273 164.847959 
L 234.120401 289.121434 
L 237.51353 286.238762 
L 240.906659 273.007148 
L 244.299787 288.865716 
L 247.692916 285.09173 
L 251.086044 273.999216 
L 254.479173 266.325032 
L 257.872302 293.090863 
L 261.26543 289.132967 
L 264.658559 276.167108 
L 268.051687 294.93669 
L 271.444816 295.496467 
L 274.837945 286.989553 
L 278.231073 353.862912 
L 281.624202 301.302771 
L 285.01733 325.441701 
L 288.410459 300.153616 
L 291.803588 309.667274 
L 295.196716 315.633067 
L 298.589845 323.379006 
L 301.982974 324.820255 
L 305.376102 355.648743 
L 308.769231 328.293365 
L 312.162359 323.736241 
L 315.555488 328.225273 
L 318.948617 353.478247 
L 322.341745 343.476398 
L 325.734874 359.238004 
L 329.128002 368.720299 
L 332.521131 344.212275 
L 335.91426 357.638737 
L 339.307388 420.910739 
L 342.700517 369.076282 
L 346.093645 392.891939 
L 349.486774 397.163561 
L 352.879903 378.340451 
L 356.273031 441.011529 
L 359.66616 383.899842 
L 363.059289 393.73106 
L 366.452417 479.638736 
L 369.845546 430.569467 
L 373.238674 425.891013 
L 376.631803 367.345974 
L 380.024932 485.662418 
L 383.41806 395.427891 
L 386.811189 453.949466 
L 390.204317 385.800867 
L 393.597446 400.839702 
L 396.990575 430.749223 
L 400.383703 511.011003 
L 403.776832 415.421025 
L 407.16996 379.462226 
L 410.563089 420.272064 
L 413.956218 403.115792 
L 417.349346 430.244566 
L 420.742475 458.772644 
L 424.135604 401.803538 
L 427.528732 540.400119 
L 430.921861 393.15679 
L 434.314989 432.497986 
L 437.708118 405.215558 
L 441.101247 408.662217 
L 444.494375 494.186122 
L 447.887504 410.695286 
L 451.280632 472.399268 
L 454.673761 413.512231 
L 458.06689 411.344152 
L 461.460018 460.540113 
L 464.853147 446.898374 
L 468.246275 453.29446 
L 471.639404 441.468762 
L 475.032533 426.191062 
L 478.425661 480.972376 
L 481.81879 474.243301 
L 485.211919 410.806229 
L 488.605047 412.934094 
L 491.998176 413.050062 
L 495.391304 455.273615 
L 498.784433 501.642392 
L 502.177562 434.277746 
L 505.57069 467.274628 
L 508.963819 431.90429 
L 512.356947 437.406216 
L 515.750076 439.06313 
L 519.143205 396.529524 
L 522.536333 420.426457 
L 525.929462 516.655678 
L 529.32259 412.162819 
L 532.715719 465.104555 
L 536.108848 428.196005 
L 539.501976 436.732132 
L 542.895105 426.433939 
L 546.288234 418.616667 
L 549.681362 413.843401 
L 553.074491 386.903081 
L 556.467619 383.33977 
L 559.860748 435.529963 
L 563.253877 449.145074 
L 566.647005 415.480871 
L 570.040134 461.041342 
L 573.433262 449.407437 
L 576.826391 478.871008 
L 580.21952 523.290924 
L 583.612648 488.546706 
L 587.005777 494.144344 
L 590.398905 403.437922 
L 593.792034 458.670642 
L 597.185163 447.455445 
L 600.578291 459.802902 
L 603.97142 446.67174 
L 607.364548 460.212142 
L 610.757677 418.157835 
L 614.150806 427.053894 
L 617.543934 465.466214 
L 620.937063 559.770432 
L 624.330192 465.998595 
L 627.72332 460.630867 
L 631.116449 538.69185 
L 634.509577 483.793908 
L 637.902706 427.001378 
L 641.295835 426.197971 
L 644.688963 451.732746 
L 648.082092 437.379344 
L 651.47522 484.272117 
L 654.868349 421.626636 
L 658.261478 421.401099 
L 661.654606 431.531243 
L 665.047735 465.208985 
L 668.440863 517.289913 
L 671.833992 442.993814 
L 675.227121 471.389977 
L 678.620249 528.005391 
L 682.013378 440.631083 
L 685.406507 493.542397 
L 688.799635 424.70676 
L 692.192764 460.726451 
L 695.585892 436.113492 
L 698.979021 450.118435 
L 702.37215 403.676112 
L 705.765278 503.614782 
L 709.158407 430.244775 
L 712.551535 446.4069 
L 715.944664 421.616577 
L 719.337793 493.136635 
L 722.730921 447.081585 
L 726.12405 464.02647 
L 729.517178 473.053874 
L 732.910307 459.889784 
L 736.303436 544.506415 
L 739.696564 448.50571 
L 743.089693 546.192372 
L 746.482822 510.303999 
L 749.87595 493.726398 
L 753.269079 557.397082 
L 756.662207 452.52862 
L 760.055336 612.024084 
L 763.448465 471.271583 
L 766.841593 477.386067 
L 770.234722 534.022012 
L 773.62785 555.592133 
L 777.020979 504.405658 
L 780.414108 517.799536 
L 783.807236 484.695569 
L 787.200365 530.814075 
L 790.593493 519.147436 
L 793.986622 502.289185 
L 797.379751 480.553308 
L 800.772879 491.741014 
L 804.166008 551.96008 
L 807.559137 514.179818 
L 810.952265 495.037127 
L 814.345394 529.191135 
L 817.738522 522.342451 
L 821.131651 501.625742 
L 824.52478 506.36522 
L 827.917908 533.462091 
L 831.311037 511.820991 
L 834.704165 532.407858 
L 838.097294 482.813494 
L 841.490423 528.701899 
L 844.883551 551.425702 
L 848.27668 607.218294 
L 851.669808 538.942038 
L 855.062937 510.930064 
L 858.456066 529.745471 
L 861.849194 551.816581 
L 865.242323 555.989022 
L 868.635452 490.082838 
L 872.02858 573.925476 
L 875.421709 480.347196 
L 878.814837 564.877086 
L 882.207966 488.130894 
L 885.601095 602.620302 
L 888.994223 545.494913 
L 892.387352 530.886098 
L 895.78048 523.447034 
L 899.173609 539.388574 
L 902.566738 473.482764 
L 905.959866 500.985598 
L 909.352995 556.81179 
L 912.746123 598.260858 
L 916.139252 523.27399 
L 919.532381 519.814087 
L 922.925509 483.554516 
L 926.318638 532.283326 
L 929.711766 503.63349 
L 933.104895 533.559536 
L 936.498024 539.956317 
L 939.891152 513.622608 
L 943.284281 538.941824 
L 946.67741 517.543551 
L 950.070538 489.529237 
L 953.463667 475.652176 
L 956.856795 537.944202 
L 960.249924 522.245375 
L 963.643053 451.080498 
L 967.036181 554.538724 
L 970.42931 521.540061 
L 973.822438 506.483183 
L 977.215567 514.206176 
L 980.608696 501.825502 
L 984.001824 529.443894 
L 987.394953 539.29185 
L 990.788081 542.658383 
L 994.18121 519.181512 
L 997.574339 466.227873 
L 1000.967467 571.215235 
L 1004.360596 462.804003 
L 1007.753725 497.879313 
L 1011.146853 581.928759 
L 1014.539982 499.846278 
L 1017.93311 470.468883 
L 1021.326239 537.318446 
L 1024.719368 556.721303 
L 1028.112496 489.624513 
L 1031.505625 523.078021 
L 1034.898753 525.893319 
L 1038.291882 549.576649 
L 1041.685011 541.287918 
L 1045.078139 515.495827 
L 1048.471268 579.966513 
L 1051.864396 546.581398 
L 1055.257525 522.862681 
L 1058.650654 524.555572 
L 1062.043782 502.768279 
L 1065.436911 489.815066 
L 1068.83004 561.938407 
L 1072.223168 539.675072 
L 1075.616297 495.178908 
L 1079.009425 543.825729 
L 1082.402554 538.564422 
L 1085.795683 623.0004 
L 1089.188811 523.358461 
L 1092.58194 545.513303 
L 1095.975068 528.408119 
L 1099.368197 568.066889 
L 1102.761326 502.880947 
L 1106.154454 512.761887 
L 1109.547583 543.743618 
L 1112.940711 557.943685 
L 1116.33384 480.35315 
L 1119.726969 514.770868 
L 1123.120097 504.323545 
L 1126.513226 507.234666 
L 1129.906355 581.744745 
L 1133.299483 554.890326 
L 1136.692612 551.228754 
L 1140.08574 569.342387 
L 1143.478869 557.534481 
L 1146.871998 613.359791 
L 1150.265126 524.626031 
L 1153.658255 525.933924 
L 1157.051383 514.460509 
L 1160.444512 594.864368 
L 1163.837641 567.207456 
L 1167.230769 493.336443 
L 1170.623898 543.147981 
L 1174.017026 578.517075 
L 1177.410155 514.826575 
L 1180.803284 559.259053 
L 1184.196412 544.035363 
L 1187.589541 654.353162 
L 1190.98267 573.820924 
L 1194.375798 576.33799 
L 1197.768927 582.815607 
L 1201.162055 603.767409 
L 1204.555184 495.010611 
L 1207.948313 499.608652 
L 1211.341441 562.987923 
L 1214.73457 519.701734 
L 1218.127698 510.317049 
L 1221.520827 567.802685 
L 1224.913956 568.439296 
L 1228.307084 563.901676 
L 1231.700213 579.019476 
L 1235.093341 570.292831 
L 1238.48647 616.334547 
L 1241.879599 622.627236 
L 1245.272727 627.098029 
L 1245.272727 627.098029 
" style="fill:none;stroke:#000000;stroke-linecap:square;stroke-width:1.5;"/>
   </g>
   <g id="patch_3">
    <path d="M 180 756 
L 180 103.68 
" style="fill:none;stroke:#000000;stroke-linecap:square;stroke-linejoin:miter;stroke-width:0.8;"/>
   </g>
   <g id="patch_4">
    <path d="M 1296 756 
L 1296 103.68 
" style="fill:none;stroke:#000000;stroke-linecap:square;stroke-linejoin:miter;stroke-width:0.8;"/>
   </g>
   <g id="patch_5">
    <path d="M 180 756 
L 1296 756 
" style="fill:none;stroke:#000000;stroke-linecap:square;stroke-linejoin:miter;stroke-width:0.8;"/>
   </g>
   <g id="patch_6">
    <path d="M 180 103.68 
L 1296 103.68 
" style="fill:none;stroke:#000000;stroke-linecap:square;stroke-linejoin:miter;stroke-width:0.8;"/>
   </g>
   <g id="text_20">
    <!-- Matrix Copy Task learning curves -->
    <g transform="translate(638.894063 97.68)scale(0.12 -0.12)">
     <defs>
      <path d="M 9.8125 72.90625 
L 24.515625 72.90625 
L 43.109375 23.296875 
L 61.8125 72.90625 
L 76.515625 72.90625 
L 76.515625 0 
L 66.890625 0 
L 66.890625 64.015625 
L 48.09375 14.015625 
L 38.1875 14.015625 
L 19.390625 64.015625 
L 19.390625 0 
L 9.8125 0 
z
" id="DejaVuSans-77"/>
      <path d="M 54.890625 54.6875 
L 35.109375 28.078125 
L 55.90625 0 
L 45.3125 0 
L 29.390625 21.484375 
L 13.484375 0 
L 2.875 0 
L 24.125 28.609375 
L 4.6875 54.6875 
L 15.28125 54.6875 
L 29.78125 35.203125 
L 44.28125 54.6875 
z
" id="DejaVuSans-120"/>
      <path d="M 64.40625 67.28125 
L 64.40625 56.890625 
Q 59.421875 61.53125 53.78125 63.8125 
Q 48.140625 66.109375 41.796875 66.109375 
Q 29.296875 66.109375 22.65625 58.46875 
Q 16.015625 50.828125 16.015625 36.375 
Q 16.015625 21.96875 22.65625 14.328125 
Q 29.296875 6.6875 41.796875 6.6875 
Q 48.140625 6.6875 53.78125 8.984375 
Q 59.421875 11.28125 64.40625 15.921875 
L 64.40625 5.609375 
Q 59.234375 2.09375 53.4375 0.328125 
Q 47.65625 -1.421875 41.21875 -1.421875 
Q 24.65625 -1.421875 15.125 8.703125 
Q 5.609375 18.84375 5.609375 36.375 
Q 5.609375 53.953125 15.125 64.078125 
Q 24.65625 74.21875 41.21875 74.21875 
Q 47.75 74.21875 53.53125 72.484375 
Q 59.328125 70.75 64.40625 67.28125 
z
" id="DejaVuSans-67"/>
      <path d="M 32.171875 -5.078125 
Q 28.375 -14.84375 24.75 -17.8125 
Q 21.140625 -20.796875 15.09375 -20.796875 
L 7.90625 -20.796875 
L 7.90625 -13.28125 
L 13.1875 -13.28125 
Q 16.890625 -13.28125 18.9375 -11.515625 
Q 21 -9.765625 23.484375 -3.21875 
L 25.09375 0.875 
L 2.984375 54.6875 
L 12.5 54.6875 
L 29.59375 11.921875 
L 46.6875 54.6875 
L 56.203125 54.6875 
z
" id="DejaVuSans-121"/>
      <path d="M -0.296875 72.90625 
L 61.375 72.90625 
L 61.375 64.59375 
L 35.5 64.59375 
L 35.5 0 
L 25.59375 0 
L 25.59375 64.59375 
L -0.296875 64.59375 
z
" id="DejaVuSans-84"/>
      <path d="M 9.078125 75.984375 
L 18.109375 75.984375 
L 18.109375 31.109375 
L 44.921875 54.6875 
L 56.390625 54.6875 
L 27.390625 29.109375 
L 57.625 0 
L 45.90625 0 
L 18.109375 26.703125 
L 18.109375 0 
L 9.078125 0 
z
" id="DejaVuSans-107"/>
      <path d="M 9.421875 75.984375 
L 18.40625 75.984375 
L 18.40625 0 
L 9.421875 0 
z
" id="DejaVuSans-108"/>
      <path d="M 45.40625 27.984375 
Q 45.40625 37.75 41.375 43.109375 
Q 37.359375 48.484375 30.078125 48.484375 
Q 22.859375 48.484375 18.828125 43.109375 
Q 14.796875 37.75 14.796875 27.984375 
Q 14.796875 18.265625 18.828125 12.890625 
Q 22.859375 7.515625 30.078125 7.515625 
Q 37.359375 7.515625 41.375 12.890625 
Q 45.40625 18.265625 45.40625 27.984375 
z
M 54.390625 6.78125 
Q 54.390625 -7.171875 48.1875 -13.984375 
Q 42 -20.796875 29.203125 -20.796875 
Q 24.46875 -20.796875 20.265625 -20.09375 
Q 16.0625 -19.390625 12.109375 -17.921875 
L 12.109375 -9.1875 
Q 16.0625 -11.328125 19.921875 -12.34375 
Q 23.78125 -13.375 27.78125 -13.375 
Q 36.625 -13.375 41.015625 -8.765625 
Q 45.40625 -4.15625 45.40625 5.171875 
L 45.40625 9.625 
Q 42.625 4.78125 38.28125 2.390625 
Q 33.9375 0 27.875 0 
Q 17.828125 0 11.671875 7.65625 
Q 5.515625 15.328125 5.515625 27.984375 
Q 5.515625 40.671875 11.671875 48.328125 
Q 17.828125 56 27.875 56 
Q 33.9375 56 38.28125 53.609375 
Q 42.625 51.21875 45.40625 46.390625 
L 45.40625 54.6875 
L 54.390625 54.6875 
z
" id="DejaVuSans-103"/>
      <path d="M 2.984375 54.6875 
L 12.5 54.6875 
L 29.59375 8.796875 
L 46.6875 54.6875 
L 56.203125 54.6875 
L 35.6875 0 
L 23.484375 0 
z
" id="DejaVuSans-118"/>
     </defs>
     <use xlink:href="#DejaVuSans-77"/>
     <use x="86.279297" xlink:href="#DejaVuSans-97"/>
     <use x="147.558594" xlink:href="#DejaVuSans-116"/>
     <use x="186.767578" xlink:href="#DejaVuSans-114"/>
     <use x="227.880859" xlink:href="#DejaVuSans-105"/>
     <use x="255.664062" xlink:href="#DejaVuSans-120"/>
     <use x="314.84375" xlink:href="#DejaVuSans-32"/>
     <use x="346.630859" xlink:href="#DejaVuSans-67"/>
     <use x="416.455078" xlink:href="#DejaVuSans-111"/>
     <use x="477.636719" xlink:href="#DejaVuSans-112"/>
     <use x="541.113281" xlink:href="#DejaVuSans-121"/>
     <use x="600.292969" xlink:href="#DejaVuSans-32"/>
     <use x="632.080078" xlink:href="#DejaVuSans-84"/>
     <use x="676.664062" xlink:href="#DejaVuSans-97"/>
     <use x="737.943359" xlink:href="#DejaVuSans-115"/>
     <use x="790.042969" xlink:href="#DejaVuSans-107"/>
     <use x="847.953125" xlink:href="#DejaVuSans-32"/>
     <use x="879.740234" xlink:href="#DejaVuSans-108"/>
     <use x="907.523438" xlink:href="#DejaVuSans-101"/>
     <use x="969.046875" xlink:href="#DejaVuSans-97"/>
     <use x="1030.326172" xlink:href="#DejaVuSans-114"/>
     <use x="1069.689453" xlink:href="#DejaVuSans-110"/>
     <use x="1133.068359" xlink:href="#DejaVuSans-105"/>
     <use x="1160.851562" xlink:href="#DejaVuSans-110"/>
     <use x="1224.230469" xlink:href="#DejaVuSans-103"/>
     <use x="1287.707031" xlink:href="#DejaVuSans-32"/>
     <use x="1319.494141" xlink:href="#DejaVuSans-99"/>
     <use x="1374.474609" xlink:href="#DejaVuSans-117"/>
     <use x="1437.853516" xlink:href="#DejaVuSans-114"/>
     <use x="1478.966797" xlink:href="#DejaVuSans-118"/>
     <use x="1538.146484" xlink:href="#DejaVuSans-101"/>
     <use x="1599.669922" xlink:href="#DejaVuSans-115"/>
    </g>
   </g>
   <g id="legend_1">
    <g id="patch_7">
     <path d="M 1196.821875 199.74875 
L 1289 199.74875 
Q 1291 199.74875 1291 197.74875 
L 1291 110.68 
Q 1291 108.68 1289 108.68 
L 1196.821875 108.68 
Q 1194.821875 108.68 1194.821875 110.68 
L 1194.821875 197.74875 
Q 1194.821875 199.74875 1196.821875 199.74875 
z
" style="fill:#ffffff;opacity:0.8;stroke:#cccccc;stroke-linejoin:miter;"/>
    </g>
    <g id="line2d_24">
     <path d="M 1198.821875 116.778437 
L 1218.821875 116.778437 
" style="fill:none;stroke:#1f77b4;stroke-linecap:square;stroke-opacity:0.65;stroke-width:1.5;"/>
    </g>
    <g id="line2d_25"/>
    <g id="text_21">
     <!-- Seed : 3452 -->
     <g transform="translate(1226.821875 120.278437)scale(0.1 -0.1)">
      <defs>
       <path d="M 45.40625 46.390625 
L 45.40625 75.984375 
L 54.390625 75.984375 
L 54.390625 0 
L 45.40625 0 
L 45.40625 8.203125 
Q 42.578125 3.328125 38.25 0.953125 
Q 33.9375 -1.421875 27.875 -1.421875 
Q 17.96875 -1.421875 11.734375 6.484375 
Q 5.515625 14.40625 5.515625 27.296875 
Q 5.515625 40.1875 11.734375 48.09375 
Q 17.96875 56 27.875 56 
Q 33.9375 56 38.25 53.625 
Q 42.578125 51.265625 45.40625 46.390625 
z
M 14.796875 27.296875 
Q 14.796875 17.390625 18.875 11.75 
Q 22.953125 6.109375 30.078125 6.109375 
Q 37.203125 6.109375 41.296875 11.75 
Q 45.40625 17.390625 45.40625 27.296875 
Q 45.40625 37.203125 41.296875 42.84375 
Q 37.203125 48.484375 30.078125 48.484375 
Q 22.953125 48.484375 18.875 42.84375 
Q 14.796875 37.203125 14.796875 27.296875 
z
" id="DejaVuSans-100"/>
       <path d="M 11.71875 12.40625 
L 22.015625 12.40625 
L 22.015625 0 
L 11.71875 0 
z
M 11.71875 51.703125 
L 22.015625 51.703125 
L 22.015625 39.3125 
L 11.71875 39.3125 
z
" id="DejaVuSans-58"/>
       <path d="M 40.578125 39.3125 
Q 47.65625 37.796875 51.625 33 
Q 55.609375 28.21875 55.609375 21.1875 
Q 55.609375 10.40625 48.1875 4.484375 
Q 40.765625 -1.421875 27.09375 -1.421875 
Q 22.515625 -1.421875 17.65625 -0.515625 
Q 12.796875 0.390625 7.625 2.203125 
L 7.625 11.71875 
Q 11.71875 9.328125 16.59375 8.109375 
Q 21.484375 6.890625 26.8125 6.890625 
Q 36.078125 6.890625 40.9375 10.546875 
Q 45.796875 14.203125 45.796875 21.1875 
Q 45.796875 27.640625 41.28125 31.265625 
Q 36.765625 34.90625 28.71875 34.90625 
L 20.21875 34.90625 
L 20.21875 43.015625 
L 29.109375 43.015625 
Q 36.375 43.015625 40.234375 45.921875 
Q 44.09375 48.828125 44.09375 54.296875 
Q 44.09375 59.90625 40.109375 62.90625 
Q 36.140625 65.921875 28.71875 65.921875 
Q 24.65625 65.921875 20.015625 65.03125 
Q 15.375 64.15625 9.8125 62.3125 
L 9.8125 71.09375 
Q 15.4375 72.65625 20.34375 73.4375 
Q 25.25 74.21875 29.59375 74.21875 
Q 40.828125 74.21875 47.359375 69.109375 
Q 53.90625 64.015625 53.90625 55.328125 
Q 53.90625 49.265625 50.4375 45.09375 
Q 46.96875 40.921875 40.578125 39.3125 
z
" id="DejaVuSans-51"/>
      </defs>
      <use xlink:href="#DejaVuSans-83"/>
      <use x="63.476562" xlink:href="#DejaVuSans-101"/>
      <use x="125" xlink:href="#DejaVuSans-101"/>
      <use x="186.523438" xlink:href="#DejaVuSans-100"/>
      <use x="250" xlink:href="#DejaVuSans-32"/>
      <use x="281.787109" xlink:href="#DejaVuSans-58"/>
      <use x="315.478516" xlink:href="#DejaVuSans-32"/>
      <use x="347.265625" xlink:href="#DejaVuSans-51"/>
      <use x="410.888672" xlink:href="#DejaVuSans-52"/>
      <use x="474.511719" xlink:href="#DejaVuSans-53"/>
      <use x="538.134766" xlink:href="#DejaVuSans-50"/>
     </g>
    </g>
    <g id="line2d_26">
     <path d="M 1198.821875 131.456563 
L 1218.821875 131.456563 
" style="fill:none;stroke:#ff7f0e;stroke-linecap:square;stroke-opacity:0.65;stroke-width:1.5;"/>
    </g>
    <g id="line2d_27"/>
    <g id="text_22">
     <!-- Seed : 6809 -->
     <g transform="translate(1226.821875 134.956563)scale(0.1 -0.1)">
      <defs>
       <path d="M 10.984375 1.515625 
L 10.984375 10.5 
Q 14.703125 8.734375 18.5 7.8125 
Q 22.3125 6.890625 25.984375 6.890625 
Q 35.75 6.890625 40.890625 13.453125 
Q 46.046875 20.015625 46.78125 33.40625 
Q 43.953125 29.203125 39.59375 26.953125 
Q 35.25 24.703125 29.984375 24.703125 
Q 19.046875 24.703125 12.671875 31.3125 
Q 6.296875 37.9375 6.296875 49.421875 
Q 6.296875 60.640625 12.9375 67.421875 
Q 19.578125 74.21875 30.609375 74.21875 
Q 43.265625 74.21875 49.921875 64.515625 
Q 56.59375 54.828125 56.59375 36.375 
Q 56.59375 19.140625 48.40625 8.859375 
Q 40.234375 -1.421875 26.421875 -1.421875 
Q 22.703125 -1.421875 18.890625 -0.6875 
Q 15.09375 0.046875 10.984375 1.515625 
z
M 30.609375 32.421875 
Q 37.25 32.421875 41.125 36.953125 
Q 45.015625 41.5 45.015625 49.421875 
Q 45.015625 57.28125 41.125 61.84375 
Q 37.25 66.40625 30.609375 66.40625 
Q 23.96875 66.40625 20.09375 61.84375 
Q 16.21875 57.28125 16.21875 49.421875 
Q 16.21875 41.5 20.09375 36.953125 
Q 23.96875 32.421875 30.609375 32.421875 
z
" id="DejaVuSans-57"/>
      </defs>
      <use xlink:href="#DejaVuSans-83"/>
      <use x="63.476562" xlink:href="#DejaVuSans-101"/>
      <use x="125" xlink:href="#DejaVuSans-101"/>
      <use x="186.523438" xlink:href="#DejaVuSans-100"/>
      <use x="250" xlink:href="#DejaVuSans-32"/>
      <use x="281.787109" xlink:href="#DejaVuSans-58"/>
      <use x="315.478516" xlink:href="#DejaVuSans-32"/>
      <use x="347.265625" xlink:href="#DejaVuSans-54"/>
      <use x="410.888672" xlink:href="#DejaVuSans-56"/>
      <use x="474.511719" xlink:href="#DejaVuSans-48"/>
      <use x="538.134766" xlink:href="#DejaVuSans-57"/>
     </g>
    </g>
    <g id="line2d_28">
     <path d="M 1198.821875 146.134688 
L 1218.821875 146.134688 
" style="fill:none;stroke:#2ca02c;stroke-linecap:square;stroke-opacity:0.65;stroke-width:1.5;"/>
    </g>
    <g id="line2d_29"/>
    <g id="text_23">
     <!-- Seed : 7348 -->
     <g transform="translate(1226.821875 149.634688)scale(0.1 -0.1)">
      <use xlink:href="#DejaVuSans-83"/>
      <use x="63.476562" xlink:href="#DejaVuSans-101"/>
      <use x="125" xlink:href="#DejaVuSans-101"/>
      <use x="186.523438" xlink:href="#DejaVuSans-100"/>
      <use x="250" xlink:href="#DejaVuSans-32"/>
      <use x="281.787109" xlink:href="#DejaVuSans-58"/>
      <use x="315.478516" xlink:href="#DejaVuSans-32"/>
      <use x="347.265625" xlink:href="#DejaVuSans-55"/>
      <use x="410.888672" xlink:href="#DejaVuSans-51"/>
      <use x="474.511719" xlink:href="#DejaVuSans-52"/>
      <use x="538.134766" xlink:href="#DejaVuSans-56"/>
     </g>
    </g>
    <g id="line2d_30">
     <path d="M 1198.821875 160.812812 
L 1218.821875 160.812812 
" style="fill:none;stroke:#d62728;stroke-linecap:square;stroke-opacity:0.65;stroke-width:1.5;"/>
    </g>
    <g id="line2d_31"/>
    <g id="text_24">
     <!-- Seed : 2789 -->
     <g transform="translate(1226.821875 164.312812)scale(0.1 -0.1)">
      <use xlink:href="#DejaVuSans-83"/>
      <use x="63.476562" xlink:href="#DejaVuSans-101"/>
      <use x="125" xlink:href="#DejaVuSans-101"/>
      <use x="186.523438" xlink:href="#DejaVuSans-100"/>
      <use x="250" xlink:href="#DejaVuSans-32"/>
      <use x="281.787109" xlink:href="#DejaVuSans-58"/>
      <use x="315.478516" xlink:href="#DejaVuSans-32"/>
      <use x="347.265625" xlink:href="#DejaVuSans-50"/>
      <use x="410.888672" xlink:href="#DejaVuSans-55"/>
      <use x="474.511719" xlink:href="#DejaVuSans-56"/>
      <use x="538.134766" xlink:href="#DejaVuSans-57"/>
     </g>
    </g>
    <g id="line2d_32">
     <path d="M 1198.821875 175.490937 
L 1218.821875 175.490937 
" style="fill:none;stroke:#9467bd;stroke-linecap:square;stroke-opacity:0.65;stroke-width:1.5;"/>
    </g>
    <g id="line2d_33"/>
    <g id="text_25">
     <!-- Seed : 2458 -->
     <g transform="translate(1226.821875 178.990937)scale(0.1 -0.1)">
      <use xlink:href="#DejaVuSans-83"/>
      <use x="63.476562" xlink:href="#DejaVuSans-101"/>
      <use x="125" xlink:href="#DejaVuSans-101"/>
      <use x="186.523438" xlink:href="#DejaVuSans-100"/>
      <use x="250" xlink:href="#DejaVuSans-32"/>
      <use x="281.787109" xlink:href="#DejaVuSans-58"/>
      <use x="315.478516" xlink:href="#DejaVuSans-32"/>
      <use x="347.265625" xlink:href="#DejaVuSans-50"/>
      <use x="410.888672" xlink:href="#DejaVuSans-52"/>
      <use x="474.511719" xlink:href="#DejaVuSans-53"/>
      <use x="538.134766" xlink:href="#DejaVuSans-56"/>
     </g>
    </g>
    <g id="line2d_34">
     <path d="M 1198.821875 190.169062 
L 1218.821875 190.169062 
" style="fill:none;stroke:#000000;stroke-linecap:square;stroke-width:1.5;"/>
    </g>
    <g id="line2d_35"/>
    <g id="text_26">
     <!-- Mean -->
     <g transform="translate(1226.821875 193.669062)scale(0.1 -0.1)">
      <use xlink:href="#DejaVuSans-77"/>
      <use x="86.279297" xlink:href="#DejaVuSans-101"/>
      <use x="147.802734" xlink:href="#DejaVuSans-97"/>
      <use x="209.082031" xlink:href="#DejaVuSans-110"/>
     </g>
    </g>
   </g>
  </g>
 </g>
 <defs>
  <clipPath id="pc46e9ea1c3">
   <rect height="652.32" width="1116" x="180" y="103.68"/>
  </clipPath>
 </defs>
</svg>
